<svg width="32" height="33" viewBox="0 0 32 33" fill="none" xmlns="http://www.w3.org/2000/svg">
<g clip-path="url(#clip0)">
<path d="M29.0636 0H2.25902C1.01132 0 0 1.01132 0 2.25902V29.0636C0 30.3113 1.01132 31.3226 2.25902 31.3226H29.0636C30.3113 31.3226 31.3226 30.3113 31.3226 29.0636V2.25902C31.3226 1.01132 30.3113 0 29.0636 0Z" fill="black"/>
<line x1="13.7235" y1="31.369" x2="12.9404" y2="25.1045" stroke="black" stroke-width="0.74902"/>
</g>
<path d="M15.8799 19.1615V32.0541L20.2127 32.0526V19.1596H23.8258L24.3692 14.6657H20.2131V11.7972C20.2131 10.4965 20.5492 9.60957 22.2912 9.60957L24.5134 9.60859V5.58934C24.1293 5.5359 22.8121 5.41284 21.2762 5.41284C18.0724 5.41284 15.8799 7.50778 15.8799 11.353V14.6672H12.2567V19.1615H15.8799Z" fill="white"/>
<defs>
<clipPath id="clip0">
<rect width="31.3226" height="31.3226" fill="white"/>
</clipPath>
</defs>
</svg>
