<?xml version="1.0" encoding="utf-8"?>
<!-- Generator: Adobe Illustrator 25.0.0, SVG Export Plug-In . SVG Version: 6.00 Build 0)  -->
<svg version="1.1" id="Layer_1" xmlns="http://www.w3.org/2000/svg" xmlns:xlink="http://www.w3.org/1999/xlink" x="0px" y="0px"
	 viewBox="0 0 24 24" style="enable-background:new 0 0 24 24;" xml:space="preserve">
<path d="M22.3,0H1.7C0.8,0,0,0.8,0,1.7v20.5c0,1,0.8,1.7,1.7,1.7h20.5c1,0,1.7-0.8,1.7-1.7V1.7C24,0.8,23.2,0,22.3,0z M18,9.2v1.6
	c-0.8,0-1.5-0.1-2.2-0.4c-0.5-0.2-0.9-0.4-1.3-0.7l0,5c0,1.1-0.4,2.2-1.3,3c-0.7,0.6-1.5,1.1-2.4,1.2c-0.2,0-0.4,0-0.6,0
	c-1,0-1.9-0.3-2.6-0.9c-0.1-0.1-0.3-0.2-0.4-0.4c-0.9-0.9-1.3-2-1.2-3.3c0.1-0.9,0.4-1.8,1.1-2.5c0.8-0.9,2-1.4,3.2-1.4
	c0.2,0,0.4,0,0.6,0V11v1.7c-0.2-0.1-0.4-0.1-0.6-0.1c-1.1,0-2,0.9-2,2.1c0,0.7,0.4,1.4,1,1.7c0.3,0.2,0.6,0.3,0.9,0.3
	c0.3,0,0.5,0,0.8-0.1c0.8-0.3,1.4-1,1.4-1.9l0-3.3V5.2h2.2c0,0.2,0,0.4,0.1,0.6c0.2,0.8,0.6,1.6,1.3,2.1c0.6,0.4,1.3,0.7,2.1,0.7
	l0,0V9.2z"/>
</svg>
