<?xml version="1.0" encoding="utf-8"?>
<!-- Generator: Adobe Illustrator 25.0.0, SVG Export Plug-In . SVG Version: 6.00 Build 0)  -->
<svg version="1.1" id="Layer_1" xmlns="http://www.w3.org/2000/svg" xmlns:xlink="http://www.w3.org/1999/xlink" x="0px" y="0px"
	 viewBox="0 0 34.3 24" style="enable-background:new 0 0 34.3 24;" xml:space="preserve">
<path d="M33.6,3.8c-0.4-1.5-1.6-2.6-3-3C27.9,0,17.1,0,17.1,0S6.4,0,3.7,0.7c-1.4,0.4-2.6,1.6-3,3C0,6.4,0,12,0,12s0,5.6,0.7,8.2
	c0.4,1.5,1.6,2.6,3,3C6.4,24,17.1,24,17.1,24s10.7,0,13.4-0.7c1.5-0.4,2.6-1.6,3-3c0.7-2.7,0.7-8.2,0.7-8.2S34.3,6.4,33.6,3.8z
	 M13.7,17.1V6.9l8.9,5.1L13.7,17.1z"/>
</svg>
