<?xml version="1.0" encoding="UTF-8"?>
<svg width="1000px" height="696px" viewBox="0 0 1000 696" version="1.1" xmlns="http://www.w3.org/2000/svg" xmlns:xlink="http://www.w3.org/1999/xlink">
    <!-- Generator: Sketch 62 (91390) - https://sketch.com -->
    <title>Fill 1</title>
    <desc>Created with Sketch.</desc>
    <g id="Inhalte" stroke="none" stroke-width="1" fill="none" fill-rule="evenodd">
        <g id="Artboard-Copy-18" transform="translate(0.000000, -152.000000)" fill="#1D1D1B">
            <path d="M696,309.076629 C696,263.146356 735.347321,220.004364 759.072405,220.004364 L759.140147,220.002182 C759.177296,220.002182 759.214445,220 759.251594,220 C759.732345,220 759.953054,220.080725 759.990203,220.069816 C760.00987,220.167995 760.016426,220.455986 759.843792,220.966517 L745.877963,266.235718 C745.71407,266.754976 729.049477,318 700.822811,318 C696.600939,318 696.002185,309.076629 696,309.076629 M93.5334535,657.523929 C96.9269941,655.722041 99.8790451,654.813435 102.273194,654.813435 C103.62402,654.813435 104.796933,655.102437 105.769968,655.684821 C107.973024,657.002848 108.552891,659.465938 108.552891,660.582539 C108.552891,664.560703 107.463444,666.592478 106.308102,668.742482 C105.269174,670.677924 104.091868,672.871716 104.091868,676.105479 C104.091868,683.133496 108.522141,687.503565 115.651871,687.503565 C119.662618,687.503565 129.731221,684.657328 138.52148,678.6036 C164.791218,661.902755 176.237005,629.554173 188.354911,595.30737 C190.48768,589.279916 192.686342,583.061982 194.983846,576.887836 C204.299061,574.996183 213.601096,574 221.97183,574 C261.710301,574 266,609.218903 266,624.358696 C266,663.641149 248.289891,708.003042 218.626611,743.029276 C187.96394,779.235604 149.639993,800 113.481762,800 C93.7399213,800 79.0323819,791.682419 69.7698828,775.274955 C60.7050657,759.213419 60,741.028152 60,735.839243 C60,687.96991 81.9361105,663.678369 93.5334535,657.523929 M260.111243,542.16786 C269.763269,534.868343 285.005619,518.008629 285.001232,484.324284 C284.926666,483.184077 282.955029,457.13254 258.657189,441.456887 C265.317767,433.861355 272.081422,425.840437 278.820953,417.547624 C312.204988,465.898978 363.41051,473.216037 391.311686,473.216037 C468.918273,473.216037 503.800226,422.739951 503.800226,409.717472 C503.800226,407.263835 502.962445,402.73809 499.824056,401.336951 C499.016979,400.977347 496.896209,400.369968 494.556124,402.47058 C468.407271,426.632004 436.437813,439.402322 402.09976,439.402322 C356.723615,439.402322 326.798167,418.700988 310.663208,376.120835 C345.63508,328.186096 370.797019,285.739699 379.81084,270.443384 L402.770862,266.544753 L372.764269,363.517163 C366.904188,382.455562 371.121604,393.818163 375.692116,400.014749 C381.299984,407.619053 390.677867,411.807121 402.09976,411.807121 C434.981566,411.807121 463.40471,398.15095 486.575274,371.217945 C507.982551,346.337314 520.338723,315.275445 526.92912,293.611512 L542.208753,244.251514 L567.068038,240.030556 C570.234938,239.49115 573.362361,240.578732 575.428303,242.935891 C577.478892,245.275508 578.114904,248.356259 577.178431,251.386579 L551.926574,332.959616 C547.029283,348.784373 547.520548,361.227978 553.380628,369.939598 C558.102467,376.956256 566.293859,381.155288 577.066581,382.087188 L577.294668,382.098151 C607.503031,382.098151 635.173927,355.099366 648.979767,339.004906 C650.192576,337.590611 651.370294,336.174123 652.504149,334.772984 C656.725951,353.717961 669.672079,364.841557 680.997474,364.841557 C705.124249,364.841557 725.222219,338.30324 733.714072,325.122886 C737.802092,350.251294 760.384894,350.251294 768.29337,350.251294 C790.12831,350.251294 822.858788,329.685907 830.756299,304.149656 C831.486616,301.785919 830.539178,299.341052 828.400863,298.062705 C826.249389,296.773394 823.628582,297.104493 821.882839,298.876199 C817.400053,303.426063 811.65621,306.853262 804.811408,309.065702 C798.92501,310.968971 793.389515,310.10943 790.00988,306.769939 C787.158793,303.956698 786.301274,299.830026 787.654444,295.453385 L822.621929,182.450104 L769.166241,191.527906 L767.084948,198.25732 C764.196578,196.13478 759.294901,193.863137 751.533365,193.863137 C689.353352,195.529594 660.616588,260.59375 653.401145,298.920053 C647.810821,316.731401 624.451647,336.73107 609.886978,340.042056 C607.428464,340.601196 604.162873,340.899404 602.544333,339.151817 C601.471886,337.996261 600.077046,334.742286 602.794351,325.964885 C604.147521,321.594823 613.038526,292.798019 621.47555,265.468135 C625.098624,253.732774 627.539593,237.585689 618.606918,227.297514 C611.580085,219.204237 598.962929,216.546678 581.075648,219.405966 L563.065551,222.464791 C559.861368,223.012967 556.665957,221.874953 554.523256,219.430086 C552.380554,216.983026 551.674362,213.667655 552.637152,210.562784 L557.337059,195.378297 L532.245301,199.638724 C513.706656,202.789642 499.870112,218.164895 498.602475,237.028742 C498.365615,240.569962 499.756068,243.981812 502.420738,246.389402 C505.157782,248.860582 508.809366,249.919659 512.439019,249.307894 L521.720404,247.731338 L510.085776,285.305543 C500.808777,314.091384 478.706274,364.247334 435.014463,376.712866 C432.42436,377.335594 427.67401,377.958323 424.985216,375.096842 C422.147288,372.073101 422.046403,365.683556 424.700107,357.103499 L455.49404,257.589743 L487.676232,252.121135 L495.268896,227.586951 L463.086704,233.053366 L481.721847,172.828511 L428.998669,181.781329 L410.363526,242.008376 L363.897388,249.899924 L363.353489,251.281329 C361.888468,255.00235 337.882316,294.036897 301.601138,342.285194 C298.521964,325.017636 296.964832,305.342488 296.964832,283.693905 L296.964832,280.57807 L246.969925,289.063841 L246.969925,291.285052 C246.969925,329.894214 252.650168,363.058888 263.857133,389.897605 C251.487802,404.650129 239.212776,418.420321 227.341288,430.859541 C223.277393,430.381531 219.011728,430.140333 214.638599,430.140333 C172.003883,430.140333 138.935661,450.530304 138.935661,468.069756 C138.935661,473.823416 142.477588,477.125631 148.651288,477.125631 C151.748007,477.125631 154.3732,475.472331 157.695813,473.382682 C163.996715,469.41827 173.365826,463.522085 194.34544,462.980486 C153.046348,499.938541 117.464783,518.848435 88.5284434,519.197075 C81.8108439,519.221195 71.1083021,516.377256 62.5682,507.94411 C53.8460671,499.326776 49.422496,487.034468 49.422496,471.409247 C49.422496,394.780761 105.31038,343.945072 152.193215,314.79305 C154.390745,313.424801 156.507129,312.146454 158.520435,310.929502 C172.032394,302.759481 181.796271,296.856717 181.796271,284.913049 C181.796271,281.799407 181.169031,279.742649 179.818055,278.444567 C178.21048,276.896517 176.159891,276.97984 174.808914,277.030272 C174.567669,277.039043 174.326423,277.050006 174.085177,277.050006 C172.942549,277.050006 171.84817,277.506089 170.03444,278.262573 C165.915716,279.983847 157.340524,283.562342 140.984057,283.562342 C139.174714,283.562342 129.717877,283.354035 121.429987,279.24929 C112.55872,274.852915 108.060582,267.54682 108.060582,257.53054 C108.060582,218.020176 156.693546,179.421978 184.923694,179.421978 C199.130879,179.421978 199.130879,183.912639 199.130879,185.831256 C199.130879,189.81321 198.040887,191.848041 196.889486,194.001278 C195.849936,195.93963 194.674411,198.136721 194.674411,201.373154 C194.674411,208.413932 199.097982,212.78838 206.216927,212.78838 C214.831596,212.78838 243.202104,201.568305 243.202104,176.790731 C243.202104,168.07034 237.127096,160.619526 226.538598,156.350328 C219.373597,153.462535 210.263277,152 199.457658,152 C156.178158,152 71.9416967,190.420589 71.9416967,260.848104 C71.9416967,275.256373 76.4047444,286.244021 85.2058305,293.512841 C93.5617085,300.413286 104.27083,302.66958 113.047791,303.171709 C100.766186,308.774072 82.4753665,318.669753 64.0222544,334.330057 C34.813965,359.116403 5.68434189e-14,403.549391 5.68434189e-14,474.468072 C5.68434189e-14,495.774593 5.91710202,515.59446 16.6613136,530.274625 C29.9539583,548.441191 50.2536975,558.04305 75.3695805,558.04305 C121.480429,558.04305 173.692604,528.969965 230.584948,471.626325 C237.521862,477.132209 241.035278,485.328543 241.035278,496.03114 C241.035278,511.989652 229.569522,538.73189 198.045273,546.983042 L164.262086,554.957913 C159.522702,556.078385 155.724177,559.670037 154.346883,564.333922 C149.971561,579.171962 138.992683,614.202628 128.564284,629.887052 C124.340289,627.051884 118.234576,624.291267 110.462075,624.291267 C47.6745603,624.291267 18.4224081,697.290825 18.4224081,746.604777 C18.3346823,757.276675 20.0804248,794.1536 46.2797209,820.566933 C63.6779308,838.106386 87.8551483,847 118.140271,847 C162.369403,847 212.851187,819.442075 253.180909,773.287812 C293.181659,727.504117 317.064995,670.748123 317.064995,621.464869 C317.064995,600.688983 317.062802,547.09487 260.111243,542.16786 M564.955642,595.843423 L595.513716,496.727895 L635,490 L604.700652,586.765162 C598.583336,606.311236 577.547665,618.533579 568.0735,615.554397 C560.717373,613.23921 562.960389,602.219533 564.955642,595.843423 M756,526 C768.473717,491.496756 790.711192,476 807.70224,476 C813.605295,476 816.908194,479.126096 816.998234,484.801736 C817.206861,497.69195 798.946481,523.209313 756,526 M996.897383,535.697308 C994.814387,534.746834 992.428809,535.18265 990.821614,536.816413 C987.29587,540.392732 981.518298,545.191089 974.034862,547.722764 C966.845239,550.155887 960.745351,549.849283 957.717333,546.903692 C954.577492,543.85079 954.288065,537.806307 956.884135,529.429441 C958.236986,525.062521 967.123703,496.303044 975.560931,469.004317 C979.180958,457.285465 981.623544,441.158082 972.690782,430.88027 C965.667798,422.799059 953.051423,420.146932 935.170551,422.998351 L917.1647,426.053444 C913.956886,426.594381 910.766614,425.466515 908.624418,423.022442 C906.482222,420.580558 905.774003,417.269232 906.736566,414.168149 L911.435366,399 L886.351714,403.257419 C871.117343,405.841654 858.871522,416.627553 854.391985,431.401497 C852.78479,436.701371 854.030202,442.362599 857.724778,446.545557 C861.48294,450.802975 867.063176,452.780573 872.641219,451.8301 L875.829298,451.289162 L867.203504,479.122256 C851.203906,530.82449 813.093858,582.993201 764.022869,582.993201 C750.428583,582.993201 748.961715,570.155243 748.961715,564.634177 C748.961715,557.880124 749.689667,550.830417 751.132416,543.655877 C815.036526,541.916993 838.304682,505.674183 838.304682,481.463399 C838.304682,467.173451 826.60921,451.792869 800.931357,451.792869 C744.714597,451.792869 714.886101,508.808116 708.55818,547.094225 C704.339566,570.65019 686.077177,588.01275 670.215714,592.986309 C664.150908,594.887255 659.125407,594.624451 656.774911,592.278929 C654.196382,589.703453 654.998884,584.883197 656.125894,581.293737 L687.476073,481.52253 L730.056886,474.29762 L738.309934,449.863452 L695.121763,457.191294 L713.386344,399.070081 L661.776293,406.9958 L643.22667,465.997405 L603.612481,472.718608 C620.530789,418.062023 620.532982,418.051073 620.532982,417.654678 L620.532982,414.577685 L568.102889,422.89323 L549.844885,481.844464 L520.77723,486.776412 L513.24775,511.087938 L542.313211,506.15599 L512.272031,603.145859 C506.176528,622.821091 484.515567,635.050219 474.66848,632.006077 C467.143385,629.680265 469.283389,618.798005 471.228249,612.514808 L503.312958,508.926378 L452.268604,517.587948 L420.968856,618.646893 C414.976407,638.00019 394.304321,650.209609 384.985656,647.336289 C377.671053,645.078368 379.889992,634.051566 381.863356,627.680768 L413.948065,524.092337 L365.12265,532.375032 L333.822901,633.425217 C329.43984,647.577192 330.163407,659.127412 335.976061,667.756131 C341.341419,675.719081 350.688587,680.493347 363.004572,681.555512 L363.232605,681.566462 C394.150837,681.566462 415.193477,660.358209 422.501502,651.692259 C427.673909,660.226807 437.347778,665.460979 450.222883,666.573515 L450.448724,666.582275 C486.425345,666.582275 508.450282,643.170852 515.512733,634.288089 C521.454752,642.932138 532.308255,648.453205 545.985861,649.633631 L546.211702,649.644581 C579.344487,649.644581 598.569439,628.079353 605.23941,618.925027 C610.668354,628.120964 621.342061,633.953014 635.293746,635.157531 L635.521779,635.168481 C648.703852,635.168481 681.80594,630.481816 711.209066,588.218613 C717.813258,606.240372 732.736276,616.075797 753.783302,616.075797 C799.335125,616.075797 859.691564,568.703253 886.902064,478.182733 L896.310626,447.813584 L917.061646,444.294205 C920.188332,443.764218 923.304055,444.867993 925.391436,447.248556 C927.476624,449.629119 928.162916,452.852844 927.226664,455.875085 L901.978566,537.35297 C897.380627,552.205756 898.981245,565.987616 906.493185,576.158116 C912.700511,584.567832 922.293254,589.392469 932.809092,589.392469 C940.103962,589.392469 946.004321,588.413526 950.725046,586.996576 C937.773199,597.41236 916.254759,608.945059 888.550919,620.122973 C852.480015,634.675724 809.355429,647.104146 775.992419,652.559511 L493.41544,700.510223 C396.689899,716.9245 331.702631,758.451853 331.702631,803.914691 C332.513903,836.031485 355.793022,848 370.275323,848 C412.200541,848 430.717275,830.267325 456.344698,805.723656 C490.26902,773.232368 536.730784,728.735333 669.50311,699.780943 C938.887054,640.096049 995.673897,594.753663 999.982409,540.93805 C1000.1622,538.693269 998.951874,536.636831 996.897383,535.697308" id="Fill-1"></path>
        </g>
    </g>
</svg>