<?xml version="1.0" encoding="UTF-8"?>
<svg width="999px" height="998px" viewBox="0 0 999 998" version="1.1" xmlns="http://www.w3.org/2000/svg" xmlns:xlink="http://www.w3.org/1999/xlink">
    <!-- Generator: Sketch 62 (91390) - https://sketch.com -->
    <title>Combined Shape</title>
    <desc>Created with Sketch.</desc>
    <g id="Inhalte" stroke="none" stroke-width="1" fill="none" fill-rule="evenodd">
        <g id="Artboard-Copy-8" fill="#1D1D1B" fill-rule="nonzero">
            <path d="M998.42637,-0.925999111 L998.42637,997.42637 L0.0740008888,997.42637 L0.0740008888,-0.925999111 L998.42637,-0.925999111 Z M934.553,62.946 L63.946,62.946 L63.946,933.553 L934.553,933.553 L934.553,62.946 Z M881.615498,349.502908 L881.615498,530.18556 L764.807,530.185 L764.807,816.743 L817.743,816.743 L817.7431,583.123416 L881.615498,583.123416 L881.615498,880.616322 L700.934906,880.616322 L700.934906,349.502908 L881.615498,349.502908 Z M531.186179,115.883225 L531.186179,880.615086 L116.883019,880.615086 L116.883019,816.742688 L467.313,816.742 L467.312001,763.806001 L233.693891,763.806068 L233.693891,291.098812 L297.566289,291.098812 L297.566,699.933 L467.312001,699.933001 L467.31378,115.883225 L531.186179,115.883225 Z M881.616734,115.883637 L881.616734,296.566289 L647.996,296.566 L647.996226,880.615498 L584.123828,880.615498 L584.123828,115.883637 L881.616734,115.883637 Z M180.756241,115.883225 L180.756001,174.288001 L350.503001,174.288001 L350.503938,115.883225 L414.376337,115.883225 L414.376337,646.994578 L350.503938,646.994578 L350.503001,238.161001 L180.756001,238.161001 L180.756241,763.806892 L116.883843,763.806892 L116.883843,115.883225 L180.756241,115.883225 Z M817.743,413.375 L764.807,413.375 L764.807,466.313 L817.743,466.313 L817.743,413.375 Z M817.744,179.756 L647.996,179.756 L647.996,232.693 L817.744,232.693 L817.744,179.756 Z" id="Combined-Shape"></path>
        </g>
    </g>
</svg>