<?xml version="1.0" encoding="UTF-8"?>
<svg width="367px" height="367px" viewBox="0 0 367 367" version="1.1" xmlns="http://www.w3.org/2000/svg" xmlns:xlink="http://www.w3.org/1999/xlink">
    <!-- Generator: Sketch 57.1 (83088) - https://sketch.com -->
    <title>Group 5</title>
    <desc>Created with Sketch.</desc>
    <defs>
        <polygon id="path-1" points="0 0.000419999993 305.391795 0.000419999993 305.391795 291.401595 0 291.401595"></polygon>
    </defs>
    <g id="New" stroke="none" stroke-width="1" fill="none" fill-rule="evenodd">
        <g id="Artboard" transform="translate(-1560.000000, -1204.000000)">
            <g id="Group-5" transform="translate(1560.000000, 1204.000000)">
                <g id="Group-3-Copy-3" fill="#FFFFFF">
                    <g id="Group-2-Copy">
                        <g id="Familie-Sauerwein--Copy-4">
                            <g id="Group-4">
                                <rect id="Rectangle" x="0" y="0" width="367" height="367"></rect>
                            </g>
                        </g>
                    </g>
                </g>
                <g id="Group-3" transform="translate(30.000000, 37.000000)">
                    <mask id="mask-2" fill="white">
                        <use xlink:href="#path-1"></use>
                    </mask>
                    <g id="Clip-2"></g>
                    <path d="M198.939997,265.859015 L199.499997,267.959015 L198.239997,267.959015 L198.939997,265.859015 Z M198.099997,268.939015 L199.919997,268.939015 L200.339997,270.339015 L201.459997,270.339015 L199.499997,264.459015 L198.379997,264.459015 L196.419997,270.339015 L197.539997,270.339015 L198.099997,268.939015 Z M194.739997,273.139015 L214.339996,273.139015 L214.339996,261.939016 L194.739997,261.939016 L194.739997,273.139015 Z M218.539996,252.139016 L215.739996,252.139016 L215.739996,259.139016 L213.639997,256.339016 L211.539996,259.139016 L211.539996,252.139016 L189.139997,252.139016 L189.139997,291.339015 L218.539996,291.339015 C219.379996,291.339015 219.939996,290.779015 219.939996,289.939015 L219.939996,253.539016 C219.939996,252.700416 219.379996,252.139016 218.539996,252.139016 L218.539996,252.139016 Z M203.279997,269.359015 L203.279997,267.819015 L204.259997,267.819015 C204.539997,267.819015 204.819997,267.819015 204.959997,267.959015 C205.099997,268.100415 205.239997,268.239015 205.239997,268.519015 C205.239997,268.800415 205.099997,268.939015 204.959997,269.079015 C204.819997,269.219015 204.539997,269.219015 204.259997,269.219015 L203.279997,269.219015 L203.279997,269.359015 Z M203.279997,265.439015 L204.259997,265.439015 C204.539997,265.439015 204.679997,265.439015 204.819997,265.579015 C204.959997,265.719015 204.959997,265.859015 204.959997,266.139015 C204.959997,266.419015 204.959997,266.559015 204.819997,266.700415 C204.679997,266.839015 204.539997,266.839015 204.259997,266.839015 L203.279997,266.839015 L203.279997,265.439015 Z M205.799996,269.919015 C206.079996,269.639015 206.359996,269.219015 206.359996,268.659015 C206.359996,268.239015 206.219996,267.959015 206.079996,267.679015 C205.939996,267.400415 205.659997,267.259015 205.379997,267.119015 C205.519997,266.979015 205.659997,266.839015 205.799996,266.700415 C205.939996,266.559015 205.939996,266.279015 205.939996,266.000415 C205.939996,265.719015 205.939996,265.439015 205.799996,265.300415 C205.659997,265.159015 205.659997,264.879015 205.519997,264.739015 C205.379997,264.600415 205.239997,264.459015 204.959997,264.459015 C204.819997,264.459015 204.539997,264.319015 204.259997,264.319015 L202.159997,264.319015 L202.159997,270.200415 L204.399997,270.200415 C205.099997,270.339015 205.519997,270.200415 205.799996,269.919015 L205.799996,269.919015 Z M207.479996,268.659015 C207.339996,268.239015 207.199996,267.819015 207.199996,267.400415 C207.199996,266.979015 207.339996,266.419015 207.479996,266.139015 C207.619996,265.719015 207.899996,265.439015 208.039996,265.159015 C208.179996,264.879015 208.599996,264.739015 208.879996,264.600415 C209.159996,264.459015 209.579996,264.459015 209.999996,264.459015 C210.699996,264.459015 211.119996,264.600415 211.539996,264.879015 C211.959996,265.159015 212.239996,265.579015 212.379996,266.139015 L211.399996,266.419015 C211.259996,266.139015 211.119996,265.859015 210.839996,265.719015 C210.559996,265.579015 210.279996,265.439015 209.859996,265.439015 C209.579996,265.439015 209.439996,265.439015 209.159996,265.579015 C209.019996,265.719015 208.739996,265.719015 208.599996,266.000415 C208.459996,266.139015 208.319996,266.419015 208.179996,266.559015 C208.039996,266.839015 208.039996,267.119015 208.039996,267.400415 C208.039996,267.679015 208.039996,268.100415 208.179996,268.239015 C208.319996,268.519015 208.319996,268.659015 208.599996,268.800415 C208.739996,268.939015 208.879996,269.079015 209.159996,269.219015 C209.299996,269.359015 209.579996,269.359015 209.859996,269.359015 C210.279996,269.359015 210.559996,269.219015 210.839996,269.080415 C211.119996,268.939015 211.259996,268.659015 211.399996,268.380415 L212.379996,268.659015 C212.239996,269.219015 211.959996,269.639015 211.539996,269.919015 C211.119996,270.200415 210.559996,270.339015 209.999996,270.339015 C209.579996,270.339015 209.299996,270.339015 208.879996,270.200415 C208.599996,270.059015 208.319996,269.919015 208.039996,269.639015 C207.759996,269.359015 207.619996,269.079015 207.479996,268.659015 L207.479996,268.659015 Z M288.539995,101.639018 C288.539995,100.519018 289.519995,99.5390183 290.639995,99.5390183 C291.759995,99.5390183 292.739995,100.519018 292.739995,101.639018 C292.739995,102.759018 291.759995,103.739018 290.639995,103.739018 C289.519995,103.739018 288.539995,102.759018 288.539995,101.639018 L288.539995,101.639018 Z M275.939995,98.1390183 L275.939995,97.5790183 C275.939995,96.0390184 276.919995,93.2390184 280.139995,92.6790184 C281.679995,92.4004184 290.079995,92.5390184 291.339995,92.6790184 C294.279995,93.1004184 295.539995,96.3190184 295.539995,97.5790183 L295.539995,98.1390183 L295.539995,107.379018 L293.019995,109.339018 C289.099995,105.839018 282.379995,105.839018 278.459995,109.339018 L275.939995,107.379018 L275.939995,98.1390183 Z M290.499995,113.259018 C288.959995,114.100418 287.279995,114.379018 285.739995,114.379018 C284.199995,114.379018 282.519995,113.959018 280.979995,113.259018 C280.419995,112.979018 280.139995,112.139018 280.419995,111.579018 C280.699995,111.019018 281.539995,110.739018 282.099995,111.019018 C284.479995,112.279018 286.859995,112.279018 289.379995,111.019018 C289.939995,110.739018 290.779995,111.019018 291.059995,111.579018 C291.339995,112.139018 291.059995,112.979018 290.499995,113.259018 L290.499995,113.259018 Z M273.139995,98.1390186 L273.139995,109.339018 L273.139995,114.519018 C273.139995,115.779018 274.119995,118.019018 275.659995,119.700418 C277.899995,122.079018 281.259995,123.479018 285.739995,123.479018 C290.219995,123.479018 293.439995,122.079018 295.819995,119.700418 C297.359995,118.019018 298.339995,115.779018 298.339995,114.519018 L298.339995,109.339018 L298.339995,98.1390186 C298.339995,90.4390185 297.639995,88.2004185 294.419995,88.3390185 L294.279995,88.2004185 C293.719995,85.9590185 289.939995,83.5790186 286.579995,84.2790186 C283.219995,84.9790186 276.079995,84.1390186 276.079995,84.1390186 C275.939995,85.4004185 277.339995,86.3790185 277.339995,86.3790185 C273.139995,89.0390185 273.139995,89.0390185 273.139995,98.1390186 L273.139995,98.1390186 Z M278.739995,101.639018 C278.739995,100.519018 279.719995,99.5390183 280.839995,99.5390183 C281.959995,99.5390183 282.939995,100.519018 282.939995,101.639018 C282.939995,102.759018 281.959995,103.739018 280.839995,103.739018 C279.719995,103.739018 278.739995,102.759018 278.739995,101.639018 L278.739995,101.639018 Z M278.739995,17.6390197 C278.739995,16.5190197 279.719995,15.5390197 280.839995,15.5390197 C281.959995,15.5390197 282.939995,16.5190197 282.939995,17.6390197 C282.939995,18.7590197 281.959995,19.7390197 280.839995,19.7390197 C279.719995,19.7390197 278.739995,18.7590197 278.739995,17.6390197 L278.739995,17.6390197 Z M282.379995,24.3590196 C284.059995,25.7590196 287.419995,25.7590196 289.099995,24.3590196 C289.659995,23.9390196 290.359995,23.9390196 290.919995,24.5004196 C291.339995,25.0590196 291.339995,25.7590196 290.779995,26.3190196 C289.519995,27.4390195 287.559995,28.0004195 285.739995,28.0004195 C283.919995,28.0004195 281.959995,27.4390195 280.699995,26.3190196 C280.139995,25.9004196 280.139995,25.0590196 280.559995,24.5004196 C281.119995,23.9390196 281.819995,23.9390196 282.379995,24.3590196 L282.379995,24.3590196 Z M280.139995,12.7390198 C281.679995,12.4590198 283.639995,11.3390198 285.739995,7.13901988 C287.839995,11.3390198 290.079995,12.6004198 291.339995,12.7390198 C296.239995,13.4390198 298.339995,14.4190198 298.339995,19.8790197 C298.339995,26.7390195 292.739995,32.3390194 285.739995,32.3390194 C278.739995,32.3390194 273.139995,26.7390195 273.139995,19.8790197 C273.139995,14.7004197 275.659995,13.5790198 280.139995,12.7390198 L280.139995,12.7390198 Z M275.659995,38.0790194 C277.059995,36.1190194 279.019995,34.7190194 281.259995,33.7390194 C282.659995,34.3004194 284.199995,34.5790194 285.879995,34.5790194 C287.559995,34.5790194 289.099995,34.3004194 290.499995,33.7390194 C292.739995,34.5790194 294.699995,36.1190194 296.099995,38.0790194 C299.599995,37.1004194 302.539995,35.5590194 304.919995,33.3190194 C305.339995,33.0390194 305.479995,32.4790194 305.339995,32.0590195 C303.659995,20.4390197 301.839995,12.6004198 300.019995,8.53901985 C297.219995,2.37901996 292.039995,0.139019998 285.739995,0.139019998 C279.439995,0.139019998 274.259995,2.37901996 271.459995,8.53901985 C269.639995,12.6004198 267.819995,20.4390197 266.139995,32.0590195 C266.139995,32.4790194 266.279995,33.0390194 266.559995,33.3190194 C269.219995,35.4190194 272.159995,36.9590194 275.659995,38.0790194 L275.659995,38.0790194 Z M288.539995,17.6390197 C288.539995,16.5190197 289.519995,15.5390197 290.639995,15.5390197 C291.759995,15.5390197 292.739995,16.5190197 292.739995,17.6390197 C292.739995,18.7590197 291.759995,19.7390197 290.639995,19.7390197 C289.519995,19.7390197 288.539995,18.7590197 288.539995,17.6390197 L288.539995,17.6390197 Z M133.139998,9.93901983 L137.339998,9.93901983 L137.339998,32.3390194 L126.839998,32.3390194 L126.839998,13.8590198 C126.839998,12.8790198 125.999998,12.1790198 125.159998,12.1790198 L122.079998,12.1790198 C121.799998,11.4790198 121.519998,10.7790198 121.099998,10.0790198 L130.339998,10.0790198 C130.339998,7.00041988 127.819998,4.47901992 124.739998,4.47901992 C122.359998,4.47901992 120.399998,5.8790199 119.559998,7.83901987 C118.859998,7.13901988 118.159998,6.43901989 117.459998,5.8790199 C118.859998,3.35901994 121.659998,1.67901997 124.739998,1.67901997 C129.359998,1.53901997 133.139998,5.31901991 133.139998,9.93901983 L133.139998,9.93901983 Z M105.139998,15.5390197 C105.139998,12.4590198 107.659998,9.93901983 110.739998,9.93901983 C113.819998,9.93901983 116.339998,12.4590198 116.339998,15.5390197 L105.139998,15.5390197 Z M123.339998,15.5390197 L119.139998,15.5390197 C119.139998,10.9190198 115.359998,7.13901988 110.739998,7.13901988 C106.119998,7.13901988 102.339998,10.9190198 102.339998,15.5390197 L98.1399983,15.5390197 L98.1399983,37.9390194 L123.339998,37.9390194 L123.339998,15.5390197 Z M110.599998,92.5390184 C110.039998,93.5190184 110.039998,94.7790184 110.599998,96.1790184 C110.879998,96.8790184 110.599998,97.7190183 109.899998,98.0004183 C109.759998,98.1390183 109.479998,98.1390183 109.339998,98.1390183 C108.779998,98.1390183 108.219998,97.8590183 108.079998,97.3004183 C107.099998,95.0590184 107.239998,92.9590184 108.079998,91.1390184 C108.639998,90.1590185 108.639998,88.9004185 108.079998,87.5004185 C107.799998,86.8004185 108.079998,85.9590185 108.779998,85.6790185 C109.479998,85.4004185 110.319998,85.6790185 110.599998,86.3790185 C111.579998,88.6190185 111.579998,90.7190185 110.599998,92.5390184 L110.599998,92.5390184 Z M117.599998,91.1390184 C117.039998,92.1190184 117.039998,93.3790184 117.599998,94.7790184 C117.879998,95.4790184 117.599998,96.3190184 116.899998,96.6004184 C116.759998,96.7390184 116.479998,96.7390184 116.339998,96.7390184 C115.779998,96.7390184 115.219998,96.4590184 115.079998,95.9004184 C114.099998,93.6590184 114.239998,91.5590184 115.079998,89.7390185 C115.639998,88.7590185 115.639998,87.5004185 115.079998,86.1004185 C114.799998,85.4004185 115.079998,84.5590186 115.779998,84.2790186 C116.479998,84.0004186 117.319998,84.2790186 117.599998,84.9790186 C118.579998,87.2190185 118.579998,89.3190185 117.599998,91.1390184 L117.599998,91.1390184 Z M124.599998,92.5390184 C124.039998,93.5190184 124.039998,94.7790184 124.599998,96.1790184 C124.879998,96.8790184 124.599998,97.7190183 123.899998,98.0004183 C123.759998,98.1390183 123.479998,98.1390183 123.339998,98.1390183 C122.779998,98.1390183 122.219998,97.8590183 122.079998,97.3004183 C121.099998,95.0590184 121.239998,92.9590184 122.079998,91.1390184 C122.639998,90.1590185 122.639998,88.9004185 122.079998,87.5004185 C121.799998,86.8004185 122.079998,85.9590185 122.779998,85.6790185 C123.479998,85.4004185 124.319998,85.6790185 124.599998,86.3790185 C125.579998,88.6190185 125.579998,90.7190185 124.599998,92.5390184 L124.599998,92.5390184 Z M129.919998,113.819018 C129.639998,113.959018 129.359998,114.239018 128.659998,114.519018 L130.339998,106.539018 L132.019998,106.539018 C132.719998,106.539018 133.699998,107.100418 133.979998,107.939018 C134.539998,109.479018 132.999998,111.719018 129.919998,113.819018 L129.919998,113.819018 Z M126.419998,110.739018 L106.259998,110.739018 C105.839998,108.500418 105.419998,106.119018 105.279998,103.739018 L127.399998,103.739018 C127.119998,106.400418 126.839998,108.779018 126.419998,110.739018 L126.419998,110.739018 Z M132.019998,103.739018 L130.199998,103.739018 C130.199998,103.319018 130.339998,102.900418 130.339998,102.479018 L130.479998,100.939018 L102.339998,100.939018 L102.479998,102.479018 C103.459998,116.479018 106.959998,123.339018 112.979998,123.339018 L118.579998,123.339018 C121.799998,123.339018 124.319998,121.800418 126.279998,118.859018 L127.399998,118.300418 C129.499998,117.319018 130.759998,116.619018 131.599998,116.059018 C137.339998,112.139018 137.339998,108.779018 136.919998,107.100418 C136.079998,104.859018 133.839998,103.739018 132.019998,103.739018 L132.019998,103.739018 Z M302.119995,172.900417 C306.319995,177.239017 306.319995,184.519017 302.119995,188.859017 L286.299995,205.659016 C286.019995,205.939016 285.459995,205.939016 285.179995,205.659016 L269.359995,188.859017 C265.159995,184.519017 265.159995,177.239017 269.359995,172.900417 C271.459995,170.800417 274.119995,169.539017 277.059995,169.539017 C279.999995,169.539017 282.659995,170.659017 284.759995,172.900417 L285.739995,174.019017 L286.719995,172.900417 C288.819995,170.800417 291.479995,169.539017 294.419995,169.539017 C297.359995,169.539017 300.159995,170.659017 302.119995,172.900417 L302.119995,172.900417 Z M131.739998,252.139016 L131.739998,288.679015 C131.739998,290.219015 130.479998,291.339015 129.079998,291.339015 C127.539998,291.339015 126.419998,290.079015 126.279998,288.679015 C126.279998,284.059015 126.139998,279.439015 126.139998,274.819015 C126.139998,274.819015 126.139998,274.400415 122.639998,274.400415 C122.639998,270.339015 127.679998,252.139016 131.739998,252.139016 L131.739998,252.139016 Z M106.959998,252.139016 L106.959998,261.659016 C106.959998,262.219016 107.379998,262.779016 108.079998,262.779016 C108.779998,262.779016 109.199998,262.359016 109.199998,261.659016 L109.199998,252.139016 L112.419998,252.139016 L112.419998,261.659016 C112.419998,262.219016 112.839998,262.779016 113.539998,262.779016 C114.099998,262.779016 114.659998,262.359016 114.659998,261.659016 L114.659998,252.139016 L116.479998,252.139016 C117.319998,252.139016 117.879998,252.700416 117.879998,253.539016 L117.879998,263.339016 C117.879998,265.300415 116.479998,266.700415 113.679998,267.539015 L113.679998,288.539015 C113.679998,290.079015 112.419998,291.339015 110.879998,291.339015 C109.339998,291.339015 108.079998,290.079015 108.079998,288.539015 L108.079998,267.539015 C105.279998,266.839015 103.879998,265.439015 103.879998,263.339016 L103.879998,253.539016 C103.879998,252.700416 104.439998,252.139016 105.279998,252.139016 L106.959998,252.139016 Z M115.219998,184.100417 C113.679998,184.100417 112.419998,182.839017 112.419998,181.300417 C112.419998,179.759017 113.679998,178.500417 115.219998,178.500417 C116.759998,178.500417 118.019998,179.759017 118.019998,181.300417 C118.019998,182.839017 116.759998,184.100417 115.219998,184.100417 L115.219998,184.100417 Z M131.879998,173.179017 L114.939998,173.179017 L113.539998,168.139017 L109.479998,169.259017 L110.599998,173.179017 L102.759998,173.179017 C102.619998,173.179017 102.619998,173.179017 102.479998,173.319017 C102.339998,173.459017 102.199998,173.739017 102.339998,173.879017 L114.799998,190.819017 L114.799998,203.839017 L110.319998,204.959017 C109.619998,205.100417 109.059998,205.800416 109.059998,206.500416 L109.059998,207.339016 L125.299998,207.339016 L125.299998,206.500416 C125.299998,205.800416 124.739998,205.100417 124.039998,204.959017 L119.559998,203.839017 L119.559998,190.819017 L132.019998,173.879017 C132.019998,173.879017 132.159998,173.739017 132.159998,173.600417 C132.299998,173.319017 132.159998,173.179017 131.879998,173.179017 L131.879998,173.179017 Z M186.339997,5.7390199 L182.559997,5.7390199 C182.279997,5.7390199 182.139997,5.45901991 182.139997,5.31901991 L182.139997,3.63901994 C182.139997,2.51901996 182.979997,1.67901997 184.099997,1.67901997 L189.559997,1.67901997 C189.699997,1.67901997 189.979997,1.81901997 189.979997,1.95901997 L191.799997,5.8790199 L220.639997,5.8790199 C220.919996,5.8790199 221.199996,6.1590199 221.199996,6.43901989 L221.199996,6.57901989 L214.759996,20.7190196 C214.619996,21.0004196 214.199996,21.2790196 213.919996,21.2790196 L198.519997,21.2790196 L195.439997,25.0590196 L215.739996,25.0590196 C216.859996,25.0590196 217.699996,25.9004196 217.699996,27.0190195 C217.699996,28.1390195 216.859996,28.9790195 215.739996,28.9790195 L191.239997,28.9790195 C190.539997,28.9790195 189.839997,28.5590195 189.419997,27.8590195 C188.999997,27.1590195 189.139997,26.3190196 189.699997,25.7590196 L193.339997,21.1390196 L186.339997,5.7390199 Z M195.439997,36.5390195 C193.479997,36.5390195 191.939997,35.0004194 191.939997,33.0390195 C191.939997,31.0790195 193.479997,29.5390195 195.439997,29.5390195 C197.399997,29.5390195 198.939997,31.0790195 198.939997,33.0390195 C198.939997,35.0004194 197.399997,36.5390195 195.439997,36.5390195 L195.439997,36.5390195 Z M212.239996,36.5390195 C210.279996,36.5390195 208.739996,35.0004194 208.739996,33.0390195 C208.739996,31.0790195 210.279996,29.5390195 212.239996,29.5390195 C214.199996,29.5390195 215.739996,31.0790195 215.739996,33.0390195 C215.739996,35.0004194 214.199996,36.5390195 212.239996,36.5390195 L212.239996,36.5390195 Z M194.039997,114.239018 L194.039997,93.5190184 C194.039997,92.6790184 194.599997,92.1190184 195.439997,92.1190184 C196.279997,92.1190184 196.839997,92.6790184 196.839997,93.5190184 L196.839997,114.239018 C196.839997,117.739018 199.639997,120.539018 203.139997,120.539018 C206.639996,120.539018 209.439996,117.739018 209.439996,114.239018 L209.439996,90.7190185 C209.439996,88.6190185 207.759996,86.8004185 205.519997,86.8004185 C203.279997,86.8004185 201.599997,88.4790185 201.599997,90.7190185 L201.599997,111.579018 C201.599997,112.419018 202.159997,112.979018 202.999997,112.979018 C203.839997,112.979018 204.399997,112.419018 204.399997,111.579018 L204.399997,97.5790183 C204.399997,96.7390184 204.959997,96.1790184 205.799996,96.1790184 C206.639996,96.1790184 207.199996,96.7390184 207.199996,97.5790183 L207.199996,111.579018 C207.199996,113.959018 205.379997,115.779018 202.999997,115.779018 C200.619997,115.779018 198.799997,113.959018 198.799997,111.579018 L198.799997,90.7190185 C198.799997,87.0790185 201.739997,84.0004186 205.519997,84.0004186 C209.299996,84.0004186 212.239996,86.9390185 212.239996,90.7190185 L212.239996,114.239018 C212.239996,119.279018 208.179996,123.339018 203.139997,123.339018 C198.099997,123.339018 194.039997,119.279018 194.039997,114.239018 L194.039997,114.239018 Z M39.1999993,183.400417 C39.8999993,185.079017 38.6399993,186.479017 35.5599994,187.739017 L26.5999995,190.259017 L20.8599996,196.419017 C19.8799997,197.539017 18.6199997,198.239017 17.0799997,198.659017 L15.5399997,198.939017 C15.3999997,198.939017 15.2599997,198.939017 15.1199997,198.800417 L15.1199997,198.659017 L18.1999997,192.639017 L8.67999985,195.300417 C8.25999986,195.439017 7.83999987,195.300417 7.41999987,194.879017 L0,185.919017 L1.39999998,185.500417 C2.65999995,185.079017 3.91999993,185.219017 5.03999991,185.919017 L9.09999985,188.300417 C9.23999984,188.439017 9.37999984,188.439017 9.51999984,188.300417 L15.5399997,186.479017 C15.8199997,186.339017 15.9599997,186.059017 15.9599997,185.779017 C15.9599997,185.639017 15.8199997,185.639017 15.8199997,185.500417 L8.25999986,179.339017 C8.11999986,179.200417 8.11999986,179.059017 8.25999986,178.919017 L8.39999986,178.779017 L9.93999983,178.219017 C11.3399998,177.800417 12.7399998,177.939017 14.1399998,178.500417 L25.3399996,183.679017 L25.7599996,183.679017 L32.6199994,181.719017 C36.3999994,181.019017 38.5,181.579017 39.1999993,183.400417 L39.1999993,183.400417 Z M12.7399998,259.839016 L26.7399995,259.839016 C27.5799995,259.839016 28.1399995,260.400416 28.1399995,261.239016 L28.1399995,267.259015 L19.7399997,264.739015 L11.3399998,267.259015 L11.3399998,261.239016 C11.3399998,260.400416 11.8999998,259.839016 12.7399998,259.839016 L12.7399998,259.839016 Z M34.9999994,290.639015 C34.7199994,291.059015 34.2999994,291.339015 33.7399994,291.339015 C33.4599994,291.339015 33.1799994,291.339015 33.0399994,291.200415 C28.9799995,288.819015 27.0199995,289.519015 24.4999996,290.359015 C23.0999996,290.779015 21.5599996,291.339015 19.7399997,291.339015 C17.9199997,291.339015 16.2399997,290.779015 14.9799997,290.359015 C12.4599998,289.519015 10.4999998,288.819015 6.43999989,291.200415 C5.7399999,291.619015 4.89999992,291.339015 4.47999992,290.779015 C4.05999993,290.079015 4.33999993,289.239015 4.89999992,288.819015 C10.0799998,285.739015 13.1599998,286.719015 15.8199997,287.700415 C17.0799997,288.119015 18.1999997,288.539015 19.5999997,288.539015 C20.9999996,288.539015 22.2599996,288.119015 23.3799996,287.700415 C26.0399996,286.719015 29.1199995,285.600415 34.2999994,288.819015 C35.1399994,289.100415 35.2799994,289.939015 34.9999994,290.639015 L34.9999994,290.639015 Z M23.9399996,253.539016 L23.9399996,257.739016 L15.5399997,257.739016 L15.5399997,253.539016 C15.5399997,252.700416 16.0999997,252.139016 16.9399997,252.139016 L22.5399997,252.139016 C23.3799996,252.139016 23.9399996,252.700416 23.9399996,253.539016 L23.9399996,253.539016 Z M6.57999989,271.459015 L19.7399997,267.539015 L32.8999994,271.459015 C33.3199994,271.600415 33.4599994,272.019015 33.3199994,272.300415 L33.3199994,272.439015 L27.8599995,283.359015 C27.7199995,283.500415 27.7199995,283.639015 27.5799995,283.779015 C26.0399996,283.919015 24.7799996,284.339015 23.5199999,284.759015 C22.2599996,285.179015 21.1399996,285.600415 19.7399997,285.600415 C18.3399997,285.600415 17.0799997,285.179015 15.9599997,284.759015 C14.6999997,284.339015 13.4399998,283.919015 11.8999998,283.779015 C11.7599998,283.639015 11.7599998,283.500415 11.6199998,283.359015 L6.1599999,272.439015 C5.8799999,272.159015 6.0199999,271.739015 6.57999989,271.459015 C6.43999989,271.459015 6.43999989,271.459015 6.57999989,271.459015 L6.57999989,271.459015 Z M301.279995,268.939015 L302.539995,272.159015 L295.399995,275.100415 L294.139995,271.879015 L301.279995,268.939015 Z M300.719995,256.339016 L303.099995,258.859016 L296.519995,265.159015 L294.139995,262.639016 L300.719995,256.339016 Z M290.499995,261.239016 L287.139995,260.119016 L289.939995,252.139016 L293.299995,253.259016 L290.499995,261.239016 Z M287.139995,268.239015 C287.139995,267.119015 288.119995,266.139015 289.239995,266.139015 C290.359995,266.139015 291.339995,267.119015 291.339995,268.239015 C291.339995,269.359015 290.359995,270.339015 289.239995,270.339015 C288.119995,270.339015 287.139995,269.359015 287.139995,268.239015 L287.139995,268.239015 Z M281.539995,260.539016 C279.999995,260.539016 278.739995,259.279016 278.739995,257.739016 C278.739995,256.200416 279.999995,254.939016 281.539995,254.939016 C283.079995,254.939016 284.339995,256.200416 284.339995,257.739016 C284.339995,259.279016 283.079995,260.539016 281.539995,260.539016 L281.539995,260.539016 Z M302.539995,278.039015 C302.539995,279.159015 301.559995,280.139015 300.439995,280.139015 C299.319995,280.139015 298.339995,279.159015 298.339995,278.039015 C298.339995,276.919015 299.319995,275.939015 300.439995,275.939015 C301.559995,275.939015 302.539995,276.919015 302.539995,278.039015 L302.539995,278.039015 Z M296.099995,281.819016 C296.379995,282.100415 296.379995,282.519015 296.099995,282.800415 C295.959995,282.939015 295.959995,282.939015 295.819995,282.939015 L266.139995,291.059015 L274.259995,261.379016 C274.399995,260.959016 274.679995,260.819016 275.099995,260.819016 C275.239995,260.819016 275.379995,260.959016 275.379995,260.959016 L296.099995,281.819016 Z M38.3599993,101.359018 L38.3599993,101.359018 C36.8199994,100.239018 35.5599994,99.6790185 34.4399994,99.4004183 C32.6199994,98.9790183 30.7999995,99.1190183 29.2599995,99.6790185 C31.0799995,90.1590185 27.1599995,85.6790185 27.1599995,85.6790185 C34.5799994,87.3590185 38.3599993,92.4004184 38.9199993,100.939018 C38.9199993,101.079018 38.9199993,101.079018 38.7799993,101.219018 C38.7799993,101.500418 38.6399993,101.500418 38.3599993,101.359018 L38.3599993,101.359018 Z M27.2999995,85.8190185 C27.2999995,85.8190185 21.9799996,88.3390185 19.7399997,97.7190183 C18.6199997,96.6004184 17.0799997,95.6190184 15.2599997,95.3390184 C14.1399998,95.0590184 12.7399998,95.2004184 10.9199998,95.4790184 C10.6399998,95.4790184 10.4999998,95.3390184 10.4999998,95.2004184 L10.4999998,94.9190184 C14.2799998,87.0790185 20.0199997,84.1390186 27.2999995,85.8190185 L27.2999995,85.8190185 Z M39.3399993,123.339018 L0.139999998,123.339018 C0.139999998,120.539018 3.91999993,117.879018 8.67999985,116.200418 C8.39999986,116.200418 8.11999986,116.339018 7.83999987,116.339018 C5.8799999,116.339018 4.33999993,114.800418 4.33999993,112.839018 C4.33999993,110.879018 5.8799999,109.339018 7.83999987,109.339018 C9.79999983,109.339018 11.3399998,110.879018 11.3399998,112.839018 C11.3399998,114.239018 10.4999998,115.500418 9.23999984,116.059018 C12.4599998,114.939018 16.0999997,114.379018 19.3199997,114.239018 L22.9599996,97.0190183 C23.6599996,97.0190183 24.2199996,97.0190183 24.9199996,97.1590183 C25.3399996,97.3004183 25.7599996,97.4390183 26.1799996,97.5790183 L22.6799996,114.239018 C30.5199995,115.219018 39.3399993,119.000418 39.3399993,123.339018 L39.3399993,123.339018 Z M222.739996,181.859017 C222.739996,182.000417 222.599996,182.000417 222.459996,182.139017 L212.519996,185.779017 L203.139997,182.139017 L198.939997,183.539017 L208.599996,187.179017 L203.139997,189.139017 L183.819997,182.000417 C183.679997,182.000417 183.539997,181.719017 183.679997,181.579017 C183.679997,181.439017 183.819997,181.439017 183.959997,181.300417 L203.139997,175.139017 L222.459996,181.439017 C222.739996,181.439017 222.739996,181.719017 222.739996,181.859017 L222.739996,181.859017 Z M210.139996,189.979017 L210.139996,195.439017 L213.639996,194.039017 L213.639996,188.579017 L215.739996,187.739017 L215.739996,197.539017 L203.139997,203.139017 L190.539997,197.539017 L190.539997,187.739017 L203.139997,192.639017 L210.139996,189.979017 Z M0.139999998,37.9390194 L0.139999998,31.0790195 C0.839999986,30.5190195 1.53999997,30.1004195 2.37999996,29.5390195 C3.35999994,29.9590195 4.47999992,30.2390195 5.7399999,30.3790195 C15.6799997,32.0590195 24.4999996,33.3190194 25.7599996,39.2004193 L1.53999997,39.2004193 C0.699999988,39.3390193 0.139999998,38.7790193 0.139999998,37.9390194 L0.139999998,37.9390194 Z M2.93999995,6.43901995 C2.93999995,4.47901992 4.47999992,2.93901995 6.43999995,2.93901995 C8.39999986,2.93901995 9.93999995,4.47901992 9.93999995,6.43901995 C9.93999995,8.40041986 8.39999986,9.93901995 6.43999995,9.93901995 C4.47999992,9.93901995 2.93999995,8.40041986 2.93999995,6.43901995 L2.93999995,6.43901995 Z M39.3399993,23.2390196 L39.3399993,23.2390196 L39.3399993,37.9390194 C39.3399993,38.6390193 38.7799993,39.2004193 38.0799994,39.3390193 C35.9799994,30.1004195 15.8199997,28.5590195 7.27999988,27.1590195 L7.13999988,27.1590195 C9.93999983,26.0390196 13.1599998,25.0590196 16.7999997,24.3590196 L16.7999997,20.7190196 C15.5399997,20.1590197 14.6999997,18.7590197 14.6999997,17.2190197 C14.6999997,15.1190197 16.2399997,4.33901993 18.1999997,4.33901993 C20.1599997,4.33901993 21.6999996,15.1190197 21.6999996,17.2190197 C21.6999996,18.7590197 20.8599996,20.1590197 19.5999997,20.7190196 L19.5999997,23.9390196 C22.6799996,23.5190196 25.8999996,23.1004196 29.3999995,22.8190196 L29.3999995,19.4590197 C27.4399995,18.9004197 25.8999996,17.2190197 25.8999996,15.1190197 C25.8999996,12.6004198 28.1399999,0.000419999993 30.7999995,0.000419999993 C33.4599994,0.000419999993 35.6999994,12.6004198 35.6999994,15.1190197 C35.6999994,17.2190197 34.1599994,18.9004197 32.1999995,19.4590197 L32.1999995,22.6790196 C34.2999994,22.5390196 36.2599994,22.5390196 38.4999993,22.5390196 C39.0599993,22.5390196 39.3399993,22.8190196 39.3399993,23.2390196 L39.3399993,23.2390196 Z" id="Fill-1" fill="#1D1D1B" mask="url(#mask-2)"></path>
                </g>
            </g>
        </g>
    </g>
</svg>