<?xml version="1.0" encoding="UTF-8"?>
<svg width="860px" height="367px" viewBox="0 0 860 367" version="1.1" xmlns="http://www.w3.org/2000/svg" xmlns:xlink="http://www.w3.org/1999/xlink">
    <!-- Generator: Sketch 58 (84663) - https://sketch.com -->
    <title>Tim-Feuring-Minimum</title>
    <defs>
        <rect id="path-1" x="0.5" y="0" width="859" height="367"></rect>
    </defs>
    <g id="New" stroke="none" stroke-width="1" fill="none" fill-rule="evenodd">
        <g id="Group-16">
            <g id="Group-15-Copy">
                <g id="Group-2-Copy-3">
                    <mask id="mask-2" fill="white">
                        <use xlink:href="#path-1"></use>
                    </mask>
                    <use id="Rectangle" fill="#FFFFFF" xlink:href="#path-1"></use>
                </g>
            </g>
            <path d="M161.376906,133.770777 C151.115946,136.563311 142.720616,143.07922 134.325286,148.664284 C132.459656,149.595128 130.594029,153.318506 126.86277,151.456817 C126.86277,151.456817 124.997142,152.387662 124.997142,153.318506 C124.997142,157.041882 122.198697,157.972726 119.400253,158.903571 C117.534626,159.834415 114.736183,160.76526 113.803366,162.626946 C111.937739,165.41948 110.072109,167.281169 108.20648,170.073702 C107.273666,171.004544 106.340853,171.004544 105.408036,171.935388 C105.408036,171.004544 105.408036,169.142857 105.408036,168.212013 C109.139296,157.972726 111.937739,148.664284 112.870553,138.425 C112.870553,136.563311 111.937739,133.770777 110.072109,132.839933 C107.273666,131.909091 104.475223,131.909091 100.743963,131.909091 C97.94552,131.909091 95.1470766,132.839933 93.2814493,134.701622 C91.4158196,135.632466 76.4907867,145.871753 71.8267161,149.595128 C70.8939,150.525973 52.2376102,167.281169 52.2376102,167.281169 C49.4391668,170.073702 45.7079098,173.797077 42.9094665,176.589611 C44.7750962,171.004544 45.7079098,165.41948 47.5735395,159.834415 C48.5063532,157.041882 50.3719829,148.664284 52.2376102,147.73344 C52.2376102,147.73344 53.1704263,142.148375 53.1704263,140.286686 C54.1032399,134.701622 53.1704263,133.770777 49.4391668,132.839933 C48.5063532,132.839933 45.7079098,132.839933 43.8422801,133.770777 C41.9766528,134.701622 20.5219196,144.010064 18.6562899,145.871753 C13.9922168,148.664284 9.3281437,152.387662 5.59688671,155.180193 C4.66407309,156.111037 3.73125699,157.972726 2.79844336,158.903571 C3.73125699,158.903571 3.73125699,159.834415 4.66407309,159.834415 C5.59688671,159.834415 6.52970034,158.903571 7.46251644,158.903571 C11.1937734,157.041882 14.9250329,155.180193 18.6562899,152.387662 C20.5219196,151.456817 23.320363,149.595128 25.1859902,148.664284 C26.1188063,147.73344 27.9844336,147.73344 28.9172497,147.73344 C30.7828769,147.73344 32.6485067,148.664284 31.715693,151.456817 C30.7828769,155.180193 29.8500633,157.972726 28.9172497,161.696104 C27.0516199,166.350324 10.2609598,227.78604 9.3281437,230.578573 C7.46251644,235.232793 6.52970034,239.887013 4.66407309,244.541235 C4.66407309,245.47208 2.79844336,251.057144 1.86562973,253.849675 C0.932813628,255.711364 0.932813628,257.573053 0,259.434742 C0,260.365586 0,261.296431 0,262.227273 C0.932813628,262.227273 2.79844336,262.227273 3.73125699,262.227273 C3.73125699,262.227273 11.1937734,257.573053 14.9250329,256.642208 C17.7234762,254.780519 21.4547332,252.918833 22.3875469,250.1263 C23.320363,248.264611 23.320363,245.47208 24.2531766,243.610391 C24.2531766,242.679546 31.715693,217.546753 34.5141364,210.1 C33.5813203,206.376624 33.5813203,203.584091 35.44695,201.722402 C37.3125797,197.999026 40.1110231,193.344804 41.9766528,189.621429 C42.9094665,187.75974 43.8422801,185.898051 45.7079098,184.967209 C47.5735395,182.174675 49.4391668,180.312986 52.2376102,177.520455 C55.9688696,172.866233 59.7001266,168.212013 64.3641997,163.557791 C67.162643,160.76526 70.8939,157.041882 74.6251595,154.249351 C78.3564165,151.456817 83.0204896,147.73344 86.7517465,144.940909 C88.6173763,144.010064 91.4158196,144.010064 93.2814493,144.940909 C95.1470766,145.871753 93.2814493,147.73344 93.2814493,149.595128 C92.3486332,152.387662 91.4158196,156.111037 90.483006,158.903571 C89.5501899,168.212013 84.8861193,176.589611 83.0204896,184.967209 C81.1548598,191.483117 78.3564165,197.999026 75.5579731,203.584091 C74.6251595,204.514935 74.6251595,206.376624 74.6251595,207.307469 C72.7595298,211.030844 69.9610864,214.754222 69.9610864,218.477597 C69.9610864,222.200975 68.0954567,222.200975 65.2970133,222.200975 C68.0954567,223.13182 68.0954567,224.993506 67.162643,226.855195 C66.2298294,228.716884 65.2970133,231.509415 65.2970133,233.371104 C64.3641997,238.025326 60.6329427,240.817857 61.5657563,245.47208 C59.7001266,248.264611 59.7001266,251.057144 58.767313,253.849675 C57.8344993,256.642208 58.767313,257.573053 61.5657563,256.642208 C62.49857,256.642208 62.49857,255.711364 63.4313861,255.711364 C67.162643,253.849675 70.8939,251.057144 75.5579731,249.195455 C77.4236028,248.264611 78.3564165,247.333766 79.2892326,245.47208 C80.2220462,242.679546 81.1548598,239.887013 82.0876759,238.025326 C83.9533032,232.440259 85.8189329,227.78604 87.6845626,222.200975 C90.483006,213.823377 93.2814493,205.44578 97.0127063,197.068182 C98.8783361,192.413962 102.609593,187.75974 105.408036,183.10552 C106.340853,181.243831 108.20648,180.312986 109.139296,178.451297 C111.004923,175.658766 112.870553,172.866233 115.668996,170.073702 C123.131513,160.76526 132.459656,154.249351 141.787803,146.802598 C142.720616,145.871753 143.65343,144.940909 145.51906,144.940909 C147.384689,144.010064 148.317503,144.940909 148.317503,146.802598 C148.317503,149.595128 149.250319,153.318506 148.317503,156.111037 C145.51906,167.281169 142.720616,178.451297 138.056543,188.690584 C136.190916,193.344804 134.325286,198.929871 132.459656,203.584091 C130.594029,208.238311 129.661213,213.823377 127.795586,218.477597 C126.86277,221.270131 124.997142,224.062662 124.997142,225.924351 C125.929956,228.716884 124.997142,231.509415 123.131513,233.371104 C120.333069,239.887013 120.333069,246.402922 119.400253,252.918833 C119.400253,255.711364 121.265883,257.573053 124.064326,256.642208 C125.929956,256.642208 126.86277,255.711364 127.795586,254.780519 C135.2581,251.057144 141.787803,247.333766 149.250319,243.610391 C152.048762,241.748702 153.91439,239.887013 156.712833,238.025326 C156.712833,238.025326 156.712833,237.094482 156.712833,236.163637 C156.712833,236.163637 155.780019,235.232793 155.780019,235.232793 C153.91439,236.163637 151.115946,236.163637 150.183133,238.025326 C149.250319,240.817857 146.451873,240.817857 144.586246,242.679546 C140.854986,244.541235 139.922173,243.610391 139.922173,239.887013 C139.922173,238.956168 139.922173,238.025326 139.922173,238.025326 C142.720616,227.78604 145.51906,217.546753 149.250319,207.307469 C150.183133,204.514935 149.250319,199.860715 153.91439,197.999026 C153.91439,197.999026 153.91439,197.068182 153.91439,197.068182 C153.91439,196.137337 152.981576,196.137337 152.981576,195.206493 C154.847206,190.552273 156.712833,185.898051 158.578463,181.243831 C161.376906,171.004544 166.040979,161.696104 167.906606,152.387662 C168.839422,147.73344 169.772236,143.07922 168.839422,138.425 C168.839422,134.701622 165.108163,131.909091 161.376906,133.770777 Z M559.219814,141.151516 C555.46025,142.999999 551.700688,144.848485 547.941124,147.621213 C539.482108,153.166667 530.083202,159.636363 521.624185,165.181817 C519.744403,166.10606 517.864621,167.954545 515.984841,169.803031 C512.225277,173.499999 508.465715,177.19697 504.706151,180.893938 C503.766261,181.818181 502.826371,181.818181 502.826371,181.818181 C502.826371,180.893938 502.826371,179.969696 502.826371,179.045455 C507.525823,168.878788 509.405605,157.787878 511.285387,147.621213 C512.225277,142.999999 510.345497,137.454545 503.766261,138.378788 C501.886479,138.378788 500.946589,138.378788 499.066807,137.454545 C499.066807,137.454545 498.126917,137.454545 498.126917,138.378788 C500.006699,140.227274 498.126917,140.227274 497.187027,140.227274 C488.728011,145.772727 479.329102,151.318181 470.870086,155.939395 C464.29085,160.560606 457.711616,165.181817 452.072272,170.727273 C451.132382,171.651516 450.192489,171.651516 449.2526,172.575756 C449.2526,171.651516 449.2526,170.727273 449.2526,169.803031 C452.072272,161.484849 453.952054,154.090909 456.771726,145.772727 C457.711616,143.924242 457.711616,141.151516 455.831833,140.227274 C453.952054,139.303031 452.072272,139.303031 450.192489,140.227274 C443.613255,142.999999 437.973911,146.69697 431.394675,150.393939 C430.454785,150.393939 430.454785,151.318181 430.454785,152.242424 C431.394675,152.242424 431.394675,152.242424 432.334567,152.242424 C435.154239,150.393939 435.154239,150.393939 434.214347,154.090909 C434.214347,155.015152 434.214347,155.939395 433.274457,156.863635 C432.334567,160.560606 430.454785,163.333334 433.274457,167.030303 C433.274457,167.030303 433.274457,167.954545 433.274457,168.878788 C432.334567,168.878788 432.334567,167.954545 432.334567,167.954545 C431.394675,167.030303 431.394675,167.030303 430.454785,166.10606 C430.454785,167.030303 429.514895,167.030303 429.514895,167.954545 C429.514895,168.878788 428.575003,170.727273 428.575003,171.651516 C427.635113,176.272727 425.755331,180.893938 424.815441,185.515152 C424.815441,186.439395 424.815441,186.439395 424.815441,187.363635 C424.815441,188.287878 424.815441,189.21212 424.815441,189.21212 C420.115987,193.833334 421.055879,200.30303 419.176097,204.924242 C417.296315,207.69697 414.476643,211.393938 417.296315,215.090909 C417.296315,215.090909 417.296315,215.090909 417.296315,216.015152 C416.356425,217.863635 415.416532,219.71212 414.476643,221.560606 C413.536753,223.409091 413.536753,224.333334 414.476643,228.954545 C414.476643,228.954545 414.476643,229.878788 413.536753,229.878788 C411.656971,229.878788 411.656971,230.80303 411.656971,231.727273 C411.656971,233.575756 410.717081,236.348484 409.777188,238.196969 C406.957516,242.818181 404.137844,247.439392 403.197954,252.984848 C402.258065,254.833331 402.258065,257.606059 402.258065,259.454545 C402.258065,262.227273 403.197954,262.227273 405.077737,261.30303 C408.837298,259.454545 411.656971,257.606059 415.416532,255.757574 C417.296315,254.833331 419.176097,253.909091 421.055879,252.984848 C421.995769,252.984848 421.995769,252.060605 422.935659,251.136363 C425.755331,243.742423 427.635113,236.348484 430.454785,228.954545 C432.334567,222.484848 434.214347,215.090909 437.034019,208.621212 C437.973911,204.924242 438.913801,202.151513 440.793583,198.454545 C442.673366,192.909091 444.553145,187.363635 447.372817,183.666666 C452.072272,177.19697 458.651506,171.651516 464.29085,166.10606 C468.990304,161.484849 473.689758,157.787878 478.389212,154.090909 C480.268992,152.242424 482.148774,151.318181 484.028556,150.393939 C485.908336,148.545456 487.788118,149.469696 489.667901,150.393939 C491.547683,152.242424 490.60779,153.166667 489.667901,154.090909 C488.728011,159.636363 487.788118,164.257574 486.848228,169.803031 C485.908336,174.424242 484.028556,179.969696 483.088664,184.590909 C482.148774,187.363635 482.148774,190.136363 481.208884,192.909091 C479.329102,199.378788 476.50943,206.772727 473.689758,213.242424 C472.749868,216.939394 470.870086,221.560606 469.930196,225.257574 C468.050414,229.878788 466.170632,234.499999 465.230742,239.121212 C465.230742,240.045452 465.230742,240.045452 464.29085,240.969695 C463.35096,246.515151 462.41107,252.060605 459.591398,257.606059 C458.651506,258.530302 458.651506,259.454545 458.651506,260.378787 C458.651506,261.30303 458.651506,262.227273 458.651506,262.227273 C458.651506,262.227273 460.531288,262.227273 460.531288,262.227273 C462.41107,261.30303 463.35096,260.378787 465.230742,259.454545 C468.050414,258.530302 469.930196,256.681816 472.749868,255.757574 C476.50943,253.909091 480.268992,251.136363 481.208884,246.515151 C482.148774,243.742423 483.088664,240.969695 484.028556,238.196969 C486.848228,229.878788 489.667901,221.560606 492.487573,214.166666 C494.367355,208.621212 497.187027,202.151513 500.006699,196.60606 C503.766261,191.060606 508.465715,185.515152 513.165169,179.969696 C515.984841,176.272727 518.804513,172.575756 521.624185,169.803031 C526.323637,165.181817 531.962981,160.560606 537.602328,156.863635 C540.422,154.090909 544.181562,152.242424 547.941124,150.393939 C549.820906,149.469696 550.760796,149.469696 551.700688,150.393939 C554.52036,152.242424 552.640578,154.090909 552.640578,155.939395 C552.640578,160.560606 548.881016,164.257574 550.760796,168.878788 C547.941124,167.954545 548.881016,170.727273 548.881016,171.651516 C547.941124,173.499999 547.941124,175.348485 547.001234,177.19697 C546.061344,179.045455 545.121452,180.893938 546.061344,183.666666 C546.061344,183.666666 546.061344,184.590909 545.121452,185.515152 C544.181562,186.439395 543.241672,186.439395 543.241672,187.363635 C542.30178,189.21212 541.36189,191.984848 540.422,194.757574 C539.482108,197.530302 539.482108,199.378788 542.30178,201.227273 C540.422,201.227273 538.542218,198.454545 537.602328,202.151513 C536.662436,205.848484 535.722546,208.621212 534.782656,212.318181 C533.842763,214.166666 533.842763,216.015152 532.902874,217.863635 C531.962981,221.560606 530.083202,224.333334 528.203419,228.030302 C527.26353,230.80303 526.323637,234.499999 525.383747,237.272727 C522.564075,243.742423 521.624185,250.21212 521.624185,256.681816 C521.624185,260.378787 525.383747,263.151513 529.143309,261.30303 C531.962981,260.378787 533.842763,259.454545 536.662436,258.530302 C539.482108,257.606059 541.36189,256.681816 544.181562,254.833331 C548.881016,252.060605 553.580468,250.21212 559.219814,247.439392 C560.159704,247.439392 560.159704,246.515151 560.159704,245.590909 C559.219814,245.590909 559.219814,245.590909 558.279922,245.590909 C555.46025,246.515151 552.640578,247.439392 549.820906,248.363634 C546.061344,249.287877 543.241672,247.439392 543.241672,243.742423 C543.241672,240.969695 543.241672,238.196969 544.181562,235.424241 C547.941124,224.333334 551.700688,214.166666 555.46025,203.075756 C557.340032,196.60606 560.159704,191.060606 562.039486,184.590909 C563.919266,178.121213 565.799048,171.651516 568.61872,166.10606 C571.438392,158.712121 573.318175,151.318181 574.258065,143.924242 C574.258065,142.075757 573.318175,140.227274 572.378282,139.303031 C569.55861,138.378788 564.859159,139.303031 559.219814,141.151516 Z M839.356852,217.319838 C840.295178,212.677254 842.171826,208.034667 844.048477,204.3206 C845.925127,198.749498 847.801775,192.249879 848.740102,186.678775 C849.678426,184.821742 849.678426,182.03619 850.616752,180.179155 C852.4934,173.679536 854.370051,168.108434 855.308375,161.608815 C856.246701,156.966228 859.061676,152.323644 856.246701,147.681057 C856.246701,147.681057 856.246701,147.681057 856.246701,146.752542 C856.246701,145.824024 856.246701,143.96699 856.246701,143.038472 C854.370051,138.395888 850.616752,136.538853 844.986801,138.395888 C841.233502,139.324405 837.480204,141.181437 833.726903,143.96699 C825.281979,149.538091 815.898731,156.037711 807.453808,161.608815 C802.762183,165.322882 799.008882,169.036952 794.317259,172.751019 C795.255583,169.036952 796.193907,166.251399 797.132234,162.53733 C799.008882,156.037711 801.823856,149.538091 800.885532,142.109955 C800.885532,139.324405 799.008882,136.538853 796.193907,136.538853 C791.502285,135.610336 787.748984,136.538853 783.995685,138.395888 C780.242384,140.25292 776.489085,143.038472 772.735787,145.824024 C764.290863,151.395126 755.845937,157.894745 748.33934,164.394365 C744.586039,167.179917 741.771064,169.965469 738.017766,173.679536 C738.017766,173.679536 738.017766,173.679536 738.017766,172.751019 C740.83274,163.465847 743.647715,155.109193 746.462689,145.824024 C747.401013,143.96699 747.401013,141.181437 747.401013,138.395888 C747.401013,136.538853 746.462689,134.681818 743.647715,134.681818 C738.95609,134.681818 735.202791,136.538853 732.387817,138.395888 C727.696192,141.181437 722.066243,144.895507 717.374618,147.681057 C713.621319,149.538091 710.806344,152.323644 707.99137,154.180678 C707.99137,154.180678 707.99137,155.109193 707.053043,155.109193 C707.053043,155.109193 707.99137,155.109193 707.99137,155.109193 C711.744668,153.252161 714.559643,151.395126 718.312944,149.538091 C720.189592,148.609574 722.066243,147.681057 724.881217,146.752542 C724.881217,146.752542 726.757868,146.752542 726.757868,147.681057 C726.757868,150.466609 726.757868,153.252161 725.819541,156.037711 C724.881217,158.823263 723.004567,162.53733 722.066243,165.322882 C722.066243,166.251399 723.004567,167.179917 723.004567,168.108434 C723.004567,168.108434 723.942893,169.036952 723.942893,169.036952 C723.942893,169.036952 723.004567,169.036952 723.004567,169.036952 C722.066243,169.036952 720.189592,167.179917 722.066243,169.965469 C722.066243,169.965469 722.066243,170.893984 722.066243,171.822501 C722.066243,174.608053 717.374618,176.465088 720.189592,180.179155 C720.189592,180.179155 719.251268,181.107673 719.251268,181.107673 C719.251268,181.107673 719.251268,182.03619 718.312944,182.03619 C720.189592,182.964707 718.312944,182.964707 718.312944,183.893225 C717.374618,184.821742 716.436294,186.678775 715.49797,187.607292 C714.559643,191.321361 714.559643,194.106911 712.682995,196.892463 C712.682995,197.820981 712.682995,198.749498 712.682995,199.678015 C712.682995,200.60653 713.621319,200.60653 714.559643,200.60653 C713.621319,200.60653 712.682995,201.535048 711.744668,201.535048 C708.929694,202.463565 708.929694,204.3206 707.99137,206.177635 C707.99137,206.177635 708.929694,207.106152 709.868018,207.106152 C708.929694,207.106152 707.99137,208.034667 707.99137,208.034667 C707.99137,208.034667 707.99137,208.034667 707.99137,208.963184 C706.114719,213.605771 704.238069,219.176873 703.299745,223.819458 C702.361421,228.462045 700.48477,231.247594 699.546446,235.890181 C697.669796,242.3898 695.793145,248.88942 693.916497,254.460522 C692.978171,256.317556 693.916497,257.246074 695.793145,256.317556 C701.423094,253.532004 707.053043,250.746454 713.621319,247.960902 C714.559643,247.960902 715.49797,246.103868 715.49797,245.175353 C720.189592,230.319079 725.819541,215.462806 730.511166,199.678015 C731.44949,197.820981 732.387817,195.035429 733.326141,193.178394 C736.141115,187.607292 739.894416,181.107673 744.586039,176.465088 C749.277664,171.822501 753.030963,166.251399 757.722588,161.608815 C762.414213,156.966228 767.105838,153.252161 771.79746,148.609574 C774.612435,146.752542 777.427409,145.824024 780.242384,144.895507 C782.119034,144.895507 783.057361,145.824024 783.057361,147.681057 C783.995685,153.252161 782.119034,157.894745 780.242384,163.465847 C779.30406,168.108434 776.489085,172.751019 775.550761,178.322121 C775.550761,178.322121 775.550761,179.250638 776.489085,180.179155 C777.427409,180.179155 777.427409,180.179155 778.365736,180.179155 C777.427409,180.179155 777.427409,180.179155 776.489085,180.179155 C775.550761,181.107673 775.550761,181.107673 774.612435,182.03619 C773.674111,184.821742 772.735787,187.607292 771.79746,191.321361 C769.920812,197.820981 767.105838,205.249117 765.229187,211.748737 C763.352537,218.248356 760.537562,223.819458 759.599238,230.319079 C758.660914,234.961664 754.907613,239.604248 755.845937,244.246835 C755.845937,245.175353 754.907613,246.103868 754.907613,247.960902 C753.969289,249.817937 753.969289,250.746454 753.969289,252.603489 C753.969289,254.460522 753.969289,254.460522 755.845937,253.532004 C761.475889,250.746454 767.105838,247.960902 772.735787,245.175353 C773.674111,244.246835 774.612435,243.318318 775.550761,242.3898 C777.427409,236.818699 778.365736,231.247594 780.242384,225.676492 C783.057361,215.462806 785.872335,205.249117 789.625634,195.963946 C792.440609,189.464327 796.193907,182.964707 800.885532,176.465088 C805.577157,169.965469 811.207106,164.394365 816.837055,157.894745 C818.713706,156.037711 819.65203,154.180678 821.52868,153.252161 C824.343655,151.395126 827.15863,149.538091 829.973604,147.681057 C831.850255,146.752542 833.726903,145.824024 835.603553,145.824024 C837.480204,145.824024 841.233502,148.609574 841.233502,150.466609 C840.295178,154.180678 840.295178,157.894745 839.356852,161.608815 C839.356852,162.53733 839.356852,163.465847 839.356852,164.394365 C838.418528,167.179917 837.480204,169.965469 838.418528,173.679536 C838.418528,174.608053 838.418528,175.536571 837.480204,174.608053 C837.480204,174.608053 836.541877,175.536571 836.541877,176.465088 C835.603553,181.107673 834.665229,184.821742 833.726903,189.464327 C832.788579,193.178394 833.726903,197.820981 829.973604,200.60653 C830.911928,203.392083 829.03528,205.249117 829.03528,208.034667 C828.096954,211.748737 826.220306,214.534289 825.281979,218.248356 C824.343655,221.962425 822.467004,225.676492 823.405329,229.390562 C823.405329,229.390562 823.405329,230.319079 822.467004,230.319079 C821.52868,231.247594 820.590354,232.176112 819.65203,233.104629 C818.713706,237.747216 817.775379,241.461283 817.775379,246.103868 C817.775379,247.960902 817.775379,248.88942 818.713706,250.746454 C818.713706,252.603489 820.590354,252.603489 820.590354,254.460522 C820.590354,255.389039 822.467004,256.317556 824.343655,255.389039 C827.15863,253.532004 830.911928,251.674972 833.726903,250.746454 C842.171826,247.960902 849.678426,243.318318 857.185025,237.747216 C858.123349,236.818699 859.061676,235.890181 860,234.961664 C859.061676,234.961664 857.185025,234.961664 856.246701,235.890181 C852.4934,237.747216 848.740102,239.604248 844.986801,241.461283 C841.233502,243.318318 839.356852,241.461283 838.418528,237.747216 C838.418528,235.890181 838.418528,233.104629 838.418528,231.247594 C835.603553,229.390562 837.480204,223.819458 839.356852,217.319838 Z M664.073504,230.147194 C665.946031,224.585633 668.754822,219.024075 670.627349,213.462517 C674.372402,202.339398 679.053721,191.216281 682.798774,179.166236 C685.607564,170.8239 688.416354,161.554634 691.225147,153.212296 C692.16141,149.504589 691.225147,144.869957 695.906463,142.089177 C696.842728,142.089177 695.906463,139.308399 695.906463,138.381472 C695.906463,137.454545 694.033938,137.454545 694.033938,137.454545 C692.16141,137.454545 691.225147,138.381472 689.352619,139.308399 C681.862511,143.016104 679.053721,143.016104 672.499877,150.431515 C669.691087,154.139223 667.818559,158.773854 666.882296,162.481561 C664.073504,168.970046 662.200978,175.458531 660.328451,181.947016 C658.455923,186.581647 656.583398,190.289355 654.71087,193.997059 C651.902079,198.631693 649.093289,203.266324 646.284499,207.900958 C645.348236,208.827883 645.348236,210.681736 644.411971,212.53559 C640.666918,217.170221 636.921862,220.877928 633.176809,225.51256 C630.368019,228.29334 626.622966,232.001045 623.814176,234.781825 C620.06912,239.416456 615.387802,241.27031 609.770221,242.197237 C607.897696,242.197237 604.152641,240.343383 604.152641,238.489532 C604.152641,235.708752 603.216378,232.001045 604.152641,229.220267 C606.025168,221.804855 608.833959,215.31637 610.706486,207.900958 C613.515277,198.631693 617.26033,188.435501 620.06912,179.166236 C623.814176,168.970046 626.622966,159.700781 629.431756,149.504589 C630.368019,147.650738 630.368019,145.796884 630.368019,143.94303 C630.368019,141.16225 629.431756,139.308399 626.622966,139.308399 C623.814176,139.308399 621.005383,140.235326 619.132858,141.16225 C616.324067,142.089177 613.515277,143.94303 611.642749,145.796884 C605.088906,150.431515 597.598797,153.212296 591.981216,158.773854 C591.044951,159.700781 591.044951,160.627708 591.044951,160.627708 C591.981216,160.627708 592.917479,160.627708 593.853742,159.700781 C594.790007,159.700781 594.790007,158.773854 595.726269,158.773854 C599.471325,155.993074 603.216378,154.139223 606.961431,151.358442 C607.897696,150.431515 608.833959,151.358442 609.770221,151.358442 C609.770221,152.285369 610.706486,154.139223 609.770221,155.066149 C609.770221,156.92 608.833959,158.773854 607.897696,160.627708 C605.088906,169.896973 602.280115,178.239311 599.471325,187.508574 C596.662532,196.77784 593.853742,206.974032 590.108689,216.243297 C588.236161,223.658709 585.427371,230.147194 583.554845,237.562605 C581.682318,242.197237 582.61858,247.758795 585.427371,251.466502 C587.299898,254.24728 589.172426,257.02806 593.853742,256.101134 C596.662532,255.174207 600.407588,255.174207 602.280115,253.320356 C609.770221,248.685722 617.26033,244.05109 623.814176,239.416456 C632.240547,232.927972 641.603181,227.366413 649.093289,219.024075 C649.093289,219.024075 650.029552,219.024075 650.029552,218.097148 C650.029552,218.097148 650.029552,219.024075 650.029552,219.024075 C646.284499,223.658709 646.284499,230.147194 644.411971,235.708752 C642.539443,239.416456 642.539443,244.05109 641.603181,248.685722 C641.603181,249.612649 641.603181,249.612649 641.603181,250.539575 C641.603181,255.174207 644.411971,257.954987 649.093289,256.101134 C650.965817,255.174207 651.902079,254.24728 653.774607,253.320356 C657.51966,251.466502 660.328451,248.685722 665.009769,246.831868 C669.691087,244.05109 673.43614,239.416456 679.053721,239.416456 C679.053721,239.416456 679.053721,239.416456 679.053721,238.489532 C681.862511,235.708752 684.671301,232.927972 687.480092,231.07412 C687.480092,231.07412 688.416354,230.147194 689.352619,230.147194 C688.416354,230.147194 687.480092,229.220267 686.543829,229.220267 C685.607564,229.220267 685.607564,230.147194 684.671301,230.147194 C681.862511,232.927972 678.117458,234.781825 675.308668,237.562605 C672.499877,239.416456 669.691087,241.27031 666.882296,242.197237 C664.073504,243.124164 661.264713,241.27031 662.200978,238.489532 C662.200978,236.635679 663.137241,232.927972 664.073504,230.147194 Z M343.923958,135.917704 C342.992435,135.917704 342.060916,135.917704 342.060916,135.917704 C341.129396,134.063874 340.197873,134.990789 339.266354,134.990789 C337.403312,135.917704 335.540272,135.917704 334.60875,135.917704 C333.67723,135.917704 333.67723,133.136961 332.74571,135.917704 C329.951148,134.990789 329.019626,138.69845 326.225064,139.625365 C324.362022,139.625365 323.430502,141.479193 321.56746,142.406108 C316.909858,145.186854 312.252254,148.894513 306.66313,151.675258 C297.347922,157.236747 289.895758,164.652067 282.443592,172.067387 C279.649031,174.848132 275.922946,177.628878 273.128384,181.336537 C274.991426,176.701963 275.922946,172.067387 276.854469,167.432813 C277.785988,162.798239 279.649031,158.163663 280.58055,153.529089 C281.51207,149.821428 282.443592,146.113769 281.51207,142.406108 C281.51207,137.771535 279.649031,136.844619 274.991426,138.69845 C272.196865,139.625365 269.402303,141.479193 266.607741,143.333024 C261.950137,146.113769 258.224055,148.894513 253.566451,152.602174 C251.703409,153.529089 250.771889,155.382919 248.908847,158.163663 C252.634931,156.309832 255.429493,155.382919 258.224055,153.529089 C260.087094,152.602174 260.087094,153.529089 259.155575,154.456004 C259.155575,157.236747 258.224055,160.017493 258.224055,162.798239 C254.497971,175.775048 250.771889,188.751856 247.045807,200.801752 C244.251245,210.070899 241.456683,219.340049 238.662121,228.609199 C237.730599,232.316858 235.867557,236.024519 234.936037,239.732178 C234.004517,242.512923 234.004517,245.293669 233.072995,248.074412 C232.141475,251.782073 230.278433,255.489732 228.415393,259.197393 C228.415393,260.124308 228.415393,261.051223 227.483871,261.978139 C228.415393,261.978139 229.346913,261.978139 230.278433,261.978139 C235.867557,259.197393 242.388203,255.489732 247.977327,252.708989 C248.908847,252.708989 248.908847,251.782073 249.840369,250.855158 C250.771889,247.147497 252.634931,243.439839 253.566451,239.732178 C256.361013,229.536115 260.087094,219.340049 262.881659,209.143984 C263.813179,205.436326 266.607741,200.801752 268.470783,197.094091 C270.333822,194.313345 272.196865,191.532602 274.991426,188.751856 C278.717508,185.044198 281.51207,180.409621 285.238154,176.701963 C289.895758,171.140474 295.484882,166.505897 301.074006,161.871324 C305.731608,157.236747 311.320734,152.602174 317.841378,149.821428 C321.56746,147.9676 323.430502,149.821428 323.430502,153.529089 C323.430502,155.382919 323.430502,157.236747 322.498982,159.090578 C322.498982,163.725152 319.70442,168.359728 320.63594,173.921217 C320.63594,173.921217 320.63594,174.848132 319.70442,174.848132 C318.772898,177.628878 317.841378,179.482706 316.909858,182.263452 C315.978336,185.971113 315.046816,188.751856 313.183774,192.459517 C311.320734,197.094091 309.457692,201.728665 308.526172,206.363241 C306.66313,210.070899 307.59465,214.705476 304.800088,219.340049 C301.074006,225.828454 300.142484,233.243773 297.347922,239.732178 C296.416402,243.439839 295.484882,248.074412 294.55336,251.782073 C293.62184,254.562817 293.62184,257.343562 292.69032,261.051223 C292.69032,263.831967 295.484882,265.685797 298.279444,264.758882 C302.005526,262.905051 306.66313,262.905051 309.457692,259.197393 C309.457692,259.197393 310.389212,259.197393 310.389212,258.270478 C316.909858,254.562817 324.362022,252.708989 329.019626,247.147497 C329.951148,246.220584 329.951148,246.220584 330.882668,245.293669 C329.951148,245.293669 329.019626,245.293669 328.088106,245.293669 C327.156584,245.293669 326.225064,246.220584 325.293544,247.147497 C323.430502,248.074412 321.56746,249.928243 319.70442,250.855158 C317.841378,251.782073 315.978336,253.635904 314.115296,251.782073 C313.183774,250.855158 313.183774,248.074412 313.183774,246.220584 C313.183774,246.220584 313.183774,246.220584 313.183774,245.293669 C315.046816,239.732178 316.909858,234.170689 318.772898,227.682284 C321.56746,219.340049 324.362022,210.070899 327.156584,201.728665 C329.951148,193.386432 332.74571,185.971113 335.540272,177.628878 C338.334834,169.286643 339.266354,160.944408 341.129396,152.602174 C342.060916,148.894513 341.129396,145.186854 340.197873,141.479193 C344.855478,135.917704 343.923958,135.917704 343.923958,135.917704 Z M225.833995,134.681818 C222.046887,136.524521 217.313006,137.445873 213.525898,139.288576 C207.845239,142.052628 203.111355,145.738034 197.430695,149.423438 C196.48392,150.344789 195.537144,151.266141 194.590366,153.108844 C196.48392,153.108844 198.377474,153.108844 200.271025,152.187492 C201.217803,152.187492 202.164579,151.266141 202.164579,150.344789 C203.111355,149.423438 204.058133,148.502086 205.004909,148.502086 C205.951685,148.502086 206.898463,148.502086 206.898463,148.502086 C206.898463,148.502086 206.898463,149.423438 206.898463,150.344789 C205.951685,155.872896 204.058133,160.479654 203.111355,166.007761 C202.164579,168.771815 202.164579,171.535867 201.217803,174.299922 C198.377474,178.906677 197.430695,185.356138 195.537144,189.962893 C192.696812,198.255055 189.856482,206.547216 187.016152,214.839377 C185.122601,221.288836 183.229047,226.816942 181.335493,233.266401 C179.441941,238.794508 178.495163,245.243968 177.548387,250.772075 C177.548387,252.614778 178.495163,254.457479 179.441941,255.37883 C179.441941,256.300182 180.388717,257.221533 181.335493,256.300182 C184.175822,255.37883 187.96293,255.37883 190.80326,254.457479 C195.537144,252.614778 199.324249,249.850724 204.058133,248.00802 C206.898463,246.165317 210.685568,244.322617 213.525898,242.479914 C213.525898,242.479914 213.525898,241.558562 214.472674,240.637211 C213.525898,240.637211 213.525898,240.637211 212.579122,240.637211 C209.738793,241.558562 206.898463,242.479914 204.058133,243.401265 C202.164579,244.322617 201.217803,243.401265 201.217803,241.558562 C201.217803,239.715859 201.217803,236.951807 202.164579,235.109104 C205.004909,226.816942 206.898463,218.524781 209.738793,209.311268 C211.632344,201.940458 214.472674,194.569648 216.366228,187.198839 C220.153336,175.221274 223.940441,162.322357 227.727547,150.344789 C228.674325,145.738034 231.514655,142.052628 229.621101,136.524521 C228.674325,134.681818 227.727547,134.681818 225.833995,134.681818 Z M397.537902,137.574277 C394.727516,138.504523 390.980338,138.504523 389.106748,140.365016 C381.612392,145.016247 374.118034,149.667477 367.56047,154.318709 C367.56047,154.318709 367.56047,155.248956 366.623676,155.248956 C367.56047,155.248956 367.56047,155.248956 368.497266,155.248956 C371.30765,153.388463 374.118034,152.458216 377.865212,150.597723 C380.675596,149.667477 382.549186,150.597723 382.549186,153.388463 C382.549186,155.248956 382.549186,157.109447 381.612392,158.96994 C380.675596,163.621172 379.738802,168.272403 377.865212,172.923633 C375.991624,177.574865 375.991624,182.226096 374.118034,185.947082 C372.244444,189.668065 371.30765,194.319298 370.370854,198.040282 C369.43406,201.761268 367.56047,205.482252 366.623676,209.203238 C365.686882,211.063728 365.686882,212.924221 364.750086,214.784714 C363.813292,216.645207 364.750086,217.575454 366.623676,217.575454 C367.56047,217.575454 367.56047,218.505698 368.497266,218.505698 C367.56047,218.505698 367.56047,218.505698 366.623676,218.505698 C364.750086,217.575454 362.876498,218.505698 362.876498,220.366191 C362.876498,225.017424 358.192524,227.808161 359.129318,232.459394 C356.318934,235.250131 356.318934,238.04087 355.38214,241.761854 C353.50855,247.343333 351.63496,252.92481 352.571756,259.436533 C352.571756,261.297026 352.571756,262.227273 355.38214,262.227273 C357.25573,261.297026 360.066114,261.297026 361.939702,259.436533 C368.497266,256.645794 374.118034,253.855056 380.675596,250.13407 C383.48598,249.203824 386.296364,247.343333 388.169954,245.48284 C389.106748,245.48284 389.106748,244.552594 389.106748,243.622347 C388.169954,243.622347 387.23316,243.622347 387.23316,243.622347 C384.422776,244.552594 381.612392,246.413087 377.865212,247.343333 C373.181238,248.273577 372.244444,247.343333 373.181238,242.6921 C374.118034,238.971117 375.054828,235.250131 375.991624,232.459394 C380.675596,219.435945 385.35957,206.412498 390.043544,193.389052 C390.980338,191.528558 391.917132,189.668065 392.853928,186.877328 C395.664312,179.435358 397.537902,171.993389 400.348286,164.551416 C402.221874,158.039693 403.15867,152.458216 405.032258,145.946493 C405.032258,141.295263 400.348286,136.64403 397.537902,137.574277 Z M394.243727,115.272727 C394.243727,115.272727 395.157043,115.272727 395.157043,115.272727 C397.896987,113.424242 401.550245,111.575756 404.290189,109.727273 C405.203506,108.80303 406.116819,108.80303 407.030133,108.80303 C408.856764,107.878788 412.510021,106.030302 412.510021,105.106059 C412.510021,101.409091 415.249965,99.5606054 415.249965,95.8636344 C415.249965,94.0151514 416.163282,92.1666658 417.98991,90.3181803 C418.903226,90.3181803 418.903226,88.4696948 418.903226,88.4696948 C418.903226,87.5454545 417.98991,87.5454545 417.076596,87.5454545 C415.249965,87.5454545 412.510021,88.4696948 410.683394,89.3939376 C407.94345,90.3181803 406.116819,92.1666658 404.290189,93.0909086 C398.810301,95.8636344 393.330413,98.6363627 392.417099,105.106059 C392.417099,106.030302 391.503783,106.954545 391.503783,107.878788 C391.503783,107.878788 391.503783,108.80303 391.503783,108.80303 C394.243727,109.727273 392.417099,110.651514 391.503783,111.575756 C390.590469,113.424242 391.503783,114.348485 394.243727,115.272727 Z M223.324853,106.776601 C224.307284,106.776601 225.289718,106.776601 226.272149,106.776601 C231.184311,107.672459 235.114039,104.984886 239.04377,103.19317 C241.008633,102.297312 242.973498,99.6097414 243.955929,97.8180258 C245.920794,94.234597 245.920794,90.6511658 246.903226,87.067737 C246.903226,85.2760214 246.903226,84.3801636 244.938363,82.588448 C242.973498,81.6925902 241.991066,81.6925902 240.026201,83.4843058 C241.008633,84.3801636 240.026201,84.3801636 239.04377,85.2760214 C235.114039,87.067737 231.184311,89.755308 227.254581,91.5470236 C226.272149,92.4428814 225.289718,93.3387392 225.289718,94.234597 C224.307284,97.8180258 223.324853,101.401457 222.342421,104.984886 C221.359987,104.984886 222.342421,106.776601 223.324853,106.776601 Z" id="path-1-copy" fill="#000000" fill-rule="nonzero"></path>
        </g>
    </g>
</svg>