<?xml version="1.0" encoding="UTF-8"?>
<svg width="746px" height="746px" viewBox="0 0 746 746" version="1.1" xmlns="http://www.w3.org/2000/svg" xmlns:xlink="http://www.w3.org/1999/xlink">
    <!-- Generator: Sketch 62 (91390) - https://sketch.com -->
    <title>Combined Shape</title>
    <desc>Created with Sketch.</desc>
    <g id="Inhalte" stroke="none" stroke-width="1" fill="none" fill-rule="evenodd">
        <g id="Artboard-Copy-17" transform="translate(-127.000000, -127.000000)" fill="#FFFFFF">
            <path d="M873,127 L873,873 L127,873 L127,127 L873,127 Z M673,323 L324,323 L324,672 L673,672 L673,323 Z M650.671405,345.328116 L650.671405,649.671405 L346.328116,649.671405 L346.328116,345.328116 L650.671405,345.328116 Z M632.523196,445.329897 L569.559278,445.329897 L569.559278,631.523196 L632.523196,631.523196 L632.523196,527.230621 L610.264821,527.230621 L610.264786,609.131021 L591.817548,609.131021 L591.817548,508.671914 L632.523196,508.67211 L632.523196,445.329897 Z M509.293814,363.476804 L486.967628,363.476804 L486.967,567.783 L428.061949,567.783548 L428.062049,424.641753 L405.853093,424.641753 L405.853093,590.146907 L486.967,590.146 L486.967355,608.310665 L364.476804,608.310905 L364.476804,630.623711 L509.293814,630.623711 L509.293814,363.476804 Z M632.523196,363.476804 L529.082474,363.476804 L529.082474,630.623711 L551.291431,630.623711 L551.291352,426.595313 L632.523196,426.595414 L632.523196,363.476804 Z M386.963918,363.476804 L365.376289,363.476804 L365.376,384.164 L364.476804,384.164948 L364.476804,405.752577 L365.376,405.752 L365.376289,590.146907 L386.963918,590.146907 L386.963,405.752 L446.329,405.752 L446.329897,549.670103 L467.917526,549.670103 L467.917526,363.476804 L446.329897,363.476804 L446.329,384.164 L386.963,384.164 L386.963918,363.476804 Z M610.264786,467.721641 L610.264786,486.280202 L591.817548,486.280202 L591.817548,467.721641 L610.264786,467.721641 Z M610.314123,385.789598 L610.314123,404.282297 L551.291352,404.282297 L551.291352,385.789598 L610.314123,385.789598 Z" id="Combined-Shape"></path>
        </g>
    </g>
</svg>