<?xml version="1.0" encoding="UTF-8"?>
<svg width="746px" height="746px" viewBox="0 0 746 746" version="1.1" xmlns="http://www.w3.org/2000/svg" xmlns:xlink="http://www.w3.org/1999/xlink">
    <!-- Generator: Sketch 57.1 (83088) - https://sketch.com -->
    <title>Combined Shape</title>
    <desc>Created with Sketch.</desc>
    <g id="New" stroke="none" stroke-width="1" fill="none" fill-rule="evenodd">
        <g id="Artboard" transform="translate(-877.000000, -1620.000000)" fill="#FFFFFF">
            <path d="M1623,1620 L1623,2366 L877,2366 L877,1620 L1623,1620 Z M1089.1549,2029.1478 C1080.2939,2027.3528 1071.3519,2026.6298 1062.3209,2026.9718 C1058.9569,2027.1018 1058.3929,2027.5718 1058.4429,2030.9938 C1058.5119,2035.6478 1058.6329,2040.3028 1058.9049,2044.9468 C1059.3519,2052.6098 1057.7739,2060.2158 1058.3609,2067.8808 C1058.4569,2069.1438 1057.9769,2070.4438 1058.0009,2071.7238 C1058.0709,2075.6508 1058.3339,2079.5758 1058.3829,2083.5028 C1058.4589,2089.8878 1058.3869,2096.2748 1058.4609,2102.6568 C1058.4819,2104.5868 1058.7619,2106.5128 1058.9589,2108.4378 C1059.0689,2109.5188 1059.6769,2110.3398 1060.7529,2110.4258 C1063.3809,2110.6368 1066.0229,2110.8608 1068.6539,2110.7878 C1071.3629,2110.7138 1074.0579,2110.1838 1076.7679,2110.0518 C1079.5759,2109.9138 1082.4169,2110.2328 1085.2059,2109.9688 C1090.3399,2109.4788 1095.5079,2109.3948 1099.6479,2105.1828 C1102.8579,2101.9178 1105.2229,2098.3338 1106.6749,2094.0898 C1108.6339,2088.3768 1109.0409,2082.4158 1109.1429,2076.4318 C1109.1949,2073.3608 1109.1529,2070.2888 1109.1529,2067.2178 C1109.2269,2067.2148 1109.3039,2067.2128 1109.3799,2067.2088 C1109.1409,2061.9708 1109.1129,2056.7118 1108.5959,2051.5008 C1108.2169,2047.6708 1107.3159,2043.8768 1106.4359,2040.1148 C1105.2479,2035.0358 1101.9909,2031.8078 1096.9739,2030.5498 C1094.4119,2029.9068 1091.7509,2029.6748 1089.1549,2029.1478 Z M1144.9429,2028.5258 C1139.6269,2027.4448 1134.2699,2027.1218 1128.9109,2028.0778 C1127.9729,2028.2448 1126.7819,2028.8458 1126.3369,2029.6148 C1124.5649,2032.6778 1123.0649,2035.8938 1122.6249,2039.4898 C1122.1449,2043.4068 1121.7389,2047.3398 1121.1289,2051.2378 C1120.3029,2056.4948 1119.3409,2061.7308 1118.3769,2066.9658 C1117.9269,2069.4178 1117.3829,2071.8558 1116.7939,2074.2768 C1116.4139,2075.8388 1115.6189,2077.3338 1115.4519,2078.9048 C1114.8849,2084.3188 1113.2379,2089.4608 1111.8159,2094.6618 C1111.1409,2097.1308 1110.3629,2099.5738 1109.8099,2102.0698 C1109.4259,2103.7918 1109.2609,2105.5778 1109.1499,2107.3458 C1109.0189,2109.4298 1109.5189,2109.8958 1111.5999,2110.0078 C1113.5209,2110.1128 1115.4459,2110.3128 1117.3669,2110.2908 C1118.8829,2110.2728 1120.4059,2110.0418 1121.9079,2109.7978 C1123.4849,2109.5398 1124.4639,2108.6968 1124.6629,2106.9338 C1124.9869,2104.0518 1125.4279,2101.1808 1125.9299,2098.3248 C1126.3979,2095.6688 1126.7029,2095.4668 1129.4449,2095.4448 C1133.6179,2095.4138 1137.7899,2095.4628 1141.9619,2095.3718 C1144.1279,2095.3238 1144.2659,2095.3008 1144.8079,2097.3068 C1145.0179,2098.0858 1145.1609,2098.8838 1145.2859,2099.6788 C1145.6749,2102.1438 1145.9669,2104.6258 1146.4369,2107.0738 C1146.8629,2109.2958 1147.6369,2109.9018 1149.9159,2109.9858 C1151.7639,2110.0528 1153.6159,2109.9998 1155.4659,2110.0018 C1156.7539,2110.0018 1158.0419,2109.9548 1159.3259,2110.0108 C1163.1699,2110.1778 1163.9759,2109.7178 1163.6209,2105.1348 C1163.5899,2104.7348 1163.4599,2104.3448 1163.3759,2103.9478 C1161.6039,2095.5138 1159.8659,2087.0718 1158.0509,2078.6458 C1156.1799,2069.9688 1154.2299,2061.3088 1152.3189,2052.6408 C1151.3969,2048.4668 1150.4989,2044.2848 1149.5599,2040.1118 C1148.9069,2037.2158 1148.2259,2034.3228 1147.5099,2031.4388 C1147.1659,2030.0438 1146.4899,2028.8388 1144.9429,2028.5258 Z M1228.9319,2027.1628 C1227.0119,2027.1418 1225.0899,2027.3858 1223.1659,2027.4268 C1220.5319,2027.4878 1217.8959,2027.4178 1215.2629,2027.4928 C1213.0589,2027.5548 1212.6049,2027.9608 1212.0309,2030.0128 C1211.8569,2030.6348 1211.6899,2031.2628 1211.5739,2031.8988 C1210.4969,2037.8358 1209.3699,2043.7648 1208.3909,2049.7188 C1208.0639,2051.6958 1208.3209,2053.7728 1207.9799,2055.7448 C1206.6789,2063.2948 1205.2659,2070.8258 1203.8269,2078.3528 C1203.5639,2079.7268 1202.9899,2081.0428 1202.5599,2082.3848 C1202.0659,2082.0648 1201.9359,2081.7968 1201.8939,2081.5148 C1201.4599,2078.5678 1201.0109,2075.6218 1200.6249,2072.6668 C1199.6949,2065.5468 1197.5679,2058.6698 1196.6159,2051.5348 C1195.6649,2044.4298 1193.9739,2037.4258 1192.6009,2030.3768 C1192.2769,2028.7108 1191.4649,2027.4788 1189.6149,2027.4388 C1187.3869,2027.3888 1185.1569,2027.4588 1182.9279,2027.4678 C1179.3879,2027.4798 1175.8489,2027.4458 1172.3089,2027.5058 C1170.4199,2027.5388 1170.0639,2027.9408 1169.9539,2029.7918 C1169.9049,2030.5988 1169.9289,2031.4088 1169.9289,2032.2178 C1169.9249,2046.0448 1169.9829,2059.8718 1169.9029,2073.6978 C1169.8399,2084.3588 1169.5829,2095.0178 1169.4579,2105.6788 C1169.4249,2108.3808 1170.3509,2109.3228 1173.0029,2109.5188 C1175.4659,2109.7008 1177.9319,2109.8478 1180.3959,2109.9578 C1182.4809,2110.0508 1183.7019,2108.9638 1183.9539,2106.8358 C1184.0299,2106.1968 1183.9959,2105.5428 1183.9939,2104.8968 C1183.9829,2089.8568 1183.9689,2074.8168 1183.9559,2059.7778 L1183.9559,2057.4518 L1183.9559,2057.4518 C1184.3309,2057.6268 1184.4649,2057.8198 1184.5139,2058.0308 C1185.9409,2064.2428 1187.3219,2070.4638 1188.7929,2076.6628 C1190.3569,2083.2498 1191.9819,2089.8238 1192.7739,2096.5638 C1193.1199,2099.5148 1193.3409,2102.4808 1193.6329,2105.4368 C1193.8209,2107.3418 1194.5099,2108.9488 1196.5469,2109.4368 C1200.5109,2110.3888 1204.4989,2110.3378 1208.4699,2109.4568 C1209.6349,2109.1968 1210.5329,2108.4758 1210.7959,2107.2408 C1211.3629,2104.5598 1211.9379,2101.8758 1212.3899,2099.1728 C1213.3679,2093.2938 1214.2159,2087.3918 1215.2189,2081.5168 C1216.0319,2076.7468 1217.0579,2072.0128 1217.8689,2067.2408 C1218.4179,2064.0028 1218.7589,2060.7278 1219.1929,2057.4688 C1219.3509,2057.5108 1219.5089,2057.5508 1219.6659,2057.5908 C1219.6659,2061.9268 1219.7259,2066.2638 1219.6529,2070.5988 C1219.5409,2077.2188 1219.3399,2083.8338 1219.1759,2090.4518 C1219.1609,2091.0158 1219.1249,2091.5808 1219.1079,2092.1468 C1218.9649,2096.7258 1218.7149,2101.3058 1218.7249,2105.8868 C1218.7289,2108.7578 1219.5159,2109.4168 1222.3669,2109.4858 C1225.3429,2109.5588 1228.3229,2109.5568 1231.2969,2109.4968 C1234.5089,2109.4328 1235.4509,2108.4648 1235.5999,2105.2918 C1235.6169,2104.8868 1235.6079,2104.4828 1235.6079,2104.0768 C1235.6079,2092.8388 1235.61028,2081.5998 1235.6039,2070.3608 C1235.6019,2069.5538 1235.5209,2068.7468 1235.4999,2067.9408 C1235.3439,2061.6548 1235.0049,2055.3658 1235.0959,2049.0828 L1235.1532,2045.16826 C1235.2275,2039.94948 1235.2739,2034.733 1235.0579,2029.5178 C1235.0319,2028.8658 1234.4309,2027.8038 1233.9219,2027.6878 C1232.3029,2027.3128 1230.6019,2027.1838 1228.9319,2027.1628 Z M1327.6399,2027.4908 C1319.9369,2027.4898 1312.2329,2027.4368 1304.5309,2027.5248 C1302.4609,2027.5498 1300.3849,2027.9448 1298.3309,2028.2828 C1296.9409,2028.5128 1295.9389,2029.3018 1295.9429,2030.8738 C1295.9489,2034.6718 1295.8929,2038.4728 1296.0429,2042.2668 C1296.2149,2046.6128 1296.8179,2050.9508 1296.8219,2055.2938 C1296.8289,2063.5028 1296.5369,2071.7118 1296.3799,2079.9218 C1296.3329,2082.4258 1296.3399,2084.9308 1296.2929,2087.4358 C1296.1849,2093.1648 1296.0519,2098.8928 1295.9489,2104.6218 C1295.9409,2105.0968 1296.0829,2105.5778 1296.1679,2106.0528 C1296.5229,2108.0298 1297.6849,2108.9998 1299.6559,2109.5158 C1303.5349,2110.5258 1307.3319,2109.5768 1311.1549,2109.3918 C1312.2549,2109.3368 1312.8939,2108.5738 1312.8749,2107.4258 C1312.7889,2102.5848 1312.7419,2097.7398 1312.5659,2092.9028 C1312.4349,2089.2778 1312.1079,2085.6618 1311.9029,2082.0398 C1311.8439,2081.0258 1311.9539,2080.0608 1313.3109,2079.9478 C1314.9899,2079.8088 1316.6639,2079.5288 1318.3439,2079.4938 C1322.0099,2079.4178 1325.6779,2079.3998 1329.3419,2079.4798 C1330.8869,2079.5128 1331.7739,2078.9698 1332.1189,2077.4568 C1332.2419,2076.9108 1332.5369,2076.4068 1332.6949,2075.8658 C1333.8059,2072.0448 1331.3179,2067.5678 1327.0149,2067.7808 C1326.2119,2067.8208 1325.4079,2067.7828 1324.6029,2067.7838 C1321.0759,2067.7898 1317.5449,2067.9058 1314.0229,2067.7638 C1311.3009,2067.6558 1310.9089,2067.1908 1310.9619,2064.5698 C1311.0659,2059.2568 1311.2609,2053.9478 1311.4639,2048.6388 C1311.5269,2047.0298 1311.8159,2045.4308 1311.8729,2043.8238 C1311.9769,2040.9018 1312.4769,2040.2608 1315.3889,2040.1658 C1318.1999,2040.0768 1321.0169,2040.1478 1323.8319,2040.1478 L1323.8319,2040.1338 L1327.9329,2040.1338 C1329.3799,2040.1318 1330.8309,2040.1808 1332.2759,2040.1188 C1336.2279,2039.9498 1337.4649,2038.6608 1337.4679,2034.7898 C1337.4699,2033.5778 1337.5139,2032.3638 1337.4629,2031.1528 C1337.3589,2028.6578 1336.3909,2027.6208 1333.9099,2027.5108 C1331.8239,2027.4188 1329.7289,2027.4908 1327.6399,2027.4908 Z M1363.1629,2027.09641 C1359.1689,2027.0838 1355.1749,2027.4028 1351.1789,2027.5738 C1351.1769,2027.5398 1351.1769,2027.5048 1351.1759,2027.4718 C1349.3239,2027.4718 1347.4749,2027.4318 1345.6249,2027.4808 C1343.3429,2027.5408 1342.2389,2028.5118 1341.8849,2030.7728 C1341.7599,2031.5628 1341.8399,2032.3858 1341.7849,2033.1908 C1341.3519,2039.5518 1342.5859,2045.8598 1341.9239,2052.2828 C1341.1999,2059.3178 1341.3489,2066.4518 1341.3509,2073.5448 C1341.3519,2081.3738 1341.6349,2089.2018 1341.7669,2097.0288 C1341.8169,2100.0038 1341.7519,2102.9798 1341.8069,2105.9548 C1341.8589,2108.9268 1342.4739,2109.5268 1345.3619,2109.5318 C1351.7149,2109.5438 1358.0689,2109.53814 1364.4219,2109.5218 C1365.7079,2109.5178 1366.9899,2109.4108 1368.2749,2109.4038 C1371.3909,2109.3848 1374.5059,2109.4358 1377.6219,2109.3838 C1379.6159,2109.3488 1381.6139,2109.2448 1383.5959,2109.0268 C1384.1409,2108.9668 1384.9429,2108.4818 1385.0879,2108.0218 C1385.5639,2106.5028 1385.9179,2104.9178 1386.0829,2103.3338 C1386.2289,2101.9128 1385.9999,2100.4568 1386.0519,2099.0228 C1386.1019,2097.6588 1385.4849,2096.8428 1384.2399,2096.5568 C1383.4689,2096.3788 1382.6429,2096.3678 1381.8439,2096.3878 C1375.9839,2096.5408 1370.1259,2096.7188 1364.2679,2096.8958 C1363.9449,2096.9048 1363.6249,2096.9338 1363.3069,2096.9778 C1359.9209,2097.4328 1359.1449,2096.8448 1358.7689,2093.4838 C1358.7069,2092.9238 1358.7009,2092.3518 1358.7269,2091.7868 C1358.8719,2088.4198 1359.0269,2085.0498 1359.1919,2081.6808 C1359.2919,2079.6538 1359.4139,2079.5278 1361.4659,2079.4598 C1366.8399,2079.2888 1372.2169,2079.1328 1377.5929,2078.9648 C1379.6229,2078.9018 1380.3219,2078.4268 1380.2559,2076.4158 C1380.1679,2073.7708 1379.7539,2071.1328 1379.3939,2068.5038 C1379.2249,2067.2808 1378.3609,2066.7598 1377.1439,2066.7868 C1371.6839,2066.9058 1366.2249,2066.9798 1360.7649,2067.1498 C1359.1109,2067.2008 1358.7999,2067.0638 1358.7109,2065.3308 C1358.6449,2064.0418 1358.6899,2062.7458 1358.6329,2061.4548 C1358.3429,2055.0938 1357.9989,2048.7368 1357.7559,2042.3738 C1357.6779,2040.3558 1358.3679,2039.5608 1360.3729,2039.3128 C1362.8389,2039.0068 1365.3299,2038.7228 1367.8099,2038.7408 C1372.4629,2038.7778 1377.1129,2039.0838 1381.7659,2039.1838 C1384.3349,2039.2398 1384.9999,2038.6888 1385.1809,2036.2108 C1385.3499,2033.8788 1385.2439,2031.5268 1385.2549,2029.1828 C1385.2589,2027.9348 1384.5299,2027.5028 1383.3959,2027.4808 C1376.6519,2027.3478 1369.9069,2027.1168 1363.1629,2027.09641 Z M1268.6239,2027.1018 C1262.2949,2026.9178 1255.9439,2027.2548 1249.6079,2027.5128 C1246.2369,2027.6518 1244.9759,2028.9768 1244.8049,2032.2928 C1244.5689,2036.7998 1244.2949,2041.3148 1244.3169,2045.8258 C1244.3659,2055.1058 1244.6309,2064.3848 1244.7439,2073.6668 C1244.8099,2078.9938 1244.7559,2084.3238 1244.7559,2089.6538 L1244.7559,2089.6538 L1244.7669,2089.6538 C1244.7669,2095.0678 1244.7459,2100.4818 1244.7749,2105.8948 C1244.7859,2108.0688 1245.3639,2108.8018 1247.3179,2108.9788 C1250.1109,2109.2298 1252.9159,2109.4628 1255.7179,2109.4958 C1260.0999,2109.5488 1261.6879,2107.9148 1261.6579,2103.4748 C1261.6419,2101.2248 1261.3659,2098.9778 1261.2949,2096.7258 C1261.2279,2094.5708 1261.3519,2092.4078 1261.2519,2090.2538 C1261.1629,2088.3428 1261.6309,2087.2278 1263.2049,2086.4858 C1268.8609,2083.8108 1274.6129,2081.3168 1280.1439,2078.3988 C1282.3479,2077.2368 1284.5719,2075.4748 1285.8909,2073.4078 C1287.9919,2070.1148 1289.4189,2066.3828 1290.2089,2062.4518 C1291.6599,2055.2278 1291.2979,2048.0128 1290.2919,2040.7928 C1290.1409,2039.6978 1289.8249,2038.5968 1289.3989,2037.5768 C1287.4099,2032.8018 1282.8179,2031.0258 1278.7159,2029.1078 C1275.6839,2027.6898 1272.0259,2027.1978 1268.6239,2027.1018 Z M1417.2709,2027.0768 C1410.6109,2027.0298 1403.9469,2027.3268 1397.2829,2027.5218 C1395.0139,2027.5888 1394.0099,2028.6138 1393.9339,2031.0448 C1393.7199,2037.9048 1393.5329,2044.7638 1393.4159,2051.6238 C1393.3449,2055.7298 1393.3699,2059.8388 1393.4479,2063.9438 C1393.5279,2068.0568 1393.7889,2072.1678 1393.8529,2076.2808 C1393.9269,2080.9678 1393.8699,2085.6578 1393.8699,2090.3458 L1393.8699,2090.3458 L1393.9039,2090.3458 C1393.9039,2095.5198 1393.8809,2100.6918 1393.9139,2105.8658 C1393.9299,2108.3948 1394.5419,2108.9648 1397.0779,2109.0318 C1399.4869,2109.0958 1401.9329,2108.9098 1404.2969,2109.2648 C1409.0569,2109.9808 1410.7399,2107.4718 1410.7889,2104.2078 C1410.8699,2098.8918 1410.5969,2093.5568 1410.2049,2088.2508 C1409.9609,2084.9648 1409.9629,2084.5108 1412.7279,2083.0278 C1415.3769,2081.6068 1417.1649,2082.3538 1418.0509,2085.2608 C1418.4259,2086.4948 1418.8029,2087.7298 1419.1479,2088.9708 L1419.1479,2088.9708 L1423.3399,2104.1168 C1423.5979,2105.0448 1423.9029,2105.9608 1424.1719,2106.8878 C1424.5809,2108.3058 1425.5409,2108.7678 1426.9669,2109.0998 C1430.5239,2109.9248 1434.0079,2109.0908 1437.5149,2108.9798 C1439.5409,2108.9158 1440.5449,2107.4338 1440.2329,2105.2268 C1439.8929,2102.8328 1439.6769,2100.3758 1438.9539,2098.0888 C1436.8909,2091.5598 1434.6669,2085.0828 1432.3659,2078.6358 C1431.4859,2076.1688 1431.5289,2076.2988 1433.1399,2074.1648 C1435.0079,2071.6888 1437.1649,2069.1088 1437.9899,2066.2248 C1440.4879,2057.5008 1440.4809,2048.5558 1438.9849,2039.5968 C1438.5879,2037.2128 1437.6289,2035.1458 1435.6699,2033.9208 C1432.4099,2031.8778 1429.0709,2029.8428 1425.5209,2028.4338 C1422.9789,2027.4248 1420.0379,2027.0958 1417.2709,2027.0768 Z M1078.8379,2038.7388 C1080.4399,2038.6558 1082.0589,2038.6558 1083.6589,2038.7588 C1087.8799,2039.0368 1090.5749,2042.0958 1090.8219,2046.3288 C1091.0979,2051.0638 1091.7219,2055.7778 1092.0769,2060.5108 C1092.3799,2064.5278 1092.5119,2068.5578 1092.7779,2073.7208 C1093.7509,2078.2418 1091.7799,2083.6198 1091.0619,2089.0998 C1090.3779,2094.3138 1087.1499,2096.9048 1081.9189,2097.3738 C1080.5669,2097.4958 1079.2339,2097.8218 1077.8919,2098.0528 C1076.2339,2098.3388 1075.6709,2098.0498 1075.2659,2096.4268 C1075.0139,2095.4208 1074.8889,2094.3578 1074.8779,2093.3198 C1074.8399,2089.4638 1074.8799,2085.6098 1074.8799,2081.7538 C1074.8799,2073.1568 1074.8739,2064.5598 1074.8709,2055.9638 C1074.8669,2051.6188 1074.8459,2047.2778 1074.8669,2042.9338 C1074.8819,2040.4788 1076.3869,2038.8698 1078.8379,2038.7388 Z M1135.9609,2044.8468 C1136.2259,2045.4098 1136.4169,2045.6698 1136.4719,2045.9558 C1137.4659,2051.1758 1138.5249,2056.3848 1139.3929,2061.6258 C1139.9189,2064.7988 1140.0599,2068.0338 1140.5249,2071.2188 C1140.8859,2073.6808 1141.4799,2076.1088 1141.9799,2078.5498 C1142.0759,2079.0208 1142.2679,2079.4778 1142.3299,2079.9508 C1142.7059,2082.8238 1142.0779,2083.3958 1139.2069,2082.9888 C1136.2719,2082.5718 1133.3269,2082.2368 1130.3889,2081.8448 C1130.0159,2081.7958 1129.6589,2081.6228 1129.2059,2081.4788 C1131.3509,2069.2918 1132.2529,2056.9828 1135.9609,2044.8468 Z M1262.8979,2039.1978 C1265.1269,2039.2358 1267.3669,2039.0738 1269.5809,2039.2628 C1272.2089,2039.4888 1274.1799,2040.9038 1274.7449,2043.5838 C1275.3229,2046.3178 1275.5799,2049.1218 1275.9679,2051.8268 C1275.4839,2055.6488 1275.1819,2059.3428 1274.5099,2062.9688 C1273.9229,2066.1348 1271.9919,2068.5288 1269.0959,2069.9798 C1267.3779,2070.8428 1265.5829,2071.5618 1263.7839,2072.2488 C1261.8749,2072.9788 1261.2519,2072.5658 1261.2209,2070.5408 C1261.1629,2066.8578 1261.2319,2063.1728 1261.1519,2059.4898 C1261.0569,2055.0658 1260.8449,2050.6458 1260.7159,2046.2218 C1260.6699,2044.6128 1260.7429,2042.9968 1260.7139,2041.3848 C1260.6859,2039.8658 1261.3829,2039.1708 1262.8979,2039.1978 Z M1411.10998,2038.9989 L1411.2809,2039.0018 C1414.1389,2039.1348 1417.0339,2039.2678 1419.8159,2039.8598 C1422.7859,2040.4908 1423.9199,2042.9068 1424.2799,2045.7858 C1424.8869,2050.6118 1424.3139,2055.4288 1424.2149,2060.2448 C1424.1409,2063.8258 1422.5259,2066.6508 1418.9089,2067.8148 C1416.1249,2068.7078 1413.2849,2069.4348 1410.3189,2070.2778 C1410.1309,2069.3798 1409.9309,2068.8498 1409.9199,2068.3188 C1409.7399,2059.3738 1409.6039,2050.4298 1409.4079,2041.4858 C1409.3759,2040.0638 1409.7559,2038.9308 1411.2809,2039.0018 Z M1205.0489,1929.6698 C1197.1739,1928.9768 1189.5139,1928.1988 1182.0519,1931.3158 C1176.7549,1933.5268 1174.3629,1938.5638 1174.1009,1943.8898 C1173.7219,1951.5878 1173.7009,1959.3028 1173.5739,1967.0118 C1173.5149,1970.7118 1173.5629,1974.4108 1173.5629,1978.1118 C1173.4909,1978.1148 1173.4169,1978.1178 1173.3429,1978.1218 C1173.5739,1983.4118 1173.9919,1988.7048 1173.9819,1993.9968 C1173.9759,1998.4078 1176.0439,2001.9998 1177.8419,2005.7338 C1178.1409,2006.3568 1178.7329,2006.8708 1179.2719,2007.3388 C1181.2709,2009.0728 1183.6499,2010.0588 1186.2309,2010.4438 C1190.9969,2011.1558 1195.7679,2011.9038 1200.5639,2012.3418 C1204.1749,2012.6718 1207.8399,2012.6248 1210.8979,2010.0798 C1212.1949,2008.9988 1213.6019,2008.0488 1214.8649,2006.9348 C1215.6329,2006.2568 1216.4829,2005.4808 1216.8409,2004.5718 C1218.0129,2001.5918 1219.0999,1998.5698 1219.9919,1995.4968 C1221.0749,1991.7528 1221.0599,1987.8718 1220.9569,1984.0098 C1220.8139,1978.6328 1220.6709,1973.2558 1220.4779,1967.8818 C1220.4039,1965.8008 1219.9329,1963.7008 1220.1109,1961.6518 C1220.5149,1957.0188 1220.3959,1952.3848 1220.5779,1947.7578 C1220.7579,1943.1628 1219.1069,1939.3038 1217.2209,1935.3708 C1216.3879,1933.6378 1215.1429,1932.5398 1213.3829,1931.9588 C1210.6469,1931.0548 1208.0279,1929.9328 1205.0489,1929.6698 Z M1125.8669,1929.8318 C1122.6199,1929.8488 1122.0189,1930.4298 1121.9829,1933.5588 C1121.9269,1938.3488 1121.7989,1943.1408 1121.8459,1947.9308 C1121.8879,1952.2648 1122.2919,1956.5978 1122.2449,1960.9278 C1122.1359,1971.0308 1121.8519,1981.1328 1121.6409,1991.2388 C1121.5409,1995.9738 1121.4039,2000.7118 1121.36766,2005.4468 C1121.3589,2006.5548 1121.6059,2007.6838 1121.8749,2008.7678 C1122.4259,2010.9958 1122.9249,2011.4048 1125.2159,2011.4428 C1128.2759,2011.4958 1131.3389,2011.4738 1134.3989,2011.4588 C1137.3869,2011.4448 1137.7799,2011.1058 1137.8129,2008.1628 C1137.8639,2003.4998 1137.9279,1998.8318 1137.8049,1994.1718 C1137.7119,1990.6918 1139.9269,1988.6938 1142.3909,1986.0368 C1143.6129,1988.1528 1144.5849,1989.7908 1145.5129,1991.4538 C1147.0719,1994.2478 1148.3329,1997.2578 1150.2239,1999.8058 C1151.9359,2002.1168 1153.4309,2004.4618 1154.0899,2007.2108 C1154.7369,2009.9168 1156.5019,2010.9238 1158.9799,2011.4918 C1162.7989,2012.3678 1166.4959,2011.5468 1170.2259,2011.0188 C1172.8219,2010.6538 1173.1539,2010.1608 1171.9529,2007.7808 C1170.1479,2004.2048 1168.2939,2000.6428 1166.2689,1997.1888 C1164.8159,1994.7138 1162.8849,1992.5168 1161.4569,1990.0308 C1158.5779,1985.0118 1155.9349,1979.8578 1153.1059,1974.8088 C1152.1829,1973.1648 1152.1289,1971.6578 1152.9809,1970.0178 C1154.2759,1967.5238 1155.5029,1964.9938 1156.7829,1962.4928 C1161.2119,1953.8348 1165.6619,1945.1888 1170.0719,1936.5218 C1170.5019,1935.6748 1170.8089,1934.7348 1170.9949,1933.8018 C1171.5139,1931.2068 1170.5269,1929.9608 1167.8819,1929.8918 C1165.4679,1929.8288 1163.0419,1929.9878 1160.6329,1929.8468 C1157.9209,1929.6878 1156.1079,1930.9508 1155.0079,1933.2078 C1152.4039,1938.5378 1149.6269,1943.8128 1147.4839,1949.3268 C1145.5209,1954.3838 1142.5319,1958.8708 1140.3439,1963.7788 C1139.8849,1964.8128 1139.0659,1965.6878 1138.4159,1966.6348 C1138.2159,1966.5718 1138.0149,1966.5078 1137.8149,1966.4468 C1137.8149,1965.5168 1137.8149,1964.5878 1137.8169,1963.6608 C1137.8259,1953.4458 1137.8429,1943.2318 1137.8499,1933.0178 L1137.84944,1932.61693 C1137.84,1929.87153 1137.6553,1929.82649 1134.5679,1929.8198 C1131.6689,1929.8138 1128.7679,1929.8171 1125.8669,1929.8318 Z M1291.9149,1929.8438 C1288.9019,1929.8768 1288.1819,1930.5698 1288.1429,1933.5328 C1288.1009,1937.0698 1288.0899,1940.6068 1288.1389,1944.1428 C1288.1979,1948.3948 1288.4879,1952.6498 1288.4069,1956.8958 C1288.2559,1964.7338 1287.8209,1972.5658 1287.6719,1980.4038 C1287.5409,1987.2128 1287.6439,1994.0278 1287.6439,2000.8388 L1287.7159,2000.8388 C1287.7159,2002.9288 1287.5649,2005.0298 1287.7479,2007.1028 C1288.0969,2011.0578 1288.1769,2011.0508 1292.0939,2011.5218 C1292.2529,2011.5418 1292.4099,2011.5928 1292.5699,2011.5938 C1297.8729,2011.6918 1303.1779,2011.8968 1308.4799,2011.8498 C1314.4179,2011.7948 1320.3519,2011.4308 1326.2889,2011.3638 C1328.9029,2011.3328 1330.0539,2010.4308 1329.9609,2007.8238 C1329.8989,2006.0618 1329.7639,2004.2998 1329.7279,2002.5358 C1329.6689,1999.3428 1329.2629,1998.8428 1326.1009,1998.8898 C1319.5099,1998.9878 1312.9209,1999.1528 1306.3299,1999.3178 C1305.1239,1999.3468 1304.2609,1999.0048 1304.0729,1997.7018 C1303.9139,1996.5918 1303.6909,1995.4788 1303.6839,1994.3658 C1303.6639,1990.6888 1303.7359,1987.0098 1303.7519,1983.3318 C1303.7639,1981.1028 1303.6759,1978.8698 1303.7409,1976.6408 C1303.8069,1974.3188 1304.1079,1972.0008 1304.1229,1969.6788 C1304.1769,1961.0788 1304.0349,1952.4768 1304.2189,1943.8808 C1304.3009,1940.0378 1304.7629,1936.2198 1304.1789,1932.3678 C1303.8669,1930.3168 1303.8229,1929.9378 1301.7639,1929.8598 C1298.4859,1929.7368 1295.1989,1929.8098 1291.9149,1929.8438 Z M1263.3549,1929.3848 C1261.2839,1929.3358 1260.7029,1930.0418 1260.5989,1932.1788 C1260.5589,1932.9818 1260.5709,1933.7868 1260.5839,1934.5918 C1260.7419,1944.5228 1260.9079,1954.4538 1261.0659,1964.3838 C1261.0829,1965.5078 1261.1209,1966.6398 1261.0259,1967.7568 C1260.8339,1970.0208 1260.1699,1970.5588 1257.9299,1970.3688 C1256.9719,1970.2868 1256.0159,1970.0228 1255.0649,1970.0458 C1252.5779,1970.1098 1250.0969,1970.3598 1247.6089,1970.3978 C1244.9279,1970.4388 1244.6159,1970.1498 1244.6579,1967.5438 C1244.7849,1959.5158 1244.9779,1951.4898 1245.1529,1943.4628 C1245.1599,1943.1448 1245.2439,1942.8238 1245.2399,1942.5048 C1245.2089,1939.2348 1245.2069,1935.9618 1245.1109,1932.6938 C1245.0639,1931.1288 1244.1009,1929.9728 1242.6069,1929.8848 C1238.6929,1929.6528 1234.7619,1929.5838 1230.8399,1929.6238 C1229.3549,1929.6378 1228.6339,1930.6648 1228.6659,1932.2478 C1228.7279,1935.1178 1228.6699,1937.9898 1228.6679,1940.8628 C1228.6649,1954.9918 1228.6759,1969.1188 1228.6499,1983.2478 C1228.6479,1985.1638 1228.4259,1987.0798 1228.3909,1988.9978 C1228.3359,1992.1018 1228.2759,1995.2098 1228.3579,1998.3118 C1228.4559,2001.9878 1228.6359,2005.6658 1228.9199,2009.3328 C1229.0149,2010.5538 1229.6339,2011.8488 1231.0979,2011.84282 C1235.0279,2011.8288 1238.9619,2011.6858 1242.8909,2011.4988 C1244.5529,2011.4198 1245.1869,2010.3848 1245.1579,2008.7188 C1245.0899,2004.6208 1245.1929,2000.5188 1245.1199,1996.4208 C1245.0569,1992.8948 1244.8609,1989.3708 1244.6939,1985.8468 C1244.6139,1984.1828 1245.0369,1983.4308 1246.7229,1983.1248 C1247.9609,1982.9018 1249.2599,1982.9638 1250.5319,1982.9618 C1253.6719,1982.9578 1256.8119,1982.9898 1259.9529,1983.0088 C1260.8609,1983.0138 1261.8769,1982.9948 1261.9439,1984.2188 C1262.1169,1987.4168 1262.3039,1990.6188 1262.2929,1993.8208 C1262.2779,1998.8748 1262.0459,2003.9308 1262.0349,2008.9878 C1262.0289,2010.9098 1262.6399,2011.3028 1264.5369,2011.4718 C1268.0589,2011.7868 1271.5449,2012.0478 1275.1009,2011.5328 C1278.2369,2011.0808 1278.5229,2011.0648 1278.5209,2007.9278 C1278.5179,2001.6078 1278.5469,1995.2868 1278.4709,1988.9708 C1278.4359,1986.0858 1278.1319,1983.2068 1278.0519,1980.3198 C1278.0139,1978.9648 1278.3109,1977.6018 1278.2969,1976.2428 C1278.2399,1971.3658 1278.0809,1966.4898 1278.0279,1961.6128 C1277.9789,1957.0398 1278.0179,1952.4678 1278.0179,1947.8948 C1278.0789,1947.8908 1278.1389,1947.8888 1278.1989,1947.8868 C1277.9769,1942.9978 1277.7419,1938.1078 1277.5459,1933.2188 C1277.4479,1930.7848 1277.0489,1930.1398 1274.6699,1929.9498 C1270.9059,1929.6508 1267.1309,1929.4738 1263.3549,1929.3848 Z M1355.8219,1929.4688 C1351.8959,1929.5098 1347.9769,1929.7648 1344.0529,1929.9278 C1344.0509,1929.8988 1344.0489,1929.8698 1344.0489,1929.8428 C1342.1149,1929.8428 1340.1829,1929.8568 1338.2509,1929.8368 C1336.7639,1929.8228 1335.7779,1930.4818 1335.3999,1931.9248 C1334.7879,1934.2608 1334.4569,1936.5808 1334.7349,1939.0568 C1335.1629,1942.8718 1335.3519,1946.7298 1335.3889,1950.5708 C1335.4059,1952.4718 1334.6589,1954.3718 1334.6009,1956.2808 C1334.3539,1964.2038 1334.1129,1972.1278 1334.1108,1980.0528 C1334.1049,1987.8388 1334.3699,1995.6218 1334.5619,2003.4058 C1334.6059,2005.1638 1334.7749,2006.9258 1335.0069,2008.6698 C1335.3299,2011.0978 1335.7639,2011.4438 1338.2999,2011.4608 C1341.8429,2011.4858 1345.3859,2011.4688 1348.9289,2011.4608 C1352.7929,2011.4488 1356.6559,2011.4208 1360.5219,2011.4078 C1364.1219,2011.3948 1367.7189,2011.4008 1371.3179,2011.3858 C1372.6039,2011.3828 1373.8929,2011.3898 1375.1739,2011.3078 C1377.3089,2011.1708 1378.7339,2009.9628 1378.9029,2007.9018 C1379.1169,2005.2938 1379.0049,2002.6498 1378.8419,2000.0328 C1378.8099,1999.5348 1377.9599,1998.9298 1377.3569,1998.6658 C1376.7279,1998.3888 1375.9399,1998.3688 1375.2269,1998.3978 C1368.5659,1998.6588 1361.9049,1998.9248 1355.2449,1999.2568 C1353.2009,1999.3578 1352.3189,1998.8248 1351.9179,1996.7398 C1351.7079,1995.6418 1351.5259,1994.5118 1351.5539,1993.4018 C1351.6319,1990.3648 1351.8499,1987.3308 1351.9709,1984.2938 C1352.0779,1981.6028 1352.0649,1981.6158 1354.6849,1981.5418 C1360.0629,1981.3928 1365.4399,1981.1788 1370.8189,1981.0798 C1372.4009,1981.0508 1373.4099,1980.4298 1373.3469,1978.8798 C1373.2379,1976.2518 1372.9979,1973.6168 1372.5939,1971.0178 C1372.3989,1969.7738 1371.4849,1968.9118 1370.0179,1968.9428 C1364.5499,1969.0638 1359.0819,1969.1238 1353.6159,1969.2938 C1351.9279,1969.3488 1351.5699,1969.2308 1351.4959,1967.5668 C1351.1539,1960.0348 1350.8239,1952.5048 1350.5379,1944.9728 C1350.4489,1942.6598 1351.1199,1941.8288 1353.3329,1941.5868 C1355.8859,1941.3078 1358.4579,1941.0268 1361.0209,1941.0468 C1365.6009,1941.0828 1370.1759,1941.3888 1374.7539,1941.4868 C1377.1669,1941.5388 1377.7969,1941.0048 1377.9999,1938.6158 C1378.1849,1936.4598 1378.1329,1934.2798 1378.0979,1932.1118 C1378.0659,1930.1488 1377.8139,1929.8788 1375.8379,1929.8518 C1372.0529,1929.7988 1368.2679,1929.8808 1364.4839,1929.8158 C1361.5949,1929.7628 1358.7089,1929.4428 1355.8219,1929.4688 Z M1197.2129,1941.1878 C1202.8069,1941.4718 1205.7539,1944.9778 1205.7539,1950.7258 L1205.7539,1950.7258 L1205.7539,1980.8468 C1205.7539,1984.8878 1205.8099,1988.4718 1205.7539,1992.3838 C1205.7539,1997.7188 1201.2589,2000.2778 1197.2129,2000.2778 C1193.1659,2000.2778 1188.6709,1997.7188 1188.6709,1992.3838 C1188.6149,1988.4718 1188.6709,1984.8878 1188.6709,1980.8468 L1188.6709,1980.8468 L1188.6709,1950.7258 C1188.6709,1944.9778 1191.6169,1941.4718 1197.2129,1941.1878 Z M1105.1859,1968.5058 L1069.2299,1968.5058 L1069.2299,1979.1858 L1105.1859,1979.1858 L1105.1859,1968.5058 Z M1427.7229,1968.5058 L1389.2749,1968.5058 L1389.2749,1979.1858 L1427.7229,1979.1858 L1427.7229,1968.5058 Z M1268.5429,1814.9998 L1255.9839,1827.6128 L1266.0739,1837.6598 L1251.5379,1852.1348 L1236.9979,1837.6568 L1247.0919,1827.6128 L1234.5319,1814.9998 L1224.3849,1825.0978 L1221.6869,1822.4108 L1212.6439,1831.4928 L1215.3009,1834.1378 L1207.9059,1841.4958 L1207.9059,1854.0558 L1220.5189,1854.0558 L1227.9139,1846.6978 L1242.4559,1861.1778 L1212.9249,1890.5838 L1221.9679,1899.6658 L1251.5379,1870.2208 L1281.1079,1899.6658 L1290.1509,1890.5838 L1260.6189,1861.1778 L1275.1559,1846.7028 L1286.3779,1857.8768 L1298.9359,1845.2628 L1287.7689,1834.1438 L1290.4319,1831.4928 L1281.3889,1822.4108 L1278.6869,1825.1008 L1268.5429,1814.9998 Z" id="Combined-Shape"></path>
        </g>
    </g>
</svg>