<svg width="134" height="50" viewBox="0 0 134 50" fill="none" xmlns="http://www.w3.org/2000/svg">
<path d="M33.4656 49.87C32.7485 49.87 32.1551 49.697 31.6853 49.3508C31.1908 49.0293 30.8817 48.5225 30.7581 47.8301C30.6592 47.1131 30.9311 46.3589 31.574 45.5677C32.2169 44.7764 33.0205 43.9976 33.9848 43.2311C34.7513 42.6129 35.5549 42.0318 36.3956 41.4879C37.2363 40.9686 38.0152 40.4865 38.7323 40.0414C39.474 39.621 40.0675 39.2872 40.5125 39.04C41.4521 38.4713 42.4165 37.8778 43.4055 37.2597C44.3946 36.6663 45.3465 36.0852 46.2614 35.5165C46.5581 34.6263 46.7435 33.7362 46.8177 32.8461C46.9166 31.9312 46.9537 31.041 46.929 30.1756C46.657 30.596 46.2614 31.1523 45.7421 31.8446C45.2476 32.537 44.6542 33.2293 43.9619 33.9216C43.2942 34.614 42.5648 35.2074 41.7736 35.7019C40.9823 36.1717 40.1664 36.4066 39.3257 36.4066C38.2625 36.4066 37.533 36.0976 37.1374 35.4794C36.7418 34.8612 36.544 34.1318 36.544 33.2911C36.544 32.5493 36.6429 31.7952 36.8407 31.0287C37.0632 30.2622 37.2981 29.644 37.5454 29.1742C38.0399 28.1604 38.6581 27.1714 39.3999 26.2071C40.1664 25.2428 41.0194 24.4515 41.959 23.8334C42.9233 23.2152 43.9 22.9061 44.8891 22.9061C45.6061 22.9061 46.1254 23.1163 46.4468 23.5366C46.793 23.957 46.9661 24.4392 46.9661 24.9831C46.9661 25.1562 46.9166 25.4282 46.8177 25.7991C46.7188 26.17 46.5828 26.5532 46.4097 26.9489C46.2614 27.3445 46.0759 27.6906 45.8534 27.9874C45.6309 28.2593 45.3836 28.3953 45.1116 28.3953C44.9385 28.3953 44.7902 28.3459 44.6665 28.247C44.5429 28.1234 44.4811 27.9997 44.4811 27.8761C44.4811 27.8019 44.58 27.6288 44.7778 27.3568C44.9756 27.0849 45.1734 26.7511 45.3712 26.3554C45.569 25.9598 45.668 25.5395 45.668 25.0944C45.668 24.8224 45.5938 24.5751 45.4454 24.3526C45.3218 24.1301 45.0745 24.0188 44.7036 24.0188C43.9371 24.0188 43.1706 24.2908 42.4041 24.8348C41.6623 25.3787 40.9823 26.0587 40.3642 26.8747C39.746 27.6906 39.2268 28.5313 38.8064 29.3968C38.6334 29.7676 38.4355 30.324 38.213 31.0658C37.9905 31.8076 37.8792 32.5246 37.8792 33.2169C37.8792 33.8104 38.0028 34.3173 38.2501 34.7376C38.4974 35.1332 38.9301 35.331 39.5482 35.331C40.0922 35.331 40.6733 35.1209 41.2914 34.7005C41.9343 34.2802 42.5772 33.7486 43.2201 33.1057C43.8629 32.4381 44.444 31.7581 44.9633 31.0658C45.5072 30.3487 45.9399 29.7058 46.2614 29.1371C46.6076 28.5684 46.793 28.1604 46.8177 27.9132C46.8424 27.7895 46.9166 27.6536 47.0403 27.5052C47.1639 27.3568 47.3122 27.2827 47.4853 27.2827C47.6831 27.2827 47.8191 27.3445 47.8933 27.4681C47.9675 27.5917 48.0169 27.7154 48.0417 27.839C48.2148 28.5066 48.3013 29.2855 48.3013 30.1756C48.3013 30.8927 48.2518 31.6221 48.1529 32.3639C48.0788 33.1057 47.9922 33.7733 47.8933 34.3667C48.734 33.6744 49.5005 32.8461 50.1929 31.8817C50.9099 30.8927 51.5528 29.9655 52.1215 29.1C52.2451 28.9022 52.3935 28.8033 52.5666 28.8033C52.6902 28.8033 52.8015 28.8528 52.9004 28.9517C53.024 29.0506 53.0858 29.1742 53.0858 29.3226C53.0858 29.4215 53.0487 29.5451 52.9745 29.6935C52.208 30.9298 51.3921 32.1166 50.5266 33.254C49.686 34.3667 48.6104 35.3558 47.2999 36.2212C46.6075 38.1993 45.6556 40.0661 44.444 41.8217C43.2572 43.6019 41.9343 45.135 40.4755 46.4207C39.0413 47.7312 37.5949 48.6832 36.136 49.2766C35.6662 49.4744 35.2088 49.6228 34.7637 49.7217C34.2939 49.8206 33.8612 49.87 33.4656 49.87ZM33.4656 48.9428C33.7623 48.9428 34.0837 48.8934 34.4299 48.7944C34.7761 48.6955 35.1346 48.5719 35.5055 48.4236C36.9891 47.756 38.3366 46.8782 39.5482 45.7902C40.7845 44.727 41.8601 43.5401 42.775 42.2296C43.7146 40.9192 44.4687 39.6087 45.0374 38.2982C45.0869 38.1498 45.1487 38.0015 45.2229 37.8531C45.2971 37.7048 45.3712 37.5564 45.4454 37.408C44.7284 37.8037 44.036 38.224 43.3684 38.6691C42.7008 39.1389 42.0085 39.5716 41.2914 39.9672C40.8958 40.1897 40.3147 40.5235 39.5482 40.9686C38.7817 41.4137 37.9534 41.9082 37.0632 42.4522C36.1731 43.0209 35.3448 43.6143 34.5783 44.2325C33.8365 44.8012 33.2183 45.3699 32.7238 45.9386C32.2293 46.5073 31.982 47.0389 31.982 47.5334C31.982 48.0279 32.1304 48.3865 32.4271 48.609C32.6991 48.8315 33.0452 48.9428 33.4656 48.9428Z" fill="#481D00"/>
<path d="M30.3634 36.4066C29.0776 36.4066 28.1751 36.0357 27.6558 35.2939C27.1613 34.5274 26.9141 33.6373 26.9141 32.6235C26.9141 31.8817 27.0995 31.0039 27.4704 29.9901C27.8413 28.9516 28.3482 27.9379 28.9911 26.9488C29.6587 25.9598 30.4252 25.1438 31.2906 24.5009C32.156 23.8333 33.0832 23.4995 34.0723 23.4995C34.7152 23.4995 35.2221 23.685 35.593 24.0559C35.9886 24.402 36.1864 24.8471 36.1864 25.3911C36.1864 26.4296 35.8526 27.431 35.185 28.3953C34.5174 29.3596 33.652 30.1509 32.5887 30.769C31.5255 31.3872 30.3881 31.6962 29.1765 31.6962C29.0282 31.6962 28.8798 31.6962 28.7314 31.6962C28.5831 31.6715 28.4347 31.6468 28.2864 31.6221C28.2122 31.9435 28.1751 32.3144 28.1751 32.7347C28.1751 33.3776 28.3235 33.9711 28.6202 34.515C28.9416 35.059 29.5474 35.331 30.4375 35.331C31.1793 35.331 31.8964 35.1455 32.5887 34.7747C33.2811 34.4038 33.8621 33.9834 34.3319 33.5136C34.8017 33.0438 35.1973 32.6235 35.5188 32.2526C35.8402 31.8817 36.174 31.4613 36.5202 30.9915C36.8664 30.497 37.2991 29.8541 37.8183 29.0629C37.9172 28.8898 38.0656 28.8033 38.2634 28.8033C38.6096 28.8033 38.7826 28.9887 38.7826 29.3596C38.7826 29.4833 38.7579 29.5822 38.7085 29.6563C38.0408 30.7937 37.2991 31.8817 36.4831 32.9202C35.6671 33.934 34.7523 34.7747 33.7385 35.4423C32.7494 36.0851 31.6244 36.4066 30.3634 36.4066ZM29.4361 30.5465C30.3757 30.5465 31.2535 30.2992 32.0695 29.8047C32.9102 29.2854 33.5901 28.6426 34.1094 27.876C34.6534 27.1095 34.9253 26.3307 34.9253 25.5394C34.9253 25.2674 34.8512 25.0449 34.7028 24.8718C34.5792 24.6987 34.3566 24.6122 34.0352 24.6122C33.3923 24.6122 32.7742 24.8347 32.1807 25.2798C31.5873 25.7001 31.0433 26.2441 30.5488 26.9117C30.079 27.5546 29.671 28.1975 29.3249 28.8404C29.0034 29.4833 28.7685 30.0272 28.6202 30.4723C28.7438 30.497 28.8674 30.5218 28.9911 30.5465C29.1394 30.5465 29.2878 30.5465 29.4361 30.5465Z" fill="#481D00"/>
<path d="M16.7762 37.0743C16.6526 37.0743 16.5042 37.0495 16.3311 37.0001C16.158 36.9506 16.0715 36.8394 16.0715 36.6663V36.555C16.9122 33.9835 17.654 31.412 18.2969 28.8404C18.9645 26.2442 19.5703 23.6356 20.1142 21.0146C20.312 20.1986 20.4851 19.3827 20.6335 18.5667C20.8066 17.726 20.9549 16.8853 21.0786 16.0446C21.1527 15.649 21.2145 15.2534 21.264 14.8578C21.3382 14.4374 21.3753 14.0295 21.3753 13.6338C21.3753 12.7931 21.0662 12.1873 20.448 11.8165C19.8299 11.4456 19.0881 11.2601 18.2227 11.2601C16.9369 11.2601 15.5275 11.5197 13.9945 12.039C12.4862 12.5582 10.9779 13.2506 9.46961 14.116C7.98604 14.9567 6.63846 15.8716 5.42688 16.8606C4.24002 17.8496 3.33751 18.8263 2.71936 19.7907C2.39792 20.2852 2.13829 20.8415 1.94048 21.4597C1.74267 22.0778 1.64377 22.6713 1.64377 23.24C1.64377 24.2043 1.96521 24.8224 2.60809 25.0944C3.25097 25.3664 4.05457 25.5024 5.01889 25.5024C5.56287 25.5024 6.08212 25.4653 6.57664 25.3911C7.09589 25.2922 7.59042 25.1439 8.06021 24.9461C8.20857 24.8966 8.31984 24.8719 8.39402 24.8719C8.5671 24.8719 8.71546 24.9337 8.83909 25.0573C8.98745 25.1562 9.06163 25.2799 9.06163 25.4282C9.06163 25.6508 8.88854 25.8362 8.54238 25.9846C8.19621 26.1329 7.77586 26.2566 7.28134 26.3555C6.78682 26.4544 6.31702 26.5285 5.87195 26.578C5.4516 26.6027 5.15489 26.6151 4.9818 26.6151C3.69604 26.6151 2.58336 26.3678 1.64377 25.8733C0.704173 25.354 0.234375 24.4639 0.234375 23.2029C0.234375 22.1396 0.531089 21.1011 1.12452 20.0874C1.71795 19.0736 2.4721 18.1216 3.38696 17.2315C4.32656 16.3166 5.32797 15.4883 6.3912 14.7465C7.45442 14.0047 8.45583 13.3742 9.39543 12.855C10.1867 12.4099 11.0892 12.0019 12.1029 11.631C13.1167 11.2354 14.1552 10.9263 15.2184 10.7038C16.2817 10.4565 17.2831 10.3329 18.2227 10.3329C19.3601 10.3329 20.3615 10.5801 21.2269 11.0747C22.1171 11.5692 22.5621 12.3728 22.5621 13.4855C22.5621 14.0542 22.5003 14.7094 22.3767 15.4512C22.2778 16.1683 22.1541 16.8977 22.0058 17.6395C21.8574 18.3813 21.7214 19.0365 21.5978 19.6052C21.2022 21.6575 20.7571 23.7098 20.2626 25.762C19.7928 27.7896 19.2983 29.8171 18.779 31.8447L18.9274 31.9188C20.2873 30.0149 21.7091 28.1357 23.1926 26.2813C24.6762 24.4268 26.2092 22.6218 27.7917 20.8662C29.0528 19.4816 30.3509 18.1093 31.6861 16.7493C33.046 15.3894 34.4801 14.116 35.9884 12.9291C36.7055 12.3604 37.5586 11.8165 38.5476 11.2972C39.5367 10.7532 40.5257 10.4812 41.5148 10.4812C42.0093 10.4812 42.4791 10.5925 42.9241 10.815C43.3692 11.0376 43.5918 11.3961 43.5918 11.8906C43.5918 12.0637 43.5423 12.2368 43.4434 12.4099C43.3692 12.583 43.2085 12.6695 42.9612 12.6695C42.714 12.6695 42.5409 12.583 42.442 12.4099C42.3431 12.2368 42.2936 12.0637 42.2936 11.8906C42.2936 11.6928 42.2071 11.5568 42.034 11.4827C41.8609 11.4085 41.6755 11.3714 41.4777 11.3714C40.9831 11.3714 40.4392 11.5074 39.8457 11.7794C39.2523 12.0514 38.6836 12.3728 38.1396 12.7437C37.5956 13.1146 37.1506 13.436 36.8044 13.708C35.3208 14.8701 33.8249 16.2054 32.3166 17.7137C30.833 19.222 29.3742 20.8168 27.9401 22.4982C26.506 24.1548 25.1584 25.8238 23.8973 27.5052C22.6363 29.1866 21.4989 30.7814 20.4851 32.2897C19.867 33.1799 19.2983 34.07 18.779 34.9602C18.6307 35.2074 18.4823 35.4794 18.3339 35.7761C18.2103 36.0481 18.062 36.3201 17.8889 36.5921C17.6663 36.9135 17.2954 37.0743 16.7762 37.0743Z" fill="#481D00"/>
<path d="M125.398 14.7339C125.321 15.6637 125.263 16.4676 125.224 17.3199C125.205 18.1722 125.195 18.8307 125.195 19.2956C125.195 19.7218 125.205 20.1189 125.224 20.4869C125.244 20.855 125.263 21.1746 125.282 21.4458H124.614C124.323 19.8961 124.345 18.6758 123.822 17.7847C123.319 16.8743 123.192 16.2351 122.514 15.8671C122.218 15.7015 122.801 15.5732 122.477 15.4821C122.081 15.3707 116.308 15.4603 115.871 15.4603H115.202C114.679 15.4603 114.273 15.5087 113.982 15.6056C113.711 15.683 113.527 15.8574 113.43 16.1286C113.352 16.3998 113.314 16.8259 113.314 17.407V31.9058C113.314 32.6806 113.391 33.2617 113.546 33.6491C113.701 34.0172 114.011 34.2593 114.476 34.3755C114.941 34.4918 115.609 34.5596 116.481 34.5789V35.2182C115.842 35.1988 115.018 35.1794 114.011 35.16C113.004 35.1407 111.948 35.131 110.844 35.131C109.972 35.131 109.11 35.1407 108.258 35.16C107.425 35.1794 106.65 35.1988 105.934 35.2182V34.637C106.534 34.5983 106.98 34.5208 107.27 34.4046C107.58 34.2884 107.783 34.0559 107.88 33.7073C107.997 33.3586 108.055 32.8356 108.055 32.1383V17.7266C108.055 17.0099 107.997 16.4869 107.88 16.1576C107.783 15.809 107.58 15.5765 107.27 15.4603C106.98 15.3247 106.534 15.2472 105.934 15.2278V14.6467C106.767 14.6661 107.638 14.6855 108.549 14.7048C109.478 14.7048 110.389 14.7145 111.28 14.7339C112.19 14.7339 113.033 14.7339 113.808 14.7339C114.602 14.7339 115.251 14.7339 115.754 14.7339C116.183 14.7339 121.995 14.7339 122.477 14.7339C122.998 14.7339 122.657 14.7339 123.24 14.7339C124.383 14.7145 124.518 14.7339 125.398 14.7339ZM117.556 24.6419C117.556 24.6419 117.556 24.7387 117.556 24.9324C117.556 25.1261 117.556 25.223 117.556 25.223H112.442C112.442 25.223 112.442 25.1261 112.442 24.9324C112.442 24.7387 112.442 24.6419 112.442 24.6419H117.556ZM118.34 20.8065C118.263 21.9107 118.224 22.7533 118.224 23.3344C118.244 23.9155 118.253 24.4482 118.253 24.9324C118.253 25.4167 118.263 25.9494 118.282 26.5305C118.302 27.1116 118.35 27.9542 118.428 29.0583H117.759C117.643 28.361 117.43 27.7218 117.12 27.1407C116.81 26.5596 116.394 26.0947 115.871 25.746C115.367 25.3973 114.728 25.223 113.953 25.223V24.6419C114.515 24.6419 115.009 24.5257 115.435 24.2932C115.861 24.0414 116.219 23.7218 116.51 23.3344C116.82 22.947 117.072 22.5305 117.265 22.085C117.459 21.6395 117.595 21.2133 117.672 20.8065H118.34Z" fill="#481D00"/>
<path d="M98.0849 14.6178L105.116 32.7776C105.407 33.4556 105.707 33.9301 106.017 34.2013C106.346 34.4725 106.637 34.6178 106.889 34.6372V35.2183C106.269 35.1795 105.523 35.1602 104.652 35.1602C103.799 35.1408 102.928 35.1311 102.036 35.1311C101.107 35.1311 100.225 35.1408 99.3924 35.1602C98.5595 35.1602 97.8912 35.1795 97.3876 35.2183V34.6372C98.3755 34.5984 99.005 34.4338 99.2762 34.1432C99.5474 33.8333 99.4893 33.1844 99.1019 32.1965L94.2786 19.0052L94.8597 18.1335L90.6176 29.0875C90.1721 30.2498 89.5346 31.8815 89.5346 31.8815C88.5178 34.3109 87.5546 34.7925 86.4336 35.2183V34.6372C86.8597 34.5597 87.2859 34.2885 87.712 33.8236C88.1576 33.3587 88.5934 32.5548 89.0195 31.412L95.5571 14.6178C95.9445 14.6565 96.361 14.6759 96.8065 14.6759C97.2714 14.6759 97.6975 14.6565 98.0849 14.6178ZM99.5958 26.8502V27.4314H90.9372L91.2278 26.8502H99.5958Z" fill="#481D00"/>
<path d="M70.1444 14.705C71.0161 14.7243 71.8587 14.734 72.7304 14.734C73.6795 14.734 74.5899 14.7243 75.4616 14.705C76.3527 14.6856 76.9822 14.6759 77.3502 14.6759C79.2485 14.6759 80.8079 14.8696 82.0282 15.257C83.2679 15.6444 84.1977 16.2159 84.8175 16.9713C85.4374 17.7074 85.7473 18.6275 85.7473 19.7316C85.7473 20.4289 85.6021 21.1166 85.3115 21.7945C83.7608 25.5605 75.1343 33.012 71.4302 33.012C78.422 30.6702 79.3784 24.6633 79.9653 22.4919C80.1783 21.7558 80.2849 20.9422 80.2849 20.0512C80.2849 18.5209 80.0427 17.3393 79.5585 16.5064C79.0742 15.6541 78.251 15.228 77.0887 15.228C76.372 15.228 75.9071 15.3926 75.6941 15.7219C75.5004 16.0512 75.4035 16.7195 75.4035 17.7267V32.1384C75.4035 32.8357 75.4519 33.3587 75.5488 33.7074C75.665 34.056 75.8684 34.2885 76.159 34.4047C76.4689 34.5209 76.9241 34.5984 77.5246 34.6372V35.2183C76.9822 35.1795 76.2849 35.1602 75.4326 35.1602C74.5996 35.1408 73.757 35.1311 72.9047 35.1311C71.9168 35.1311 70.1444 35.1602 70.1444 35.1602C70.1444 35.1602 70.1444 33.4327 70.1444 32.1384V17.7267C70.1444 16.9182 70.1095 14.7042 70.1444 14.705ZM79.0355 26.0076C79.5391 26.0464 79.1323 25.3882 79.5004 25.4076C81.418 25.5238 82.1735 25.8236 83.1033 26.4435C84.0524 27.0439 84.6529 27.9447 84.9047 29.1456L85.5149 32.1674C85.6892 32.9035 85.8732 33.4265 86.0669 33.7364C86.2606 34.027 86.5318 34.1626 86.8805 34.1432C87.0936 34.1432 87.2776 34.1045 87.4326 34.027C87.5875 33.9301 87.7425 33.7945 87.8974 33.6202L88.3042 33.9979C87.7425 34.5984 87.1323 35.0149 86.4737 35.2473C85.8151 35.4991 85.05 35.6251 84.1783 35.6251C83.0355 35.6251 82.096 35.4023 81.3599 34.9568C80.6432 34.5113 80.188 33.688 79.9943 32.487L79.5004 29.5815C79.3841 28.7873 79.2292 28.0803 79.0355 27.4604C78.8611 26.8406 79.142 26.7921 78.8321 26.4435C78.9856 26.4435 78.8321 25.74 79.0355 26.0076Z" fill="#481D00"/>
<path d="M60.9117 14.24C62.1902 14.24 63.2362 14.4337 64.0497 14.8211C64.8827 15.1891 65.6187 15.625 66.258 16.1286C66.6454 16.4192 66.9359 16.4579 67.1296 16.2448C67.3427 16.0124 67.488 15.4797 67.5655 14.6468H68.2338C68.195 15.4022 68.166 16.332 68.1466 17.4361C68.1272 18.5402 68.1175 19.993 68.1175 21.7945H67.4493C67.3718 20.8841 67.2459 20.0899 67.0715 19.4119C66.9166 18.7339 66.6841 18.1335 66.3742 17.6105C66.0643 17.0874 65.6187 16.6226 65.0376 16.2158C64.5921 15.8477 64.0885 15.5669 63.5267 15.3732C62.9844 15.1601 62.4226 15.0536 61.8415 15.0536C60.7761 15.0536 59.8754 15.3538 59.1393 15.9543C58.4226 16.5354 57.8415 17.3102 57.396 18.2787C56.9698 19.2279 56.6599 20.2933 56.4662 21.4749C56.2919 22.6371 56.2047 23.809 56.2047 24.9906C56.2047 26.1916 56.3016 27.3828 56.4953 28.5644C56.689 29.7267 56.9989 30.7824 57.425 31.7315C57.8706 32.6807 58.4614 33.4458 59.1974 34.0269C63.5365 37.3383 71.0891 33.6088 74.6152 31.2466C76.4733 30.0019 76.9938 30.8898 73.0283 32.962C67.2689 35.9716 61.1783 37.4189 55.304 34.3756C53.7156 33.5427 52.4759 32.3417 51.5848 30.7727C50.7132 29.2037 50.2773 27.3151 50.2773 25.1068C50.2773 22.9373 50.7325 21.039 51.643 19.4119C52.5534 17.7848 53.8028 16.516 55.3911 15.6056C56.9989 14.6952 58.8391 14.24 60.9117 14.24Z" fill="#481D00"/>
<mask id="mask0_193_4384" style="mask-type:alpha" maskUnits="userSpaceOnUse" x="118" y="13" width="19" height="25">
<path d="M121.893 13.7144H136.345V37.1985H118.68V25.4564L121.893 19.5854V13.7144Z" fill="#D9D9D9"/>
</mask>
<g mask="url(#mask0_193_4384)">
<path d="M133.794 14.6467C133.717 15.7121 133.659 16.7387 133.62 17.7266C133.6 18.7145 133.591 19.47 133.591 19.993C133.591 20.4191 133.6 20.8162 133.62 21.1843C133.639 21.5523 133.659 21.8719 133.678 22.1431H133.01C132.622 20.4191 132.157 19.0632 131.615 18.0753C131.073 17.068 130.453 16.361 129.755 15.9542C129.077 15.5281 128.341 15.315 127.547 15.315H127.198V31.9058C127.198 32.7 127.276 33.2908 127.431 33.6782C127.605 34.0656 127.915 34.3271 128.361 34.4627C128.826 34.5789 129.494 34.637 130.366 34.637V35.2182C129.726 35.1988 128.864 35.1794 127.78 35.16C126.714 35.1407 125.6 35.131 124.438 35.131C123.295 35.131 122.22 35.1407 121.213 35.16C120.206 35.1794 119.392 35.1988 118.772 35.2182V34.637C119.644 34.637 120.312 34.5789 120.777 34.4627C121.242 34.3271 121.552 34.0656 121.707 33.6782C121.862 33.2908 121.939 32.7 121.939 31.9058V15.315H121.62C120.806 15.315 120.06 15.5281 119.382 15.9542C118.705 16.361 118.094 17.0584 117.552 18.0462C117.01 19.0341 116.535 20.3998 116.128 22.1431H115.46C115.499 21.8719 115.518 21.5523 115.518 21.1843C115.537 20.8162 115.547 20.4191 115.547 19.993C115.547 19.47 115.528 18.7145 115.489 17.7266C115.47 16.7387 115.421 15.7121 115.344 14.6467C116.254 14.6661 117.252 14.6855 118.336 14.7048C119.441 14.7242 120.535 14.7339 121.62 14.7339C122.705 14.7339 123.692 14.7339 124.583 14.7339C125.475 14.7339 126.462 14.7339 127.547 14.7339C128.651 14.7339 129.746 14.7242 130.83 14.7048C131.915 14.6855 132.903 14.6661 133.794 14.6467Z" fill="#481D00"/>
</g>
</svg>
