<svg width="2000" height="2000" viewBox="0 0 2000 2000" fill="none" xmlns="http://www.w3.org/2000/svg">
<path id="Combined Shape" fill-rule="evenodd" clip-rule="evenodd" d="M2562 -198H-562V2198H2562V-198ZM1237.44 742.965C1215.66 742.965 1179.52 782.384 1179.52 824.351L1179.52 824.363C1179.55 824.715 1180.16 832.504 1183.95 832.504C1209.87 832.504 1225.18 785.681 1225.33 785.207L1238.15 743.844C1238.31 743.377 1238.3 743.114 1238.29 743.024C1238.28 743.027 1238.25 743.022 1238.2 743.014C1238.1 742.996 1237.91 742.961 1237.61 742.961C1237.57 742.961 1237.54 742.963 1237.51 742.963L1237.44 742.965ZM633.631 1141.6C631.419 1141.6 628.692 1142.43 625.557 1144.08C614.842 1149.72 594.576 1171.98 594.576 1215.84C594.576 1220.59 595.228 1237.26 603.602 1251.97C612.16 1267.01 625.748 1274.63 643.986 1274.63C677.392 1274.63 712.798 1255.6 741.126 1222.43C768.531 1190.34 784.893 1149.69 784.893 1113.7C784.893 1099.83 780.93 1067.56 744.217 1067.56C736.484 1067.56 727.89 1068.47 719.284 1070.2C717.189 1075.79 715.183 1081.41 713.237 1086.86L713.159 1087.08L713.159 1087.08C701.964 1118.46 691.389 1148.1 667.12 1163.4C658.999 1168.95 649.697 1171.55 645.991 1171.55C639.404 1171.55 635.311 1167.55 635.311 1161.11C635.311 1158.15 636.399 1156.14 637.359 1154.36C638.426 1152.39 639.433 1150.53 639.433 1146.89C639.433 1145.86 638.897 1143.61 636.862 1142.4C635.963 1141.87 634.879 1141.6 633.631 1141.6ZM801.566 984.4C801.57 1015.25 787.581 1030.7 778.723 1037.38C830.991 1041.9 830.993 1090.99 830.993 1110.02C830.993 1155.16 809.074 1207.15 772.362 1249.08C735.349 1291.36 689.018 1316.6 648.426 1316.6C620.631 1316.6 598.442 1308.45 582.474 1292.39C558.429 1268.2 556.827 1234.42 556.908 1224.64C556.908 1179.47 583.754 1112.61 641.379 1112.61C648.512 1112.61 654.116 1115.13 657.993 1117.73C667.563 1103.36 677.64 1071.28 681.655 1057.69C682.919 1053.41 686.405 1050.12 690.755 1049.1L721.76 1041.79C750.692 1034.24 761.215 1009.74 761.215 995.123C761.215 985.32 757.991 977.812 751.624 972.769C699.41 1025.29 651.491 1051.92 609.172 1051.92C586.121 1051.92 567.491 1043.13 555.291 1026.49C545.431 1013.04 540 994.888 540 975.372C540 910.412 571.951 869.713 598.758 847.009C615.693 832.665 632.48 823.601 643.752 818.469C635.697 818.009 625.868 815.943 618.199 809.622C610.122 802.964 606.026 792.899 606.026 779.702C606.026 715.192 683.336 680 723.056 680C732.974 680 741.335 681.34 747.911 683.985C757.628 687.895 763.204 694.72 763.204 702.708C763.204 725.403 737.166 735.68 729.26 735.68C722.726 735.68 718.667 731.674 718.667 725.224C718.667 722.26 719.745 720.247 720.699 718.472L720.702 718.467C721.758 716.496 722.757 714.633 722.757 710.989C722.757 709.231 722.757 705.118 709.718 705.118C683.809 705.118 639.175 740.473 639.175 776.663C639.175 785.838 643.303 792.53 651.445 796.557C659.051 800.317 667.73 800.508 669.391 800.508C684.403 800.508 692.273 797.23 696.053 795.653C697.717 794.96 698.722 794.542 699.77 794.542C699.956 794.542 700.141 794.535 700.326 794.528L700.435 794.524L700.45 794.524C701.69 794.477 703.562 794.408 705.032 795.82C706.272 797.009 706.847 798.893 706.847 801.745C706.847 812.684 697.888 818.091 685.488 825.573L685.485 825.575L685.388 825.634C683.569 826.731 681.66 827.883 679.678 829.114C636.651 855.816 585.359 902.38 585.359 972.57C585.359 986.882 589.418 998.142 597.423 1006.04C605.261 1013.76 615.084 1016.36 621.249 1016.34C647.806 1016.02 680.462 998.702 718.365 964.85C699.112 965.346 690.513 970.745 684.73 974.377L684.729 974.378L684.718 974.385C681.673 976.295 679.266 977.806 676.428 977.806C670.762 977.806 667.511 974.781 667.511 969.511C667.511 953.446 697.86 934.769 736.989 934.769C741.003 934.769 744.917 934.99 748.647 935.428C759.542 924.034 770.808 911.421 782.16 897.908C771.875 873.324 766.662 842.946 766.662 807.581V805.547L812.546 797.774V800.628C812.546 820.458 813.975 838.479 816.801 854.296C850.099 810.102 872.131 774.347 873.475 770.939L873.974 769.674L916.62 762.445L933.723 707.279L982.11 699.078L965.008 754.243L994.543 749.236L987.575 771.708L958.039 776.717L929.777 867.869C927.342 875.728 927.435 881.581 930.039 884.351C932.507 886.972 936.866 886.401 939.244 885.831C979.343 874.413 999.628 828.471 1008.14 802.104L1018.82 767.687L1010.3 769.131C1006.97 769.692 1003.62 768.722 1001.11 766.458C998.662 764.253 997.385 761.128 997.603 757.884C998.766 740.605 1011.47 726.522 1028.48 723.636L1051.51 719.733L1047.19 733.642C1046.31 736.486 1046.96 739.523 1048.93 741.764C1050.89 744.004 1053.82 745.046 1056.77 744.544L1073.29 741.742C1089.71 739.123 1101.29 741.557 1107.74 748.97C1115.94 758.394 1113.7 773.184 1110.37 783.934C1102.63 808.967 1094.47 835.344 1093.23 839.347C1090.73 847.387 1092.01 850.367 1093 851.426C1094.48 853.027 1097.48 852.754 1099.74 852.241C1113.1 849.209 1134.54 830.889 1139.67 814.575C1146.29 779.469 1172.67 719.872 1229.74 718.345C1236.86 718.345 1241.36 720.426 1244.01 722.37L1245.92 716.206L1294.98 707.891L1262.89 811.399C1261.64 815.408 1262.43 819.188 1265.05 821.765C1268.15 824.824 1273.23 825.611 1278.63 823.868C1284.91 821.841 1290.19 818.702 1294.3 814.535C1295.9 812.912 1298.31 812.608 1300.28 813.789C1302.24 814.96 1303.11 817.2 1302.44 819.365C1295.2 842.755 1265.16 861.593 1245.12 861.593C1237.86 861.593 1217.13 861.593 1213.38 838.576C1205.59 850.649 1187.14 874.957 1165 874.957C1154.61 874.957 1142.72 864.768 1138.85 847.415C1137.81 848.698 1136.73 849.996 1135.61 851.291C1122.94 866.033 1097.55 890.764 1069.82 890.764L1069.61 890.754C1059.73 889.9 1052.21 886.054 1047.88 879.627C1042.5 871.647 1042.05 860.249 1046.54 845.754L1069.72 771.035C1070.58 768.26 1069.99 765.438 1068.11 763.295C1066.22 761.136 1063.35 760.139 1060.44 760.634L1037.62 764.5L1023.6 809.712C1017.55 829.556 1006.21 858.008 986.565 880.798C965.299 905.468 939.214 917.976 909.036 917.976C898.553 917.976 889.946 914.14 884.799 907.175C880.605 901.499 876.734 891.091 882.112 873.744L909.651 784.92L888.579 788.491C880.307 802.502 857.214 841.382 825.118 885.289C839.926 924.291 867.391 943.253 909.036 943.253C940.55 943.253 969.891 931.555 993.889 909.424C996.037 907.5 997.983 908.056 998.724 908.386C1001.6 909.669 1002.37 913.815 1002.37 916.062C1002.37 927.99 970.36 974.225 899.135 974.225C873.528 974.225 826.533 967.523 795.894 923.234C789.708 930.83 783.501 938.177 777.388 945.135C799.688 959.493 801.497 983.355 801.566 984.4ZM1086.08 996.731L1058.16 1086.98C1056.34 1092.79 1054.29 1102.82 1061.01 1104.93C1069.66 1107.64 1088.88 1096.51 1094.47 1078.71L1122.15 990.605L1086.08 996.731ZM1280.14 976.614C1264.55 976.614 1244.14 990.49 1232.7 1021.39C1272.11 1018.89 1288.86 996.038 1288.67 984.495C1288.59 979.413 1285.56 976.614 1280.14 976.614ZM1449.57 1032.92C1451.05 1031.42 1453.24 1031.02 1455.15 1031.89C1457.04 1032.75 1458.15 1034.64 1457.98 1036.69C1454.03 1085.99 1401.88 1127.53 1154.51 1182.21C1032.59 1208.74 989.922 1249.5 958.77 1279.27C935.237 1301.75 918.233 1318 879.734 1318C866.435 1318 845.058 1307.04 844.313 1277.61C844.313 1235.96 903.99 1197.92 992.811 1182.88L1252.3 1138.95C1282.93 1133.95 1322.53 1122.57 1355.66 1109.24C1381.1 1098.99 1400.86 1088.43 1412.75 1078.89C1408.42 1080.19 1403 1081.08 1396.3 1081.08C1386.64 1081.08 1377.83 1076.66 1372.13 1068.96C1365.24 1059.64 1363.77 1047.01 1367.99 1033.41L1391.17 958.763C1392.03 955.994 1391.4 953.041 1389.49 950.86C1387.57 948.679 1384.71 947.668 1381.84 948.153L1362.78 951.377L1354.14 979.199C1329.16 1062.13 1273.73 1105.53 1231.9 1105.53C1212.58 1105.53 1198.87 1096.52 1192.81 1080.01C1165.81 1118.73 1135.41 1123.02 1123.31 1123.02L1123.1 1123.01C1110.28 1121.91 1100.48 1116.56 1095.5 1108.14C1089.37 1116.52 1071.72 1136.28 1041.29 1136.28L1041.09 1136.27C1028.53 1135.19 1018.56 1130.13 1013.1 1122.21C1006.62 1130.35 986.392 1151.8 953.356 1151.8L953.148 1151.79C941.325 1150.77 932.442 1145.98 927.692 1138.16C920.981 1146.1 901.658 1165.53 873.266 1165.53L873.057 1165.52C861.747 1164.54 853.164 1160.17 848.237 1152.87C842.899 1144.97 842.235 1134.39 846.26 1121.42L875.002 1028.85L919.838 1021.26L890.375 1116.16C888.563 1122 886.525 1132.1 893.242 1134.17C901.799 1136.8 920.782 1125.61 926.285 1107.88L955.027 1015.3L1001.9 1007.36L972.437 1102.27C970.651 1108.02 968.686 1117.99 975.596 1120.12C984.639 1122.91 1004.53 1111.71 1010.13 1093.68L1037.71 1004.83L1011.02 1009.34L1017.94 987.073L1044.63 982.554L1061.4 928.547L1109.54 920.929V923.748C1109.54 924.111 1109.54 924.121 1094 974.194L1130.38 968.036L1147.41 913.983L1194.81 906.722L1178.04 959.969L1217.69 953.255L1210.12 975.64L1171.01 982.259L1142.23 1073.66C1141.19 1076.95 1140.45 1081.37 1142.82 1083.73C1144.98 1085.88 1149.59 1086.12 1155.16 1084.37C1169.73 1079.82 1186.5 1063.91 1190.37 1042.33C1196.18 1007.26 1223.58 955.023 1275.2 955.023C1298.78 955.023 1309.52 969.114 1309.52 982.205C1309.52 1004.39 1288.15 1037.59 1229.47 1039.18C1228.14 1045.75 1227.48 1052.21 1227.48 1058.4C1227.48 1063.46 1228.82 1075.22 1241.31 1075.22C1286.37 1075.22 1321.36 1027.43 1336.06 980.06L1343.98 954.562L1341.05 955.057C1335.93 955.928 1330.8 954.116 1327.35 950.216C1323.96 946.384 1322.81 941.197 1324.29 936.342C1328.4 922.807 1339.65 912.926 1353.64 910.558L1376.67 906.658L1372.36 920.554C1371.47 923.395 1372.12 926.428 1374.09 928.666C1376.06 930.905 1378.99 931.938 1381.93 931.442L1398.47 928.644C1414.89 926.031 1426.47 928.461 1432.92 935.864C1441.13 945.28 1438.88 960.055 1435.56 970.791L1429.14 991.502C1423.8 1008.75 1419.3 1023.26 1418.41 1026.15C1416.02 1033.82 1416.29 1039.36 1419.17 1042.16C1421.95 1044.86 1427.55 1045.14 1434.16 1042.91C1441.03 1040.59 1446.33 1036.19 1449.57 1032.92Z" fill="white"/>
</svg>
