<?xml version="1.0" encoding="UTF-8"?>
<svg width="747px" height="746px" viewBox="0 0 747 746" version="1.1" xmlns="http://www.w3.org/2000/svg" xmlns:xlink="http://www.w3.org/1999/xlink">
    <!-- Generator: Sketch 56.3 (81716) - https://sketch.com -->
    <title>Combined Shape Copy 2</title>
    <desc>Created with Sketch.</desc>
    <g id="New" stroke="none" stroke-width="1" fill="none" fill-rule="evenodd">
        <g id="Artboard" transform="translate(-437.000000, -1429.000000)" fill="#FFFFFF">
            <g id="Combined-Shape-Copy-2" transform="translate(437.500000, 1429.000000)">
                <path d="M1.36424205e-12,0 L746,0 L746,746 L1.36424205e-12,746 L1.36424205e-12,0 Z M372.021012,436.744243 C337.738159,436.744243 302.108949,397.365391 302.108949,364.946633 C302.111022,337.548084 314.233411,376.515256 348.516264,374.354976 C382.73382,372.198854 441.934111,332.526836 441.934111,364.946633 C441.934111,397.365391 406.305938,436.744243 372.021012,436.744243 Z M409.422561,311.799374 C409.239108,311.721404 409.03078,311.668385 408.821416,311.616405 C402.370515,309.52058 383.386788,303.235183 377.561905,301.139358 C371.580518,298.964523 365.47061,296.371771 359.25602,293.386052 C352.282745,290.059345 346.981273,285.815715 343.324656,280.655161 C339.669076,275.495647 337.840768,268.999212 337.840768,261.166897 C337.840768,253.649579 340.688949,247.310123 346.381165,242.09759 C352.074417,236.911046 358.968922,234.292304 367.037732,234.292304 C374.689886,234.292304 381.165663,235.759174 386.441223,238.718903 C391.690873,241.652643 396.154888,245.608305 399.812541,250.531831 C403.545856,255.666395 406.601328,261.376895 408.925062,267.689321 C411.275744,274.001747 413.365239,280.603181 415.24537,287.518573 L425.587128,287.518573 L424.54238,227.271913 L414.358164,227.271913 L409.135463,235.969172 C403.676449,232.563456 397.670187,229.577737 391.088692,227.009935 C384.482322,224.443173 377.040568,223.186301 368.709535,223.186301 C361.396302,223.186301 354.37224,224.443173 347.661188,226.957955 C340.949099,229.472738 335.124217,232.930433 330.190687,237.357033 C325.018771,242.04561 321.023234,247.389133 318.204074,253.361611 C315.408752,259.30706 313.999172,265.751515 313.999172,272.665867 C313.999172,284.662803 316.819368,294.406935 322.485673,301.872273 C325.410552,305.748926 328.988398,309.259641 333.166352,312.35036 C307.443588,320.417624 287.961326,337.313136 287.961326,363.637782 C287.961326,378.751427 294.386316,395.54194 304.728073,410.393606 C320.840818,433.575555 346.48481,452.041896 372.182699,452.041896 C414.383039,452.041896 456.427911,402.326342 456.427911,363.637782 C456.427911,336.71017 436.059478,319.657679 409.422561,311.799374 Z M273.461387,501.753968 L274.681578,501.51241 C274.365004,498.901281 274.208254,497.296122 274.05048,495.849911 C273.224725,495.68678 271.060961,495.085499 268.856216,495.085499 C263.661953,495.085499 260.749272,498.461039 260.749272,502.036308 C260.749272,505.770525 263.071835,507.700899 267.203682,509.98995 C270.666525,511.917186 272.282176,513.162622 272.282176,516.25373 C272.282176,518.86695 270.547682,520.874706 267.715937,520.874706 C263.623022,520.874706 261.889551,517.37891 261.104777,514.687262 L259.883562,515.011431 C260.160179,517.17918 260.630429,519.910564 260.948027,521.034699 C262.559581,521.676762 264.606551,522.360654 266.96907,522.360654 C272.04449,522.360654 275.624126,519.148245 275.624126,514.929866 C275.624126,511.111992 273.579205,509.267367 268.856216,506.775449 C265.591104,505.047942 263.857634,503.641467 263.857634,500.871392 C263.857634,498.781025 264.921075,496.491974 267.99153,496.491974 C271.69001,496.491974 272.791357,499.102057 273.461387,501.753968 Z M290.68482,500.298169 L294.321896,510.48525 L286.847997,510.48525 C288.048564,507.342317 289.406226,503.71976 290.68482,500.298169 Z M294.680818,521.508305 L304.552732,521.508305 L304.552732,520.392637 C301.715688,520.076686 301.354685,519.758663 300.075051,516.2946 C297.556355,509.409981 294.800458,501.889318 292.281763,495.085499 L291.003168,495.324793 L282.731318,516.216907 C281.332042,519.796992 280.694306,520.076686 278.17665,520.392637 L278.17665,521.508305 L287.407707,521.508305 L287.407707,520.392637 C284.130593,519.99485 283.570883,519.677863 284.449982,517.092246 C285.009692,515.458625 285.607895,513.906841 286.248753,512.117835 L294.881606,512.117835 C295.722212,514.622651 296.518082,516.612623 297.039299,518.164407 C297.599009,519.677863 297.27754,520.076686 294.680818,520.392637 L294.680818,521.508305 Z M331.354234,496.625271 L331.354234,495.511674 L321.827446,495.511674 L321.827446,496.625271 C324.764726,496.783764 325.675975,497.462281 325.795821,499.253359 C325.876408,500.32552 325.995222,501.838976 325.995222,505.499861 L325.995222,509.556462 C325.995222,516.163458 324.208884,519.66585 318.572985,519.66585 C313.810107,519.66585 311.072227,516.481481 311.072227,510.67213 L311.072227,500.724343 C311.072227,497.144259 311.389408,496.823128 314.566382,496.625271 L314.566382,495.511674 L304.127311,495.511674 L304.127311,496.625271 C307.302219,496.904965 307.617333,497.144259 307.617333,500.724343 L307.617333,510.87206 C307.617333,515.528449 308.769309,518.272559 311.149714,520.104037 C312.898858,521.457964 315.357784,521.93448 317.658636,521.93448 C320.398582,521.93448 323.097202,521.337799 324.961026,519.388227 C327.266011,516.961104 327.741266,513.856499 327.741266,509.796791 L327.741266,505.499861 C327.741266,501.838976 327.818753,500.167027 327.860079,499.253359 C327.937567,497.422917 328.852948,496.783764 331.354234,496.625271 Z M354.32695,515.167967 L353.119058,514.84929 C352.555934,516.04511 351.710201,517.681058 350.947156,518.518755 C350.063742,519.554717 349.660762,519.914917 347.208345,519.914917 L343.47058,519.914917 C341.459869,519.872357 340.572268,519.635684 340.572268,516.843361 L340.572268,508.908596 L344.995621,508.908596 C347.893933,508.908596 348.214223,509.307203 348.737573,512.177379 L349.982099,512.177379 L349.982099,503.963382 L348.737573,503.963382 C348.252951,506.6737 348.054078,507.274724 345.038536,507.274724 L340.572268,507.274724 L340.572268,498.459702 C340.572268,497.304366 340.653911,497.183953 341.902623,497.183953 L345.718891,497.183953 C348.132581,497.183953 349.05891,497.463186 349.700537,498.781494 C350.142244,499.619191 350.545224,500.456888 350.908429,501.81049 L352.11318,501.612225 C351.951988,499.498779 351.791843,496.50819 351.753115,495.511674 C351.268493,495.551119 349.700537,495.590565 345.922997,495.590565 L333.619041,495.590565 L333.619041,496.706456 C336.634583,496.985688 337.076291,497.183953 337.076291,500.733006 L337.076291,516.486276 C337.076291,519.756097 336.794728,520.113182 333.055917,520.391376 L333.055917,521.508305 L352.597802,521.508305 C352.996595,520.314561 354.085162,516.207044 354.32695,515.167967 Z M366.243404,508.884593 L364.325634,508.884593 L364.325634,499.046214 C364.325634,498.002892 364.447183,497.600408 364.806635,497.319192 C365.087132,497.077702 365.762403,496.917754 366.918675,496.917754 C369.992716,496.917754 372.826776,498.483782 372.826776,502.780428 C372.826776,504.947569 372.189943,506.556459 370.633703,507.721049 C369.63638,508.563651 368.315966,508.884593 366.243404,508.884593 Z M380.966387,521.93448 L381.128452,520.809616 C380.209045,520.572307 379.293793,520.130097 378.21336,518.963417 C377.298108,517.958775 376.537649,516.955179 375.062442,514.826719 C373.863576,513.021291 372.148388,510.330399 371.429484,509.084267 C374.383015,507.799455 376.576087,505.631269 376.576087,502.17827 C376.576087,499.728869 375.500848,497.92135 373.863576,496.878028 C372.348892,495.874432 370.392684,495.511674 367.477591,495.511674 L357.304895,495.511674 L357.304895,496.635492 C360.456852,496.999296 360.895258,497.116382 360.895258,500.5307 L360.895258,516.555831 C360.895258,519.967013 360.6158,520.130097 357.304895,520.489719 L357.304895,521.614583 L367.958592,521.614583 L367.958592,520.489719 C364.76508,520.169823 364.325634,519.967013 364.325634,516.555831 L364.325634,510.248857 L365.723965,510.248857 C367.758088,510.248857 368.277527,510.490347 369.077464,511.776204 C370.354245,513.823123 371.789975,516.354067 373.265182,518.403076 C375.022964,520.891158 376.576087,521.654309 379.49118,521.856074 C380.011658,521.895799 380.450065,521.93448 380.966387,521.93448 Z M416.863788,496.630358 L416.863788,495.511674 L407.792773,495.511674 L407.792773,496.630358 C411.157794,497.031003 411.476455,497.552362 410.879352,499.868819 C410.008963,503.345587 407.750491,510.46042 406.087059,515.779114 C403.789398,508.982716 401.571145,502.669173 399.353923,495.871734 L398.087528,495.871734 C396.064184,502.427745 393.687116,509.383361 391.510113,515.74061 C389.884838,510.102441 388.300814,504.784787 386.755977,499.387005 C386.201156,497.388982 386.281595,496.949834 389.213484,496.630358 L389.213484,495.511674 L379.42677,495.511674 L379.42677,496.630358 C382.000809,496.91133 382.439098,497.349438 383.468301,500.58894 C385.607147,507.583059 387.865619,515.060034 389.84565,521.93448 L391.151233,521.93448 C393.212734,515.779114 395.551645,508.944212 397.849306,502.066644 C399.909775,507.983704 402.56116,515.697944 404.622661,521.93448 L405.970525,521.93448 C408.147528,514.780103 411.318671,504.62557 412.625285,500.627444 C413.692645,497.349438 414.089683,497.031003 416.863788,496.630358 Z M439.836504,515.167967 L438.6296,514.84929 C438.066448,516.04511 437.220673,517.681058 436.457591,518.518755 C435.574133,519.554717 435.171134,519.914917 432.718596,519.914917 L428.980647,519.914917 C426.969837,519.872357 426.082192,519.635684 426.082192,516.843361 L426.082192,508.908596 L430.505763,508.908596 C433.403171,508.908596 433.724524,509.307203 434.247899,512.177379 L435.492487,512.177379 L435.492487,503.963382 L434.247899,503.963382 C433.763253,506.6737 433.564371,507.274724 430.54868,507.274724 L426.082192,507.274724 L426.082192,498.459702 C426.082192,497.304366 426.163839,497.183953 427.411566,497.183953 L431.229068,497.183953 C433.642877,497.183953 434.569252,497.463186 435.21091,498.781494 C435.652639,499.619191 436.055639,500.456888 436.418861,501.81049 L437.623672,501.612225 C437.462472,499.498779 437.30232,496.50819 437.26359,495.511674 C436.778944,495.551119 435.21091,495.590565 431.433185,495.590565 L419.128623,495.590565 L419.128623,496.706456 C422.144314,496.985688 422.586043,497.183953 422.586043,500.733006 L422.586043,516.486276 C422.586043,519.756097 422.304467,520.113182 418.565471,520.391376 L418.565471,521.508305 L438.108318,521.508305 C438.50713,520.314561 439.594705,516.207044 439.836504,515.167967 Z M442.389028,521.508305 L453.024545,521.508305 L453.024545,520.388021 C449.731492,520.029863 449.41221,519.910131 449.41221,516.47015 L449.41221,500.591475 C449.41221,497.152536 449.731492,496.993239 453.024545,496.630917 L453.024545,495.511674 L442.389028,495.511674 L442.389028,496.630917 C445.642817,496.993239 445.960033,497.152536 445.960033,500.591475 L445.960033,516.47015 C445.960033,519.867443 445.642817,520.029863 442.389028,520.388021 L442.389028,521.508305 Z M484.505675,496.633672 L484.505675,495.511674 L474.740122,495.511674 L474.740122,496.633672 C477.901625,496.833023 478.810647,497.394544 478.929036,499.200179 C479.048454,500.404631 479.128753,502.128856 479.128753,505.857023 L479.128753,515.679468 L462.361775,495.511674 L456.427911,495.511674 L456.427911,496.633672 C458.365373,496.833023 459.197185,497.075166 459.947668,498.077136 C460.659032,498.95908 460.739331,499.602011 460.739331,500.725053 L460.739331,510.946199 C460.739331,514.596087 460.659032,516.400678 460.543732,517.684453 C460.381075,519.646646 459.434992,520.249916 456.981765,520.448223 L456.981765,521.572309 L466.593927,521.572309 L466.593927,520.448223 C463.743324,520.207124 462.755033,519.606985 462.677823,517.563382 C462.597524,516.400678 462.478106,514.596087 462.478106,510.987948 L462.478106,500.961978 L479.40568,521.93448 L480.906648,521.93448 L480.906648,505.857023 C480.906648,502.128856 480.986946,500.443249 481.025037,499.160517 C481.144455,497.316265 481.975237,496.915477 484.505675,496.633672 Z M340.557652,477.580493 L341.138909,477.517911 C341.0596,476.680355 340.978203,475.437058 340.959419,475.055308 C340.697488,475.075125 339.5548,475.094943 338.83475,475.094943 L333.481337,475.094943 L333.481337,475.679042 C334.766991,475.737452 334.946482,475.838626 334.946482,477.260282 L334.946482,482.268932 C334.946482,483.651996 334.766991,483.750041 333.481337,483.86999 L333.481337,484.431142 L338.19401,484.431142 L338.19401,483.86999 C336.689211,483.791762 336.569203,483.651996 336.569203,482.268932 L336.569203,480.222499 L338.213838,480.222499 C339.516189,480.222499 339.575671,480.304899 339.796904,481.505431 L340.377118,481.505431 L340.377118,478.262638 L339.796904,478.262638 C339.575671,479.40476 339.496361,479.481945 338.232622,479.481945 L336.569203,479.481945 L336.569203,476.357014 C336.569203,475.877219 336.6506,475.819852 337.191159,475.819852 L338.634389,475.819852 C339.5548,475.819852 339.816731,476.037846 339.996222,476.318422 C340.237282,476.617773 340.358334,476.980749 340.557652,477.580493 Z M347.969068,476.869293 L349.385516,480.527168 L346.573105,480.527168 L347.969068,476.869293 Z M349.347621,484.302836 L353.476109,484.302836 L353.476109,483.737012 C352.492892,483.616065 352.27474,483.537186 351.823075,482.363468 L348.696239,474.629133 L348.107333,474.706961 L345.095206,482.040591 C344.5063,483.494065 344.269714,483.616065 343.266013,483.737012 L343.266013,484.302836 L346.94386,484.302836 L346.94386,483.737012 L346.473759,483.679168 C345.766047,483.576099 345.589887,483.415186 345.822377,482.645329 L346.27814,481.332785 L349.680481,481.332785 L350.250952,482.727363 C350.544892,483.455152 350.407652,483.616065 349.779827,483.698099 L349.347621,483.737012 L349.347621,484.302836 Z M369.621097,475.617795 L369.621097,475.055308 L366.373954,475.055308 L363.168805,481.836578 L360.06339,475.055308 L356.79525,475.055308 L356.79525,475.617795 C358.226177,475.7393 358.367905,475.96241 358.329061,476.886272 C358.226177,479.50388 358.026708,482.138247 357.905977,482.881945 C357.803093,483.527182 357.481843,483.766004 356.454053,483.867607 L356.454053,484.431142 L360.404587,484.431142 L360.404587,483.867607 C359.216172,483.747149 358.932716,483.566986 358.913819,482.842142 C358.873926,482.016742 358.995707,479.441032 359.074444,476.525945 C360.184121,479.100607 361.9174,483.202469 362.381428,484.431142 L362.94624,484.431142 C363.409217,483.265317 365.283175,479.081752 366.494686,476.482999 L366.475789,482.278607 C366.455842,483.66859 366.315164,483.747149 364.981872,483.867607 L364.981872,484.431142 L369.642094,484.431142 L369.642094,483.867607 C368.248962,483.747149 368.127181,483.66859 368.06839,482.278607 L368.00645,477.229839 C367.985453,475.840904 368.108284,475.720446 369.621097,475.617795 Z M373.47088,484.431142 L378.150508,484.431142 L378.150508,483.867607 C376.796525,483.747149 376.633022,483.648688 376.633022,482.238804 L376.633022,477.269643 C376.633022,475.821003 376.77729,475.720446 378.150508,475.617795 L378.150508,475.055308 L373.47088,475.055308 L373.47088,475.617795 C374.824862,475.720446 374.968062,475.821003 374.968062,477.269643 L374.968062,482.238804 C374.968062,483.667542 374.804558,483.747149 373.47088,483.867607 L373.47088,484.431142 Z M390.487707,481.696218 L389.856746,481.554811 C389.611372,482.138247 389.222598,482.803386 388.916678,483.143811 C388.591637,483.527182 388.245352,483.687444 387.142764,483.687444 C386.448069,483.687444 386.040175,483.66859 385.753375,483.566986 C385.408152,483.425578 385.264752,483.085153 385.264752,482.298509 L385.264752,477.229839 C385.264752,475.802148 385.427272,475.759202 386.835781,475.617795 L386.835781,475.055308 L382.101449,475.055308 L382.101449,475.617795 C383.407985,475.7393 383.614056,475.802148 383.614056,477.229839 L383.614056,482.219949 C383.614056,483.66859 383.448349,483.727247 381.979294,483.888557 L381.979294,484.431142 L389.754772,484.431142 C389.876928,484.028917 390.365551,482.298509 390.487707,481.696218 Z M393.891072,484.431142 L398.5707,484.431142 L398.5707,483.867607 C397.216717,483.747149 397.053214,483.648688 397.053214,482.238804 L397.053214,477.269643 C397.053214,475.821003 397.197482,475.720446 398.5707,475.617795 L398.5707,475.055308 L393.891072,475.055308 L393.891072,475.617795 C395.245054,475.720446 395.388254,475.821003 395.388254,477.269643 L395.388254,482.238804 C395.388254,483.667542 395.22475,483.747149 393.891072,483.867607 L393.891072,484.431142 Z M410.907899,481.847834 L410.357451,481.726855 C410.024931,482.428739 409.769147,482.887623 409.531779,483.148353 C409.138894,483.589507 408.805351,483.69067 407.586794,483.69067 C406.978027,483.69067 406.684386,483.670855 406.427579,483.628095 C405.857691,483.549876 405.720591,483.12958 405.720591,482.26813 L405.720591,479.964324 L407.154007,479.964324 C408.313222,479.964324 408.354147,480.124933 408.569006,481.205396 L409.15731,481.205396 L409.15731,477.938976 L408.569006,477.938976 C408.393026,479.022568 408.293782,479.220723 407.154007,479.220723 L405.720591,479.220723 L405.720591,476.399629 C405.720591,475.838539 405.75947,475.838539 406.290478,475.838539 L407.823139,475.838539 C408.510687,475.838539 408.767495,475.959518 409.042719,476.35687 C409.218699,476.617599 409.337383,477.019123 409.513362,477.51868 L410.082227,477.460277 C409.984006,476.517479 409.925687,475.438059 409.906247,475.055308 C409.531779,475.075123 408.393026,475.094939 407.647159,475.094939 L402.694149,475.094939 L402.694149,475.656029 C403.950562,475.757192 404.126542,475.858355 404.126542,477.319483 L404.126542,482.186782 C404.126542,483.709443 404.030367,483.768889 402.399486,483.889868 L402.399486,484.431142 L410.277646,484.431142 C410.41577,483.991031 410.808655,482.389108 410.907899,481.847834 Z" id="Combined-Shape"></path>
            </g>
        </g>
    </g>
</svg>