<svg width="300" height="300" viewBox="0 0 300 300" fill="none" xmlns="http://www.w3.org/2000/svg">
<path d="M0 7.99999C0 3.58171 3.58172 0 8 0H292C296.418 0 300 3.58172 300 8V292C300 296.418 296.418 300 292 300H7.99999C3.58171 300 0 296.418 0 292V7.99999Z" fill="white"/>
<path d="M125.904 26.0781C140.552 42.3177 158.795 54.1419 175.666 67.7448C179.567 70.8905 183.053 74.5526 186.537 78.1615C189.186 80.9059 192.507 83.9818 194.499 87.2664C197.966 92.9851 203.286 100.352 204.489 107.019C206.031 115.566 206.723 124.488 204.413 132.637C203.531 135.745 199.146 137.774 197.714 140.661C195.815 144.49 194.805 146.675 194.805 151.078" stroke="black" stroke-width="1.5"/>
<path d="M126.225 26.0781C126.225 33.3078 125.152 41.2698 126.93 48.2442C128.641 54.953 131.613 61.6321 135.039 67.6059C137.616 72.0985 141.089 76.3945 142.991 81.2436C144.024 83.878 148.066 90.1505 150.904 91.0781" stroke="black" stroke-width="1.5"/>
<path d="M60.9043 53.0781C60.9043 57.3951 68.5253 61.3496 71.6265 63.1618C77.7648 66.7486 84.1946 70.9922 90.6968 73.8613C108.202 81.5852 127.889 82.7138 145.533 89.641C149.574 91.2276 154.193 91.6452 158.094 93.6052C161.418 95.2757 163.493 97.3222 166.518 99.4938C171.733 103.237 174.855 110.997 175.977 117.198C177.04 123.073 175.326 129.4 175.326 135.171C175.326 137.139 173.451 141.134 174.79 142.984C175.825 144.415 176.504 146.039 177.394 147.603C179.502 151.311 185.223 153.222 187.044 157.34C188.419 160.451 187.733 164.672 187.733 168.078" stroke="black" stroke-width="1.5"/>
<path d="M58.9043 59.0781C58.9043 64.9504 58.9043 70.8227 58.9043 76.695C58.9043 84.188 64.2402 92.1439 68.9222 97.7512C72.7469 102.332 76.0184 107.209 80.4043 111.317C85.0716 115.689 90.0311 119.645 94.9303 123.737C98.7417 126.92 102.501 130.254 106.412 133.291C108.132 134.626 109.577 136.429 111.614 137.15C113.673 137.88 116.088 137.43 118.241 137.494C119.595 137.535 118.081 139.494 117.702 140.246C116.225 143.176 115.7 142.997 112.308 142.997C111.269 142.997 106.968 142.863 107.491 144.679C108.107 146.816 113.616 149.663 115.428 150.908C119.637 153.797 123.193 158.538 127.566 160.882C132.168 163.349 136.751 165.781 141.437 168.104C146.989 170.858 152.827 173.488 158.775 175.174C161.957 176.075 164.468 177.207 167.791 177.39C170.181 177.522 172.55 178.078 175.074 178.078C177.781 178.078 178.383 176.574 180.584 175.327C183.94 173.424 186.316 169.535 187.904 166.384" stroke="black" stroke-width="1.5"/>
<path d="M28.852 152.992C27.4669 152.932 27.716 152.538 28.852 152.992Z" fill="#D9D9D9"/>
<path d="M187.468 152.978C196.771 152.978 205.768 152.032 212.733 145.062C215.834 141.959 219.24 139.107 222.179 135.84C223.51 134.359 226.153 130.961 228.245 130.845C235.475 130.443 240.803 129.271 245.908 135.84C246.772 136.952 248.648 141.523 249.671 142.065C251.58 143.077 253.733 143.933 255.507 145.062C256.08 145.427 260.227 148.331 259.884 148.674C259.197 149.362 255.823 148.828 254.854 148.828C253.073 148.828 251.257 149.52 249.325 149.52C248.163 149.52 245.908 148.828 245.908 148.828C245.908 148.828 242.484 153.028 240.686 155.053C235.023 161.428 232.73 170.304 230.972 178.224C230.193 181.731 227.479 183.443 225.481 186.331C222.301 190.928 216.815 195.427 212.196 198.628C197.162 209.044 179.188 211.078 161.205 211.078C155.123 211.078 149.687 211.162 143.888 209.348C139.292 207.911 133.251 206.618 129.758 203.123C126.523 199.886 123.009 197.061 119.737 193.786C114.24 188.285 110.805 181.664 107.834 174.573C106.335 170.996 106.18 165.428 101.767 165.428C98.5546 165.428 95.3421 165.428 92.1296 165.428C84.975 165.428 77.8204 165.428 70.6659 165.428C62.8846 165.428 55.2856 166.12 47.5128 166.12C45.7642 166.12 43.6691 162.85 42.3292 161.816C39.7411 159.818 36.9268 158.034 34.3811 156.052C32.8886 154.89 31.1944 154.242 29.5432 153.324C27.5709 152.227 27.0319 153.146 29.8887 152.978C33.3202 152.776 32.6533 147.853 32.6533 145.37C32.6533 142.063 29.8712 137.793 31.6166 134.649C34.1591 130.069 38.9293 128.078 44.0571 128.078C48.6288 128.078 52.3022 129.676 56.8431 130.845C67.4029 133.562 77.8914 137.165 88.6355 138.991C96.0569 140.252 103.952 143.295 111.443 143.295" stroke="black" stroke-width="1.5"/>
<path d="M236.776 136.814C236.252 137.244 235.402 137.157 235.67 136.491C235.692 136.436 235.719 136.384 235.75 136.336C236.029 135.908 236.639 135.77 237.14 135.813C237.761 135.867 238.213 136.201 237.644 136.606C237.39 136.786 237.077 136.84 236.776 136.814Z" fill="#D9D9D9"/>
<path d="M234.904 136.72C234.904 136.21 236.559 134.265 237.039 135.46C237.711 137.133 235.238 137.565 235.67 136.491C236.138 135.325 238.722 135.839 237.644 136.606C236.511 137.411 234.184 135.689 237.08 135.689" stroke="black" stroke-width="1.5"/>
<path d="M237.904 143.078C238.312 144.778 241.282 146.004 242.638 147.134C243.922 148.204 245.234 148.614 246.904 149.078" stroke="black" stroke-width="1.5"/>
<path d="M137.494 238.723C143.554 238.447 149.647 235.887 155.329 234.002C161.852 231.838 168.014 230.145 174.832 229.281C177.09 228.995 179.341 228.674 181.603 228.423C181.915 228.388 183.462 227.859 183.749 228.089C184.098 228.368 184.422 231.828 184.488 232.142C185.721 238.03 188.565 244.051 188.565 250.096C188.565 253.307 187.235 252.374 184.083 252.885C173.533 254.596 163.044 256.232 152.563 258.369C148.185 259.262 143.886 260.379 139.545 261.421C137.816 261.836 135.89 262.023 134.252 262.756C131.85 263.83 133.632 260.89 133.632 259.299C133.632 253.989 133.342 248.823 134.681 243.658C134.986 242.48 135.436 241.313 135.754 240.201C136.022 239.264 136.763 238.771 137.065 237.864" stroke="black" stroke-width="1.5"/>
<path d="M136.207 237.865C141.609 240.424 146.868 242.214 152.682 243.635C154.485 244.076 157.146 245.161 158.953 245.161C160.172 245.161 160.935 244.459 161.909 243.754C167.792 239.499 173.848 235.469 179.815 231.332C182.556 229.432 185.673 226.436 188.565 224.99" stroke="black" stroke-width="1.5"/>
<path d="M152.515 243.445C148.317 247.223 144.001 250.99 139.735 254.723C137.797 256.418 135.849 258.047 134.156 259.992C133.573 260.662 133.163 261.197 132.344 261.47" stroke="black" stroke-width="1.5"/>
<path d="M166.248 240.439C168.529 240.647 171.154 242.246 173.139 243.277C176.569 245.058 179.932 246.819 183.415 248.498C184.915 249.222 186.848 249.713 186.848 251.598" stroke="black" stroke-width="1.5"/>
<path d="M161.114 211.078C161.265 215.689 163.371 221.357 165.728 225.249C166.394 226.35 164.986 226.785 164.652 227.698C164.06 229.317 162.981 231.42 162.099 232.877C161.432 233.979 160.334 234.722 159.904 236.078" stroke="black" stroke-width="1.5"/>
<path d="M156.904 235.078H160.904" stroke="black" stroke-width="1.5"/>
<path d="M166.841 236.078C166.841 233.399 166.841 230.719 166.841 228.04C166.841 227.645 167.099 226.079 166.572 225.948C165.644 225.716 165.37 225.892 164.904 225.078" stroke="black" stroke-width="1.5"/>
<path d="M167.904 235.078C166.935 235.078 165.322 236.242 164.904 237.078" stroke="black" stroke-width="1.5"/>
<path d="M166.904 225.078C168.523 226.562 171.904 227.621 171.904 230.078" stroke="black" stroke-width="1.5"/>
<path d="M145.904 210.078C145.773 211.198 144.274 212.109 143.662 213.016C143.014 213.979 142.595 215.339 141.581 216.084C140.899 216.585 138.821 216.463 137.989 216.603C136.006 216.936 133.922 217.078 131.904 217.078" stroke="black" stroke-width="1.5"/>
<path d="M138.904 217.078C138.711 218.758 135.712 219.498 134.46 220.102C131.991 221.292 129.543 222.351 126.904 223.078" stroke="black" stroke-width="1.5"/>
<path d="M140.904 217.078C140.904 219.926 136.844 223.173 134.904 225.078" stroke="black" stroke-width="1.5"/>
</svg>
