<?xml version="1.0" encoding="UTF-8"?>
<svg width="748px" height="569px" viewBox="0 0 748 569" version="1.1" xmlns="http://www.w3.org/2000/svg" xmlns:xlink="http://www.w3.org/1999/xlink">
    <!-- Generator: Sketch 56.3 (81716) - https://sketch.com -->
    <title>Group 3</title>
    <desc>Created with Sketch.</desc>
    <defs>
        <polygon id="path-1" points="0.0011 0 747.492 0 747.492 568.967 0.0011 568.967"></polygon>
    </defs>
    <g id="Page-1" stroke="none" stroke-width="1" fill="none" fill-rule="evenodd">
        <g id="Group-3">
            <mask id="mask-2" fill="white">
                <use xlink:href="#path-1"></use>
            </mask>
            <g id="Clip-2"></g>
            <path d="M585.7261,364.9332 L579.9611,370.6982 L587.5321,378.2682 L593.2961,372.5032 C595.3861,370.4122 595.3861,367.0232 593.2961,364.9332 C591.2051,362.8422 587.8171,362.8422 585.7261,364.9332 L585.7261,364.9332 Z M439.9621,373.4832 L440.8021,373.4832 L441.1081,372.4942 L442.4391,372.4942 L442.7451,373.4832 L443.5841,373.4832 L442.1641,369.2862 L441.3831,369.2862 L439.9621,373.4832 Z M444.1081,373.4832 L445.6731,373.4832 C446.1051,373.4832 446.4441,373.3742 446.6901,373.1592 C446.9361,372.9432 447.0591,372.6292 447.0591,372.2172 C447.0591,371.9502 447.0031,371.7322 446.8941,371.5642 C446.7841,371.3962 446.6291,371.2722 446.4291,371.1922 C446.5611,371.1242 446.6631,371.0212 446.7351,370.8832 C446.8071,370.7452 446.8431,370.5902 446.8431,370.4182 C446.8431,370.2272 446.8141,370.0602 446.7551,369.9172 C446.6981,369.7762 446.6161,369.6582 446.5101,369.5642 C446.4041,369.4702 446.2781,369.4002 446.1321,369.3542 C445.9861,369.3082 445.8241,369.2862 445.6431,369.2862 L444.1081,369.2862 L444.1081,373.4832 Z M447.6421,371.3842 C447.6421,371.7362 447.6961,372.0452 447.8041,372.3142 C447.9121,372.5812 448.0581,372.8052 448.2421,372.9852 C448.4251,373.1652 448.6361,373.3012 448.8741,373.3932 C449.1121,373.4852 449.3631,373.5312 449.6271,373.5312 C450.0861,373.5312 450.4661,373.4202 450.7661,373.1982 C451.0661,372.9762 451.2661,372.6632 451.3661,372.2592 L450.6641,372.0792 C450.5841,372.2912 450.4641,372.4662 450.3041,372.6042 C450.1451,372.7432 449.9181,372.8112 449.6271,372.8112 C449.4631,372.8112 449.3091,372.7832 449.1651,372.7242 C449.0211,372.6662 448.8951,372.5792 448.7881,372.4602 C448.6791,372.3422 448.5931,372.1952 448.5301,372.0172 C448.4651,371.8382 448.4341,371.6272 448.4341,371.3842 C448.4341,371.1402 448.4651,370.9292 448.5301,370.7512 C448.5931,370.5742 448.6791,370.4252 448.7881,370.3082 C448.8951,370.1902 449.0211,370.1022 449.1651,370.0432 C449.3091,369.9862 449.4631,369.9562 449.6271,369.9562 C449.9181,369.9562 450.1451,370.0262 450.3041,370.1632 C450.4641,370.3012 450.5841,370.4772 450.6641,370.6882 L451.3661,370.5082 C451.2661,370.1052 451.0661,369.7912 450.7661,369.5702 C450.4661,369.3482 450.0861,369.2372 449.6271,369.2372 C449.3631,369.2372 449.1121,369.2842 448.8741,369.3752 C448.6361,369.4672 448.4251,369.6032 448.2421,369.7832 C448.0581,369.9622 447.9121,370.1872 447.8041,370.4542 C447.6961,370.7222 447.6421,371.0332 447.6421,371.3842 L447.6421,371.3842 Z M438.7471,375.4832 L452.7471,375.4832 L452.7471,367.4832 L438.7471,367.4832 L438.7471,375.4832 Z M508.7471,192.9832 C508.7471,193.8112 509.4171,194.4832 510.2471,194.4832 C511.0751,194.4832 511.7471,193.8112 511.7471,192.9832 C511.7471,192.1552 511.0751,191.4832 510.2471,191.4832 C509.4171,191.4832 508.7471,192.1552 508.7471,192.9832 L508.7471,192.9832 Z M511.3441,197.8102 C510.9741,197.4812 510.4051,197.5132 510.0741,197.8852 C509.7441,198.2572 509.7771,198.8262 510.1491,199.1562 C511.0741,199.9782 512.4101,200.3882 513.7471,200.3882 C515.0831,200.3882 516.4191,199.9782 517.3441,199.1562 C517.7161,198.8262 517.7491,198.2572 517.4191,197.8852 C517.0891,197.5132 516.5191,197.4812 516.1491,197.8102 C514.9811,198.8482 512.5121,198.8482 511.3441,197.8102 L511.3441,197.8102 Z M515.7471,192.9832 C515.7471,193.8112 516.4171,194.4832 517.2471,194.4832 C518.0751,194.4832 518.7471,193.8112 518.7471,192.9832 C518.7471,192.1552 518.0751,191.4832 517.2471,191.4832 C516.4171,191.4832 515.7471,192.1552 515.7471,192.9832 L515.7471,192.9832 Z M504.7471,194.5522 C504.7471,190.9052 506.5661,190.0462 509.7251,189.4732 C510.8361,189.2712 512.2391,188.4752 513.7471,185.4832 C515.2541,188.4752 516.8421,189.3502 517.7671,189.4732 C521.2881,189.9412 522.7471,190.6472 522.7471,194.5522 C522.7471,199.4852 518.7171,203.4832 513.7471,203.4832 C508.7761,203.4832 504.7471,199.4852 504.7471,194.5522 L504.7471,194.5522 Z M583.7471,193.4832 C585.4031,193.4832 586.7471,192.1402 586.7471,190.4832 C586.7471,188.8262 585.4031,187.4832 583.7471,187.4832 C582.0891,187.4832 580.7471,188.8262 580.7471,190.4832 C580.7471,192.1402 582.0891,193.4832 583.7471,193.4832 L583.7471,193.4832 Z M508.7471,252.9832 C508.7471,253.8112 509.4171,254.4832 510.2471,254.4832 C511.0751,254.4832 511.7471,253.8112 511.7471,252.9832 C511.7471,252.1552 511.0751,251.4832 510.2471,251.4832 C509.4171,251.4832 508.7471,252.1552 508.7471,252.9832 L508.7471,252.9832 Z M515.7471,252.9832 C515.7471,253.8112 516.4171,254.4832 517.2471,254.4832 C518.0751,254.4832 518.7471,253.8112 518.7471,252.9832 C518.7471,252.1552 518.0751,251.4832 517.2471,251.4832 C516.4171,251.4832 515.7471,252.1552 515.7471,252.9832 L515.7471,252.9832 Z M508.5291,258.5322 L506.7471,257.0952 L506.7471,250.4832 L506.7471,250.0802 C506.7471,248.9832 507.4651,247.0102 509.6991,246.6062 C510.8051,246.4052 516.7791,246.4832 517.6991,246.6062 C519.8121,246.8862 520.7471,249.1792 520.7471,250.0802 L520.7471,250.4832 L520.7471,257.0952 L518.9631,258.5322 C516.1571,256.0542 511.3351,256.0542 508.5291,258.5322 L508.5291,258.5322 Z M516.3441,259.6782 C514.5961,260.5522 512.8971,260.5522 511.1491,259.6782 C510.7051,259.4562 510.1631,259.6372 509.9421,260.0802 C509.7191,260.5252 509.9001,261.0662 510.3441,261.2882 C511.4731,261.8532 512.6101,262.1352 513.7471,262.1352 C514.8831,262.1352 516.0201,261.8532 517.1491,261.2882 C517.5931,261.0662 517.7741,260.5252 517.5511,260.0802 C517.3301,259.6362 516.7881,259.4552 516.3441,259.6782 L516.3441,259.6782 Z M597.7471,248.2602 L583.7471,240.4832 L569.7471,248.2602 L569.7471,250.2332 C569.7471,250.3712 569.8581,250.4832 569.9971,250.4832 L597.4971,250.4832 C597.6341,250.4832 597.7471,250.3712 597.7471,250.2332 L597.7471,248.2602 Z M570.1431,310.6172 C570.0541,310.6352 569.9721,310.6782 569.9061,310.7402 C569.7041,310.9272 569.6921,311.2442 569.8791,311.4472 L575.9961,318.0342 L575.0551,326.9702 C575.0451,327.0612 575.0611,327.1532 575.1001,327.2362 C575.2171,327.4862 575.5161,327.5932 575.7651,327.4752 L583.7471,323.7192 L591.7271,327.4752 C591.8091,327.5142 591.9011,327.5302 591.9931,327.5202 C592.2671,327.4912 592.4661,327.2452 592.4371,326.9702 L591.4971,318.0342 L597.6131,311.4472 C597.6741,311.3802 597.7171,311.2982 597.7351,311.2092 C597.7921,310.9392 597.6201,310.6742 597.3491,310.6172 L588.3971,308.7322 L584.1821,301.2382 C584.1371,301.1582 584.0711,301.0922 583.9911,301.0472 C583.7501,300.9122 583.4461,300.9972 583.3101,301.2382 L579.0961,308.7322 L570.1431,310.6172 Z M589.7471,263.4832 L593.7471,263.4832 L593.7471,251.4832 L589.7471,251.4832 L589.7471,263.4832 Z M581.7471,263.4832 L585.7471,263.4832 L585.7471,251.4832 L581.7471,251.4832 L581.7471,263.4832 Z M573.7471,263.4832 L577.7471,263.4832 L577.7471,251.4832 L573.7471,251.4832 L573.7471,263.4832 Z M571.7471,268.4832 L595.7471,268.4832 L595.7471,264.4832 L571.7471,264.4832 L571.7471,268.4832 Z M595.3341,362.8952 C592.1181,359.6792 586.9041,359.6792 583.6881,362.8952 L572.1591,374.4242 C568.9421,377.6402 568.9421,382.8552 572.1591,386.0712 C575.3741,389.2872 580.5881,389.2872 583.8041,386.0712 L595.3341,374.5412 C598.5501,371.3252 598.5501,366.1112 595.3341,362.8952 L595.3341,362.8952 Z M525.4711,303.8482 C524.0021,302.3232 522.0491,301.4832 519.9711,301.4832 C517.8931,301.4832 515.9401,302.3232 514.4701,303.8482 L513.7471,304.5992 L513.0221,303.8482 C511.5531,302.3232 509.5991,301.4832 507.5221,301.4832 C505.4441,301.4832 503.4901,302.3232 502.0211,303.8482 C498.9881,306.9972 498.9881,312.1212 502.0211,315.2702 L513.3211,327.2882 C513.5411,327.5232 513.9111,327.5352 514.1461,327.3142 L514.1711,327.2882 L525.4711,315.2702 C528.5041,312.1212 528.5041,306.9972 525.4711,303.8482 L525.4711,303.8482 Z M526.1561,365.2812 L524.4191,363.4832 L519.7471,367.9962 L521.4831,369.7942 L526.1561,365.2812 Z M525.7821,374.8012 L524.8461,372.4832 L519.7471,374.5432 L520.6831,376.8612 L525.7821,374.8012 Z M525.7471,378.9832 C525.7471,378.1552 525.0751,377.4832 524.2471,377.4832 C523.4171,377.4832 522.7471,378.1552 522.7471,378.9832 C522.7471,379.8112 523.4171,380.4832 524.2471,380.4832 C525.0751,380.4832 525.7471,379.8112 525.7471,378.9832 L525.7471,378.9832 Z M517.1101,366.9702 L519.0631,361.2962 L516.7001,360.4832 L514.7471,366.1562 L517.1101,366.9702 Z M514.7471,371.9832 C514.7471,372.8112 515.4171,373.4832 516.2471,373.4832 C517.0751,373.4832 517.7471,372.8112 517.7471,371.9832 C517.7471,371.1552 517.0751,370.4832 516.2471,370.4832 C515.4171,370.4832 514.7471,371.1552 514.7471,371.9832 L514.7471,371.9832 Z M510.7471,366.4832 C511.8511,366.4832 512.7471,365.5872 512.7471,364.4832 C512.7471,363.3782 511.8511,362.4832 510.7471,362.4832 C509.6411,362.4832 508.7471,363.3782 508.7471,364.4832 C508.7471,365.5872 509.6411,366.4832 510.7471,366.4832 L510.7471,366.4832 Z M521.1371,381.6422 L506.3561,366.8612 C506.2931,366.7992 506.2171,366.7542 506.1331,366.7322 C505.8671,366.6602 505.5921,366.8162 505.5201,367.0822 L499.7471,388.2512 L520.9141,382.4782 C520.9981,382.4552 521.0761,382.4112 521.1371,382.3492 C521.3321,382.1542 521.3321,381.8372 521.1371,381.6422 L521.1371,381.6422 Z M458.7321,310.2752 C458.7741,310.1432 458.7031,310.0022 458.5711,309.9592 L444.7451,305.4832 L430.9191,309.9592 C430.8461,309.9842 430.7881,310.0392 430.7611,310.1122 C430.7141,310.2422 430.7811,310.3852 430.9111,310.4322 L444.7451,315.4832 L448.6301,314.0652 L441.7471,311.4832 L444.7471,310.4832 L451.5021,313.0162 L458.5801,310.4322 C458.6521,310.4062 458.7081,310.3482 458.7321,310.2752 L458.7321,310.2752 Z M449.7471,319.9832 L449.7471,316.0382 L444.7471,317.9832 L435.7471,314.4832 L435.7471,321.4832 L444.7471,325.4832 L453.7471,321.4832 L453.7471,314.4832 L452.2471,315.0662 L452.2471,318.9832 L449.7471,319.9832 Z M456.7471,361.4832 C456.7471,360.9302 456.2981,360.4832 455.7471,360.4832 L453.7471,360.4832 L453.7471,365.4832 L452.2471,363.4832 L450.7471,365.4832 L450.7471,360.4832 L434.7471,360.4832 L434.7471,388.4832 L455.7471,388.4832 C456.2981,388.4832 456.7471,388.0352 456.7471,387.4832 L456.7471,361.4832 Z M451.2471,206.4832 C452.6271,206.4832 453.7471,205.3642 453.7471,203.9832 C453.7471,202.6022 452.6271,201.4832 451.2471,201.4832 C449.8661,201.4832 448.7471,202.6022 448.7471,203.9832 C448.7471,205.3642 449.8661,206.4832 451.2471,206.4832 L451.2471,206.4832 Z M439.2471,206.4832 C440.6271,206.4832 441.7471,205.3642 441.7471,203.9832 C441.7471,202.6022 440.6271,201.4832 439.2471,201.4832 C437.8661,201.4832 436.7471,202.6022 436.7471,203.9832 C436.7471,205.3642 437.8661,206.4832 439.2471,206.4832 L439.2471,206.4832 Z M438.2471,261.9832 C438.2471,265.5672 441.1631,268.4832 444.7471,268.4832 C448.3301,268.4832 451.2471,265.5672 451.2471,261.9832 L451.2471,245.2332 C451.2471,242.6142 449.1161,240.4832 446.4971,240.4832 C443.8771,240.4832 441.7471,242.6142 441.7471,245.2332 L441.7471,260.1652 C441.7471,261.8202 443.0921,263.1652 444.7471,263.1652 C446.4011,263.1652 447.7471,261.8202 447.7471,260.1652 L447.7471,250.1652 C447.7471,249.6142 447.2991,249.1652 446.7471,249.1652 C446.1941,249.1652 445.7471,249.6142 445.7471,250.1652 L445.7471,260.1652 C445.7471,260.7172 445.2981,261.1652 444.7471,261.1652 C444.1951,261.1652 443.7471,260.7172 443.7471,260.1652 L443.7471,245.2332 C443.7471,243.7162 444.9801,242.4832 446.4971,242.4832 C448.0131,242.4832 449.2471,243.7162 449.2471,245.2332 L449.2471,261.9832 C449.2471,264.4642 447.2281,266.4832 444.7471,266.4832 C442.2651,266.4832 440.2471,264.4642 440.2471,261.9832 L440.2471,247.1652 C440.2471,246.6142 439.7991,246.1652 439.2471,246.1652 C438.6941,246.1652 438.2471,246.6142 438.2471,247.1652 L438.2471,261.9832 Z M430.0961,184.4832 L432.7471,184.4832 L437.7411,195.4692 L435.1591,198.6572 C434.8191,199.0772 434.7501,199.6542 434.9831,200.1412 C435.2151,200.6282 435.7061,200.9382 436.2471,200.9382 L453.7471,200.9382 C454.5201,200.9382 455.1471,200.3122 455.1471,199.5382 C455.1471,198.7652 454.5201,198.1382 453.7471,198.1382 L439.1821,198.1382 L441.3321,195.4832 L452.2951,195.4832 C452.5701,195.4832 452.8191,195.3232 452.9331,195.0732 L457.5171,184.9882 C457.5381,184.9412 457.5491,184.8912 457.5491,184.8392 C457.5491,184.6432 457.3891,184.4832 457.1921,184.4832 L436.6101,184.4832 L435.3391,181.6882 C435.2831,181.5632 435.1581,181.4832 435.0211,181.4832 L431.1461,181.4832 C430.3731,181.4832 429.7471,182.1102 429.7471,182.8832 L429.7471,184.1332 C429.7471,184.3262 429.9031,184.4832 430.0961,184.4832 L430.0961,184.4832 Z M387.7471,187.4832 L384.7471,187.4832 C384.7471,184.1692 382.0601,181.4832 378.7471,181.4832 C376.5061,181.4832 374.5561,182.7132 373.5261,184.5332 C374.1031,184.9192 374.6061,185.3972 375.0681,185.9132 C375.6781,184.4852 377.0941,183.4832 378.7471,183.4832 C380.9551,183.4832 382.7471,185.2742 382.7471,187.4832 L376.1921,187.4832 C376.4521,187.9592 376.6791,188.4562 376.8441,188.9832 L378.9971,188.9832 C379.6871,188.9832 380.2471,189.5422 380.2471,190.2332 L380.2471,203.4832 L387.7471,203.4832 L387.7471,187.4832 Z M387.2911,256.9342 C386.7981,255.3252 385.2541,254.4832 383.9851,254.4832 L382.6621,254.4832 C382.6891,254.1732 382.7201,253.8732 382.7441,253.5542 L382.8211,252.4832 L362.6721,252.4832 L362.7481,253.5542 C363.4661,263.6002 365.9181,268.4832 370.2471,268.4832 L374.2471,268.4832 C376.5231,268.4832 378.3521,267.3982 379.7381,265.2702 L380.5451,264.8862 C382.0061,264.1922 382.9791,263.6762 383.5191,263.3112 C387.6461,260.5152 387.6541,258.1162 387.2911,256.9342 L387.2911,256.9342 Z M384.1801,304.3862 C384.1801,304.2272 384.0511,304.0992 383.8931,304.0992 L371.8101,304.0992 L370.7471,300.4832 L367.8671,301.3252 L368.6821,304.0992 L363.0341,304.0992 C362.9721,304.0992 362.9131,304.1192 362.8631,304.1552 C362.7351,304.2492 362.7081,304.4292 362.8021,304.5572 L371.7261,316.6162 L371.7261,325.9312 L368.5431,326.7322 C368.0321,326.8612 367.6741,327.3212 367.6741,327.8472 L367.6741,328.4092 L379.2521,328.4092 L379.2521,327.8472 C379.2521,327.3212 378.8951,326.8612 378.3831,326.7322 L375.2001,325.9312 L375.2001,316.6162 L384.1231,304.5572 C384.1611,304.5072 384.1801,304.4482 384.1801,304.3862 L384.1801,304.3862 Z M383.7471,360.4832 C380.8731,360.4832 377.2471,373.5162 377.2471,376.2772 C379.7471,376.2772 379.7471,376.6262 379.7471,376.6262 C379.7811,379.9332 379.8151,383.2392 379.8491,386.5442 C379.8611,387.6192 380.7341,388.4832 381.8081,388.4832 C382.8781,388.4832 383.7471,387.6152 383.7471,386.5442 L383.7471,360.4832 Z M373.7471,361.4832 C373.7471,360.9302 373.2981,360.4832 372.7471,360.4832 L371.4091,360.4832 L371.4091,367.2882 C371.4091,367.7032 371.0741,368.0382 370.6591,368.0382 C370.2451,368.0382 369.9091,367.7032 369.9091,367.2882 L369.9091,360.4832 L367.5781,360.4832 L367.5781,367.2882 C367.5781,367.7032 367.2431,368.0382 366.8281,368.0382 C366.4141,368.0382 366.0781,367.7032 366.0781,367.2882 L366.0781,360.4832 L364.7471,360.4832 C364.1941,360.4832 363.7471,360.9302 363.7471,361.4832 L363.7471,368.4832 C363.7471,370.0062 364.7471,371.0062 366.7471,371.4832 L366.7471,386.4832 C366.7471,387.5872 367.6411,388.4832 368.7471,388.4832 C369.8511,388.4832 370.7471,387.5872 370.7471,386.4832 L370.7471,371.4832 C372.7471,370.9042 373.7471,369.9042 373.7471,368.4832 L373.7471,361.4832 Z M368.6241,246.4622 C369.3181,245.1902 369.3341,243.7232 368.6711,242.1042 C368.4631,241.5932 367.8801,241.3492 367.3681,241.5582 C366.8571,241.7672 366.6121,242.3512 366.8211,242.8622 C367.2501,243.9122 367.2661,244.7762 366.8691,245.5042 C366.1741,246.7772 366.1591,248.2432 366.8211,249.8622 C366.9791,250.2482 367.3531,250.4842 367.7471,250.4842 C367.8721,250.4842 368.0011,250.4592 368.1241,250.4092 C368.6361,250.2002 368.8811,249.6162 368.6721,249.1052 C368.2431,248.0552 368.2271,247.1902 368.6241,246.4622 L368.6241,246.4622 Z M373.6241,245.4622 C374.3181,244.1902 374.3341,242.7232 373.6711,241.1042 C373.4631,240.5942 372.8811,240.3492 372.3681,240.5582 C371.8571,240.7672 371.6121,241.3512 371.8211,241.8622 C372.2501,242.9122 372.2661,243.7762 371.8691,244.5042 C371.1741,245.7772 371.1591,247.2432 371.8211,248.8622 C371.9791,249.2482 372.3531,249.4842 372.7471,249.4842 C372.8721,249.4842 373.0011,249.4592 373.1241,249.4092 C373.6361,249.2002 373.8811,248.6162 373.6721,248.1052 C373.2431,247.0552 373.2271,246.1902 373.6241,245.4622 L373.6241,245.4622 Z M378.6241,246.4622 C379.3191,245.1902 379.3351,243.7232 378.6721,242.1042 C378.4611,241.5922 377.8751,241.3502 377.3681,241.5582 C376.8571,241.7672 376.6121,242.3512 376.8211,242.8622 C377.2501,243.9122 377.2661,244.7762 376.8691,245.5042 C376.1741,246.7772 376.1581,248.2432 376.8211,249.8622 C376.9801,250.2492 377.3531,250.4842 377.7471,250.4842 C377.8731,250.4842 378.0011,250.4592 378.1251,250.4092 C378.6361,250.2002 378.8811,249.6162 378.6721,249.1042 C378.2431,248.0552 378.2271,247.1912 378.6241,246.4622 L378.6241,246.4622 Z M359.7471,207.4832 L377.7471,207.4832 L377.7471,191.4832 L374.7471,191.4832 C374.7471,188.1692 372.0601,185.4832 368.7471,185.4832 C365.4321,185.4832 362.7471,188.1692 362.7471,191.4832 L359.7471,191.4832 L359.7471,207.4832 Z M317.7471,196.9812 C317.7451,196.7042 317.5201,196.4822 317.2441,196.4832 C315.6811,196.4902 314.1961,196.5362 312.7471,196.5992 L312.7471,194.3322 C314.1881,193.9342 315.2471,192.7132 315.2471,191.2522 C315.2471,189.4672 313.6791,180.4832 311.7471,180.4832 C309.8131,180.4832 308.2471,189.4672 308.2471,191.2522 C308.2471,192.7132 309.3041,193.9342 310.7471,194.3322 L310.7471,196.7002 C308.2271,196.8612 305.9011,197.1182 303.7471,197.4612 L303.7471,195.2492 C304.6281,194.8222 305.2471,193.8482 305.2471,192.7132 C305.2471,191.1842 304.1271,183.4832 302.7471,183.4832 C301.3661,183.4832 300.2471,191.1842 300.2471,192.7132 C300.2471,193.8482 300.8641,194.8222 301.7471,195.2492 L301.7471,197.8042 C299.1351,198.3172 296.8251,198.9802 294.8131,199.7912 C294.8301,199.7942 294.8491,199.7982 294.8681,199.8012 C300.9961,200.8232 315.4041,201.8842 316.8831,208.4732 C317.3711,208.4072 317.7471,207.9892 317.7471,207.4832 L317.7471,196.9832 L317.7471,196.9812 Z M317.7471,268.4832 C317.7471,265.3662 311.4051,262.6552 305.7791,262.0972 L308.3031,250.1522 C308.0181,250.0472 307.7231,249.9572 307.4171,249.8902 C306.9461,249.7852 306.4811,249.7482 306.0231,249.7422 L303.4331,261.9962 C301.1251,262.0352 298.5621,262.4992 296.2751,263.2562 C297.1411,262.8642 297.7471,261.9962 297.7471,260.9832 C297.7471,259.6022 296.6271,258.4832 295.2471,258.4832 C293.8661,258.4832 292.7471,259.6022 292.7471,260.9832 C292.7471,262.3642 293.8661,263.4832 295.2471,263.4832 C295.4431,263.4832 295.6321,263.4542 295.8161,263.4122 C292.4121,264.6172 289.7471,266.4642 289.7471,268.4832 L317.7471,268.4832 Z M317.6291,311.3322 C317.1741,310.1102 315.6801,309.7192 313.1471,310.1622 L308.2041,311.5732 C308.1091,311.5992 308.0081,311.5912 307.9181,311.5502 L299.8721,307.8562 C298.9451,307.4302 297.8921,307.3672 296.9201,307.6772 L295.7701,308.0452 C295.7331,308.0572 295.6991,308.0792 295.6731,308.1112 C295.6021,308.1992 295.6151,308.3292 295.7031,308.4012 L301.0921,312.8022 C301.1561,312.8542 301.2031,312.9242 301.2261,313.0032 C301.2911,313.2212 301.1671,313.4512 300.9501,313.5152 L296.6271,314.8082 C296.5201,314.8402 296.4031,314.8272 296.3051,314.7712 L293.3591,313.0812 C292.5711,312.6282 291.6291,312.5232 290.7591,312.7882 L289.7471,313.0972 L295.0671,319.5202 C295.2751,319.7712 295.6111,319.8752 295.9241,319.7872 L302.7701,317.8602 L300.5481,322.1862 C300.5251,322.2312 300.5191,322.2832 300.5321,322.3322 C300.5611,322.4422 300.6721,322.5082 300.7831,322.4802 L301.9001,322.1912 C302.9201,321.9272 303.8421,321.3752 304.5571,320.6022 L308.6101,316.2152 L315.0111,314.4132 C317.2111,313.5822 318.0841,312.5562 317.6291,311.3322 L317.6291,311.3322 Z M294.3161,374.3122 C294.2881,374.3202 294.2611,374.3302 294.2361,374.3432 C293.9891,374.4672 293.8881,374.7672 294.0121,375.0142 L297.9161,382.8252 C297.9761,382.9432 298.0431,383.0542 298.1171,383.1622 C299.2131,383.2182 300.1351,383.5462 301.0021,383.8592 C301.8931,384.1802 302.7341,384.4822 303.7441,384.4832 L303.7481,384.4832 C304.7591,384.4822 305.6001,384.1802 306.4901,383.8592 C307.3581,383.5472 308.2801,383.2192 309.3751,383.1622 C309.4491,383.0542 309.5161,382.9432 309.5761,382.8252 L313.4801,375.0142 C313.4931,374.9892 313.5031,374.9622 313.5121,374.9352 C313.5911,374.6702 313.4421,374.3912 313.1761,374.3122 L303.7471,371.4832 L294.3161,374.3122 Z M306.7471,364.4832 L306.7471,361.4832 C306.7471,360.9302 306.2981,360.4832 305.7471,360.4832 L301.7471,360.4832 C301.1941,360.4832 300.7471,360.9302 300.7471,361.4832 L300.7471,364.4832 L306.7471,364.4832 Z M298.7471,365.9832 C298.1941,365.9832 297.7471,366.4302 297.7471,366.9832 L297.7471,371.2832 L303.7471,369.4832 L309.7471,371.2832 L309.7471,366.9832 C309.7471,366.4302 309.2981,365.9832 308.7471,365.9832 L298.7471,365.9832 Z M314.2611,386.6252 C310.5471,384.3982 308.3931,385.1742 306.4901,385.8592 C305.5991,386.1802 304.7571,386.4832 303.7471,386.4832 C302.7351,386.4832 301.8941,386.1802 301.0021,385.8592 C299.1011,385.1742 296.9451,384.3972 293.2321,386.6252 C292.7581,386.9102 292.6051,387.5242 292.8891,387.9972 C293.1721,388.4722 293.7881,388.6252 294.2611,388.3402 C297.1601,386.6012 298.5561,387.1042 300.3251,387.7412 C301.2901,388.0882 302.3861,388.4832 303.7471,388.4832 C305.1071,388.4832 306.2021,388.0882 307.1671,387.7412 C308.9361,387.1052 310.3311,386.6012 313.2321,388.3402 C313.3931,388.4372 313.5701,388.4832 313.7461,388.4832 C314.0851,388.4832 314.4161,388.3102 314.6041,387.9972 C314.8881,387.5242 314.7351,386.9102 314.2611,386.6252 L314.2611,386.6252 Z M247.7661,311.9832 C247.7661,311.7062 247.5421,311.4832 247.2661,311.4832 L236.7661,311.4832 L236.7661,300.9832 C236.7661,300.7062 236.5421,300.4832 236.2661,300.4832 L231.2661,300.4832 C230.9901,300.4832 230.7661,300.7062 230.7661,300.9832 L230.7661,311.4832 L220.2471,311.4832 C219.9701,311.4832 219.7471,311.7062 219.7471,311.9832 L219.7471,316.9202 C219.7471,317.1972 219.9701,317.4202 220.2471,317.4202 L230.7661,317.4202 L230.7661,327.9832 C230.7661,328.2592 230.9901,328.4832 231.2661,328.4832 L236.2661,328.4832 C236.5411,328.4832 236.7661,328.2592 236.7661,327.9832 L236.7661,317.5032 L247.2661,317.5032 C247.5421,317.5032 247.7661,317.2802 247.7661,317.0032 L247.7661,311.9832 Z M247.7471,374.4832 C247.7471,374.3672 247.7321,374.2532 247.7291,374.1382 C247.1561,374.2212 246.5791,374.2762 246.0011,374.2762 C243.3081,374.2762 240.6161,373.3772 238.4161,371.5802 L235.5141,374.4832 L244.4881,383.4562 C246.5201,381.0262 247.7471,377.8992 247.7471,374.4832 L247.7471,374.4832 Z M242.7201,385.2242 L233.7471,376.2502 L230.8441,379.1532 C232.5931,381.2882 233.5451,383.9402 233.5451,386.7382 C233.5451,387.3232 233.4901,387.8972 233.4081,388.4652 C233.5221,388.4682 233.6321,388.4832 233.7471,388.4832 C237.1631,388.4832 240.2891,387.2562 242.7201,385.2242 L242.7201,385.2242 Z M229.0591,380.9382 L224.7731,385.2242 C226.5151,386.6812 228.6151,387.7252 230.9241,388.1982 C231.3091,385.6852 230.6881,383.0452 229.0591,380.9382 L229.0591,380.9382 Z M223.0051,383.4562 L227.2841,379.1782 C225.6391,377.9252 223.6471,377.2382 221.5451,377.2382 C221.0381,377.2382 220.5391,377.2882 220.0461,377.3662 C220.5251,379.6512 221.5611,381.7302 223.0051,383.4562 L223.0051,383.4562 Z M240.2021,369.7952 C242.3091,371.4242 244.9491,372.0452 247.4611,371.6602 C246.9891,369.3512 245.9451,367.2512 244.4871,365.5092 L240.2021,369.7952 Z M242.7191,363.7422 C240.9931,362.2972 238.9141,361.2612 236.6291,360.7832 C236.2361,363.2832 236.8401,365.9122 238.4421,368.0202 L242.7191,363.7422 Z M234.1431,360.5022 C234.0101,360.4992 233.8801,360.4832 233.7471,360.4832 C230.3301,360.4832 227.2041,361.7092 224.7731,363.7422 L233.7471,372.7152 L236.6561,369.8062 C234.4981,367.1302 233.6631,363.7372 234.1431,360.5022 L234.1431,360.5022 Z M219.7661,374.8822 C220.3511,374.7962 220.9431,374.7382 221.5451,374.7382 C224.3171,374.7382 226.9431,375.6752 229.0691,377.3932 L231.9791,374.4832 L223.0051,365.5092 C220.9731,367.9392 219.7471,371.0672 219.7471,374.4832 C219.7471,374.6182 219.7621,374.7482 219.7661,374.8822 L219.7661,374.8822 Z M177.7471,250.9832 L174.6581,250.9832 L172.9651,245.2272 C172.8351,244.7862 172.4301,244.4832 171.9701,244.4832 L155.5221,244.4832 C155.0621,244.4832 154.6571,244.7862 154.5281,245.2272 L152.8341,250.9832 L149.7471,250.9832 L149.7471,251.9462 C149.7471,252.5182 150.2101,252.9832 150.7841,252.9832 L152.2471,252.9832 L150.7471,254.4832 L150.7471,259.6212 C150.7471,261.4562 152.0301,262.9862 153.7471,263.3782 L153.7471,265.5492 C153.7471,266.0652 154.1641,266.4832 154.6791,266.4832 L156.8131,266.4832 C157.3291,266.4832 157.7471,266.0652 157.7471,265.5492 L157.7471,263.4832 L169.7471,263.4832 L169.7471,265.5492 C169.7471,266.0652 170.1641,266.4832 170.6791,266.4832 L172.8131,266.4832 C173.3291,266.4832 173.7471,266.0652 173.7471,265.5492 L173.7471,263.3782 C175.4621,262.9862 176.7471,261.4562 176.7471,259.6212 L176.7471,254.4832 L175.2471,252.9832 L176.7091,252.9832 C177.2821,252.9832 177.7471,252.5182 177.7471,251.9462 L177.7471,250.9832 Z M175.7471,305.4162 C175.7471,304.9012 175.3291,304.4832 174.8131,304.4832 L165.5011,304.4832 L162.8691,303.0472 L166.8881,302.4732 C167.4341,302.3952 167.8141,301.8882 167.7361,301.3412 C167.6591,300.7952 167.1541,300.4172 166.6051,300.4942 L159.6051,301.4942 C159.1781,301.5542 158.8381,301.8812 158.7621,302.3052 C158.6861,302.7292 158.8891,303.1552 159.2671,303.3612 L161.3241,304.4832 L152.6791,304.4832 C152.1641,304.4832 151.7471,304.9012 151.7471,305.4162 L151.7471,324.7492 C151.7471,326.8112 153.4171,328.4832 155.4791,328.4832 L172.0131,328.4832 C174.0751,328.4832 175.7471,326.8112 175.7471,324.7492 L175.7471,305.4162 Z M175.7471,363.4832 L163.7471,360.4832 L151.7471,363.4832 L151.7471,366.4832 L163.7471,363.4832 L175.7471,366.4832 L175.7471,363.4832 Z M173.0801,388.4832 L170.2071,384.1742 C171.6961,383.5622 172.7471,382.1012 172.7471,380.3922 L172.7471,367.3012 C172.7471,366.8492 172.3791,366.4832 171.9281,366.4832 L163.7471,366.4832 L155.5651,366.4832 C155.1131,366.4832 154.7471,366.8492 154.7471,367.3012 L154.7471,380.3922 C154.7471,382.2032 155.9311,383.7212 157.5621,384.2592 L154.7471,388.4832 L158.0801,388.4832 L158.5801,387.4832 L169.2471,387.4832 L169.7471,388.4832 L173.0801,388.4832 Z M151.7471,201.7492 C151.7471,203.5602 153.0361,205.0682 154.7471,205.4092 L154.7471,207.5492 C154.7471,208.0652 155.1641,208.4832 155.6791,208.4832 L157.8131,208.4832 C158.3291,208.4832 158.7471,208.0652 158.7471,207.5492 L158.7471,205.4832 L168.7471,205.4832 L168.7471,207.5492 C168.7471,208.0652 169.1641,208.4832 169.6791,208.4832 L171.8131,208.4832 C172.3291,208.4832 172.7471,208.0652 172.7471,207.5492 L172.7471,205.4092 C174.4561,205.0682 175.7471,203.5602 175.7471,201.7492 L175.7471,181.4162 C175.7471,180.9012 175.3291,180.4832 174.8131,180.4832 L152.6791,180.4832 C152.1641,180.4832 151.7471,180.9012 151.7471,181.4162 L151.7471,201.7492 Z M219.7471,255.4832 L221.7471,255.4832 L221.7471,259.4832 L224.7471,259.4832 L224.7471,262.4832 L228.7471,262.4832 L228.7471,255.4832 L236.7471,255.4832 L236.7471,251.4832 L228.7471,251.4832 L228.7471,244.4832 L224.7471,244.4832 L224.7471,247.4832 L221.7471,247.4832 L221.7471,251.4832 L219.7471,251.4832 L219.7471,255.4832 Z M242.7471,247.4832 L242.7471,244.4832 L238.7471,244.4832 L238.7471,251.4832 L238.7471,255.4832 L238.7471,262.4832 L242.7471,262.4832 L242.7471,259.4832 L245.7471,259.4832 L245.7471,255.4832 L247.7471,255.4832 L247.7471,251.4832 L245.7471,251.4832 L245.7471,247.4832 L242.7471,247.4832 Z M219.7471,207.4982 C219.7471,208.0502 220.1941,208.4982 220.7471,208.4982 L229.4381,208.4982 L229.4381,198.5762 C229.4381,196.9182 230.7821,195.5762 232.4381,195.5762 L235.0541,195.5762 C236.7101,195.5762 238.0541,196.9182 238.0541,198.5762 L238.0541,208.4982 L246.7471,208.4982 C247.2981,208.4982 247.7471,208.0502 247.7471,207.4982 L247.7471,190.6362 C247.7471,190.3112 247.5881,190.0062 247.3231,189.8192 L234.3391,180.6652 C233.9951,180.4222 233.5341,180.4222 233.1881,180.6642 L220.1701,189.8192 C219.9051,190.0062 219.7471,190.3112 219.7471,190.6362 L219.7471,207.4982 Z M297.1351,248.0552 C297.1061,248.1122 297.0971,248.1762 297.1081,248.2382 C297.1361,248.3952 297.2871,248.5002 297.4441,248.4722 C298.7451,248.2382 299.7731,248.2042 300.5291,248.3712 C301.8231,248.6592 302.9381,249.2862 303.7681,250.1162 C305.3481,243.4182 309.1651,241.6642 309.1651,241.6642 C303.9051,240.4982 299.8951,242.6282 297.1351,248.0552 L297.1351,248.0552 Z M317.0681,252.7992 L317.0681,252.7992 C317.1991,252.8912 317.3791,252.8602 317.4711,252.7292 C317.5081,252.6752 317.5271,252.6122 317.5231,252.5472 C317.2051,246.4432 314.4161,242.8082 309.1591,241.6422 C309.1591,241.6422 311.9241,244.8562 310.6521,251.6212 C311.7431,251.2172 313.0131,251.1192 314.3061,251.4062 C315.0611,251.5732 315.9811,252.0382 317.0681,252.7992 L317.0681,252.7992 Z M289.7471,207.4832 C289.7471,208.0352 290.1941,208.4832 290.7471,208.4832 L308.0111,208.4832 C307.0881,204.2212 300.7501,203.3812 293.6841,202.1682 C292.7601,202.0102 291.9761,201.7932 291.3091,201.5402 C290.7521,201.8832 290.2321,202.2452 289.7471,202.6212 L289.7471,207.4832 Z M291.7471,184.9832 C291.7471,186.3642 292.8661,187.4832 294.2471,187.4832 C295.6271,187.4832 296.7471,186.3642 296.7471,184.9832 C296.7471,183.6022 295.6271,182.4832 294.2471,182.4832 C292.8661,182.4832 291.7471,183.6022 291.7471,184.9832 L291.7471,184.9832 Z M507.7921,242.0842 C504.7471,243.9832 504.7471,243.9832 504.7471,250.4832 L504.7471,258.4832 L504.7471,262.1892 C504.7471,263.1002 505.4441,264.6592 506.5831,265.8582 C508.2071,267.5682 510.5921,268.5742 513.7471,268.5742 C516.9001,268.5742 519.2851,267.5682 520.9091,265.8582 C522.0481,264.6592 522.7471,263.1002 522.7471,262.1892 L522.7471,258.4832 L522.7471,250.4832 C522.7471,244.9832 522.2471,243.3792 519.9471,243.4402 C519.9131,243.4102 519.9131,243.4102 519.8771,243.3792 C519.4321,241.7842 516.8231,240.1272 514.4181,240.5492 C511.9811,241.0012 506.9341,240.4892 506.9341,240.4892 C506.8661,241.4222 507.7921,242.0842 507.7921,242.0842 L507.7921,242.0842 Z M500.1521,204.1852 C501.9021,205.7192 504.0291,206.8292 506.5071,207.5402 C507.5081,206.1792 508.8881,205.1092 510.4941,204.4832 C511.5121,204.8802 512.6221,205.0982 513.7841,205.0982 C514.9441,205.0982 516.0541,204.8802 517.0731,204.4832 C518.6771,205.1082 520.0551,206.1782 521.0561,207.5392 C523.5321,206.8272 525.6571,205.7172 527.4051,204.1852 C527.6601,203.9622 527.7841,203.6252 527.7361,203.2902 C526.5371,194.9692 525.2861,189.3672 523.9841,186.4832 C521.9911,182.0662 518.2441,180.4832 513.7791,180.4832 C509.3141,180.4832 505.5671,182.0662 503.5731,186.4832 C502.2721,189.3672 501.0211,194.9692 499.8221,203.2902 C499.7731,203.6252 499.8981,203.9622 500.1521,204.1852 L500.1521,204.1852 Z M573.7471,190.7332 C573.7471,192.7742 574.3341,194.6692 575.3321,196.2752 C575.9261,197.2292 578.4501,201.1292 582.9051,207.9772 C583.2061,208.4402 583.8261,208.5722 584.2891,208.2702 C584.4071,208.1942 584.5071,208.0932 584.5831,207.9752 C589.0991,200.9902 591.6191,197.0992 592.1411,196.3042 C593.1771,194.7272 593.7471,192.7872 593.7471,190.7332 C593.7471,185.0722 589.2691,180.4832 583.7471,180.4832 C578.2231,180.4832 573.7471,185.0722 573.7471,190.7332 L573.7471,190.7332 Z M0.0011,568.9672 L747.4931,568.9672 L747.4931,-0.0008 L0.0011,-0.0008 L0.0011,568.9672 Z M371.9811,307.9292 C370.8771,307.9292 369.9821,308.8252 369.9821,309.9292 C369.9821,311.0342 370.8771,311.9292 371.9811,311.9292 C373.0841,311.9292 373.9791,311.0342 373.9791,309.9292 C373.9791,308.8252 373.0841,307.9292 371.9811,307.9292 L371.9811,307.9292 Z M170.7471,320.4832 C169.6411,320.4832 168.7471,321.3782 168.7471,322.4832 C168.7471,323.5872 169.6411,324.4832 170.7471,324.4832 C171.8511,324.4832 172.7471,323.5872 172.7471,322.4832 C172.7471,321.3782 171.8511,320.4832 170.7471,320.4832 L170.7471,320.4832 Z M171.8131,307.4832 L155.6791,307.4832 C155.1641,307.4832 154.7471,307.9012 154.7471,308.4162 L154.7471,316.5492 C154.7471,317.0652 155.1641,317.4832 155.6791,317.4832 L171.8131,317.4832 C172.3291,317.4832 172.7471,317.0652 172.7471,316.5492 L172.7471,308.4162 C172.7471,307.9012 172.3291,307.4832 171.8131,307.4832 L171.8131,307.4832 Z M156.7471,320.4832 C155.6411,320.4832 154.7471,321.3782 154.7471,322.4832 C154.7471,323.5872 155.6411,324.4832 156.7471,324.4832 C157.8511,324.4832 158.7471,323.5872 158.7471,322.4832 C158.7471,321.3782 157.8511,320.4832 156.7471,320.4832 L156.7471,320.4832 Z M168.6551,377.8742 C167.7511,377.8742 167.0191,378.6142 167.0191,379.5262 C167.0191,380.4392 167.7511,381.1782 168.6551,381.1782 C169.5591,381.1782 170.2911,380.4392 170.2911,379.5262 C170.2911,378.6142 169.5591,377.8742 168.6551,377.8742 L168.6551,377.8742 Z M170.9731,247.2532 C170.8381,246.7962 170.4181,246.4832 169.9431,246.4832 L157.5491,246.4832 C157.0741,246.4832 156.6541,246.7962 156.5201,247.2532 L154.9811,252.4832 L172.5111,252.4832 L170.9731,247.2532 Z M170.7471,255.4832 C169.6411,255.4832 168.7471,256.3782 168.7471,257.4832 C168.7471,258.5872 169.6411,259.4832 170.7471,259.4832 C171.8511,259.4832 172.7471,258.5872 172.7471,257.4832 C172.7471,256.3782 171.8511,255.4832 170.7471,255.4832 L170.7471,255.4832 Z M156.7471,255.4832 C155.6411,255.4832 154.7471,256.3782 154.7471,257.4832 C154.7471,258.5872 155.6411,259.4832 156.7471,259.4832 C157.8511,259.4832 158.7471,258.5872 158.7471,257.4832 C158.7471,256.3782 157.8511,255.4832 156.7471,255.4832 L156.7471,255.4832 Z M160.0801,384.4832 L159.5801,385.4832 L168.2471,385.4832 L167.7471,384.4832 L160.0801,384.4832 Z M368.7471,187.4832 C366.5381,187.4832 364.7471,189.2742 364.7471,191.4832 L372.7471,191.4832 C372.7471,189.2742 370.9551,187.4832 368.7471,187.4832 L368.7471,187.4832 Z M155.6791,184.4832 L171.8131,184.4832 C172.3291,184.4832 172.7471,184.0652 172.7471,183.5492 L172.7471,183.4162 C172.7471,182.9012 172.3291,182.4832 171.8131,182.4832 L155.6791,182.4832 C155.1641,182.4832 154.7471,182.9012 154.7471,183.4162 L154.7471,183.5492 C154.7471,184.0652 155.1641,184.4832 155.6791,184.4832 L155.6791,184.4832 Z M170.7471,198.4832 C169.6411,198.4832 168.7471,199.3782 168.7471,200.4832 C168.7471,201.5872 169.6411,202.4832 170.7471,202.4832 C171.8511,202.4832 172.7471,201.5872 172.7471,200.4832 C172.7471,199.3782 171.8511,198.4832 170.7471,198.4832 L170.7471,198.4832 Z M441.7731,370.3172 L441.3301,371.7742 L442.2171,371.7742 L441.7731,370.3172 Z M445.9641,370.8172 C446.0501,370.7512 446.0931,370.6322 446.0931,370.4602 C446.0931,370.2882 446.0501,370.1692 445.9641,370.1042 C445.8781,370.0372 445.7511,370.0042 445.5831,370.0042 L444.8881,370.0042 L444.8881,370.9162 L445.6011,370.9162 C445.7571,370.9162 445.8781,370.8832 445.9641,370.8172 L445.9641,370.8172 Z M365.5311,259.4832 L379.9051,259.4832 C380.2371,258.0372 380.4921,256.3742 380.6631,254.4832 L364.8301,254.4832 C364.9771,256.1592 365.2021,257.8812 365.5311,259.4832 L365.5311,259.4832 Z M446.2791,372.2002 C446.2791,372.0202 446.2271,371.8802 446.1231,371.7832 C446.0191,371.6852 445.8451,371.6362 445.6011,371.6362 L444.8881,371.6362 L444.8881,372.7632 L445.6011,372.7632 C445.8451,372.7632 446.0191,372.7142 446.1231,372.6172 C446.2271,372.5182 446.2791,372.3792 446.2791,372.2002 L446.2791,372.2002 Z M160.4731,379.5262 C160.4731,378.6142 159.7411,377.8742 158.8371,377.8742 C157.9331,377.8742 157.2011,378.6142 157.2011,379.5262 C157.2011,380.4392 157.9331,381.1782 158.8371,381.1782 C159.7411,381.1782 160.4731,380.4392 160.4731,379.5262 L160.4731,379.5262 Z M383.9851,256.4832 L382.7891,256.4832 L381.5411,262.1542 C381.9801,261.9192 382.2421,261.7602 382.3981,261.6552 C384.6011,260.1632 385.7161,258.6172 385.3791,257.5202 C385.1831,256.8792 384.5021,256.4832 383.9851,256.4832 L383.9851,256.4832 Z M159.2031,376.2222 L168.2031,376.2222 C169.2311,376.2222 169.8951,374.0742 170.1971,369.7782 C170.1981,369.7602 170.1991,369.7432 170.1991,369.7252 C170.1991,369.3032 169.8571,368.9612 169.4351,368.9612 L157.9711,368.9612 C157.9531,368.9612 157.9351,368.9612 157.9171,368.9632 C157.4971,368.9932 157.1791,369.3582 157.2091,369.7782 C157.5101,374.0742 158.1751,376.2222 159.2031,376.2222 L159.2031,376.2222 Z M156.7471,202.4832 C157.8511,202.4832 158.7471,201.5872 158.7471,200.4832 C158.7471,199.3782 157.8511,198.4832 156.7471,198.4832 C155.6411,198.4832 154.7471,199.3782 154.7471,200.4832 C154.7471,201.5872 155.6411,202.4832 156.7471,202.4832 L156.7471,202.4832 Z M154.7471,195.5492 L154.7471,187.4162 C154.7471,186.9012 155.1641,186.4832 155.6791,186.4832 L171.8131,186.4832 C172.3291,186.4832 172.7471,186.9012 172.7471,187.4162 L172.7471,195.5492 C172.7471,196.0652 172.3291,196.4832 171.8131,196.4832 L155.6791,196.4832 C155.1641,196.4832 154.7471,196.0652 154.7471,195.5492 L154.7471,195.5492 Z" id="Fill-1" fill="#FFFFFF" mask="url(#mask-2)"></path>
        </g>
    </g>
</svg>