<svg width="26" height="25" viewBox="0 0 26 25" fill="none" xmlns="http://www.w3.org/2000/svg">
<path d="M12.9453 2.60217C7.42531 2.60217 2.94531 7.08217 2.94531 12.6022C2.94531 18.1222 7.42531 22.6022 12.9453 22.6022C18.4653 22.6022 22.9453 18.1222 22.9453 12.6022C22.9453 7.08217 18.4653 2.60217 12.9453 2.60217ZM12.9453 20.6022C8.52531 20.6022 4.94531 17.0222 4.94531 12.6022C4.94531 8.18217 8.52531 4.60217 12.9453 4.60217C17.3653 4.60217 20.9453 8.18217 20.9453 12.6022C20.9453 17.0222 17.3653 20.6022 12.9453 20.6022Z" fill="black"/>
<path d="M12.7836 14.6598L8.20692 10.0831L6.64844 11.6306L12.7836 17.7658L25.9539 4.59551L24.4064 3.048L12.7836 14.6598Z" fill="black"/>
</svg>
