<svg width="66" height="10" viewBox="0 0 66 10" fill="none" xmlns="http://www.w3.org/2000/svg">
<g clip-path="url(#clip0_242_35793)">
<path d="M1.76021 4.2343C1.86686 3.80414 5.38926 1.37063 5.93881 1.69608C8.46278 3.19082 10.8335 4.81341 13.5339 6.19311C15.5805 7.23872 15.9947 5.8502 17.3301 4.86594C17.8318 4.49612 20.9768 1.66212 21.7118 2.15387C24.1615 3.79289 27.0518 5.21069 29.9482 6.55058C30.0886 6.61553 30.8272 7.12132 30.9608 6.98557C31.6927 6.24164 32.2632 5.57805 33.2438 4.9131C34.1834 4.27602 35.7944 2.22205 37.4088 2.9098C39.868 3.95747 42.6731 4.78757 44.8956 6.03748C45.3731 6.30603 46.233 6.84412 46.8576 6.68228C48.8868 6.15643 50.2734 5.24335 52.1424 4.61976C53.2695 4.24373 53.6865 5.25679 54.3222 5.79042C54.7338 6.13588 55.9638 7.3589 56.7249 7.40572C58.6972 7.52705 60.9359 6.64584 62.5414 6.08637C63.1556 5.87235 63.3135 4.99259 63.753 5.7882C64.0034 6.24145 64.6668 7.06474 65.3149 7.30519" stroke="black" stroke-width="1.5" stroke-linecap="round" stroke-linejoin="round"/>
</g>
<defs>
<clipPath id="clip0_242_35793">
<rect width="66" height="10" fill="white"/>
</clipPath>
</defs>
</svg>
