<?xml version="1.0" encoding="UTF-8"?>
<svg width="746px" height="746px" viewBox="0 0 746 746" version="1.1" xmlns="http://www.w3.org/2000/svg" xmlns:xlink="http://www.w3.org/1999/xlink">
    <!-- Generator: Sketch 62 (91390) - https://sketch.com -->
    <title>Combined Shape</title>
    <desc>Created with Sketch.</desc>
    <g id="Inhalte" stroke="none" stroke-width="1" fill="none" fill-rule="evenodd">
        <g id="Artboard-Copy-19" transform="translate(-127.000000, -127.000000)" fill="#FFFFFF">
            <path d="M873,127 L873,873 L127,873 L127,127 L873,127 Z M688.336235,453.328947 L676.819272,455.279121 C669.824528,456.462868 664.201954,461.403507 662.14521,468.17093 C661.407279,470.598615 661.9791,473.191823 663.675436,475.107889 C665.400967,477.058062 667.963089,477.96393 670.524204,477.528551 L671.987986,477.280767 L668.027519,490.030125 C660.681428,513.713094 643.183495,537.609739 620.652932,537.609739 C614.41122,537.609739 613.73772,531.729123 613.73772,529.200118 C613.73772,526.106324 614.071953,522.877102 614.73438,519.590699 C644.075456,518.794178 654.758849,502.192626 654.758849,491.10252 C654.758849,484.556799 649.388964,477.511497 637.599177,477.511497 C611.787688,477.511497 598.092166,503.62817 595.18675,521.165685 C593.249806,531.955841 584.864772,539.909017 577.582104,542.187229 C574.797496,543.057985 572.490076,542.937604 571.410864,541.863203 C570.226952,540.683468 570.595415,538.475479 571.112873,536.831274 L585.507064,491.129606 L605.057714,487.820129 L608.847037,476.6277 L589.017523,479.984325 L597.403564,453.361049 L573.70721,456.991541 L565.190294,484.018094 L547.001746,487.09684 C554.45894,463.062038 554.758156,462.096023 554.770162,461.896552 L554.770663,460.464535 L530.697793,464.273593 L522.314772,491.277072 L508.968584,493.536224 L505.511482,504.672476 L518.856663,502.413324 L505.063488,546.84096 C502.264785,555.853489 492.319323,561.455222 487.798109,560.060808 C484.34302,558.995435 485.325586,554.010656 486.218554,551.132545 L500.949999,503.682341 L477.51338,507.649901 L463.142343,553.941437 C460.390957,562.806499 450.899529,568.399203 446.620937,567.083036 C443.262493,566.048762 444.281302,560.997774 445.187357,558.079536 L459.918802,510.629332 L437.500991,514.423342 L423.129955,560.710865 C421.117506,567.193386 421.449726,572.484134 424.118561,576.436645 C426.582024,580.084192 430.873703,582.271114 436.528492,582.757655 L436.633192,582.76267 C450.829058,582.76267 460.490623,573.047918 463.846046,569.078353 C466.220916,572.987728 470.662599,575.385317 476.574103,575.894931 L476.677796,575.898943 C493.196183,575.898943 503.308762,565.174997 506.551431,561.106116 C509.279663,565.06565 514.262965,567.594656 520.542931,568.135368 L520.646624,568.140383 C535.859285,568.140383 544.686273,558.262114 547.748738,554.06884 C550.241396,558.281174 555.142146,560.952631 561.547954,561.504377 L561.652653,561.509393 C567.7051,561.509393 582.903666,559.362597 596.403884,540.003315 C599.436147,548.258447 606.287935,552.763709 615.951514,552.763709 C636.86628,552.763709 664.578471,531.064018 677.07196,489.599763 L681.391828,475.688727 L690.919498,474.076624 C692.355092,473.833856 693.785652,474.339456 694.744057,475.429908 C695.701455,476.52036 696.01656,477.997034 695.586688,479.381417 L683.994219,516.70356 C681.883111,523.507097 682.618023,529.82008 686.067071,534.478828 C688.917117,538.331022 693.32155,540.541018 698.149816,540.541018 C701.499199,540.541018 704.208303,540.092598 706.375787,539.443544 C700.429047,544.214646 690.549023,549.497369 677.829019,554.617577 C661.267343,561.283679 641.467025,566.9767 626.148658,569.47561 L496.40563,591.440139 C451.994849,598.95894 422.156449,617.981155 422.156449,638.806076 C422.528938,653.517646 433.217365,659 439.866801,659 C459.11644,659 467.618254,650.877288 479.384887,639.634699 C494.960976,624.751586 516.293534,604.369066 577.254918,591.106081 C700.940465,563.766538 727.013703,542.996791 728.991923,518.345758 C729.074475,517.317503 728.518761,516.375522 727.575457,515.945159 C726.619066,515.509781 725.523746,515.709413 724.785815,516.457782 C723.166997,518.095968 720.51427,520.293925 717.078309,521.453596 C713.777249,522.568124 710.976533,522.42768 709.586242,521.078409 C708.144608,519.679982 708.01172,516.911217 709.203685,513.074071 C709.824836,511.073739 713.905103,497.900037 717.778991,485.395454 C719.441098,480.027462 720.562593,472.640077 716.461185,467.932174 C713.236636,464.230456 707.443925,463.015611 699.234062,464.321745 L690.966815,465.721175 C689.493972,465.968959 688.029183,465.452324 687.045611,464.33278 C686.062038,463.214239 685.736865,461.697438 686.178818,460.276941 L688.336235,453.328947 Z M361.528225,340 C341.66789,340 303.013001,357.596101 303.013001,389.850934 C303.013001,396.449723 305.061028,401.481915 309.099719,404.810934 C312.93411,407.971243 317.848371,409.004595 321.875991,409.234563 C316.240141,411.800368 307.846749,416.332454 299.378884,423.504658 C285.975623,434.856463 270,455.20616 270,487.685941 C270,497.444034 272.715272,506.52126 277.645635,513.244574 C283.745437,521.564612 293.060693,525.962131 304.586007,525.962131 C325.745606,525.962131 349.705016,512.647058 375.812087,486.38446 C378.995336,488.906079 380.607592,492.659887 380.607592,497.561529 C380.607592,504.870308 375.346123,517.117885 360.880102,520.896799 L345.377488,524.54918 C343.202653,525.062341 341.459565,526.707269 340.827545,528.843264 C338.819773,535.638882 333.781725,551.682445 328.996284,558.865695 C327.057954,557.567227 324.256131,556.302903 320.689443,556.302903 C291.877164,556.302903 278.453776,589.735696 278.453776,612.320807 C278.41352,617.20839 279.214616,634.097514 291.237092,646.194457 C299.220878,654.227286 310.315453,658.300439 324.212856,658.300439 C344.508963,658.300439 367.674321,645.679288 386.181045,624.541271 C404.536809,603.572968 415.496525,577.579504 415.496525,555.008452 L415.496315,554.41981 C415.486032,544.520482 414.972834,520.902885 389.361275,518.691512 C393.79045,515.348434 400.784943,507.626917 400.78293,492.19995 C400.748712,491.677751 399.843957,479.746506 388.694031,472.567272 C391.750473,469.088623 394.854217,465.415153 397.946889,461.617159 C413.266339,483.761413 436.76381,487.112526 449.567254,487.112526 C485.179791,487.112526 501.186613,463.995173 501.186613,458.031057 C501.186613,456.907324 500.802167,454.834596 499.362006,454.192893 C498.99165,454.0282 498.01846,453.750028 496.944629,454.71208 C484.945299,465.77768 470.274979,471.62631 454.517745,471.62631 C433.69529,471.62631 419.962937,462.145383 412.558838,442.644259 C428.606923,420.690808 440.153371,401.250942 444.289683,394.24544 L454.825704,392.459921 L441.056114,436.871951 C438.367008,445.545477 440.302319,450.749392 442.39966,453.587343 C444.97303,457.07001 449.276404,458.988087 454.517745,458.988087 C469.606729,458.988087 482.649697,452.733749 493.282333,440.398803 C503.105821,429.003816 508.775889,414.777907 511.800127,404.856125 L518.811729,382.249924 L530.219294,380.316784 C531.672539,380.069743 533.107668,380.567841 534.055698,381.647387 C534.996684,382.718899 535.28854,384.129841 534.858807,385.517686 L523.271096,422.877015 C521.0238,430.124536 521.249234,435.823536 523.93834,439.813338 C526.105123,443.026871 529.864034,444.949969 534.80748,445.376767 L534.912146,445.381788 C548.774326,445.381788 561.472098,433.016715 567.807398,425.645674 C568.363938,424.997947 568.904376,424.349215 569.424686,423.707512 C571.362009,432.384051 577.302799,437.478505 582.499859,437.478505 C593.571286,437.478505 602.793953,425.324321 606.690741,419.2879 C608.566674,430.796365 618.929594,430.796365 622.558679,430.796365 C632.578416,430.796365 647.597958,421.377701 651.222011,409.682449 C651.557143,408.59989 651.122377,407.480175 650.141135,406.894709 C649.153855,406.304223 647.951205,406.455861 647.150109,407.267278 C645.093023,409.351054 642.457257,410.920664 639.316277,411.933931 C636.615094,412.805602 634.074936,412.411944 632.52407,410.882503 C631.215748,409.594077 630.822245,407.704118 631.443195,405.699677 L647.489266,353.945729 L622.959227,358.103237 L622.004152,361.185216 C620.67872,360.213122 618.429412,359.172741 614.867756,359.172741 C586.33425,359.935955 573.147366,389.734444 569.836304,407.287363 C567.270986,415.444716 556.551799,424.604289 549.868284,426.120675 C548.740108,426.376753 547.241576,426.513328 546.498851,425.712958 C546.00672,425.183729 545.366649,423.693453 546.613581,419.673524 C547.234531,417.672096 551.314484,404.483556 555.186112,391.966845 C556.848688,386.592211 557.968813,379.197068 553.869738,374.485225 C550.645227,370.778616 544.855397,369.56149 536.647183,370.871005 L528.382611,372.271905 C526.912258,372.522962 525.44593,372.001767 524.462675,370.882052 C523.479421,369.761332 523.155359,368.242938 523.59717,366.820949 L525.753889,359.866663 L514.239645,361.81788 C505.73253,363.260957 499.383141,370.302611 498.80144,378.941994 C498.692749,380.563824 499.330808,382.126404 500.553586,383.229048 C501.809576,384.360814 503.485235,384.845857 505.15083,384.565677 L509.409923,383.843636 L504.070961,401.052105 C499.813881,414.235624 489.671363,437.206359 469.621825,442.915401 C468.433264,443.200602 466.253397,443.485803 465.019549,442.175284 C463.717265,440.790452 463.67097,437.864129 464.888717,433.934581 L479.019605,388.35865 L493.787546,385.854102 L497.27171,374.617784 L482.503769,377.121327 L491.055165,349.539172 L466.861264,353.639439 L458.309867,381.222598 L436.987231,384.836818 L436.737643,385.469483 C436.065367,387.173659 425.049292,405.050945 408.400386,427.148001 C406.987398,419.239697 406.272852,410.22875 406.272852,400.313997 L406.272852,398.886987 L383.330915,402.773353 L383.330915,403.790637 C383.330915,421.473103 385.937496,436.662067 391.080209,448.95383 C385.404103,455.710283 379.771272,462.016842 374.323618,467.713833 C372.458756,467.494911 370.501304,467.384446 368.494539,467.384446 C348.930086,467.384446 333.755559,476.722772 333.755559,484.7556 C333.755559,487.390697 335.380898,488.903066 338.213919,488.903066 C339.634958,488.903066 340.839622,488.145877 342.36432,487.188847 C345.255713,485.373201 349.555062,482.672829 359.182302,482.424785 C340.230748,499.351065 323.902884,508.011536 310.624418,508.171209 C307.541809,508.182255 302.630568,506.87977 298.711639,503.017505 C294.709179,499.070885 292.679266,493.441177 292.679266,486.285041 C292.679266,451.190248 318.325405,427.908202 339.839258,414.556977 C340.847673,413.930338 341.818851,413.344873 342.742727,412.787526 C348.943169,409.045768 353.423671,406.342384 353.423671,400.872348 C353.423671,399.446343 353.13584,398.504376 352.515896,397.909872 C351.778203,397.200886 350.837218,397.239047 350.217274,397.262144 C350.10657,397.266161 349.995866,397.271183 349.885162,397.271183 C349.360826,397.271183 348.858632,397.480062 348.026337,397.826521 C346.136315,398.614841 342.201283,400.253743 334.695538,400.253743 C333.865257,400.253743 329.525652,400.158341 325.722459,398.278424 C321.651563,396.264945 319.587433,392.918854 319.587433,388.331536 C319.587433,370.236332 341.904395,352.558888 354.8588,352.558888 C361.378271,352.558888 361.378271,354.61555 361.378271,355.49425 C361.378271,357.31793 360.878089,358.249854 360.349728,359.236007 C359.872694,360.123746 359.333262,361.129983 359.333262,362.612225 C359.333262,365.836805 361.363175,367.840242 364.629955,367.840242 C368.583102,367.840242 381.601917,362.701602 381.601917,351.353814 C381.601917,347.359995 378.814183,343.947624 373.955275,341.99239 C370.66736,340.669821 366.486767,340 361.528225,340 Z M372.108509,533.778509 C390.465086,533.778509 392.446646,549.912987 392.446646,556.848827 C392.446646,574.844899 384.265733,595.167963 370.563237,611.214177 C356.399087,627.801014 338.695928,637.313596 321.993188,637.313596 C312.873748,637.313596 306.079826,633.503147 301.801157,625.986563 C297.613804,618.628454 297.28811,610.297422 297.28811,607.92028 C297.28811,585.990388 307.421159,574.861951 312.778374,572.042479 C314.345968,571.216999 315.709622,570.800748 316.815562,570.800748 C317.439556,570.800748 317.981365,570.933146 318.430844,571.199947 C319.448511,571.803762 319.716372,572.932152 319.716372,573.443689 C319.716372,575.266165 319.213119,576.196962 318.679427,577.181921 C318.199509,578.068585 317.655671,579.073605 317.655671,580.555056 C317.655671,583.77473 319.702167,585.776746 322.995637,585.776746 C324.84834,585.776746 329.499376,584.472828 333.559901,581.699495 C345.694804,574.048506 350.982009,559.228979 356.57969,543.539838 C357.564889,540.778541 358.580528,537.929983 359.641825,535.101484 C363.944845,534.23488 368.241777,533.778509 372.108509,533.778509 Z M561.073171,495.302632 L547.234082,539.356918 C544.440026,548.255662 534.832079,553.82013 530.504798,552.463797 C527.144921,551.409761 528.169408,546.392832 529.080731,543.489979 L543.037991,498.365641 L561.073171,495.302632 Z M640.070925,488.307018 C642.779344,488.307018 644.294768,489.706631 644.33608,492.247725 C644.431801,498.018922 636.053638,509.443538 616.349085,510.692982 C622.072232,495.245214 632.275152,488.307018 640.070925,488.307018 Z M618.804217,371.480263 C619.024966,371.480263 619.126309,371.517143 619.143367,371.512159 C619.152398,371.557013 619.155408,371.688584 619.076139,371.921823 L612.66338,392.603348 C612.588125,392.840574 604.936162,416.252193 591.975185,416.252193 C590.036607,416.252193 589.761674,412.175493 589.760671,412.175493 C589.760671,391.191953 607.827974,371.482257 618.721937,371.482257 L618.753043,371.48126 C618.770101,371.48126 618.787159,371.480263 618.804217,371.480263 Z" id="Combined-Shape"></path>
        </g>
    </g>
</svg>