<?xml version="1.0" encoding="UTF-8"?>
<svg width="675px" height="673px" viewBox="0 0 675 673" version="1.1" xmlns="http://www.w3.org/2000/svg" xmlns:xlink="http://www.w3.org/1999/xlink">
    <!-- Generator: Sketch 56.3 (81716) - https://sketch.com -->
    <title>Combined Shape</title>
    <desc>Created with Sketch.</desc>
    <defs>
        <path d="M0.5,0 L674.5,0 L674.5,673 L0.5,673 L0.5,0 Z M236.29718,320.291242 C232.145336,321.418621 228.748373,324.049171 225.35141,326.303928 C224.596529,326.679721 223.841649,328.182893 222.331887,327.431307 C222.331887,327.431307 221.577007,327.8071 221.577007,328.182893 C221.577007,329.686064 220.444685,330.061857 219.312364,330.43765 C218.557484,330.813443 217.425163,331.189236 217.047722,331.940821 C216.292842,333.0682 215.537961,333.819786 214.78308,334.947165 C214.40564,335.322957 214.0282,335.322957 213.650759,335.69875 C213.650759,335.322957 213.650759,334.571372 213.650759,334.195579 C215.160521,330.061857 216.292842,326.303928 216.670282,322.170207 C216.670282,321.418621 216.292842,320.291242 215.537961,319.915449 C214.40564,319.539657 213.273319,319.539657 211.763557,319.539657 C210.631236,319.539657 209.498915,319.915449 208.744035,320.667035 C207.989154,321.042828 201.950108,325.17655 200.062907,326.679721 C199.685466,327.055514 192.136659,333.819786 192.136659,333.819786 C191.004338,334.947165 189.494577,336.450336 188.362256,337.577715 C189.117137,335.322957 189.494577,333.0682 190.249458,330.813443 C190.626898,329.686064 191.381779,326.303928 192.136659,325.928135 C192.136659,325.928135 192.5141,323.673378 192.5141,322.921792 C192.89154,320.667035 192.5141,320.291242 191.004338,319.915449 C190.626898,319.915449 189.494577,319.915449 188.739696,320.291242 C187.984816,320.667035 179.303688,324.424964 178.548807,325.17655 C176.661605,326.303928 174.774403,327.8071 173.264642,328.934478 C172.887202,329.310271 172.509761,330.061857 172.132321,330.43765 C172.509761,330.43765 172.509761,330.813443 172.887202,330.813443 C173.264642,330.813443 173.642082,330.43765 174.019523,330.43765 C175.529284,329.686064 177.039046,328.934478 178.548807,327.8071 C179.303688,327.431307 180.436009,326.679721 181.190889,326.303928 C181.56833,325.928135 182.32321,325.928135 182.700651,325.928135 C183.455531,325.928135 184.210412,326.303928 183.832972,327.431307 C183.455531,328.934478 183.078091,330.061857 182.700651,331.565029 C181.94577,333.443993 175.151844,358.246323 174.774403,359.373702 C174.019523,361.252666 173.642082,363.13163 172.887202,365.010595 C172.887202,365.386388 172.132321,367.641145 171.754881,368.768523 C171.37744,369.520109 171.37744,370.271695 171,371.023281 C171,371.399074 171,371.774867 171,372.150659 C171.37744,372.150659 172.132321,372.150659 172.509761,372.150659 C172.509761,372.150659 175.529284,370.271695 177.039046,369.895902 C178.171367,369.144316 179.681128,368.392731 180.058568,367.265352 C180.436009,366.513766 180.436009,365.386388 180.813449,364.634802 C180.813449,364.259009 183.832972,354.112601 184.965293,351.106258 C184.587852,349.603087 184.587852,348.475708 185.342733,347.724122 C186.097614,346.220951 187.229935,344.341986 187.984816,342.838815 C188.362256,342.087229 188.739696,341.335643 189.494577,340.959851 C190.249458,339.832472 191.004338,339.080886 192.136659,337.953508 C193.646421,336.074543 195.156182,334.195579 197.043384,332.316614 C198.175705,331.189236 199.685466,329.686064 201.195228,328.558686 C202.704989,327.431307 204.592191,325.928135 206.101952,324.800757 C206.856833,324.424964 207.989154,324.424964 208.744035,324.800757 C209.498915,325.17655 208.744035,325.928135 208.744035,326.679721 C208.366594,327.8071 207.989154,329.310271 207.611714,330.43765 C207.234273,334.195579 205.347072,337.577715 204.592191,340.959851 C203.83731,343.590401 202.704989,346.220951 201.572668,348.475708 C201.195228,348.851501 201.195228,349.603087 201.195228,349.97888 C200.440347,351.482051 199.308026,352.985223 199.308026,354.488394 C199.308026,355.991566 198.553145,355.991566 197.420824,355.991566 C198.553145,356.367359 198.553145,357.118944 198.175705,357.87053 C197.798265,358.622116 197.420824,359.749494 197.420824,360.50108 C197.043384,362.380045 195.533623,363.507423 195.911063,365.386388 C195.156182,366.513766 195.156182,367.641145 194.778742,368.768523 C194.401302,369.895902 194.778742,370.271695 195.911063,369.895902 C196.288503,369.895902 196.288503,369.520109 196.665944,369.520109 C198.175705,368.768523 199.685466,367.641145 201.572668,366.889559 C202.327549,366.513766 202.704989,366.137973 203.08243,365.386388 C203.45987,364.259009 203.83731,363.13163 204.214751,362.380045 C204.969631,360.125287 205.724512,358.246323 206.479393,355.991566 C207.611714,352.60943 208.744035,349.227294 210.253796,345.845158 C211.008677,343.966194 212.518438,342.087229 213.650759,340.208265 C214.0282,339.456679 214.78308,339.080886 215.160521,338.3293 C215.915401,337.201922 216.670282,336.074543 217.802603,334.947165 C220.822126,331.189236 224.596529,328.558686 228.370933,325.552343 C228.748373,325.17655 229.125813,324.800757 229.880694,324.800757 C230.635575,324.424964 231.013015,324.800757 231.013015,325.552343 C231.013015,326.679721 231.390456,328.182893 231.013015,329.310271 C229.880694,333.819786 228.748373,338.3293 226.861171,342.463022 C226.106291,344.341986 225.35141,346.596744 224.596529,348.475708 C223.841649,350.354672 223.464208,352.60943 222.709328,354.488394 C222.331887,355.615773 221.577007,356.743151 221.577007,357.494737 C221.954447,358.622116 221.577007,359.749494 220.822126,360.50108 C219.689805,363.13163 219.689805,365.76218 219.312364,368.392731 C219.312364,369.520109 220.067245,370.271695 221.199566,369.895902 C221.954447,369.895902 222.331887,369.520109 222.709328,369.144316 C225.72885,367.641145 228.370933,366.137973 231.390456,364.634802 C232.522777,363.883216 233.277657,363.13163 234.409978,362.380045 C234.409978,362.380045 234.409978,362.004252 234.409978,361.628459 C234.409978,361.628459 234.032538,361.252666 234.032538,361.252666 C233.277657,361.628459 232.145336,361.628459 231.767896,362.380045 C231.390456,363.507423 230.258134,363.507423 229.503254,364.259009 C227.993492,365.010595 227.616052,364.634802 227.616052,363.13163 C227.616052,362.755837 227.616052,362.380045 227.616052,362.380045 C228.748373,358.246323 229.880694,354.112601 231.390456,349.97888 C231.767896,348.851501 231.390456,346.972537 233.277657,346.220951 C233.277657,346.220951 233.277657,345.845158 233.277657,345.845158 C233.277657,345.469365 232.900217,345.469365 232.900217,345.093572 C233.655098,343.214608 234.409978,341.335643 235.164859,339.456679 C236.29718,335.322957 238.184382,331.565029 238.939262,327.8071 C239.316703,325.928135 239.694143,324.049171 239.316703,322.170207 C239.316703,320.667035 237.806941,319.539657 236.29718,320.291242 Z M396.709328,322.546 C395.199566,323.297585 393.689805,324.049171 392.180043,325.17655 C388.78308,327.431307 385.008677,330.061857 381.611714,332.316614 C380.856833,332.692407 380.101952,333.443993 379.347072,334.195579 C377.83731,335.69875 376.327549,337.201922 374.817787,338.705093 C374.440347,339.080886 374.062907,339.080886 374.062907,339.080886 C374.062907,338.705093 374.062907,338.3293 374.062907,337.953508 C375.950108,333.819786 376.704989,329.310271 377.45987,325.17655 C377.83731,323.297585 377.08243,321.042828 374.440347,321.418621 C373.685466,321.418621 373.308026,321.418621 372.553145,321.042828 C372.553145,321.042828 372.175705,321.042828 372.175705,321.418621 C372.930586,322.170207 372.175705,322.170207 371.798265,322.170207 C368.401302,324.424964 364.626898,326.679721 361.229935,328.558686 C358.587852,330.43765 355.94577,332.316614 353.681128,334.571372 C353.303688,334.947165 352.926247,334.947165 352.548807,335.322957 C352.548807,334.947165 352.548807,334.571372 352.548807,334.195579 C353.681128,330.813443 354.436009,327.8071 355.56833,324.424964 C355.94577,323.673378 355.94577,322.546 355.190889,322.170207 C354.436009,321.794414 353.681128,321.794414 352.926247,322.170207 C350.284165,323.297585 348.019523,324.800757 345.37744,326.303928 C345,326.303928 345,326.679721 345,327.055514 C345.37744,327.055514 345.37744,327.055514 345.754881,327.055514 C346.887202,326.303928 346.887202,326.303928 346.509761,327.8071 C346.509761,328.182893 346.509761,328.558686 346.132321,328.934478 C345.754881,330.43765 345,331.565029 346.132321,333.0682 C346.132321,333.0682 346.132321,333.443993 346.132321,333.819786 C345.754881,333.819786 345.754881,333.443993 345.754881,333.443993 C345.37744,333.0682 345.37744,333.0682 345,332.692407 C345,333.0682 344.62256,333.0682 344.62256,333.443993 C344.62256,333.819786 344.245119,334.571372 344.245119,334.947165 C343.867679,336.826129 343.112798,338.705093 342.735358,340.584058 C342.735358,340.959851 342.735358,340.959851 342.735358,341.335643 C342.735358,341.711436 342.735358,342.087229 342.735358,342.087229 C340.848156,343.966194 341.225597,346.596744 340.470716,348.475708 C339.715835,349.603087 338.583514,351.106258 339.715835,352.60943 C339.715835,352.60943 339.715835,352.60943 339.715835,352.985223 C339.338395,353.736808 338.960954,354.488394 338.583514,355.23998 C338.206074,355.991566 338.206074,356.367359 338.583514,358.246323 C338.583514,358.246323 338.583514,358.622116 338.206074,358.622116 C337.451193,358.622116 337.451193,358.997909 337.451193,359.373702 C337.451193,360.125287 337.073753,361.252666 336.696312,362.004252 C335.563991,363.883216 334.43167,365.76218 334.05423,368.016938 C333.67679,368.768523 333.67679,369.895902 333.67679,370.647488 C333.67679,371.774867 334.05423,371.774867 334.809111,371.399074 C336.318872,370.647488 337.451193,369.895902 338.960954,369.144316 C339.715835,368.768523 340.470716,368.392731 341.225597,368.016938 C341.603037,368.016938 341.603037,367.641145 341.980477,367.265352 C343.112798,364.259009 343.867679,361.252666 345,358.246323 C345.754881,355.615773 346.509761,352.60943 347.642082,349.97888 C348.019523,348.475708 348.396963,347.348329 349.151844,345.845158 C349.906725,343.590401 350.661605,341.335643 351.793926,339.832472 C353.681128,337.201922 356.32321,334.947165 358.587852,332.692407 C360.475054,330.813443 362.362256,329.310271 364.249458,327.8071 C365.004338,327.055514 365.759219,326.679721 366.5141,326.303928 C367.26898,325.552343 368.023861,325.928135 368.778742,326.303928 C369.533623,327.055514 369.156182,327.431307 368.778742,327.8071 C368.401302,330.061857 368.023861,331.940821 367.646421,334.195579 C367.26898,336.074543 366.5141,338.3293 366.136659,340.208265 C365.759219,341.335643 365.759219,342.463022 365.381779,343.590401 C364.626898,346.220951 363.494577,349.227294 362.362256,351.857844 C361.984816,353.361016 361.229935,355.23998 360.852495,356.743151 C360.097614,358.622116 359.342733,360.50108 358.965293,362.380045 C358.965293,362.755837 358.965293,362.755837 358.587852,363.13163 C358.210412,365.386388 357.832972,367.641145 356.700651,369.895902 C356.32321,370.271695 356.32321,370.647488 356.32321,371.023281 C356.32321,371.399074 356.32321,371.774867 356.32321,371.774867 C356.32321,371.774867 357.078091,371.774867 357.078091,371.774867 C357.832972,371.399074 358.210412,371.023281 358.965293,370.647488 C360.097614,370.271695 360.852495,369.520109 361.984816,369.144316 C363.494577,368.392731 365.004338,367.265352 365.381779,365.386388 C365.759219,364.259009 366.136659,363.13163 366.5141,362.004252 C367.646421,358.622116 368.778742,355.23998 369.911063,352.233637 C370.665944,349.97888 371.798265,347.348329 372.930586,345.093572 C374.440347,342.838815 376.327549,340.584058 378.214751,338.3293 C379.347072,336.826129 380.479393,335.322957 381.611714,334.195579 C383.498915,332.316614 385.763557,330.43765 388.0282,328.934478 C389.160521,327.8071 390.670282,327.055514 392.180043,326.303928 C392.934924,325.928135 393.312364,325.928135 393.689805,326.303928 C394.822126,327.055514 394.067245,327.8071 394.067245,328.558686 C394.067245,330.43765 392.557484,331.940821 393.312364,333.819786 C392.180043,333.443993 392.557484,334.571372 392.557484,334.947165 C392.180043,335.69875 392.180043,336.450336 391.802603,337.201922 C391.425163,337.953508 391.047722,338.705093 391.425163,339.832472 C391.425163,339.832472 391.425163,340.208265 391.047722,340.584058 C390.670282,340.959851 390.292842,340.959851 390.292842,341.335643 C389.915401,342.087229 389.537961,343.214608 389.160521,344.341986 C388.78308,345.469365 388.78308,346.220951 389.915401,346.972537 C389.160521,346.972537 388.40564,345.845158 388.0282,347.348329 C387.650759,348.851501 387.273319,349.97888 386.895879,351.482051 C386.518438,352.233637 386.518438,352.985223 386.140998,353.736808 C385.763557,355.23998 385.008677,356.367359 384.253796,357.87053 C383.876356,358.997909 383.498915,360.50108 383.121475,361.628459 C381.989154,364.259009 381.611714,366.889559 381.611714,369.520109 C381.611714,371.023281 383.121475,372.150659 384.631236,371.399074 C385.763557,371.023281 386.518438,370.647488 387.650759,370.271695 C388.78308,369.895902 389.537961,369.520109 390.670282,368.768523 C392.557484,367.641145 394.444685,366.889559 396.709328,365.76218 C397.086768,365.76218 397.086768,365.386388 397.086768,365.010595 C396.709328,365.010595 396.709328,365.010595 396.331887,365.010595 C395.199566,365.386388 394.067245,365.76218 392.934924,366.137973 C391.425163,366.513766 390.292842,365.76218 390.292842,364.259009 C390.292842,363.13163 390.292842,362.004252 390.670282,360.876873 C392.180043,356.367359 393.689805,352.233637 395.199566,347.724122 C395.954447,345.093572 397.086768,342.838815 397.841649,340.208265 C398.596529,337.577715 399.35141,334.947165 400.483731,332.692407 C401.616052,329.686064 402.370933,326.679721 402.748373,323.673378 C402.748373,322.921792 402.370933,322.170207 401.993492,321.794414 C400.861171,321.418621 398.97397,321.794414 396.709328,322.546 Z M510.696312,354.112601 C511.073753,352.233637 511.828633,350.354672 512.583514,348.851501 C513.338395,346.596744 514.093275,343.966194 514.470716,341.711436 C514.848156,340.959851 514.848156,339.832472 515.225597,339.080886 C515.980477,336.450336 516.735358,334.195579 517.112798,331.565029 C517.490239,329.686064 518.62256,327.8071 517.490239,325.928135 C517.490239,325.928135 517.490239,325.928135 517.490239,325.552343 C517.490239,325.17655 517.490239,324.424964 517.490239,324.049171 C516.735358,322.170207 515.225597,321.418621 512.960954,322.170207 C511.451193,322.546 509.941432,323.297585 508.43167,324.424964 C505.034707,326.679721 501.260304,329.310271 497.863341,331.565029 C495.976139,333.0682 494.466377,334.571372 492.579176,336.074543 C492.956616,334.571372 493.334056,333.443993 493.711497,331.940821 C494.466377,329.310271 495.598698,326.679721 495.221258,323.673378 C495.221258,322.546 494.466377,321.418621 493.334056,321.418621 C491.446855,321.042828 489.937093,321.418621 488.427332,322.170207 C486.91757,322.921792 485.407809,324.049171 483.898048,325.17655 C480.501085,327.431307 477.104121,330.061857 474.084599,332.692407 C472.574837,333.819786 471.442516,334.947165 469.932755,336.450336 C469.932755,336.450336 469.932755,336.450336 469.932755,336.074543 C471.065076,332.316614 472.197397,328.934478 473.329718,325.17655 C473.707158,324.424964 473.707158,323.297585 473.707158,322.170207 C473.707158,321.418621 473.329718,320.667035 472.197397,320.667035 C470.310195,320.667035 468.800434,321.418621 467.668113,322.170207 C465.780911,323.297585 463.516269,324.800757 461.629067,325.928135 C460.119306,326.679721 458.986985,327.8071 457.854664,328.558686 C457.854664,328.558686 457.854664,328.934478 457.477223,328.934478 C457.477223,328.934478 457.854664,328.934478 457.854664,328.934478 C459.364425,328.182893 460.496746,327.431307 462.006508,326.679721 C462.761388,326.303928 463.516269,325.928135 464.64859,325.552343 C464.64859,325.552343 465.403471,325.552343 465.403471,325.928135 C465.403471,327.055514 465.403471,328.182893 465.02603,329.310271 C464.64859,330.43765 463.893709,331.940821 463.516269,333.0682 C463.516269,333.443993 463.893709,333.819786 463.893709,334.195579 C463.893709,334.195579 464.27115,334.571372 464.27115,334.571372 C464.27115,334.571372 463.893709,334.571372 463.893709,334.571372 C463.516269,334.571372 462.761388,333.819786 463.516269,334.947165 C463.516269,334.947165 463.516269,335.322957 463.516269,335.69875 C463.516269,336.826129 461.629067,337.577715 462.761388,339.080886 C462.761388,339.080886 462.383948,339.456679 462.383948,339.456679 C462.383948,339.456679 462.383948,339.832472 462.006508,339.832472 C462.761388,340.208265 462.006508,340.208265 462.006508,340.584058 C461.629067,340.959851 461.251627,341.711436 460.874187,342.087229 C460.496746,343.590401 460.496746,344.717779 459.741866,345.845158 C459.741866,346.220951 459.741866,346.596744 459.741866,346.972537 C459.741866,347.348329 460.119306,347.348329 460.496746,347.348329 C460.119306,347.348329 459.741866,347.724122 459.364425,347.724122 C458.232104,348.099915 458.232104,348.851501 457.854664,349.603087 C457.854664,349.603087 458.232104,349.97888 458.609544,349.97888 C458.232104,349.97888 457.854664,350.354672 457.854664,350.354672 C457.854664,350.354672 457.854664,350.354672 457.854664,350.730465 C457.099783,352.60943 456.344902,354.864187 455.967462,356.743151 C455.590022,358.622116 454.835141,359.749494 454.457701,361.628459 C453.70282,364.259009 452.947939,366.889559 452.193059,369.144316 C451.815618,369.895902 452.193059,370.271695 452.947939,369.895902 C455.212581,368.768523 457.477223,367.641145 460.119306,366.513766 C460.496746,366.513766 460.874187,365.76218 460.874187,365.386388 C462.761388,359.373702 465.02603,353.361016 466.913232,346.972537 C467.290672,346.220951 467.668113,345.093572 468.045553,344.341986 C469.177874,342.087229 470.687636,339.456679 472.574837,337.577715 C474.462039,335.69875 475.9718,333.443993 477.859002,331.565029 C479.746204,329.686064 481.633406,328.182893 483.520607,326.303928 C484.652928,325.552343 485.785249,325.17655 486.91757,324.800757 C487.672451,324.800757 488.049892,325.17655 488.049892,325.928135 C488.427332,328.182893 487.672451,330.061857 486.91757,332.316614 C486.54013,334.195579 485.407809,336.074543 485.030369,338.3293 C485.030369,338.3293 485.030369,338.705093 485.407809,339.080886 C485.785249,339.080886 485.785249,339.080886 486.16269,339.080886 C485.785249,339.080886 485.785249,339.080886 485.407809,339.080886 C485.030369,339.456679 485.030369,339.456679 484.652928,339.832472 C484.275488,340.959851 483.898048,342.087229 483.520607,343.590401 C482.765727,346.220951 481.633406,349.227294 480.878525,351.857844 C480.123644,354.488394 478.991323,356.743151 478.613883,359.373702 C478.236443,361.252666 476.726681,363.13163 477.104121,365.010595 C477.104121,365.386388 476.726681,365.76218 476.726681,366.513766 C476.349241,367.265352 476.349241,367.641145 476.349241,368.392731 C476.349241,369.144316 476.349241,369.144316 477.104121,368.768523 C479.368764,367.641145 481.633406,366.513766 483.898048,365.386388 C484.275488,365.010595 484.652928,364.634802 485.030369,364.259009 C485.785249,362.004252 486.16269,359.749494 486.91757,357.494737 C488.049892,353.361016 489.182213,349.227294 490.691974,345.469365 C491.824295,342.838815 493.334056,340.208265 495.221258,337.577715 C497.10846,334.947165 499.373102,332.692407 501.637744,330.061857 C502.392625,329.310271 502.770065,328.558686 503.524946,328.182893 C504.657267,327.431307 505.789588,326.679721 506.921909,325.928135 C507.67679,325.552343 508.43167,325.17655 509.186551,325.17655 C509.941432,325.17655 511.451193,326.303928 511.451193,327.055514 C511.073753,328.558686 511.073753,330.061857 510.696312,331.565029 C510.696312,331.940821 510.696312,332.316614 510.696312,332.692407 C510.318872,333.819786 509.941432,334.947165 510.318872,336.450336 C510.318872,336.826129 510.318872,337.201922 509.941432,336.826129 C509.941432,336.826129 509.563991,337.201922 509.563991,337.577715 C509.186551,339.456679 508.809111,340.959851 508.43167,342.838815 C508.05423,344.341986 508.43167,346.220951 506.921909,347.348329 C507.299349,348.475708 506.544469,349.227294 506.544469,350.354672 C506.167028,351.857844 505.412148,352.985223 505.034707,354.488394 C504.657267,355.991566 503.902386,357.494737 504.279826,358.997909 C504.279826,358.997909 504.279826,359.373702 503.902386,359.373702 C503.524946,359.749494 503.147505,360.125287 502.770065,360.50108 C502.392625,362.380045 502.015184,363.883216 502.015184,365.76218 C502.015184,366.513766 502.015184,366.889559 502.392625,367.641145 C502.392625,368.392731 503.147505,368.392731 503.147505,369.144316 C503.147505,369.520109 503.902386,369.895902 504.657267,369.520109 C505.789588,368.768523 507.299349,368.016938 508.43167,367.641145 C511.828633,366.513766 514.848156,364.634802 517.867679,362.380045 C518.245119,362.004252 518.62256,361.628459 519,361.252666 C518.62256,361.252666 517.867679,361.252666 517.490239,361.628459 C515.980477,362.380045 514.470716,363.13163 512.960954,363.883216 C511.451193,364.634802 510.696312,363.883216 510.318872,362.380045 C510.318872,361.628459 510.318872,360.50108 510.318872,359.749494 C509.186551,358.997909 509.941432,356.743151 510.696312,354.112601 Z M440.114967,358.997909 C440.869848,356.743151 442.002169,354.488394 442.75705,352.233637 C444.266811,347.724122 446.154013,343.214608 447.663774,338.3293 C448.796095,334.947165 449.928416,331.189236 451.060738,327.8071 C451.438178,326.303928 451.060738,324.424964 452.947939,323.297585 C453.32538,323.297585 452.947939,322.170207 452.947939,321.794414 C452.947939,321.418621 452.193059,321.418621 452.193059,321.418621 C451.438178,321.418621 451.060738,321.794414 450.305857,322.170207 C447.286334,323.673378 446.154013,323.673378 443.511931,326.679721 C442.37961,328.182893 441.624729,330.061857 441.247289,331.565029 C440.114967,334.195579 439.360087,336.826129 438.605206,339.456679 C437.850325,341.335643 437.095445,342.838815 436.340564,344.341986 C435.208243,346.220951 434.075922,348.099915 432.943601,349.97888 C432.566161,350.354672 432.566161,351.106258 432.18872,351.857844 C430.678959,353.736808 429.169197,355.23998 427.659436,357.118944 C426.527115,358.246323 425.017354,359.749494 423.885033,360.876873 C422.375271,362.755837 420.488069,363.507423 418.223427,363.883216 C417.468547,363.883216 415.958785,363.13163 415.958785,362.380045 C415.958785,361.252666 415.581345,359.749494 415.958785,358.622116 C416.713666,355.615773 417.845987,352.985223 418.600868,349.97888 C419.733189,346.220951 421.24295,342.087229 422.375271,338.3293 C423.885033,334.195579 425.017354,330.43765 426.149675,326.303928 C426.527115,325.552343 426.527115,324.800757 426.527115,324.049171 C426.527115,322.921792 426.149675,322.170207 425.017354,322.170207 C423.885033,322.170207 422.752711,322.546 421.997831,322.921792 C420.86551,323.297585 419.733189,324.049171 418.978308,324.800757 C416.336226,326.679721 413.316703,327.8071 411.052061,330.061857 C410.67462,330.43765 410.67462,330.813443 410.67462,330.813443 C411.052061,330.813443 411.429501,330.813443 411.806941,330.43765 C412.184382,330.43765 412.184382,330.061857 412.561822,330.061857 C414.071584,328.934478 415.581345,328.182893 417.091106,327.055514 C417.468547,326.679721 417.845987,327.055514 418.223427,327.055514 C418.223427,327.431307 418.600868,328.182893 418.223427,328.558686 C418.223427,329.310271 417.845987,330.061857 417.468547,330.813443 C416.336226,334.571372 415.203905,337.953508 414.071584,341.711436 C412.939262,345.469365 411.806941,349.603087 410.29718,353.361016 C409.542299,356.367359 408.409978,358.997909 407.655098,362.004252 C406.900217,363.883216 407.277657,366.137973 408.409978,367.641145 C409.164859,368.768523 409.91974,369.895902 411.806941,369.520109 C412.939262,369.144316 414.449024,369.144316 415.203905,368.392731 C418.223427,366.513766 421.24295,364.634802 423.885033,362.755837 C427.281996,360.125287 431.056399,357.87053 434.075922,354.488394 C434.075922,354.488394 434.453362,354.488394 434.453362,354.112601 C434.453362,354.112601 434.453362,354.488394 434.453362,354.488394 C432.943601,356.367359 432.943601,358.997909 432.18872,361.252666 C431.433839,362.755837 431.433839,364.634802 431.056399,366.513766 C431.056399,366.889559 431.056399,366.889559 431.056399,367.265352 C431.056399,369.144316 432.18872,370.271695 434.075922,369.520109 C434.830803,369.144316 435.208243,368.768523 435.963124,368.392731 C437.472885,367.641145 438.605206,366.513766 440.492408,365.76218 C442.37961,364.634802 443.889371,362.755837 446.154013,362.755837 C446.154013,362.755837 446.154013,362.755837 446.154013,362.380045 C447.286334,361.252666 448.418655,360.125287 449.550976,359.373702 C449.550976,359.373702 449.928416,358.997909 450.305857,358.997909 C449.928416,358.997909 449.550976,358.622116 449.173536,358.622116 C448.796095,358.622116 448.796095,358.997909 448.418655,358.997909 C447.286334,360.125287 445.776573,360.876873 444.644252,362.004252 C443.511931,362.755837 442.37961,363.507423 441.247289,363.883216 C440.114967,364.259009 438.982646,363.507423 439.360087,362.380045 C439.360087,361.628459 439.737527,360.125287 440.114967,358.997909 Z M309.898048,320.667035 C309.520607,320.667035 309.143167,320.667035 309.143167,320.667035 C308.765727,319.915449 308.388286,320.291242 308.010846,320.291242 C307.255965,320.667035 306.501085,320.667035 306.123644,320.667035 C305.746204,320.667035 305.746204,319.539657 305.368764,320.667035 C304.236443,320.291242 303.859002,321.794414 302.726681,322.170207 C301.9718,322.170207 301.59436,322.921792 300.839479,323.297585 C298.952278,324.424964 297.065076,325.928135 294.800434,327.055514 C291.02603,329.310271 288.006508,332.316614 284.986985,335.322957 C283.854664,336.450336 282.344902,337.577715 281.212581,339.080886 C281.967462,337.201922 282.344902,335.322957 282.722343,333.443993 C283.099783,331.565029 283.854664,329.686064 284.232104,327.8071 C284.609544,326.303928 284.986985,324.800757 284.609544,323.297585 C284.609544,321.418621 283.854664,321.042828 281.967462,321.794414 C280.835141,322.170207 279.70282,322.921792 278.570499,323.673378 C276.683297,324.800757 275.173536,325.928135 273.286334,327.431307 C272.531453,327.8071 272.154013,328.558686 271.399132,329.686064 C272.908894,328.934478 274.041215,328.558686 275.173536,327.8071 C275.928416,327.431307 275.928416,327.8071 275.550976,328.182893 C275.550976,329.310271 275.173536,330.43765 275.173536,331.565029 C273.663774,336.826129 272.154013,342.087229 270.644252,346.972537 C269.511931,350.730465 268.37961,354.488394 267.247289,358.246323 C266.869848,359.749494 266.114967,361.252666 265.737527,362.755837 C265.360087,363.883216 265.360087,365.010595 264.982646,366.137973 C264.605206,367.641145 263.850325,369.144316 263.095445,370.647488 C263.095445,371.023281 263.095445,371.399074 262.718004,371.774867 C263.095445,371.774867 263.472885,371.774867 263.850325,371.774867 C266.114967,370.647488 268.75705,369.144316 271.021692,368.016938 C271.399132,368.016938 271.399132,367.641145 271.776573,367.265352 C272.154013,365.76218 272.908894,364.259009 273.286334,362.755837 C274.418655,358.622116 275.928416,354.488394 277.060738,350.354672 C277.438178,348.851501 278.570499,346.972537 279.32538,345.469365 C280.08026,344.341986 280.835141,343.214608 281.967462,342.087229 C283.477223,340.584058 284.609544,338.705093 286.119306,337.201922 C288.006508,334.947165 290.27115,333.0682 292.535792,331.189236 C294.422993,329.310271 296.687636,327.431307 299.329718,326.303928 C300.839479,325.552343 301.59436,326.303928 301.59436,327.8071 C301.59436,328.558686 301.59436,329.310271 301.21692,330.061857 C301.21692,331.940821 300.084599,333.819786 300.462039,336.074543 C300.462039,336.074543 300.462039,336.450336 300.084599,336.450336 C299.707158,337.577715 299.329718,338.3293 298.952278,339.456679 C298.574837,340.959851 298.197397,342.087229 297.442516,343.590401 C296.687636,345.469365 295.932755,347.348329 295.555315,349.227294 C294.800434,350.730465 295.177874,352.60943 294.045553,354.488394 C292.535792,357.118944 292.158351,360.125287 291.02603,362.755837 C290.64859,364.259009 290.27115,366.137973 289.893709,367.641145 C289.516269,368.768523 289.516269,369.895902 289.138829,371.399074 C289.138829,372.526452 290.27115,373.278038 291.403471,372.902245 C292.913232,372.150659 294.800434,372.150659 295.932755,370.647488 C295.932755,370.647488 296.310195,370.647488 296.310195,370.271695 C298.952278,368.768523 301.9718,368.016938 303.859002,365.76218 C304.236443,365.386388 304.236443,365.386388 304.613883,365.010595 C304.236443,365.010595 303.859002,365.010595 303.481562,365.010595 C303.104121,365.010595 302.726681,365.386388 302.349241,365.76218 C301.59436,366.137973 300.839479,366.889559 300.084599,367.265352 C299.329718,367.641145 298.574837,368.392731 297.819957,367.641145 C297.442516,367.265352 297.442516,366.137973 297.442516,365.386388 C297.442516,365.386388 297.442516,365.386388 297.442516,365.010595 C298.197397,362.755837 298.952278,360.50108 299.707158,357.87053 C300.839479,354.488394 301.9718,350.730465 303.104121,347.348329 C304.236443,343.966194 305.368764,340.959851 306.501085,337.577715 C307.633406,334.195579 308.010846,330.813443 308.765727,327.431307 C309.143167,325.928135 308.765727,324.424964 308.388286,322.921792 C310.275488,320.667035 309.898048,320.667035 309.898048,320.667035 Z M261.963124,320.291242 C260.453362,321.042828 258.566161,321.418621 257.056399,322.170207 C254.791757,323.297585 252.904555,324.800757 250.639913,326.303928 C250.262473,326.679721 249.885033,327.055514 249.507592,327.8071 C250.262473,327.8071 251.017354,327.8071 251.772234,327.431307 C252.149675,327.431307 252.527115,327.055514 252.527115,326.679721 C252.904555,326.303928 253.281996,325.928135 253.659436,325.928135 C254.036876,325.928135 254.414317,325.928135 254.414317,325.928135 C254.414317,325.928135 254.414317,326.303928 254.414317,326.679721 C254.036876,328.934478 253.281996,330.813443 252.904555,333.0682 C252.527115,334.195579 252.527115,335.322957 252.149675,336.450336 C251.017354,338.3293 250.639913,340.959851 249.885033,342.838815 C248.752711,346.220951 247.62039,349.603087 246.488069,352.985223 C245.733189,355.615773 244.978308,357.87053 244.223427,360.50108 C243.468547,362.755837 243.091106,365.386388 242.713666,367.641145 C242.713666,368.392731 243.091106,369.144316 243.468547,369.520109 C243.468547,369.895902 243.845987,370.271695 244.223427,369.895902 C245.355748,369.520109 246.86551,369.520109 247.997831,369.144316 C249.885033,368.392731 251.394794,367.265352 253.281996,366.513766 C254.414317,365.76218 255.924078,365.010595 257.056399,364.259009 C257.056399,364.259009 257.056399,363.883216 257.433839,363.507423 C257.056399,363.507423 257.056399,363.507423 256.678959,363.507423 C255.546638,363.883216 254.414317,364.259009 253.281996,364.634802 C252.527115,365.010595 252.149675,364.634802 252.149675,363.883216 C252.149675,363.13163 252.149675,362.004252 252.527115,361.252666 C253.659436,357.87053 254.414317,354.488394 255.546638,350.730465 C256.301518,347.724122 257.433839,344.717779 258.18872,341.711436 C259.698482,336.826129 261.208243,331.565029 262.718004,326.679721 C263.095445,324.800757 264.227766,323.297585 263.472885,321.042828 C263.095445,320.291242 262.718004,320.291242 261.963124,320.291242 Z M331.412148,321.042828 C330.279826,321.418621 328.770065,321.418621 328.015184,322.170207 C324.995662,324.049171 321.976139,325.928135 319.334056,327.8071 C319.334056,327.8071 319.334056,328.182893 318.956616,328.182893 C319.334056,328.182893 319.334056,328.182893 319.711497,328.182893 C320.843818,327.431307 321.976139,327.055514 323.4859,326.303928 C324.618221,325.928135 325.373102,326.303928 325.373102,327.431307 C325.373102,328.182893 325.373102,328.934478 324.995662,329.686064 C324.618221,331.565029 324.240781,333.443993 323.4859,335.322957 C322.73102,337.201922 322.73102,339.080886 321.976139,340.584058 C321.221258,342.087229 320.843818,343.966194 320.466377,345.469365 C320.088937,346.972537 319.334056,348.475708 318.956616,349.97888 C318.579176,350.730465 318.579176,351.482051 318.201735,352.233637 C317.824295,352.985223 318.201735,353.361016 318.956616,353.361016 C319.334056,353.361016 319.334056,353.736808 319.711497,353.736808 C319.334056,353.736808 319.334056,353.736808 318.956616,353.736808 C318.201735,353.361016 317.446855,353.736808 317.446855,354.488394 C317.446855,356.367359 315.559653,357.494737 315.937093,359.373702 C314.804772,360.50108 314.804772,361.628459 314.427332,363.13163 C313.672451,365.386388 312.91757,367.641145 313.295011,370.271695 C313.295011,371.023281 313.295011,371.399074 314.427332,371.399074 C315.182213,371.023281 316.314534,371.023281 317.069414,370.271695 C319.711497,369.144316 321.976139,368.016938 324.618221,366.513766 C325.750542,366.137973 326.882863,365.386388 327.637744,364.634802 C328.015184,364.634802 328.015184,364.259009 328.015184,363.883216 C327.637744,363.883216 327.260304,363.883216 327.260304,363.883216 C326.127983,364.259009 324.995662,365.010595 323.4859,365.386388 C321.598698,365.76218 321.221258,365.386388 321.598698,363.507423 C321.976139,362.004252 322.353579,360.50108 322.73102,359.373702 C324.618221,354.112601 326.505423,348.851501 328.392625,343.590401 C328.770065,342.838815 329.147505,342.087229 329.524946,340.959851 C330.657267,337.953508 331.412148,334.947165 332.544469,331.940821 C333.299349,329.310271 333.67679,327.055514 334.43167,324.424964 C334.43167,322.546 332.544469,320.667035 331.412148,321.042828 Z M330.279826,312.399592 C330.279826,312.399592 330.657267,312.399592 330.657267,312.399592 C331.789588,311.648006 333.299349,310.89642 334.43167,310.144835 C334.809111,309.769042 335.186551,309.769042 335.563991,309.769042 C336.318872,309.393249 337.828633,308.641663 337.828633,308.26587 C337.828633,306.762699 338.960954,306.011113 338.960954,304.507941 C338.960954,303.756356 339.338395,303.00477 340.093275,302.253184 C340.470716,302.253184 340.470716,301.501598 340.470716,301.501598 C340.470716,301.125806 340.093275,301.125806 339.715835,301.125806 C338.960954,301.125806 337.828633,301.501598 337.073753,301.877391 C335.941432,302.253184 335.186551,303.00477 334.43167,303.380563 C332.167028,304.507941 329.902386,305.63532 329.524946,308.26587 C329.524946,308.641663 329.147505,309.017456 329.147505,309.393249 C329.147505,309.393249 329.147505,309.769042 329.147505,309.769042 C330.279826,310.144835 329.524946,310.520627 329.147505,310.89642 C328.770065,311.648006 329.147505,312.023799 330.279826,312.399592 Z M261.208243,309.393249 C261.585683,309.393249 261.963124,309.393249 262.340564,309.393249 C264.227766,309.769042 265.737527,308.641663 267.247289,307.890077 C268.002169,307.514284 268.75705,306.386906 269.13449,305.63532 C269.889371,304.132149 269.889371,302.628977 270.266811,301.125806 C270.266811,300.37422 270.266811,299.998427 269.511931,299.246841 C268.75705,298.871048 268.37961,298.871048 267.624729,299.622634 C268.002169,299.998427 267.624729,299.998427 267.247289,300.37422 C265.737527,301.125806 264.227766,302.253184 262.718004,303.00477 C262.340564,303.380563 261.963124,303.756356 261.963124,304.132149 C261.585683,305.63532 261.208243,307.138492 260.830803,308.641663 C260.453362,308.641663 260.830803,309.393249 261.208243,309.393249 Z" id="path-1"></path>
    </defs>
    <g id="New" stroke="none" stroke-width="1" fill="none" fill-rule="evenodd">
        <mask id="mask-2" fill="white">
            <use xlink:href="#path-1"></use>
        </mask>
        <use id="Combined-Shape" fill="#FFFFFF" xlink:href="#path-1"></use>
    </g>
</svg>