<?xml version="1.0" encoding="UTF-8"?>
<svg width="500px" height="500px" viewBox="0 0 500 500" version="1.1" xmlns="http://www.w3.org/2000/svg" xmlns:xlink="http://www.w3.org/1999/xlink">
    <!-- Generator: Sketch 56 (81588) - https://sketch.com -->
    <title>Group 16</title>
    <desc>Created with Sketch.</desc>
    <g id="Page-1" stroke="none" stroke-width="1" fill="none" fill-rule="evenodd">
        <g id="Group-16">
            <rect id="Rectangle" fill="#FFFFFF" x="0" y="0" width="500" height="500"></rect>
            <g id="Group" transform="translate(96.912521, 46.312178)" fill="#000206">
                <path d="M18.5074833,379.316212 C17.5941887,375.705195 16.092978,372.151133 11.0517032,372.151133 C6.86646763,372.151133 5.41692657,375.268056 5.41692657,378.114438 C5.41692657,381.886357 7.77976229,383.801507 12.2303281,386.153794 C18.6680779,389.546955 21.4554421,392.05872 21.4554421,397.257389 C21.4554421,403.001413 16.5761584,407.375643 9.65802118,407.375643 C6.4377498,407.375643 3.64759273,406.444411 1.45093754,405.570134 C1.01803028,404.039439 0.377048253,400.320204 0,397.368454 L1.66459821,396.927044 C2.73429807,400.59217 5.09713379,405.352277 10.6760515,405.352277 C14.5359084,405.352277 16.9001406,402.618384 16.9001406,399.06005 C16.9001406,394.850993 14.6978995,393.155125 9.97781395,390.530872 C4.34583023,387.413948 1.18002138,384.785423 1.18002138,379.700666 C1.18002138,374.832342 5.15019984,370.235983 12.2303281,370.235983 C15.2355424,370.235983 18.1848976,371.054728 19.3104565,371.276856 C19.5255136,373.246114 19.7391743,375.431805 20.1706851,378.987291 L18.5074833,379.316212 Z" id="Fill-2"></path>
                <path d="M41.9841745,377.3339 C40.2413649,381.992966 38.3907818,386.925679 36.7543275,391.205305 L46.9417519,391.205305 L41.9841745,377.3339 Z M47.4309865,406.215029 L47.4309865,404.69586 C50.9704925,404.265641 51.4086766,403.722577 50.6457542,401.661755 C49.9353005,399.548742 48.8504759,396.839065 47.7046743,393.428341 L35.9375184,393.428341 C35.0639864,395.864371 34.2485954,397.977383 33.4856731,400.20183 C32.2874028,403.722577 33.0503252,404.154207 37.5172498,404.69586 L37.5172498,406.215029 L24.9347029,406.215029 L24.9347029,404.69586 C28.3664356,404.265641 29.2357133,403.884791 31.1430192,399.00991 L42.4181044,370.561822 L44.160914,370.235983 C47.5940647,379.500514 51.3505357,389.741148 54.7836863,399.115702 C56.5279141,403.8326 57.0199848,404.265641 60.8870653,404.69586 L60.8870653,406.215029 L47.4309865,406.215029 Z" id="Fill-4"></path>
                <path d="M97.4193045,372.332638 C94.009885,372.548453 92.7621586,373.418766 92.6565384,375.911218 C92.6002076,377.155328 92.4945874,379.431965 92.4945874,384.416869 L92.4945874,390.267854 C92.4945874,395.795822 91.8467836,400.023258 88.7049352,403.32819 C86.1644178,405.982856 82.4860188,406.795336 78.7512891,406.795336 C75.6150738,406.795336 72.2633933,406.14648 69.8791937,404.302884 C66.6345417,401.809021 65.0643216,398.072459 65.0643216,391.732011 L65.0643216,377.914207 C65.0643216,373.039326 64.6347995,372.713488 60.3071885,372.332638 L60.3071885,370.816291 L74.5363397,370.816291 L74.5363397,372.332638 C70.2059121,372.602054 69.7735735,373.039326 69.7735735,377.914207 L69.7735735,391.459774 C69.7735735,399.370171 73.5054867,403.706219 79.9976073,403.706219 C87.6797153,403.706219 90.1146126,398.93713 90.1146126,389.940605 L90.1146126,384.416869 C90.1146126,379.431965 89.9526617,377.371143 89.8428167,375.911218 C89.6794575,373.472367 88.4373641,372.548453 84.433655,372.332638 L84.433655,370.816291 L97.4193045,370.816291 L97.4193045,372.332638 Z" id="Fill-6"></path>
                <path d="M128.732652,397.581604 C128.40308,398.996479 126.919289,404.589548 126.375708,406.215029 L99.7388118,406.215029 L99.7388118,404.694144 C104.835062,404.315336 105.21885,403.829105 105.21885,399.3767 L105.21885,377.926004 C105.21885,373.093378 104.616774,372.823406 100.506388,372.443185 L100.506388,370.923714 L117.277503,370.923714 C122.426542,370.923714 124.563771,370.870002 125.224343,370.816291 C125.277132,372.173214 125.495421,376.245398 125.715136,379.123206 L124.072979,379.393177 C123.577907,377.550023 123.028619,376.409359 122.426542,375.268695 C121.551962,373.473599 120.289313,373.093378 116.999292,373.093378 L111.797465,373.093378 C110.095385,373.093378 109.984101,373.257339 109.984101,374.830522 L109.984101,386.83364 L116.071923,386.83364 C120.182309,386.83364 120.453386,386.015246 121.113958,382.324697 L122.81033,382.324697 L122.81033,393.50942 L121.113958,393.50942 C120.400597,389.601198 119.96402,389.058429 116.013427,389.058429 L109.984101,389.058429 L109.984101,399.862931 C109.984101,403.665144 111.193961,403.987413 113.934694,404.045365 L119.029517,404.045365 C122.372327,404.045365 122.921614,403.554894 124.125768,402.144259 C125.165848,401.003595 126.318639,398.775979 127.086215,397.147671 L128.732652,397.581604 Z" id="Fill-8"></path>
                <path d="M144.975575,389.025745 C147.800616,389.025745 149.600429,388.588729 150.959848,387.441385 C153.081106,385.855603 153.949151,383.664831 153.949151,380.713909 C153.949151,374.86331 150.086138,372.730903 145.896015,372.730903 C144.319939,372.730903 143.3995,372.948699 143.017164,373.277528 C142.527207,373.66045 142.361528,374.208499 142.361528,375.629155 L142.361528,389.025745 L144.975575,389.025745 Z M165.043986,406.795336 C164.340204,406.795336 163.742626,406.742666 163.03318,406.688573 C159.059714,406.413837 156.942704,405.37468 154.546729,401.986742 C152.535923,399.196676 150.578927,395.750374 148.838589,392.963155 C147.748222,391.212246 147.040192,390.883416 144.267545,390.883416 L142.361528,390.883416 L142.361528,399.471412 C142.361528,404.116303 142.960521,404.392463 147.313491,404.828055 L147.313491,406.359744 L132.79179,406.359744 L132.79179,404.828055 C137.304775,404.338369 137.685696,404.116303 137.685696,399.471412 L137.685696,377.65053 C137.685696,373.001368 137.088118,372.841936 132.79179,372.346557 L132.79179,370.816291 L146.657855,370.816291 C150.631321,370.816291 153.297764,371.310246 155.36238,372.676809 C157.594091,374.097466 159.059714,376.558703 159.059714,379.893971 C159.059714,384.595802 156.07041,387.548148 152.04455,389.297634 C153.024464,390.99445 155.36238,394.658547 156.996514,397.116937 C159.00732,400.01519 160.043876,401.381753 161.291426,402.74974 C162.764129,404.338369 164.011678,404.940511 165.264892,405.263647 L165.043986,406.795336 Z" id="Fill-10"></path>
                <path d="M213.974544,372.339566 C210.193253,372.885111 209.652064,373.318713 208.197181,377.782262 C206.416178,383.226376 202.093698,397.053461 199.126298,406.795336 L197.289069,406.795336 C194.479105,398.303255 190.86509,387.799035 188.056533,379.741973 C184.924668,389.106926 181.736575,398.413781 178.926612,406.795336 L177.147015,406.795336 C174.448101,397.434634 171.369652,387.25349 168.454262,377.729833 C167.051389,373.318713 166.453973,372.722156 162.945384,372.339566 L162.945384,370.816291 L176.28533,370.816291 L176.28533,372.339566 C172.288969,372.774585 172.179326,373.372559 172.935584,376.093198 C175.0413,383.443177 177.200431,390.684047 179.41579,398.361352 C182.38319,389.7049 185.623293,380.233672 188.381246,371.306573 L190.107426,371.306573 C193.129648,380.562416 196.153276,389.159355 199.285141,398.413781 C201.55251,391.171495 204.630959,381.483466 205.817357,376.749269 C206.631248,373.595028 206.196891,372.885111 201.610143,372.339566 L201.610143,370.816291 L213.974544,370.816291 L213.974544,372.339566 Z" id="Fill-12"></path>
                <path d="M245.287892,397.581604 C244.958303,398.996479 243.475866,404.589548 242.932258,406.215029 L216.294051,406.215029 L216.294051,404.694144 C221.390552,404.315336 221.774359,403.829105 221.774359,399.3767 L221.774359,377.926004 C221.774359,373.093378 221.172253,372.823406 217.061665,372.443185 L217.061665,370.923714 L233.833605,370.923714 C238.982898,370.923714 241.120232,370.870002 241.780837,370.816291 C241.833628,372.173214 242.051927,376.245398 242.271653,379.123206 L240.629416,379.393177 C240.134319,377.550023 239.585004,376.409359 238.982898,375.268695 C238.108274,373.473599 236.845563,373.093378 233.555381,373.093378 L228.351871,373.093378 C226.651134,373.093378 226.539845,373.257339 226.539845,374.830522 L226.539845,386.83364 L232.627966,386.83364 C236.738554,386.83364 237.009644,386.015246 237.670249,382.324697 L239.366705,382.324697 L239.366705,393.50942 L237.670249,393.50942 C236.956853,389.601198 236.518828,389.058429 232.569468,389.058429 L226.539845,389.058429 L226.539845,399.862931 C226.539845,403.665144 227.749764,403.987413 230.490632,404.045365 L235.585706,404.045365 C238.92868,404.045365 239.477995,403.554894 240.682207,402.144259 C241.722339,401.003595 242.875186,398.775979 243.642801,397.147671 L245.287892,397.581604 Z" id="Fill-14"></path>
                <path d="M248.767153,406.215029 L248.767153,404.689576 C253.202284,404.201884 253.63467,403.980722 253.63467,399.354742 L253.63467,377.733285 C253.63467,373.050598 253.202284,372.833688 248.767153,372.340326 L248.767153,370.816291 L263.264073,370.816291 L263.264073,372.340326 C258.775422,372.833688 258.340219,373.050598 258.340219,377.733285 L258.340219,399.354742 C258.340219,404.038848 258.775422,404.201884 263.264073,404.689576 L263.264073,406.215029 L248.767153,406.215029 Z" id="Fill-16"></path>
                <path d="M306.174957,372.344078 C302.725802,372.727802 301.59339,373.273542 301.430615,375.784798 C301.378695,377.531451 301.269243,379.826685 301.269243,384.903204 L301.269243,406.795336 L299.223324,406.795336 L276.149908,378.237786 L276.149908,391.889813 C276.149908,396.802894 276.312683,399.260145 276.422136,400.843359 C276.527378,403.626065 277.874485,404.443254 281.760047,404.77155 L281.760047,406.30218 L268.658029,406.30218 L268.658029,404.77155 C272.001941,404.501523 273.291515,403.68007 273.513227,401.008218 C273.670389,399.260145 273.779842,396.802894 273.779842,391.832965 L273.779842,377.915174 C273.779842,376.385965 273.670389,375.510507 272.700753,374.309595 C271.677793,372.945245 270.543978,372.615527 267.903087,372.344078 L267.903087,370.816291 L275.991342,370.816291 L298.845853,398.278097 L298.845853,384.903204 C298.845853,379.826685 298.736401,377.478866 298.573626,375.838804 C298.412253,373.380132 297.173196,372.615527 292.863857,372.344078 L292.863857,370.816291 L306.174957,370.816291 L306.174957,372.344078 Z" id="Fill-18"></path>
                <path d="M109.964178,346.400006 C109.692494,345.583354 109.527493,345.089102 109.198912,344.681486 C108.954254,344.299435 108.597224,344.0026 107.342642,344.0026 L105.375423,344.0026 C104.638605,344.0026 104.527655,344.080714 104.527655,344.734036 L104.527655,348.989149 L106.795007,348.989149 C108.517568,348.989149 108.625673,348.884049 108.927228,347.328859 L109.718098,347.328859 L109.718098,351.744462 L108.927228,351.744462 C108.625673,350.109737 108.544594,349.997536 106.769403,349.997536 L104.527655,349.997536 L104.527655,352.784095 C104.527655,354.667366 104.691235,354.857682 106.742377,354.964202 L106.742377,355.728304 L100.318689,355.728304 L100.318689,354.964202 C102.071121,354.800871 102.315779,354.667366 102.315779,352.784095 L102.315779,345.963985 C102.315779,344.028164 102.071121,343.890399 100.318689,343.810864 L100.318689,343.015516 L107.615748,343.015516 C108.597224,343.015516 110.154784,342.988531 110.511813,342.961546 C110.537417,343.481363 110.648367,345.174318 110.756471,346.31479 L109.964178,346.400006 Z" id="Fill-20"></path>
                <path d="M120.066434,345.337663 L118.163643,350.165102 L121.997147,350.165102 L120.066434,345.337663 Z M121.945494,355.147997 L121.945494,354.401257 L122.534619,354.349901 C123.390387,354.241637 123.577455,354.029274 123.176794,353.068783 L122.399204,351.228305 L117.761586,351.228305 L117.140351,352.96052 C116.823452,353.976531 117.06357,354.188894 118.028228,354.324917 L118.669006,354.401257 L118.669006,355.147997 L113.655855,355.147997 L113.655855,354.401257 C115.023967,354.241637 115.34645,354.08063 116.149169,352.162424 L120.254899,342.48395 L121.057617,342.381239 L125.319703,352.588538 C125.935353,354.137538 126.232708,354.241637 127.572899,354.401257 L127.572899,355.147997 L121.945494,355.147997 Z" id="Fill-22"></path>
                <path d="M149.579598,343.727466 C147.517531,343.867243 147.350105,344.031266 147.378725,345.922532 L147.463154,352.79727 C147.543289,354.689962 147.709285,354.796934 149.608218,354.960958 L149.608218,355.728304 L143.256023,355.728304 L143.256023,354.960958 C145.073389,354.796934 145.265143,354.689962 145.292331,352.79727 L145.318089,344.905585 C143.666719,348.44422 141.11239,354.140839 140.48132,355.728304 L139.711444,355.728304 C139.078944,354.055261 136.716368,348.469893 135.203804,344.964063 C135.09648,348.933439 134.930484,352.440696 134.984862,353.564616 C135.01062,354.551611 135.396989,354.796934 137.016877,354.960958 L137.016877,355.728304 L131.632036,355.728304 L131.632036,354.960958 C133.032982,354.822607 133.470867,354.497412 133.611105,353.618815 C133.77567,352.606146 134.047559,349.019017 134.187797,345.454708 C134.240744,344.196716 134.047559,343.892916 132.09711,343.727466 L132.09711,342.961546 L136.551803,342.961546 L140.784692,352.195373 L145.153525,342.961546 L149.579598,342.961546 L149.579598,343.727466 Z" id="Fill-24"></path>
                <path d="M154.827109,355.728304 L154.827109,354.960958 C156.645001,354.796934 156.867868,354.688535 156.867868,352.74307 L156.867868,345.976731 C156.867868,344.004167 156.672677,343.867243 154.827109,343.727466 L154.827109,342.961546 L161.205754,342.961546 L161.205754,343.727466 C159.333966,343.867243 159.137319,344.004167 159.137319,345.976731 L159.137319,352.74307 C159.137319,354.662862 159.360186,354.796934 161.205754,354.960958 L161.205754,355.728304 L154.827109,355.728304 Z" id="Fill-26"></path>
                <path d="M178.022182,352.00425 C177.855675,352.824369 177.189649,355.180607 177.023143,355.728304 L166.424645,355.728304 L166.424645,354.989484 C168.427066,354.769834 168.652936,354.689962 168.652936,352.717397 L168.652936,345.922532 C168.652936,343.978493 168.372047,343.892916 166.591152,343.727466 L166.591152,342.961546 L173.044363,342.961546 L173.044363,343.727466 C171.124471,343.920015 170.902945,343.978493 170.902945,345.922532 L170.902945,352.824369 C170.902945,353.895516 171.098409,354.359062 171.568971,354.551611 C171.959899,354.689962 172.515886,354.715635 173.462801,354.715635 C174.965702,354.715635 175.437712,354.497412 175.880764,353.975388 C176.297754,353.511843 176.827679,352.606146 177.162139,351.8117 L178.022182,352.00425 Z" id="Fill-28"></path>
                <path d="M182.661196,355.728304 L182.661196,354.960958 C184.479088,354.796934 184.701955,354.688535 184.701955,352.74307 L184.701955,345.976731 C184.701955,344.004167 184.506764,343.867243 182.661196,343.727466 L182.661196,342.961546 L189.039841,342.961546 L189.039841,343.727466 C187.168053,343.867243 186.971406,344.004167 186.971406,345.976731 L186.971406,352.74307 C186.971406,354.662862 187.194273,354.796934 189.039841,354.960958 L189.039841,355.728304 L182.661196,355.728304 Z" id="Fill-30"></path>
                <path d="M205.856269,352.2107 C205.720992,352.947735 205.185463,355.129019 204.997192,355.728304 L194.258732,355.728304 L194.258732,354.991269 C196.481733,354.826536 196.612826,354.74559 196.612826,352.672235 L196.612826,346.044597 C196.612826,344.055028 196.372954,343.917278 194.660379,343.779527 L194.660379,343.01551 L201.411662,343.01551 C202.428329,343.01551 203.980525,342.988528 204.49095,342.961546 C204.517448,343.482725 204.59694,344.952535 204.730822,346.236312 L203.955422,346.315838 C203.71555,345.635606 203.553775,345.088865 203.313903,344.733839 C202.938755,344.192778 202.588709,344.028046 201.651534,344.028046 L199.562416,344.028046 C198.838616,344.028046 198.785621,344.028046 198.785621,344.792063 L198.785621,348.633451 L200.739462,348.633451 C202.293052,348.633451 202.428329,348.363631 202.668201,346.88814 L203.470099,346.88814 L203.470099,351.335914 L202.668201,351.335914 C202.375334,349.864684 202.31955,349.645987 200.739462,349.645987 L198.785621,349.645987 L198.785621,352.783003 C198.785621,353.956011 198.972498,354.528314 199.749293,354.634822 C200.099339,354.693046 200.49959,354.720028 201.32938,354.720028 C202.990355,354.720028 203.444996,354.582278 203.980525,353.981573 C204.304073,353.626546 204.652724,353.001699 205.105971,352.045968 L205.856269,352.2107 Z" id="Fill-32"></path>
                <path d="M152.850841,290.794659 C106.121021,290.794659 57.5560264,237.173802 57.5560264,193.030271 C57.5588519,155.722589 74.0824781,208.782875 120.812299,205.841295 C167.453116,202.905376 248.147069,148.885325 248.147069,193.030271 C248.147069,237.173802 199.583488,290.794659 152.850841,290.794659 M203.831653,120.661437 C203.581595,120.555269 203.29763,120.483074 203.012253,120.412295 C194.219243,117.55848 168.343154,108.999867 160.40345,106.146052 C152.250419,103.184653 143.922206,99.6541902 135.451305,95.5886367 C125.946264,91.0587721 118.720003,85.2803636 113.73579,78.2534111 C108.75299,71.2278742 106.260884,62.381898 106.260884,51.716898 C106.260884,41.4808196 110.143145,32.8485963 117.902016,25.7508647 C125.6623,18.6885227 135.059971,15.1226699 146.058297,15.1226699 C156.488695,15.1226699 165.315612,17.1200571 172.506554,21.150221 C179.662177,25.1449953 185.746929,30.5312875 190.732554,37.2354871 C195.821311,44.22705 199.986124,52.0028457 203.153529,60.5982638 C206.357666,69.1936819 209.205787,78.182632 211.768532,87.599088 L225.865039,87.599088 L224.440978,5.56323997 L210.55921,5.56323997 L203.440319,17.4060048 C195.999319,12.7685559 187.812382,8.70300238 178.841364,5.20651313 C169.83644,1.71143947 159.692832,0 148.337077,0 C138.368652,0 128.794386,1.71143947 119.646773,5.135734 C110.497747,8.56002853 102.558043,13.2682566 95.8333116,19.2958077 C88.7836455,25.6800856 83.3374606,32.9561806 79.4947568,41.0887032 C75.6845465,49.1844206 73.7631946,57.9596177 73.7631946,67.3746581 C73.7631946,83.7104824 77.6073111,96.9787389 85.3308632,107.144038 C89.3176683,112.422746 94.1945115,117.203169 99.8893419,121.411696 C64.8274956,132.396618 38.2718696,155.402668 38.2718696,191.248053 C38.2718696,211.827794 47.029561,234.69087 61.1260677,254.913884 C83.088815,286.479963 118.043292,311.624958 153.071232,311.624958 C210.593117,311.624958 267.903087,243.928962 267.903087,191.248053 C267.903087,154.58163 240.139553,131.361827 203.831653,120.661437" id="Fill-34"></path>
            </g>
        </g>
    </g>
</svg>