<?xml version="1.0" encoding="UTF-8"?>
<svg width="747px" height="747px" viewBox="0 0 747 747" version="1.1" xmlns="http://www.w3.org/2000/svg" xmlns:xlink="http://www.w3.org/1999/xlink">
    <!-- Generator: Sketch 56.3 (81716) - https://sketch.com -->
    <title>Combined Shape</title>
    <desc>Created with Sketch.</desc>
    <defs>
        <path d="M437.5,440.5 L1183.5,440.5 L1183.5,1186.5 L437.5,1186.5 L437.5,440.5 Z M925.601103,642.286096 L925.601103,678.068187 L925.572185,678.068187 L925.601103,688.255942 L925.601103,840.930051 L981.61309,840.930051 L981.61309,713.593956 L961.243196,713.593956 L961.243196,820.55454 L945.970997,820.55454 L945.970997,698.386648 L981.642812,698.287012 L981.585778,677.911501 L945.970997,678.011137 L945.970997,662.661607 L981.614696,662.661607 L981.614696,642.286096 L925.601103,642.286096 Z M854.313084,642.180511 L854.313084,804.937135 L874.70423,804.937135 L874.70423,769.277782 L910.383711,769.358019 L910.383711,642.180511 L854.313084,642.180511 Z M874.94988,749.300635 L874.94988,662.397822 L890.104104,662.397822 L890.104104,749.336143 L874.94988,749.300635 Z M818.236146,840.930051 L838.946918,840.930051 L838.946918,642.286096 L818.236146,642.286096 L818.236146,840.930051 Z M783.047267,642 L783.047267,713.54858 L767.72802,713.54858 L767.72802,642 L747.295644,642 L747.295644,713.54858 L731.975591,713.54858 L731.975591,642 L711.543215,642 L711.543215,733.992875 L747.295644,733.992875 L767.72802,733.992875 L803.478837,733.992875 L803.478837,642 L783.047267,642 Z M640.387019,642.009677 L640,804.897834 L675.496395,804.897834 L675.706263,837.981843 L660.598171,837.981843 L660.598171,820.166265 L640.363079,820.166265 L640.363079,858.344569 L696.070627,858.344569 L695.603811,784.534305 L660.283768,784.534305 L660.574232,662.372403 L675.770899,662.372403 L675.770899,733.63552 L696.005991,733.63552 L696.005991,642.009677 L640.387019,642.009677 Z M782.836534,749.257544 L782.836534,963.392985 L767.547981,963.392985 L767.547981,784.94665 L747.156542,784.94665 L747.156542,983.788828 L803.227169,983.788828 L803.227169,749.257544 L782.836534,749.257544 Z M676.181556,749.078838 L676.181556,769.475486 L711.932373,769.475486 L711.932373,983.610123 L732.36475,983.610123 L732.36475,769.475486 L768.117179,769.475486 L768.117179,749.078838 L676.181556,749.078838 Z M890.031029,983.537003 L910.741802,983.537003 L910.741802,784.893049 L890.031029,784.893049 L890.031029,983.537003 Z M854.630906,821.243376 L854.630906,856.847541 L818.951425,856.833098 L818.951425,984 L875.022052,984 L875.022052,821.243376 L854.630906,821.243376 Z M839.231033,876.844367 L854.385256,876.850015 L854.385256,963.782688 L839.231033,963.782688 L839.231033,876.844367 Z M925.929373,856.016015 L925.929373,983.896219 L981.998392,983.896219 L982,856.016015 L925.929373,856.016015 Z M945.673198,876.844367 L960.827421,876.844367 L960.825827,963.781075 L945.673198,963.782688 L945.673198,876.844367 Z M640.357188,874.480917 L640.357188,930.341418 L676.037181,930.339816 L676.037181,963.345344 L660.747823,963.345344 L660.747823,945.572459 L640.357188,945.572459 L640.357188,983.659273 L696.427815,983.659273 L696.427815,910.025086 L660.747823,910.026688 L660.747823,894.794846 L696.427815,894.794846 L696.427815,874.480917 L640.357188,874.480917 Z" id="path-1"></path>
    </defs>
    <g id="New" stroke="none" stroke-width="1" fill="none" fill-rule="evenodd">
        <g id="Artboard" transform="translate(-437.000000, -440.000000)">
            <mask id="mask-2" fill="white">
                <use xlink:href="#path-1"></use>
            </mask>
            <use id="Combined-Shape" fill="#FFFFFF" xlink:href="#path-1"></use>
        </g>
    </g>
</svg>