<?xml version="1.0" encoding="UTF-8"?>
<svg width="500px" height="500px" viewBox="0 0 500 500" version="1.1" xmlns="http://www.w3.org/2000/svg" xmlns:xlink="http://www.w3.org/1999/xlink">
    <!-- Generator: Sketch 56 (81588) - https://sketch.com -->
    <title>Group 13</title>
    <desc>Created with Sketch.</desc>
    <defs>
        <rect id="path-1" x="0" y="0" width="500" height="500"></rect>
    </defs>
    <g id="Page-1" stroke="none" stroke-width="1" fill="none" fill-rule="evenodd">
        <g id="Group-13">
            <g id="Swipe-Studio-Copy">
                <g id="Fill-1">
                    <mask id="mask-2" fill="white">
                        <use xlink:href="#path-1"></use>
                    </mask>
                    <use id="Mask" fill="#FFFFFF" xlink:href="#path-1"></use>
                </g>
            </g>
            <path d="M406.266997,17.5422052 L406.266997,66.2628125 L406.227597,66.2628125 L406.266997,80.1343786 L406.266997,288.014221 L482.579962,288.014221 L482.579962,114.634415 L454.827206,114.634415 L454.827206,260.271089 L434.019753,260.271089 L434.019753,93.9282665 L482.620457,93.7926032 L482.542752,66.0494711 L434.019753,66.1851344 L434.019753,45.2853373 L482.582151,45.2853373 L482.582151,17.5422052 L406.266997,17.5422052 Z M309.141356,17.3984405 L309.141356,239.006555 L336.923067,239.006555 L336.923067,190.453067 L385.534215,190.562316 L385.534215,17.3984405 L309.141356,17.3984405 Z M337.25775,163.252343 L337.25775,44.9261699 L357.904469,44.9261699 L357.904469,163.300691 L337.25775,163.252343 Z M259.988696,288.014221 L288.205878,288.014221 L288.205878,17.5422052 L259.988696,17.5422052 L259.988696,288.014221 Z M212.045962,17.1526587 L212.045962,114.572632 L191.17441,114.572632 L191.17441,17.1526587 L163.336525,17.1526587 L163.336525,114.572632 L142.463874,114.572632 L142.463874,17.1526587 L114.625989,17.1526587 L114.625989,142.409419 L163.336525,142.409419 L191.17441,142.409419 L239.88275,142.409419 L239.88275,17.1526587 L212.045962,17.1526587 Z M17.6799483,17.1658354 L17.1526587,238.953043 L65.5143637,238.953043 L65.800296,283.999965 L45.2164289,283.999965 L45.2164289,259.742416 L17.6473325,259.742416 L17.6473325,311.72569 L93.5455181,311.72569 L92.9095089,211.226226 L44.788074,211.226226 L45.183813,44.8915598 L65.8883588,44.8915598 L65.8883588,141.922848 L93.4574553,141.922848 L93.4574553,17.1658354 L17.6799483,17.1658354 Z M211.758852,163.193671 L211.758852,454.758771 L190.929117,454.758771 L190.929117,211.787671 L163.147007,211.787671 L163.147007,482.529587 L239.539867,482.529587 L239.539867,163.193671 L211.758852,163.193671 Z M66.4478541,162.950347 L66.4478541,190.722258 L115.156194,190.722258 L115.156194,482.286264 L142.994079,482.286264 L142.994079,190.722258 L191.704615,190.722258 L191.704615,162.950347 L66.4478541,162.950347 Z M357.804909,482.186704 L386.022092,482.186704 L386.022092,211.714689 L357.804909,211.714689 L357.804909,482.186704 Z M309.574369,261.209002 L309.574369,309.687348 L260.963221,309.667683 L260.963221,482.817117 L337.35608,482.817117 L337.35608,261.209002 L309.574369,261.209002 Z M288.592967,336.914867 L309.239686,336.922556 L309.239686,455.289388 L288.592967,455.289388 L288.592967,336.914867 Z M406.714245,308.555149 L406.714245,482.67581 L483.104913,482.67581 L483.107105,308.555149 L406.714245,308.555149 Z M433.61402,336.914867 L454.260739,336.914867 L454.258567,455.287191 L433.61402,455.289388 L433.61402,336.914867 Z M17.6393065,333.696811 L17.6393065,409.756022 L66.2511516,409.753841 L66.2511516,454.693904 L45.4203208,454.693904 L45.4203208,430.494485 L17.6393065,430.494485 L17.6393065,482.353187 L94.0321659,482.353187 L94.0321659,382.093467 L45.4203208,382.095648 L45.4203208,361.356094 L94.0321659,361.356094 L94.0321659,333.696811 L17.6393065,333.696811 Z" id="Fill-1" fill="#020303" transform="translate(250.129882, 249.984888) rotate(-360.000000) translate(-250.129882, -249.984888) "></path>
        </g>
    </g>
</svg>