<?xml version="1.0" encoding="utf-8"?>
<!-- Generator: Adobe Illustrator 25.0.0, SVG Export Plug-In . SVG Version: 6.00 Build 0)  -->
<svg version="1.1" id="Layer_1" xmlns="http://www.w3.org/2000/svg" xmlns:xlink="http://www.w3.org/1999/xlink" x="0px" y="0px"
	 viewBox="0 0 24 24" style="enable-background:new 0 0 24 24;" xml:space="preserve">
<path d="M16.5,12c0,2.5-2,4.5-4.5,4.5c-2.5,0-4.5-2-4.5-4.5c0-2.5,2-4.5,4.5-4.5C14.5,7.6,16.5,9.6,16.5,12z M24,6.1v11.8
	c0,3.4-2.7,6.1-6.1,6.1H6.1C2.7,24,0,21.3,0,17.9V6.1C0,2.7,2.7,0,6.1,0h11.8C21.3,0,24,2.7,24,6.1z M18.9,12c0-3.8-3.1-6.9-6.9-6.9
	c-3.8,0-6.9,3.1-6.9,6.9c0,3.8,3.1,6.9,6.9,6.9C15.8,18.9,18.9,15.8,18.9,12z M20.8,4.9c0-0.9-0.7-1.6-1.6-1.6
	c-0.9,0-1.6,0.7-1.6,1.6c0,0.9,0.7,1.6,1.6,1.6C20.1,6.5,20.8,5.8,20.8,4.9z"/>
</svg>
