<?xml version="1.0" encoding="utf-8"?>
<!-- Generator: Adobe Illustrator 25.0.0, SVG Export Plug-In . SVG Version: 6.00 Build 0)  -->
<svg version="1.1" id="Layer_1" xmlns="http://www.w3.org/2000/svg" xmlns:xlink="http://www.w3.org/1999/xlink" x="0px" y="0px"
	 viewBox="0 0 24 24" style="enable-background:new 0 0 24 24;" xml:space="preserve">
<path d="M12,0C5.4,0,0,5.4,0,12s5.4,12,12,12s12-5.4,12-12S18.6,0,12,0z M16.2,12.4c-0.5,0.4-1,0.8-1.6,1.2
	c-0.5,0.4-1.1,0.7-1.6,1.1c-0.1,0.1-0.2,0.2-0.4,0.4c-0.1,0.1-0.1,0.3,0.1,0.4c0.2,0.1,0.3,0.1,0.4,0.2c0.5,0.3,1,0.5,1.5,0.9
	c0.4,0.3,0.5,0.9,0.3,1.4c-0.2,0.4-0.7,0.7-1.2,0.5c-0.6-0.2-1.1-0.5-1.6-0.8c-0.5-0.4-0.9-0.9-1.5-1.4c-0.2,0.7-0.4,1.3-0.6,1.9
	c-0.3,0.9-1.2,1.3-2,0.8c-0.4-0.2-0.6-0.8-0.4-1.4c0.2-0.6,0.3-1.2,0.5-1.8c0.1-0.3,0.1-0.5-0.2-0.8c-0.3-0.4-0.4-0.9-0.2-1.3
	c0.1-0.3,0.4-0.6,0.6-0.7c0.3-0.1,0.4-0.3,0.5-0.6c0.7-2.6,1.5-5.2,2.3-7.9c0.1-0.5,0.5-0.8,1-0.8c1.2-0.2,2.3,0.8,2.2,2.1
	c0,0.1,0,0.3,0.1,0.4c0.4,0.4,0.3,0.8,0.1,1.3c-0.5,0.9-1,1.9-1.5,2.8c-0.2,0.3-0.5,0.9-0.7,1.2c0.1,0,0.1,0,0.2-0.1
	c0.6-0.2,1.2-0.3,1.9-0.4c0.5,0,1,0,1.5,0.2C16.7,11.3,16.7,11.9,16.2,12.4z"/>
</svg>
