<svg width="300" height="300" viewBox="0 0 300 300" fill="none" xmlns="http://www.w3.org/2000/svg">
<rect width="300" height="300" rx="8" fill="white"/>
<path d="M66.3207 41.1367C65.4132 41.2502 64.9291 43.8857 64.1862 44.6942C61.4236 47.7005 59.1955 51.2278 57.8224 55.0898C53.8864 66.1597 52.8025 75.9042 52.8025 87.5415C52.8025 95.1108 52.5512 102.557 54.2254 109.993C56.0405 118.054 58.527 125.824 61.3008 133.591C63.4055 139.484 65.446 145.358 68.139 151.022C71.3088 157.69 76.2424 162.396 81.1038 167.781C98.7311 187.307 126.962 199.087 153.122 199.087" stroke="black" stroke-width="1.5"/>
<path d="M67.0312 38.2908C73.5679 37.6965 79.8135 33.0177 86.5972 34.0614C93.0758 35.0581 99.5559 47.2171 102.527 52.0857C106.354 58.3582 111.212 64.9799 113.555 72.0074C114.303 74.2538 116.242 80.2806 113.278 81.8496C110.839 83.1407 106.741 82.403 104.029 82.403" stroke="black" stroke-width="1.5"/>
<path d="M102.607 82.403C97.722 82.403 92.7292 82.0288 88.0214 83.0749C86.0415 83.5149 86.9542 89.3795 86.9542 91.2966C86.9542 95.6257 89.964 100.011 91.2231 104.103C92.8337 109.338 93.6001 115.562 95.8478 120.507C98.9009 127.224 100.908 133.749 106.322 139.164C111.767 144.608 117.45 150.881 124.11 154.817C128.995 157.703 136.203 160.152 141.739 161.536C145.948 162.588 150.192 163.513 154.545 163.513" stroke="black" stroke-width="1.5"/>
<path d="M154.544 163.513C154.544 158.261 153.833 153.413 153.833 148.255C153.833 144.133 160.622 142.168 163.794 142.168C170.91 142.168 175.538 147.414 179.091 152.88C181.225 156.164 183.043 159.69 184.427 163.354C186.451 168.714 185.772 175.615 186.719 181.3C187.841 188.027 184.537 199.798 175.889 199.798C167.542 199.798 158.81 200.51 150.275 200.51" stroke="black" stroke-width="1.5"/>
<path d="M163.082 195.529C163.082 214.752 179.175 228.949 197.866 229.641C203.847 229.863 208.303 231.404 207.036 224.147C205.855 217.38 197.434 215.451 191.7 215.451C187.53 215.451 186.915 217.745 186.205 221.578C184.305 231.841 189.726 242.215 199.052 246.954C206.464 250.721 215.313 252.448 223.558 252.448C229.136 252.448 233.039 252.697 235.654 247.468" stroke="black" stroke-width="1.5"/>
</svg>
