<svg width="343" height="72" viewBox="0 0 343 72" fill="none" xmlns="http://www.w3.org/2000/svg">
<path d="M7.54297 59.1318H310.793" stroke="#FF7318" stroke-width="14.7207" stroke-linecap="round"/>
<path d="M323.187 6.22754V8.49227H332.914L322.055 19.3516L323.651 20.9483L334.511 10.0889V19.8159H336.775V6.22754H323.187Z" fill="white"/>
<mask id="path-3-outside-1_340_56214" maskUnits="userSpaceOnUse" x="6" y="8" width="310" height="64" fill="black">
<rect fill="white" x="6" y="8" width="310" height="64"/>
<path d="M8.33971 57L27.7598 11.1393H37.6113L56.8049 57H46.9533L42.254 45.7896H22.6641L17.8516 57H8.33971ZM25.6649 37.7498H39.6496L32.7988 21.2173H32.5157L25.6649 37.7498ZM75.082 57.6794C71.5339 57.6794 68.4199 56.9623 65.74 55.5279C63.0978 54.0559 61.0218 51.9987 59.512 49.3565C58.0399 46.7144 57.3038 43.6004 57.3038 40.0145C57.3038 36.4287 58.0399 33.3147 59.512 30.6725C60.984 28.0303 63.06 25.9921 65.74 24.5578C68.4199 23.0857 71.5339 22.3497 75.082 22.3497C79.5737 22.3497 83.2727 23.482 86.1791 25.7467C89.0855 28.0115 90.9162 31.1255 91.6711 35.0888H82.2159C81.7252 33.6167 80.8759 32.4843 79.668 31.6917C78.4602 30.899 76.9315 30.5027 75.082 30.5027C72.553 30.5027 70.5148 31.3331 68.9672 32.9939C67.4574 34.6547 66.7025 36.9949 66.7025 40.0145C66.7025 43.0342 67.4762 45.3744 69.0238 47.0352C70.5714 48.696 72.5908 49.5264 75.082 49.5264C79.083 49.5264 81.5176 47.8279 82.3857 44.4308H91.841C91.1615 48.5828 89.3686 51.8289 86.4622 54.1691C83.5558 56.5093 79.7624 57.6794 75.082 57.6794ZM109.754 57.6794C104.772 57.6794 100.828 56.6414 97.9212 54.5654C95.0526 52.4517 93.505 49.5075 93.2785 45.733H102.337C102.639 47.356 103.413 48.5639 104.659 49.3565C105.942 50.1492 107.773 50.5455 110.151 50.5455C114.039 50.5455 115.982 49.4698 115.982 47.3183C115.982 46.4501 115.68 45.7707 115.077 45.28C114.51 44.7516 113.548 44.3553 112.189 44.091L104.602 42.619C97.808 41.2979 94.4109 38.1084 94.4109 33.0505C94.4109 29.8044 95.7131 27.2188 98.3175 25.2938C100.922 23.331 104.527 22.3497 109.132 22.3497C113.699 22.3497 117.322 23.3499 120.002 25.3504C122.682 27.3509 124.154 30.1441 124.419 33.7299H115.36C114.944 32.1446 114.208 30.9934 113.152 30.2762C112.095 29.559 110.566 29.2005 108.565 29.2005C106.829 29.2005 105.508 29.4647 104.602 29.9931C103.696 30.4838 103.243 31.2387 103.243 32.2578C103.243 32.975 103.526 33.5789 104.093 34.0696C104.659 34.5603 105.527 34.9189 106.697 35.1454L114.454 36.6174C118.002 37.3346 120.606 38.4858 122.267 40.0712C123.928 41.6565 124.758 43.808 124.758 46.5256C124.758 50.036 123.456 52.7725 120.852 54.7353C118.285 56.698 114.586 57.6794 109.754 57.6794ZM131.398 70.5884V32.3145H126.755V23.0291H136.267V28.5777H138.645C139.853 26.6149 141.457 25.0862 143.457 23.9916C145.496 22.897 147.949 22.3497 150.818 22.3497C154.328 22.3497 157.291 23.0857 159.707 24.5578C162.122 26.0298 163.953 28.087 165.199 30.7292C166.444 33.3713 167.067 36.4665 167.067 40.0145C167.067 43.5626 166.463 46.6766 165.255 49.3565C164.047 51.9987 162.292 54.0559 159.99 55.5279C157.687 56.9623 154.894 57.6794 151.61 57.6794C149.119 57.6794 146.986 57.2265 145.212 56.3206C143.438 55.3769 142.042 54.0559 141.023 52.3573H140.796V70.5884H131.398ZM149.062 49.5264C151.931 49.5264 154.083 48.6771 155.517 46.9786C156.951 45.28 157.668 42.9587 157.668 40.0145C157.668 37.0704 156.951 34.749 155.517 33.0505C154.083 31.352 151.931 30.5027 149.062 30.5027C146.534 30.5027 144.514 31.2198 143.004 32.6542C141.532 34.0508 140.796 35.9946 140.796 38.4858V41.5432C140.796 44.0344 141.532 45.9972 143.004 47.4315C144.514 48.8281 146.534 49.5264 149.062 49.5264ZM171.725 57V9.44071H181.123V57H171.725ZM204.026 57.6794C200.327 57.6794 197.1 56.9623 194.345 55.5279C191.627 54.0559 189.513 51.9987 188.003 49.3565C186.494 46.7144 185.739 43.5815 185.739 39.9579C185.739 36.3721 186.475 33.2581 187.947 30.6159C189.457 27.9737 191.589 25.9355 194.345 24.5011C197.1 23.0668 200.346 22.3497 204.083 22.3497C207.782 22.3497 210.99 23.0668 213.708 24.5011C216.426 25.9355 218.521 27.9737 219.993 30.6159C221.465 33.2581 222.201 36.391 222.201 40.0145C222.201 43.6004 221.465 46.7332 219.993 49.4132C218.521 52.0553 216.407 54.0936 213.651 55.5279C210.934 56.9623 207.725 57.6794 204.026 57.6794ZM204.026 49.5264C206.857 49.5264 209.028 48.6771 210.537 46.9786C212.047 45.2423 212.802 42.9021 212.802 39.9579C212.802 37.0138 212.047 34.7113 210.537 33.0505C209.028 31.352 206.857 30.5027 204.026 30.5027C201.158 30.5027 198.95 31.352 197.402 33.0505C195.892 34.7113 195.137 37.0138 195.137 39.9579C195.137 42.9021 195.892 45.2423 197.402 46.9786C198.95 48.6771 201.158 49.5264 204.026 49.5264ZM229.627 57V32.3145H224.984V23.0291H234.496V29.71H236.874C237.78 27.3321 239.214 25.558 241.177 24.3879C243.14 23.2178 245.348 22.6327 247.801 22.6327H250.689V30.7858H247.405C244.461 30.7858 242.29 31.6162 240.894 33.277C239.535 34.9378 238.855 37.127 238.855 39.8447V57H229.627ZM269.145 57.6794C265.484 57.6794 262.294 56.9623 259.577 55.5279C256.859 54.0559 254.764 51.9987 253.292 49.3565C251.82 46.6766 251.084 43.5249 251.084 39.9013C251.084 36.2777 251.801 33.1637 253.236 30.5593C254.67 27.9171 256.708 25.8977 259.35 24.5011C262.03 23.0668 265.182 22.3497 268.806 22.3497C272.354 22.3497 275.392 23.0291 277.921 24.3879C280.488 25.7467 282.451 27.6906 283.809 30.2196C285.168 32.7485 285.848 35.7682 285.848 39.2785V42.4491H260.086C260.464 44.9781 261.426 46.9031 262.974 48.2242C264.521 49.5453 266.56 50.2058 269.089 50.2058C271.089 50.2058 272.674 49.8661 273.845 49.1867C275.015 48.5073 275.845 47.4693 276.336 46.0727H285.734C284.98 49.6963 283.149 52.546 280.242 54.622C277.336 56.6603 273.637 57.6794 269.145 57.6794ZM260.313 36.2211H276.845C276.543 34.0696 275.713 32.4654 274.354 31.4086C272.995 30.314 271.165 29.7666 268.862 29.7666C266.56 29.7666 264.672 30.314 263.2 31.4086C261.766 32.5032 260.804 34.1074 260.313 36.2211ZM293.247 57V32.3145H288.604V23.0291H298.116V29.71H300.494C301.4 27.3321 302.834 25.558 304.797 24.3879C306.76 23.2178 308.968 22.6327 311.421 22.6327H314.309V30.7858H311.025C308.081 30.7858 305.911 31.6162 304.514 33.277C303.155 34.9378 302.476 37.127 302.476 39.8447V57H293.247Z"/>
</mask>
<path d="M8.33971 57L27.7598 11.1393H37.6113L56.8049 57H46.9533L42.254 45.7896H22.6641L17.8516 57H8.33971ZM25.6649 37.7498H39.6496L32.7988 21.2173H32.5157L25.6649 37.7498ZM75.082 57.6794C71.5339 57.6794 68.4199 56.9623 65.74 55.5279C63.0978 54.0559 61.0218 51.9987 59.512 49.3565C58.0399 46.7144 57.3038 43.6004 57.3038 40.0145C57.3038 36.4287 58.0399 33.3147 59.512 30.6725C60.984 28.0303 63.06 25.9921 65.74 24.5578C68.4199 23.0857 71.5339 22.3497 75.082 22.3497C79.5737 22.3497 83.2727 23.482 86.1791 25.7467C89.0855 28.0115 90.9162 31.1255 91.6711 35.0888H82.2159C81.7252 33.6167 80.8759 32.4843 79.668 31.6917C78.4602 30.899 76.9315 30.5027 75.082 30.5027C72.553 30.5027 70.5148 31.3331 68.9672 32.9939C67.4574 34.6547 66.7025 36.9949 66.7025 40.0145C66.7025 43.0342 67.4762 45.3744 69.0238 47.0352C70.5714 48.696 72.5908 49.5264 75.082 49.5264C79.083 49.5264 81.5176 47.8279 82.3857 44.4308H91.841C91.1615 48.5828 89.3686 51.8289 86.4622 54.1691C83.5558 56.5093 79.7624 57.6794 75.082 57.6794ZM109.754 57.6794C104.772 57.6794 100.828 56.6414 97.9212 54.5654C95.0526 52.4517 93.505 49.5075 93.2785 45.733H102.337C102.639 47.356 103.413 48.5639 104.659 49.3565C105.942 50.1492 107.773 50.5455 110.151 50.5455C114.039 50.5455 115.982 49.4698 115.982 47.3183C115.982 46.4501 115.68 45.7707 115.077 45.28C114.51 44.7516 113.548 44.3553 112.189 44.091L104.602 42.619C97.808 41.2979 94.4109 38.1084 94.4109 33.0505C94.4109 29.8044 95.7131 27.2188 98.3175 25.2938C100.922 23.331 104.527 22.3497 109.132 22.3497C113.699 22.3497 117.322 23.3499 120.002 25.3504C122.682 27.3509 124.154 30.1441 124.419 33.7299H115.36C114.944 32.1446 114.208 30.9934 113.152 30.2762C112.095 29.559 110.566 29.2005 108.565 29.2005C106.829 29.2005 105.508 29.4647 104.602 29.9931C103.696 30.4838 103.243 31.2387 103.243 32.2578C103.243 32.975 103.526 33.5789 104.093 34.0696C104.659 34.5603 105.527 34.9189 106.697 35.1454L114.454 36.6174C118.002 37.3346 120.606 38.4858 122.267 40.0712C123.928 41.6565 124.758 43.808 124.758 46.5256C124.758 50.036 123.456 52.7725 120.852 54.7353C118.285 56.698 114.586 57.6794 109.754 57.6794ZM131.398 70.5884V32.3145H126.755V23.0291H136.267V28.5777H138.645C139.853 26.6149 141.457 25.0862 143.457 23.9916C145.496 22.897 147.949 22.3497 150.818 22.3497C154.328 22.3497 157.291 23.0857 159.707 24.5578C162.122 26.0298 163.953 28.087 165.199 30.7292C166.444 33.3713 167.067 36.4665 167.067 40.0145C167.067 43.5626 166.463 46.6766 165.255 49.3565C164.047 51.9987 162.292 54.0559 159.99 55.5279C157.687 56.9623 154.894 57.6794 151.61 57.6794C149.119 57.6794 146.986 57.2265 145.212 56.3206C143.438 55.3769 142.042 54.0559 141.023 52.3573H140.796V70.5884H131.398ZM149.062 49.5264C151.931 49.5264 154.083 48.6771 155.517 46.9786C156.951 45.28 157.668 42.9587 157.668 40.0145C157.668 37.0704 156.951 34.749 155.517 33.0505C154.083 31.352 151.931 30.5027 149.062 30.5027C146.534 30.5027 144.514 31.2198 143.004 32.6542C141.532 34.0508 140.796 35.9946 140.796 38.4858V41.5432C140.796 44.0344 141.532 45.9972 143.004 47.4315C144.514 48.8281 146.534 49.5264 149.062 49.5264ZM171.725 57V9.44071H181.123V57H171.725ZM204.026 57.6794C200.327 57.6794 197.1 56.9623 194.345 55.5279C191.627 54.0559 189.513 51.9987 188.003 49.3565C186.494 46.7144 185.739 43.5815 185.739 39.9579C185.739 36.3721 186.475 33.2581 187.947 30.6159C189.457 27.9737 191.589 25.9355 194.345 24.5011C197.1 23.0668 200.346 22.3497 204.083 22.3497C207.782 22.3497 210.99 23.0668 213.708 24.5011C216.426 25.9355 218.521 27.9737 219.993 30.6159C221.465 33.2581 222.201 36.391 222.201 40.0145C222.201 43.6004 221.465 46.7332 219.993 49.4132C218.521 52.0553 216.407 54.0936 213.651 55.5279C210.934 56.9623 207.725 57.6794 204.026 57.6794ZM204.026 49.5264C206.857 49.5264 209.028 48.6771 210.537 46.9786C212.047 45.2423 212.802 42.9021 212.802 39.9579C212.802 37.0138 212.047 34.7113 210.537 33.0505C209.028 31.352 206.857 30.5027 204.026 30.5027C201.158 30.5027 198.95 31.352 197.402 33.0505C195.892 34.7113 195.137 37.0138 195.137 39.9579C195.137 42.9021 195.892 45.2423 197.402 46.9786C198.95 48.6771 201.158 49.5264 204.026 49.5264ZM229.627 57V32.3145H224.984V23.0291H234.496V29.71H236.874C237.78 27.3321 239.214 25.558 241.177 24.3879C243.14 23.2178 245.348 22.6327 247.801 22.6327H250.689V30.7858H247.405C244.461 30.7858 242.29 31.6162 240.894 33.277C239.535 34.9378 238.855 37.127 238.855 39.8447V57H229.627ZM269.145 57.6794C265.484 57.6794 262.294 56.9623 259.577 55.5279C256.859 54.0559 254.764 51.9987 253.292 49.3565C251.82 46.6766 251.084 43.5249 251.084 39.9013C251.084 36.2777 251.801 33.1637 253.236 30.5593C254.67 27.9171 256.708 25.8977 259.35 24.5011C262.03 23.0668 265.182 22.3497 268.806 22.3497C272.354 22.3497 275.392 23.0291 277.921 24.3879C280.488 25.7467 282.451 27.6906 283.809 30.2196C285.168 32.7485 285.848 35.7682 285.848 39.2785V42.4491H260.086C260.464 44.9781 261.426 46.9031 262.974 48.2242C264.521 49.5453 266.56 50.2058 269.089 50.2058C271.089 50.2058 272.674 49.8661 273.845 49.1867C275.015 48.5073 275.845 47.4693 276.336 46.0727H285.734C284.98 49.6963 283.149 52.546 280.242 54.622C277.336 56.6603 273.637 57.6794 269.145 57.6794ZM260.313 36.2211H276.845C276.543 34.0696 275.713 32.4654 274.354 31.4086C272.995 30.314 271.165 29.7666 268.862 29.7666C266.56 29.7666 264.672 30.314 263.2 31.4086C261.766 32.5032 260.804 34.1074 260.313 36.2211ZM293.247 57V32.3145H288.604V23.0291H298.116V29.71H300.494C301.4 27.3321 302.834 25.558 304.797 24.3879C306.76 23.2178 308.968 22.6327 311.421 22.6327H314.309V30.7858H311.025C308.081 30.7858 305.911 31.6162 304.514 33.277C303.155 34.9378 302.476 37.127 302.476 39.8447V57H293.247Z" fill="white"/>
<path d="M8.33971 57L7.29698 56.5584L6.6305 58.1324H8.33971V57ZM27.7598 11.1393V10.0069H27.0096L26.717 10.6977L27.7598 11.1393ZM37.6113 11.1393L38.6559 10.7021L38.3649 10.0069H37.6113V11.1393ZM56.8049 57V58.1324H58.5063L57.8495 56.5628L56.8049 57ZM46.9533 57L45.909 57.4378L46.2002 58.1324H46.9533V57ZM42.254 45.7896L43.2983 45.3518L43.0072 44.6572H42.254V45.7896ZM22.6641 45.7896V44.6572H21.9179L21.6236 45.3429L22.6641 45.7896ZM17.8516 57V58.1324H18.5978L18.8921 57.4467L17.8516 57ZM25.6649 37.7498L24.6188 37.3163L23.9699 38.8822H25.6649V37.7498ZM39.6496 37.7498V38.8822H41.3445L40.6957 37.3163L39.6496 37.7498ZM32.7988 21.2173L33.8449 20.7838L33.5553 20.0849H32.7988V21.2173ZM32.5157 21.2173V20.0849H31.7592L31.4696 20.7838L32.5157 21.2173ZM8.33971 57L9.38244 57.4416L28.8025 11.5808L27.7598 11.1393L26.717 10.6977L7.29698 56.5584L8.33971 57ZM27.7598 11.1393V12.2716H37.6113V11.1393V10.0069H27.7598V11.1393ZM37.6113 11.1393L36.5668 11.5764L55.7603 57.4372L56.8049 57L57.8495 56.5628L38.6559 10.7021L37.6113 11.1393ZM56.8049 57V55.8676H46.9533V57V58.1324H56.8049V57ZM46.9533 57L47.9976 56.5622L43.2983 45.3518L42.254 45.7896L41.2097 46.2274L45.909 57.4378L46.9533 57ZM42.254 45.7896V44.6572H22.6641V45.7896V46.922H42.254V45.7896ZM22.6641 45.7896L21.6236 45.3429L16.811 56.5533L17.8516 57L18.8921 57.4467L23.7047 46.2363L22.6641 45.7896ZM17.8516 57V55.8676H8.33971V57V58.1324H17.8516V57ZM25.6649 37.7498V38.8822H39.6496V37.7498V36.6174H25.6649V37.7498ZM39.6496 37.7498L40.6957 37.3163L33.8449 20.7838L32.7988 21.2173L31.7527 21.6508L38.6035 38.1833L39.6496 37.7498ZM32.7988 21.2173V20.0849H32.5157V21.2173V22.3497H32.7988V21.2173ZM32.5157 21.2173L31.4696 20.7838L24.6188 37.3163L25.6649 37.7498L26.711 38.1833L33.5618 21.6508L32.5157 21.2173ZM65.74 55.5279L65.1888 56.5171L65.1972 56.5218L65.2056 56.5263L65.74 55.5279ZM59.512 49.3565L58.5227 49.9077L58.5288 49.9184L59.512 49.3565ZM59.512 30.6725L60.5012 31.2237L60.5012 31.2237L59.512 30.6725ZM65.74 24.5578L66.2743 25.5562L66.2851 25.5503L65.74 24.5578ZM86.1791 25.7467L86.8751 24.8535L86.8751 24.8535L86.1791 25.7467ZM91.6711 35.0888V36.2211H93.0395L92.7835 34.8769L91.6711 35.0888ZM82.2159 35.0888L81.1416 35.4468L81.3997 36.2211H82.2159V35.0888ZM79.668 31.6917L79.0468 32.6384L79.0468 32.6384L79.668 31.6917ZM68.9672 32.9939L68.1387 32.2219L68.1293 32.2322L68.9672 32.9939ZM69.0238 47.0352L69.8523 46.2632L69.8523 46.2632L69.0238 47.0352ZM82.3857 44.4308V43.2984H81.5063L81.2886 44.1504L82.3857 44.4308ZM91.841 44.4308L92.9585 44.6136L93.1737 43.2984H91.841V44.4308ZM86.4622 54.1691L85.7521 53.2871L85.752 53.2871L86.4622 54.1691ZM75.082 57.6794V56.5471C71.689 56.5471 68.7643 55.8623 66.2743 54.5296L65.74 55.5279L65.2056 56.5263C68.0754 58.0623 71.3787 58.8118 75.082 58.8118V57.6794ZM65.74 55.5279L66.2911 54.5387C63.8303 53.1677 61.9032 51.2589 60.4951 48.7947L59.512 49.3565L58.5288 49.9184C60.1403 52.7385 62.3652 54.944 65.1888 56.5171L65.74 55.5279ZM59.512 49.3565L60.5012 48.8054C59.139 46.3605 58.4362 43.4433 58.4362 40.0145H57.3038H56.1715C56.1715 43.7574 56.9408 47.0682 58.5228 49.9077L59.512 49.3565ZM57.3038 40.0145H58.4362C58.4362 36.5858 59.139 33.6686 60.5012 31.2237L59.512 30.6725L58.5228 30.1214C56.9408 32.9609 56.1715 36.2717 56.1715 40.0145H57.3038ZM59.512 30.6725L60.5012 31.2237C61.867 28.7721 63.7847 26.8886 66.2743 25.5561L65.74 24.5578L65.2056 23.5594C62.3354 25.0956 60.101 27.2886 58.5228 30.1214L59.512 30.6725ZM65.74 24.5578L66.2851 25.5503C68.7729 24.1837 71.6937 23.482 75.082 23.482V22.3497V21.2173C71.3741 21.2173 68.0668 21.9877 65.1948 23.5653L65.74 24.5578ZM75.082 22.3497V23.482C79.3783 23.482 82.8162 24.5618 85.4831 26.64L86.1791 25.7467L86.8751 24.8535C83.7293 22.4022 79.769 21.2173 75.082 21.2173V22.3497ZM86.1791 25.7467L85.4831 26.64C88.1514 28.7191 89.85 31.5798 90.5587 35.3006L91.6711 35.0888L92.7835 34.8769C91.9824 30.6711 90.0197 27.3038 86.8751 24.8535L86.1791 25.7467ZM91.6711 35.0888V33.9564H82.2159V35.0888V36.2211H91.6711V35.0888ZM82.2159 35.0888L83.2901 34.7307C82.7253 33.0362 81.7263 31.688 80.2893 30.745L79.668 31.6917L79.0468 32.6384C80.0255 33.2807 80.7251 34.1972 81.1416 35.4468L82.2159 35.0888ZM79.668 31.6917L80.2893 30.745C78.8515 29.8014 77.0909 29.3703 75.082 29.3703V30.5027V31.635C76.7721 31.635 78.0688 31.9966 79.0468 32.6384L79.668 31.6917ZM75.082 30.5027V29.3703C72.2785 29.3703 69.9261 30.3038 68.1387 32.2219L68.9672 32.9939L69.7956 33.7658C71.1034 32.3624 72.8275 31.635 75.082 31.635V30.5027ZM68.9672 32.9939L68.1293 32.2322C66.3727 34.1645 65.5701 36.812 65.5701 40.0145H66.7025H67.8348C67.8348 37.1778 68.5421 35.1449 69.8051 33.7556L68.9672 32.9939ZM66.7025 40.0145H65.5701C65.5701 43.2239 66.3952 45.8753 68.1954 47.8072L69.0238 47.0352L69.8523 46.2632C68.5573 44.8735 67.8348 42.8445 67.8348 40.0145H66.7025ZM69.0238 47.0352L68.1954 47.8072C69.9793 49.7216 72.3106 50.6588 75.082 50.6588V49.5264V48.394C72.8709 48.394 71.1635 47.6704 69.8523 46.2632L69.0238 47.0352ZM75.082 49.5264V50.6588C77.2351 50.6588 79.0933 50.202 80.5566 49.1812C82.0355 48.1494 82.9944 46.6225 83.4828 44.7111L82.3857 44.4308L81.2886 44.1504C80.9089 45.6361 80.2164 46.6571 79.2607 47.3238C78.2894 48.0015 76.9298 48.394 75.082 48.394V49.5264ZM82.3857 44.4308V45.5631H91.841V44.4308V43.2984H82.3857V44.4308ZM91.841 44.4308L90.7235 44.2479C90.0829 48.1623 88.4132 51.1443 85.7521 53.2871L86.4622 54.1691L87.1724 55.0511C90.324 52.5134 92.2402 49.0032 92.9585 44.6136L91.841 44.4308ZM86.4622 54.1691L85.752 53.2871C83.0936 55.4276 79.5713 56.5471 75.082 56.5471V57.6794V58.8118C79.9535 58.8118 84.018 57.591 87.1724 55.0511L86.4622 54.1691ZM97.9212 54.5654L97.2495 55.477L97.2562 55.482L97.263 55.4869L97.9212 54.5654ZM93.2785 45.733V44.6006H92.0762L92.1482 45.8008L93.2785 45.733ZM102.337 45.733L103.451 45.5259L103.279 44.6006H102.337V45.733ZM104.659 49.3565L104.051 50.3119L104.057 50.316L104.064 50.32L104.659 49.3565ZM115.077 45.28L114.304 46.1079L114.332 46.1344L114.362 46.1589L115.077 45.28ZM112.189 44.091L112.405 42.9795L112.405 42.9794L112.189 44.091ZM104.602 42.619L104.386 43.7305L104.386 43.7306L104.602 42.619ZM98.3175 25.2938L98.9906 26.2045L98.9991 26.1981L98.3175 25.2938ZM120.002 25.3504L119.325 26.2578L120.002 25.3504ZM124.419 33.7299V34.8623H125.637L125.548 33.6467L124.419 33.7299ZM115.36 33.7299L114.264 34.0168L114.486 34.8623H115.36V33.7299ZM113.152 30.2762L113.787 29.3392L113.787 29.3392L113.152 30.2762ZM104.602 29.9931L105.141 30.9888L105.157 30.9803L105.173 30.9712L104.602 29.9931ZM104.093 34.0696L104.834 33.2139L104.834 33.2139L104.093 34.0696ZM106.697 35.1454L106.482 36.2571L106.486 36.2579L106.697 35.1454ZM114.454 36.6174L114.678 35.5074L114.665 35.5049L114.454 36.6174ZM122.267 40.0712L121.485 40.8903L122.267 40.0712ZM120.852 54.7353L120.17 53.8309L120.164 53.8358L120.852 54.7353ZM109.754 57.6794V56.5471C104.917 56.5471 101.231 55.5382 98.5794 53.644L97.9212 54.5654L97.263 55.4869C100.424 57.7447 104.627 58.8118 109.754 58.8118V57.6794ZM97.9212 54.5654L98.5929 53.6538C96.0131 51.7529 94.6166 49.1278 94.4089 45.6652L93.2785 45.733L92.1482 45.8008C92.3934 49.8872 94.092 53.1504 97.2495 55.477L97.9212 54.5654ZM93.2785 45.733V46.8653H102.337V45.733V44.6006H93.2785V45.733ZM102.337 45.733L101.224 45.9401C101.576 47.8315 102.508 49.3298 104.051 50.3119L104.659 49.3565L105.267 48.4012C104.319 47.798 103.703 46.8806 103.451 45.5259L102.337 45.733ZM104.659 49.3565L104.064 50.32C105.601 51.2695 107.673 51.6779 110.151 51.6779V50.5455V49.4132C107.872 49.4132 106.283 49.0289 105.254 48.3931L104.659 49.3565ZM110.151 50.5455V51.6779C112.162 51.6779 113.85 51.406 115.073 50.7295C115.701 50.3817 116.225 49.9163 116.588 49.3145C116.952 48.7108 117.115 48.0322 117.115 47.3183H115.982H114.85C114.85 47.6801 114.77 47.9428 114.648 48.1459C114.524 48.3509 114.32 48.5578 113.976 48.7479C113.255 49.1471 112.027 49.4132 110.151 49.4132V50.5455ZM115.982 47.3183H117.115C117.115 46.1538 116.692 45.1336 115.791 44.4012L115.077 45.28L114.362 46.1589C114.669 46.4079 114.85 46.7464 114.85 47.3183H115.982ZM115.077 45.28L115.849 44.4522C115.048 43.7045 113.83 43.2566 112.405 42.9795L112.189 44.091L111.973 45.2026C113.265 45.4539 113.973 45.7987 114.304 46.1079L115.077 45.28ZM112.189 44.091L112.405 42.9794L104.818 41.5073L104.602 42.619L104.386 43.7306L111.973 45.2027L112.189 44.091ZM104.602 42.619L104.818 41.5074C101.536 40.8691 99.2185 39.8045 97.7338 38.4105C96.284 37.0494 95.5432 35.2965 95.5432 33.0505H94.4109H93.2785C93.2785 35.8624 94.2363 38.2332 96.1836 40.0616C98.096 41.857 100.875 43.0478 104.386 43.7305L104.602 42.619ZM94.4109 33.0505H95.5432C95.5432 30.1626 96.6758 27.9153 98.9906 26.2044L98.3175 25.2938L97.6445 24.3832C94.7504 26.5223 93.2785 29.4462 93.2785 33.0505H94.4109ZM98.3175 25.2938L98.9991 26.1981C101.341 24.4334 104.674 23.482 109.132 23.482V22.3497V21.2173C104.379 21.2173 100.503 22.2287 97.636 24.3895L98.3175 25.2938ZM109.132 22.3497V23.482C113.543 23.482 116.901 24.4484 119.325 26.2578L120.002 25.3504L120.68 24.443C117.744 22.2514 113.855 21.2173 109.132 21.2173V22.3497ZM120.002 25.3504L119.325 26.2578C121.72 28.046 123.047 30.5267 123.289 33.8131L124.419 33.7299L125.548 33.6467C125.262 29.7615 123.644 26.6559 120.68 24.443L120.002 25.3504ZM124.419 33.7299V32.5976H115.36V33.7299V34.8623H124.419V33.7299ZM115.36 33.7299L116.455 33.443C115.991 31.6696 115.129 30.2498 113.787 29.3392L113.152 30.2762L112.516 31.2132C113.287 31.7369 113.898 32.6196 114.264 34.0168L115.36 33.7299ZM113.152 30.2762L113.787 29.3392C112.464 28.4414 110.674 28.0681 108.565 28.0681V29.2005V30.3328C110.458 30.3328 111.725 30.6767 112.516 31.2132L113.152 30.2762ZM108.565 29.2005V28.0681C106.746 28.0681 105.19 28.3395 104.032 29.015L104.602 29.9931L105.173 30.9712C105.827 30.5898 106.913 30.3328 108.565 30.3328V29.2005ZM104.602 29.9931L104.063 28.9974C103.462 29.3227 102.959 29.7657 102.612 30.3447C102.264 30.9243 102.111 31.5759 102.111 32.2578H103.243H104.376C104.376 31.9207 104.449 31.6852 104.554 31.5099C104.66 31.334 104.836 31.1542 105.141 30.9888L104.602 29.9931ZM103.243 32.2578H102.111C102.111 33.3198 102.549 34.2305 103.351 34.9253L104.093 34.0696L104.834 33.2139C104.504 32.9273 104.376 32.6302 104.376 32.2578H103.243ZM104.093 34.0696L103.351 34.9253C104.131 35.6013 105.221 36.0131 106.482 36.2571L106.697 35.1454L106.912 34.0336C105.833 33.8247 105.187 33.5194 104.834 33.2139L104.093 34.0696ZM106.697 35.1454L106.486 36.2579L114.243 37.73L114.454 36.6174L114.665 35.5049L106.908 34.0329L106.697 35.1454ZM114.454 36.6174L114.229 37.7274C117.678 38.4245 120.044 39.5148 121.485 40.8903L122.267 40.0712L123.049 39.2521C121.168 37.4569 118.325 36.2447 114.678 35.5075L114.454 36.6174ZM122.267 40.0712L121.485 40.8903C122.881 42.2228 123.626 44.0559 123.626 46.5256H124.758H125.891C125.891 43.5601 124.974 41.0901 123.049 39.2521L122.267 40.0712ZM124.758 46.5256H123.626C123.626 49.712 122.466 52.1004 120.17 53.831L120.852 54.7353L121.533 55.6396C124.446 53.4446 125.891 50.36 125.891 46.5256H124.758ZM120.852 54.7353L120.164 53.8358C117.871 55.589 114.455 56.5471 109.754 56.5471V57.6794V58.8118C114.717 58.8118 118.699 57.807 121.539 55.6348L120.852 54.7353ZM131.398 70.5884H130.265V71.7207H131.398V70.5884ZM131.398 32.3145H132.53V31.1821H131.398V32.3145ZM126.755 32.3145H125.623V33.4468H126.755V32.3145ZM126.755 23.0291V21.8967H125.623V23.0291H126.755ZM136.267 23.0291H137.399V21.8967H136.267V23.0291ZM136.267 28.5777H135.134V29.71H136.267V28.5777ZM138.645 28.5777V29.71H139.278L139.609 29.1711L138.645 28.5777ZM143.457 23.9916L142.922 22.9939L142.914 22.9982L143.457 23.9916ZM159.707 24.5578L160.296 23.5908L160.296 23.5908L159.707 24.5578ZM165.199 30.7292L166.223 30.2463L166.223 30.2463L165.199 30.7292ZM165.255 49.3565L166.285 49.8273L166.288 49.8218L165.255 49.3565ZM159.99 55.5279L160.589 56.4891L160.6 56.482L159.99 55.5279ZM145.212 56.3206L144.681 57.3203L144.689 57.3248L144.697 57.3291L145.212 56.3206ZM141.023 52.3573L141.994 51.7747L141.664 51.2249H141.023V52.3573ZM140.796 52.3573V51.2249H139.664V52.3573H140.796ZM140.796 70.5884V71.7207H141.929V70.5884H140.796ZM155.517 46.9786L154.652 46.248L154.652 46.248L155.517 46.9786ZM155.517 33.0505L156.382 32.3199L156.382 32.3199L155.517 33.0505ZM143.004 32.6542L143.784 33.4757L143.784 33.4751L143.004 32.6542ZM143.004 47.4315L142.214 48.2426L142.225 48.2528L142.235 48.2628L143.004 47.4315ZM131.398 70.5884H132.53V32.3145H131.398H130.265V70.5884H131.398ZM131.398 32.3145V31.1821H126.755V32.3145V33.4468H131.398V32.3145ZM126.755 32.3145H127.887V23.0291H126.755H125.623V32.3145H126.755ZM126.755 23.0291V24.1614H136.267V23.0291V21.8967H126.755V23.0291ZM136.267 23.0291H135.134V28.5777H136.267H137.399V23.0291H136.267ZM136.267 28.5777V29.71H138.645V28.5777V27.4453H136.267V28.5777ZM138.645 28.5777L139.609 29.1711C140.715 27.3741 142.175 25.9841 144.001 24.985L143.457 23.9916L142.914 22.9982C140.739 24.1883 138.99 25.8557 137.68 27.9842L138.645 28.5777ZM143.457 23.9916L143.993 24.9892C145.832 24.0018 148.092 23.482 150.818 23.482V22.3497V21.2173C147.806 21.2173 145.159 21.7921 142.922 22.994L143.457 23.9916ZM150.818 22.3497V23.482C154.17 23.482 156.917 24.1841 159.117 25.5247L159.707 24.5578L160.296 23.5908C157.665 21.9873 154.486 21.2173 150.818 21.2173V22.3497ZM159.707 24.5578L159.117 25.5247C161.338 26.8776 163.02 28.7634 164.174 31.212L165.199 30.7292L166.223 30.2463C164.886 27.4106 162.907 25.1821 160.296 23.5908L159.707 24.5578ZM165.199 30.7292L164.174 31.212C165.335 33.6743 165.935 36.5982 165.935 40.0145H167.067H168.199C168.199 36.3347 167.553 33.0684 166.223 30.2463L165.199 30.7292ZM167.067 40.0145H165.935C165.935 43.4348 165.353 46.3846 164.223 48.8913L165.255 49.3565L166.288 49.8218C167.574 46.9686 168.199 43.6905 168.199 40.0145H167.067ZM165.255 49.3565L164.225 48.8857C163.102 51.3429 161.487 53.2267 159.38 54.5739L159.99 55.5279L160.6 56.482C163.098 54.885 164.993 52.6545 166.285 49.8273L165.255 49.3565ZM159.99 55.5279L159.391 54.5668C157.303 55.8677 154.727 56.5471 151.61 56.5471V57.6794V58.8118C155.061 58.8118 158.072 58.0568 160.589 56.4891L159.99 55.5279ZM151.61 57.6794V56.5471C149.254 56.5471 147.307 56.1187 145.727 55.3121L145.212 56.3206L144.697 57.3291C146.666 58.3342 148.984 58.8118 151.61 58.8118V57.6794ZM145.212 56.3206L145.744 55.3208C144.149 54.4723 142.905 53.2942 141.994 51.7747L141.023 52.3573L140.052 52.9399C141.178 54.8175 142.728 56.2816 144.681 57.3203L145.212 56.3206ZM141.023 52.3573V51.2249H140.796V52.3573V53.4897H141.023V52.3573ZM140.796 52.3573H139.664V70.5884H140.796H141.929V52.3573H140.796ZM140.796 70.5884V69.456H131.398V70.5884V71.7207H140.796V70.5884ZM149.062 49.5264V50.6588C152.161 50.6588 154.674 49.7325 156.382 47.7092L155.517 46.9786L154.652 46.248C153.492 47.6217 151.702 48.394 149.062 48.394V49.5264ZM155.517 46.9786L156.382 47.7092C158.038 45.748 158.801 43.1385 158.801 40.0145H157.668H156.536C156.536 42.7789 155.864 44.812 154.652 46.248L155.517 46.9786ZM157.668 40.0145H158.801C158.801 36.8906 158.038 34.281 156.382 32.3199L155.517 33.0505L154.652 33.7811C155.864 35.2171 156.536 37.2502 156.536 40.0145H157.668ZM155.517 33.0505L156.382 32.3199C154.674 30.2966 152.161 29.3703 149.062 29.3703V30.5027V31.635C151.702 31.635 153.492 32.4073 154.652 33.7811L155.517 33.0505ZM149.062 30.5027V29.3703C146.309 29.3703 143.988 30.1578 142.224 31.8332L143.004 32.6542L143.784 33.4751C145.04 32.2819 146.758 31.635 149.062 31.635V30.5027ZM143.004 32.6542L142.225 31.8327C140.478 33.4902 139.664 35.7598 139.664 38.4858H140.796H141.929C141.929 36.2295 142.587 34.6113 143.784 33.4757L143.004 32.6542ZM140.796 38.4858H139.664V41.5432H140.796H141.929V38.4858H140.796ZM140.796 41.5432H139.664C139.664 44.2705 140.478 46.5511 142.214 48.2426L143.004 47.4315L143.795 46.6205C142.586 45.4433 141.929 43.7984 141.929 41.5432H140.796ZM143.004 47.4315L142.235 48.2628C144 49.895 146.317 50.6588 149.062 50.6588V49.5264V48.394C146.75 48.394 145.028 47.7612 143.773 46.6003L143.004 47.4315ZM171.725 57H170.592V58.1324H171.725V57ZM171.725 9.44071V8.30834H170.592V9.44071H171.725ZM181.123 9.44071H182.256V8.30834H181.123V9.44071ZM181.123 57V58.1324H182.256V57H181.123ZM171.725 57H172.857V9.44071H171.725H170.592V57H171.725ZM171.725 9.44071V10.5731H181.123V9.44071V8.30834H171.725V9.44071ZM181.123 9.44071H179.991V57H181.123H182.256V9.44071H181.123ZM181.123 57V55.8676H171.725V57V58.1324H181.123V57ZM194.345 55.5279L193.805 56.5236L193.814 56.528L193.822 56.5324L194.345 55.5279ZM188.003 49.3565L188.987 48.7947L188.987 48.7947L188.003 49.3565ZM187.947 30.6159L186.964 30.0541L186.958 30.0648L187.947 30.6159ZM194.345 24.5011L193.822 23.4967L193.822 23.4967L194.345 24.5011ZM213.708 24.5011L214.237 23.4997L214.237 23.4997L213.708 24.5011ZM219.993 30.6159L220.982 30.0648L220.982 30.0648L219.993 30.6159ZM219.993 49.4132L220.982 49.9643L220.985 49.9583L219.993 49.4132ZM213.651 55.5279L213.129 54.5235L213.123 54.5265L213.651 55.5279ZM210.537 46.9786L211.384 47.7309L211.392 47.7216L210.537 46.9786ZM210.537 33.0505L209.691 33.8028L209.7 33.8122L210.537 33.0505ZM197.402 33.0505L196.565 32.2879L196.564 32.2888L197.402 33.0505ZM197.402 46.9786L196.548 47.7216L196.556 47.7315L196.565 47.7412L197.402 46.9786ZM204.026 57.6794V56.5471C200.475 56.5471 197.433 55.8592 194.868 54.5235L194.345 55.5279L193.822 56.5324C196.767 58.0654 200.18 58.8118 204.026 58.8118V57.6794ZM194.345 55.5279L194.884 54.5322C192.349 53.159 190.39 51.2508 188.987 48.7947L188.003 49.3565L187.02 49.9184C188.636 52.7467 190.905 54.9527 193.805 56.5236L194.345 55.5279ZM188.003 49.3565L188.987 48.7947C187.592 46.3536 186.871 43.4221 186.871 39.9579H185.739H184.606C184.606 43.7409 185.396 47.0751 187.02 49.9184L188.003 49.3565ZM185.739 39.9579H186.871C186.871 36.5291 187.574 33.6119 188.936 31.167L187.947 30.6159L186.958 30.0648C185.376 32.9043 184.606 36.2151 184.606 39.9579H185.739ZM187.947 30.6159L188.93 31.1777C190.33 28.7283 192.301 26.8418 194.868 25.5056L194.345 24.5011L193.822 23.4967C190.878 25.0292 188.584 27.2192 186.964 30.0541L187.947 30.6159ZM194.345 24.5011L194.868 25.5056C197.432 24.1707 200.492 23.482 204.083 23.482V22.3497V21.2173C200.201 21.2173 196.768 21.9629 193.822 23.4967L194.345 24.5011ZM204.083 22.3497V23.482C207.635 23.482 210.655 24.1701 213.18 25.5026L213.708 24.5011L214.237 23.4997C211.326 21.9635 207.929 21.2173 204.083 21.2173V22.3497ZM213.708 24.5011L213.18 25.5026C215.707 26.8363 217.64 28.7196 219.004 31.167L219.993 30.6159L220.982 30.0648C219.401 27.2278 217.145 25.0346 214.237 23.4997L213.708 24.5011ZM219.993 30.6159L219.004 31.167C220.365 33.6103 221.068 36.5457 221.068 40.0145H222.201H223.333C223.333 36.2362 222.565 32.9059 220.982 30.0648L219.993 30.6159ZM222.201 40.0145H221.068C221.068 43.4428 220.366 46.3819 219 48.868L219.993 49.4132L220.985 49.9583C222.564 47.0846 223.333 43.7579 223.333 40.0145H222.201ZM219.993 49.4132L219.004 48.862C217.642 51.3053 215.693 53.1885 213.129 54.5235L213.651 55.5279L214.174 56.5324C217.121 54.9987 219.399 52.8054 220.982 49.9643L219.993 49.4132ZM213.651 55.5279L213.123 54.5265C210.598 55.859 207.579 56.5471 204.026 56.5471V57.6794V58.8118C207.872 58.8118 211.269 58.0655 214.18 56.5294L213.651 55.5279ZM204.026 49.5264V50.6588C207.095 50.6588 209.608 49.7286 211.384 47.7309L210.537 46.9786L209.691 46.2263C208.447 47.6257 206.62 48.394 204.026 48.394V49.5264ZM210.537 46.9786L211.392 47.7216C213.126 45.7269 213.935 43.0968 213.935 39.9579H212.802H211.67C211.67 42.7074 210.968 44.7576 209.683 46.2355L210.537 46.9786ZM212.802 39.9579H213.935C213.935 36.822 213.128 34.2162 211.375 32.2888L210.537 33.0505L209.7 33.8122C210.967 35.2064 211.67 37.2055 211.67 39.9579H212.802ZM210.537 33.0505L211.384 32.2982C209.608 30.3005 207.095 29.3703 204.026 29.3703V30.5027V31.635C206.62 31.635 208.447 32.4034 209.691 33.8028L210.537 33.0505ZM204.026 30.5027V29.3703C200.924 29.3703 198.378 30.2976 196.565 32.2879L197.402 33.0505L198.239 33.8131C199.521 32.4063 201.391 31.635 204.026 31.635V30.5027ZM197.402 33.0505L196.564 32.2888C194.812 34.2162 194.005 36.822 194.005 39.9579H195.137H196.27C196.27 37.2055 196.972 35.2064 198.24 33.8122L197.402 33.0505ZM195.137 39.9579H194.005C194.005 43.0968 194.813 45.7269 196.548 47.7216L197.402 46.9786L198.257 46.2355C196.971 44.7576 196.27 42.7074 196.27 39.9579H195.137ZM197.402 46.9786L196.565 47.7412C198.378 49.7315 200.924 50.6588 204.026 50.6588V49.5264V48.394C201.391 48.394 199.521 47.6228 198.239 46.2159L197.402 46.9786ZM229.627 57H228.494V58.1324H229.627V57ZM229.627 32.3145H230.759V31.1821H229.627V32.3145ZM224.984 32.3145H223.852V33.4468H224.984V32.3145ZM224.984 23.0291V21.8967H223.852V23.0291H224.984ZM234.496 23.0291H235.628V21.8967H234.496V23.0291ZM234.496 29.71H233.363V30.8424H234.496V29.71ZM236.874 29.71V30.8424H237.654L237.932 30.1131L236.874 29.71ZM241.177 24.3879L240.597 23.4153L240.597 23.4153L241.177 24.3879ZM250.689 22.6327H251.821V21.5004H250.689V22.6327ZM250.689 30.7858V31.9181H251.821V30.7858H250.689ZM240.894 33.277L240.027 32.5482L240.022 32.554L240.017 32.5599L240.894 33.277ZM238.855 57V58.1324H239.988V57H238.855ZM229.627 57H230.759V32.3145H229.627H228.494V57H229.627ZM229.627 32.3145V31.1821H224.984V32.3145V33.4468H229.627V32.3145ZM224.984 32.3145H226.116V23.0291H224.984H223.852V32.3145H224.984ZM224.984 23.0291V24.1614H234.496V23.0291V21.8967H224.984V23.0291ZM234.496 23.0291H233.363V29.71H234.496H235.628V23.0291H234.496ZM234.496 29.71V30.8424H236.874V29.71V28.5777H234.496V29.71ZM236.874 29.71L237.932 30.1131C238.758 27.9448 240.038 26.3852 241.757 25.3606L241.177 24.3879L240.597 23.4153C238.39 24.7308 236.801 26.7193 235.816 29.3069L236.874 29.71ZM241.177 24.3879L241.757 25.3606C243.531 24.3027 245.536 23.7651 247.801 23.7651V22.6327V21.5004C245.159 21.5004 242.748 22.1329 240.597 23.4153L241.177 24.3879ZM247.801 22.6327V23.7651H250.689V22.6327V21.5004H247.801V22.6327ZM250.689 22.6327H249.556V30.7858H250.689H251.821V22.6327H250.689ZM250.689 30.7858V29.6534H247.405V30.7858V31.9181H250.689V30.7858ZM247.405 30.7858V29.6534C244.252 29.6534 241.708 30.5487 240.027 32.5482L240.894 33.277L241.76 34.0058C242.872 32.6837 244.669 31.9181 247.405 31.9181V30.7858ZM240.894 33.277L240.017 32.5599C238.453 34.472 237.723 36.9368 237.723 39.8447H238.855H239.988C239.988 37.3172 240.617 35.4035 241.77 33.994L240.894 33.277ZM238.855 39.8447H237.723V57H238.855H239.988V39.8447H238.855ZM238.855 57V55.8676H229.627V57V58.1324H238.855V57ZM259.577 55.5279L259.037 56.5237L259.048 56.5294L259.577 55.5279ZM253.292 49.3565L252.3 49.9017L252.303 49.9077L253.292 49.3565ZM253.236 30.5593L254.227 31.1056L254.231 31.0995L253.236 30.5593ZM259.35 24.5011L259.88 25.5023L259.885 25.4995L259.35 24.5011ZM277.921 24.3879L277.385 25.3854L277.391 25.3887L277.921 24.3879ZM283.809 30.2196L282.812 30.7556L282.812 30.7556L283.809 30.2196ZM285.848 42.4491V43.5815H286.98V42.4491H285.848ZM260.086 42.4491V41.3168H258.772L258.966 42.6163L260.086 42.4491ZM262.974 48.2242L262.239 49.0854L262.239 49.0854L262.974 48.2242ZM273.845 49.1867L274.413 50.1659L274.413 50.1659L273.845 49.1867ZM276.336 46.0727V44.9403H275.533L275.267 45.6973L276.336 46.0727ZM285.734 46.0727L286.843 46.3036L287.127 44.9403H285.734V46.0727ZM280.242 54.622L280.893 55.5492L280.901 55.5435L280.242 54.622ZM260.313 36.2211L259.21 35.9651L258.888 37.3535H260.313V36.2211ZM276.845 36.2211V37.3535H278.148L277.967 36.0637L276.845 36.2211ZM274.354 31.4086L273.644 32.2904L273.651 32.2965L273.659 32.3024L274.354 31.4086ZM263.2 31.4086L262.525 30.4998L262.513 30.5084L263.2 31.4086ZM269.145 57.6794V56.5471C265.633 56.5471 262.632 55.8598 260.105 54.5265L259.577 55.5279L259.048 56.5294C261.957 58.0647 265.335 58.8118 269.145 58.8118V57.6794ZM259.577 55.5279L260.116 54.5322C257.583 53.1603 255.646 51.2554 254.281 48.8054L253.292 49.3565L252.303 49.9077C253.882 52.7421 256.135 54.9515 259.037 56.5236L259.577 55.5279ZM253.292 49.3565L254.285 48.8114C252.92 46.3269 252.216 43.3696 252.216 39.9013H251.084H249.952C249.952 43.6802 250.72 47.0263 252.3 49.9017L253.292 49.3565ZM251.084 39.9013H252.216C252.216 36.4273 252.903 33.5098 254.227 31.1056L253.236 30.5593L252.244 30.013C250.699 32.8177 249.952 36.1282 249.952 39.9013H251.084ZM253.236 30.5593L254.231 31.0995C255.559 28.6523 257.436 26.7939 259.88 25.5023L259.35 24.5011L258.821 23.5C255.98 25.0016 253.781 27.1819 252.24 30.0191L253.236 30.5593ZM259.35 24.5011L259.885 25.4995C262.371 24.1686 265.333 23.482 268.806 23.482V22.3497V21.2173C265.031 21.2173 261.689 21.9651 258.816 23.5028L259.35 24.5011ZM268.806 22.3497V23.482C272.21 23.482 275.055 24.1336 277.385 25.3854L277.921 24.3879L278.457 23.3904C275.729 21.9245 272.497 21.2173 268.806 21.2173V22.3497ZM277.921 24.3879L277.391 25.3887C279.762 26.6437 281.561 28.4269 282.812 30.7556L283.809 30.2196L284.807 29.6836C283.34 26.9543 281.214 24.8498 278.451 23.3871L277.921 24.3879ZM283.809 30.2196L282.812 30.7556C284.065 33.0869 284.715 35.914 284.715 39.2785H285.848H286.98C286.98 35.6223 286.272 32.4102 284.807 29.6836L283.809 30.2196ZM285.848 39.2785H284.715V42.4491H285.848H286.98V39.2785H285.848ZM285.848 42.4491V41.3168H260.086V42.4491V43.5815H285.848V42.4491ZM260.086 42.4491L258.966 42.6163C259.374 45.3438 260.434 47.545 262.239 49.0854L262.974 48.2242L263.709 47.3629C262.418 46.2612 261.554 44.6123 261.206 42.282L260.086 42.4491ZM262.974 48.2242L262.239 49.0854C264.037 50.6209 266.358 51.3382 269.089 51.3382V50.2058V49.0735C266.762 49.0735 265.005 48.4696 263.709 47.3629L262.974 48.2242ZM269.089 50.2058V51.3382C271.2 51.3382 273.007 50.9825 274.413 50.1659L273.845 49.1867L273.276 48.2074C272.342 48.7497 270.978 49.0735 269.089 49.0735V50.2058ZM273.845 49.1867L274.413 50.1659C275.839 49.3381 276.833 48.0733 277.404 46.448L276.336 46.0727L275.267 45.6973C274.857 46.8652 274.19 47.6765 273.276 48.2074L273.845 49.1867ZM276.336 46.0727V47.205H285.734V46.0727V44.9403H276.336V46.0727ZM285.734 46.0727L284.626 45.8417C283.927 49.1979 282.25 51.7965 279.584 53.7006L280.242 54.622L280.901 55.5435C284.048 53.2956 286.032 50.1946 286.843 46.3036L285.734 46.0727ZM280.242 54.622L279.592 53.6949C276.921 55.568 273.466 56.5471 269.145 56.5471V57.6794V58.8118C273.808 58.8118 277.751 57.7526 280.893 55.5491L280.242 54.622ZM260.313 36.2211V37.3535H276.845V36.2211V35.0888H260.313V36.2211ZM276.845 36.2211L277.967 36.0637C277.635 33.7008 276.697 31.7966 275.049 30.5147L274.354 31.4086L273.659 32.3024C274.729 33.1343 275.452 34.4385 275.724 36.3785L276.845 36.2211ZM274.354 31.4086L275.065 30.5267C273.448 29.2246 271.34 28.6343 268.862 28.6343V29.7666V30.899C270.989 30.899 272.543 31.4033 273.644 32.2904L274.354 31.4086ZM268.862 29.7666V28.6343C266.379 28.6343 264.237 29.2265 262.525 30.4999L263.2 31.4086L263.876 32.3172C265.108 31.4014 266.74 30.899 268.862 30.899V29.7666ZM263.2 31.4086L262.513 30.5084C260.829 31.7935 259.748 33.6489 259.21 35.9651L260.313 36.2211L261.416 36.4772C261.86 34.5659 262.703 33.2128 263.887 32.3087L263.2 31.4086ZM293.247 57H292.115V58.1324H293.247V57ZM293.247 32.3145H294.379V31.1821H293.247V32.3145ZM288.604 32.3145H287.472V33.4468H288.604V32.3145ZM288.604 23.0291V21.8967H287.472V23.0291H288.604ZM298.116 23.0291H299.248V21.8967H298.116V23.0291ZM298.116 29.71H296.984V30.8424H298.116V29.71ZM300.494 29.71V30.8424H301.274L301.552 30.1131L300.494 29.71ZM304.797 24.3879L304.217 23.4153L304.217 23.4153L304.797 24.3879ZM314.309 22.6327H315.441V21.5004H314.309V22.6327ZM314.309 30.7858V31.9181H315.441V30.7858H314.309ZM304.514 33.277L303.647 32.5482L303.642 32.554L303.638 32.5599L304.514 33.277ZM302.476 57V58.1324H303.608V57H302.476ZM293.247 57H294.379V32.3145H293.247H292.115V57H293.247ZM293.247 32.3145V31.1821H288.604V32.3145V33.4468H293.247V32.3145ZM288.604 32.3145H289.737V23.0291H288.604H287.472V32.3145H288.604ZM288.604 23.0291V24.1614H298.116V23.0291V21.8967H288.604V23.0291ZM298.116 23.0291H296.984V29.71H298.116H299.248V23.0291H298.116ZM298.116 29.71V30.8424H300.494V29.71V28.5777H298.116V29.71ZM300.494 29.71L301.552 30.1131C302.378 27.9448 303.658 26.3852 305.377 25.3606L304.797 24.3879L304.217 23.4153C302.01 24.7308 300.422 26.7193 299.436 29.3069L300.494 29.71ZM304.797 24.3879L305.377 25.3606C307.151 24.3027 309.156 23.7651 311.421 23.7651V22.6327V21.5004C308.779 21.5004 306.368 22.1329 304.217 23.4153L304.797 24.3879ZM311.421 22.6327V23.7651H314.309V22.6327V21.5004H311.421V22.6327ZM314.309 22.6327H313.177V30.7858H314.309H315.441V22.6327H314.309ZM314.309 30.7858V29.6534H311.025V30.7858V31.9181H314.309V30.7858ZM311.025 30.7858V29.6534C307.873 29.6534 305.329 30.5487 303.647 32.5482L304.514 33.277L305.381 34.0058C306.492 32.6837 308.289 31.9181 311.025 31.9181V30.7858ZM304.514 33.277L303.638 32.5599C302.073 34.472 301.343 36.9368 301.343 39.8447H302.476H303.608C303.608 37.3172 304.237 35.4035 305.39 33.994L304.514 33.277ZM302.476 39.8447H301.343V57H302.476H303.608V39.8447H302.476ZM302.476 57V55.8676H293.247V57V58.1324H302.476V57Z" fill="#002574" mask="url(#path-3-outside-1_340_56214)"/>
</svg>
