<svg width="300" height="300" viewBox="0 0 300 300" fill="none" xmlns="http://www.w3.org/2000/svg">
<g clip-path="url(#clip0_243_35844)">
<rect width="300" height="300" rx="8" fill="white"/>
<rect opacity="0.1" x="-118" y="-90" width="558" height="558" fill="white"/>
<path d="M56.9537 119.16C56.9537 136.887 55.9556 154.913 57.4276 172.577C58.2744 182.739 59.6247 193.317 61.6062 203.335C62.1286 205.976 62.5705 209.395 63.9324 211.778C64.6471 213.029 73.7437 209.288 74.7019 209.021C95.9516 203.103 116.89 196.092 138.285 190.67C165.589 183.751 193.202 180.417 221.34 180.417C226.734 180.417 232.352 179.875 237.623 181.193" stroke="black" stroke-width="1.5"/>
<path d="M55.2793 112.855C67.4053 111.87 79.7859 106.997 91.3799 103.895C108.644 99.2757 125.792 93.5499 143.579 90.713C159.455 88.1808 176.074 88.3135 192.163 88.0852C201.279 87.9559 210.797 87.6504 219.732 89.593C221.302 89.9341 224.998 90.5764 225.275 92.4361C226.394 99.9359 228.222 107.254 230.047 114.664C234.018 130.787 237.744 146.923 240.458 163.257C241.238 167.954 242.088 172.665 243.542 177.214" stroke="black" stroke-width="1.5"/>
<path d="M56.1777 112.957C80.412 120.775 103.905 131.744 128.721 137.77C131.252 138.385 134.297 139.816 136.82 140.097C138.578 140.292 140.171 142.337 141.903 142.337C149.751 142.337 159.867 132.01 165.467 127.69C174.44 120.768 181.699 112.178 190.28 104.859C194.558 101.21 199.254 95.31 204.28 92.7969" stroke="black" stroke-width="1.5"/>
<path d="M67 207C67 205.259 68.2238 203.9 69.2153 202.55C76.8046 192.216 85.6577 182.717 94.1875 173.176C104.246 161.926 114.354 150.694 125 140" stroke="black" stroke-width="1.5"/>
<path d="M167.836 131.566C170.449 133.526 173.917 134.612 176.71 136.391C182.366 139.995 187.825 143.913 193.252 147.85C199.376 152.293 205.763 156.641 211.603 161.42C215.006 164.203 218.688 168.936 222.89 170.337" stroke="black" stroke-width="1.5"/>
</g>
<defs>
<clipPath id="clip0_243_35844">
<rect width="300" height="300" rx="8" fill="white"/>
</clipPath>
</defs>
</svg>
