<svg width="300" height="300" viewBox="0 0 300 300" fill="none" xmlns="http://www.w3.org/2000/svg">
<rect width="300" height="300" rx="8" fill="white"/>
<path d="M221.748 49.6562C221.522 51.691 219.533 53.0417 218.174 54.4001C212.829 59.7457 207.575 65.1397 202.903 71.1012C199.43 75.5322 194.025 86.9122 188.996 89.4268" stroke="black" stroke-width="1.5"/>
<path d="M222.918 43.8086C229.002 43.8086 237.385 51.8828 240.204 56.6755C241.581 59.016 250.013 68.3728 249.822 68.3728" stroke="black" stroke-width="1.5"/>
<path d="M239.295 73.0508C229.286 74.163 220.566 92.8595 215.836 99.9544C211.096 107.065 203.278 117.337 196.016 122.179" stroke="black" stroke-width="1.5"/>
<path d="M173.79 88.2568C162.691 88.2568 148.759 85.8813 138.114 88.9717C128.415 91.7875 122.004 98.9225 117.124 107.232C106.684 125.009 92.7096 139.527 80.7975 156.101C76.2568 162.418 69.8224 169.726 67.3457 177.156" stroke="black" stroke-width="1.5"/>
<path d="M65.0064 177.156C64.3736 182.851 59.3445 188.433 57.0783 193.532C53.4253 201.752 60.4941 211.634 63.2518 218.681C67.9606 230.715 75.4161 238.34 86.1264 245.585C92.5857 249.955 101.179 254.374 106.467 260.142C108.242 262.079 110.619 262.533 111.795 264.885" stroke="black" stroke-width="1.5"/>
<path d="M111.795 264.885C114.601 259.783 118.618 255.514 122.062 250.849C127.37 243.66 131.578 235.737 136.619 228.364C148.079 211.604 162.137 197.847 175.87 183.005C184.718 173.441 192.954 163.166 201.864 153.762C210.241 144.919 207.851 128.167 199.524 119.84" stroke="black" stroke-width="1.5"/>
<path d="M95.418 232.134C95.418 205.44 104.368 178.78 117.513 155.777C121.531 148.745 131.18 140.035 131.679 131.538C132.031 125.568 137.528 118.993 137.528 112.822" stroke="black" stroke-width="1.5"/>
<path d="M137.529 112.822C137.529 117.317 136.214 124.045 141.038 126.599C144.028 128.182 152.259 129.674 155.075 126.859C164.762 117.171 142.208 108.708 142.208 121.01" stroke="black" stroke-width="1.5"/>
<path d="M142.207 116.331C142.207 109.957 154.255 108.25 158.323 111.912C160.629 113.987 166.842 122.144 162.092 124.519" stroke="black" stroke-width="1.5"/>
<path d="M96.5879 230.963C100.285 231.374 102.83 234.472 107.115 234.472" stroke="black" stroke-width="1.5"/>
<path d="M114.135 237.981C114.936 237.881 119.125 223.759 119.723 221.605C121.624 214.763 126.492 208.598 129.991 202.499C135.556 192.801 142.099 183.857 145.977 173.386C152.068 156.94 164.433 144.073 164.433 125.688" stroke="black" stroke-width="1.5"/>
<path d="M131.681 125.689C129.602 125.689 128.692 125.364 127.002 124.52" stroke="black" stroke-width="1.5"/>
<path d="M127.001 124.52C127.001 131.7 120.339 140.263 117.643 147.004C115.572 152.181 112.388 157.131 108.87 161.431C102.216 169.564 99.3719 179.491 95.1582 188.854C92.5075 194.745 93.1949 202.682 90.1543 208.155C86.5518 214.639 92.2176 218.715 94.2484 222.776" stroke="black" stroke-width="1.5"/>
</svg>
