<?xml version="1.0" encoding="UTF-8"?>
<svg width="746px" height="746px" viewBox="0 0 746 746" version="1.1" xmlns="http://www.w3.org/2000/svg" xmlns:xlink="http://www.w3.org/1999/xlink">
    <!-- Generator: Sketch 56.3 (81716) - https://sketch.com -->
    <title>Combined Shape</title>
    <desc>Created with Sketch.</desc>
    <g id="New" stroke="none" stroke-width="1" fill="none" fill-rule="evenodd">
        <g id="Artboard" transform="translate(-1431.000000, -1429.000000)" fill="#FFFFFF">
            <path d="M1431,1429 L2177,1429 L2177,2175 L1431,2175 L1431,1429 Z M1734.67937,1814.93205 C1734.52168,1822.63516 1734.10643,1830.38996 1733.89618,1838.09306 C1733.73323,1842.59601 1732.26147,1848.38109 1730.00126,1852 C1723.64115,1846.62334 1719.1733,1840.3678 1716.39272,1833.02659 C1715.65158,1831.11374 1716.17721,1828.6839 1716.22977,1826.56425 C1716.3349,1823.00222 1716.60297,1819.48154 1716.65027,1815.91433 C1716.70284,1809.3486 1716.7554,1802.78287 1716.65027,1796.26883 C1716.65027,1794.04579 1717.23372,1792.54653 1719.48867,1791.66765 C1725.21803,1789.44461 1729.89614,1785.41211 1735,1782 C1734.88962,1793.06869 1734.83705,1803.97194 1734.67937,1814.93205 Z M1714.49498,1788.92426 C1713.76603,1789.0315 1713.02659,1789.51407 1712.2924,1789.72855 C1711.61589,1789.88941 1710.82401,1790.10389 1710.1947,1789.94303 C1706.52372,1789.13874 1703.84915,1787.26206 1701.90878,1783.66955 C1699.81633,1779.81432 1697.1942,1774.76872 1700.75505,1771.92689 C1702.01367,1770.90812 1703.01007,1770.05021 1703.84915,1769.3049 C1703.9016,1769.3049 1703.95928,1769.24592 1703.95928,1769.24592 C1708.67386,1765.54618 1714.28521,1766.9939 1718.69038,1769.4604 C1722.94347,1771.81966 1727.02874,1774.28615 1731.22414,1776.69903 C1732.27299,1777.28884 1733.37428,1777.82503 1735,1778.62933 C1731.91114,1780.98858 1729.44109,1783.13336 1726.71408,1784.79556 C1724.1444,1786.35053 1721.26006,1787.53015 1718.38097,1788.65616 C1717.22199,1789.08512 1715.80604,1788.7634 1714.49498,1788.92426 Z M2012.32891,1757.06877 C2009.83154,1758.47284 2007.49026,1758.77852 2004.88883,1757.06877 C2001.19481,1754.58705 1997.29268,1752.35402 1993.55183,1749.91893 C1991.46549,1748.62366 1991.36663,1748.57185 1989.1242,1750.17798 C1985.6383,1752.66488 1982.62064,1755.92894 1978.35951,1757.37963 C1977.36577,1756.97033 1976.3252,1756.65429 1975.44071,1756.13618 C1971.79872,1754.01195 1968.20875,1751.83591 1964.67082,1749.55625 C1963.26605,1748.67548 1962.17345,1748.67548 1961.13288,1749.81531 C1957.49089,1753.90833 1952.96441,1756.80972 1948.44313,1759.7681 C1946.77302,1760.85612 1946.09665,1762.04258 1946.40882,1764.06319 C1951.45558,1764.115 1953.32861,1770.02139 1958.73957,1770.17682 C1956.2474,1774.32166 1956.76249,1778.57012 1956.9706,1782.71496 C1957.13189,1786.13445 1957.17871,1789.45032 1957.07466,1792.86981 C1956.86654,1803.54277 1956.9706,1814.21572 1956.81452,1824.88868 C1956.76249,1829.08533 1956.55437,1833.33379 1955.93003,1837.48381 C1955.30569,1841.57165 1953.79686,1845.50925 1952.02789,1849.60228 C1951.14341,1848.61788 1950.51907,1847.94434 1949.95196,1847.2708 C1947.60547,1844.31761 1946.25273,1840.74268 1944.33288,1837.58225 C1941.46611,1832.86749 1940.06134,1828.04912 1940.37351,1822.60902 C1940.73771,1817.01349 1941.04988,1811.37133 1941.15394,1805.71881 C1941.31003,1798.2581 1941.20597,1790.74558 1941.36206,1783.23306 C1941.46611,1777.58572 1941.88234,1771.93838 1941.9864,1766.29104 C1942.03843,1763.85594 1941.93957,1761.57628 1943.80739,1759.6593 C1943.33914,1758.83033 1943.079,1757.84593 1942.50668,1757.53507 C1939.13003,1755.7217 1936.94484,1752.8773 1934.4943,1750.07436 C1931.99693,1747.22478 1929.70767,1747.3284 1926.95017,1749.7635 C1922.78789,1753.39023 1918.67764,1757.06877 1914.56739,1760.6955 C1913.89102,1761.31723 1913.37073,1762.09439 1912.48625,1763.07879 C1914.09913,1762.97517 1915.45187,1762.50887 1916.07621,1762.97517 C1918.78169,1765.04758 1921.9034,1767.22362 1922.42889,1770.74674 C1923.10006,1775.5133 1923.10006,1780.38348 1923.10006,1785.20186 C1923.10006,1790.74558 1922.57977,1796.23749 1922.57977,1801.78121 C1922.47572,1814.37115 1922.78789,1827.01291 1919.61935,1839.39561 C1918.83372,1842.40062 1918.36547,1845.50925 1916.02418,1848.30701 C1914.56739,1847.32261 1913.21465,1846.55064 1912.12205,1845.50925 C1907.43948,1841.00174 1904.68197,1835.30258 1902.13258,1829.50499 C1901.87244,1828.98171 1901.87244,1828.25636 1901.92446,1827.63463 C1902.28866,1820.27755 1902.75692,1812.92046 1902.96503,1805.56337 C1903.27721,1793.69878 1903.53735,1781.88599 1903.69343,1770.02139 C1903.69343,1766.39466 1903.17315,1762.81973 1902.96503,1760.22921 C1899.68724,1757.94955 1897.18987,1756.29161 1894.74453,1754.53006 C1893.49585,1753.59747 1892.3044,1752.50945 1891.25863,1751.31781 C1889.64574,1749.34901 1887.61663,1749.14177 1885.53549,1750.02255 C1883.50638,1750.85152 1881.69059,1751.58204 1879.50539,1750.49402 C1878.87585,1750.17798 1877.93933,1750.38522 1877.15891,1750.49402 C1874.0372,1750.70126 1870.96752,1750.95514 1867.53364,1751.21419 C1867.11741,1745.41142 1868.05392,1740.07494 1869.25058,1734.37579 C1868.05392,1734.74364 1867.22147,1734.79027 1866.70638,1735.20475 C1865.29641,1736.39639 1864.15179,1737.84709 1862.69499,1739.04391 C1856.39954,1744.11615 1850.00524,1749.08996 1843.75662,1754.27101 C1840.27591,1757.12058 1837.04494,1760.22921 1833.61106,1763.1306 C1832.5705,1764.06319 1832.15427,1765.0994 1832.98672,1766.18741 C1833.71512,1767.22362 1834.75569,1766.86095 1835.84829,1766.55009 C1837.46638,1766.1356 1839.18332,1765.87655 1840.90026,1765.87655 C1843.08545,1765.82992 1845.31747,1766.08379 1847.76281,1766.24441 C1848.80338,1769.14061 1848.54324,1772.24924 1848.23107,1775.40968 C1847.76281,1780.12443 1846.98759,1784.891 1847.1957,1789.55912 C1847.45064,1795.04585 1847.29456,1800.48595 1847.03441,1805.98304 C1846.67021,1814.1121 1846.4621,1822.24635 1846.20196,1830.38059 C1846.14993,1831.15775 1845.94182,1831.98671 1845.94182,1832.76387 C1845.99384,1835.61345 1844.53705,1838.30759 1844.95327,1841.3126 C1845.31747,1844.42123 1843.80865,1847.2708 1842.03968,1849.7059 C1841.1552,1850.94935 1839.28217,1851.46745 1837.77334,1852.40004 C1834.65163,1848.66969 1832.31035,1845.09476 1831.42587,1840.74268 C1830.85356,1837.99673 1830.54138,1835.25077 1829.70893,1832.60844 C1827.26879,1824.4742 1827.93996,1816.13271 1828.51227,1807.94666 C1828.98573,1801.47035 1828.72039,1795.09766 1828.82444,1788.15506 C1821.33234,1787.84937 1814.20444,1787.58514 1807.02451,1787.27428 C1806.92045,1787.01522 1806.87363,1786.70436 1806.76437,1786.3935 C1814.51661,1779.70995 1822.94523,1773.80874 1830.90558,1766.70552 C1829.76096,1765.56569 1829.03256,1764.68491 1828.14807,1763.95956 C1822.94523,1759.91835 1817.58629,1756.08437 1813.47604,1750.7997 C1812.22736,1749.19876 1810.6665,1749.19876 1808.94956,1750.49402 C1807.90899,1751.31781 1806.97248,1752.2504 1805.98394,1753.02756 C1801.97775,1756.29161 1797.91952,1759.50386 1793.96536,1762.6643 C1794.01739,1751.73229 1793.86651,1740.64485 1794.69376,1729.5056 C1795.00593,1724.63542 1794.84984,1719.76523 1794.84984,1714.84324 C1794.84984,1710.28392 1794.84984,1705.67278 1794.75099,1701.11346 C1794.69376,1698.8338 1794.64173,1696.65776 1796.4107,1694.84439 C1797.45127,1693.86 1797.5033,1692.72017 1795.6823,1692 C1790.0112,1696.76138 1784.23603,1701.52795 1778.61696,1706.39813 C1775.80742,1708.8384 1773.10194,1711.37194 1770.50051,1713.96246 C1768.36735,1716.1385 1768.36735,1716.34574 1770.45369,1718.41816 C1772.1134,1720.02428 1773.41411,1721.83765 1773.62222,1724.11731 C1774.03845,1728.31396 1774.45468,1732.51061 1774.45468,1736.70726 C1774.40265,1742.56184 1773.98642,1748.41642 1773.67425,1754.27101 C1773.57019,1756.49886 1773.206,1758.72671 1773.206,1760.95456 C1773.26323,1765.77293 1773.51817,1770.59131 1773.62222,1775.40968 C1773.62222,1775.92778 1773.41411,1776.44589 1773.36208,1776.96399 C1772.94585,1781.10883 1772.52962,1785.30548 1772.16543,1789.45032 C1771.90528,1791.9424 1771.7544,1794.42412 1771.59311,1796.91621 C1771.48906,1798.10267 1771.43703,1799.29431 1771.54629,1800.48595 C1771.64514,1802.40293 1772.06137,1804.37173 1772.06137,1806.28872 C1772.1134,1811.83244 1771.96251,1817.37616 1772.1134,1822.86807 C1772.32151,1831.05413 1771.13006,1838.87751 1767.69098,1846.3434 C1766.96258,1847.94434 1766.59838,1849.91314 1764.77738,1850.63848 C1763.99695,1850.48305 1763.1645,1850.53486 1762.74827,1850.12038 C1759.26236,1846.59727 1755.82848,1842.91872 1756.14586,1837.42681 C1756.19268,1836.33879 1756.35397,1835.30258 1756.29674,1834.26638 C1755.88051,1826.13213 1755.10008,1817.94608 1755.05326,1809.81183 C1754.944,1800.17508 1755.46428,1790.59015 1755.77645,1780.9534 C1755.77645,1780.33167 1755.62037,1779.4509 1755.98457,1779.08822 C1758.33105,1776.54951 1757.03034,1773.5445 1757.28528,1770.74674 C1757.44657,1768.93337 1756.40079,1767.79354 1754.84514,1767.06819 C1746.56741,1763.2394 1738.76314,1758.6749 1731.58321,1753.08455 C1729.60613,1751.58204 1727.47296,1751.21419 1725.28776,1752.30221 C1722.47822,1753.64928 1719.66869,1755.09997 1717.01523,1756.80972 C1712.64484,1759.6593 1708.3785,1762.71611 1704.11737,1765.77293 C1703.85203,1765.92836 1703.59188,1766.1356 1703.38377,1766.39466 C1702.40043,1766.96457 1698.80526,1770.64312 1698.54512,1771.10941 C1696.72412,1773.85536 1695.73558,1776.91218 1697.14035,1780.0778 C1699.27352,1784.99462 1701.19857,1790.17566 1707.18185,1792.45532 C1702.08306,1797.58456 1694.95516,1799.50673 1690.69402,1805.66699 C1691.62533,1806.54777 1692.14562,1807.48554 1692.92604,1807.69278 C1695.83964,1808.62019 1696.72412,1810.69261 1696.62007,1813.49038 C1696.52121,1814.94107 1696.56804,1816.39176 1696.56804,1817.84764 C1696.25587,1826.39118 1695.99572,1834.93991 1695.63153,1843.48864 C1695.63153,1844.52485 1695.42341,1845.56106 1695.2205,1846.59727 C1694.1227,1851.67469 1691.5733,1855.97496 1688.30071,1859.91256 C1687.77522,1860.59128 1687.41623,1861.31144 1687,1862.03679 C1687.15088,1862.24403 1687.359,1862.50308 1687.56711,1862.71032 C1692.35373,1861.51868 1695.2205,1856.91273 1699.79901,1854.73151 C1705.04868,1860.06799 1710.30356,1865.40447 1715.82378,1871 C1719.10157,1869.08301 1722.21808,1867.58051 1724.92876,1865.56508 C1727.62904,1863.53929 1729.86627,1860.89696 1732.41566,1858.66911 C1733.82564,1857.37385 1735.48534,1856.38945 1737.09823,1855.24962 C1741.72876,1860.17161 1744.69439,1866.18163 1750.00129,1870.58552 C1756.24471,1862.45127 1764.83461,1857.52928 1771.96251,1850.84573 C1772.32151,1851.41564 1772.63888,1851.67469 1772.73774,1852.03737 C1774.40265,1858.46187 1777.57639,1863.95378 1782.41504,1868.5131 C1784.60023,1870.63733 1786.68137,1871 1788.66366,1869.13482 C1791.10379,1866.75154 1793.39305,1864.21283 1795.6823,1861.6793 C1798.54387,1858.46187 1801.3534,1855.09419 1804.21497,1851.83013 C1805.25554,1850.63848 1806.50422,1849.60228 1807.38871,1848.30701 C1808.48131,1846.80451 1808.32522,1845.40563 1806.4574,1844.36942 C1803.59063,1846.55064 1801.97775,1850.37943 1797.35241,1850.63848 C1796.35867,1848.98055 1795.05796,1847.32261 1794.17347,1845.45744 C1791.52002,1839.96553 1790.73959,1834.00732 1790.84885,1828.00249 C1790.89568,1822.09091 1791.26508,1816.18452 1791.62408,1810.22632 C1791.72814,1807.99847 1792.14957,1805.71881 1792.45653,1803.54277 C1798.38778,1804.42354 1803.95483,1802.92104 1809.52188,1804.31992 C1809.52188,1814.06029 1809.47505,1823.54161 1809.57391,1833.07473 C1809.57391,1836.70147 1809.78202,1840.43182 1810.35954,1844.05855 C1811.49896,1851.10478 1813.73618,1857.84014 1817.17006,1864.10921 C1818.99106,1867.47689 1823.15854,1869.80836 1826.69128,1866.64792 C1827.36765,1866.02619 1828.25213,1865.66352 1828.98573,1865.09361 C1831.37904,1863.28024 1833.71512,1861.41506 1836.10843,1859.50326 C1836.37378,1860.32704 1836.58189,1860.94877 1836.88886,1861.93317 C1838.34566,1860.89696 1839.43826,1859.91256 1840.63491,1859.18721 C1844.01676,1857.32204 1846.14993,1853.1772 1850.88972,1853.85073 C1853.07492,1857.11479 1855.30694,1860.53428 1857.6014,1863.90197 C1860.14559,1867.73594 1861.4463,1868.0468 1865.29641,1865.40447 C1867.32552,1863.95378 1869.04246,1862.14041 1870.91549,1860.43066 C1875.91022,1855.97496 1880.90496,1851.52444 1886.05578,1846.95994 C1886.26389,1847.32261 1886.52403,1847.7371 1886.73215,1848.15158 C1889.54169,1853.07358 1892.35122,1858.00075 1896.46147,1861.98498 C1900.57172,1865.92257 1902.28866,1865.97957 1906.45094,1862.14041 C1907.70483,1860.94877 1909.15642,1858.97997 1910.40511,1859.03178 C1912.79842,1859.23902 1913.63087,1857.6329 1914.93159,1856.49825 C1918.20938,1853.79892 1921.43515,1851.00116 1925.03031,1847.94434 C1926.42988,1850.69029 1927.73059,1852.81971 1928.56305,1855.146 C1929.96782,1858.92816 1932.3091,1862.03679 1934.75444,1865.14542 C1936.57543,1867.47689 1938.65657,1867.78775 1940.5296,1866.12982 C1943.13102,1863.90197 1945.63359,1861.57049 1948.17779,1859.23902 C1951.09138,1856.6485 1954.05701,1854.05798 1957.17871,1851.2084 C1961.86128,1856.75212 1965.65936,1862.86576 1972.21495,1866.38887 C1975.07651,1863.85015 1977.94328,1861.31144 1980.79965,1858.77273 C1984.49367,1855.45686 1988.18769,1852.14099 1991.88171,1848.77331 C1993.1304,1847.63866 1993.75994,1846.18278 1994.01488,1844.05855 C1992.402,1845.19838 1991.20534,1846.02735 1990.06592,1846.85632 C1988.76521,1847.78891 1987.51132,1848.66969 1986.31467,1849.49865 C1983.03687,1846.95994 1978.35951,1840.89812 1976.27317,1836.64966 C1974.92043,1833.95551 1973.98391,1831.31318 1975.28463,1828.30817 C1975.5968,1827.53101 1975.44071,1826.4948 1975.44071,1825.56222 C1975.44071,1821.52618 1975.38868,1817.47978 1975.49274,1813.43857 C1975.70085,1802.51174 1975.85694,1791.57455 1976.16911,1780.64254 C1976.3252,1776.34227 1976.74142,1772.042 1977.0588,1767.74173 C1977.10562,1767.12518 1977.31374,1766.49828 1977.46982,1765.6175 C1978.30228,1765.87655 1978.92662,1766.03716 1979.49893,1766.29104 C1982.93281,1767.84535 1986.3719,1769.5551 1989.85781,1771.0576 C1991.98577,1771.93838 1994.01488,1772.14562 1996.09602,1770.33225 C1998.33325,1768.36345 2001.03873,1766.80914 2003.58812,1765.20302 C2006.60577,1763.28603 2009.67545,1761.52447 2012.69311,1759.60749 C2013.88976,1758.88214 2015.13845,1758.15679 2014.98756,1755.98075 C2013.88976,1756.44705 2013.06251,1756.65429 2012.32891,1757.06877 Z M1652,1790.17084 C1651.94702,1805.54929 1651.84637,1820.92774 1651.89405,1836.30618 C1651.94702,1841.05389 1651.04642,1845.69839 1649.88092,1850.23968 C1649.35116,1852.41227 1647.70887,1854.31651 1646.17254,1857 C1643.09988,1854.88417 1640.45104,1853.12959 1637.85517,1851.32855 C1636.90158,1850.65252 1635.9533,1849.87844 1634.94144,1849.31078 C1632.82236,1848.17546 1631.8158,1846.52408 1632.02771,1844.15022 C1632.5045,1837.90596 1632.98129,1831.61008 1633.45809,1825.36581 C1633.45809,1824.79815 1633.45809,1824.2821 1633.51636,1823.76604 C1633.77595,1814.16741 1634.25274,1804.62039 1634.30572,1795.02176 C1634.35869,1789.80961 1633.72827,1784.54584 1633.51636,1779.33368 C1633.40511,1776.54699 1633.51636,1773.81189 1633.51636,1770.87038 C1634.5706,1770.61235 1635.41823,1770.30272 1636.31884,1770.25111 C1637.27772,1770.1479 1638.22601,1770.40593 1639.12661,1770.25111 C1644.15942,1769.219 1647.97376,1771.48964 1652,1774.844 L1652,1790.17084 Z M1704.19447,1757.79368 C1703.20399,1757.84021 1702.10925,1758.04699 1701.1709,1757.79368 C1695.65027,1756.23765 1690.11922,1754.68678 1684.69764,1752.87744 C1682.76881,1752.2054 1681.15277,1751.94692 1679.48459,1753.13592 C1677.40458,1754.73848 1675.2151,1756.18595 1673.22892,1757.84021 C1672.44696,1758.46055 1672.02992,1759.54616 1671.3053,1760.73516 C1667.86469,1758.66734 1665.04442,1757.21986 1662.59429,1755.35882 C1660.25363,1753.54948 1657.85562,1752.72235 1654.9311,1753.291 C1654.04488,1753.49779 1653.10653,1753.49779 1652.16818,1753.60118 C1647.42951,1753.85965 1642.6335,1752.98083 1637.93654,1754.32491 C1637.31097,1754.5317 1636.63327,1754.37661 1635.95558,1754.37661 C1634.39687,1754.42831 1633.45331,1753.80796 1633.40118,1752.10201 C1633.14053,1745.58837 1633.19266,1739.07474 1635.06936,1732.92298 C1638.82276,1734.21536 1642.47189,1735.35267 1646.01677,1736.69675 C1650.55213,1738.40787 1654.67044,1737.00692 1658.42384,1734.68062 C1664.3146,1730.95855 1670.04896,1726.9263 1675.78332,1722.89922 C1676.98753,1722.06692 1678.44198,1721.1881 1678.23345,1718.96519 C1677.4515,1719.06858 1676.66954,1718.96519 1676.35675,1719.32706 C1674.11514,1721.70505 1671.3053,1722.01523 1668.32865,1721.96353 C1661.60381,1721.91184 1655.66614,1719.58554 1650.08296,1716.01855 C1647.84655,1714.57107 1647.58069,1714.67446 1645.65186,1716.27703 C1641.58568,1719.58554 1637.46736,1722.84235 1633.30213,1726.04748 C1631.733,1727.23647 1630.01269,1728.21869 1628.39665,1729.40768 C1624.59112,1732.15271 1621.04624,1735.35267 1616.98005,1737.67896 C1614.21714,1739.22983 1613.59157,1740.93578 1613.90435,1743.67564 C1614.26927,1747.13924 1614.68631,1750.70623 1613.43518,1754.32491 C1612.966,1754.48 1612.34044,1754.84187 1611.71487,1754.89356 C1609.10834,1755.25543 1607.02833,1756.34104 1605.35494,1758.46055 C1604.21328,1760.06312 1602.74841,1761.56228 1601.08024,1762.59619 C1597.84814,1764.66401 1595.86718,1767.76574 1593.57865,1770.609 C1593.10947,1771.17765 1593.20852,1772.21673 1593,1773.34886 C1596.64914,1772.00995 1599.72484,1770.51078 1602.95694,1769.78187 C1606.44968,1769.00644 1609.94243,1769.73017 1613.27879,1770.14374 C1613.27879,1772.8319 1613.22665,1775.05481 1613.27879,1777.22602 C1613.38305,1780.53453 1613.75317,1783.79135 1613.75317,1787.04817 C1613.69583,1791.90754 1613.43518,1796.77209 1613.27879,1801.6263 C1613.01813,1809.07045 1612.65843,1816.5663 1612.60109,1824.06215 C1612.54896,1826.9054 1613.12761,1829.74865 1611.92339,1832.54538 C1611.71487,1833.05716 1612.13191,1833.83777 1612.13191,1834.45294 C1611.92339,1839.77758 1613.27879,1845.10221 1611.767,1850.47855 C1611.29782,1852.13797 1611.0893,1853.94215 1612.44991,1855.69979 C1613.22665,1856.7337 1613.48731,1858.54305 1611.87126,1859.47356 C1610.0519,1860.55917 1611.40209,1862.05834 1611.35517,1862.68385 C1609.31686,1865.06185 1607.59655,1866.91772 1606.14211,1868.88215 C1605.77199,1869.3474 1606.08477,1870.32962 1606.14211,1871.05336 C1606.81981,1870.94997 1607.70082,1871.10505 1608.22212,1870.74318 C1609.99456,1869.3991 1611.71487,1867.89993 1613.38305,1866.45246 C1615.98957,1864.17785 1615.94266,1864.17785 1618.80462,1865.88381 C1621.51541,1867.53806 1624.2262,1869.19232 1626.99433,1870.74318 C1628.91795,1871.88048 1630.6956,1872.19066 1632.77561,1870.5881 C1635.79918,1868.31349 1638.45784,1865.47024 1642.26337,1864.33294 C1642.68042,1864.22955 1642.9932,1863.6609 1643.41024,1863.29903 C1646.33477,1860.66256 1649.24887,1858.02609 1652.58522,1855.02775 C1653.99275,1858.85322 1654.9311,1862.47707 1656.59927,1865.67702 C1658.27267,1868.83045 1659.46646,1872.55253 1662.90707,1874 C1665.56573,1872.44913 1667.9116,1871.15675 1670.25748,1869.81266 C1669.73617,1869.60588 1669.16795,1869.4508 1668.64143,1869.24401 C1673.22892,1868.41689 1675.99184,1865.57363 1678.49932,1862.21343 C1680.89733,1858.95661 1684.59338,1856.47523 1683.71238,1851.46076 C1681.93472,1853.52858 1680.21963,1855.5964 1678.2908,1857.871 C1674.27153,1853.58028 1671.61287,1848.7726 1670.77879,1843.03439 C1670.10109,1838.07163 1670.10109,1833.16055 1670.67974,1828.14609 C1671.45648,1820.75363 1671.40435,1813.20609 1671.50861,1805.76194 C1671.61287,1797.07709 1671.45648,1788.39225 1671.45648,1779.70741 C1671.45648,1776.70907 1671.61287,1773.76242 1671.665,1770.45391 C1675.52267,1771.84969 1678.85902,1772.98699 1682.14325,1774.33107 C1684.64551,1775.31329 1686.52743,1775.00311 1688.65956,1773.24547 C1693.35131,1769.4717 1698.46532,1766.16318 1703.15186,1762.38941 C1704.77312,1761.04533 1707.21804,1760.42498 1708,1757.5869 C1706.54034,1757.68512 1705.39347,1757.73682 1704.19447,1757.79368 Z M1801.39617,1786.24 C1798.45438,1788.58 1795.36318,1790.712 1792.3235,1793 C1791.49918,1790.712 1792.38017,1788.32 1793.50846,1786.448 C1794.6419,1784.576 1794.69342,1782.912 1794.59038,1780.936 C1794.43582,1777.4 1794.3843,1773.812 1794.3843,1770.276 C1794.3843,1768.664 1794.48734,1768.664 1796.08446,1767 C1800.61821,1770.9 1805.10045,1774.852 1810,1779.1212 C1807.10973,1781.508 1804.32765,1783.952 1801.39617,1786.24 Z M1883.5412,1811.88695 C1884.36194,1816.7015 1883.59218,1821.816 1883.33729,1826.78052 C1883.13338,1830.34877 1882.57262,1833.8653 1882.21578,1837.38701 C1881.90991,1840.69152 1880.83938,1843.79435 1879.10613,1846.58689 C1878.39244,1847.77631 1877.42387,1848.75887 1876.40431,1850 C1875.2828,1849.17258 1874.26324,1848.75887 1873.70249,1847.98316 C1871.66338,1844.82862 1869.52231,1841.67925 1867.79416,1838.31269 C1866.15777,1835.05472 1865.85191,1831.5899 1866.05582,1827.76308 C1866.5656,1818.2012 1866.11189,1808.57727 1866.20875,1798.95851 C1866.31581,1792.75286 1866.72363,1786.59892 1866.87146,1780.44498 C1866.97342,1776.4113 1866.92244,1772.32592 1866.97342,1768.29224 C1866.97342,1767.51654 1867.07537,1766.74083 1867.12635,1765.91341 C1868.60471,1765.24113 1870.03209,1764.62057 1871.35751,1764 C1875.44083,1767.3614 1879.46807,1770.61936 1884,1774.39447 C1883.84707,1781.42754 1883.43924,1789.02946 1883.49022,1796.63139 C1883.5412,1801.69934 1882.72556,1806.66386 1883.5412,1811.88695 Z" id="Combined-Shape"></path>
        </g>
    </g>
</svg>