<?xml version="1.0" encoding="UTF-8"?>
<svg width="675px" height="673px" viewBox="0 0 675 673" version="1.1" xmlns="http://www.w3.org/2000/svg" xmlns:xlink="http://www.w3.org/1999/xlink">
    <!-- Generator: Sketch 56.3 (81716) - https://sketch.com -->
    <title>Combined Shape</title>
    <desc>Created with Sketch.</desc>
    <defs>
        <path d="M0.5,0 L674.5,0 L674.5,673 L0.5,673 L0.5,0 Z M314.953813,307.348266 C314.853659,312.508984 312.301587,316.353115 309.842249,320.28024 C306.318312,325.904969 300.62808,327.146107 294.848822,327.942095 C291.54374,328.398562 290.323344,326.119999 291.358269,322.389042 C293.550529,314.466887 298.131648,308.080122 303.914615,302.534614 C306.333149,300.210782 309.293257,300.912459 311.923227,302.112099 C314.070974,303.092937 315.254275,305.031979 314.953813,307.348266 Z M288,340.513208 C287.996613,336.857549 287.966691,336.665344 291.377782,336.092498 C295.869799,335.346292 299.307071,333.036066 302.774265,330.168069 C304.973521,328.347777 307.352308,326.663158 309.555304,324.77126 C315.565855,319.619419 321.434277,314.36959 325.85149,307.653729 C327.029663,305.863587 328.320042,304.148819 329.217698,302.196621 C329.786213,300.960481 330.766153,300.870031 331.820899,301.099923 C333.055175,301.367502 333.073876,302.411438 332.950448,303.402612 C332.165,309.50794 330.837218,315.492669 329.154114,321.41333 C328.129291,325.023765 327.396205,328.72088 326.644419,332.40292 C326.618237,333.672979 320.570284,340.513208 317.813734,343.140007 C312.753201,347.960201 307.55054,352.226393 300.597451,352.900994 C292.077205,353.726344 288.015314,349.373471 288,340.513208 Z M402.814955,350.378153 C401.964905,351.125775 399.425992,352.598592 397.437551,352.92007 C395.310555,353.267715 393.426966,352.44533 391.37112,351.151942 C388.053307,349.069813 387.192023,345.645701 387.042235,342.131874 C386.832531,337.268588 387.401727,332.39035 388.794759,327.669113 C389.817065,324.200143 390.906776,320.73865 392.123807,317.378086 C393.707819,314.032474 395.56894,311.191508 397.430061,308.197279 C398.729476,306.103935 400.463277,304.294688 402.144652,302.638704 C405.687147,299.15852 411.746089,298.489398 414.610792,304.537666 C417.340686,310.286884 417.116003,316.469724 416.850129,322.596492 C416.329614,334.539765 411.528895,342.700067 402.814955,350.378153 Z M182.655451,375.108589 C181.770449,376.127102 172.329194,383.970397 187.820438,383.985265 C190.984876,384.093064 194.104692,383.628414 196.722512,381.959391 C199.831173,379.974405 202.62748,377.498749 205.557653,375.234973 C210.908565,371.101446 232.907173,347.917261 235.35766,345.259462 C237.770963,342.635118 240.437122,339.784025 242.850425,337.542552 C243.33011,340.702173 243.82467,344.87659 244.579524,348.39678 C245.691354,353.578559 246.95936,358.749186 249.915563,363.276737 C251.849179,366.239346 253.998469,366.904725 257.200092,365.562816 C258.501564,365.023822 259.803037,364.425352 260.985518,363.674477 C265.722879,360.65611 270.471395,357.663763 274.941024,354.251372 C276.528821,353.03213 277.138654,353.370395 277.354327,355.411139 C277.834012,359.868063 282.894882,364.090804 287.301297,363.945833 C292.562966,363.771125 297.173898,361.544521 301.494787,359.083734 C305.741307,356.303267 324.010266,339.847217 324.646128,337.378995 C322.59352,346.534462 320.425638,356.169448 319.020047,365.596271 C322.39644,364.194886 324.504825,361.841897 327.260229,360.574332 C328.989329,359.77885 330.889479,359.132057 331.536497,357.095031 C332.034775,355.518938 332.395469,353.887086 332.685511,352.255235 C334.042762,344.560628 335.582218,336.88089 337.802159,329.405599 C341.267795,317.726152 348.678752,308.860627 358.80421,302.210554 C360.886567,300.838907 362.414868,301.255233 363.872517,303.299694 C365.8396,306.069009 365.720608,309.258368 365.207456,312.254432 C364.06216,318.967697 363.389113,325.759024 361.633984,332.37936 C360.466377,336.78796 359.533035,341.274622 358.75587,345.776153 C357.911772,350.656838 356.628892,355.500352 357.339124,360.570614 C357.789062,363.76369 359.975536,365.213399 363.00239,364.027612 C365.534684,363.038836 367.676536,361.414419 369.892758,359.91267 C372.287468,358.29197 374.42932,356.292116 377.181006,355.013398 C377.586321,355.745687 377.917267,356.373894 378.274243,356.983515 C381.639479,362.76748 386.72266,363.748821 392.292964,361.834463 C402.206467,359.094885 420.642759,338.973675 422.223118,336.345613 C426.056885,330.000351 428.949873,323.365147 430.374056,316.008805 C431.009919,312.711648 431.050822,309.031618 433.635175,306.277172 C435.20438,304.604432 436.606252,302.775569 438.175456,301.099111 C438.95634,300.266458 439.81903,298.954286 441.120503,299.556472 C442.425694,300.162376 442.444287,301.690146 442.228614,302.957711 C441.37336,307.990802 440.413989,313.009024 439.514114,318.038397 C438.662579,322.785263 437.799888,327.532129 437.022723,332.290147 C436.271587,336.877173 435.275031,341.408442 434.750723,346.043792 C434.174357,351.154943 433.15549,356.217772 432.333703,361.235993 C433.735575,361.934827 434.68379,361.195104 435.360556,360.555746 C436.870265,359.120906 438.68489,358.13213 440.369367,356.994667 C442.418257,355.611868 443.749478,353.965148 444.102735,351.522946 C444.530361,348.552903 444.969144,345.586576 445.430237,342.627684 C446.16278,337.958879 446.913916,333.28264 448.189359,328.736502 C449.937051,322.506473 453.317162,317.023601 456.67868,311.574184 C459.002739,307.808659 461.248709,303.965073 465.141971,301.448528 C469.288092,298.768426 472.716543,300.009971 473.995705,304.756837 C474.22997,305.622945 474.311777,306.463032 474.30434,307.340292 C474.252281,312.484898 473.824654,317.555161 473.014022,322.677464 C471.872445,329.896269 470.440825,337.077902 469.537231,344.345031 C469.031516,348.426518 468.35475,352.459681 468.484897,356.608078 C468.633637,361.314055 471.296078,363.313909 475.427325,361.265731 C479.744496,359.124623 483.938957,356.719594 488.111106,354.292261 C490.167433,353.09904 493.525233,351.091751 495.153933,349.616022 C496.548368,348.359608 495.919943,347.742553 495.380761,348.05108 C494.503197,348.593792 489.416298,351.299914 486.285326,352.9392 C482.061117,355.158369 480.517942,352.972655 480.283677,349.303777 C480.060568,345.880235 480.636934,342.534754 481.220738,339.170686 C482.559395,331.390584 483.5857,323.558441 485.01732,315.800642 C486.144023,309.715583 486.114275,303.667697 485.032194,297.649548 C484.106289,292.508659 480.183278,290.464198 475.386421,292.233586 C473.664759,292.872944 472.013748,293.679577 470.541224,294.753848 C464.204911,299.389198 457.827695,303.983659 452.476782,309.804796 C452.171866,310.135627 451.948756,310.62258 451.34636,310.581691 C450.743964,309.288105 451.443041,308.098601 451.736802,306.927682 C452.763106,302.857347 453.759663,298.809315 453.566301,294.545685 C453.391532,290.668644 450.792305,288.943863 447.434505,290.668644 C443.57099,292.649912 440.544136,295.6943 437.402009,298.604869 C435.479548,300.385408 433.769041,302.452172 431.22931,303.994811 C430.980171,299.236793 429.604328,295.452682 425.815183,292.642478 C424.476526,291.649985 423.390725,290.460481 421.657907,290.289489 C418.876474,290.010699 416.188003,290.111064 413.469785,291.110991 C409.676921,292.508659 406.765341,295.110699 403.530251,297.34102 C396.933644,301.890875 391.962018,307.897872 387.310182,314.228266 C383.197528,319.830088 380.490465,326.167916 378.501071,332.788252 C376.995081,337.806474 375.719638,342.902757 376.798001,348.244375 C377.173569,350.088107 376.455899,351.482057 374.708207,352.333296 C373.852954,352.745906 373.075789,353.303486 372.235409,353.74955 C370.026624,354.920468 369.201118,354.37404 368.992883,351.798019 C368.736307,348.656984 369.520909,345.59401 370.153053,342.638835 C372.763435,330.446415 375.901844,318.38038 377.768528,306.024402 C378.322583,302.359242 377.627225,299.151297 376.247664,295.928484 C375.087494,293.214927 372.811776,292.330233 370.048935,292.556982 C368.394205,292.690801 366.735757,293.166603 365.326448,294.006691 C359.800767,297.285262 354.739897,301.221778 349.909574,305.440802 C347.250851,307.764053 344.729712,310.247143 341.918531,312.871487 C341.862754,312.213543 341.751199,311.834388 341.818132,311.488688 C342.524645,307.853266 343.231159,304.22156 343.997169,300.597289 C345.045784,295.623673 343.316685,292.653629 339.274682,292.791166 C337.482368,292.854358 335.786735,293.181472 334.258434,294.508513 C332.127737,296.352245 329.692124,297.842842 327.368066,299.496997 C324.750246,292.136938 316.487753,290.356399 310.612533,294.084752 C307.187801,296.255597 303.934119,298.567697 300.873799,301.195758 C295.742278,305.596924 291.097879,310.548236 287.186024,315.971633 C281.266182,324.182931 277.923256,333.628339 276.625502,343.675934 C276.287119,346.281693 275.736782,348.526882 274.253103,350.779506 C272.624403,353.251445 270.568076,354.83869 267.939101,355.823748 C264.477184,357.128486 262.922853,356.518865 261.074762,353.307203 C260.721505,352.690148 260.379404,352.058223 260.09308,351.403996 C256.631162,343.45662 255.954396,334.921925 254.83513,326.480161 C254.604583,324.736794 255.381748,323.625351 256.530763,322.313179 C261.390834,316.767114 265.722879,312.165219 270.393307,307.370029 C275.134386,302.864781 277.956723,302.478192 282.06194,306.715802 C283.132866,307.819811 284.095956,307.801225 285.222659,307.195321 C287.792138,305.808805 290.35418,304.399986 292.879038,302.931691 C294.124733,302.210554 295.764589,301.95035 296.393014,300.247872 C295.705093,299.664271 294.920491,299.21449 294.437086,298.545393 C289.930272,292.326516 282.690365,293.694446 278.455001,296.939563 C272.152154,301.760773 266.500044,308.239854 260.829341,313.778484 C258.456942,316.094301 254.768197,320.588397 254.281074,320.740802 C253.790233,320.896925 253.518783,319.250205 253.422102,318.543936 C253.10603,316.194665 252.819706,313.83796 252.455294,311.492406 C251.89752,307.905306 251.510796,304.262449 250.090332,300.876079 C248.283144,296.564125 243.575531,294.527099 240.091303,296.348528 C236.216632,298.381837 233.096816,301.426224 229.698113,304.076589 C228.05082,305.362741 226.303128,306.871924 225.723043,309.195175 C226.660104,309.69328 227.258781,309.466531 227.905799,308.797435 C228.664372,308.02054 229.523344,307.321706 230.419501,306.708368 C233.918603,304.299621 236.053019,305.611793 237.700311,308.745394 C238.239493,309.775059 238.56672,310.960846 238.767519,312.113178 C239.823571,318.109024 240.894497,325.294374 242.062104,331.267917 C242.486012,333.431328 238.778674,337.501663 237.239218,339.271051 C232.974106,344.174039 217.98114,360.607786 214.344453,363.499769 C210.767262,366.347145 207.383433,369.510483 203.174098,371.499186 C199.823736,373.082714 194.75171,372.525134 192.137609,370.172145 C191.464562,369.566242 190.45685,369.711212 189.780084,369.937962 C187.783253,370.614492 183.826776,373.762962 182.655451,375.108589 Z" id="path-1"></path>
    </defs>
    <g id="New" stroke="none" stroke-width="1" fill="none" fill-rule="evenodd">
        <mask id="mask-2" fill="white">
            <use xlink:href="#path-1"></use>
        </mask>
        <use id="Combined-Shape" fill="#FFFFFF" xlink:href="#path-1"></use>
    </g>
</svg>