<svg height="396" viewBox="0 0 754 396" width="754" xmlns="http://www.w3.org/2000/svg" xmlns:xlink="http://www.w3.org/1999/xlink"><mask id="a" fill="#fff"><path d="m0 0h754v396h-754z" fill="#fff" fill-rule="evenodd"/></mask><mask id="b" fill="#fff"><path d="m0 .80481283h991v755.00000017h-991z" fill="#fff" fill-rule="evenodd"/></mask><g fill="none" fill-rule="evenodd"><path d="m10 35h730v326h-730z" fill="#000"/><g><path d="m.5.5h753v395h-753z" stroke="#979797"/><g mask="url(#a)"><path d="m776.534699 485.059059-7.643045 7.649947 10.037379 10.045117 7.64172-7.649947c2.770852-2.774682 2.770852-7.271762 0-10.045117-2.772179-2.774681-7.263876-2.774681-10.036054 0zm-193.249057 11.345542h1.113644l.405684-1.312368h1.764596l.405685 1.312368h1.112318l-1.882589-5.569268h-1.035424zm5.496629 0h2.074824c.572732 0 1.022167-.14464 1.348305-.429937.326139-.286624.489208-.703291.489208-1.25 0-.354299-.074243-.643577-.218751-.866507-.145835-.22293-.351329-.387474-.616482-.493631.175001-.090233.310229-.226911.405685-.410032.095455-.183121.143182-.3888.143182-.617038 0-.25345-.038447-.475053-.116667-.664809-.075569-.187102-.184282-.343683-.324813-.468418s-.307578-.217622-.50114-.278662c-.193562-.061041-.408336-.090234-.6483-.090234h-2.035051zm4.685259-2.785298c0 .467092.071591.877123.214774 1.234077.143183.354299.336745.651539.580686.890392.242615.238854.522352.419321.837885.541402.315532.12208.6483.183121.998302.183121.608527 0 1.112318-.147293 1.510048-.441879s.662884-.709926.79546-1.246019l-.930688-.238854c-.106061.281317-.265153.513535-.477276.696656-.210797.184448-.511746.274682-.897544.274682-.217426 0-.421594-.037155-.612504-.115446-.190911-.076964-.357957-.19241-.499814-.350319-.144509-.156581-.258525-.351645-.342048-.587845-.086175-.237526-.127274-.517515-.127274-.839968 0-.323779.041099-.603768.127274-.839968.083523-.234872.197539-.43259.342048-.587845.141857-.156582.308903-.273354.499814-.351645.19091-.075637.395078-.115446.612504-.115446.385798 0 .686747.092887.897544.274681.212123.183121.371215.416667.477276.696656l.930688-.238853c-.132576-.534767-.39773-.951433-.79546-1.244692-.39773-.294586-.901521-.441879-1.510048-.441879-.350002 0-.68277.062367-.998302.183121-.315533.12208-.59527.302548-.837885.541401-.243941.237527-.437503.536093-.580686.890393-.143183.355626-.214774.768312-.214774 1.234076zm-11.792695 5.439225h18.560734v-10.615711h-18.560734zm92.803669-242.170913c0 1.098726.888264 1.990446 1.98865 1.990446 1.097735 0 1.98865-.89172 1.98865-1.990446s-.890915-1.990445-1.98865-1.990445c-1.100386 0-1.98865.891719-1.98865 1.990445zm3.443016 6.405255c-.490533-.436571-1.244895-.394108-1.683723.099522-.437503.493631-.393753 1.248673.099432 1.686572 1.226334 1.090764 2.997559 1.634819 4.770109 1.634819 1.771224 0 3.542448-.544055 4.768782-1.634819.493186-.437899.536936-1.192941.099433-1.686572-.437503-.49363-1.19319-.536093-1.683724-.099522-1.548495 1.377389-4.821813 1.377389-6.370309 0zm5.837351-6.405255c0 1.098726.888264 1.990446 1.98865 1.990446 1.097735 0 1.98865-.89172 1.98865-1.990446s-.890915-1.990445-1.98865-1.990445c-1.100386 0-1.98865.891719-1.98865 1.990445zm-14.583434 2.082007c0-4.839438 2.41157-5.9793 6.599667-6.73965 1.472927-.268047 3.332977-1.32431 5.332234-5.294586 1.99793 3.970276 4.103248 5.13137 5.329582 5.294586 4.668024.621019 6.602318 1.557856 6.602318 6.73965 0 6.545913-5.34284 11.851114-11.9319 11.851114-6.590387 0-11.931901-5.305201-11.931901-11.851114zm104.735569-1.418525c2.19547 0 3.9773-1.782112 3.9773-3.980891 0-2.19878-1.78183-3.980892-3.9773-3.980892-2.198121 0-3.9773 1.782112-3.9773 3.980892 0 2.198779 1.779179 3.980891 3.9773 3.980891zm-99.432502 78.954353c0 1.098726.888264 1.990446 1.98865 1.990446 1.097735 0 1.98865-.89172 1.98865-1.990446s-.890915-1.990446-1.98865-1.990446c-1.100386 0-1.98865.89172-1.98865 1.990446zm9.280367 0c0 1.098726.888264 1.990446 1.98865 1.990446 1.097735 0 1.98865-.89172 1.98865-1.990446s-.890915-1.990446-1.98865-1.990446c-1.100386 0-1.98865.89172-1.98865 1.990446zm-9.569384 7.363322-2.362516-1.906847v-8.773885-.534766c0-1.45568.9519-4.07378 3.913663-4.609873 1.466298-.26672 9.386428-.163217 10.606134 0 2.801345.37155 4.040936 3.414278 4.040936 4.609873v.534766 8.773885l-2.365167 1.906847c-3.720102-3.288216-10.112949-3.288216-13.83305 0zm10.360867 1.520701c-2.31744 1.159767-4.569918 1.159767-6.887358 0-.588641-.294586-1.307206-.054405-1.600201.53344-.295646.590499-.055682 1.308386.532959 1.602972 1.49679.749735 3.004187 1.123938 4.511584 1.123938 1.506071 0 3.013467-.374203 4.510258-1.123938.58864-.294586.828604-1.012473.532958-1.602972-.292994-.589172-1.01156-.829353-1.6002-.53344zm107.921386-15.151274-18.560734-10.319798-18.560733 10.319798v2.6181c0 .183121.14716.331741.331441.331741h36.458584c.181631 0 .331442-.14862.331442-.331741zm-36.596464 82.745489c-.117993.023885-.226706.080944-.314206.163216-.267805.248142-.283715.66879-.035796.938164l8.109715 8.740711-1.247547 11.857749c-.013257.120754.007955.242835.05966.352973.155114.331741.551519.473726.881635.317144l10.582269-4.984076 10.579619 4.984076c.108713.051752.230683.072983.352654.059713.36326-.038481.627087-.364915.58864-.72983l-1.246221-11.857749 8.108389-8.740711c.080872-.088907.13788-.197718.161744-.315818.075569-.35828-.152463-.709925-.511746-.785562l-11.868263-2.501327-5.588107-9.944268c-.05966-.106157-.14716-.193737-.253222-.25345-.319509-.17914-.722542-.066348-.902847.25345l-5.586781 9.944268zm25.990331-62.545117h5.303066v-15.923567h-5.303066zm-10.606134 0h5.303067v-15.923567h-5.303067zm-10.606134 0h5.303067v-15.923567h-5.303067zm-2.651533 6.634819h31.818401v-5.307855h-31.818401zm31.270859 125.281317c-4.263666-4.267516-11.176213-4.267516-15.439879 0l-15.284764 15.298567c-4.264992 4.267515-4.264992 11.187632 0 15.455148 4.26234 4.267516 11.174887 4.267516 15.438553 0l15.28609-15.299894c4.263666-4.267516 4.263666-11.186305 0-15.453821zm-92.622039-78.353238c-1.947551-2.02362-4.536773-3.13827-7.291716-3.13827-2.754944 0-5.344166 1.11465-7.293043 3.13827l-.958529.99655-.961181-.99655c-1.947552-2.02362-4.5381-3.13827-7.291717-3.13827-2.754943 0-5.345491 1.11465-7.293043 3.13827-4.02105 4.178609-4.02105 10.977972 0 15.156582l14.981164 15.947452c.291669.311836.782202.32776 1.093758.034501l.033144-.034501 14.981163-15.947452c4.021051-4.17861 4.021051-10.977973 0-15.156582zm.908151 81.519374-2.302857-2.385882-6.193982 5.988589 2.301531 2.385881zm-.495837 12.632696-1.240918-3.075902-6.760084 2.733545 1.240917 3.075903zm-.046402 5.549363c0-1.098726-.890915-1.990446-1.98865-1.990446-1.100386 0-1.98865.89172-1.98865 1.990446s.888264 1.990446 1.98865 1.990446c1.097735 0 1.98865-.89172 1.98865-1.990446zm-11.450647-15.940817 2.589222-7.529194-3.132786-1.078821-2.589223 7.527866zm-3.132787 6.65207c0 1.098726.888264 1.990446 1.98865 1.990446 1.097735 0 1.98865-.89172 1.98865-1.990446s-.890915-1.990446-1.98865-1.990446c-1.100386 0-1.98865.89172-1.98865 1.990446zm-5.303066-7.298302c1.463646 0 2.651533-1.188959 2.651533-2.653928 0-1.466295-1.187887-2.653927-2.651533-2.653927-1.466298 0-2.651534 1.187632-2.651534 2.653927 0 1.464969 1.185236 2.653928 2.651534 2.653928zm13.774715 20.115446-19.596157-19.613853c-.083523-.082272-.184282-.141986-.295646-.171179-.352654-.095541-.71724.111465-.812695.464438l-7.653651 28.090498 28.062504-7.660562c.111364-.03052.214774-.088907.295645-.171178.258525-.258758.258525-.679406 0-.938164zm-82.73447-94.701433c.055682-.175159-.038447-.362261-.213449-.419321l-18.33005-5.93949-18.33005 5.93949c-.096781.033174-.173676.106157-.209472.203026-.062311.172505.026516.362261.198865.424628l18.340657 6.702495 5.150604-1.881635-9.125253-3.426221 3.9773-1.326964 8.955555 3.3612 9.383776-3.428875c.095455-.034501.169698-.111465.201517-.208333zm-11.912014 12.882166v-5.234873l-6.628834 2.580945-11.9319-4.644374v9.288747l11.9319 5.307856 11.931901-5.307856v-9.288747l-1.98865.77362v5.197718zm9.280367 55.069002c0-.733811-.595269-1.326964-1.325767-1.326964h-2.651533v6.634819l-1.98865-2.653928-1.98865 2.653928v-6.634819h-21.212267v37.154989h27.8411c.730498 0 1.325767-.59448 1.325767-1.326964zm-7.291717-205.679406c1.829558 0 3.314417-1.484872 3.314417-3.31741 0-1.832537-1.484859-3.317409-3.314417-3.317409-1.830884 0-3.314417 1.484872-3.314417 3.317409 0 1.832538 1.483533 3.31741 3.314417 3.31741zm-15.9092 0c1.829558 0 3.314416-1.484872 3.314416-3.31741 0-1.832537-1.484858-3.317409-3.314416-3.317409-1.830884 0-3.314417 1.484872-3.314417 3.317409 0 1.832538 1.483533 3.31741 3.314417 3.31741zm-1.325767 73.646497c0 4.755839 3.865936 8.625265 8.617483 8.625265 4.750223 0 8.617484-3.869426 8.617484-8.625265v-22.226645c0-3.475319-2.825209-6.303079-6.297392-6.303079-3.473509 0-6.297392 2.82776-6.297392 6.303079v19.814225c0 2.196125 1.783157 3.980891 3.9773 3.980891 2.192819 0 3.977301-1.784766 3.977301-3.980891v-13.26964c0-.731157-.593944-1.326963-1.325767-1.326963-.733149 0-1.325767.595806-1.325767 1.326963v13.26964c0 .732484-.595269 1.326963-1.325767 1.326963-.731823 0-1.325766-.594479-1.325766-1.326963v-19.814225c0-2.013005 1.63467-3.649151 3.645858-3.649151 2.009863 0 3.645859 1.636146 3.645859 3.649151v22.226645c0 3.292197-2.676723 5.971338-5.965951 5.971338-3.290552 0-5.96595-2.679141-5.96595-5.971338v-19.662951c0-.731157-.593943-1.326964-1.325766-1.326964-.733149 0-1.325767.595807-1.325767 1.326964zm-10.806324-102.839703h3.514607l6.620879 14.578026-3.42313 4.230361c-.45076.557324-.542238 1.322983-.233335 1.969214.307578.646231.95853 1.05759 1.67577 1.05759h23.200917c1.024817 0 1.856073-.830679 1.856073-1.857749 0-1.025743-.831256-1.85775-1.856073-1.85775h-19.309792l2.850398-3.523089h14.534381c.364585 0 .694701-.212314.845839-.544055l6.077314-13.382431c.027841-.062367.042425-.128716.042425-.197718 0-.260085-.212123-.472399-.473299-.472399h-27.28693l-1.68505-3.708864c-.074243-.16587-.239963-.272028-.421593-.272028h-5.137346c-1.024818 0-1.854748.832007-1.854748 1.85775v1.658705c0 .256104.20682.464437.462693.464437zm-56.144894 3.980892h-3.9773c0-4.397558-3.562335-7.961784-7.954601-7.961784-2.971043 0-5.556288 1.632166-6.921827 4.04724.764967.512208 1.431828 1.146497 2.044332 1.831211.808717-1.894905 2.686003-3.224523 4.877495-3.224523 2.927293 0 5.303067 2.376593 5.303067 5.307856h-8.6904c.344699.631635.645648 1.291136.864399 1.990446h2.854376c.914779 0 1.657209.741773 1.657209 1.658705v17.582271h9.94325zm-.60455 92.15897c-.653603-2.135085-2.700587-3.252388-4.382985-3.252388h-1.753989c.035796-.411359.076895-.809448.108713-1.23275l.102084-1.421178h-26.712873l.100758 1.421178c.951901 13.33068 4.202681 19.810244 9.941925 19.810244h5.303066c3.017445 0 5.442273-1.439756 7.279785-4.263535l1.069894-.509554c1.936945-.920913 3.226916-1.605626 3.94283-2.089968 5.471439-3.710191 5.482045-6.893577 5.000792-8.462049zm-4.12446 62.967091c0-.210987-.171024-.380838-.380495-.380838h-16.019239l-1.40929-4.798302-3.818208 1.117304 1.0805 3.680998h-7.487931c-.082197 0-.160417.026539-.226706.07431-.169698.124734-.205494.363588-.080872.533439l11.831143 16.001858v12.360669l-4.219916 1.062898c-.677467.171178-1.152091.781582-1.152091 1.479565v.745753h15.349727v-.745753c0-.697983-.473299-1.308387-1.152092-1.479565l-4.219915-1.062898v-12.360669l11.829816-16.001858c.050379-.066348.075569-.144639.075569-.226911zm-.574057 74.438695c-3.810254 0-8.617484 17.29432-8.617484 20.958068 3.314417 0 3.314417.46311 3.314417.46311.045076 4.38827.090152 8.775212.135228 13.160828.01591 1.426486 1.173304 2.572983 2.597177 2.572983 1.418571 0 2.570662-1.151805 2.570662-2.572983zm-13.257667 1.326964c0-.733811-.595269-1.326964-1.325767-1.326964h-1.773876v9.029989c0 .55069-.444131.995223-.994325.995223-.548867 0-.994325-.444533-.994325-.995223v-9.029989h-3.090362v9.029989c0 .55069-.444132.995223-.994325.995223-.548867 0-.994325-.444533-.994325-.995223v-9.029989h-1.764595c-.733149 0-1.325767.593153-1.325767 1.326964v9.288747c0 2.020966 1.325767 3.34793 3.9773 3.980892v19.904458c0 1.464968 1.185236 2.653928 2.651534 2.653928 1.463646 0 2.651533-1.18896 2.651533-2.653928v-19.904458c2.651533-.768312 3.9773-2.095276 3.9773-3.980892zm-6.791903-152.628716c.920082-1.687898.941295-3.634554.062311-5.782909-.275759-.678078-1.048681-1.001857-1.727474-.724522-.677467.277336-1.002279 1.052283-.725194 1.730361.568754 1.393312.589966 2.539809.063637 3.505839-.921408 1.689225-.941295 3.634554-.063637 5.782908.209471.512208.705308.825372 1.22766.825372.165721 0 .336745-.033174.499814-.099522.678792-.277336 1.003605-1.052283.72652-1.730361-.568754-1.393312-.589966-2.541136-.063637-3.507166zm6.628834-1.326964c.920082-1.687898.941294-3.634554.062311-5.782908-.27576-.676752-1.047356-1.001858-1.727474-.724523-.677467.277336-1.00228 1.052283-.725195 1.730361.568754 1.393312.589967 2.539809.063637 3.505839-.921408 1.689225-.941294 3.634554-.063637 5.782909.209471.512208.705308.825371 1.22766.825371.165721 0 .336745-.033174.499814-.099522.678793-.277336 1.003606-1.052283.72652-1.730361-.568753-1.393312-.589966-2.541136-.063636-3.507166zm6.628833 1.326964c.921408-1.687898.94262-3.634554.063637-5.782909-.279737-.679405-1.056636-1.00053-1.7288-.724522-.677467.277336-1.002279 1.052283-.725194 1.730361.568754 1.393312.589966 2.539809.063637 3.505839-.921408 1.689225-.94262 3.634554-.063637 5.782908.210797.513535.705308.825372 1.22766.825372.167046 0 .336745-.033174.50114-.099522.677466-.277336 1.002279-1.052283.725194-1.731688-.568754-1.391985-.589966-2.538482-.063637-3.505839zm-25.026498-51.723726h23.863801v-21.231422h-3.9773c0-4.397559-3.562335-7.961784-7.9546-7.961784-4.394917 0-7.954601 3.564225-7.954601 7.961784h-3.9773zm-55.682201-13.935775c-.002652-.367569-.300949-.662155-.666861-.660828-2.072173.009289-4.040937.070329-5.961973.153928v-3.008227c1.91043-.528132 3.314417-2.148355 3.314417-4.087049 0-2.368631-2.078802-14.290074-4.640183-14.290074-2.564033 0-4.640184 11.921443-4.640184 14.290074 0 1.938694 1.401336 3.558917 3.314417 4.087049v3.14225c-3.340932.213641-6.424665.554671-9.280367 1.00982v-2.935244c1.168001-.566614 1.98865-1.859077 1.98865-3.365181 0-2.028928-1.484858-12.247877-3.314416-12.247877-1.830884 0-3.314417 10.218949-3.314417 12.247877 0 1.506104.817998 2.798567 1.98865 3.365181v3.390392c-3.462903.680733-6.525424 1.56051-9.192866 2.636678.022538.003981.047727.009288.072917.013269 8.124298 1.356157 27.225945 2.764066 29.186754 11.507431.646974-.087579 1.145462-.64225 1.145462-1.313694v-13.933121zm0 94.880573c0-4.136146-8.408012-7.733545-15.866776-8.473991l3.346235-15.850584c-.377843-.139331-.768944-.258758-1.174629-.347665-.624436-.139331-1.240918-.188428-1.848119-.19639l-3.433736 16.260615c-3.059869.051752-6.457809.667463-9.489838 1.671975 1.148114-.52017 1.951529-1.671975 1.951529-3.016189 0-1.832537-1.484859-3.31741-3.314417-3.31741-1.830884 0-3.314416 1.484873-3.314416 3.31741s1.483532 3.31741 3.314416 3.31741c.259851 0 .51042-.038482.754362-.094215-4.51291 1.598992-8.046079 4.049894-8.046079 6.729034zm-.156441 56.859077c-.603223-1.62155-2.583919-2.140393-5.942086-1.552548l-6.553265 1.872346c-.125947.034501-.25985.023885-.379169-.03052l-10.667119-4.901805c-1.228985-.565286-2.625018-.648885-3.913663-.237526l-1.524632.488322c-.049053.015924-.094129.045117-.128599.08758-.09413.116773-.076895.289278.039773.38482l7.144557 5.839968c.084849.069002.14716.161889.177652.266719.086175.289279-.07822.59448-.365911.679406l-5.73129 1.715764c-.141857.042463-.296971.025213-.426897-.049097l-3.905708-2.242569c-1.044704-.601115-2.293577-.740446-3.446994-.388801l-1.341676.410032 7.053079 8.523089c.27576.333068.721217.471072 1.136182.3543l9.076199-2.55706-2.945853 5.740446c-.030493.059713-.038448.128716-.021213.193737.038448.145966.185608.233545.332768.19639l1.480881-.383492c1.352282-.350319 2.574639-1.082803 3.522562-2.108546l5.373333-5.82139 8.486232-2.391189c2.916687-1.102707 4.074081-2.464172 3.470857-4.088376zm-30.907599 83.572187c-.037121.010615-.072917.023885-.106061.041135-.327464.164544-.461367.562633-.296972.890393l5.175794 10.364915c.079546.156582.168372.303875.266479.447187 1.45304.07431 2.675397.509554 3.824837.924894 1.181258.425955 2.296228.826699 3.635252.828025h.005303c1.34035-.001326 2.45532-.40207 3.635252-.828025 1.150766-.414013 2.373123-.849257 3.824837-.924894.098107-.143312.186933-.290605.266479-.447187l5.175793-10.364915c.017235-.033174.030493-.069002.042425-.10483.104736-.351645-.092804-.721868-.445458-.826698l-12.500654-3.753981zm16.480606-13.042729v-3.980891c0-.733811-.595269-1.326964-1.325766-1.326964h-5.303067c-.733149 0-1.325767.593153-1.325767 1.326964v3.980891zm-10.606133 1.990446c-.733149 0-1.325767.593153-1.325767 1.326964v5.705945l7.9546-2.388535 7.9546 2.388535v-5.705945c0-.733811-.595269-1.326964-1.325766-1.326964zm20.567944 27.391189c-4.923897-2.955148-7.779599-1.925424-10.302533-1.016454-1.181258.425955-2.297553.828025-3.636578.828025-1.341676 0-2.456645-.40207-3.639229-.828025-2.520283-.90897-5.378636-1.940021-10.301208 1.016454-.628413.378185-.831255 1.192941-.454738 1.820595.375192.630308 1.191865.833333 1.818952.455148 3.843398-2.30759 5.694168-1.640127 8.03945-.794851 1.279364.460456 2.732405.984607 4.536773.984607 1.803043 0 3.254757-.524151 4.534122-.984607 2.345282-.843949 4.194726-1.512739 8.040775.794851.213449.128716.448109.189756.681444.189756.449435 0 .888264-.229565 1.137508-.644904.376518-.627654.173676-1.44241-.454738-1.820595zm-88.156856-99.04724c0-.367569-.296972-.663482-.662884-.663482h-13.92055v-13.933121c0-.367569-.296972-.663482-.662883-.663482h-6.628834c-.365911 0-.662883.295913-.662883.663482v13.933121h-13.94574c-.367237 0-.662883.295913-.662883.663482v6.551221c0 .367569.295646.663482.662883.663482h13.94574v14.01672c0 .366242.296972.663482.662883.663482h6.628834c.364586 0 .662883-.29724.662883-.663482v-13.906582h13.92055c.365912 0 .662884-.295913.662884-.663482zm-.02519 82.935244c0-.153927-.019886-.305201-.023864-.457802-.759664.110138-1.524631.183121-2.290924.183121-3.57029 0-7.139254-1.192941-10.055941-3.577495l-3.847375 3.852176 11.89743 11.906848c2.693958-3.224523 4.320674-7.373939 4.320674-11.906848zm-6.664629 14.25292-11.896105-11.908174-3.8487 3.852176c2.318766 2.833068 3.580896 6.352176 3.580896 10.065021 0 .776274-.072918 1.537951-.181631 2.291667.151138.003981.296972.023885.449435.023885 4.528819 0 8.673166-1.628185 11.896105-4.324575zm-18.111299-5.687368-5.682236 5.687368c2.309486 1.933386 5.093596 3.318736 8.154791 3.94639.51042-3.33466-.312881-6.837845-2.472555-9.633758zm-8.026191 3.341296 5.672955-5.676752c-2.180886-1.662686-4.821813-2.57431-7.608575-2.57431-.672164 0-1.333721.066348-1.987324.169851.635042 3.032113 2.008536 5.790871 3.922944 8.081211zm22.799209-18.127654c2.793391 2.161624 6.293415 2.985668 9.623741 2.474787-.625762-3.063959-2.009862-5.850584-3.94283-8.162155zm3.336955-8.032113c-2.288273-1.917463-5.044542-3.292197-8.073919-3.926486-.521026 3.31741.279737 6.805998 2.403615 9.603238zm-11.369775-4.299363c-.176327-.003981-.348677-.025212-.525004-.025212-4.530144 0-8.674491 1.626857-11.89743 4.324575l11.89743 11.906847 3.856656-3.860138c-2.861005-3.550955-3.96802-8.053344-3.331652-12.346072zm-19.060548 19.081741c.775574-.114119 1.560428-.191083 2.358539-.191083 3.675025 0 7.156489 1.243365 9.975069 3.523089l3.857981-3.861465-11.89743-11.908174c-2.693958 3.224523-4.319348 7.375266-4.319348 11.908174 0 .179141.019886.351646.025189.529459zm-55.707391-164.409501h-4.095293l-2.244523-7.638004c-.17235-.585191-.709285-.987261-1.319138-.987261h-21.80621c-.609853 0-1.146789.40207-1.317813.987261l-2.245848 7.638004h-4.092642v1.277866c0 .759024.61383 1.376062 1.37482 1.376062h1.939597l-1.98865 1.990446v6.81794c0 2.434979 1.700958 4.465234 3.9773 4.985404v2.880838c0 .684714.552844 1.239385 1.235614 1.239385h2.829186c.684096 0 1.238266-.554671 1.238266-1.239385v-2.741507h15.909201v2.741507c0 .684714.552844 1.239385 1.235614 1.239385h2.829186c.684096 0 1.238267-.554671 1.238267-1.239385v-2.880838c2.273689-.52017 3.9773-2.550425 3.9773-4.985404v-6.81794l-1.98865-1.990446h1.938271c.759664 0 1.376145-.617038 1.376145-1.376062zm-2.651533 72.230626c0-.683386-.554171-1.238057-1.238266-1.238057h-12.34554l-3.489418-1.90552 5.328257-.761677c.723868-.103504 1.22766-.776274 1.12425-1.502124-.102084-.724522-.771596-1.226114-1.499442-1.123938l-9.280367 1.326964c-.566102.079618-1.016863.513535-1.117621 1.076168-.100759.562632.168372 1.127919.669512 1.401273l2.727102 1.488854h-11.461253c-.68277 0-1.235615.554671-1.235615 1.238057v25.654193c0 2.7362 2.214031 4.954884 4.947762 4.954884h21.920226c2.733731 0 4.950413-2.218684 4.950413-4.954884zm0 77.052813-15.9092-3.980891-15.909201 3.980891v3.980892l15.909201-3.980892 15.9092 3.980892zm-3.53582 33.174098-3.808928-5.717887c1.974067-.812102 3.367448-2.750797 3.367448-5.018578v-17.371284c0-.599788-.487882-1.085457-1.085803-1.085457h-10.846097-10.847424c-.599246 0-1.084477.485669-1.084477 1.085457v17.371284c0 2.403132 1.569708 4.417463 3.732034 5.13137l-3.732034 5.605095h4.418781l.662883-1.326964h14.141953l.662884 1.326964zm-28.282581-247.789278c0 2.403132 1.708914 4.404193 3.9773 4.856688v2.839703c0 .684713.552845 1.239384 1.235615 1.239384h2.829186c.684096 0 1.238266-.554671 1.238266-1.239384v-2.741508h13.257667v2.741508c0 .684713.552845 1.239384 1.235615 1.239384h2.829186c.684095 0 1.238266-.554671 1.238266-1.239384v-2.839703c2.265735-.452495 3.9773-2.453556 3.9773-4.856688v-26.981157c0-.683387-.554171-1.238057-1.238266-1.238057h-29.34452c-.68277 0-1.235615.55467-1.235615 1.238057zm90.152136 71.303079h2.651533v5.307855h3.9773v3.980892h5.303067v-9.288747h10.606133v-5.307856h-10.606133v-9.288747h-5.303067v3.980891h-3.9773v5.307856h-2.651533zm30.492634-10.615712v-3.980891h-5.303067v9.288747 5.307856 9.288747h5.303067v-3.980892h3.9773v-5.307855h2.651533v-5.307856h-2.651533v-5.307856zm-30.492634-53.058652c0 .732485.592617 1.326964 1.325766 1.326964h11.522239v-13.166135c0-2.200107 1.78183-3.980892 3.9773-3.980892h3.468205c2.19547 0 3.977301 1.780785 3.977301 3.980892v13.166135h11.524889c.730498 0 1.325767-.594479 1.325767-1.326964v-22.375265c0-.431263-.210797-.835987-.562125-1.084129l-17.213755-12.147028c-.456063-.322452-1.067242-.322452-1.525957-.001327l-17.258831 12.148355c-.351328.248142-.560799.652866-.560799 1.084129zm102.598433 53.817676c-.038447.075637-.050379.160562-.035796.242834.037122.208333.237312.347665.445458.31051 1.724822-.31051 3.08771-.355627 4.08999-.134024 1.715542.382166 3.193772 1.214172 4.294158 2.315552 2.094712-8.888004 7.155163-11.215499 7.155163-11.215499-6.973533-1.54724-12.289857 1.279194-15.948973 8.480627zm26.426507 6.295116c.173676.122081.412314.080945.534284-.092887.049054-.071656.074243-.155255.06894-.241507-.421594-8.099788-4.119157-12.923302-11.088712-14.470542 0 0 3.665744 4.264862 1.979369 13.241773 1.446412-.536093 3.130135-.666136 4.844352-.285297 1.000954.221603 2.220659.838641 3.661767 1.84846zm-36.221272-60.132696c0 .732484.592618 1.326964 1.325767 1.326964h22.888036c-1.223682-5.65552-9.626392-6.77017-18.994259-8.379777-1.225009-.20966-2.26441-.497612-3.148696-.833333-.738452.455148-1.427851.935509-2.070848 1.434448zm2.651534-29.856688c0 1.832537 1.483533 3.31741 3.314417 3.31741 1.829558 0 3.314416-1.484873 3.314416-3.31741s-1.484858-3.31741-3.314416-3.31741c-1.830884 0-3.314417 1.484873-3.314417 3.31741zm286.425266 75.770966c-4.03696 2.519905-4.03696 2.519905-4.03696 11.14517v10.615711 4.917729c0 1.208864.92406 3.2776 2.434108 4.86863 2.153045 2.269108 5.314999 3.604034 9.497793 3.604034 4.180142 0 7.342096-1.334926 9.495141-3.604034 1.510048-1.59103 2.436759-3.659766 2.436759-4.86863v-4.917729-10.615711c0-7.298301-.662883-9.426752-3.712147-9.345807-.045076-.039809-.045076-.039809-.092804-.080945-.589966-2.116507-4.048891-4.315286-7.23736-3.755307-3.230893.599787-9.922038-.079618-9.922038-.079618-.090152 1.238057 1.137508 2.116507 1.137508 2.116507zm-10.128858-50.290605c2.320092 2.035563 5.139998 3.508493 8.425248 4.451964 1.327092-1.805998 3.15665-3.225849 5.285832-4.056529 1.34963.526805 2.821231.816083 4.361772.816083 1.537889 0 3.00949-.289278 4.360447-.816083 2.126529.829353 3.953436 2.249204 5.280528 4.055202 3.282599-.944798 6.099853-2.417728 8.417293-4.450637.338071-.295913.502466-.7431.438829-1.187633-1.589594-11.041666-3.248128-18.475318-4.974277-22.302282-2.642253-5.8612-7.609901-7.961783-13.529449-7.961783s-10.887196 2.100583-13.530775 7.961783c-1.724822 3.826964-3.383356 11.260616-4.972951 22.302282-.064962.444533.100759.89172.437503 1.187633zm97.5698-17.850318c0 2.708333.778225 5.22293 2.101341 7.354034.787505 1.265923 4.13374 6.441082 10.040031 15.528131.399056.614384 1.221031.789544 1.834861.388801.15644-.10085.289017-.234873.389775-.391455 5.987163-9.268843 9.328095-14.432059 10.020145-15.486995 1.373494-2.092623 2.129181-4.666933 2.129181-7.392516 0-7.511943-5.936783-13.60138-13.257667-13.60138-7.323535 0-13.257667 6.089437-13.257667 13.60138zm-760.653339 501.902866h991v-755.00000017h-991zm493.158696-346.388004c-1.463646 0-2.650208 1.188959-2.650208 2.653927 0 1.466296 1.186562 2.653928 2.650208 2.653928 1.462321 0 2.648882-1.187632 2.648882-2.653928 0-1.464968-1.186561-2.653927-2.648882-2.653927zm-266.789336 16.658704c-1.466297 0-2.651533 1.187633-2.651533 2.653928 0 1.464968 1.185236 2.653928 2.651533 2.653928 1.463647 0 2.651534-1.18896 2.651534-2.653928 0-1.466295-1.187887-2.653928-2.651534-2.653928zm1.413268-17.25053h-21.38992c-.68277 0-1.235615.554671-1.235615 1.238057v10.792197c0 .684714.552845 1.239385 1.235615 1.239385h21.38992c.684095 0 1.238266-.554671 1.238266-1.239385v-10.792197c0-.683386-.554171-1.238057-1.238266-1.238057zm-19.974001 17.25053c-1.466298 0-2.651534 1.187633-2.651534 2.653928 0 1.464968 1.185236 2.653928 2.651534 2.653928 1.463646 0 2.651533-1.18896 2.651533-2.653928 0-1.466295-1.187887-2.653928-2.651533-2.653928zm15.78723 76.155786c-1.198494 0-2.168955.981953-2.168955 2.192144 0 1.211518.970461 2.192145 2.168955 2.192145 1.198493 0 2.168954-.980627 2.168954-2.192145 0-1.210191-.970461-2.192144-2.168954-2.192144zm3.073127-173.329352c-.178979-.606423-.735801-1.021763-1.36554-1.021763h-16.431552c-.62974 0-1.186562.41534-1.364214 1.021763l-2.040355 6.940021h23.24069zm-.299624 10.920913c-1.466297 0-2.651533 1.187632-2.651533 2.653927 0 1.464969 1.185236 2.653928 2.651533 2.653928 1.463647 0 2.651534-1.188959 2.651534-2.653928 0-1.466295-1.187887-2.653927-2.651534-2.653927zm-18.560733 0c-1.466298 0-2.651534 1.187632-2.651534 2.653927 0 1.464969 1.185236 2.653928 2.651534 2.653928 1.463646 0 2.651533-1.188959 2.651533-2.653928 0-1.466295-1.187887-2.653927-2.651533-2.653927zm4.41878 171.178343-.662883 1.326964h11.49042l-.662884-1.326964zm276.64376-261.411889c-2.928619 0-5.303067 2.376592-5.303067 5.307856h10.606133c0-2.931264-2.375774-5.307856-5.303066-5.307856zm-282.478459-3.980892h21.38992c.684095 0 1.238266-.554671 1.238266-1.239384v-.176486c0-.683387-.554171-1.238058-1.238266-1.238058h-21.38992c-.68277 0-1.235615.554671-1.235615 1.238058v.176486c0 .684713.552845 1.239384 1.235615 1.239384zm19.976652 18.577495c-1.466297 0-2.651533 1.187633-2.651533 2.653928 0 1.464968 1.185236 2.653927 2.651533 2.653927 1.463647 0 2.651534-1.188959 2.651534-2.653927 0-1.466295-1.187887-2.653928-2.651534-2.653928zm359.317245 228.017516-.587314 1.933386h1.175955zm5.556289.663482c.114016-.08758.171023-.245489.171023-.473726 0-.228238-.057007-.386147-.171023-.4724-.114016-.088906-.282389-.132696-.505118-.132696h-.921407v1.210191h.945271c.20682 0 .367238-.04379.481254-.131369zm-106.635393-147.7362h19.05657c.440155-1.91879.778225-4.125531 1.004931-6.634819h-20.990864c.194888 2.223991.493186 4.509023.929363 6.634819zm107.053009 149.571391c0-.238854-.06894-.424629-.20682-.553344-.137879-.130043-.368563-.195064-.69205-.195064h-.945271v1.495489h.945271c.323487 0 .554171-.065022.69205-.193737.13788-.13137.20682-.315818.20682-.553344zm-378.912077 9.721337c0-1.210191-.970461-2.192144-2.168954-2.192144s-2.168954.981953-2.168954 2.192144c0 1.211518.970461 2.192145 2.168954 2.192145s2.168954-.980627 2.168954-2.192145zm296.324766-163.27362h-1.585617l-1.654556 7.525213c.582011-.311837.929362-.522824 1.136182-.662155 2.920664-1.97983 4.398894-4.031317 3.95211-5.486996-.25985-.850584-1.162697-1.376062-1.848119-1.376062zm-298.008489 158.889332h11.9319c1.362888 0 2.243197-2.850319 2.643579-8.550956.001326-.023885.002651-.046443.002651-.070329 0-.559979-.453412-1.0138-1.012885-1.0138h-15.19859c-.023864 0-.047727 0-.071591.002654-.556822.039809-.978416.52415-.938643 1.081475.399056 5.700637 1.280691 8.550956 2.643579 8.550956zm-3.256083-230.545383c1.463646 0 2.651533-1.188959 2.651533-2.653927 0-1.466295-1.187887-2.653928-2.651533-2.653928-1.466298 0-2.651534 1.187633-2.651534 2.653928 0 1.464968 1.185236 2.653927 2.651534 2.653927zm-2.651534-9.201167v-10.792198c0-.683386.552845-1.238057 1.235615-1.238057h21.38992c.684095 0 1.238266.554671 1.238266 1.238057v10.792198c0 .684713-.554171 1.239384-1.238266 1.239384h-21.38992c-.68277 0-1.235615-.554671-1.235615-1.239384z" fill="#fff" fill-rule="evenodd" mask="url(#b)" transform="translate(-119 -179.804813)"/></g></g></g></svg>