<svg width="13" height="15" viewBox="0 0 13 15" fill="none" xmlns="http://www.w3.org/2000/svg">
<path d="M7.47266 8.31055C7.47265 9.13832 7.44279 9.88213 7.38281 10.542C7.35036 10.899 7.31154 11.2387 7.26855 11.5605C7.43906 11.32 7.62704 11.0761 7.83301 10.8301C8.27696 10.3262 8.79296 9.81014 9.38086 9.28223C9.98078 8.7663 10.6647 8.26244 11.4326 7.77051L12.5488 9.24609C11.5889 9.83404 10.7548 10.4041 10.0469 10.9561C9.339 11.508 8.69702 12.0781 8.12109 12.666C7.55709 13.254 7.03469 13.8846 6.55469 14.5566H6.44727C5.95528 13.8847 5.42726 13.254 4.86328 12.666C4.31128 12.078 3.67507 11.5081 2.95508 10.9561C2.2351 10.4041 1.40109 9.83407 0.453125 9.24609L1.58691 7.77051C2.34286 8.26248 3.02113 8.76626 3.62109 9.28223C4.22102 9.81016 4.73698 10.3261 5.16895 10.8301C5.37617 11.0709 5.56245 11.3103 5.73047 11.5459C5.6883 11.2284 5.6511 10.8935 5.61914 10.542C5.57116 9.88213 5.54688 9.13833 5.54688 8.31055V0.568359H7.47266V8.31055Z" fill="white"/>
</svg>
