<?xml version="1.0" encoding="UTF-8"?>
<svg width="367px" height="367px" viewBox="0 0 367 367" version="1.1" xmlns="http://www.w3.org/2000/svg" xmlns:xlink="http://www.w3.org/1999/xlink">
    <!-- Generator: Sketch 57.1 (83088) - https://sketch.com -->
    <title>Group 3</title>
    <desc>Created with Sketch.</desc>
    <defs>
        <filter x="0.0%" y="0.0%" width="100.0%" height="100.0%" filterUnits="objectBoundingBox" id="filter-1">
            <feGaussianBlur stdDeviation="0" in="SourceGraphic"></feGaussianBlur>
        </filter>
    </defs>
    <g id="New" stroke="none" stroke-width="1" fill="none" fill-rule="evenodd">
        <g id="Artboard" transform="translate(-1560.000000, -407.000000)">
            <g id="Group-3" transform="translate(1560.000000, 407.000000)">
                <g id="Group-2-Copy" fill="#FFFFFF">
                    <g id="Familie-Sauerwein--Copy-4">
                        <rect id="Rectangle" x="0" y="0" width="367" height="367"></rect>
                    </g>
                </g>
                <path d="M132.746868,188.463811 C132.622377,194.186115 132.29455,199.946824 132.128562,205.669129 C131.999921,209.01418 130.838003,213.311669 129.053629,216 C124.032484,212.005908 120.505233,207.358936 118.310038,201.905465 C117.72493,200.48449 118.1399,198.679468 118.181398,197.104874 C118.264392,194.458789 118.476027,191.843427 118.513374,189.193501 C118.554871,184.3161 118.596368,179.4387 118.513374,174.599705 C118.513374,172.948301 118.973992,171.834564 120.754216,171.181684 C125.277396,169.530281 128.970635,166.534712 133,164 C132.912856,172.222452 132.871359,180.322009 132.746868,188.463811 L132.746868,188.463811 Z M116.621236,170.204888 C116.074523,170.284151 115.519944,170.640837 114.969298,170.799364 C114.461916,170.918259 113.868005,171.076787 113.396023,170.957891 C110.642791,170.363415 108.636866,168.976303 107.181586,166.320974 C105.612244,163.47145 103.64565,159.742101 106.316285,157.641617 C107.26025,156.888614 108.007556,156.254505 108.636866,155.703624 C108.676197,155.703624 108.719463,155.660029 108.719463,155.660029 C112.255398,152.925437 116.463909,153.995495 119.767787,155.818556 C122.957602,157.562354 126.021555,159.385415 129.168105,161.168845 C129.954742,161.604794 130.780712,162.001112 132,162.595588 C129.683352,164.339386 127.830821,165.924657 125.785564,167.153242 C123.858302,168.302563 121.695048,169.174462 119.535728,170.006729 C118.666494,170.323783 117.604533,170.085992 116.621236,170.204888 L116.621236,170.204888 Z M338.012968,146.347188 C336.15517,147.390431 334.413485,147.617558 332.478279,146.347188 C329.730287,144.503227 326.827478,142.844048 324.044652,141.034733 C322.492617,140.072332 322.419079,140.033836 320.750932,141.227214 C318.157756,143.075024 315.912917,145.500275 312.74305,146.578164 C312.003802,146.274046 311.229719,146.03922 310.571749,145.654259 C307.862461,144.075921 305.191877,142.459087 302.559997,140.765261 C301.514986,140.110828 300.7022,140.110828 299.928117,140.957741 C297.218829,143.998929 293.851571,146.154708 290.488184,148.352832 C289.245781,149.161249 288.742628,150.042809 288.974853,151.544155 C292.729152,151.582651 294.1225,155.9712 298.147728,156.086688 C296.293801,159.166372 296.676972,162.323048 296.831788,165.402732 C296.951771,167.943472 296.986605,170.407219 296.909196,172.947958 C296.75438,180.878144 296.831788,188.80833 296.715676,196.738516 C296.676972,199.856696 296.522155,203.013372 296.057706,206.096906 C295.593256,209.134244 294.470837,212.059944 293.154897,215.101132 C292.496927,214.369707 292.032478,213.869258 291.610603,213.36881 C289.865047,211.174535 288.85874,208.518307 287.430558,206.170048 C285.297962,202.666908 284.25295,199.086775 284.485175,195.04469 C284.756104,190.887117 284.988329,186.694897 285.065737,182.494978 C285.181849,176.951547 285.104441,171.36962 285.220553,165.787693 C285.297962,161.591623 285.607594,157.395554 285.685003,153.199485 C285.723707,151.39017 285.650169,149.696344 287.039647,148.271991 C286.69131,147.656054 286.497789,146.924629 286.072044,146.693652 C283.560147,145.346291 281.934574,143.232858 280.11161,141.150221 C278.253812,139.032939 276.550831,139.109931 274.499513,140.919245 C271.403184,143.613969 268.345559,146.347188 265.287934,149.041911 C264.78478,149.503864 264.397739,150.081305 263.739769,150.81273 C264.939596,150.735738 265.945903,150.389273 266.410353,150.735738 C268.422967,152.27558 270.745214,153.892414 271.136125,156.510145 C271.635409,160.051782 271.635409,163.67041 271.635409,167.250543 C271.635409,171.36962 271.248367,175.450201 271.248367,179.569278 C271.170959,188.923818 271.403184,198.316854 269.046103,207.51741 C268.461671,209.750181 268.113334,212.059944 266.371649,214.13873 C265.287934,213.407306 264.281626,212.833714 263.46884,212.059944 C259.98547,208.710788 257.934151,204.476222 256.03765,200.168514 C255.844129,199.779704 255.844129,199.24076 255.882833,198.778807 C256.153762,193.312368 256.502099,187.845929 256.656916,182.37949 C256.88914,173.563895 257.082661,164.786796 257.198773,155.9712 C257.198773,153.276477 256.811732,150.62025 256.656916,148.695447 C254.218556,147.001621 252.360759,145.769747 250.541665,144.460882 C249.612766,143.767953 248.726442,142.959536 247.948489,142.074127 C246.748662,140.611277 245.239201,140.457293 243.691037,141.111725 C242.181576,141.727662 240.830803,142.270456 239.20523,141.462039 C238.73691,141.227214 238.040236,141.381198 237.459674,141.462039 C235.137427,141.616024 232.853884,141.804654 230.299413,141.997135 C229.98978,137.685577 230.686454,133.720484 231.576648,129.485919 C230.686454,129.75924 230.067188,129.793887 229.684017,130.101855 C228.635136,130.987264 227.783645,132.065154 226.69993,132.954413 C222.016732,136.723176 217.259996,140.418796 212.611631,144.268401 C210.022326,146.385684 207.6188,148.695447 205.064329,150.851226 C204.290246,151.544155 203.980614,152.314076 204.599879,153.122493 C205.141737,153.892414 205.915819,153.622941 206.728606,153.391965 C207.932304,153.083997 209.20954,152.891516 210.486775,152.891516 C212.112348,152.85687 213.772755,153.045501 215.591848,153.164838 C216.365931,155.316767 216.17241,157.62653 215.940185,159.974789 C215.591848,163.47793 215.015157,167.019566 215.169974,170.48806 C215.359624,174.564792 215.243511,178.606877 215.049991,182.691308 C214.779062,188.731338 214.624246,194.775218 214.430725,200.819098 C214.392021,201.396538 214.237204,202.012475 214.237204,202.589916 C214.275908,204.707198 213.192193,206.708993 213.501826,208.941764 C213.772755,211.251527 212.650336,213.36881 211.334396,215.178124 C210.676426,216.102029 209.283077,216.486989 208.160658,217.179918 C205.838411,214.408203 204.096726,211.751975 203.438756,208.518307 C203.013011,206.478017 202.780786,204.437726 202.16152,202.474428 C200.346297,196.430548 200.84558,190.232684 201.271325,184.150308 C201.623533,179.338302 201.426142,174.603288 201.50355,169.444818 C195.930157,169.217691 190.627694,169.021361 185.286525,168.790385 C185.209117,168.597904 185.174284,168.366928 185.093005,168.135952 C190.859918,163.169962 197.129985,158.785262 203.051715,153.507453 C202.200224,152.66054 201.658367,152.006107 201.000397,151.467163 C197.129985,148.464471 193.143461,145.615763 190.085836,141.689166 C189.156937,140.499638 187.995814,140.499638 186.718578,141.462039 C185.944495,142.074127 185.247821,142.767055 184.512443,143.344496 C181.532226,145.769747 178.513305,148.156502 175.571792,150.504761 C175.610496,142.382095 175.498255,134.14394 176.11365,125.86729 C176.345875,122.248661 176.229762,118.630033 176.229762,114.972908 C176.229762,111.585256 176.229762,108.159107 176.156224,104.771455 C176.11365,103.077629 176.074946,101.460795 177.390886,100.113433 C178.164968,99.3820082 178.203672,98.5350951 176.849028,98 C172.63028,101.537787 168.334123,105.079423 164.154078,108.698052 C162.064056,110.511216 160.051442,112.393673 158.116236,114.318475 C156.529367,115.935309 156.529367,116.089293 158.081402,117.629135 C159.316064,118.822513 160.283666,120.169875 160.438483,121.863701 C160.748116,124.981881 161.057749,128.100061 161.057749,131.218241 C161.019045,135.568294 160.709412,139.918348 160.477187,144.268401 C160.399779,145.923732 160.12885,147.579062 160.12885,149.234392 C160.171425,152.814524 160.361075,156.394657 160.438483,159.974789 C160.438483,160.35975 160.283666,160.74471 160.244962,161.129671 C159.935329,164.209355 159.625696,167.327535 159.354768,170.407219 C159.161247,172.258879 159.049005,174.102839 158.929022,175.954499 C158.851614,176.836059 158.81291,177.721468 158.894189,178.606877 C158.967727,180.031231 159.277359,181.494081 159.277359,182.918435 C159.316064,187.037512 159.203822,191.156589 159.316064,195.23717 C159.47088,201.319546 158.584556,207.13245 156.026214,212.67973 C155.484356,213.869258 155.213427,215.332108 153.858783,215.871053 C153.278221,215.755565 152.658956,215.794061 152.349323,215.486092 C149.756147,212.868361 147.201675,210.135141 147.43777,206.05456 C147.472604,205.246143 147.592587,204.476222 147.550012,203.706301 C147.240379,197.662421 146.659818,191.580046 146.624984,185.536166 C146.543705,178.375901 146.930746,171.254132 147.162971,164.093867 C147.162971,163.631914 147.046859,162.977481 147.317788,162.708009 C149.063343,160.821703 148.09574,158.588932 148.28539,156.510145 C148.405373,155.162783 147.62742,154.31587 146.470167,153.776926 C140.312343,150.932067 134.506725,147.540566 129.165557,143.386842 C127.694801,142.270456 126.107932,141.997135 124.482359,142.805552 C122.392337,143.806449 120.302315,144.884338 118.328405,146.154708 C115.077259,148.271991 111.903521,150.543257 108.733654,152.814524 C108.536263,152.930012 108.342743,153.083997 108.187926,153.276477 C107.456418,153.699933 104.781964,156.433153 104.588443,156.779617 C103.233799,158.819908 102.498421,161.091175 103.543432,163.443283 C105.130301,167.096559 106.562353,170.946163 111.013327,172.63999 C107.220323,176.451098 101.917859,177.879302 98.7479922,182.456482 C99.4407959,183.110915 99.8278371,183.807693 100.408399,183.961678 C102.575829,184.650757 103.233799,186.190599 103.156391,188.269386 C103.082853,189.347275 103.117687,190.425164 103.117687,191.506903 C102.885462,197.854902 102.691942,204.20675 102.421013,210.558598 C102.421013,211.328519 102.266196,212.09844 102.11525,212.868361 C101.298593,216.640974 99.4020918,219.836146 96.9676029,222.761845 C96.5766913,223.266144 96.3096329,223.801239 96,224.340184 C96.1122419,224.494168 96.2670584,224.686648 96.4218749,224.840632 C99.9826535,223.955223 102.11525,220.532924 105.521213,218.912241 C109.426458,222.877334 113.335574,226.842427 117.44208,231 C119.88044,229.575646 122.198816,228.459261 124.215301,226.961764 C126.224044,225.456569 127.888321,223.49327 129.784823,221.83794 C130.833705,220.875539 132.068366,220.144114 133.268193,219.297201 C136.71286,222.954326 138.918994,227.419867 142.866814,230.692032 C147.511308,224.648152 153.901358,220.991027 159.203822,216.025037 C159.47088,216.448493 159.706975,216.640974 159.780513,216.910446 C161.019045,221.683956 163.379996,225.764537 166.979479,229.15219 C168.605051,230.730528 170.153216,231 171.627843,229.614142 C173.443066,227.843324 175.146047,225.957018 176.849028,224.074561 C178.977755,221.683956 181.067777,219.181713 183.196503,216.756462 C183.970586,215.871053 184.899484,215.101132 185.557454,214.13873 C186.370241,213.022345 186.254128,211.982952 184.864651,211.213031 C182.732054,212.833714 181.532226,215.678572 178.09143,215.871053 C177.352182,214.639179 176.384579,213.407306 175.726609,212.021448 C173.752699,207.940867 173.172137,203.513821 173.253416,199.052129 C173.288249,194.65973 173.563049,190.27118 173.830107,185.844134 C173.907515,184.188804 174.221019,182.494978 174.449373,180.878144 C178.861642,181.532577 183.002983,180.416191 187.144323,181.455585 C187.144323,188.692842 187.109489,195.737619 187.183027,202.820892 C187.183027,205.515616 187.337844,208.287331 187.767459,210.982054 C188.615079,216.217517 190.279356,221.222004 192.833828,225.880025 C194.188472,228.382269 197.288672,230.114591 199.916681,227.766332 C200.419835,227.304379 201.077805,227.034907 201.623533,226.61145 C203.403922,225.264089 205.141737,223.878231 206.922126,222.457727 C207.119517,223.069814 207.274334,223.531766 207.502688,224.263191 C208.586403,223.49327 209.39919,222.761845 210.289384,222.222901 C212.805152,220.837043 214.392021,217.757359 217.917966,218.257808 C219.543539,220.683059 221.203945,223.223798 222.910797,225.726041 C224.803428,228.574749 225.771031,228.805725 228.635136,226.842427 C230.144596,225.764537 231.421832,224.417176 232.81518,223.146806 C236.530775,219.836146 240.24637,216.529335 244.078078,213.137833 C244.232894,213.407306 244.426415,213.715274 244.581231,214.023242 C246.671254,217.680367 248.761276,221.341341 251.818901,224.301687 C254.876526,227.227387 256.153762,227.269733 259.250091,224.417176 C260.182861,223.531766 261.262705,222.068917 262.191604,222.107413 C263.971994,222.261397 264.591259,221.068019 265.558862,220.224956 C267.997222,218.219312 270.396877,216.140525 273.071331,213.869258 C274.112472,215.909549 275.080075,217.491736 275.699341,219.220209 C276.744352,222.030421 278.486037,224.340184 280.305131,226.649946 C281.659775,228.382269 283.207939,228.613245 284.601287,227.381371 C286.536493,225.726041 288.398161,223.993719 290.290793,222.261397 C292.458223,220.336594 294.664358,218.411792 296.986605,216.294509 C300.469975,220.413587 303.295376,224.95612 308.172094,227.573852 C310.300821,225.687545 312.433417,223.801239 314.558273,221.914932 C317.306266,219.451185 320.054258,216.987438 322.80225,214.485195 C323.731149,213.642131 324.199469,212.560392 324.389119,210.982054 C323.189291,211.828968 322.299097,212.444904 321.451476,213.060841 C320.483874,213.75377 319.551104,214.408203 318.66091,215.02414 C316.22255,213.137833 312.74305,208.633795 311.191015,205.477119 C310.184708,203.475325 309.488034,201.512026 310.455637,199.279256 C310.687862,198.701815 310.571749,197.931894 310.571749,197.238965 C310.571749,194.240123 310.533045,191.233581 310.610453,188.230889 C310.76527,180.112073 310.881382,171.985557 311.113607,163.86289 C311.229719,160.667718 311.539352,157.472546 311.775447,154.277374 C311.810281,153.819271 311.965098,153.353469 312.08121,152.699036 C312.700476,152.891516 313.164925,153.010854 313.59067,153.199485 C316.145142,154.354366 318.703484,155.624736 321.29666,156.741121 C322.879658,157.395554 324.389119,157.549538 325.937283,156.202177 C327.60156,154.739327 329.614175,153.584445 331.510676,152.391068 C333.755515,150.966714 336.039058,149.657848 338.283897,148.233494 C339.174091,147.69455 340.10299,147.155605 339.990748,145.538771 C339.174091,145.885235 338.558696,146.03922 338.012968,146.347188 L338.012968,146.347188 Z M70,170.838323 C69.9602673,182.151203 69.8847753,193.464083 69.9205347,204.776963 C69.9602673,208.26953 69.2848119,211.686172 68.4106931,215.026888 C68.0133664,216.625117 66.7816536,218.02594 65.6294061,220 C63.3249111,218.44353 61.3382775,217.152799 59.3913766,215.827901 C58.6761885,215.33059 57.9649736,214.761149 57.2060796,214.34356 C55.6167727,213.508381 54.8618519,212.293575 55.0207826,210.547291 C55.3783767,205.953806 55.7359707,201.322359 56.0935648,196.728874 C56.0935648,196.311284 56.0935648,195.931658 56.1372707,195.552031 C56.3319608,188.490971 56.6895549,181.467875 56.7292875,174.406815 C56.7690202,170.572584 56.2962014,166.70039 56.1372707,162.866159 C56.0538321,160.816174 56.1372707,158.804152 56.1372707,156.640278 C56.9279509,156.450465 57.5636736,156.222689 58.2391291,156.184726 C58.9582904,156.108801 59.6695053,156.298614 60.3449607,156.184726 C64.1195645,155.425473 66.9803169,157.095831 70,159.563405 L70,170.838323 Z M108.187217,145.027976 C107.455122,145.062798 106.645966,145.217559 105.952403,145.027976 C101.87194,143.863397 97.7837715,142.702687 93.7765186,141.348525 C92.3508613,140.84555 91.1563917,140.652098 89.9233908,141.541976 C88.3859927,142.741377 86.7676791,143.824707 85.2996374,145.062798 C84.7216682,145.527082 84.413418,146.339579 83.8778332,147.229457 C81.3347688,145.681843 79.2502267,144.598513 77.4392566,143.205661 C75.7092022,141.851499 73.9367634,141.232454 71.7751587,141.658047 C71.1201269,141.812809 70.4265639,141.812809 69.7330009,141.890189 C66.2305077,142.083641 62.6856301,141.425905 59.2139619,142.431854 C58.7515866,142.586616 58.25068,142.470545 57.7497733,142.470545 C56.5976881,142.509235 55.900272,142.044951 55.8617407,140.768169 C55.6690843,135.893186 55.7076156,131.018203 57.0947416,126.414052 C59.8689937,127.38131 62.5661831,128.232498 65.1863101,129.238447 C68.5385313,130.519097 71.5825023,129.470589 74.3567543,127.729524 C78.7107888,124.943819 82.9492294,121.925972 87.18767,118.911994 C88.0777425,118.28908 89.1527652,117.631344 88.9986401,115.967659 C88.4206709,116.04504 87.8427017,115.967659 87.6115141,116.238491 C85.9546691,118.018247 83.8778332,118.250389 81.6776972,118.211699 C76.7071623,118.173009 72.3184497,116.431943 68.1917498,113.762309 C66.5387579,112.67898 66.3422484,112.75636 64.9165911,113.955761 C61.9111514,116.431943 58.8671804,118.869435 55.7885313,121.268236 C54.6287398,122.158114 53.3572076,122.893231 52.162738,123.783108 C49.3499547,125.837566 46.7298277,128.232498 43.724388,129.973563 C41.6822303,131.134274 41.2198549,132.411055 41.4510426,134.461643 C41.7207616,137.053896 42.0290118,139.72353 41.1042611,142.431854 C40.7574796,142.547925 40.2951043,142.818758 39.8327289,142.857448 C37.906165,143.12828 36.368767,143.940778 35.131913,145.527082 C34.288078,146.726482 33.205349,147.848502 31.9723481,148.622309 C29.5834089,150.169923 28.1192203,152.491344 26.4276972,154.619312 C26.0809157,155.044906 26.1541251,155.822582 26,156.669901 C28.6971895,155.667821 30.9705349,154.545801 33.3594742,154.000267 C35.9410698,153.419912 38.5226655,153.961577 40.9886673,154.271099 C40.9886673,156.282997 40.950136,157.946682 40.9886673,159.571676 C41.0657298,162.047858 41.3393019,164.48535 41.3393019,166.922842 C41.2969175,170.559734 41.1042611,174.200495 40.9886673,177.833519 C40.7960109,183.404928 40.5301451,189.015028 40.4877607,194.625128 C40.4492294,196.753097 40.8769266,198.881066 39.986854,200.974213 C39.8327289,201.357248 40.1409791,201.941472 40.1409791,202.401887 C39.986854,206.386992 40.9886673,210.372098 39.8712602,214.395894 C39.5244787,215.637854 39.3703536,216.988147 40.3760199,218.303618 C40.950136,219.077425 41.1427924,220.431587 39.9483228,221.128013 C38.6035811,221.940511 39.6015413,223.062531 39.5668631,223.530684 C38.0602901,225.31044 36.7887579,226.699423 35.7137353,228.169656 C35.4401632,228.517869 35.6713509,229.252986 35.7137353,229.79465 C36.2146419,229.71727 36.8658205,229.833341 37.2511333,229.562508 C38.5611967,228.556559 39.8327289,227.434539 41.0657298,226.35121 C42.9922937,224.648835 42.9576156,224.648835 45.0729828,225.925616 C47.0766092,227.163707 49.0802357,228.401798 51.1262466,229.562508 C52.5480508,230.413696 53.8619674,230.645838 55.3993654,229.446437 C57.6341795,227.744062 59.5992747,225.616093 62.412058,224.764906 C62.7203083,224.687525 62.9514959,224.261931 63.2597461,223.991099 C65.4213509,222.017891 67.5752493,220.044684 70.0412511,217.800644 C71.0815956,220.663729 71.7751587,223.375922 73.0081596,225.770855 C74.2450136,228.130966 75.1273799,230.91667 77.6704442,232 C79.6355394,230.83929 81.369447,229.872031 83.1033545,228.866082 C82.7180417,228.711321 82.2980508,228.59525 81.9088849,228.440488 C85.2996374,227.821443 87.3417951,225.693474 89.1951496,223.178602 C90.9675884,220.74111 93.699456,218.883973 93.0482774,215.13101 C91.7343608,216.678624 90.4666818,218.226238 89.0410245,219.928613 C86.0702629,216.717314 84.1051677,213.119112 83.4886673,208.824484 C82.9877607,205.110211 82.9877607,201.434628 83.4154578,197.681665 C83.9895739,192.148946 83.9510426,186.500156 84.0281052,180.928746 C84.1051677,174.428768 83.9895739,167.928791 83.9895739,161.428813 C83.9895739,159.184773 84.1051677,156.979423 84.143699,154.503241 C86.9950136,155.547881 89.4610154,156.399068 91.8884859,157.405017 C93.7379873,158.140134 95.1289665,157.907992 96.7048957,156.59252 C100.172711,153.768125 103.952629,151.291943 107.416591,148.467548 C108.614914,147.461599 110.422031,146.997315 111,144.873215 C109.921124,144.946727 109.073436,144.985417 108.187217,145.027976 L108.187217,145.027976 Z M180.78612,167.8 C178.661494,169.6 176.428962,171.24 174.233639,173 C173.638297,171.24 174.274568,169.4 175.089443,167.96 C175.908038,166.52 175.945246,165.24 175.870829,163.72 C175.759202,161 175.721993,158.24 175.721993,155.52 C175.721993,154.28 175.796411,154.28 176.949886,153 C180.224266,156 183.461437,159.04 187,162.324 C184.912583,164.16 182.903304,166.04 180.78612,167.8 L180.78612,167.8 Z M241.668644,186.636801 C242.261403,190.219723 241.705462,194.025857 241.521375,197.720385 C241.374106,200.375827 240.969116,202.992784 240.711395,205.61359 C240.490491,208.07276 239.717328,210.38184 238.46554,212.460012 C237.950098,213.345159 237.25057,214.076368 236.514224,215 C235.704243,214.384245 234.967897,214.076368 234.562907,213.499098 C233.090216,211.151533 231.543889,208.807817 230.295783,206.302465 C229.113948,203.877931 228.893045,201.299459 229.040314,198.451594 C229.408487,191.335779 229.080813,184.173782 229.150766,177.015634 C229.228082,172.397474 229.52262,167.817799 229.62939,163.238124 C229.703025,160.23632 229.666208,157.196031 229.703025,154.194227 C229.703025,153.616957 229.77666,153.039687 229.813477,152.423933 C230.881178,151.923632 231.912062,151.461816 232.869312,151 C235.818377,153.501503 238.726943,155.926037 242,158.735418 C241.889548,163.969333 241.59501,169.626578 241.631827,175.283824 C241.668644,179.055322 241.079568,182.74985 241.668644,186.636801 L241.668644,186.636801 Z" id="Fill-25" fill="#000000" filter="url(#filter-1)"></path>
            </g>
        </g>
    </g>
</svg>