<?xml version="1.0" encoding="UTF-8"?>
<svg width="860px" height="475px" viewBox="0 0 860 475" version="1.1" xmlns="http://www.w3.org/2000/svg" xmlns:xlink="http://www.w3.org/1999/xlink">
    <!-- Generator: Sketch 58 (84663) - https://sketch.com -->
    <title>Group 17</title>
    <desc>Created with Sketch.</desc>
    <defs>
        <rect id="path-1" x="0" y="0" width="860" height="475"></rect>
        <filter x="0.0%" y="0.0%" width="100.0%" height="100.0%" filterUnits="objectBoundingBox" id="filter-3">
            <feGaussianBlur stdDeviation="0" in="SourceGraphic"></feGaussianBlur>
        </filter>
    </defs>
    <g id="New" stroke="none" stroke-width="1" fill="none" fill-rule="evenodd">
        <g id="Group-17">
            <mask id="mask-2" fill="white">
                <use xlink:href="#path-1"></use>
            </mask>
            <use id="Rectangle" fill="#FFFFFF" xlink:href="#path-1"></use>
            <path d="M292.648394,298.805022 C292.307722,314.431315 291.410619,330.162482 290.95639,345.788774 C290.604362,354.923338 287.424756,366.658789 282.541789,374 C268.801349,363.093058 259.148974,350.40325 253.141789,335.511078 C251.540631,331.630724 252.676204,326.701625 252.789762,322.401773 C253.016876,315.175923 253.596019,308.033973 253.69822,300.797637 C253.811778,287.478582 253.925335,274.159527 253.69822,260.945347 C253.69822,256.435746 254.958707,253.394387 259.830318,251.611521 C272.20807,247.10192 282.314675,238.921713 293.341094,232 C293.102624,254.453619 292.989066,276.57164 292.648394,298.805022 L292.648394,298.805022 Z M248.13933,248.801748 C246.639187,249.020889 245.117459,250.00702 243.606524,250.445301 C242.214304,250.774012 240.584652,251.212292 239.289565,250.883582 C231.734887,249.240029 226.230765,245.405073 222.237578,238.063871 C217.931411,230.185775 212.535213,219.87522 219.863251,214.068001 C222.453426,211.986167 224.503981,210.233045 226.230765,208.710019 C226.338689,208.710019 226.457405,208.589492 226.457405,208.589492 C236.15977,201.029149 247.707634,203.987544 256.773248,209.027773 C265.525882,213.848861 273.933159,218.889089 282.567076,223.819747 C284.725556,225.025019 286.991959,226.120721 290.337602,227.764274 C283.98088,232.585361 278.897661,236.968169 273.285615,240.364844 C267.99734,243.54238 262.061522,245.952924 256.136496,248.253897 C253.751377,249.130459 250.837429,248.473038 248.13933,248.801748 L248.13933,248.801748 Z M854.561912,182.31862 C849.477512,185.173811 844.710888,185.795421 839.414638,182.31862 C831.893963,177.271991 823.949589,172.731078 816.333582,167.77927 C812.085989,165.14533 811.884732,165.039972 807.319365,168.306058 C800.22239,173.363223 794.07874,180.000753 785.403483,182.950766 C783.380316,182.11844 781.261816,181.475759 779.461091,180.422183 C772.046342,176.102521 764.737517,171.677502 757.534617,167.041767 C754.674643,165.250687 752.450218,165.250687 750.331718,167.568555 C742.916968,175.891806 733.701494,181.791832 724.496612,187.807751 C721.096419,190.020261 719.719394,192.43295 720.354944,196.541897 C730.629669,196.647255 734.442969,208.658022 745.459168,208.974095 C740.385361,217.402703 741.434018,226.042027 741.857718,234.470636 C742.186086,241.424238 742.281418,248.167125 742.069568,255.120727 C741.645868,276.824394 741.857718,298.528062 741.539943,320.231729 C741.434018,328.765695 741.010318,337.405019 739.739218,345.844163 C738.468118,354.156879 735.396294,362.164057 731.794844,370.487308 C729.994119,368.485513 728.723019,367.115864 727.568437,365.746216 C722.791219,359.740832 720.037169,352.471157 716.128537,346.044343 C710.29207,336.4568 707.432095,326.658543 708.067645,315.595994 C708.80912,304.217372 709.44467,292.743929 709.65652,281.249414 C709.974295,266.077918 709.762445,250.801065 710.08022,235.524212 C710.29207,224.040233 711.13947,212.556253 711.35132,201.072274 C711.457245,196.120467 711.255987,191.484732 715.058695,187.5865 C714.10537,185.900779 713.575745,183.898984 712.41057,183.266838 C705.536038,179.579322 701.087188,173.795189 696.098121,168.095343 C691.013721,162.300674 686.353021,162.51139 680.738997,167.463197 C672.264997,174.83823 663.896923,182.31862 655.528848,189.693652 C654.151823,190.957944 653.092573,192.538308 651.291848,194.540102 C654.575523,194.329387 657.329573,193.381169 658.600673,194.329387 C664.108772,198.543692 670.464272,202.968711 671.534115,210.133028 C672.900547,219.825928 672.900547,229.729544 672.900547,239.527801 C672.900547,250.801065 671.841297,261.968972 671.841297,273.242236 C671.629447,298.844134 672.264997,324.551391 665.814165,349.731859 C664.214697,355.8426 663.261373,362.164057 658.494748,367.853368 C655.528848,365.851573 652.774798,364.281745 650.550373,362.164057 C641.017124,352.997945 635.403099,341.408608 630.212774,329.619092 C629.683149,328.55498 629.683149,327.079973 629.789074,325.815682 C630.530549,310.854902 631.483874,295.894121 631.907574,280.933341 C632.543124,256.806449 633.072749,232.784914 633.390524,208.658022 C633.390524,201.282989 632.331274,194.013314 631.907574,188.745434 C625.2343,184.109699 620.1499,180.738256 615.171425,177.156097 C612.629225,175.25966 610.203543,173.04715 608.074451,170.623925 C604.790776,166.620336 600.659701,166.198906 596.422701,167.989985 C592.291626,169.675707 588.594844,171.161249 584.145994,168.948739 C582.864302,168.306058 580.957652,168.727488 579.368777,168.948739 C573.013277,169.37017 566.763703,169.886422 559.772653,170.41321 C558.925253,158.613158 560.831903,147.761324 563.268178,136.171988 C560.831903,136.920027 559.137103,137.014848 558.088446,137.857709 C555.217878,140.280934 552.887529,143.230947 549.921629,145.664708 C537.104704,155.979218 524.086523,166.093548 511.364931,176.629309 C504.278549,182.423978 497.700607,188.745434 490.709557,194.64546 C488.591057,196.541897 487.743657,198.649049 489.438457,200.861559 C490.921407,202.968711 493.039907,202.231208 495.264332,201.599062 C498.558599,200.756201 502.054124,200.229413 505.549649,200.229413 C509.998498,200.134591 514.542681,200.650844 519.521155,200.977452 C521.639655,206.866943 521.11003,213.188399 520.47448,219.615213 C519.521155,229.202756 517.942873,238.895655 518.366573,248.388376 C518.885605,259.545747 518.56783,270.608295 518.038205,281.786738 C517.296731,298.317346 516.873031,314.858491 516.343406,331.399635 C516.237481,332.979999 515.813781,334.665721 515.813781,336.246085 C515.919706,342.040754 512.953806,347.519349 513.801206,353.630091 C514.542681,359.951547 511.470856,365.746216 507.869406,370.698023 C506.068681,373.226606 502.255381,374.280182 499.183556,376.176619 C492.828057,368.590871 488.061432,361.321196 486.260707,352.471157 C485.095532,346.887204 484.459982,341.30325 482.765182,335.930012 C477.7973,319.388868 479.163733,302.426293 480.328908,285.779791 C481.292825,272.61009 480.752607,259.651104 480.964457,245.533185 C465.711258,244.911575 451.199534,244.374251 436.581885,243.742105 C436.370035,243.215317 436.274702,242.583172 436.05226,241.951026 C451.835084,228.359895 468.994933,216.359663 485.201457,201.915135 C482.871107,199.597268 481.388157,197.806188 479.587433,196.331182 C468.994933,188.113288 458.084659,180.316825 449.716584,169.570349 C447.174384,166.314799 443.996634,166.314799 440.50111,168.948739 C438.38261,170.623925 436.47596,172.520362 434.463385,174.100727 C426.30716,180.738256 418.045011,187.270428 409.994711,193.697242 C410.100636,171.466786 409.793454,148.920258 411.477661,126.268372 C412.113211,116.364757 411.795436,106.461142 411.795436,96.4521694 C411.795436,87.1806999 411.795436,77.8038728 411.594179,68.5324033 C411.477661,63.8966685 411.371736,59.471649 414.973186,55.7841327 C417.091686,53.7823381 417.197611,51.4644708 413.490236,50 C401.944412,59.6823642 390.186737,69.3752641 378.746838,79.2788793 C373.026888,84.2412226 367.518789,89.3932096 362.222539,94.66109 C357.879614,99.0861096 357.879614,99.50754 362.127206,103.721844 C365.506214,106.98793 368.154339,110.675446 368.578039,115.311181 C369.425439,123.845147 370.272839,132.379114 370.272839,140.91308 C370.166914,152.81849 369.319514,164.723899 368.683964,176.629309 C368.472114,181.159686 367.730639,185.690063 367.730639,190.220441 C367.847156,200.018698 368.366189,209.816956 368.578039,219.615213 C368.578039,220.668789 368.154339,221.722365 368.048414,222.775941 C367.201014,231.20455 366.353614,239.738516 365.612139,248.167125 C365.082514,253.234826 364.775331,258.281455 364.446964,263.349156 C364.235114,265.761845 364.129189,268.18507 364.351631,270.608295 C364.552889,274.506527 365.400289,278.510116 365.400289,282.408348 C365.506214,293.681612 365.199031,304.954876 365.506214,316.122782 C365.929914,332.769284 363.504231,348.678283 356.502589,363.860314 C355.019639,367.115864 354.278164,371.119454 350.57079,372.59446 C348.981915,372.278387 347.287115,372.383745 346.439715,371.540884 C339.34274,364.376567 332.351691,356.896176 332.997833,345.72827 C333.093166,343.51576 333.421533,341.408608 333.305016,339.301456 C332.457616,322.760311 330.868741,306.113809 330.773408,289.572665 C330.550966,269.97615 331.610216,250.484992 332.245766,230.888477 C332.245766,229.624186 331.927991,227.833107 332.669466,227.095603 C337.446683,221.933081 334.798558,215.822339 335.31759,210.133028 C335.645958,206.445512 333.516866,204.127645 330.349708,202.652638 C313.497042,194.866711 297.608292,185.584706 282.990643,174.21662 C278.965493,171.161249 274.622569,170.41321 270.173719,172.62572 C264.453769,175.365018 258.73382,178.315031 253.331645,181.791832 C244.433945,187.5865 235.748096,193.802599 227.072839,200.018698 C226.532621,200.334771 226.002996,200.756201 225.579296,201.282989 C223.577314,202.441923 216.257897,209.922313 215.728272,210.870532 C212.020897,216.454485 210.008322,222.670584 212.868297,229.107934 C217.211222,239.106371 221.130447,249.642131 233.311821,254.277866 C222.931172,264.708269 208.419447,268.617037 199.74419,281.144056 C201.640248,282.935136 202.699498,284.842108 204.288373,285.263539 C210.220172,287.14944 212.020897,291.363744 211.809047,297.053055 C211.60779,300.003068 211.703122,302.953081 211.703122,305.91363 C211.067572,323.287099 210.537947,340.671105 209.796472,358.05511 C209.796472,360.162262 209.372772,362.269414 208.959665,364.376567 C206.724647,374.701612 201.534323,383.446294 194.871641,391.453472 C193.801798,392.833657 193.070916,394.298127 192.223516,395.773134 C192.530698,396.194564 192.954398,396.721352 193.378098,397.142783 C203.123198,394.719558 208.959665,385.353266 218.281064,380.917711 C228.968896,391.769545 239.667321,402.621378 250.905963,414 C257.579237,410.101769 263.924144,407.046398 269.442837,402.947987 C274.940344,398.828504 279.495118,393.455266 284.685443,388.924889 C287.556011,386.290949 290.935018,384.289155 294.218693,381.971287 C303.646017,391.98026 309.683742,404.201742 320.488091,413.157139 C333.199091,396.615995 350.687307,386.607022 365.199031,373.01589 C365.929914,374.174824 366.576056,374.701612 366.777314,375.439115 C370.166914,388.503459 376.628338,399.671365 386.479363,408.942835 C390.928212,413.262497 395.165212,414 399.200954,410.207126 C404.168837,405.360676 408.829536,400.198153 413.490236,395.046166 C419.316111,388.503459 425.036061,381.655214 430.861935,375.017685 C432.980435,372.59446 435.522635,370.487308 437.32336,367.853368 C439.547785,364.797997 439.23001,361.953342 435.427302,359.846189 C429.590835,364.281745 426.30716,372.067672 416.890428,372.59446 C414.867261,369.223017 412.219136,365.851573 410.418411,362.058699 C405.016237,350.890793 403.427362,338.774668 403.649804,326.563721 C403.745137,314.542418 404.497204,302.531651 405.228087,290.415526 C405.439937,285.885149 406.297929,281.249414 406.922887,276.824394 C418.998336,278.615474 430.33231,275.560103 441.666285,278.404758 C441.666285,298.211989 441.570952,317.492431 441.77221,336.878231 C441.77221,344.253263 442.19591,351.839011 443.371677,359.214044 C445.691434,373.542679 450.246209,387.239168 457.237259,399.987438 C460.944634,406.835683 469.429226,411.576775 476.621533,405.149961 C477.998558,403.88567 479.799283,403.148166 481.292825,401.989233 C486.165375,398.301716 490.921407,394.508843 495.793957,390.621147 C496.334174,392.296333 496.757874,393.560624 497.382832,395.562419 C500.348731,393.455266 502.573156,391.453472 505.009431,389.978465 C511.894556,386.185591 516.237481,377.756983 525.887248,379.126632 C530.336097,385.764161 534.88028,392.717763 539.551572,399.566008 C544.731304,407.362471 547.379429,407.994616 555.217878,402.621378 C559.348953,399.671365 562.844478,395.983849 566.657778,392.507048 C576.826577,383.446294 586.995377,374.396075 597.481951,365.11407 C597.905651,365.851573 598.435276,366.694434 598.858976,367.537295 C604.578926,377.546268 610.298875,387.565776 618.66695,395.667776 C627.035025,403.674954 630.530549,403.790848 639.004549,395.983849 C641.557341,393.560624 644.512649,389.557035 647.054848,389.662393 C651.927398,390.083823 653.622198,386.817737 656.270323,384.510406 C662.943598,379.021274 669.510947,373.331963 676.830364,367.115864 C679.679747,372.699818 682.327872,377.030015 684.022671,381.760572 C686.882646,389.451677 691.649271,395.773134 696.627746,402.09459 C700.335121,406.835683 704.57212,407.467828 708.38542,404.096385 C713.68167,399.566008 718.776662,394.824915 723.956394,390.083823 C729.888194,384.815943 735.925919,379.548062 742.281418,373.753394 C751.814668,385.026658 759.547192,397.458856 772.893742,404.623173 C778.719616,399.46065 784.556083,394.298127 790.371366,389.135605 C797.89204,382.392718 805.412715,375.649831 812.933389,368.801586 C815.475589,366.494255 816.757282,363.533706 817.276314,359.214044 C813.992639,361.531911 811.556364,363.217633 809.236607,364.903355 C806.588482,366.799792 804.03569,368.590871 801.599415,370.276593 C794.92614,365.11407 785.403483,352.78723 781.155891,344.147906 C778.401841,338.66931 776.495191,333.296072 779.143316,327.185331 C779.778866,325.604967 779.461091,323.497815 779.461091,321.601378 C779.461091,313.39402 779.355166,305.165591 779.567016,296.947697 C779.990716,274.727778 780.308491,252.486787 780.944041,230.256332 C781.261816,221.51165 782.109216,212.766969 782.755359,204.022287 C782.850691,202.768532 783.274391,201.493705 783.592166,199.702625 C785.286966,200.229413 786.558066,200.556022 787.723241,201.072274 C794.71429,204.233002 801.715933,207.709803 808.812907,210.765174 C813.145239,212.556253 817.276314,212.977684 821.513314,209.290168 C826.068089,205.286578 831.576188,202.12585 836.766513,198.859764 C842.910163,194.961533 849.159737,191.379374 855.303387,187.481143 C857.739662,186.006136 860.281862,184.53113 859.974679,180.10611 C857.739662,181.054329 856.055455,181.475759 854.561912,182.31862 L854.561912,182.31862 Z M121.140861,250.573539 C121.032132,281.507195 120.825547,312.440852 120.923403,343.374509 C121.032132,352.924497 119.183738,362.266876 116.791699,371.401648 C115.704408,375.771805 112.333807,379.602181 109.180664,385 C102.874378,380.744027 97.4379251,377.214684 92.1102008,373.591917 C90.1530776,372.232081 88.2068274,370.675018 86.1301022,369.533172 C81.7809395,367.249479 79.7150873,363.927744 80.1500036,359.15275 C81.1285652,346.59244 82.1071267,333.928325 83.0856883,321.368015 C83.0856883,320.226168 83.0856883,319.188126 83.2052903,318.150084 C83.7380627,298.8425 84.7166243,279.63872 84.8253534,260.331135 C84.9340825,249.846909 83.6402066,239.258879 83.2052903,228.774653 C82.9769593,223.169225 83.2052903,217.667602 83.2052903,211.750761 C85.3689987,211.23174 87.1086638,210.608915 88.9570579,210.505111 C90.925054,210.297502 92.8713043,210.816523 94.7196984,210.505111 C105.04896,208.429026 112.877452,212.996412 121.140861,219.743686 L121.140861,250.573539 Z M224.5839,179.740506 C222.583387,179.835899 220.372294,180.259867 218.477071,179.740506 C207.326844,176.550146 196.155558,173.370385 185.205382,169.660664 C181.309647,168.282767 178.045652,167.752807 174.676367,170.190624 C170.47529,173.476377 166.053103,176.444154 162.041548,179.835899 C160.462196,181.107804 159.619875,183.333636 158.156342,185.771453 C151.207191,181.531772 145.510994,178.563995 140.562357,174.748281 C135.834829,171.03856 130.991482,169.342688 125.084704,170.5086 C123.294771,170.932568 121.399548,170.932568 119.504326,171.144552 C109.933451,171.674513 100.246756,169.872648 90.7601134,172.628441 C89.4966316,173.052409 88.1278596,172.734433 86.7590876,172.734433 C83.6109119,172.840425 81.7051601,171.56852 81.59987,168.070783 C81.0734192,154.715787 81.1787094,141.360791 84.9691549,128.747739 C92.5500461,131.39754 99.9203569,133.729364 107.080087,136.485157 C116.240331,139.993493 124.558253,137.121109 132.139144,132.351468 C144.036932,124.720041 155.618849,116.452663 167.200766,108.195883 C169.632968,106.489411 172.570564,104.687547 172.149403,100.129889 C170.570051,100.341873 168.990698,100.129889 168.358958,100.871834 C163.831481,105.747467 158.156342,106.383419 152.144274,106.277427 C138.561844,106.171435 126.569295,101.401794 115.29272,94.0883435 C110.775772,91.1205665 110.238792,91.3325506 106.343056,94.6183036 C98.1304243,101.401794 89.812502,108.079292 81.3998187,114.650798 C78.230585,117.088615 74.7560099,119.102464 71.4920151,121.54028 C63.8058338,127.168457 56.6461033,133.729364 48.4334712,138.499006 C42.853093,141.678767 41.5896111,145.176504 42.2213521,150.794082 C42.9583832,157.895548 43.8007044,165.208998 41.2737407,172.628441 C40.3261293,172.946417 39.0626474,173.688361 37.7991656,173.794353 C32.5346578,174.536297 28.3335807,176.76213 24.9537667,181.107804 C22.6479123,184.393557 19.6892589,187.467326 16.319974,189.587166 C9.7919844,193.826848 5.79095851,200.18637 1.16872072,206.015932 C0.221109325,207.181844 0.421160619,209.312284 0,211.633509 C7.37031084,208.888316 13.58243,205.814547 20.1104196,204.320059 C27.1648599,202.730179 34.2193003,204.214067 40.9578702,205.062003 C40.9578702,210.573589 40.8525801,215.131247 40.9578702,219.582912 C41.1684505,226.366402 41.9160106,233.0439 41.9160106,239.721398 C41.8001915,249.68465 41.2737407,259.6585 40.9578702,269.611152 C40.4314194,284.874005 39.7049174,300.24285 39.5890982,315.611695 C39.4838081,321.441257 40.6525288,327.270819 38.2203262,333.004988 C37.7991656,334.054309 38.6414868,335.654789 38.6414868,336.916094 C38.2203262,347.833273 40.9578702,358.750453 37.9044557,369.773624 C36.9568443,373.175969 36.5356837,376.875091 39.2837568,380.47882 C40.8525801,382.598661 41.3790308,386.308382 38.115036,388.216238 C34.4404096,390.442071 37.1674246,393.51584 37.0726635,394.798344 C32.9558185,399.673977 29.4812433,403.479091 26.543648,407.506789 C25.7960879,408.460717 26.4278289,410.474566 26.543648,411.958454 C27.91242,411.74647 29.6918237,412.064446 30.7447252,411.322502 C34.3245905,408.566709 37.7991656,405.49294 41.1684505,402.525163 C46.4329583,397.861514 46.3381971,397.861514 52.1186266,401.359251 C57.5937147,404.750996 63.0688027,408.142741 68.6597099,411.322502 C72.5449167,413.654327 76.1353109,414.290279 80.3363881,411.004526 C86.4432171,406.340876 91.813015,400.511314 99.4991963,398.17949 C100.341518,397.967506 100.973258,396.801593 101.81558,396.059649 C107.722357,390.654055 113.608077,385.248461 120.346647,379.100923 C123.189481,386.944334 125.084704,394.374376 128.453989,400.935282 C131.833803,407.400797 134.244947,415.032223 141.194098,418 C146.563895,414.820239 151.301952,412.170438 156.040009,409.414645 C154.987108,408.990677 153.839445,408.672701 152.776015,408.248733 C162.041548,406.55286 167.621926,400.723298 172.686383,393.833816 C177.52973,387.156318 184.994802,382.0687 183.215398,371.787473 C179.625004,376.027154 176.160958,380.266836 172.265222,384.930485 C164.147351,376.133146 158.777553,366.275887 157.092911,354.510772 C155.724139,344.335536 155.724139,334.266293 156.89286,323.985066 C158.461683,308.828205 158.356393,293.353368 158.566973,278.090515 C158.777553,260.283853 158.461683,242.477191 158.461683,224.67053 C158.461683,218.522992 158.777553,212.481446 158.882844,205.697955 C166.674315,208.55974 173.412885,210.891565 180.046165,213.647358 C185.100092,215.661207 188.901067,215.025254 193.207434,211.421525 C202.683548,203.684107 213.012512,196.900617 222.478097,189.163198 C225.752621,186.407405 230.690729,185.135501 232.270081,179.316538 C229.321957,179.517923 227.005574,179.623915 224.5839,179.740506 L224.5839,179.740506 Z M424.285687,241.7 C418.395257,246.65 412.205664,251.16 406.119231,256 C404.468673,251.16 406.232707,246.1 408.491908,242.14 C410.761426,238.18 410.864586,234.66 410.658266,230.48 C410.348786,223 410.245626,215.41 410.245626,207.93 C410.245626,204.52 410.451946,204.52 413.649903,201 C422.727973,209.25 431.702883,217.61 441.513388,226.641 C435.726118,231.69 430.155484,236.86 424.285687,241.7 L424.285687,241.7 Z M590.769341,293.444378 C592.412737,303.241431 590.871415,313.648827 590.361044,323.751052 C589.952747,331.012026 588.82993,338.167769 588.11541,345.334035 C587.502964,352.058328 585.359405,358.372219 581.88888,364.05472 C580.45984,366.475045 578.520429,368.474444 576.478944,371 C574.23331,369.316296 572.191825,368.474444 571.069008,366.895971 C566.986037,360.476849 562.698918,354.06825 559.2386,347.217679 C555.962017,340.588094 555.349571,333.537583 555.757868,325.750451 C556.778611,306.293145 555.87015,286.709561 556.064091,267.1365 C556.278447,254.508719 557.095041,241.98617 557.391056,229.46362 C557.595205,221.255562 557.493131,212.942273 557.595205,204.734215 C557.595205,203.155743 557.799353,201.57727 557.901428,199.893566 C560.861581,198.525556 563.719661,197.262778 566.373592,196 C574.54974,202.840048 582.613607,209.469633 591.688009,217.151533 C591.381787,231.463019 590.565192,246.932051 590.667267,262.401082 C590.769341,272.71377 589.136153,282.815995 590.769341,293.444378 L590.769341,293.444378 Z" id="Fill-25" fill="#000000" filter="url(#filter-3)" mask="url(#mask-2)"></path>
        </g>
    </g>
</svg>