<?xml version="1.0" encoding="UTF-8"?>
<svg width="594px" height="332px" viewBox="0 0 594 332" version="1.1" xmlns="http://www.w3.org/2000/svg" xmlns:xlink="http://www.w3.org/1999/xlink">
    <!-- Generator: Sketch 57.1 (83088) - https://sketch.com -->
    <title>Group 6 Copy</title>
    <desc>Created with Sketch.</desc>
    <defs>
        <rect id="path-1" x="0" y="0" width="594" height="332"></rect>
        <polygon id="path-3" points="0 0.804812834 991 0.804812834 991 755.804813 0 755.804813"></polygon>
    </defs>
    <g id="New" stroke="none" stroke-width="1" fill="none" fill-rule="evenodd">
        <g id="Group-6-Copy">
            <rect id="Rectangle" fill="#000000" x="0" y="4" width="594" height="326"></rect>
            <g id="Rectangle-2-Copy-2">
                <mask id="mask-2" fill="white">
                    <use xlink:href="#path-1"></use>
                </mask>
                <g id="Rectangle"></g>
                <g id="Group-3" mask="url(#mask-2)">
                    <g transform="translate(-199.000000, -210.804813)">
                        <mask id="mask-4" fill="white">
                            <use xlink:href="#path-3"></use>
                        </mask>
                        <g id="Clip-2" stroke="none" fill="none"></g>
                        <path d="M776.534699,485.059059 L768.891654,492.709006 L778.929033,502.754123 L786.570753,495.104176 C789.341605,492.329494 789.341605,487.832414 786.570753,485.059059 C783.798574,482.284378 779.306877,482.284378 776.534699,485.059059 L776.534699,485.059059 Z M583.285642,496.404601 L584.399286,496.404601 L584.80497,495.092233 L586.569566,495.092233 L586.975251,496.404601 L588.087569,496.404601 L586.20498,490.835333 L585.169556,490.835333 L583.285642,496.404601 Z M588.782271,496.404601 L590.857095,496.404601 C591.429827,496.404601 591.879262,496.259961 592.2054,495.974664 C592.531539,495.68804 592.694608,495.271373 592.694608,494.724664 C592.694608,494.370365 592.620365,494.081087 592.475857,493.858157 C592.330022,493.635227 592.124528,493.470683 591.859375,493.364526 C592.034376,493.274293 592.169604,493.137615 592.26506,492.954494 C592.360515,492.771373 592.408242,492.565694 592.408242,492.337456 C592.408242,492.084006 592.369795,491.862403 592.291575,491.672647 C592.216006,491.485545 592.107293,491.328964 591.966762,491.204229 C591.826231,491.079494 591.659184,490.986607 591.465622,490.925567 C591.27206,490.864526 591.057286,490.835333 590.817322,490.835333 L588.782271,490.835333 L588.782271,496.404601 Z M593.46753,493.619303 C593.46753,494.086395 593.539121,494.496426 593.682304,494.85338 C593.825487,495.207679 594.019049,495.504919 594.26299,495.743772 C594.505605,495.982626 594.785342,496.163093 595.100875,496.285174 C595.416407,496.407254 595.749175,496.468295 596.099177,496.468295 C596.707704,496.468295 597.211495,496.321002 597.609225,496.026416 C598.006955,495.73183 598.272109,495.31649 598.404685,494.780397 L597.473997,494.541543 C597.367936,494.82286 597.208844,495.055078 596.996721,495.238199 C596.785924,495.422647 596.484975,495.512881 596.099177,495.512881 C595.881751,495.512881 595.677583,495.475726 595.486673,495.397435 C595.295762,495.320471 595.128716,495.205025 594.986859,495.047116 C594.84235,494.890535 594.728334,494.695471 594.644811,494.459271 C594.558636,494.221745 594.517537,493.941756 594.517537,493.619303 C594.517537,493.295524 594.558636,493.015535 594.644811,492.779335 C594.728334,492.544463 594.84235,492.346745 594.986859,492.19149 C595.128716,492.034908 595.295762,491.918136 595.486673,491.839845 C595.677583,491.764208 595.881751,491.724399 596.099177,491.724399 C596.484975,491.724399 596.785924,491.817286 596.996721,491.99908 C597.208844,492.182201 597.367936,492.415747 597.473997,492.695736 L598.404685,492.456883 C598.272109,491.922116 598.006955,491.50545 597.609225,491.212191 C597.211495,490.917605 596.707704,490.770312 596.099177,490.770312 C595.749175,490.770312 595.416407,490.832679 595.100875,490.953433 C594.785342,491.075513 594.505605,491.255981 594.26299,491.494834 C594.019049,491.732361 593.825487,492.030927 593.682304,492.385227 C593.539121,492.740853 593.46753,493.153539 593.46753,493.619303 L593.46753,493.619303 Z M581.674835,499.058528 L600.235569,499.058528 L600.235569,488.442817 L581.674835,488.442817 L581.674835,499.058528 Z M674.478504,256.887615 C674.478504,257.986341 675.366768,258.878061 676.467154,258.878061 C677.564889,258.878061 678.455804,257.986341 678.455804,256.887615 C678.455804,255.788889 677.564889,254.89717 676.467154,254.89717 C675.366768,254.89717 674.478504,255.788889 674.478504,256.887615 L674.478504,256.887615 Z M677.92152,263.29287 C677.430987,262.856299 676.676625,262.898762 676.237797,263.392392 C675.800294,263.886023 675.844044,264.641065 676.337229,265.078964 C677.563563,266.169728 679.334788,266.713783 681.107338,266.713783 C682.878562,266.713783 684.649786,266.169728 685.87612,265.078964 C686.369306,264.641065 686.413056,263.886023 685.975553,263.392392 C685.53805,262.898762 684.782363,262.856299 684.291829,263.29287 C682.743334,264.670259 679.470016,264.670259 677.92152,263.29287 L677.92152,263.29287 Z M683.758871,256.887615 C683.758871,257.986341 684.647135,258.878061 685.747521,258.878061 C686.845256,258.878061 687.736171,257.986341 687.736171,256.887615 C687.736171,255.788889 686.845256,254.89717 685.747521,254.89717 C684.647135,254.89717 683.758871,255.788889 683.758871,256.887615 L683.758871,256.887615 Z M669.175437,258.969622 C669.175437,254.130184 671.587007,252.990322 675.775104,252.229972 C677.248031,251.961925 679.108081,250.905662 681.107338,246.935386 C683.105268,250.905662 685.210586,252.066756 686.43692,252.229972 C691.104944,252.850991 693.039238,253.787828 693.039238,258.969622 C693.039238,265.515535 687.696398,270.820736 681.107338,270.820736 C674.516951,270.820736 669.175437,265.515535 669.175437,258.969622 L669.175437,258.969622 Z M773.911006,257.551097 C776.106476,257.551097 777.888306,255.768985 777.888306,253.570206 C777.888306,251.371426 776.106476,249.589314 773.911006,249.589314 C771.712885,249.589314 769.933706,251.371426 769.933706,253.570206 C769.933706,255.768985 771.712885,257.551097 773.911006,257.551097 L773.911006,257.551097 Z M674.478504,336.50545 C674.478504,337.604176 675.366768,338.495896 676.467154,338.495896 C677.564889,338.495896 678.455804,337.604176 678.455804,336.50545 C678.455804,335.406724 677.564889,334.515004 676.467154,334.515004 C675.366768,334.515004 674.478504,335.406724 674.478504,336.50545 L674.478504,336.50545 Z M683.758871,336.50545 C683.758871,337.604176 684.647135,338.495896 685.747521,338.495896 C686.845256,338.495896 687.736171,337.604176 687.736171,336.50545 C687.736171,335.406724 686.845256,334.515004 685.747521,334.515004 C684.647135,334.515004 683.758871,335.406724 683.758871,336.50545 L683.758871,336.50545 Z M674.189487,343.868772 L671.826971,341.961925 L671.826971,333.18804 L671.826971,332.653274 C671.826971,331.197594 672.778871,328.579494 675.740634,328.043401 C677.206932,327.776681 685.127062,327.880184 686.346768,328.043401 C689.148113,328.414951 690.387704,331.457679 690.387704,332.653274 L690.387704,333.18804 L690.387704,341.961925 L688.022537,343.868772 C684.302435,340.580556 677.909588,340.580556 674.189487,343.868772 L674.189487,343.868772 Z M684.550354,345.389473 C682.232914,346.54924 679.980436,346.54924 677.662996,345.389473 C677.074355,345.094887 676.35579,345.335068 676.062795,345.922913 C675.767149,346.513412 676.007113,347.231299 676.595754,347.525885 C678.092544,348.27562 679.599941,348.649823 681.107338,348.649823 C682.613409,348.649823 684.120805,348.27562 685.617596,347.525885 C686.206236,347.231299 686.4462,346.513412 686.150554,345.922913 C685.85756,345.333741 685.138994,345.09356 684.550354,345.389473 L684.550354,345.389473 Z M792.47174,330.238199 L773.911006,319.918401 L755.350273,330.238199 L755.350273,332.856299 C755.350273,333.03942 755.497433,333.18804 755.681714,333.18804 L792.140298,333.18804 C792.321929,333.18804 792.47174,333.03942 792.47174,332.856299 L792.47174,330.238199 Z M755.875276,412.983688 C755.757283,413.007573 755.64857,413.064632 755.56107,413.146904 C755.293265,413.395046 755.277355,413.815694 755.525274,414.085068 L763.634989,422.825779 L762.387442,434.683528 C762.374185,434.804282 762.395397,434.926363 762.447102,435.036501 C762.602216,435.368242 762.998621,435.510227 763.328737,435.353645 L773.911006,430.369569 L784.490625,435.353645 C784.599338,435.405397 784.721308,435.426628 784.843279,435.413358 C785.206539,435.374877 785.470366,435.048443 785.431919,434.683528 L784.185698,422.825779 L792.294087,414.085068 C792.374959,413.996161 792.431967,413.88735 792.455831,413.76925 C792.5314,413.41097 792.303368,413.059325 791.944085,412.983688 L780.075822,410.482361 L774.487715,400.538093 C774.428055,400.431936 774.340555,400.344356 774.234493,400.284643 C773.914984,400.105503 773.511951,400.218295 773.331646,400.538093 L767.744865,410.482361 L755.875276,412.983688 Z M781.865607,350.438571 L787.168673,350.438571 L787.168673,334.515004 L781.865607,334.515004 L781.865607,350.438571 Z M771.259473,350.438571 L776.56254,350.438571 L776.56254,334.515004 L771.259473,334.515004 L771.259473,350.438571 Z M760.653339,350.438571 L765.956406,350.438571 L765.956406,334.515004 L760.653339,334.515004 L760.653339,350.438571 Z M758.001806,357.07339 L789.820207,357.07339 L789.820207,351.765535 L758.001806,351.765535 L758.001806,357.07339 Z M789.272665,482.354707 C785.008999,478.087191 778.096452,478.087191 773.832786,482.354707 L758.548022,497.653274 C754.28303,501.920789 754.28303,508.840906 758.548022,513.108422 C762.810362,517.375938 769.722909,517.375938 773.986575,513.108422 L789.272665,497.808528 C793.536331,493.541012 793.536331,486.622223 789.272665,482.354707 L789.272665,482.354707 Z M696.650626,404.001469 C694.703075,401.977849 692.113853,400.863199 689.35891,400.863199 C686.603966,400.863199 684.014744,401.977849 682.065867,404.001469 L681.107338,404.998019 L680.146157,404.001469 C678.198605,401.977849 675.608057,400.863199 672.85444,400.863199 C670.099497,400.863199 667.508949,401.977849 665.561397,404.001469 C661.540347,408.180078 661.540347,414.979441 665.561397,419.158051 L680.542561,435.105503 C680.83423,435.417339 681.324763,435.433263 681.636319,435.140004 L681.669463,435.105503 L696.650626,419.158051 C700.671677,414.979441 700.671677,408.180078 696.650626,404.001469 L696.650626,404.001469 Z M697.558777,485.520843 L695.25592,483.134961 L689.061938,489.12355 L691.363469,491.509431 L697.558777,485.520843 Z M697.06294,498.153539 L695.822022,495.077637 L689.061938,497.811182 L690.302855,500.887085 L697.06294,498.153539 Z M697.016538,503.702902 C697.016538,502.604176 696.125623,501.712456 695.027888,501.712456 C693.927502,501.712456 693.039238,502.604176 693.039238,503.702902 C693.039238,504.801628 693.927502,505.693348 695.027888,505.693348 C696.125623,505.693348 697.016538,504.801628 697.016538,503.702902 L697.016538,503.702902 Z M685.565891,487.762085 L688.155113,480.232891 L685.022327,479.15407 L682.433104,486.681936 L685.565891,487.762085 Z M682.433104,494.414155 C682.433104,495.512881 683.321368,496.404601 684.421754,496.404601 C685.519489,496.404601 686.410404,495.512881 686.410404,494.414155 C686.410404,493.315429 685.519489,492.423709 684.421754,492.423709 C683.321368,492.423709 682.433104,493.315429 682.433104,494.414155 L682.433104,494.414155 Z M677.130038,487.115853 C678.593684,487.115853 679.781571,485.926894 679.781571,484.461925 C679.781571,482.99563 678.593684,481.807998 677.130038,481.807998 C675.66374,481.807998 674.478504,482.99563 674.478504,484.461925 C674.478504,485.926894 675.66374,487.115853 677.130038,487.115853 L677.130038,487.115853 Z M690.904753,507.231299 L671.308596,487.617446 C671.225073,487.535174 671.124314,487.47546 671.01295,487.446267 C670.660296,487.350726 670.29571,487.557732 670.200255,487.910705 L662.546604,516.001203 L690.609108,508.340641 C690.720472,508.310121 690.823882,508.251734 690.904753,508.169463 C691.163278,507.910705 691.163278,507.490057 690.904753,507.231299 L690.904753,507.231299 Z M608.170283,412.529866 C608.225965,412.354707 608.131836,412.167605 607.956834,412.110545 L589.626784,406.171055 L571.296734,412.110545 C571.199953,412.143719 571.123058,412.216702 571.087262,412.313571 C571.024951,412.486076 571.113778,412.675832 571.286127,412.738199 L589.626784,419.440694 L594.777388,417.559059 L585.652135,414.132838 L589.629435,412.805874 L598.58499,416.167074 L607.968766,412.738199 C608.064221,412.703698 608.138464,412.626734 608.170283,412.529866 L608.170283,412.529866 Z M596.258269,425.412032 L596.258269,420.177159 L589.629435,422.758104 L577.697535,418.11373 L577.697535,427.402477 L589.629435,432.710333 L601.561336,427.402477 L601.561336,418.11373 L599.572686,418.88735 L599.572686,424.085068 L596.258269,425.412032 Z M605.538636,480.481034 C605.538636,479.747223 604.943367,479.15407 604.212869,479.15407 L601.561336,479.15407 L601.561336,485.788889 L599.572686,483.134961 L597.584036,485.788889 L597.584036,479.15407 L576.371769,479.15407 L576.371769,516.309059 L604.212869,516.309059 C604.943367,516.309059 605.538636,515.714579 605.538636,514.982095 L605.538636,480.481034 Z M598.246919,274.801628 C600.076477,274.801628 601.561336,273.316756 601.561336,271.484218 C601.561336,269.651681 600.076477,268.166809 598.246919,268.166809 C596.416035,268.166809 594.932502,269.651681 594.932502,271.484218 C594.932502,273.316756 596.416035,274.801628 598.246919,274.801628 L598.246919,274.801628 Z M582.337719,274.801628 C584.167277,274.801628 585.652135,273.316756 585.652135,271.484218 C585.652135,269.651681 584.167277,268.166809 582.337719,268.166809 C580.506835,268.166809 579.023302,269.651681 579.023302,271.484218 C579.023302,273.316756 580.506835,274.801628 582.337719,274.801628 L582.337719,274.801628 Z M581.011952,348.448125 C581.011952,353.203964 584.877888,357.07339 589.629435,357.07339 C594.379658,357.07339 598.246919,353.203964 598.246919,348.448125 L598.246919,326.22148 C598.246919,322.746161 595.42171,319.918401 591.949527,319.918401 C588.476018,319.918401 585.652135,322.746161 585.652135,326.22148 L585.652135,346.035705 C585.652135,348.23183 587.435292,350.016596 589.629435,350.016596 C591.822254,350.016596 593.606736,348.23183 593.606736,346.035705 L593.606736,332.766065 C593.606736,332.034908 593.012792,331.439102 592.280969,331.439102 C591.54782,331.439102 590.955202,332.034908 590.955202,332.766065 L590.955202,346.035705 C590.955202,346.768189 590.359933,347.362668 589.629435,347.362668 C588.897612,347.362668 588.303669,346.768189 588.303669,346.035705 L588.303669,326.22148 C588.303669,324.208475 589.938339,322.572329 591.949527,322.572329 C593.95939,322.572329 595.595386,324.208475 595.595386,326.22148 L595.595386,348.448125 C595.595386,351.740322 592.918663,354.419463 589.629435,354.419463 C586.338883,354.419463 583.663485,351.740322 583.663485,348.448125 L583.663485,328.785174 C583.663485,328.054017 583.069542,327.45821 582.337719,327.45821 C581.60457,327.45821 581.011952,328.054017 581.011952,328.785174 L581.011952,348.448125 Z M570.205628,245.608422 L573.720235,245.608422 L580.341114,260.186448 L576.917984,264.416809 C576.467224,264.974133 576.375746,265.739792 576.684649,266.386023 C576.992227,267.032254 577.643179,267.443613 578.360419,267.443613 L601.561336,267.443613 C602.586153,267.443613 603.417409,266.612934 603.417409,265.585864 C603.417409,264.560121 602.586153,263.728114 601.561336,263.728114 L582.251544,263.728114 L585.101942,260.205025 L599.636323,260.205025 C600.000908,260.205025 600.331024,259.992711 600.482162,259.66097 L606.559476,246.278539 C606.587317,246.216172 606.601901,246.149823 606.601901,246.080821 C606.601901,245.820736 606.389778,245.608422 606.128602,245.608422 L578.841672,245.608422 L577.156622,241.899558 C577.082379,241.733688 576.916659,241.62753 576.735029,241.62753 L571.597683,241.62753 C570.572865,241.62753 569.742935,242.459537 569.742935,243.48528 L569.742935,245.143985 C569.742935,245.400089 569.949755,245.608422 570.205628,245.608422 L570.205628,245.608422 Z M514.060734,249.589314 L510.083434,249.589314 C510.083434,245.191756 506.521099,241.62753 502.128833,241.62753 C499.15779,241.62753 496.572545,243.259696 495.207006,245.67477 C495.971973,246.186978 496.638834,246.821267 497.251338,247.505981 C498.060055,245.611076 499.937341,244.281458 502.128833,244.281458 C505.056126,244.281458 507.4319,246.658051 507.4319,249.589314 L498.7415,249.589314 C499.086199,250.220949 499.387148,250.88045 499.605899,251.57976 L502.460275,251.57976 C503.375054,251.57976 504.117484,252.321533 504.117484,253.238465 L504.117484,270.820736 L514.060734,270.820736 L514.060734,249.589314 Z M513.456184,341.748284 C512.802581,339.613199 510.755597,338.495896 509.073199,338.495896 L507.31921,338.495896 C507.355006,338.084537 507.396105,337.686448 507.427923,337.263146 L507.530007,335.841968 L480.817134,335.841968 L480.917892,337.263146 C481.869793,350.593826 485.120573,357.07339 490.859817,357.07339 L496.162883,357.07339 C499.180328,357.07339 501.605156,355.633634 503.442668,352.809855 L504.512562,352.300301 C506.449507,351.379388 507.739478,350.694675 508.455392,350.210333 C513.926831,346.500142 513.937437,343.316756 513.456184,341.748284 L513.456184,341.748284 Z M509.331724,404.715375 C509.331724,404.504388 509.1607,404.334537 508.951229,404.334537 L492.93199,404.334537 L491.5227,399.536235 L487.704492,400.653539 L488.784992,404.334537 L481.297061,404.334537 C481.214864,404.334537 481.136644,404.361076 481.070355,404.408847 C480.900657,404.533581 480.864861,404.772435 480.989483,404.942286 L492.820626,420.944144 L492.820626,433.304813 L488.60071,434.367711 C487.923243,434.538889 487.448619,435.149293 487.448619,435.847276 L487.448619,436.593029 L502.798346,436.593029 L502.798346,435.847276 C502.798346,435.149293 502.325047,434.538889 501.646254,434.367711 L497.426339,433.304813 L497.426339,420.944144 L509.256155,404.942286 C509.306534,404.875938 509.331724,404.797647 509.331724,404.715375 L509.331724,404.715375 Z M508.757667,479.15407 C504.947413,479.15407 500.140183,496.44839 500.140183,500.112138 C503.4546,500.112138 503.4546,500.575248 503.4546,500.575248 C503.499676,504.963518 503.544752,509.35046 503.589828,513.736076 C503.605738,515.162562 504.763132,516.309059 506.187005,516.309059 C507.605576,516.309059 508.757667,515.157254 508.757667,513.736076 L508.757667,479.15407 Z M495.5,480.481034 C495.5,479.747223 494.904731,479.15407 494.174233,479.15407 L492.400357,479.15407 L492.400357,488.184059 C492.400357,488.734749 491.956226,489.179282 491.406032,489.179282 C490.857165,489.179282 490.411707,488.734749 490.411707,488.184059 L490.411707,479.15407 L487.321345,479.15407 L487.321345,488.184059 C487.321345,488.734749 486.877213,489.179282 486.32702,489.179282 C485.778153,489.179282 485.332695,488.734749 485.332695,488.184059 L485.332695,479.15407 L483.5681,479.15407 C482.834951,479.15407 482.242333,479.747223 482.242333,480.481034 L482.242333,489.769781 C482.242333,491.790747 483.5681,493.117711 486.219633,493.750673 L486.219633,513.655131 C486.219633,515.120099 487.404869,516.309059 488.871167,516.309059 C490.334813,516.309059 491.5227,515.120099 491.5227,513.655131 L491.5227,493.750673 C494.174233,492.982361 495.5,491.655397 495.5,489.769781 L495.5,480.481034 Z M488.708097,327.852318 C489.628179,326.16442 489.649392,324.217764 488.770408,322.069409 C488.494649,321.391331 487.721727,321.067552 487.042934,321.344887 C486.365467,321.622223 486.040655,322.39717 486.31774,323.075248 C486.886494,324.46856 486.907706,325.615057 486.381377,326.581087 C485.459969,328.270312 485.440082,330.215641 486.31774,332.363995 C486.527211,332.876203 487.023048,333.189367 487.5454,333.189367 C487.711121,333.189367 487.882145,333.156193 488.045214,333.089845 C488.724006,332.812509 489.048819,332.037562 488.771734,331.359484 C488.20298,329.966172 488.181768,328.818348 488.708097,327.852318 L488.708097,327.852318 Z M495.336931,326.525354 C496.257013,324.837456 496.278225,322.8908 495.399242,320.742446 C495.123482,320.065694 494.351886,319.740588 493.671768,320.017923 C492.994301,320.295259 492.669488,321.070206 492.946573,321.748284 C493.515327,323.141596 493.53654,324.288093 493.01021,325.254123 C492.088802,326.943348 492.068916,328.888677 492.946573,331.037032 C493.156044,331.54924 493.651881,331.862403 494.174233,331.862403 C494.339954,331.862403 494.510978,331.829229 494.674047,331.762881 C495.35284,331.485545 495.677653,330.710598 495.400567,330.03252 C494.831814,328.639208 494.810601,327.491384 495.336931,326.525354 L495.336931,326.525354 Z M501.965764,327.852318 C502.887172,326.16442 502.908384,324.217764 502.029401,322.069409 C501.749664,321.390004 500.972765,321.068879 500.300601,321.344887 C499.623134,321.622223 499.298322,322.39717 499.575407,323.075248 C500.144161,324.46856 500.165373,325.615057 499.639044,326.581087 C498.717636,328.270312 498.696424,330.215641 499.575407,332.363995 C499.786204,332.87753 500.280715,333.189367 500.803067,333.189367 C500.970113,333.189367 501.139812,333.156193 501.304207,333.089845 C501.981673,332.812509 502.306486,332.037562 502.029401,331.358157 C501.460647,329.966172 501.439435,328.819675 501.965764,327.852318 L501.965764,327.852318 Z M476.939266,276.128592 L500.803067,276.128592 L500.803067,254.89717 L496.825767,254.89717 C496.825767,250.499611 493.263432,246.935386 488.871167,246.935386 C484.47625,246.935386 480.916566,250.499611 480.916566,254.89717 L476.939266,254.89717 L476.939266,276.128592 Z M421.257065,262.192817 C421.254413,261.825248 420.956116,261.530662 420.590204,261.531989 C418.518031,261.541278 416.549267,261.602318 414.628231,261.685917 L414.628231,258.67769 C416.538661,258.149558 417.942648,256.529335 417.942648,254.590641 C417.942648,252.22201 415.863846,240.300567 413.302465,240.300567 C410.738432,240.300567 408.662281,252.22201 408.662281,254.590641 C408.662281,256.529335 410.063617,258.149558 411.976698,258.67769 L411.976698,261.81994 C408.635766,262.033581 405.552033,262.374611 402.696331,262.82976 L402.696331,259.894516 C403.864332,259.327902 404.684981,258.035439 404.684981,256.529335 C404.684981,254.500407 403.200123,244.281458 401.370565,244.281458 C399.539681,244.281458 398.056148,254.500407 398.056148,256.529335 C398.056148,258.035439 398.874146,259.327902 400.044798,259.894516 L400.044798,263.284908 C396.581895,263.965641 393.519374,264.845418 390.851932,265.921586 C390.87447,265.925567 390.899659,265.930874 390.924849,265.934855 C399.049147,267.291012 418.150794,268.698921 420.111603,277.442286 C420.758577,277.354707 421.257065,276.800036 421.257065,276.128592 L421.257065,262.195471 L421.257065,262.192817 Z M421.257065,357.07339 C421.257065,352.937244 412.849053,349.339845 405.390289,348.599399 L408.736524,332.748815 C408.358681,332.609484 407.96758,332.490057 407.561895,332.40115 C406.937459,332.261819 406.320977,332.212722 405.713776,332.20476 L402.28004,348.465375 C399.220171,348.517127 395.822231,349.132838 392.790202,350.13735 C393.938316,349.61718 394.741731,348.465375 394.741731,347.121161 C394.741731,345.288624 393.256872,343.803751 391.427314,343.803751 C389.59643,343.803751 388.112898,345.288624 388.112898,347.121161 C388.112898,348.953698 389.59643,350.438571 391.427314,350.438571 C391.687165,350.438571 391.937734,350.400089 392.181676,350.344356 C387.668766,351.943348 384.135597,354.39425 384.135597,357.07339 L421.257065,357.07339 Z M421.100624,413.932467 C420.497401,412.310917 418.516705,411.792074 415.158538,412.379919 L408.605273,414.252265 C408.479326,414.286766 408.345423,414.27615 408.226104,414.221745 L397.558985,409.31994 C396.33,408.754654 394.933967,408.671055 393.645322,409.082414 L392.12069,409.570736 C392.071637,409.58666 392.026561,409.615853 391.992091,409.658316 C391.897961,409.775089 391.915196,409.947594 392.031864,410.043136 L399.176421,415.883104 C399.26127,415.952106 399.323581,416.044993 399.354073,416.149823 C399.440248,416.439102 399.275853,416.744303 398.988162,416.829229 L393.256872,418.544993 C393.115015,418.587456 392.959901,418.570206 392.829975,418.495896 L388.924267,416.253327 C387.879563,415.652212 386.63069,415.512881 385.477273,415.864526 L384.135597,416.274558 L391.188676,424.797647 C391.464436,425.130715 391.909893,425.268719 392.324858,425.151947 L401.401057,422.594887 L398.455204,428.335333 C398.424711,428.395046 398.416756,428.464049 398.433991,428.52907 C398.472439,428.675036 398.619599,428.762615 398.766759,428.72546 L400.24764,428.341968 C401.599922,427.991649 402.822279,427.259165 403.770202,426.233422 L409.143535,420.412032 L417.629767,418.020843 C420.546454,416.918136 421.703848,415.556671 421.100624,413.932467 L421.100624,413.932467 Z M390.193025,497.504654 C390.155904,497.515269 390.120108,497.528539 390.086964,497.545789 C389.7595,497.710333 389.625597,498.108422 389.789992,498.436182 L394.965786,508.801097 C395.045332,508.957679 395.134158,509.104972 395.232265,509.248284 C396.685305,509.322594 397.907662,509.757838 399.057102,510.173178 C400.23836,510.599133 401.35333,510.999877 402.692354,511.001203 L402.697657,511.001203 C404.038007,510.999877 405.152977,510.599133 406.332909,510.173178 C407.483675,509.759165 408.706032,509.323921 410.157746,509.248284 C410.255853,509.104972 410.344679,508.957679 410.424225,508.801097 L415.600018,498.436182 C415.617253,498.403008 415.630511,498.36718 415.642443,498.331352 C415.747179,497.979707 415.549639,497.609484 415.196985,497.504654 L402.696331,493.750673 L390.193025,497.504654 Z M406.673631,484.461925 L406.673631,480.481034 C406.673631,479.747223 406.078362,479.15407 405.347865,479.15407 L400.044798,479.15407 C399.311649,479.15407 398.719031,479.747223 398.719031,480.481034 L398.719031,484.461925 L406.673631,484.461925 Z M396.067498,486.452371 C395.334349,486.452371 394.741731,487.045524 394.741731,487.779335 L394.741731,493.48528 L402.696331,491.096745 L410.650931,493.48528 L410.650931,487.779335 C410.650931,487.045524 410.055662,486.452371 409.325165,486.452371 L396.067498,486.452371 Z M416.635442,513.84356 C411.711545,510.888412 408.855843,511.918136 406.332909,512.827106 C405.151651,513.253061 404.035356,513.655131 402.696331,513.655131 C401.354655,513.655131 400.239686,513.253061 399.057102,512.827106 C396.536819,511.918136 393.678466,510.887085 388.755894,513.84356 C388.127481,514.221745 387.924639,515.036501 388.301156,515.664155 C388.676348,516.294463 389.493021,516.497488 390.120108,516.119303 C393.963506,513.811713 395.814276,514.479176 398.159558,515.324452 C399.438922,515.784908 400.891963,516.309059 402.696331,516.309059 C404.499374,516.309059 405.951088,515.784908 407.230453,515.324452 C409.575735,514.480503 411.425179,513.811713 415.271228,516.119303 C415.484677,516.248019 415.719337,516.309059 415.952672,516.309059 C416.402107,516.309059 416.840936,516.079494 417.09018,515.664155 C417.466698,515.036501 417.263856,514.221745 416.635442,513.84356 L416.635442,513.84356 Z M328.478586,414.79632 C328.478586,414.428751 328.181614,414.132838 327.815702,414.132838 L313.895152,414.132838 L313.895152,400.199717 C313.895152,399.832148 313.59818,399.536235 313.232269,399.536235 L306.603435,399.536235 C306.237524,399.536235 305.940552,399.832148 305.940552,400.199717 L305.940552,414.132838 L291.994812,414.132838 C291.627575,414.132838 291.331929,414.428751 291.331929,414.79632 L291.331929,421.347541 C291.331929,421.71511 291.627575,422.011023 291.994812,422.011023 L305.940552,422.011023 L305.940552,436.027743 C305.940552,436.393985 306.237524,436.691225 306.603435,436.691225 L313.232269,436.691225 C313.596855,436.691225 313.895152,436.393985 313.895152,436.027743 L313.895152,422.121161 L327.815702,422.121161 C328.181614,422.121161 328.478586,421.825248 328.478586,421.457679 L328.478586,414.79632 Z M328.453396,497.731564 C328.453396,497.577637 328.43351,497.426363 328.429532,497.273762 C327.669868,497.3839 326.904901,497.456883 326.138608,497.456883 C322.568318,497.456883 318.999354,496.263942 316.082667,493.879388 L312.235292,497.731564 L324.132722,509.638412 C326.82668,506.413889 328.453396,502.264473 328.453396,497.731564 L328.453396,497.731564 Z M321.788767,511.984484 L309.892662,500.07631 L306.043962,503.928486 C308.362728,506.761554 309.624858,510.280662 309.624858,513.993507 C309.624858,514.769781 309.55194,515.531458 309.443227,516.285174 C309.594365,516.289155 309.740199,516.309059 309.892662,516.309059 C314.421481,516.309059 318.565828,514.680874 321.788767,511.984484 L321.788767,511.984484 Z M303.677468,506.297116 L297.995232,511.984484 C300.304718,513.91787 303.088828,515.30322 306.150023,515.930874 C306.660443,512.596214 305.837142,509.093029 303.677468,506.297116 L303.677468,506.297116 Z M295.651277,509.638412 L301.324232,503.96166 C299.143346,502.298974 296.502419,501.38735 293.715657,501.38735 C293.043493,501.38735 292.381936,501.453698 291.728333,501.557201 C292.363375,504.589314 293.736869,507.348072 295.651277,509.638412 L295.651277,509.638412 Z M318.450486,491.510758 C321.243877,493.672382 324.743901,494.496426 328.074227,493.985545 C327.448465,490.921586 326.064365,488.134961 324.131397,485.82339 L318.450486,491.510758 Z M321.787441,483.478645 C319.499168,481.561182 316.742899,480.186448 313.713522,479.552159 C313.192496,482.869569 313.993259,486.358157 316.117137,489.155397 L321.787441,483.478645 Z M310.417666,479.179282 C310.241339,479.175301 310.068989,479.15407 309.892662,479.15407 C305.362518,479.15407 301.218171,480.780927 297.995232,483.478645 L309.892662,495.385492 L313.749318,491.525354 C310.888313,487.974399 309.781298,483.47201 310.417666,479.179282 L310.417666,479.179282 Z M291.357118,498.261023 C292.132692,498.146904 292.917546,498.06994 293.715657,498.06994 C297.390682,498.06994 300.872146,499.313305 303.690726,501.593029 L307.548707,497.731564 L295.651277,485.82339 C292.957319,489.047913 291.331929,493.198656 291.331929,497.731564 C291.331929,497.910705 291.351815,498.08321 291.357118,498.261023 L291.357118,498.261023 Z M235.649727,333.851522 L231.554434,333.851522 L229.309911,326.213518 C229.137561,325.628327 228.600626,325.226257 227.990773,325.226257 L206.184563,325.226257 C205.57471,325.226257 205.037774,325.628327 204.86675,326.213518 L202.620902,333.851522 L198.52826,333.851522 L198.52826,335.129388 C198.52826,335.888412 199.14209,336.50545 199.90308,336.50545 L201.842677,336.50545 L199.854027,338.495896 L199.854027,345.313836 C199.854027,347.748815 201.554985,349.77907 203.831327,350.29924 L203.831327,353.180078 C203.831327,353.864792 204.384171,354.419463 205.066941,354.419463 L207.896127,354.419463 C208.580223,354.419463 209.134393,353.864792 209.134393,353.180078 L209.134393,350.438571 L225.043594,350.438571 L225.043594,353.180078 C225.043594,353.864792 225.596438,354.419463 226.279208,354.419463 L229.108394,354.419463 C229.79249,354.419463 230.346661,353.864792 230.346661,353.180078 L230.346661,350.29924 C232.62035,349.77907 234.323961,347.748815 234.323961,345.313836 L234.323961,338.495896 L232.335311,336.50545 L234.273582,336.50545 C235.033246,336.50545 235.649727,335.888412 235.649727,335.129388 L235.649727,333.851522 Z M232.998194,406.082148 C232.998194,405.398762 232.444023,404.844091 231.759928,404.844091 L219.414388,404.844091 L215.92497,402.938571 L221.253227,402.176894 C221.977095,402.07339 222.480887,401.40062 222.377477,400.67477 C222.275393,399.950248 221.605881,399.448656 220.878035,399.550832 L211.597668,400.877796 C211.031566,400.957414 210.580805,401.391331 210.480047,401.953964 C210.379288,402.516596 210.648419,403.081883 211.149559,403.355237 L213.876661,404.844091 L202.415408,404.844091 C201.732638,404.844091 201.179793,405.398762 201.179793,406.082148 L201.179793,431.736341 C201.179793,434.472541 203.393824,436.691225 206.127555,436.691225 L228.047781,436.691225 C230.781512,436.691225 232.998194,434.472541 232.998194,431.736341 L232.998194,406.082148 Z M232.998194,483.134961 L217.088994,479.15407 L201.179793,483.134961 L201.179793,487.115853 L217.088994,483.134961 L232.998194,487.115853 L232.998194,483.134961 Z M229.462374,516.309059 L225.653446,510.591172 C227.627513,509.77907 229.020894,507.840375 229.020894,505.572594 L229.020894,488.20131 C229.020894,487.601522 228.533012,487.115853 227.935091,487.115853 L217.088994,487.115853 L206.24157,487.115853 C205.642324,487.115853 205.157093,487.601522 205.157093,488.20131 L205.157093,505.572594 C205.157093,507.975726 206.726801,509.990057 208.889127,510.703964 L205.157093,516.309059 L209.575874,516.309059 L210.238757,514.982095 L224.38071,514.982095 L225.043594,516.309059 L229.462374,516.309059 Z M201.179793,268.519781 C201.179793,270.922913 202.888707,272.923974 205.157093,273.376469 L205.157093,276.216172 C205.157093,276.900885 205.709938,277.455556 206.392708,277.455556 L209.221894,277.455556 C209.90599,277.455556 210.46016,276.900885 210.46016,276.216172 L210.46016,273.474664 L223.717827,273.474664 L223.717827,276.216172 C223.717827,276.900885 224.270672,277.455556 224.953442,277.455556 L227.782628,277.455556 C228.466723,277.455556 229.020894,276.900885 229.020894,276.216172 L229.020894,273.376469 C231.286629,272.923974 232.998194,270.922913 232.998194,268.519781 L232.998194,241.538624 C232.998194,240.855237 232.444023,240.300567 231.759928,240.300567 L202.415408,240.300567 C201.732638,240.300567 201.179793,240.855237 201.179793,241.538624 L201.179793,268.519781 Z M291.331929,339.82286 L293.983462,339.82286 L293.983462,345.130715 L297.960762,345.130715 L297.960762,349.111607 L303.263829,349.111607 L303.263829,339.82286 L313.869962,339.82286 L313.869962,334.515004 L303.263829,334.515004 L303.263829,325.226257 L297.960762,325.226257 L297.960762,329.207148 L293.983462,329.207148 L293.983462,334.515004 L291.331929,334.515004 L291.331929,339.82286 Z M321.824563,329.207148 L321.824563,325.226257 L316.521496,325.226257 L316.521496,334.515004 L316.521496,339.82286 L316.521496,349.111607 L321.824563,349.111607 L321.824563,345.130715 L325.801863,345.130715 L325.801863,339.82286 L328.453396,339.82286 L328.453396,334.515004 L325.801863,334.515004 L325.801863,329.207148 L321.824563,329.207148 Z M291.331929,276.148496 C291.331929,276.880981 291.924546,277.47546 292.657695,277.47546 L304.179934,277.47546 L304.179934,264.309325 C304.179934,262.109218 305.961764,260.328433 308.157234,260.328433 L311.625439,260.328433 C313.820909,260.328433 315.60274,262.109218 315.60274,264.309325 L315.60274,277.47546 L327.127629,277.47546 C327.858127,277.47546 328.453396,276.880981 328.453396,276.148496 L328.453396,253.773231 C328.453396,253.341968 328.242599,252.937244 327.891271,252.689102 L310.677516,240.542074 C310.221453,240.219622 309.610274,240.219622 309.151559,240.540747 L291.892728,252.689102 C291.5414,252.937244 291.331929,253.341968 291.331929,253.773231 L291.331929,276.148496 Z M393.930362,329.966172 C393.891915,330.041809 393.879983,330.126734 393.894566,330.209006 C393.931688,330.417339 394.131878,330.556671 394.340024,330.519516 C396.064846,330.209006 397.427734,330.163889 398.430014,330.385492 C400.145556,330.767658 401.623786,331.599664 402.724172,332.701044 C404.818884,323.81304 409.879335,321.485545 409.879335,321.485545 C402.905802,319.938305 397.589478,322.764739 393.930362,329.966172 L393.930362,329.966172 Z M420.356869,336.261288 L420.356869,336.261288 C420.530545,336.383369 420.769183,336.342233 420.891153,336.168401 C420.940207,336.096745 420.965396,336.013146 420.960093,335.926894 C420.538499,327.827106 416.840936,323.003592 409.871381,321.456352 C409.871381,321.456352 413.537125,325.721214 411.85075,334.698125 C413.297162,334.162032 414.980885,334.031989 416.695102,334.412828 C417.696056,334.634431 418.915761,335.251469 420.356869,336.261288 L420.356869,336.261288 Z M384.135597,276.128592 C384.135597,276.861076 384.728215,277.455556 385.461364,277.455556 L408.3494,277.455556 C407.125718,271.800036 398.723008,270.685386 389.355141,269.075779 C388.130132,268.866119 387.090731,268.578167 386.206445,268.242446 C385.467993,268.697594 384.778594,269.177955 384.135597,269.676894 L384.135597,276.128592 Z M386.787131,246.271904 C386.787131,248.104441 388.270664,249.589314 390.101548,249.589314 C391.931106,249.589314 393.415964,248.104441 393.415964,246.271904 C393.415964,244.439367 391.931106,242.954494 390.101548,242.954494 C388.270664,242.954494 386.787131,244.439367 386.787131,246.271904 L386.787131,246.271904 Z M673.212397,322.04287 C669.175437,324.562775 669.175437,324.562775 669.175437,333.18804 L669.175437,343.803751 L669.175437,348.72148 C669.175437,349.930344 670.099497,351.99908 671.609545,353.59011 C673.76259,355.859218 676.924544,357.194144 681.107338,357.194144 C685.28748,357.194144 688.449434,355.859218 690.602479,353.59011 C692.112527,351.99908 693.039238,349.930344 693.039238,348.72148 L693.039238,343.803751 L693.039238,333.18804 C693.039238,325.889739 692.376355,323.761288 689.327091,323.842233 C689.282015,323.802424 689.282015,323.802424 689.234287,323.761288 C688.644321,321.644781 685.185396,319.446002 681.996927,320.005981 C678.766034,320.605768 672.074889,319.926363 672.074889,319.926363 C671.984737,321.16442 673.212397,322.04287 673.212397,322.04287 L673.212397,322.04287 Z M663.083539,271.752265 C665.403631,273.787828 668.223537,275.260758 671.508787,276.204229 C672.835879,274.398231 674.665437,272.97838 676.794619,272.1477 C678.144249,272.674505 679.61585,272.963783 681.156391,272.963783 C682.69428,272.963783 684.165881,272.674505 685.516838,272.1477 C687.643367,272.977053 689.470274,274.396904 690.797366,276.202902 C694.079965,275.258104 696.897219,273.785174 699.214659,271.752265 C699.55273,271.456352 699.717125,271.009165 699.653488,270.564632 C698.063894,259.522966 696.40536,252.089314 694.679211,248.26235 C692.036958,242.40115 687.06931,240.300567 681.149762,240.300567 C675.230214,240.300567 670.262566,242.40115 667.618987,248.26235 C665.894165,252.089314 664.235631,259.522966 662.646036,270.564632 C662.581074,271.009165 662.746795,271.456352 663.083539,271.752265 L663.083539,271.752265 Z M760.653339,253.901947 C760.653339,256.61028 761.431564,259.124877 762.75468,261.255981 C763.542185,262.521904 766.88842,267.697063 772.794711,276.784112 C773.193767,277.398496 774.015742,277.573656 774.629572,277.172913 C774.786012,277.072063 774.918589,276.93804 775.019347,276.781458 C781.00651,267.512615 784.347442,262.349399 785.039492,261.294463 C786.412986,259.20184 787.168673,256.62753 787.168673,253.901947 C787.168673,246.390004 781.23189,240.300567 773.911006,240.300567 C766.587471,240.300567 760.653339,246.390004 760.653339,253.901947 L760.653339,253.901947 Z M0,755.804813 L991,755.804813 L991,0.804812834 L0,0.804812834 L0,755.804813 Z M493.158696,409.416809 C491.69505,409.416809 490.508488,410.605768 490.508488,412.070736 C490.508488,413.537032 491.69505,414.724664 493.158696,414.724664 C494.621017,414.724664 495.807578,413.537032 495.807578,412.070736 C495.807578,410.605768 494.621017,409.416809 493.158696,409.416809 L493.158696,409.416809 Z M226.36936,426.075513 C224.903063,426.075513 223.717827,427.263146 223.717827,428.729441 C223.717827,430.194409 224.903063,431.383369 226.36936,431.383369 C227.833007,431.383369 229.020894,430.194409 229.020894,428.729441 C229.020894,427.263146 227.833007,426.075513 226.36936,426.075513 L226.36936,426.075513 Z M227.782628,408.824983 L206.392708,408.824983 C205.709938,408.824983 205.157093,409.379654 205.157093,410.06304 L205.157093,420.855237 C205.157093,421.539951 205.709938,422.094622 206.392708,422.094622 L227.782628,422.094622 C228.466723,422.094622 229.020894,421.539951 229.020894,420.855237 L229.020894,410.06304 C229.020894,409.379654 228.466723,408.824983 227.782628,408.824983 L227.782628,408.824983 Z M207.808627,426.075513 C206.342329,426.075513 205.157093,427.263146 205.157093,428.729441 C205.157093,430.194409 206.342329,431.383369 207.808627,431.383369 C209.272273,431.383369 210.46016,430.194409 210.46016,428.729441 C210.46016,427.263146 209.272273,426.075513 207.808627,426.075513 L207.808627,426.075513 Z M223.595857,502.231299 C222.397363,502.231299 221.426902,503.213252 221.426902,504.423443 C221.426902,505.634961 222.397363,506.615588 223.595857,506.615588 C224.79435,506.615588 225.764811,505.634961 225.764811,504.423443 C225.764811,503.213252 224.79435,502.231299 223.595857,502.231299 L223.595857,502.231299 Z M226.668984,328.901947 C226.490005,328.295524 225.933183,327.880184 225.303444,327.880184 L208.871892,327.880184 C208.242152,327.880184 207.68533,328.295524 207.507678,328.901947 L205.467323,335.841968 L228.708013,335.841968 L226.668984,328.901947 Z M226.36936,339.82286 C224.903063,339.82286 223.717827,341.010492 223.717827,342.476787 C223.717827,343.941756 224.903063,345.130715 226.36936,345.130715 C227.833007,345.130715 229.020894,343.941756 229.020894,342.476787 C229.020894,341.010492 227.833007,339.82286 226.36936,339.82286 L226.36936,339.82286 Z M207.808627,339.82286 C206.342329,339.82286 205.157093,341.010492 205.157093,342.476787 C205.157093,343.941756 206.342329,345.130715 207.808627,345.130715 C209.272273,345.130715 210.46016,343.941756 210.46016,342.476787 C210.46016,341.010492 209.272273,339.82286 207.808627,339.82286 L207.808627,339.82286 Z M212.227407,511.001203 L211.564524,512.328167 L223.054944,512.328167 L222.39206,511.001203 L212.227407,511.001203 Z M488.871167,249.589314 C485.942548,249.589314 483.5681,251.965906 483.5681,254.89717 L494.174233,254.89717 C494.174233,251.965906 491.798459,249.589314 488.871167,249.589314 L488.871167,249.589314 Z M206.392708,245.608422 L227.782628,245.608422 C228.466723,245.608422 229.020894,245.053751 229.020894,244.369038 L229.020894,244.192552 C229.020894,243.509165 228.466723,242.954494 227.782628,242.954494 L206.392708,242.954494 C205.709938,242.954494 205.157093,243.509165 205.157093,244.192552 L205.157093,244.369038 C205.157093,245.053751 205.709938,245.608422 206.392708,245.608422 L206.392708,245.608422 Z M226.36936,264.185917 C224.903063,264.185917 223.717827,265.37355 223.717827,266.839845 C223.717827,268.304813 224.903063,269.493772 226.36936,269.493772 C227.833007,269.493772 229.020894,268.304813 229.020894,266.839845 C229.020894,265.37355 227.833007,264.185917 226.36936,264.185917 L226.36936,264.185917 Z M585.686605,492.203433 L585.099291,494.136819 L586.275246,494.136819 L585.686605,492.203433 Z M591.242894,492.866915 C591.35691,492.779335 591.413917,492.621426 591.413917,492.393189 C591.413917,492.164951 591.35691,492.007042 591.242894,491.920789 C591.128878,491.831883 590.960505,491.788093 590.737776,491.788093 L589.816369,491.788093 L589.816369,492.998284 L590.76164,492.998284 C590.96846,492.998284 591.128878,492.954494 591.242894,492.866915 L591.242894,492.866915 Z M484.607501,345.130715 L503.664071,345.130715 C504.104226,343.211925 504.442296,341.005184 504.669002,338.495896 L483.678138,338.495896 C483.873026,340.719887 484.171324,343.004919 484.607501,345.130715 L484.607501,345.130715 Z M591.66051,494.702106 C591.66051,494.463252 591.59157,494.277477 591.45369,494.148762 C591.315811,494.018719 591.085127,493.953698 590.76164,493.953698 L589.816369,493.953698 L589.816369,495.449187 L590.76164,495.449187 C591.085127,495.449187 591.315811,495.384165 591.45369,495.25545 C591.59157,495.12408 591.66051,494.939632 591.66051,494.702106 L591.66051,494.702106 Z M212.748433,504.423443 C212.748433,503.213252 211.777972,502.231299 210.579479,502.231299 C209.380986,502.231299 208.410525,503.213252 208.410525,504.423443 C208.410525,505.634961 209.380986,506.615588 210.579479,506.615588 C211.777972,506.615588 212.748433,505.634961 212.748433,504.423443 L212.748433,504.423443 Z M509.073199,341.149823 L507.487582,341.149823 L505.833026,348.675036 C506.415037,348.363199 506.762388,348.152212 506.969208,348.012881 C509.889872,346.033051 511.368102,343.981564 510.921318,342.525885 C510.661468,341.675301 509.758621,341.149823 509.073199,341.149823 L509.073199,341.149823 Z M211.06471,500.039155 L222.99661,500.039155 C224.359498,500.039155 225.239807,497.188836 225.640189,491.488199 C225.641515,491.464314 225.64284,491.441756 225.64284,491.41787 C225.64284,490.857891 225.189428,490.40407 224.629955,490.40407 L209.431365,490.40407 C209.407501,490.40407 209.383638,490.40407 209.359774,490.406724 C208.802952,490.446533 208.381358,490.930874 208.421131,491.488199 C208.820187,497.188836 209.701822,500.039155 211.06471,500.039155 L211.06471,500.039155 Z M207.808627,269.493772 C209.272273,269.493772 210.46016,268.304813 210.46016,266.839845 C210.46016,265.37355 209.272273,264.185917 207.808627,264.185917 C206.342329,264.185917 205.157093,265.37355 205.157093,266.839845 C205.157093,268.304813 206.342329,269.493772 207.808627,269.493772 L207.808627,269.493772 Z M205.157093,260.292605 L205.157093,249.500407 C205.157093,248.817021 205.709938,248.26235 206.392708,248.26235 L227.782628,248.26235 C228.466723,248.26235 229.020894,248.817021 229.020894,249.500407 L229.020894,260.292605 C229.020894,260.977318 228.466723,261.531989 227.782628,261.531989 L206.392708,261.531989 C205.709938,261.531989 205.157093,260.977318 205.157093,260.292605 L205.157093,260.292605 Z" id="Fill-1" stroke="none" fill="#FFFFFF" fill-rule="evenodd" mask="url(#mask-4)"></path>
                    </g>
                </g>
            </g>
        </g>
    </g>
</svg>