<?xml version="1.0" encoding="UTF-8"?>
<svg width="367px" height="367px" viewBox="0 0 367 367" version="1.1" xmlns="http://www.w3.org/2000/svg" xmlns:xlink="http://www.w3.org/1999/xlink">
    <!-- Generator: Sketch 57.1 (83088) - https://sketch.com -->
    <title>Group 7</title>
    <desc>Created with Sketch.</desc>
    <g id="New" stroke="none" stroke-width="1" fill="none" fill-rule="evenodd">
        <g id="Artboard" transform="translate(-1137.000000, -407.000000)">
            <g id="Group-7" transform="translate(1137.000000, 407.000000)">
                <g id="Group-2-Copy-2" fill="#FFFFFF">
                    <g id="Familie-Sauerwein--Copy-4">
                        <rect id="Rectangle" x="0" y="0" width="367" height="367"></rect>
                    </g>
                </g>
                <path d="M167.946106,74.9608816 L178.809074,85.9064796 L156.749226,108.134812 L163.504405,115 L185.593387,92.7421869 L207.682368,115 L214.437548,108.134812 L192.376953,85.9064796 L203.236186,74.9646611 L211.619093,83.4112158 L221,73.8761486 L212.658179,65.4711691 L214.647457,63.4672478 L207.892277,56.6020599 L205.873866,58.6354617 L198.296232,51 L188.914578,60.5343113 L196.451873,68.1289538 L185.593387,79.0707722 L174.731913,68.126686 L182.272196,60.5343113 L172.889795,51 L165.30992,58.633194 L163.294496,56.6020599 L156.539317,63.4672478 L158.524113,65.4666336 L153,71.0286301 L153,80.5228781 L162.421993,80.5228781 L167.946106,74.9608816 Z M48,173 L75,173 L75,166 L48,166 L48,173 Z M287,173 L316,173 L316,166 L287,166 L287,173 Z M246.416937,210.035171 C244.910798,209.96604 243.398161,210.020143 241.889856,210.020143 C236.328118,210.019391 230.765657,209.979566 225.20464,210.045691 C223.710053,210.064477 222.211135,210.361291 220.7281,210.615273 C219.724489,210.788101 219.001023,211.380977 219.003911,212.56222 C219.008243,215.416139 218.96781,218.272313 219.076113,221.123227 C219.200301,224.388928 219.63568,227.648618 219.638569,230.912065 C219.643623,237.080529 219.432792,243.248992 219.319435,249.418207 C219.2855,251.29978 219.290554,253.182104 219.256619,255.064429 C219.17864,259.369353 219.082611,263.673527 219.008243,267.978451 C219.002467,268.335379 219.104994,268.696816 219.166366,269.053743 C219.422684,270.539314 220.261674,271.268198 221.68478,271.655935 C224.485505,272.414876 227.227025,271.701772 229.987316,271.562758 C230.781541,271.521429 231.242913,270.948091 231.229195,270.085452 C231.167101,266.447795 231.133166,262.807131 231.00609,259.17248 C230.911505,256.448557 230.675404,253.731397 230.527389,251.009729 C230.48479,250.247782 230.564212,249.522655 231.543997,249.437744 C232.756272,249.333296 233.964938,249.122896 235.177936,249.096596 C237.82487,249.039488 240.473248,249.025962 243.118739,249.086076 C244.234263,249.110873 244.874697,248.702848 245.123795,247.56594 C245.212604,247.15566 245.4256,246.776941 245.53968,246.370419 C246.341847,243.499217 244.545455,240.135079 241.438592,240.295133 C240.858808,240.32519 240.278302,240.296636 239.697074,240.297387 C237.150501,240.301896 234.60104,240.389061 232.058077,240.282359 C230.092732,240.201204 229.809699,239.851791 229.847966,237.882301 C229.923056,233.88997 230.063851,229.900644 230.210421,225.911319 C230.255909,224.702273 230.464573,223.500741 230.505728,222.293198 C230.580819,220.097529 230.94183,219.615864 233.044359,219.544479 C235.073965,219.477602 237.107902,219.530953 239.140395,219.530953 L239.140395,219.520433 L242.101409,219.520433 C243.146176,219.51893 244.19383,219.55575 245.237153,219.509162 C248.090585,219.382171 248.983727,218.413581 248.985893,215.504808 C248.987337,214.594078 249.019106,213.681846 248.982283,212.771868 C248.907193,210.897058 248.208275,210.117828 246.416937,210.035171 L246.416937,210.035171 Z M283.605873,262.237434 C283.037891,262.103569 282.429391,262.095297 281.840781,262.110338 C277.52382,262.225401 273.208333,262.359265 268.892845,262.492377 C268.654896,262.499146 268.419158,262.520955 268.184893,262.554045 C265.690485,262.896226 265.118819,262.454023 264.841826,259.926395 C264.796152,259.505249 264.791732,259.075078 264.810886,258.650172 C264.917705,256.118032 265.03189,253.583635 265.153443,251.049991 C265.227111,249.525593 265.316987,249.430835 266.82866,249.379696 C270.787593,249.251096 274.748736,249.133777 278.709143,249.007433 C280.204609,248.960054 280.71955,248.602832 280.670929,247.090467 C280.606101,245.101304 280.301114,243.117406 280.035909,241.140276 C279.911409,240.220523 279.274915,239.828707 278.378372,239.849012 C274.356084,239.938505 270.334533,239.994157 266.312245,240.122005 C265.093772,240.160359 264.864663,240.057329 264.799099,238.754032 C264.750478,237.784644 264.783628,236.809992 264.741637,235.8391 C264.527999,231.055333 264.274581,226.274574 264.095567,221.489303 C264.038105,219.971673 264.546416,219.373796 266.023465,219.187289 C267.840125,218.957163 269.675202,218.743581 271.502175,218.757118 C274.92996,218.784944 278.355535,219.01507 281.78332,219.090275 C283.675858,219.132389 284.165752,218.718012 284.299092,216.854441 C284.423591,215.100669 284.345503,213.331855 284.353606,211.569059 C284.356553,210.630505 283.819511,210.305621 282.984113,210.289076 C278.015924,210.189054 273.046999,210.015331 268.07881,210 C265.136499,209.990513 262.194188,210.230416 259.250404,210.359016 C259.248931,210.333446 259.248931,210.307125 259.248194,210.282307 C257.883857,210.282307 256.521731,210.252225 255.158868,210.289076 C253.477758,210.334198 252.66446,211.064436 252.403674,212.764812 C252.311589,213.358929 252.370524,213.977863 252.330006,214.583261 C252.011022,219.367028 252.920089,224.110937 252.432405,228.941331 C251.899047,234.231977 252.008812,239.597076 252.010286,244.931342 C252.011022,250.819113 252.219504,256.706132 252.316746,262.592399 C252.35358,264.829737 252.305696,267.067828 252.346213,269.305166 C252.384521,271.540248 252.83758,271.991475 254.96512,271.995236 C259.645266,272.00426 264.326148,272 269.006294,271.987715 C269.953668,271.984707 270.898095,271.904238 271.844733,271.898974 C274.140236,271.884685 276.435003,271.923039 278.730507,271.883933 C280.199452,271.857611 281.671344,271.779398 283.13145,271.615452 C283.532942,271.570329 284.123761,271.205587 284.23058,270.859646 C284.581241,269.717287 284.842027,268.525294 284.96358,267.334052 C285.071135,266.265394 284.902435,265.170415 284.940742,264.09198 C284.977577,263.066189 284.523043,262.452519 283.605873,262.237434 L283.605873,262.237434 Z M203,228.469932 C202.720455,226.446164 202.535292,224.348328 202.118855,222.302864 C201.711785,220.297799 200.291723,219.239155 198.398307,219.070072 C196.803169,218.92867 195.189298,219.049871 193.583353,219.021441 C192.491828,219.001241 191.989655,219.521211 192.009829,220.657663 C192.030722,221.863695 191.978128,223.072718 192.01127,224.276505 C192.104211,227.586357 192.256953,230.893217 192.325398,234.20307 C192.383036,236.958537 192.333323,239.7155 192.375111,242.470967 C192.397446,243.985988 192.846304,244.294977 194.221696,243.748821 C195.517836,243.234837 196.811094,242.696911 198.048875,242.05125 C200.135379,240.965672 201.526622,239.174581 201.949543,236.805912 C202.433704,234.09309 202.651289,231.329393 203,228.469932 L203,228.469932 Z M213.340604,220.335108 C214.092006,225.764474 214.362392,231.190081 213.27861,236.622455 C212.688543,239.578527 211.622687,242.384953 210.053407,244.861256 C209.068218,246.415619 207.407067,247.740625 205.760854,248.614437 C201.629636,250.808743 197.333349,252.684206 193.108766,254.695778 C191.933113,255.253755 191.583554,256.092224 191.65003,257.529276 C191.724722,259.149062 191.632104,260.775616 191.682147,262.396154 C191.735179,264.089635 191.941329,265.779356 191.95328,267.471333 C191.975687,270.810168 190.789577,272.03892 187.516571,271.999064 C185.4237,271.974248 183.328587,271.799035 181.242438,271.610285 C179.782955,271.477183 179.351235,270.925975 179.343019,269.291149 C179.321358,265.220628 179.337043,261.149355 179.337043,257.078082 L179.328827,257.078082 C179.328827,253.069976 179.369161,249.061871 179.319864,245.056021 C179.235462,238.076051 179.037528,231.098338 179.000929,224.119872 C178.984497,220.727646 179.189153,217.332412 179.365426,213.943194 C179.49315,211.449596 180.435017,210.453209 182.952886,210.348683 C187.685375,210.154669 192.429068,209.901249 197.156329,210.039615 C199.697352,210.111806 202.429588,210.481785 204.694251,211.548107 C207.75812,212.990423 211.187979,214.325957 212.673604,217.916708 C212.991792,218.683738 213.227819,219.511679 213.340604,220.335108 L213.340604,220.335108 Z M102.93287,249.608539 C102.890669,249.250009 102.759984,248.903607 102.694641,248.546593 C102.354316,246.696335 101.950009,244.855932 101.704294,242.989756 C101.387791,240.575553 101.291819,238.12345 100.933796,235.718342 C100.342991,231.745708 99.6221809,227.797329 98.9456134,223.840613 C98.9081775,223.623827 98.7781731,223.426749 98.5978005,223 C96.0739449,232.198987 95.4599973,241.529106 94,250.766751 C94.3083351,250.875901 94.5513277,251.007034 94.8052107,251.044176 C96.8049646,251.341308 98.8094831,251.595236 100.807195,251.911318 C102.761345,252.219821 103.188794,251.786249 102.93287,249.608539 L102.93287,249.608539 Z M119.941727,268.137108 C120.214974,271.569591 119.594589,271.914112 116.635832,271.789036 C115.647527,271.747094 114.656143,271.782295 113.664759,271.782295 C112.240799,271.780798 110.8153,271.820492 109.39288,271.770312 C107.638715,271.707399 107.042961,271.25353 106.715066,269.589341 C106.353303,267.755888 106.128548,265.89697 105.829132,264.050784 C105.732918,263.455361 105.62285,262.857691 105.461212,262.274251 C105.04403,260.771838 104.93781,260.789064 103.270623,260.825014 C100.059401,260.893169 96.8481795,260.85647 93.6361882,260.879688 C91.525649,260.896165 91.2908881,261.047455 90.9306648,263.036692 C90.5442714,265.175721 90.2048302,267.325985 89.9554448,269.484487 C89.8022729,270.804903 89.0487288,271.436276 87.8348994,271.629508 C86.678798,271.812254 85.5065328,271.985264 84.3396556,271.998745 C82.8610466,272.015222 81.3793588,271.86543 79.9007498,271.786789 C78.2989876,271.702906 77.9141336,271.35389 78.0149653,269.793058 C78.1004029,268.468897 78.2274047,267.131255 78.5229726,265.841547 C78.9486211,263.972143 79.5474539,262.142434 80.0670067,260.293253 C81.1615314,256.397913 82.4292404,252.546762 82.8656648,248.491894 C82.9942061,247.315278 83.6061239,246.195583 83.8986129,245.025708 C84.3519709,243.212476 84.770692,241.386512 85.1170606,239.550063 C85.8590591,235.629259 86.5995181,231.707705 87.2352969,227.770424 C87.7048187,224.850979 88.0173202,221.90532 88.38678,218.971645 C88.7254515,216.278385 89.8800134,213.869731 91.2439359,211.575667 C91.586456,210.999717 92.5031781,210.549592 93.2251642,210.424516 C97.3500291,209.70851 101.473355,209.950424 105.565122,210.76005 C106.75586,210.994474 107.276183,211.896971 107.540962,212.94177 C108.092073,215.101769 108.616244,217.26851 109.118864,219.437498 C109.841619,222.562907 110.532817,225.695056 111.242488,228.821214 C112.7134,235.313198 114.21433,241.799189 115.654454,248.297913 C117.051474,254.608648 118.389226,260.931366 119.753149,267.248093 C119.817804,267.54543 119.917866,267.837524 119.941727,268.137108 L119.941727,268.137108 Z M313.800353,223.990695 C313.538946,221.873727 312.715512,220.097209 310.558901,219.633226 C308.538803,219.19792 306.436652,219.100123 304.361368,219.002327 C303.254018,218.950119 302.978088,219.78323 303.001324,220.828846 C303.143646,227.405492 303.2424,233.982139 303.373103,240.55952 C303.381091,240.949972 303.526317,241.339688 303.66283,242 C305.816536,241.38013 307.87875,240.845557 309.9003,240.188922 C312.526718,239.333017 313.699421,237.255756 313.753154,234.622597 C313.825041,231.081326 314.241115,227.539319 313.800353,223.990695 L313.800353,223.990695 Z M323.930524,271.638444 C321.314188,271.721976 318.715012,272.349588 316.061375,271.728748 C314.997533,271.478907 314.281342,271.131237 313.976215,270.064145 C313.775532,269.366547 313.547992,268.677227 313.355516,267.978877 C312.308833,264.180843 311.274832,260.379047 310.228149,256.581013 C309.970768,255.647119 309.689513,254.717741 309.409751,253.789116 C308.748767,251.601502 307.414861,251.03936 305.438622,252.10871 C303.375842,253.224716 303.37435,253.566366 303.556382,256.039189 C303.848827,260.032129 304.052494,264.046892 303.992065,268.047357 C303.955509,270.503625 302.699937,272.39173 299.148823,271.852916 C297.385203,271.585767 295.560408,271.725738 293.763216,271.677576 C291.871279,271.627156 291.414707,271.198213 291.40277,269.295057 C291.378151,265.401451 291.39531,261.509351 291.39531,257.615746 L291.369945,257.615746 C291.369945,254.087871 291.412469,250.558492 291.357262,247.03137 C291.309516,243.936202 291.114802,240.842539 291.055119,237.747371 C290.996929,234.658223 290.978278,231.566065 291.031246,228.476165 C291.118532,223.313789 291.25804,218.152166 291.417691,212.98979 C291.474389,211.160382 292.223406,210.389036 293.916153,210.338616 C298.887712,210.191872 303.859271,209.96837 308.827846,210.003739 C310.892118,210.018037 313.086198,210.265621 314.982613,211.024926 C317.631027,212.085245 320.122029,213.61665 322.554094,215.154075 C324.015571,216.075927 324.731016,217.631413 325.027191,219.425452 C326.143255,226.167394 326.148478,232.898801 324.284889,239.463899 C323.669412,241.634204 322.060221,243.575739 320.666632,245.43901 C319.464774,247.044915 319.432695,246.947086 320.089203,248.803585 C321.805824,253.655165 323.465,258.529321 325.004064,263.442608 C325.543445,265.163651 325.704588,267.012624 325.958239,268.814188 C326.191001,270.475028 325.441985,271.590282 323.930524,271.638444 L323.930524,271.638444 Z M65.7963112,245.925945 C65.5915244,242.106077 65.4899009,239.124463 65.2566287,236.152468 C64.983323,232.650736 64.5029209,229.163062 64.2904353,225.659851 C64.1002762,222.528047 62.0254625,220.264832 58.7758193,220.059153 C57.544019,219.982948 56.297591,219.982948 55.0642509,220.044356 C53.1772868,220.141277 52.0186246,221.331703 52.0070765,223.148045 C51.9909091,226.361973 52.0070765,229.573681 52.010156,232.788349 C52.0124656,239.148138 52.0170849,245.508667 52.0170849,251.869196 C52.0170849,254.722075 51.9862899,257.573474 52.0155451,260.426353 C52.0240138,261.194322 52.1202482,261.980787 52.3142567,262.725081 C52.6260562,263.925865 53.0594959,264.139683 54.335949,263.928084 C55.3691215,263.757178 56.3953652,263.515986 57.4362364,263.425723 C61.4634536,263.078732 63.9486107,261.161769 64.4752054,257.304167 C65.0279758,253.249765 66.5453998,249.270827 65.7963112,245.925945 L65.7963112,245.925945 Z M78.8201047,247.195529 C78.7426813,251.688212 78.4337471,256.163627 76.9467641,260.452848 C75.8446204,263.63917 74.0494622,266.329975 71.612905,268.78128 C68.4704293,271.943577 64.547648,272.006642 60.6506745,272.374526 C58.5336782,272.572732 56.3772112,272.333233 54.2457929,272.436841 C52.1887617,272.535944 50.1431163,272.933859 48.0868442,272.989417 C46.0897781,273.044224 44.0843624,272.876049 42.0895735,272.717633 C41.2728334,272.653066 40.8113298,272.036674 40.727834,271.225078 C40.5783008,269.779821 40.3657662,268.333814 40.3498261,266.884803 C40.2936562,262.093308 40.348308,257.29806 40.29062,252.504313 C40.2534265,249.555989 40.0537958,246.609167 40.0006621,243.660844 C39.9824449,242.699842 40.3467899,241.723825 40.2739209,240.775586 C39.8283573,235.020837 41.0261415,229.310385 40.6868452,223.557137 C40.4803831,220.070503 40.3885378,216.57561 40.3361632,213.081467 C40.2982106,210.512289 40.7263159,210.159421 43.2797672,210.061819 C50.1347667,209.805052 56.9222106,210.347868 63.6481713,211.695523 C65.6186705,212.091185 67.6385082,212.265367 69.5831996,212.74812 C73.391364,213.692604 75.8635967,216.116131 76.7653506,219.929356 C77.4333165,222.7538 78.1172224,225.602269 78.4049032,228.477767 C78.7973331,232.390095 78.8185865,236.338461 79,240.27106 C78.942312,240.274063 78.883865,240.275565 78.8276952,240.277817 C78.8276952,242.583471 78.8595754,244.889875 78.8201047,247.195529 L78.8201047,247.195529 Z M173.916572,240.96313 C173.798664,236.190259 173.542441,231.41511 173.61122,226.644517 C173.680756,221.690177 173.786571,216.738874 173.582499,211.789089 C173.562848,211.294035 173.1086,210.487673 172.723887,210.399596 C171.500212,210.114864 170.214561,210.016916 168.95234,210.000971 C167.501163,209.985026 166.048475,210.170292 164.594276,210.201422 C162.603443,210.247739 160.611099,210.194589 158.621022,210.251535 C156.955193,210.298611 156.61205,210.606881 156.178209,212.164936 C156.046696,212.637212 155.920474,213.114043 155.832799,213.596949 C155.018779,218.104829 154.166969,222.606635 153.42702,227.127423 C153.179867,228.628531 153.374113,230.205568 153.116378,231.702879 C152.133055,237.435488 151.06508,243.153669 149.977453,248.868814 C149.778672,249.912073 149.344831,250.911293 149.019828,251.930255 C148.646452,251.687283 148.548196,251.483795 148.516451,251.269676 C148.188425,249.032061 147.849061,246.795204 147.557314,244.551515 C146.854401,239.145399 145.246769,233.923791 144.527228,228.506286 C143.808442,223.11156 142.530349,217.793522 141.492607,212.441316 C141.24772,211.176346 140.633994,210.240905 139.235725,210.210534 C137.551756,210.17257 135.866275,210.22572 134.18155,210.232553 C131.505943,210.241665 128.831093,210.215849 126.155486,210.261406 C124.727741,210.286463 124.458668,210.591695 124.375528,211.997134 C124.338493,212.609877 124.356632,213.224899 124.356632,213.839161 C124.353609,224.337807 124.397447,234.836452 124.336981,245.334338 C124.289364,253.429085 124.095118,261.522313 124.000641,269.617059 C123.975699,271.66865 124.675589,272.383897 126.680026,272.532717 C128.541613,272.670907 130.405468,272.782522 132.267811,272.866044 C133.843698,272.936657 134.766555,272.111314 134.957022,270.495553 C135.014465,270.01037 134.988767,269.513797 134.987255,269.023298 C134.978941,257.603639 134.96836,246.183979 134.958534,234.765079 C134.957022,234.177392 134.958534,233.588186 134.958534,232.99898 C135.241967,233.131855 135.343247,233.278398 135.380282,233.438607 C136.458839,238.155291 137.502627,242.878808 138.61444,247.585621 C139.796544,252.587037 141.024753,257.578582 141.623364,262.696169 C141.884878,264.936821 142.051914,267.188863 142.272614,269.433312 C142.414708,270.879752 142.935469,272.099924 144.475076,272.470456 C147.471151,273.193296 150.485365,273.154572 153.48673,272.485641 C154.367262,272.288227 155.045989,271.740782 155.24477,270.803064 C155.67332,268.767419 156.107917,266.729495 156.449549,264.677146 C157.188741,260.213304 157.829678,255.731999 158.587766,251.271195 C159.202249,247.649401 159.977721,244.054942 160.590692,240.43163 C161.005638,237.973062 161.263373,235.486401 161.591399,233.011888 C161.710819,233.043778 161.830238,233.07415 161.948902,233.104521 C161.948902,236.396785 161.994251,239.689807 161.939077,242.981312 C161.854425,248.007784 161.702505,253.03046 161.57855,258.055414 C161.567213,258.483651 161.540003,258.912647 161.527154,259.342403 C161.419072,262.819173 161.230116,266.296702 161.237675,269.774991 C161.240698,271.954901 161.835529,272.45527 163.990375,272.507661 C166.239698,272.563089 168.492045,272.56157 170.739856,272.516013 C173.167554,272.467419 173.879537,271.73243 173.992154,269.323216 C174.005003,269.015705 173.998201,268.708954 173.998201,268.400684 C173.998201,259.867829 174,251.334215 173.995178,242.800602 C173.993666,242.187858 173.932444,241.575114 173.916572,240.96313 L173.916572,240.96313 Z M240.308984,198.627618 C242.221937,198.604198 243.064251,197.922743 242.996192,195.953171 C242.95082,194.621992 242.852026,193.290812 242.82568,191.958122 C242.782504,189.545831 242.485389,189.168084 240.171404,189.203592 C235.34804,189.277631 230.52614,189.402287 225.702777,189.526944 C224.820214,189.548853 224.188661,189.290474 224.051081,188.306066 C223.934723,187.467468 223.771529,186.626604 223.766406,185.78574 C223.75177,183.00779 223.804461,180.22833 223.816169,177.449625 C223.824951,175.76563 223.760552,174.078613 223.80812,172.394618 C223.856419,170.640362 224.076694,168.889128 224.087671,167.134873 C224.127189,160.637629 224.023272,154.138874 224.157925,147.644652 C224.217933,144.741291 224.55603,141.856817 224.128653,138.946656 C223.900328,137.397139 223.868128,137.110807 222.36133,137.051878 C219.962455,136.958952 217.556994,137.014103 215.153728,137.03979 C212.948783,137.064721 212.421879,137.588278 212.393339,139.826806 C212.362602,142.498986 212.354553,145.171166 212.390411,147.842591 C212.433588,151.05495 212.645813,154.269574 212.586537,157.4774 C212.476033,163.398957 212.157696,169.315982 212.048656,175.23754 C211.952789,180.381695 212.028165,185.530383 212.028165,190.676049 L212.080855,190.676049 C212.080855,192.25503 211.970352,193.842322 212.104273,195.40846 C212.359675,198.396437 212.41822,198.391148 215.284722,198.746986 C215.40108,198.762096 215.515974,198.800626 215.633064,198.801381 C219.513855,198.87542 223.39611,199.030296 227.27617,198.994788 C231.621661,198.953236 235.964225,198.678236 240.308984,198.627618 L240.308984,198.627618 Z M257.888372,198.990088 C260.727648,198.981015 263.566188,198.959846 266.406934,198.950018 C269.052221,198.940189 271.695305,198.944726 274.339858,198.933385 C275.284813,198.931117 276.231973,198.936409 277.173255,198.874414 C278.742058,198.770837 279.789151,197.857545 279.913332,196.299354 C280.07058,194.32761 279.988282,192.328649 279.868509,190.350101 C279.844996,189.973595 279.220414,189.516193 278.777328,189.316599 C278.315137,189.107177 277.736113,189.092056 277.212199,189.113982 C272.317682,189.311307 267.423165,189.512413 262.529383,189.763417 C261.027447,189.839777 260.379351,189.436809 260.084696,187.860473 C259.930387,187.030345 259.796653,186.176023 259.817228,185.336823 C259.874542,183.040739 260.034729,180.746924 260.12364,178.450841 C260.202264,176.416347 260.192712,176.426175 262.117893,176.370228 C266.069659,176.257579 270.020691,176.095787 273.973191,176.020939 C275.135648,175.999014 275.877064,175.529516 275.830771,174.357659 C275.750678,172.370795 275.574325,170.378638 275.277465,168.413699 C275.134179,167.473189 274.46257,166.821486 273.384615,166.844923 C269.366717,166.936403 265.348818,166.981766 261.33239,167.110292 C260.092044,167.151874 259.828985,167.062662 259.774609,165.804617 C259.523307,160.110149 259.280822,154.417193 259.070669,148.722725 C259.005271,146.974013 259.498324,146.345746 261.124441,146.162785 C263.000391,145.951851 264.890302,145.739405 266.7736,145.754526 C270.138994,145.781743 273.500714,146.01309 276.864638,146.087182 C278.637716,146.126496 279.100641,145.722772 279.249806,143.916601 C279.385744,142.286586 279.347535,140.638426 279.321816,138.999339 C279.298303,137.515239 279.113133,137.311109 277.661164,137.290696 C274.879937,137.250626 272.098711,137.312621 269.31822,137.263478 C267.195376,137.223408 265.074737,136.981477 262.953363,137.001134 C260.06853,137.032131 257.18884,137.224921 254.305477,137.348155 C254.304007,137.326229 254.302537,137.304304 254.302537,137.283891 C252.88143,137.283891 251.461792,137.294476 250.042155,137.279355 C248.949504,137.268771 248.224989,137.766999 247.947234,138.85796 C247.497535,140.624061 247.254315,142.378066 247.45859,144.250013 C247.773085,147.134292 247.911963,150.051082 247.939151,152.955018 C247.951642,154.392244 247.402745,155.828714 247.360127,157.271987 C247.17863,163.262066 247.001543,169.2529 247,175.24449 C246.995665,181.130991 247.190387,187.015224 247.331469,192.900213 C247.363801,194.229325 247.487982,195.561462 247.658456,196.87999 C247.895797,198.715647 248.214702,198.977235 250.07816,198.990088 C252.681564,199.008989 255.284968,198.996136 257.888372,198.990088 L257.888372,198.990088 Z M138.018885,184.121916 C138.018885,188.0945 141.429599,190 144.500379,190 C147.570401,190 150.981115,188.0945 150.981115,184.121916 C151.023606,181.208936 150.981115,178.540193 150.981115,175.531156 L150.981115,153.102251 C150.981115,148.822136 148.744992,146.211474 144.500379,146 C140.254249,146.211474 138.018885,148.822136 138.018885,153.102251 L138.018885,175.531156 C138.018885,178.540193 137.976394,181.208936 138.018885,184.121916 L138.018885,184.121916 Z M127,174.054485 C127.054344,174.051465 127.108689,174.0492 127.161564,174.046935 C127.161564,171.252584 127.126314,168.459743 127.169643,165.666146 C127.262909,159.845651 127.278331,154.020626 127.556663,148.208436 C127.749071,144.187167 129.505717,140.384101 133.395748,138.714739 C138.87572,136.361323 144.501099,136.948733 150.284371,137.471966 C152.4721,137.670538 154.395452,138.517677 156.404725,139.20022 C157.697241,139.638891 158.611549,140.467909 159.22329,141.776369 C160.608338,144.745886 161.820806,147.659532 161.688617,151.128876 C161.554959,154.622381 161.64235,158.121172 161.345659,161.619207 C161.214939,163.166255 161.560834,164.75181 161.615178,166.323019 C161.756914,170.380529 161.861931,174.440303 161.966948,178.500078 C162.04259,181.415988 162.053605,184.346244 161.258268,187.173062 C160.603197,189.493256 159.804922,191.774945 158.944224,194.024922 C158.681315,194.711241 158.057089,195.297141 157.493082,195.809049 C156.565555,196.650148 155.532278,197.367422 154.579782,198.183606 C152.334036,200.105147 149.64252,200.140633 146.99066,199.891474 C143.468556,199.560773 139.964811,198.996014 136.464738,198.458435 C134.569293,198.16775 132.822194,197.423294 131.354161,196.114079 C130.958328,195.760727 130.523573,195.372644 130.303993,194.902263 C128.983571,192.082996 127.464865,189.370942 127.469271,186.040523 C127.476615,182.044925 127.169643,178.048573 127,174.054485 L127,174.054485 Z M90.9282908,198.672184 C93.2567769,198.712228 95.5875458,198.695606 97.9160319,198.684273 C100.18973,198.673695 100.488781,198.417564 100.513892,196.193985 C100.5527,192.670861 100.6014,189.143961 100.507804,185.623104 C100.437037,182.993795 102.122526,181.484209 103.99749,179.476716 C104.927362,181.075457 105.666999,182.313046 106.373154,183.569523 C107.559465,185.680526 108.519014,187.954727 109.957957,189.879865 C111.260692,191.625938 112.398302,193.397699 112.899764,195.474702 C113.392094,197.519217 114.735159,198.280054 116.620776,198.709206 C119.526818,199.371067 122.340025,198.750761 125.178343,198.351831 C127.153751,198.076056 127.406384,197.703571 126.492491,195.905365 C125.118989,193.203523 123.7082,190.512259 122.167291,187.902594 C121.06164,186.032611 119.592259,184.372671 118.505632,182.494377 C116.314877,178.702279 114.303704,174.808181 112.150996,170.993416 C111.448645,169.751294 111.407554,168.612683 112.055878,167.373583 C113.041299,165.489245 113.974976,163.577707 114.948984,161.68808 C118.319201,155.14654 121.705398,148.614067 125.061157,142.065727 C125.388363,141.425777 125.621973,140.715561 125.763508,140.010635 C126.158437,138.049986 125.407387,137.108572 123.394692,137.056439 C121.557775,137.00884 119.711727,137.128972 117.878615,137.02244 C115.814937,136.902308 114.435347,137.856565 113.59831,139.561839 C111.616814,143.588913 109.503674,147.574432 107.872973,151.740527 C106.379242,155.561336 104.104783,158.951483 102.439839,162.659715 C102.090566,163.440952 101.467354,164.102057 100.972741,164.817562 C100.820552,164.769962 100.667602,164.721607 100.515414,164.675519 C100.515414,163.972859 100.515414,163.270954 100.516936,162.57056 C100.523784,154.852631 100.53672,147.135458 100.542047,139.418284 C100.542808,137.044351 100.503239,137.007329 98.0446313,137.00204 C95.8386571,136.997507 93.631161,137 91.4236648,137.011107 C88.9528824,137.023951 88.4955556,137.462925 88.4681616,139.827036 C88.4255488,143.446114 88.3281481,147.066703 88.3639124,150.685781 C88.395872,153.960329 88.703293,157.234121 88.6675287,160.505646 C88.5845859,168.138954 88.368478,175.771506 88.207919,183.40708 C88.1318247,186.984603 88.0275755,190.564392 88,194.141915 C87.9933331,194.979062 88.181286,195.832077 88.3859797,196.651092 C88.8052594,198.334454 89.1849701,198.643473 90.9282908,198.672184 L90.9282908,198.672184 Z M178.030153,198.741339 C175.056379,198.88194 172.07882,198.989458 169.104288,199 C167.996219,199.004496 167.527711,198.030816 167.455808,197.112775 C167.240854,194.355645 167.104616,191.590244 167.030442,188.826347 C166.968378,186.494027 167.013791,184.157196 167.055419,181.823372 C167.08191,180.381274 167.249937,178.940679 167.251451,177.500084 C167.271129,166.876825 167.262804,156.25507 167.265074,145.631811 C167.266588,143.471671 167.310487,141.312283 167.263561,139.154398 C167.239341,137.964178 167.78505,137.192001 168.909014,137.181475 C171.87749,137.1514 174.852779,137.203279 177.8152,137.377714 C178.945976,137.44388 179.67485,138.313048 179.710423,139.489735 C179.783083,141.946866 179.784597,144.407757 179.80806,146.866392 C179.811088,147.106241 179.74751,147.347593 179.742212,147.58669 C179.609758,153.622 179.463681,159.656558 179.367557,165.69262 C179.335768,167.65201 179.571914,167.869302 181.601105,167.838475 C183.484218,167.809904 185.362033,167.621935 187.244389,167.573815 C187.96418,167.556522 188.687756,167.755017 189.412845,167.816671 C191.108252,167.959527 191.610819,167.555018 191.75614,165.85277 C191.828043,165.012924 191.799282,164.1618 191.786415,163.316692 C191.666828,155.850561 191.541186,148.383678 191.4216,140.916796 C191.41176,140.311535 191.402678,139.706275 191.432953,139.102518 C191.511668,137.495759 191.951414,136.964934 193.518909,137.001776 C196.376881,137.068693 199.234097,137.201775 202.082986,137.426586 C203.883599,137.569443 204.185594,138.054403 204.259768,139.88447 C204.408116,143.560392 204.585982,147.237067 204.754009,150.91299 C204.708597,150.914494 204.663184,150.915997 204.617014,150.919005 C204.617014,154.357335 204.587496,157.794913 204.624583,161.233243 C204.664698,164.900143 204.785041,168.566291 204.828184,172.233191 C204.83878,173.254991 204.613987,174.279799 204.642748,175.298591 C204.703299,177.469257 204.93339,179.633909 204.95988,181.803072 C205.017403,186.551922 204.995454,191.304531 204.997724,196.056389 C204.999238,198.415025 204.782771,198.427055 202.409201,198.766903 C199.717742,199.154119 197.079264,198.957879 194.413539,198.721038 C192.977741,198.593971 192.515289,198.298484 192.51983,196.853378 C192.528156,193.05114 192.703751,189.249654 192.715105,185.449671 C192.72343,183.042164 192.581894,180.634656 192.450954,178.230156 C192.400243,177.30986 191.631255,177.324145 190.944009,177.320386 C188.566655,177.3061 186.190057,177.28204 183.81346,177.285048 C182.850711,177.286551 181.867526,177.239935 180.930511,177.407604 C179.654414,177.637678 179.334254,178.203089 179.394805,179.454211 C179.521203,182.103822 179.669552,184.753434 179.717235,187.40455 C179.772487,190.485738 179.694529,193.569934 179.745996,196.651123 C179.767946,197.903749 179.288085,198.681941 178.030153,198.741339 L178.030153,198.741339 Z" id="Fill-1" fill="#000000"></path>
            </g>
        </g>
    </g>
</svg>