<?xml version="1.0" encoding="UTF-8"?>
<svg width="312px" height="144px" viewBox="0 0 312 144" version="1.1" xmlns="http://www.w3.org/2000/svg" xmlns:xlink="http://www.w3.org/1999/xlink">
    <!-- Generator: Sketch 57.1 (83088) - https://sketch.com -->
    <title>Group 3 Copy</title>
    <desc>Created with Sketch.</desc>
    <g id="New" stroke="none" stroke-width="1" fill="none" fill-rule="evenodd">
        <g id="Artboard" transform="translate(-1403.000000, -1248.000000)">
            <g id="Group-3-Copy" transform="translate(1403.000000, 1248.000000)">
                <g id="Group-2-Copy">
                    <g id="Familie-Sauerwein--Copy-4">
                        <g id="Group-4">
                            <rect id="Rectangle" fill="#FFFFFF" x="0.5" y="0" width="311" height="144"></rect>
                            <path d="M59.1707452,49.6714279 C55.4720271,50.6785711 52.4458035,53.028571 49.4195799,55.0428565 C48.7470854,55.3785709 48.0745919,56.7214285 46.729603,56.0499997 C46.729603,56.0499997 46.0571095,56.3857141 46.0571095,56.7214285 C46.0571095,58.0642852 45.0483674,58.3999996 44.0396261,58.735714 C43.3671326,59.0714284 42.3583914,59.4071428 42.0221437,60.0785708 C41.3496502,61.085714 40.6771557,61.7571428 40.0046613,62.764286 C39.6684145,63.0999995 39.3321678,63.0999995 38.9959201,63.4357139 C38.9959201,63.0999995 38.9959201,62.4285716 38.9959201,62.0928572 C40.340909,58.3999996 41.3496502,55.0428565 41.685897,51.3499999 C41.685897,50.6785711 41.3496502,49.6714279 40.6771557,49.3357135 C39.6684145,49 38.6596733,49 37.3146845,49 C36.3059432,49 35.297202,49.3357135 34.6247085,50.0071423 C33.952214,50.3428567 28.5722603,54.0357142 26.8910256,55.3785709 C26.5547779,55.7142853 19.8298362,61.7571428 19.8298362,61.7571428 C18.821095,62.764286 17.476107,64.1071427 16.4673658,65.1142859 C17.1398603,63.0999995 17.476107,61.085714 18.1486015,59.0714284 C18.4848482,58.0642852 19.1573427,55.0428565 19.8298362,54.7071421 C19.8298362,54.7071421 20.1660839,52.6928566 20.1660839,52.0214278 C20.5023307,50.0071423 20.1660839,49.6714279 18.821095,49.3357135 C18.4848482,49.3357135 17.476107,49.3357135 16.8036126,49.6714279 C16.131119,50.0071423 8.39743613,53.3642854 7.7249417,54.0357142 C6.04370605,55.0428565 4.3624704,56.3857141 3.01748242,57.3928564 C2.68123565,57.7285708 2.34498798,58.3999996 2.00874121,58.735714 C2.34498798,58.735714 2.34498798,59.0714284 2.68123565,59.0714284 C3.01748242,59.0714284 3.35372919,58.735714 3.68997686,58.735714 C5.03496484,58.0642852 6.37995371,57.3928564 7.7249417,56.3857141 C8.39743613,56.0499997 9.40617734,55.3785709 10.0786709,55.0428565 C10.4149186,54.7071421 11.0874121,54.7071421 11.4236598,54.7071421 C12.0961533,54.7071421 12.7686477,55.0428565 12.432401,56.0499997 C12.0961533,57.3928564 11.7599065,58.3999996 11.4236598,59.7428572 C10.7511653,61.4214284 4.69871807,83.5785716 4.3624704,84.5857148 C3.68997686,86.264286 3.35372919,87.9428571 2.68123565,89.6214291 C2.68123565,89.9571435 2.00874121,91.971429 1.67249444,92.9785713 C1.33624677,93.6500001 1.33624677,94.3214289 1,94.9928577 C1,95.3285721 1,95.6642865 1,96 C1.33624677,96 2.00874121,96 2.34498798,96 C2.34498798,96 5.03496484,94.3214289 6.37995371,93.9857145 C7.38869492,93.3142857 8.73368291,92.6428578 9.06992968,91.6357146 C9.40617734,90.9642858 9.40617734,89.9571435 9.74242412,89.2857147 C9.74242412,88.9500003 12.432401,79.8857141 13.4411422,77.1999998 C13.1048945,75.8571431 13.1048945,74.8499999 13.777389,74.1785711 C14.4498834,72.8357144 15.4586246,71.1571424 16.131119,69.8142857 C16.4673658,69.1428569 16.8036126,68.4714281 17.476107,68.1357146 C18.1486015,67.1285714 18.821095,66.4571426 19.8298362,65.4500003 C21.1748251,63.7714283 22.5198131,62.0928572 24.2010487,60.4142852 C25.2097899,59.4071428 26.5547779,58.0642852 27.8997668,57.0571429 C29.2447548,56.0499997 30.9259904,54.7071421 32.2709784,53.6999998 C32.9434728,53.3642854 33.952214,53.3642854 34.6247085,53.6999998 C35.297202,54.0357142 34.6247085,54.7071421 34.6247085,55.3785709 C34.2884608,56.3857141 33.952214,57.7285708 33.6159673,58.735714 C33.2797196,62.0928572 31.5984849,65.1142859 30.9259904,68.1357146 C30.253496,70.4857145 29.2447548,72.8357144 28.2360136,74.8499999 C27.8997668,75.1857143 27.8997668,75.8571431 27.8997668,76.1928575 C27.2272724,77.5357142 26.2185311,78.8785718 26.2185311,80.2214285 C26.2185311,81.5642861 25.5460367,81.5642861 24.5372955,81.5642861 C25.5460367,81.9000005 25.5460367,82.5714284 25.2097899,83.2428572 C24.8735432,83.914286 24.5372955,84.9214284 24.5372955,85.5928572 C24.2010487,87.2714292 22.8560607,88.2785715 23.1923075,89.9571435 C22.5198131,90.9642858 22.5198131,91.971429 22.1835663,92.9785713 C21.8473195,93.9857145 22.1835663,94.3214289 23.1923075,93.9857145 C23.5285543,93.9857145 23.5285543,93.6500001 23.8648019,93.6500001 C25.2097899,92.9785713 26.5547779,91.971429 28.2360136,91.3000002 C28.908508,90.9642858 29.2447548,90.6285714 29.5810024,89.9571435 C29.9172492,88.9500003 30.253496,87.9428571 30.5897436,87.2714292 C31.2622372,85.2571428 31.9347316,83.5785716 32.6072261,81.5642861 C33.6159673,78.5428574 34.6247085,75.5214287 35.9696965,72.5 C36.6421909,70.8214289 37.9871789,69.1428569 38.9959201,67.4642858 C39.3321678,66.792857 40.0046613,66.4571426 40.340909,65.7857138 C41.0134025,64.7785715 41.685897,63.7714283 42.6946382,62.764286 C45.384615,59.4071428 48.7470854,57.0571429 52.1095567,54.3714286 C52.4458035,54.0357142 52.7820503,53.6999998 53.4545447,53.6999998 C54.1270391,53.3642854 54.4632859,53.6999998 54.4632859,54.3714286 C54.4632859,55.3785709 54.7995336,56.7214285 54.4632859,57.7285708 C53.4545447,61.7571428 52.4458035,65.7857138 50.7645678,69.4785713 C50.0920743,71.1571424 49.4195799,73.1714288 48.7470854,74.8499999 C48.0745919,76.528571 47.7383442,78.5428574 47.0658507,80.2214285 C46.729603,81.2285717 46.0571095,82.235714 46.0571095,82.9071428 C46.3933562,83.914286 46.0571095,84.9214284 45.384615,85.5928572 C44.3758738,87.9428571 44.3758738,90.292857 44.0396261,92.6428578 C44.0396261,93.6500001 44.7121206,94.3214289 45.7208618,93.9857145 C46.3933562,93.9857145 46.729603,93.6500001 47.0658507,93.3142857 C49.7558266,91.971429 52.1095567,90.6285714 54.7995336,89.2857147 C55.8082748,88.6142859 56.4807683,87.9428571 57.4895095,87.2714292 C57.4895095,87.2714292 57.4895095,86.9357148 57.4895095,86.6000004 C57.4895095,86.6000004 57.1532628,86.264286 57.1532628,86.264286 C56.4807683,86.6000004 55.4720271,86.6000004 55.1357804,87.2714292 C54.7995336,88.2785715 53.7907915,88.2785715 53.1182979,88.9500003 C51.7733091,89.6214291 51.4370623,89.2857147 51.4370623,87.9428571 C51.4370623,87.6071427 51.4370623,87.2714292 51.4370623,87.2714292 C52.4458035,83.5785716 53.4545447,79.8857141 54.7995336,76.1928575 C55.1357804,75.1857143 54.7995336,73.5071432 56.4807683,72.8357144 C56.4807683,72.8357144 56.4807683,72.5 56.4807683,72.5 C56.4807683,72.1642856 56.1445216,72.1642856 56.1445216,71.8285712 C56.817016,70.1500001 57.4895095,68.4714281 58.162004,66.792857 C59.1707452,63.0999995 60.8519808,59.7428572 61.5244744,56.3857141 C61.860722,54.7071421 62.1969688,53.028571 61.860722,51.3499999 C61.860722,50.0071423 60.5157332,49 59.1707452,49.6714279 Z M202.579235,52.3333338 C201.224044,53 199.868853,53.6666666 198.513661,54.6666669 C195.464481,56.6666667 192.076503,59 189.027323,61 C188.349727,61.333333 187.672131,62 186.994536,62.6666668 C185.639344,64 184.284153,65.3333334 182.928961,66.6666663 C182.590164,67 182.251366,67 182.251366,67 C182.251366,66.6666663 182.251366,66.3333328 182.251366,66 C183.945355,62.3333334 184.622951,58.333333 185.300547,54.6666669 C185.639344,53 184.961749,51 182.590164,51.3333334 C181.912568,51.3333334 181.57377,51.3333334 180.896174,51 C180.896174,51 180.557377,51 180.557377,51.3333334 C181.234973,52 180.557377,52 180.218579,52 C177.169399,54 173.781421,56 170.73224,57.666667 C168.360655,59.3333333 165.989071,61 163.956284,63 C163.617486,63.3333337 163.278688,63.3333337 162.939891,63.6666662 C162.939891,63.3333337 162.939891,63 162.939891,62.6666668 C163.956284,59.6666667 164.63388,57 165.650273,54 C165.989071,53.3333332 165.989071,52.3333338 165.311475,52 C164.63388,51.6666669 163.956284,51.6666669 163.278688,52 C160.907104,53 158.874317,54.3333335 156.502732,55.6666664 C156.163934,55.6666664 156.163934,56 156.163934,56.3333332 C156.502732,56.3333332 156.502732,56.3333332 156.84153,56.3333332 C157.857923,55.6666664 157.857923,55.6666664 157.519125,57 C157.519125,57.3333336 157.519125,57.666667 157.180328,58 C156.84153,59.3333333 156.163934,60.3333336 157.180328,61.6666665 C157.180328,61.6666665 157.180328,62 157.180328,62.3333334 C156.84153,62.3333334 156.84153,62 156.84153,62 C156.502732,61.6666665 156.502732,61.6666665 156.163934,61.333333 C156.163934,61.6666665 155.825137,61.6666665 155.825137,62 C155.825137,62.3333334 155.486338,63 155.486338,63.3333337 C155.147541,65 154.469945,66.6666663 154.131147,68.3333335 C154.131147,68.6666669 154.131147,68.6666669 154.131147,69 C154.131147,69.3333329 154.131147,69.6666663 154.131147,69.6666663 C152.437158,71.3333335 152.775956,73.6666667 152.09836,75.333333 C151.420765,76.3333333 150.404371,77.6666662 151.420765,79 C151.420765,79 151.420765,79 151.420765,79.3333334 C151.081967,80 150.743169,80.6666663 150.404371,81.3333331 C150.065574,82 150.065574,82.3333335 150.404371,84 C150.404371,84 150.404371,84.3333332 150.065574,84.3333332 C149.387978,84.3333332 149.387978,84.6666666 149.387978,85 C149.387978,85.6666661 149.04918,86.6666664 148.710382,87.3333333 C147.693988,89 146.677595,90.6666659 146.338798,92.6666665 C146,93.3333325 146,94.3333328 146,95 C146,96 146.338798,96 147.016393,95.6666666 C148.371584,95 149.387978,94.3333328 150.743169,93.6666659 C151.420765,93.3333325 152.09836,93 152.775956,92.6666665 C153.114754,92.6666665 153.114754,92.3333331 153.453551,92 C154.469945,89.333333 155.147541,86.6666664 156.163934,84 C156.84153,81.6666666 157.519125,79 158.535518,76.6666668 C158.874317,75.333333 159.213114,74.3333327 159.89071,73 C160.568306,71 161.245901,69 162.262295,67.6666666 C163.956284,65.3333334 166.327868,63.3333337 168.360655,61.333333 C170.054644,59.6666667 171.748634,58.333333 173.442623,57 C174.120218,56.3333332 174.797814,56 175.47541,55.6666664 C176.153005,55 176.830601,55.3333329 177.508197,55.6666664 C178.185793,56.3333332 177.846994,56.6666667 177.508197,57 C177.169399,59 176.830601,60.6666662 176.491803,62.6666668 C176.153005,64.3333331 175.47541,66.3333328 175.136611,68 C174.797814,69 174.797814,70 174.459016,71 C173.781421,73.3333333 172.765027,76 171.748634,78.3333331 C171.409836,79.6666668 170.73224,81.3333331 170.393443,82.666666 C169.715847,84.3333332 169.038251,86 168.699453,87.6666667 C168.699453,88 168.699453,88 168.360655,88.3333327 C168.021858,90.3333333 167.68306,92.3333331 166.666667,94.3333328 C166.327868,94.6666662 166.327868,95 166.327868,95.3333331 C166.327868,95.6666666 166.327868,96 166.327868,96 C166.327868,96 167.005464,96 167.005464,96 C167.68306,95.6666666 168.021858,95.3333331 168.699453,95 C169.715847,94.6666662 170.393443,94 171.409836,93.6666659 C172.765027,93 174.120218,92 174.459016,90.3333333 C174.797814,89.333333 175.136611,88.3333327 175.47541,87.3333333 C176.491803,84.3333332 177.508197,81.3333331 178.52459,78.6666665 C179.202186,76.6666668 180.218579,74.3333327 181.234973,72.333333 C182.590164,70.3333332 184.284153,68.3333335 185.978142,66.3333328 C186.994536,65 188.010929,63.6666662 189.027323,62.6666668 C190.721311,61 192.754098,59.3333333 194.786886,58 C195.803279,57 197.15847,56.3333332 198.513661,55.6666664 C199.191257,55.3333329 199.530054,55.3333329 199.868853,55.6666664 C200.885246,56.3333332 200.20765,57 200.20765,57.666667 C200.20765,59.3333333 198.852459,60.6666662 199.530054,62.3333334 C198.513661,62 198.852459,63 198.852459,63.3333337 C198.513661,64 198.513661,64.6666665 198.174863,65.3333334 C197.836066,66 197.497267,66.6666663 197.836066,67.6666666 C197.836066,67.6666666 197.836066,68 197.497267,68.3333335 C197.15847,68.6666669 196.819672,68.6666669 196.819672,69 C196.480874,69.6666663 196.142077,70.6666667 195.803279,71.6666661 C195.464481,72.6666664 195.464481,73.3333333 196.480874,74 C195.803279,74 195.125683,73 194.786886,74.3333327 C194.448087,75.6666665 194.10929,76.6666668 193.770492,78 C193.431694,78.6666665 193.431694,79.3333334 193.092896,80 C192.754098,81.3333331 192.076503,82.3333335 191.398907,83.6666663 C191.060109,84.6666666 190.721311,86 190.382514,87 C189.36612,89.333333 189.027323,91.6666662 189.027323,94 C189.027323,95.3333331 190.382514,96.3333326 191.737704,95.6666666 C192.754098,95.3333331 193.431694,95 194.448087,94.6666662 C195.464481,94.3333328 196.142077,94 197.15847,93.3333325 C198.852459,92.3333331 200.546448,91.6666662 202.579235,90.6666659 C202.918033,90.6666659 202.918033,90.3333333 202.918033,90 C202.579235,90 202.579235,90 202.240437,90 C201.224044,90.3333333 200.20765,90.6666659 199.191257,91 C197.836066,91.3333327 196.819672,90.6666659 196.819672,89.333333 C196.819672,88.3333327 196.819672,87.3333333 197.15847,86.3333329 C198.513661,82.3333335 199.868853,78.6666665 201.224044,74.6666661 C201.90164,72.333333 202.918033,70.3333332 203.595629,68 C204.273224,65.6666669 204.95082,63.3333337 205.967213,61.333333 C206.983607,58.6666664 207.661202,56 208,53.3333332 C208,52.6666663 207.661202,52 207.322404,51.6666669 C206.306011,51.3333334 204.612022,51.6666669 202.579235,52.3333338 Z M303.558865,79.8038762 C303.897099,78.1295014 304.573565,76.4551258 305.250032,75.1156262 C305.926499,73.1063764 306.602966,70.7622514 306.9412,68.7530007 C307.279433,68.0832513 307.279433,67.0786259 307.617667,66.4088757 C308.294133,64.0647507 308.9706,62.0555009 309.308833,59.7113759 C309.647067,58.0370003 310.661767,56.3626256 309.647067,54.6882499 C309.647067,54.6882499 309.647067,54.6882499 309.647067,54.3533757 C309.647067,54.0185006 309.647067,53.3487503 309.647067,53.0138752 C308.9706,51.3395005 307.617667,50.6697502 305.588265,51.3395005 C304.235332,51.6743756 302.882399,52.344125 301.529465,53.3487503 C298.485365,55.3580002 295.103031,57.7021252 292.058931,59.7113759 C290.367764,61.0508755 289.014829,62.390376 287.323663,63.7298756 C287.661896,62.390376 288.000129,61.3857506 288.338363,60.0462501 C289.014829,57.7021252 290.02953,55.3580002 289.691296,52.6790001 C289.691296,51.6743756 289.014829,50.6697502 288.000129,50.6697502 C286.308963,50.3348751 284.956029,50.6697502 283.603096,51.3395005 C282.250162,52.0092498 280.897228,53.0138752 279.544295,54.0185006 C276.500195,56.0277504 273.456094,58.3718754 270.750227,60.7160004 C269.397293,61.7206257 268.382593,62.7252511 267.02966,64.0647507 C267.02966,64.0647507 267.02966,64.0647507 267.02966,63.7298756 C268.04436,60.3811253 269.05906,57.36725 270.07376,54.0185006 C270.411993,53.3487503 270.411993,52.344125 270.411993,51.3395005 C270.411993,50.6697502 270.07376,50 269.05906,50 C267.367893,50 266.01496,50.6697502 265.00026,51.3395005 C263.309092,52.344125 261.279692,53.6836255 259.588525,54.6882499 C258.235592,55.3580002 257.220892,56.3626256 256.206191,57.0323758 C256.206191,57.0323758 256.206191,57.36725 255.867958,57.36725 C255.867958,57.36725 256.206191,57.36725 256.206191,57.36725 C257.559125,56.6975007 258.573825,56.0277504 259.926759,55.3580002 C260.603225,55.0231251 261.279692,54.6882499 262.294392,54.3533757 C262.294392,54.3533757 262.970859,54.3533757 262.970859,54.6882499 C262.970859,55.6928753 262.970859,56.6975007 262.632625,57.7021252 C262.294392,58.7067505 261.617925,60.0462501 261.279692,61.0508755 C261.279692,61.3857506 261.617925,61.7206257 261.617925,62.0555009 C261.617925,62.0555009 261.956159,62.390376 261.956159,62.390376 C261.956159,62.390376 261.617925,62.390376 261.617925,62.390376 C261.279692,62.390376 260.603225,61.7206257 261.279692,62.7252511 C261.279692,62.7252511 261.279692,63.0601253 261.279692,63.3950005 C261.279692,64.3996258 259.588525,65.0693761 260.603225,66.4088757 C260.603225,66.4088757 260.264992,66.7437508 260.264992,66.7437508 C260.264992,66.7437508 260.264992,67.0786259 259.926759,67.0786259 C260.603225,67.4135011 259.926759,67.4135011 259.926759,67.7483762 C259.588525,68.0832513 259.250292,68.7530007 258.912059,69.0878758 C258.573825,70.4273763 258.573825,71.4320007 257.897359,72.4366261 C257.897359,72.7715012 257.897359,73.1063764 257.897359,73.4412515 C257.897359,73.7761257 258.235592,73.7761257 258.573825,73.7761257 C258.235592,73.7761257 257.897359,74.1110008 257.559125,74.1110008 C256.544425,74.445876 256.544425,75.1156262 256.206191,75.7853765 C256.206191,75.7853765 256.544425,76.1202516 256.882658,76.1202516 C256.544425,76.1202516 256.206191,76.4551258 256.206191,76.4551258 C256.206191,76.4551258 256.206191,76.4551258 256.206191,76.7900009 C255.529724,78.4643766 254.853257,80.4736264 254.515024,82.1480011 C254.176791,83.8223767 253.500324,84.8270012 253.162091,86.5013768 C252.485624,88.8455018 251.809157,91.1896268 251.132691,93.1988766 C250.794457,93.8686269 251.132691,94.203502 251.809157,93.8686269 C253.838557,92.8640015 255.867958,91.859377 258.235592,90.8547516 C258.573825,90.8547516 258.912059,90.1850014 258.912059,89.8501272 C260.603225,84.492127 262.632625,79.1341268 264.323792,73.4412515 C264.662026,72.7715012 265.00026,71.7668759 265.338493,71.0971256 C266.353193,69.0878758 267.706127,66.7437508 269.397293,65.0693761 C271.08846,63.3950005 272.441393,61.3857506 274.132561,59.7113759 C275.823728,58.0370003 277.514895,56.6975007 279.206061,55.0231251 C280.220761,54.3533757 281.235462,54.0185006 282.250162,53.6836255 C282.926629,53.6836255 283.264863,54.0185006 283.264863,54.6882499 C283.603096,56.6975007 282.926629,58.3718754 282.250162,60.3811253 C281.911929,62.0555009 280.897228,63.7298756 280.558995,65.7391254 C280.558995,65.7391254 280.558995,66.0740006 280.897228,66.4088757 C281.235462,66.4088757 281.235462,66.4088757 281.573695,66.4088757 C281.235462,66.4088757 281.235462,66.4088757 280.897228,66.4088757 C280.558995,66.7437508 280.558995,66.7437508 280.220761,67.0786259 C279.882528,68.0832513 279.544295,69.0878758 279.206061,70.4273763 C278.529595,72.7715012 277.514895,75.4505013 276.838428,77.7946263 C276.161961,80.1387513 275.147261,82.1480011 274.809028,84.492127 C274.470795,86.1665017 273.117861,87.8408764 273.456094,89.515252 C273.456094,89.8501272 273.117861,90.1850014 273.117861,90.8547516 C272.779627,91.5245019 272.779627,91.859377 272.779627,92.5291273 C272.779627,93.1988766 272.779627,93.1988766 273.456094,92.8640015 C275.485495,91.859377 277.514895,90.8547516 279.544295,89.8501272 C279.882528,89.515252 280.220761,89.1803769 280.558995,88.8455018 C281.235462,86.836252 281.573695,84.8270012 282.250162,82.8177514 C283.264863,79.1341268 284.279563,75.4505013 285.632496,72.101751 C286.647196,69.757626 288.000129,67.4135011 289.691296,65.0693761 C291.382464,62.7252511 293.411864,60.7160004 295.441264,58.3718754 C296.117731,57.7021252 296.455964,57.0323758 297.132431,56.6975007 C298.147131,56.0277504 299.161832,55.3580002 300.176532,54.6882499 C300.852999,54.3533757 301.529465,54.0185006 302.205932,54.0185006 C302.882399,54.0185006 304.235332,55.0231251 304.235332,55.6928753 C303.897099,57.0323758 303.897099,58.3718754 303.558865,59.7113759 C303.558865,60.0462501 303.558865,60.3811253 303.558865,60.7160004 C303.220632,61.7206257 302.882399,62.7252511 303.220632,64.0647507 C303.220632,64.3996258 303.220632,64.734501 302.882399,64.3996258 C302.882399,64.3996258 302.544165,64.734501 302.544165,65.0693761 C302.205932,66.7437508 301.867699,68.0832513 301.529465,69.757626 C301.191232,71.0971256 301.529465,72.7715012 300.176532,73.7761257 C300.514765,74.7807511 299.838299,75.4505013 299.838299,76.4551258 C299.500065,77.7946263 298.823599,78.7992517 298.485365,80.1387513 C298.147131,81.4782518 297.470664,82.8177514 297.808897,84.1572519 C297.808897,84.1572519 297.808897,84.492127 297.470664,84.492127 C297.132431,84.8270012 296.794197,85.1618763 296.455964,85.4967515 C296.117731,87.1711271 295.779497,88.5106267 295.779497,90.1850014 C295.779497,90.8547516 295.779497,91.1896268 296.117731,91.859377 C296.117731,92.5291273 296.794197,92.5291273 296.794197,93.1988766 C296.794197,93.5337517 297.470664,93.8686269 298.147131,93.5337517 C299.161832,92.8640015 300.514765,92.1942521 301.529465,91.859377 C304.573565,90.8547516 307.279433,89.1803769 309.9853,87.1711271 C310.323533,86.836252 310.661767,86.5013768 311,86.1665017 C310.661767,86.1665017 309.9853,86.1665017 309.647067,86.5013768 C308.294133,87.1711271 306.9412,87.8408764 305.588265,88.5106267 C304.235332,89.1803769 303.558865,88.5106267 303.220632,87.1711271 C303.220632,86.5013768 303.220632,85.4967515 303.220632,84.8270012 C302.205932,84.1572519 302.882399,82.1480011 303.558865,79.8038762 Z M240.375333,84.4301354 C241.050314,82.4243266 242.062785,80.4185188 242.737765,78.4127109 C244.087726,74.4010943 245.775178,70.3894785 247.125139,66.0435604 C248.13761,63.034849 249.150081,59.6918353 250.162553,56.6831231 C250.500043,55.3459172 250.162553,53.6744108 251.850004,52.6715064 C252.187495,52.6715064 251.850004,51.6686029 251.850004,51.3343015 C251.850004,51 251.175024,51 251.175024,51 C250.500043,51 250.162553,51.3343015 249.487572,51.6686029 C246.787649,53.0058079 245.775178,53.0058079 243.412746,55.6802187 C242.400275,57.0174245 241.725295,58.6889309 241.387805,60.0261368 C240.375333,62.3662461 239.700353,64.7063554 239.025372,67.0464648 C238.350391,68.7179712 237.675411,70.055177 237.00043,71.392382 C235.987959,73.0638893 234.975488,74.7353957 233.963017,76.406903 C233.625527,76.7412036 233.625527,77.4098065 233.288036,78.0784094 C231.938075,79.7499159 230.588113,81.0871217 229.238152,82.7586281 C228.225681,83.7615325 226.87572,85.0987374 225.863249,86.1016418 C224.513288,87.7731482 222.825836,88.4417512 220.800894,88.7760526 C220.125914,88.7760526 218.775952,88.1074497 218.775952,87.4388477 C218.775952,86.4359433 218.438462,85.0987374 218.775952,84.095834 C219.450933,81.4214232 220.463404,79.0813138 221.138385,76.406903 C222.150856,73.0638893 223.500817,69.3865741 224.513288,66.0435604 C225.863249,62.3662461 226.87572,59.0232324 227.888191,55.3459172 C228.225681,54.6773152 228.225681,54.0087123 228.225681,53.3401093 C228.225681,52.337205 227.888191,51.6686029 226.87572,51.6686029 C225.863249,51.6686029 224.850778,52.0029044 224.175797,52.337205 C223.163327,52.6715064 222.150856,53.3401093 221.475875,54.0087123 C219.113443,55.6802187 216.41352,56.6831231 214.388578,58.6889309 C214.051087,59.0232324 214.051087,59.3575339 214.051087,59.3575339 C214.388578,59.3575339 214.726068,59.3575339 215.063558,59.0232324 C215.401049,59.0232324 215.401049,58.6889309 215.738539,58.6889309 C217.088501,57.6860265 218.438462,57.0174245 219.788423,56.0145201 C220.125914,55.6802187 220.463404,56.0145201 220.800894,56.0145201 C220.800894,56.3488216 221.138385,57.0174245 220.800894,57.351726 C220.800894,58.020328 220.463404,58.6889309 220.125914,59.3575339 C219.113443,62.7005476 218.100972,65.7092598 217.088501,69.0522727 C216.076029,72.3952864 215.063558,76.0726016 213.713597,79.4156153 C213.038616,82.0900261 212.026145,84.4301354 211.351165,87.1045462 C210.676184,88.7760526 211.013674,90.7818605 212.026145,92.1190663 C212.701126,93.1219698 213.376107,94.1248742 215.063558,93.7905728 C216.076029,93.4562713 217.425991,93.4562713 218.100972,92.7876693 C220.800894,91.116162 223.500817,89.4446555 225.863249,87.7731482 C228.900662,85.4330389 232.275565,83.427231 234.975488,80.4185188 C234.975488,80.4185188 235.312978,80.4185188 235.312978,80.0842173 C235.312978,80.0842173 235.312978,80.4185188 235.312978,80.4185188 C233.963017,82.0900261 233.963017,84.4301354 233.288036,86.4359433 C232.613055,87.7731482 232.613055,89.4446555 232.275565,91.116162 C232.275565,91.4504634 232.275565,91.4504634 232.275565,91.7847649 C232.275565,93.4562713 233.288036,94.4591757 234.975488,93.7905728 C235.650469,93.4562713 235.987959,93.1219698 236.66294,92.7876693 C238.012901,92.1190663 239.025372,91.116162 240.712824,90.447559 C242.400275,89.4446555 243.750236,87.7731482 245.775178,87.7731482 C245.775178,87.7731482 245.775178,87.7731482 245.775178,87.4388477 C246.787649,86.4359433 247.80012,85.4330389 248.812591,84.7644369 C248.812591,84.7644369 249.150081,84.4301354 249.487572,84.4301354 C249.150081,84.4301354 248.812591,84.095834 248.475101,84.095834 C248.13761,84.095834 248.13761,84.4301354 247.80012,84.4301354 C246.787649,85.4330389 245.437688,86.1016418 244.425217,87.1045462 C243.412746,87.7731482 242.400275,88.4417512 241.387805,88.7760526 C240.375333,89.1103541 239.362862,88.4417512 239.700353,87.4388477 C239.700353,86.7702448 240.037843,85.4330389 240.375333,84.4301354 Z M124.972589,50.4457293 C124.636808,50.4457293 124.301028,50.4457293 124.301028,50.4457293 C123.965247,49.7771347 123.629466,50.111432 123.293686,50.111432 C122.622124,50.4457293 121.950563,50.4457293 121.614782,50.4457293 C121.279001,50.4457293 121.279001,49.4428383 120.943221,50.4457293 C119.935879,50.111432 119.600098,51.4486213 118.592756,51.7829186 C117.921194,51.7829186 117.585413,52.4515123 116.913852,52.7858096 C115.234949,53.7887015 113.556045,55.1258898 111.541361,56.1287817 C108.183553,58.1345646 105.497308,60.8089422 102.811062,63.4833197 C101.80372,64.4862116 100.460597,65.4891035 99.4532548,66.8262919 C100.124817,65.1548062 100.460597,63.4833197 100.796378,61.8118341 C101.132159,60.1403485 101.80372,58.468862 102.139501,56.7973763 C102.475281,55.4601871 102.811062,54.1229988 102.475281,52.7858096 C102.475281,51.1143239 101.80372,50.7800266 100.124817,51.4486213 C99.1174744,51.7829186 98.1101323,52.4515123 97.1027902,53.1201069 C95.4238864,54.1229988 94.0807639,55.1258898 92.4018602,56.463079 C91.7302985,56.7973763 91.3945181,57.4659709 90.7229564,58.468862 C92.0660798,57.8002673 93.0734218,57.4659709 94.0807639,56.7973763 C94.7523247,56.463079 94.7523247,56.7973763 94.4165443,57.1316736 C94.4165443,58.1345646 94.0807639,59.1374566 94.0807639,60.1403485 C92.7376406,64.8205089 91.3945181,69.5006694 90.0513956,73.8465335 C89.0440535,77.1895047 88.0367114,80.5324769 87.0293693,83.875449 C86.693588,85.2126373 86.0220263,86.5498265 85.6862459,87.8870149 C85.3504655,88.8899068 85.3504655,89.8927987 85.0146842,90.8956897 C84.6789038,92.2328789 84.0073421,93.5700672 83.3357813,94.9072564 C83.3357813,95.2415537 83.3357813,95.5758511 83,95.9101484 C83.3357813,95.9101484 83.6715617,95.9101484 84.0073421,95.9101484 C86.0220263,94.9072564 88.3724918,93.5700672 90.387176,92.5671762 C90.7229564,92.5671762 90.7229564,92.2328789 91.0587377,91.8985816 C91.3945181,90.5613924 92.0660798,89.2242041 92.4018602,87.8870149 C93.4092022,84.2097463 94.7523247,80.5324769 95.7596677,76.8552074 C96.0954481,75.5180191 97.1027902,73.8465335 97.7743519,72.5093442 C98.4459127,71.5064523 99.1174744,70.5035613 100.124817,69.5006694 C101.467939,68.1634811 102.475281,66.4919946 103.818404,65.1548062 C105.497308,63.1490233 107.511992,61.4775368 109.526677,59.8060512 C111.20558,58.1345646 113.220265,56.463079 115.570729,55.4601871 C116.913852,54.7915934 117.585413,55.4601871 117.585413,56.7973763 C117.585413,57.4659709 117.585413,58.1345646 117.249633,58.8031593 C117.249633,60.4746449 116.242291,62.1461314 116.578071,64.1519143 C116.578071,64.1519143 116.578071,64.4862116 116.242291,64.4862116 C115.90651,65.4891035 115.570729,66.1576973 115.234949,67.1605892 C114.899168,68.4977784 114.563387,69.5006694 113.891825,70.8378586 C113.220265,72.5093442 112.548703,74.1808299 112.212923,75.8523164 C111.541361,77.1895047 111.877141,78.8609912 110.869799,80.5324769 C109.526677,82.8725571 109.190895,85.5469346 108.183553,87.8870149 C107.847773,89.2242041 107.511992,90.8956897 107.176211,92.2328789 C106.840431,93.2357699 106.840431,94.2386618 106.50465,95.5758511 C106.50465,96.5787421 107.511992,97.2473367 108.519335,96.9130394 C109.862457,96.2444448 111.541361,96.2444448 112.548703,94.9072564 C112.548703,94.9072564 112.884483,94.9072564 112.884483,94.5729591 C115.234949,93.2357699 117.921194,92.5671762 119.600098,90.5613924 C119.935879,90.227096 119.935879,90.227096 120.271659,89.8927987 C119.935879,89.8927987 119.600098,89.8927987 119.264317,89.8927987 C118.928536,89.8927987 118.592756,90.227096 118.256975,90.5613924 C117.585413,90.8956897 116.913852,91.5642843 116.242291,91.8985816 C115.570729,92.2328789 114.899168,92.9014735 114.227607,92.2328789 C113.891825,91.8985816 113.891825,90.8956897 113.891825,90.227096 C113.891825,90.227096 113.891825,90.227096 113.891825,89.8927987 C114.563387,87.8870149 115.234949,85.8812319 115.90651,83.5411517 C116.913852,80.5324769 117.921194,77.1895047 118.928536,74.1808299 C119.935879,71.1721559 120.943221,68.4977784 121.950563,65.4891035 C122.957905,62.4804287 123.293686,59.4717539 123.965247,56.463079 C124.301028,55.1258898 123.965247,53.7887015 123.629466,52.4515123 C125.30837,50.4457293 124.972589,50.4457293 124.972589,50.4457293 Z M82.4052774,50 C81.0401571,50.6645814 79.333758,50.9968722 77.9686377,51.6614536 C75.9209581,52.6583249 74.2145581,53.9874877 72.1668786,55.3166497 C71.8255989,55.6489404 71.4843193,55.9812312 71.1430388,56.6458126 C71.8255989,56.6458126 72.5081591,56.6458126 73.1907184,56.3135219 C73.5319989,56.3135219 73.8732785,55.9812312 73.8732785,55.6489404 C74.2145581,55.3166497 74.5558387,54.984359 74.8971183,54.984359 C75.2383979,54.984359 75.5796785,54.984359 75.5796785,54.984359 C75.5796785,54.984359 75.5796785,55.3166497 75.5796785,55.6489404 C75.2383979,57.6426839 74.5558387,59.3041375 74.2145581,61.2978809 C73.8732785,62.294753 73.8732785,63.2916243 73.5319989,64.2884965 C72.5081591,65.9499492 72.1668786,68.2759842 71.4843193,69.9374369 C70.4604786,72.9280525 69.4366388,75.9186681 68.412799,78.9092837 C67.7302398,81.2353178 67.0476796,83.2290612 66.3651194,85.5550954 C65.6825602,87.5488388 65.3412796,89.8748738 65,91.8686173 C65,92.5331987 65.3412796,93.1977792 65.6825602,93.53007 C65.6825602,93.8623607 66.0238398,94.1946514 66.3651194,93.8623607 C67.3889592,93.53007 68.7540795,93.53007 69.7779193,93.1977792 C71.4843193,92.5331987 72.8494387,91.5363265 74.5558387,90.8717451 C75.5796785,90.2071637 76.9447979,89.5425831 77.9686377,88.8780017 C77.9686377,88.8780017 77.9686377,88.545711 78.3099173,88.2134202 C77.9686377,88.2134202 77.9686377,88.2134202 77.6273581,88.2134202 C76.6035183,88.545711 75.5796785,88.8780017 74.5558387,89.2102924 C73.8732785,89.5425831 73.5319989,89.2102924 73.5319989,88.545711 C73.5319989,87.8811295 73.5319989,86.8842582 73.8732785,86.2196768 C74.8971183,83.2290612 75.5796785,80.2384456 76.6035183,76.9155393 C77.2860775,74.2572145 78.3099173,71.5988896 78.9924775,68.9405648 C80.3575978,64.6207872 81.7227172,59.9687189 83.0878367,55.6489404 C83.4291172,53.9874877 84.452957,52.6583249 83.7703968,50.6645814 C83.4291172,50 83.0878367,50 82.4052774,50 Z M144.298546,51.0431818 C143.2855,51.3786806 141.934773,51.3786806 141.259409,52.0496781 C138.557955,53.7271709 135.856501,55.4046638 133.492727,57.0821575 C133.492727,57.0821575 133.492727,57.4176563 133.155046,57.4176563 C133.492727,57.4176563 133.492727,57.4176563 133.83041,57.4176563 C134.843455,56.7466588 135.856501,56.41116 137.207228,55.7401625 C138.220273,55.4046638 138.895637,55.7401625 138.895637,56.7466588 C138.895637,57.4176563 138.895637,58.0886529 138.557955,58.7596504 C138.220273,60.4371441 137.882591,62.114637 137.207228,63.7921298 C136.531865,65.4696236 136.531865,67.1471164 135.856501,68.4891114 C135.181137,69.8311055 134.843455,71.5085993 134.505773,72.8505934 C134.168091,74.1925884 133.492727,75.5345825 133.155046,76.8765775 C132.817364,77.5475741 132.817364,78.2185716 132.479682,78.8895691 C132.142001,79.5605666 132.479682,79.8960654 133.155046,79.8960654 C133.492727,79.8960654 133.492727,80.2315632 133.83041,80.2315632 C133.492727,80.2315632 133.492727,80.2315632 133.155046,80.2315632 C132.479682,79.8960654 131.804319,80.2315632 131.804319,80.9025607 C131.804319,82.5800545 130.11591,83.5865498 130.453591,85.2640436 C129.440546,86.2705389 129.440546,87.2770352 129.102864,88.6190293 C128.4275,90.6320218 127.752137,92.6450134 128.089819,94.9935038 C128.089819,95.6645013 128.089819,96 129.102864,96 C129.778228,95.6645013 130.791274,95.6645013 131.466637,94.9935038 C133.83041,93.9870075 135.856501,92.9805121 138.220273,91.6385171 C139.233318,91.3030184 140.246364,90.6320218 140.921728,89.9610243 C141.259409,89.9610243 141.259409,89.6255255 141.259409,89.2900268 C140.921728,89.2900268 140.584046,89.2900268 140.584046,89.2900268 C139.571001,89.6255255 138.557955,90.296523 137.207228,90.6320218 C135.518818,90.9675196 135.181137,90.6320218 135.518818,88.954528 C135.856501,87.6125339 136.194182,86.2705389 136.531865,85.2640436 C138.220273,80.567062 139.908682,75.8700813 141.597092,71.1731005 C141.934773,70.502103 142.272455,69.8311055 142.610137,68.8246102 C143.623182,66.1406211 144.298546,63.456632 145.311592,60.772642 C145.986955,58.4241516 146.324637,56.41116 147,54.0626697 C147,52.3851768 145.311592,50.7076831 144.298546,51.0431818 Z M143.111111,43 C143.111111,43 143.44033,43 143.44033,43 C144.427984,42.3333331 145.744856,41.6666662 146.73251,41 C147.061729,40.6666667 147.390947,40.6666667 147.720164,40.6666667 C148.378601,40.3333333 149.695473,39.6666664 149.695473,39.3333329 C149.695473,38 150.683127,37.3333331 150.683127,36 C150.683127,35.3333333 151.012346,34.6666664 151.670781,34 C152,34 152,33.3333326 152,33.3333326 C152,33 151.670781,33 151.341564,33 C150.683127,33 149.695473,33.3333326 149.037037,33.666666 C148.049383,34 147.390947,34.6666664 146.73251,35 C144.757202,36 142.781893,37 142.452675,39.3333329 C142.452675,39.6666664 142.123457,40 142.123457,40.3333333 C142.123457,40.3333333 142.123457,40.6666667 142.123457,40.6666667 C143.111111,41 142.452675,41.3333327 142.123457,41.6666662 C141.794239,42.3333331 142.123457,42.6666665 143.111111,43 Z M81.500819,39.9358235 C81.8549512,39.9358235 82.2090844,39.9358235 82.5632166,39.9358235 C84.3338797,40.2589197 85.7504095,39.2896309 87.1669403,38.6434384 C87.8752048,38.3203422 88.5834701,37.3510543 88.9376024,36.7048618 C89.6458678,35.4124776 89.6458678,34.1200926 90,32.8277084 C90,32.1815159 90,31.8584197 89.2917355,31.2122271 C88.5834701,30.8891309 88.2293379,30.8891309 87.5210725,31.5353234 C87.8752048,31.8584197 87.5210725,31.8584197 87.1669403,32.1815159 C85.7504095,32.8277084 84.3338797,33.7969963 82.9173489,34.4431888 C82.5632166,34.7662851 82.2090844,35.0893813 82.2090844,35.4124776 C81.8549512,36.7048618 81.500819,37.9972468 81.1466868,39.2896309 C80.7925536,39.2896309 81.1466868,39.9358235 81.500819,39.9358235 Z" id="path-1" fill="#000000" fill-rule="nonzero"></path>
                        </g>
                    </g>
                </g>
            </g>
        </g>
    </g>
</svg>