<?xml version="1.0" encoding="UTF-8"?>
<svg width="367px" height="367px" viewBox="0 0 367 367" version="1.1" xmlns="http://www.w3.org/2000/svg" xmlns:xlink="http://www.w3.org/1999/xlink">
    <!-- Generator: Sketch 57.1 (83088) - https://sketch.com -->
    <title>Group 3 Copy</title>
    <desc>Created with Sketch.</desc>
    <g id="New" stroke="none" stroke-width="1" fill="none" fill-rule="evenodd">
        <g id="Artboard" transform="translate(-1560.000000, -794.000000)">
            <g id="Group-3-Copy" transform="translate(1560.000000, 794.000000)">
                <g id="Group-2-Copy">
                    <g id="Familie-Sauerwein--Copy-4">
                        <g id="Group-4">
                            <rect id="Rectangle" fill="#FFFFFF" x="0" y="0" width="367" height="367"></rect>
                            <path d="M86.1707452,169.671428 C82.4720271,170.678571 79.4458035,173.028571 76.4195799,175.042857 C75.7470854,175.378571 75.0745919,176.721429 73.729603,176.05 C73.729603,176.05 73.0571095,176.385714 73.0571095,176.721429 C73.0571095,178.064285 72.0483674,178.4 71.0396261,178.735714 C70.3671326,179.071428 69.3583914,179.407143 69.0221437,180.078571 C68.3496502,181.085714 67.6771557,181.757143 67.0046613,182.764286 C66.6684145,183.099999 66.3321678,183.099999 65.9959201,183.435714 C65.9959201,183.099999 65.9959201,182.428572 65.9959201,182.092857 C67.340909,178.4 68.3496502,175.042857 68.685897,171.35 C68.685897,170.678571 68.3496502,169.671428 67.6771557,169.335714 C66.6684145,169 65.6596733,169 64.3146845,169 C63.3059432,169 62.297202,169.335714 61.6247085,170.007142 C60.952214,170.342857 55.5722603,174.035714 53.8910256,175.378571 C53.5547779,175.714285 46.8298362,181.757143 46.8298362,181.757143 C45.821095,182.764286 44.476107,184.107143 43.4673658,185.114286 C44.1398603,183.099999 44.476107,181.085714 45.1486015,179.071428 C45.4848482,178.064285 46.1573427,175.042857 46.8298362,174.707142 C46.8298362,174.707142 47.1660839,172.692857 47.1660839,172.021428 C47.5023307,170.007142 47.1660839,169.671428 45.821095,169.335714 C45.4848482,169.335714 44.476107,169.335714 43.8036126,169.671428 C43.131119,170.007142 35.3974361,173.364285 34.7249417,174.035714 C33.0437061,175.042857 31.3624704,176.385714 30.0174824,177.392856 C29.6812356,177.728571 29.344988,178.4 29.0087412,178.735714 C29.344988,178.735714 29.344988,179.071428 29.6812356,179.071428 C30.0174824,179.071428 30.3537292,178.735714 30.6899769,178.735714 C32.0349648,178.064285 33.3799537,177.392856 34.7249417,176.385714 C35.3974361,176.05 36.4061773,175.378571 37.0786709,175.042857 C37.4149186,174.707142 38.0874121,174.707142 38.4236598,174.707142 C39.0961533,174.707142 39.7686477,175.042857 39.432401,176.05 C39.0961533,177.392856 38.7599065,178.4 38.4236598,179.742857 C37.7511653,181.421428 31.6987181,203.578572 31.3624704,204.585715 C30.6899769,206.264286 30.3537292,207.942857 29.6812356,209.621429 C29.6812356,209.957143 29.0087412,211.971429 28.6724944,212.978571 C28.3362468,213.65 28.3362468,214.321429 28,214.992858 C28,215.328572 28,215.664286 28,216 C28.3362468,216 29.0087412,216 29.344988,216 C29.344988,216 32.0349648,214.321429 33.3799537,213.985714 C34.3886949,213.314286 35.7336829,212.642858 36.0699297,211.635715 C36.4061773,210.964286 36.4061773,209.957143 36.7424241,209.285715 C36.7424241,208.95 39.432401,199.885714 40.4411422,197.2 C40.1048945,195.857143 40.1048945,194.85 40.777389,194.178571 C41.4498834,192.835714 42.4586246,191.157142 43.131119,189.814286 C43.4673658,189.142857 43.8036126,188.471428 44.476107,188.135715 C45.1486015,187.128571 45.821095,186.457143 46.8298362,185.45 C48.1748251,183.771428 49.5198131,182.092857 51.2010487,180.414285 C52.2097899,179.407143 53.5547779,178.064285 54.8997668,177.057143 C56.2447548,176.05 57.9259904,174.707142 59.2709784,173.7 C59.9434728,173.364285 60.952214,173.364285 61.6247085,173.7 C62.297202,174.035714 61.6247085,174.707142 61.6247085,175.378571 C61.2884608,176.385714 60.952214,177.728571 60.6159673,178.735714 C60.2797196,182.092857 58.5984849,185.114286 57.9259904,188.135715 C57.253496,190.485714 56.2447548,192.835714 55.2360136,194.85 C54.8997668,195.185714 54.8997668,195.857143 54.8997668,196.192858 C54.2272724,197.535714 53.2185311,198.878572 53.2185311,200.221429 C53.2185311,201.564286 52.5460367,201.564286 51.5372955,201.564286 C52.5460367,201.900001 52.5460367,202.571428 52.2097899,203.242857 C51.8735432,203.914286 51.5372955,204.921428 51.5372955,205.592857 C51.2010487,207.271429 49.8560607,208.278571 50.1923075,209.957143 C49.5198131,210.964286 49.5198131,211.971429 49.1835663,212.978571 C48.8473195,213.985714 49.1835663,214.321429 50.1923075,213.985714 C50.5285543,213.985714 50.5285543,213.65 50.8648019,213.65 C52.2097899,212.978571 53.5547779,211.971429 55.2360136,211.3 C55.908508,210.964286 56.2447548,210.628571 56.5810024,209.957143 C56.9172492,208.95 57.253496,207.942857 57.5897436,207.271429 C58.2622372,205.257143 58.9347316,203.578572 59.6072261,201.564286 C60.6159673,198.542857 61.6247085,195.521429 62.9696965,192.5 C63.6421909,190.821429 64.9871789,189.142857 65.9959201,187.464286 C66.3321678,186.792857 67.0046613,186.457143 67.340909,185.785714 C68.0134025,184.778571 68.685897,183.771428 69.6946382,182.764286 C72.384615,179.407143 75.7470854,177.057143 79.1095567,174.371429 C79.4458035,174.035714 79.7820503,173.7 80.4545447,173.7 C81.1270391,173.364285 81.4632859,173.7 81.4632859,174.371429 C81.4632859,175.378571 81.7995336,176.721429 81.4632859,177.728571 C80.4545447,181.757143 79.4458035,185.785714 77.7645678,189.478571 C77.0920743,191.157142 76.4195799,193.171429 75.7470854,194.85 C75.0745919,196.528571 74.7383442,198.542857 74.0658507,200.221429 C73.729603,201.228572 73.0571095,202.235714 73.0571095,202.907143 C73.3933562,203.914286 73.0571095,204.921428 72.384615,205.592857 C71.3758738,207.942857 71.3758738,210.292857 71.0396261,212.642858 C71.0396261,213.65 71.7121206,214.321429 72.7208618,213.985714 C73.3933562,213.985714 73.729603,213.65 74.0658507,213.314286 C76.7558266,211.971429 79.1095567,210.628571 81.7995336,209.285715 C82.8082748,208.614286 83.4807683,207.942857 84.4895095,207.271429 C84.4895095,207.271429 84.4895095,206.935715 84.4895095,206.6 C84.4895095,206.6 84.1532628,206.264286 84.1532628,206.264286 C83.4807683,206.6 82.4720271,206.6 82.1357804,207.271429 C81.7995336,208.278571 80.7907915,208.278571 80.1182979,208.95 C78.7733091,209.621429 78.4370623,209.285715 78.4370623,207.942857 C78.4370623,207.607143 78.4370623,207.271429 78.4370623,207.271429 C79.4458035,203.578572 80.4545447,199.885714 81.7995336,196.192858 C82.1357804,195.185714 81.7995336,193.507143 83.4807683,192.835714 C83.4807683,192.835714 83.4807683,192.5 83.4807683,192.5 C83.4807683,192.164286 83.1445216,192.164286 83.1445216,191.828571 C83.817016,190.15 84.4895095,188.471428 85.162004,186.792857 C86.1707452,183.099999 87.8519808,179.742857 88.5244744,176.385714 C88.860722,174.707142 89.1969688,173.028571 88.860722,171.35 C88.860722,170.007142 87.5157332,169 86.1707452,169.671428 Z M229.579235,172.333334 C228.224044,173 226.868853,173.666667 225.513661,174.666667 C222.464481,176.666667 219.076503,179 216.027323,181 C215.349727,181.333333 214.672131,182 213.994536,182.666667 C212.639344,184 211.284153,185.333333 209.928961,186.666666 C209.590164,187 209.251366,187 209.251366,187 C209.251366,186.666666 209.251366,186.333333 209.251366,186 C210.945355,182.333333 211.622951,178.333333 212.300547,174.666667 C212.639344,173 211.961749,171 209.590164,171.333333 C208.912568,171.333333 208.57377,171.333333 207.896174,171 C207.896174,171 207.557377,171 207.557377,171.333333 C208.234973,172 207.557377,172 207.218579,172 C204.169399,174 200.781421,176 197.73224,177.666667 C195.360655,179.333333 192.989071,181 190.956284,183 C190.617486,183.333334 190.278688,183.333334 189.939891,183.666666 C189.939891,183.333334 189.939891,183 189.939891,182.666667 C190.956284,179.666667 191.63388,177 192.650273,174 C192.989071,173.333333 192.989071,172.333334 192.311475,172 C191.63388,171.666667 190.956284,171.666667 190.278688,172 C187.907104,173 185.874317,174.333333 183.502732,175.666666 C183.163934,175.666666 183.163934,176 183.163934,176.333333 C183.502732,176.333333 183.502732,176.333333 183.84153,176.333333 C184.857923,175.666666 184.857923,175.666666 184.519125,177 C184.519125,177.333334 184.519125,177.666667 184.180328,178 C183.84153,179.333333 183.163934,180.333334 184.180328,181.666666 C184.180328,181.666666 184.180328,182 184.180328,182.333333 C183.84153,182.333333 183.84153,182 183.84153,182 C183.502732,181.666666 183.502732,181.666666 183.163934,181.333333 C183.163934,181.666666 182.825137,181.666666 182.825137,182 C182.825137,182.333333 182.486338,183 182.486338,183.333334 C182.147541,185 181.469945,186.666666 181.131147,188.333333 C181.131147,188.666667 181.131147,188.666667 181.131147,189 C181.131147,189.333333 181.131147,189.666666 181.131147,189.666666 C179.437158,191.333334 179.775956,193.666667 179.09836,195.333333 C178.420765,196.333333 177.404371,197.666666 178.420765,199 C178.420765,199 178.420765,199 178.420765,199.333333 C178.081967,200 177.743169,200.666666 177.404371,201.333333 C177.065574,202 177.065574,202.333333 177.404371,204 C177.404371,204 177.404371,204.333333 177.065574,204.333333 C176.387978,204.333333 176.387978,204.666667 176.387978,205 C176.387978,205.666666 176.04918,206.666666 175.710382,207.333333 C174.693988,209 173.677595,210.666666 173.338798,212.666667 C173,213.333332 173,214.333333 173,215 C173,216 173.338798,216 174.016393,215.666667 C175.371584,215 176.387978,214.333333 177.743169,213.666666 C178.420765,213.333332 179.09836,213 179.775956,212.666667 C180.114754,212.666667 180.114754,212.333333 180.453551,212 C181.469945,209.333333 182.147541,206.666666 183.163934,204 C183.84153,201.666667 184.519125,199 185.535518,196.666667 C185.874317,195.333333 186.213114,194.333333 186.89071,193 C187.568306,191 188.245901,189 189.262295,187.666667 C190.956284,185.333333 193.327868,183.333334 195.360655,181.333333 C197.054644,179.666667 198.748634,178.333333 200.442623,177 C201.120218,176.333333 201.797814,176 202.47541,175.666666 C203.153005,175 203.830601,175.333333 204.508197,175.666666 C205.185793,176.333333 204.846994,176.666667 204.508197,177 C204.169399,179 203.830601,180.666666 203.491803,182.666667 C203.153005,184.333333 202.47541,186.333333 202.136611,188 C201.797814,189 201.797814,190 201.459016,191 C200.781421,193.333333 199.765027,196 198.748634,198.333333 C198.409836,199.666667 197.73224,201.333333 197.393443,202.666666 C196.715847,204.333333 196.038251,206 195.699453,207.666667 C195.699453,208 195.699453,208 195.360655,208.333333 C195.021858,210.333333 194.68306,212.333333 193.666667,214.333333 C193.327868,214.666666 193.327868,215 193.327868,215.333333 C193.327868,215.666667 193.327868,216 193.327868,216 C193.327868,216 194.005464,216 194.005464,216 C194.68306,215.666667 195.021858,215.333333 195.699453,215 C196.715847,214.666666 197.393443,214 198.409836,213.666666 C199.765027,213 201.120218,212 201.459016,210.333333 C201.797814,209.333333 202.136611,208.333333 202.47541,207.333333 C203.491803,204.333333 204.508197,201.333333 205.52459,198.666667 C206.202186,196.666667 207.218579,194.333333 208.234973,192.333333 C209.590164,190.333333 211.284153,188.333333 212.978142,186.333333 C213.994536,185 215.010929,183.666666 216.027323,182.666667 C217.721311,181 219.754098,179.333333 221.786886,178 C222.803279,177 224.15847,176.333333 225.513661,175.666666 C226.191257,175.333333 226.530054,175.333333 226.868853,175.666666 C227.885246,176.333333 227.20765,177 227.20765,177.666667 C227.20765,179.333333 225.852459,180.666666 226.530054,182.333333 C225.513661,182 225.852459,183 225.852459,183.333334 C225.513661,184 225.513661,184.666667 225.174863,185.333333 C224.836066,186 224.497267,186.666666 224.836066,187.666667 C224.836066,187.666667 224.836066,188 224.497267,188.333333 C224.15847,188.666667 223.819672,188.666667 223.819672,189 C223.480874,189.666666 223.142077,190.666667 222.803279,191.666666 C222.464481,192.666666 222.464481,193.333333 223.480874,194 C222.803279,194 222.125683,193 221.786886,194.333333 C221.448087,195.666666 221.10929,196.666667 220.770492,198 C220.431694,198.666667 220.431694,199.333333 220.092896,200 C219.754098,201.333333 219.076503,202.333333 218.398907,203.666666 C218.060109,204.666667 217.721311,206 217.382514,207 C216.36612,209.333333 216.027323,211.666666 216.027323,214 C216.027323,215.333333 217.382514,216.333333 218.737704,215.666667 C219.754098,215.333333 220.431694,215 221.448087,214.666666 C222.464481,214.333333 223.142077,214 224.15847,213.333332 C225.852459,212.333333 227.546448,211.666666 229.579235,210.666666 C229.918033,210.666666 229.918033,210.333333 229.918033,210 C229.579235,210 229.579235,210 229.240437,210 C228.224044,210.333333 227.20765,210.666666 226.191257,211 C224.836066,211.333333 223.819672,210.666666 223.819672,209.333333 C223.819672,208.333333 223.819672,207.333333 224.15847,206.333333 C225.513661,202.333333 226.868853,198.666667 228.224044,194.666666 C228.90164,192.333333 229.918033,190.333333 230.595629,188 C231.273224,185.666667 231.95082,183.333334 232.967213,181.333333 C233.983607,178.666666 234.661202,176 235,173.333333 C235,172.666666 234.661202,172 234.322404,171.666667 C233.306011,171.333333 231.612022,171.666667 229.579235,172.333334 Z M330.558865,199.803876 C330.897099,198.129501 331.573565,196.455126 332.250032,195.115626 C332.926499,193.106376 333.602966,190.762251 333.9412,188.753001 C334.279433,188.083251 334.279433,187.078626 334.617667,186.408876 C335.294133,184.064751 335.9706,182.055501 336.308833,179.711376 C336.647067,178.037 337.661767,176.362626 336.647067,174.68825 C336.647067,174.68825 336.647067,174.68825 336.647067,174.353376 C336.647067,174.018501 336.647067,173.34875 336.647067,173.013875 C335.9706,171.3395 334.617667,170.66975 332.588265,171.3395 C331.235332,171.674376 329.882399,172.344125 328.529465,173.34875 C325.485365,175.358 322.103031,177.702125 319.058931,179.711376 C317.367764,181.050875 316.014829,182.390376 314.323663,183.729876 C314.661896,182.390376 315.000129,181.385751 315.338363,180.04625 C316.014829,177.702125 317.02953,175.358 316.691296,172.679 C316.691296,171.674376 316.014829,170.66975 315.000129,170.66975 C313.308963,170.334875 311.956029,170.66975 310.603096,171.3395 C309.250162,172.00925 307.897228,173.013875 306.544295,174.018501 C303.500195,176.02775 300.456094,178.371875 297.750227,180.716 C296.397293,181.720626 295.382593,182.725251 294.02966,184.064751 C294.02966,184.064751 294.02966,184.064751 294.02966,183.729876 C295.04436,180.381125 296.05906,177.36725 297.07376,174.018501 C297.411993,173.34875 297.411993,172.344125 297.411993,171.3395 C297.411993,170.66975 297.07376,170 296.05906,170 C294.367893,170 293.01496,170.66975 292.00026,171.3395 C290.309092,172.344125 288.279692,173.683625 286.588525,174.68825 C285.235592,175.358 284.220892,176.362626 283.206191,177.032376 C283.206191,177.032376 283.206191,177.36725 282.867958,177.36725 C282.867958,177.36725 283.206191,177.36725 283.206191,177.36725 C284.559125,176.697501 285.573825,176.02775 286.926759,175.358 C287.603225,175.023125 288.279692,174.68825 289.294392,174.353376 C289.294392,174.353376 289.970859,174.353376 289.970859,174.68825 C289.970859,175.692875 289.970859,176.697501 289.632625,177.702125 C289.294392,178.706751 288.617925,180.04625 288.279692,181.050875 C288.279692,181.385751 288.617925,181.720626 288.617925,182.055501 C288.617925,182.055501 288.956159,182.390376 288.956159,182.390376 C288.956159,182.390376 288.617925,182.390376 288.617925,182.390376 C288.279692,182.390376 287.603225,181.720626 288.279692,182.725251 C288.279692,182.725251 288.279692,183.060125 288.279692,183.395 C288.279692,184.399626 286.588525,185.069376 287.603225,186.408876 C287.603225,186.408876 287.264992,186.743751 287.264992,186.743751 C287.264992,186.743751 287.264992,187.078626 286.926759,187.078626 C287.603225,187.413501 286.926759,187.413501 286.926759,187.748376 C286.588525,188.083251 286.250292,188.753001 285.912059,189.087876 C285.573825,190.427376 285.573825,191.432001 284.897359,192.436626 C284.897359,192.771501 284.897359,193.106376 284.897359,193.441251 C284.897359,193.776126 285.235592,193.776126 285.573825,193.776126 C285.235592,193.776126 284.897359,194.111001 284.559125,194.111001 C283.544425,194.445876 283.544425,195.115626 283.206191,195.785376 C283.206191,195.785376 283.544425,196.120252 283.882658,196.120252 C283.544425,196.120252 283.206191,196.455126 283.206191,196.455126 C283.206191,196.455126 283.206191,196.455126 283.206191,196.790001 C282.529724,198.464377 281.853257,200.473626 281.515024,202.148001 C281.176791,203.822377 280.500324,204.827001 280.162091,206.501377 C279.485624,208.845502 278.809157,211.189627 278.132691,213.198877 C277.794457,213.868627 278.132691,214.203502 278.809157,213.868627 C280.838557,212.864001 282.867958,211.859377 285.235592,210.854752 C285.573825,210.854752 285.912059,210.185001 285.912059,209.850127 C287.603225,204.492127 289.632625,199.134127 291.323792,193.441251 C291.662026,192.771501 292.00026,191.766876 292.338493,191.097126 C293.353193,189.087876 294.706127,186.743751 296.397293,185.069376 C298.08846,183.395 299.441393,181.385751 301.132561,179.711376 C302.823728,178.037 304.514895,176.697501 306.206061,175.023125 C307.220761,174.353376 308.235462,174.018501 309.250162,173.683625 C309.926629,173.683625 310.264863,174.018501 310.264863,174.68825 C310.603096,176.697501 309.926629,178.371875 309.250162,180.381125 C308.911929,182.055501 307.897228,183.729876 307.558995,185.739125 C307.558995,185.739125 307.558995,186.074001 307.897228,186.408876 C308.235462,186.408876 308.235462,186.408876 308.573695,186.408876 C308.235462,186.408876 308.235462,186.408876 307.897228,186.408876 C307.558995,186.743751 307.558995,186.743751 307.220761,187.078626 C306.882528,188.083251 306.544295,189.087876 306.206061,190.427376 C305.529595,192.771501 304.514895,195.450501 303.838428,197.794626 C303.161961,200.138751 302.147261,202.148001 301.809028,204.492127 C301.470795,206.166502 300.117861,207.840876 300.456094,209.515252 C300.456094,209.850127 300.117861,210.185001 300.117861,210.854752 C299.779627,211.524502 299.779627,211.859377 299.779627,212.529127 C299.779627,213.198877 299.779627,213.198877 300.456094,212.864001 C302.485495,211.859377 304.514895,210.854752 306.544295,209.850127 C306.882528,209.515252 307.220761,209.180377 307.558995,208.845502 C308.235462,206.836252 308.573695,204.827001 309.250162,202.817751 C310.264863,199.134127 311.279563,195.450501 312.632496,192.101751 C313.647196,189.757626 315.000129,187.413501 316.691296,185.069376 C318.382464,182.725251 320.411864,180.716 322.441264,178.371875 C323.117731,177.702125 323.455964,177.032376 324.132431,176.697501 C325.147131,176.02775 326.161832,175.358 327.176532,174.68825 C327.852999,174.353376 328.529465,174.018501 329.205932,174.018501 C329.882399,174.018501 331.235332,175.023125 331.235332,175.692875 C330.897099,177.032376 330.897099,178.371875 330.558865,179.711376 C330.558865,180.04625 330.558865,180.381125 330.558865,180.716 C330.220632,181.720626 329.882399,182.725251 330.220632,184.064751 C330.220632,184.399626 330.220632,184.734501 329.882399,184.399626 C329.882399,184.399626 329.544165,184.734501 329.544165,185.069376 C329.205932,186.743751 328.867699,188.083251 328.529465,189.757626 C328.191232,191.097126 328.529465,192.771501 327.176532,193.776126 C327.514765,194.780751 326.838299,195.450501 326.838299,196.455126 C326.500065,197.794626 325.823599,198.799252 325.485365,200.138751 C325.147131,201.478252 324.470664,202.817751 324.808897,204.157252 C324.808897,204.157252 324.808897,204.492127 324.470664,204.492127 C324.132431,204.827001 323.794197,205.161876 323.455964,205.496751 C323.117731,207.171127 322.779497,208.510627 322.779497,210.185001 C322.779497,210.854752 322.779497,211.189627 323.117731,211.859377 C323.117731,212.529127 323.794197,212.529127 323.794197,213.198877 C323.794197,213.533752 324.470664,213.868627 325.147131,213.533752 C326.161832,212.864001 327.514765,212.194252 328.529465,211.859377 C331.573565,210.854752 334.279433,209.180377 336.9853,207.171127 C337.323533,206.836252 337.661767,206.501377 338,206.166502 C337.661767,206.166502 336.9853,206.166502 336.647067,206.501377 C335.294133,207.171127 333.9412,207.840876 332.588265,208.510627 C331.235332,209.180377 330.558865,208.510627 330.220632,207.171127 C330.220632,206.501377 330.220632,205.496751 330.220632,204.827001 C329.205932,204.157252 329.882399,202.148001 330.558865,199.803876 Z M267.375333,204.430135 C268.050314,202.424327 269.062785,200.418519 269.737765,198.412711 C271.087726,194.401094 272.775178,190.389479 274.125139,186.04356 C275.13761,183.034849 276.150081,179.691835 277.162553,176.683123 C277.500043,175.345917 277.162553,173.674411 278.850004,172.671506 C279.187495,172.671506 278.850004,171.668603 278.850004,171.334301 C278.850004,171 278.175024,171 278.175024,171 C277.500043,171 277.162553,171.334301 276.487572,171.668603 C273.787649,173.005808 272.775178,173.005808 270.412746,175.680219 C269.400275,177.017425 268.725295,178.688931 268.387805,180.026137 C267.375333,182.366246 266.700353,184.706355 266.025372,187.046465 C265.350391,188.717971 264.675411,190.055177 264.00043,191.392382 C262.987959,193.063889 261.975488,194.735396 260.963017,196.406903 C260.625527,196.741204 260.625527,197.409807 260.288036,198.078409 C258.938075,199.749916 257.588113,201.087122 256.238152,202.758628 C255.225681,203.761532 253.87572,205.098737 252.863249,206.101642 C251.513288,207.773148 249.825836,208.441751 247.800894,208.776053 C247.125914,208.776053 245.775952,208.10745 245.775952,207.438848 C245.775952,206.435943 245.438462,205.098737 245.775952,204.095834 C246.450933,201.421423 247.463404,199.081314 248.138385,196.406903 C249.150856,193.063889 250.500817,189.386574 251.513288,186.04356 C252.863249,182.366246 253.87572,179.023232 254.888191,175.345917 C255.225681,174.677315 255.225681,174.008712 255.225681,173.340109 C255.225681,172.337205 254.888191,171.668603 253.87572,171.668603 C252.863249,171.668603 251.850778,172.002904 251.175797,172.337205 C250.163327,172.671506 249.150856,173.340109 248.475875,174.008712 C246.113443,175.680219 243.41352,176.683123 241.388578,178.688931 C241.051087,179.023232 241.051087,179.357534 241.051087,179.357534 C241.388578,179.357534 241.726068,179.357534 242.063558,179.023232 C242.401049,179.023232 242.401049,178.688931 242.738539,178.688931 C244.088501,177.686027 245.438462,177.017425 246.788423,176.01452 C247.125914,175.680219 247.463404,176.01452 247.800894,176.01452 C247.800894,176.348822 248.138385,177.017425 247.800894,177.351726 C247.800894,178.020328 247.463404,178.688931 247.125914,179.357534 C246.113443,182.700548 245.100972,185.70926 244.088501,189.052273 C243.076029,192.395286 242.063558,196.072602 240.713597,199.415615 C240.038616,202.090026 239.026145,204.430135 238.351165,207.104546 C237.676184,208.776053 238.013674,210.781861 239.026145,212.119066 C239.701126,213.12197 240.376107,214.124874 242.063558,213.790573 C243.076029,213.456271 244.425991,213.456271 245.100972,212.787669 C247.800894,211.116162 250.500817,209.444656 252.863249,207.773148 C255.900662,205.433039 259.275565,203.427231 261.975488,200.418519 C261.975488,200.418519 262.312978,200.418519 262.312978,200.084217 C262.312978,200.084217 262.312978,200.418519 262.312978,200.418519 C260.963017,202.090026 260.963017,204.430135 260.288036,206.435943 C259.613055,207.773148 259.613055,209.444656 259.275565,211.116162 C259.275565,211.450463 259.275565,211.450463 259.275565,211.784765 C259.275565,213.456271 260.288036,214.459176 261.975488,213.790573 C262.650469,213.456271 262.987959,213.12197 263.66294,212.787669 C265.012901,212.119066 266.025372,211.116162 267.712824,210.447559 C269.400275,209.444656 270.750236,207.773148 272.775178,207.773148 C272.775178,207.773148 272.775178,207.773148 272.775178,207.438848 C273.787649,206.435943 274.80012,205.433039 275.812591,204.764437 C275.812591,204.764437 276.150081,204.430135 276.487572,204.430135 C276.150081,204.430135 275.812591,204.095834 275.475101,204.095834 C275.13761,204.095834 275.13761,204.430135 274.80012,204.430135 C273.787649,205.433039 272.437688,206.101642 271.425217,207.104546 C270.412746,207.773148 269.400275,208.441751 268.387805,208.776053 C267.375333,209.110354 266.362862,208.441751 266.700353,207.438848 C266.700353,206.770245 267.037843,205.433039 267.375333,204.430135 Z M151.972589,170.445729 C151.636808,170.445729 151.301028,170.445729 151.301028,170.445729 C150.965247,169.777135 150.629466,170.111432 150.293686,170.111432 C149.622124,170.445729 148.950563,170.445729 148.614782,170.445729 C148.279001,170.445729 148.279001,169.442838 147.943221,170.445729 C146.935879,170.111432 146.600098,171.448621 145.592756,171.782919 C144.921194,171.782919 144.585413,172.451512 143.913852,172.78581 C142.234949,173.788701 140.556045,175.12589 138.541361,176.128782 C135.183553,178.134565 132.497308,180.808942 129.811062,183.48332 C128.80372,184.486212 127.460597,185.489104 126.453255,186.826292 C127.124817,185.154806 127.460597,183.48332 127.796378,181.811834 C128.132159,180.140348 128.80372,178.468862 129.139501,176.797376 C129.475281,175.460187 129.811062,174.122999 129.475281,172.78581 C129.475281,171.114324 128.80372,170.780027 127.124817,171.448621 C126.117474,171.782919 125.110132,172.451512 124.10279,173.120107 C122.423886,174.122999 121.080764,175.12589 119.40186,176.463079 C118.730298,176.797376 118.394518,177.465971 117.722956,178.468862 C119.06608,177.800267 120.073422,177.465971 121.080764,176.797376 C121.752325,176.463079 121.752325,176.797376 121.416544,177.131674 C121.416544,178.134565 121.080764,179.137457 121.080764,180.140348 C119.737641,184.820509 118.394518,189.500669 117.051396,193.846533 C116.044053,197.189505 115.036711,200.532477 114.029369,203.875449 C113.693588,205.212637 113.022026,206.549827 112.686246,207.887015 C112.350465,208.889907 112.350465,209.892799 112.014684,210.89569 C111.678904,212.232879 111.007342,213.570067 110.335781,214.907256 C110.335781,215.241554 110.335781,215.575851 110,215.910148 C110.335781,215.910148 110.671562,215.910148 111.007342,215.910148 C113.022026,214.907256 115.372492,213.570067 117.387176,212.567176 C117.722956,212.567176 117.722956,212.232879 118.058738,211.898582 C118.394518,210.561392 119.06608,209.224204 119.40186,207.887015 C120.409202,204.209746 121.752325,200.532477 122.759668,196.855207 C123.095448,195.518019 124.10279,193.846533 124.774352,192.509344 C125.445913,191.506452 126.117474,190.503561 127.124817,189.500669 C128.467939,188.163481 129.475281,186.491995 130.818404,185.154806 C132.497308,183.149023 134.511992,181.477537 136.526677,179.806051 C138.20558,178.134565 140.220265,176.463079 142.570729,175.460187 C143.913852,174.791593 144.585413,175.460187 144.585413,176.797376 C144.585413,177.465971 144.585413,178.134565 144.249633,178.803159 C144.249633,180.474645 143.242291,182.146131 143.578071,184.151914 C143.578071,184.151914 143.578071,184.486212 143.242291,184.486212 C142.90651,185.489104 142.570729,186.157697 142.234949,187.160589 C141.899168,188.497778 141.563387,189.500669 140.891825,190.837859 C140.220265,192.509344 139.548703,194.18083 139.212923,195.852316 C138.541361,197.189505 138.877141,198.860991 137.869799,200.532477 C136.526677,202.872557 136.190895,205.546935 135.183553,207.887015 C134.847773,209.224204 134.511992,210.89569 134.176211,212.232879 C133.840431,213.23577 133.840431,214.238662 133.50465,215.575851 C133.50465,216.578742 134.511992,217.247337 135.519335,216.913039 C136.862457,216.244445 138.541361,216.244445 139.548703,214.907256 C139.548703,214.907256 139.884483,214.907256 139.884483,214.572959 C142.234949,213.23577 144.921194,212.567176 146.600098,210.561392 C146.935879,210.227096 146.935879,210.227096 147.271659,209.892799 C146.935879,209.892799 146.600098,209.892799 146.264317,209.892799 C145.928536,209.892799 145.592756,210.227096 145.256975,210.561392 C144.585413,210.89569 143.913852,211.564284 143.242291,211.898582 C142.570729,212.232879 141.899168,212.901474 141.227607,212.232879 C140.891825,211.898582 140.891825,210.89569 140.891825,210.227096 C140.891825,210.227096 140.891825,210.227096 140.891825,209.892799 C141.563387,207.887015 142.234949,205.881232 142.90651,203.541152 C143.913852,200.532477 144.921194,197.189505 145.928536,194.18083 C146.935879,191.172156 147.943221,188.497778 148.950563,185.489104 C149.957905,182.480429 150.293686,179.471754 150.965247,176.463079 C151.301028,175.12589 150.965247,173.788701 150.629466,172.451512 C152.30837,170.445729 151.972589,170.445729 151.972589,170.445729 Z M109.405277,170 C108.040157,170.664581 106.333758,170.996872 104.968638,171.661454 C102.920958,172.658325 101.214558,173.987488 99.1668786,175.31665 C98.8255989,175.64894 98.4843193,175.981231 98.1430388,176.645813 C98.8255989,176.645813 99.5081591,176.645813 100.190718,176.313522 C100.531999,176.313522 100.873279,175.981231 100.873279,175.64894 C101.214558,175.31665 101.555839,174.984359 101.897118,174.984359 C102.238398,174.984359 102.579678,174.984359 102.579678,174.984359 C102.579678,174.984359 102.579678,175.31665 102.579678,175.64894 C102.238398,177.642684 101.555839,179.304137 101.214558,181.297881 C100.873279,182.294753 100.873279,183.291624 100.531999,184.288496 C99.5081591,185.949949 99.1668786,188.275984 98.4843193,189.937437 C97.4604786,192.928052 96.4366388,195.918668 95.412799,198.909284 C94.7302398,201.235318 94.0476796,203.229061 93.3651194,205.555095 C92.6825602,207.548839 92.3412796,209.874874 92,211.868617 C92,212.533199 92.3412796,213.197779 92.6825602,213.53007 C92.6825602,213.862361 93.0238398,214.194651 93.3651194,213.862361 C94.3889592,213.53007 95.7540795,213.53007 96.7779193,213.197779 C98.4843193,212.533199 99.8494387,211.536327 101.555839,210.871745 C102.579678,210.207164 103.944798,209.542583 104.968638,208.878002 C104.968638,208.878002 104.968638,208.545711 105.309917,208.21342 C104.968638,208.21342 104.968638,208.21342 104.627358,208.21342 C103.603518,208.545711 102.579678,208.878002 101.555839,209.210292 C100.873279,209.542583 100.531999,209.210292 100.531999,208.545711 C100.531999,207.88113 100.531999,206.884258 100.873279,206.219677 C101.897118,203.229061 102.579678,200.238446 103.603518,196.915539 C104.286078,194.257214 105.309917,191.59889 105.992477,188.940565 C107.357598,184.620787 108.722717,179.968719 110.087837,175.64894 C110.429117,173.987488 111.452957,172.658325 110.770397,170.664581 C110.429117,170 110.087837,170 109.405277,170 Z M171.298546,171.043182 C170.2855,171.378681 168.934773,171.378681 168.259409,172.049678 C165.557955,173.727171 162.856501,175.404664 160.492727,177.082158 C160.492727,177.082158 160.492727,177.417656 160.155046,177.417656 C160.492727,177.417656 160.492727,177.417656 160.83041,177.417656 C161.843455,176.746659 162.856501,176.41116 164.207228,175.740163 C165.220273,175.404664 165.895637,175.740163 165.895637,176.746659 C165.895637,177.417656 165.895637,178.088653 165.557955,178.75965 C165.220273,180.437144 164.882591,182.114637 164.207228,183.79213 C163.531865,185.469624 163.531865,187.147116 162.856501,188.489111 C162.181137,189.831106 161.843455,191.508599 161.505773,192.850593 C161.168091,194.192588 160.492727,195.534583 160.155046,196.876578 C159.817364,197.547574 159.817364,198.218572 159.479682,198.889569 C159.142001,199.560567 159.479682,199.896065 160.155046,199.896065 C160.492727,199.896065 160.492727,200.231563 160.83041,200.231563 C160.492727,200.231563 160.492727,200.231563 160.155046,200.231563 C159.479682,199.896065 158.804319,200.231563 158.804319,200.902561 C158.804319,202.580054 157.11591,203.58655 157.453591,205.264044 C156.440546,206.270539 156.440546,207.277035 156.102864,208.619029 C155.4275,210.632022 154.752137,212.645013 155.089819,214.993504 C155.089819,215.664501 155.089819,216 156.102864,216 C156.778228,215.664501 157.791274,215.664501 158.466637,214.993504 C160.83041,213.987008 162.856501,212.980512 165.220273,211.638517 C166.233318,211.303018 167.246364,210.632022 167.921728,209.961024 C168.259409,209.961024 168.259409,209.625526 168.259409,209.290027 C167.921728,209.290027 167.584046,209.290027 167.584046,209.290027 C166.571001,209.625526 165.557955,210.296523 164.207228,210.632022 C162.518818,210.96752 162.181137,210.632022 162.518818,208.954528 C162.856501,207.612534 163.194182,206.270539 163.531865,205.264044 C165.220273,200.567062 166.908682,195.870081 168.597092,191.173101 C168.934773,190.502103 169.272455,189.831106 169.610137,188.82461 C170.623182,186.140621 171.298546,183.456632 172.311592,180.772642 C172.986955,178.424152 173.324637,176.41116 174,174.06267 C174,172.385177 172.311592,170.707683 171.298546,171.043182 Z M170.111111,163 C170.111111,163 170.44033,163 170.44033,163 C171.427984,162.333333 172.744856,161.666666 173.73251,161 C174.061729,160.666667 174.390947,160.666667 174.720164,160.666667 C175.378601,160.333333 176.695473,159.666666 176.695473,159.333333 C176.695473,158 177.683127,157.333333 177.683127,156 C177.683127,155.333333 178.012346,154.666666 178.670781,154 C179,154 179,153.333333 179,153.333333 C179,153 178.670781,153 178.341564,153 C177.683127,153 176.695473,153.333333 176.037037,153.666666 C175.049383,154 174.390947,154.666666 173.73251,155 C171.757202,156 169.781893,157 169.452675,159.333333 C169.452675,159.666666 169.123457,160 169.123457,160.333333 C169.123457,160.333333 169.123457,160.666667 169.123457,160.666667 C170.111111,161 169.452675,161.333333 169.123457,161.666666 C168.794239,162.333333 169.123457,162.666667 170.111111,163 Z M108.500819,159.935823 C108.854951,159.935823 109.209084,159.935823 109.563217,159.935823 C111.33388,160.25892 112.75041,159.289631 114.16694,158.643438 C114.875205,158.320342 115.58347,157.351054 115.937602,156.704862 C116.645868,155.412478 116.645868,154.120093 117,152.827708 C117,152.181516 117,151.85842 116.291736,151.212227 C115.58347,150.889131 115.229338,150.889131 114.521073,151.535323 C114.875205,151.85842 114.521073,151.85842 114.16694,152.181516 C112.75041,152.827708 111.33388,153.796996 109.917349,154.443189 C109.563217,154.766285 109.209084,155.089381 109.209084,155.412478 C108.854951,156.704862 108.500819,157.997247 108.146687,159.289631 C107.792554,159.289631 108.146687,159.935823 108.500819,159.935823 Z" id="path-1" fill="#000000" fill-rule="nonzero"></path>
                        </g>
                    </g>
                </g>
            </g>
        </g>
    </g>
</svg>