<?xml version="1.0" encoding="UTF-8"?>
<svg width="367px" height="367px" viewBox="0 0 367 367" version="1.1" xmlns="http://www.w3.org/2000/svg" xmlns:xlink="http://www.w3.org/1999/xlink">
    <!-- Generator: Sketch 57.1 (83088) - https://sketch.com -->
    <title>Familie Sauerwein  Copy 3</title>
    <desc>Created with Sketch.</desc>
    <g id="New" stroke="none" stroke-width="1" fill="none" fill-rule="evenodd">
        <g id="Artboard" transform="translate(-786.000000, -20.000000)">
            <g id="Familie-Sauerwein--Copy-3" transform="translate(786.000000, 20.000000)">
                <rect id="Rectangle" fill="#FFFFFF" x="0" y="0" width="367" height="367"></rect>
                <g id="Group" transform="translate(45.633562, 0.186301)" fill="#000206">
                    <path d="M16.7558552,340.881827 C15.9470814,337.673301 14.617675,334.515382 10.1533428,334.515382 C6.44708142,334.515382 5.16343133,337.284887 5.16343133,339.814005 C5.16343133,343.165499 7.25585517,344.867182 11.1970814,346.957279 C16.8980707,349.972231 19.3664384,352.204029 19.3664384,356.823245 C19.3664384,361.927029 15.0455584,365.813699 8.919159,365.813699 C6.06742768,365.813699 3.59658676,364.986263 1.6513251,364.209435 C1.2679614,362.849354 0.700335779,359.544673 0.366438356,356.92193 L1.84053364,356.529721 C2.787813,359.786324 4.88023685,364.015861 9.82068204,364.015861 C13.2388023,364.015861 15.3324628,361.586693 15.3324628,358.424978 C15.3324628,354.685071 13.3822545,353.178227 9.20235348,350.846479 C4.21491532,348.076974 1.41141362,345.741429 1.41141362,341.223429 C1.41141362,336.897738 4.92722982,332.813699 11.1970814,332.813699 C13.8583675,332.813699 16.4701874,333.541184 17.466933,333.738554 C17.6573782,335.488314 17.8465868,337.430384 18.2287138,340.589568 L16.7558552,340.881827 Z" id="Fill-2"></path>
                    <path d="M37.541605,339.126632 C35.9903882,343.270436 34.3432458,347.657624 32.8866924,351.463952 L41.9541795,351.463952 L37.541605,339.126632 Z M42.3896309,364.813699 L42.3896309,363.46254 C45.5400273,363.0799 45.9300403,362.596895 45.2509885,360.763987 C44.6186373,358.88466 43.6530711,356.474654 42.6332312,353.441134 L32.1596778,353.441134 C31.3821761,355.607755 30.6564238,357.487082 29.977372,359.46552 C28.9108315,362.596895 29.5898833,362.98079 33.5657442,363.46254 L33.5657442,364.813699 L22.3664384,364.813699 L22.3664384,363.46254 C25.4209092,363.0799 26.1946244,362.74117 27.8922538,358.405419 L37.9278315,333.103501 L39.4790483,332.813699 C42.5347814,341.053633 45.878291,350.161721 48.934024,358.49951 C50.486503,362.694751 50.9244788,363.0799 54.3664384,363.46254 L54.3664384,364.813699 L42.3896309,364.813699 Z" id="Fill-4"></path>
                    <path d="M87.3664384,335.162348 C84.3347911,335.354295 83.2253159,336.128357 83.1313987,338.345161 C83.0813095,339.45168 82.9873923,341.476536 82.9873923,345.910143 L82.9873923,351.114048 C82.9873923,356.030659 82.4113668,359.790568 79.6176432,362.729996 C77.3586214,365.091073 74.0877984,365.813699 70.7668861,365.813699 C67.9781714,365.813699 64.9978655,365.236602 62.8778412,363.596895 C59.9927048,361.378838 58.5964691,358.055515 58.5964691,352.416278 L58.5964691,340.126632 C58.5964691,335.790881 58.2145391,335.501079 54.3664384,335.162348 L54.3664384,333.813699 L67.0189637,333.813699 L67.0189637,335.162348 C63.1683584,335.401969 62.783924,335.790881 62.783924,340.126632 L62.783924,352.174149 C62.783924,359.209708 66.1023318,363.066218 71.8751091,363.066218 C78.7060202,363.066218 80.8711247,358.824558 80.8711247,350.82299 L80.8711247,345.910143 C80.8711247,341.476536 80.7271184,339.643628 80.6294445,338.345161 C80.4841859,336.176031 79.3797196,335.354295 75.8196315,335.162348 L75.8196315,333.813699 L87.3664384,333.813699 L87.3664384,335.162348 Z" id="Fill-6"></path>
                    <path d="M115.366438,357.009195 C115.070897,358.288223 113.740319,363.344285 113.252867,364.813699 L89.3664384,364.813699 L89.3664384,363.438838 C93.936461,363.096401 94.28062,362.656855 94.28062,358.631939 L94.28062,339.240787 C94.28062,334.872156 93.7407125,334.628105 90.0547564,334.28439 L90.0547564,332.910808 L105.094123,332.910808 C109.711483,332.910808 111.628027,332.862253 112.22039,332.813699 C112.267728,334.04034 112.463476,337.721541 112.660504,340.323042 L111.187913,340.567093 C110.74396,338.900905 110.251391,337.86976 109.711483,336.838615 C108.92721,335.215871 107.794939,334.872156 104.844639,334.872156 L100.179941,334.872156 C98.6536148,334.872156 98.5538215,335.020375 98.5538215,336.442512 L98.5538215,347.293175 L104.013028,347.293175 C107.698984,347.293175 107.942071,346.553357 108.534434,343.217149 L110.055642,343.217149 L110.055642,353.327993 L108.534434,353.327993 C107.894733,349.795012 107.503236,349.304355 103.960573,349.304355 L98.5538215,349.304355 L98.5538215,359.071485 C98.5538215,362.508636 99.6387541,362.799963 102.096485,362.852351 L106.665228,362.852351 C109.662866,362.852351 110.155436,362.408971 111.23525,361.133775 C112.167934,360.10263 113.201691,358.088894 113.890009,356.616925 L115.366438,357.009195 Z" id="Fill-8"></path>
                    <path d="M130.247129,350.009307 C132.770023,350.009307 134.37734,349.620622 135.591364,348.600167 C137.485748,347.189762 138.260953,345.241275 138.260953,342.616706 C138.260953,337.413145 134.811101,335.516567 131.069125,335.516567 C129.661615,335.516567 128.83962,335.710276 128.498176,336.002739 C128.060621,336.343313 127.912662,336.830751 127.912662,338.094292 L127.912662,350.009307 L130.247129,350.009307 Z M148.169159,365.813699 C147.540649,365.813699 147.006984,365.766854 146.373416,365.718743 C142.824924,365.474391 140.934335,364.550158 138.794617,361.536903 C136.998873,359.0554 135.251185,355.990237 133.696981,353.511265 C132.723232,351.953995 132.090928,351.661532 129.614825,351.661532 L127.912662,351.661532 L127.912662,359.299752 C127.912662,363.430949 128.447591,363.676567 132.334998,364.063985 L132.334998,365.42628 L119.366438,365.42628 L119.366438,364.063985 C123.396745,363.628456 123.736925,363.430949 123.736925,359.299752 L123.736925,339.892116 C123.736925,335.757121 123.20326,335.615321 119.366438,335.174727 L119.366438,333.813699 L131.749484,333.813699 C135.297975,333.813699 137.679233,334.253026 139.523032,335.468456 C141.516055,336.731997 142.824924,338.921038 142.824924,341.887447 C142.824924,346.069287 140.155336,348.695123 136.560054,350.251127 C137.435163,351.760286 139.523032,355.019159 140.98239,357.205667 C142.778134,359.783392 143.703827,360.998822 144.817947,362.215519 C146.13314,363.628456 147.24726,364.164005 148.366438,364.451404 L148.169159,365.813699 Z" id="Fill-10"></path>
                    <path d="M191.366438,335.168509 C187.957811,335.653721 187.469959,336.039369 186.158461,340.00928 C184.552985,344.85131 180.656505,357.149211 177.981556,365.813699 L176.325394,365.813699 C173.792365,358.260786 170.534528,348.918263 168.002767,341.75226 C165.179562,350.08151 162.30567,358.359089 159.772642,365.813699 L158.168433,365.813699 C155.735509,357.488229 152.960455,348.433052 150.332391,339.962649 C149.067777,336.039369 148.529239,335.508787 145.366438,335.168509 L145.366438,333.813699 L157.391671,333.813699 L157.391671,335.168509 C153.78917,335.555418 153.690332,336.08726 154.372058,338.507015 C156.270245,345.044135 158.216584,351.484212 160.213609,358.312458 C162.888558,350.613352 165.809334,342.18958 168.295478,334.249759 L169.851536,334.249759 C172.575903,342.481967 175.301538,350.128141 178.124744,358.359089 C180.168653,351.917751 182.943707,343.301155 184.01318,339.090529 C184.746858,336.285126 184.355309,335.653721 180.220606,335.168509 L180.220606,333.813699 L191.366438,333.813699 L191.366438,335.168509 Z" id="Fill-12"></path>
                    <path d="M219.366438,357.009195 C219.070882,358.288223 217.741518,363.344285 217.254042,364.813699 L193.366438,364.813699 L193.366438,363.438838 C197.936686,363.096401 198.280862,362.656855 198.280862,358.631939 L198.280862,339.240787 C198.280862,334.872156 197.740928,334.628105 194.05479,334.28439 L194.05479,332.910808 L209.094897,332.910808 C213.712484,332.910808 215.629122,332.862253 216.221514,332.813699 C216.268855,334.04034 216.464613,337.721541 216.66165,340.323042 L215.188986,340.567093 C214.745012,338.900905 214.252418,337.86976 213.712484,336.838615 C212.928173,335.215871 211.795846,334.872156 208.845401,334.872156 L204.179194,334.872156 C202.654072,334.872156 202.554274,335.020375 202.554274,336.442512 L202.554274,347.293175 L208.013749,347.293175 C211.699887,347.293175 211.942985,346.553357 212.535377,343.217149 L214.05666,343.217149 L214.05666,353.327993 L212.535377,353.327993 C211.895645,349.795012 211.502849,349.304355 207.961291,349.304355 L202.554274,349.304355 L202.554274,359.071485 C202.554274,362.508636 203.63926,362.799963 206.097111,362.852351 L210.666079,362.852351 C213.663865,362.852351 214.156459,362.408971 215.236327,361.133775 C216.169056,360.10263 217.202864,358.088894 217.891216,356.616925 L219.366438,357.009195 Z" id="Fill-14"></path>
                    <path d="M222.366438,364.813699 L222.366438,363.434709 C226.343607,362.993842 226.731347,362.793914 226.731347,358.612089 L226.731347,339.066572 C226.731347,334.833483 226.343607,334.6374 222.366438,334.191407 L222.366438,332.813699 L235.366438,332.813699 L235.366438,334.191407 C231.341276,334.6374 230.95101,334.833483 230.95101,339.066572 L230.95101,358.612089 C230.95101,362.846459 231.341276,362.993842 235.366438,363.434709 L235.366438,364.813699 L222.366438,364.813699 Z" id="Fill-16"></path>
                    <path d="M274.366438,335.172523 C271.302275,335.513809 270.296262,335.999194 270.151655,338.232722 C270.105531,339.786206 270.008295,341.827603 270.008295,346.342692 L270.008295,365.813699 L268.19074,365.813699 L247.692756,340.414425 L247.692756,352.556628 C247.692756,356.926355 247.837363,359.11185 247.934599,360.519971 C248.028094,362.994928 249.224838,363.721741 252.676697,364.01373 L252.676697,365.375083 L241.037114,365.375083 L241.037114,364.01373 C244.007782,363.773566 245.153415,363.042961 245.350379,360.666598 C245.489999,359.11185 245.587235,356.926355 245.587235,352.506067 L245.587235,340.127492 C245.587235,338.767404 245.489999,337.988766 244.628593,336.920667 C243.719815,335.707205 242.712556,335.413951 240.366438,335.172523 L240.366438,333.813699 L247.55189,333.813699 L267.855402,358.23841 L267.855402,346.342692 C267.855402,341.827603 267.758167,339.739437 267.61356,338.280755 C267.4702,336.093996 266.369445,335.413951 262.54111,335.172523 L262.54111,333.813699 L274.366438,333.813699 L274.366438,335.172523 Z" id="Fill-18"></path>
                    <path d="M98.6832822,311.77632 C98.4490222,311.072682 98.3067491,310.646828 98.0234294,310.295621 C97.8124727,309.966441 97.5046231,309.710684 96.422857,309.710684 L94.7266182,309.710684 C94.0912953,309.710684 93.9956289,309.777988 93.9956289,310.340899 L93.9956289,314.007157 L95.9506575,314.007157 C97.4359396,314.007157 97.529153,313.916602 97.7891693,312.576631 L98.471099,312.576631 L98.471099,316.38117 L97.7891693,316.38117 C97.529153,314.972671 97.4592429,314.875997 95.9285806,314.875997 L93.9956289,314.875997 L93.9956289,317.276931 C93.9956289,318.899581 94.1366755,319.06356 95.9052773,319.155338 L95.9052773,319.813699 L90.3664384,319.813699 L90.3664384,319.155338 C91.8774768,319.014611 92.0884335,318.899581 92.0884335,317.276931 L92.0884335,311.400638 C92.0884335,309.732711 91.8774768,309.61401 90.3664384,309.545482 L90.3664384,308.8602 L96.6583435,308.8602 C97.5046231,308.8602 98.8476321,308.836949 99.1554817,308.813699 C99.1775586,309.261579 99.2732249,310.720251 99.3664384,311.702897 L98.6832822,311.77632 Z" id="Fill-20"></path>
                    <path d="M107.893974,310.592564 L106.253288,315.130072 L109.558734,315.130072 L107.893974,310.592564 Z M109.514196,319.813699 L109.514196,319.111807 L110.022171,319.063536 C110.760059,318.961774 110.921359,318.762166 110.575888,317.859361 L109.905409,316.129419 L105.906613,316.129419 L105.370952,317.757599 C105.097705,318.71259 105.304747,318.912198 106.136526,319.040052 L106.689038,319.111807 L106.689038,319.813699 L102.366438,319.813699 L102.366438,319.111807 C103.546095,318.961774 103.824157,318.810437 104.516303,317.007436 L108.056477,307.910241 L108.748623,307.813699 L112.423616,317.407958 C112.954461,318.863927 113.210856,318.961774 114.366438,319.111807 L114.366438,319.813699 L109.514196,319.813699 Z" id="Fill-22"></path>
                    <path d="M133.340965,309.473625 C131.505588,309.594058 131.356567,309.735383 131.382041,311.364922 L131.457188,317.288282 C131.528514,318.91905 131.676262,319.011218 133.366438,319.152543 L133.366438,319.813699 L127.712562,319.813699 L127.712562,319.152543 C129.330138,319.011218 129.500812,318.91905 129.525012,317.288282 L129.547938,310.488707 C128.078108,313.53764 125.804585,318.445918 125.242891,319.813699 L124.55765,319.813699 C123.994682,318.372184 121.891832,313.559761 120.54555,310.539092 C120.450024,313.959157 120.302277,316.981054 120.350677,317.949438 C120.373603,318.799845 120.717497,319.011218 122.159306,319.152543 L122.159306,319.813699 L117.366438,319.813699 L117.366438,319.152543 C118.613374,319.033339 119.00312,318.753147 119.127941,317.996136 C119.274415,317.123608 119.516414,314.032892 119.641235,310.961839 C119.688362,309.877937 119.516414,309.616179 117.780385,309.473625 L117.780385,308.813699 L121.745359,308.813699 L125.512912,316.769681 L129.401465,308.813699 L133.340965,308.813699 L133.340965,309.473625 Z" id="Fill-24"></path>
                    <path d="M138.366438,319.813699 L138.366438,319.152543 C140.076418,319.011218 140.286055,318.917821 140.286055,317.241584 L140.286055,311.411621 C140.286055,309.712034 140.102451,309.594058 138.366438,309.473625 L138.366438,308.813699 L144.366438,308.813699 L144.366438,309.473625 C142.605762,309.594058 142.420789,309.712034 142.420789,311.411621 L142.420789,317.241584 C142.420789,318.895701 142.630426,319.011218 144.366438,319.152543 L144.366438,319.813699 L138.366438,319.813699 Z" id="Fill-26"></path>
                    <path d="M159.366438,316.605007 C159.222868,317.311632 158.648586,319.341796 158.505015,319.813699 L149.366438,319.813699 L149.366438,319.177122 C151.09303,318.987869 151.287787,318.91905 151.287787,317.219463 L151.287787,311.364922 C151.287787,309.689914 151.045589,309.616179 149.510009,309.473625 L149.510009,308.813699 L155.074304,308.813699 L155.074304,309.473625 C153.418873,309.639528 153.227862,309.689914 153.227862,311.364922 L153.227862,317.311632 C153.227862,318.234545 153.396401,318.633942 153.802144,318.799845 C154.139222,318.91905 154.618623,318.94117 155.435103,318.94117 C156.730983,318.94117 157.137974,318.753147 157.519996,318.303365 C157.879547,317.903968 158.336476,317.123608 158.624865,316.439104 L159.366438,316.605007 Z" id="Fill-28"></path>
                    <path d="M163.366438,319.813699 L163.366438,319.152543 C165.076418,319.011218 165.286055,318.917821 165.286055,317.241584 L165.286055,311.411621 C165.286055,309.712034 165.102451,309.594058 163.366438,309.473625 L163.366438,308.813699 L169.366438,308.813699 L169.366438,309.473625 C167.605762,309.594058 167.420789,309.712034 167.420789,311.411621 L167.420789,317.241584 C167.420789,318.895701 167.630426,319.011218 169.366438,319.152543 L169.366438,319.813699 L163.366438,319.813699 Z" id="Fill-30"></path>
                    <path d="M184.366438,316.782887 C184.249796,317.417926 183.788035,319.297347 183.625698,319.813699 L174.366438,319.813699 L174.366438,319.17866 C176.283225,319.036724 176.39626,318.96698 176.39626,317.180551 L176.39626,311.470095 C176.39626,309.755857 176.18943,309.637169 174.712759,309.518482 L174.712759,308.860195 L180.534067,308.860195 C181.41069,308.860195 182.749074,308.836947 183.18919,308.813699 C183.212037,309.262753 183.28058,310.52916 183.39602,311.635278 L182.727429,311.703799 C182.520599,311.117703 182.381109,310.646624 182.174279,310.340729 C181.850806,309.874544 181.548978,309.732609 180.740897,309.732609 L178.93955,309.732609 C178.315452,309.732609 178.269757,309.732609 178.269757,310.390896 L178.269757,313.700684 L179.954461,313.700684 C181.294048,313.700684 181.41069,313.468204 181.617521,312.196902 L182.308959,312.196902 L182.308959,316.02916 L181.617521,316.02916 C181.364995,314.76153 181.316895,314.573098 179.954461,314.573098 L178.269757,314.573098 L178.269757,317.27599 C178.269757,318.286669 178.430892,318.779772 179.100686,318.871541 C179.402513,318.921708 179.747631,318.944956 180.463119,318.944956 C181.895298,318.944956 182.287314,318.826268 182.749074,318.308693 C183.028055,318.002798 183.32868,317.464422 183.719493,316.640951 L184.366438,316.782887 Z" id="Fill-32"></path>
                    <path d="M137.154153,261.164186 C95.233272,261.164186 51.6660735,213.157059 51.6660735,173.635048 C51.6686083,140.23322 66.4917975,187.738464 108.412679,185.104846 C150.253716,182.476298 222.643501,134.111769 222.643501,173.635048 C222.643501,213.157059 179.07757,261.164186 137.154153,261.164186 M182.888559,108.842726 C182.664234,108.747672 182.409492,108.683036 182.153483,108.619667 C174.265356,106.064626 151.052161,98.4020405 143.929527,95.8470003 C136.61552,93.1956391 129.144359,90.0347908 121.545193,86.3948723 C113.018311,82.3392529 106.5357,77.1658034 102.06441,70.8745238 C97.594387,64.5845116 95.3587418,56.6646473 95.3587418,47.1161984 C95.3587418,37.9517659 98.8414816,30.2232762 105.801892,23.8686276 C112.763569,17.5456634 121.194131,14.3531305 131.060626,14.3531305 C140.417638,14.3531305 148.336181,16.1414052 154.787108,19.7496391 C161.20635,23.3261885 166.664923,28.1485734 171.137481,34.1508901 C175.702557,40.4104852 179.438771,47.3722094 182.28022,55.0677472 C185.154621,62.763285 187.709644,70.8111548 190.008658,79.2417736 L202.654501,79.2417736 L201.37699,5.79450621 L188.923787,5.79450621 L182.537497,16.3974162 C175.862246,12.2454758 168.517822,8.60555741 160.470006,5.47512618 C152.391774,2.34596234 143.292039,0.81369863 133.104898,0.81369863 C124.162318,0.81369863 115.573334,2.34596234 107.367097,5.41175713 C99.1595921,8.47755192 92.0369584,12.6928613 86.0042651,18.0893699 C79.6800761,23.8052585 74.794355,30.3195972 71.3471017,37.6007014 C67.928998,44.8488537 66.2053713,52.7053489 66.2053713,61.1347004 C66.2053713,75.7602778 69.653892,87.6394405 76.5826177,96.740504 C80.159143,101.466568 84.534113,105.746514 89.6428917,109.514438 C58.18924,119.349315 34.3664384,139.946792 34.3664384,172.039415 C34.3664384,190.464601 42.2228807,210.934073 54.8687239,229.039878 C74.5712974,257.301209 105.928629,279.813699 137.351864,279.813699 C188.954204,279.813699 240.366438,219.205001 240.366438,172.039415 C240.366438,139.211711 215.460033,118.422859 182.888559,108.842726" id="Fill-34"></path>
                </g>
            </g>
        </g>
    </g>
</svg>