<?xml version="1.0" encoding="UTF-8"?>
<svg width="1000px" height="424px" viewBox="0 0 1000 424" version="1.1" xmlns="http://www.w3.org/2000/svg" xmlns:xlink="http://www.w3.org/1999/xlink">
    <!-- Generator: Sketch 62 (91390) - https://sketch.com -->
    <title>Group</title>
    <desc>Created with Sketch.</desc>
    <g id="Inhalte" stroke="none" stroke-width="1" fill="none" fill-rule="evenodd">
        <g id="Artboard-Copy-20" transform="translate(0.000000, -288.000000)">
            <g id="Group" transform="translate(0.000000, 288.000000)">
                <rect id="Rectangle" fill="#FFFFFF" x="0" y="0" width="1000" height="424"></rect>
                <path d="M46,202.968036 C45.9970908,238.651989 85.23893,282 122.997091,282 C160.758161,282 200,238.651989 200,202.968036 C200,167.284084 134.796698,210.949973 97.1083573,213.323848 C59.3531056,215.70064 46,172.807572 46,202.968036 L46,202.968036 Z M49.4103702,253.321371 C38.0543596,237.034557 31,218.620722 31,202.043332 C31,173.168743 52.3951301,154.638678 80.6415748,145.790623 C76.0527603,142.399595 72.1223914,138.552362 68.9113815,134.301227 C62.6866053,126.112781 59.5887204,115.425376 59.5887204,102.268071 C59.5887204,94.6840241 61.1405635,87.6172031 64.209442,81.0966659 C67.3044262,74.5441653 71.6930965,68.6832369 77.3725521,63.5429382 C82.79095,58.6874045 89.186864,54.8924751 96.5544929,52.1349039 C103.925022,49.3773327 111.640728,48 119.669703,48 C128.818326,48 136.995234,49.3773327 144.249737,52.195925 C151.475235,55.0087057 158.068392,58.2835031 164.064018,62.0174114 L169.801486,52.48069 L180.986359,52.48069 L182.129212,118.557791 L170.776102,118.557791 C168.707945,110.970838 166.413537,103.732577 163.834867,96.8110442 C161.282303,89.8866057 157.926261,83.6217759 153.824754,77.9904029 C149.810267,72.5914911 144.908183,68.2531836 139.144609,65.0335957 C133.352028,61.787856 126.239656,60.1809678 117.833597,60.1809678 C108.972138,60.1809678 101.404365,63.0547696 95.1505825,68.7413522 C88.8997005,74.4598981 85.7728092,81.4104885 85.7728092,89.6541445 C85.7728092,98.2464922 87.780053,105.368523 91.7974412,111.031859 C95.809028,116.689384 101.630615,121.34442 109.291209,124.991155 C116.113517,128.265953 122.825601,131.113603 129.389752,133.49633 C135.788567,135.79479 156.635476,142.690171 163.718842,144.988632 C163.950893,145.046747 164.180044,145.101956 164.380188,145.186224 C193.630254,153.807629 216,172.509134 216,202.043332 C216,244.473316 169.830493,299 123.484046,299 C95.2666081,299 67.104282,278.746816 49.4103702,253.321371 L49.4103702,253.321371 Z M157,333.42444 L157,334 L165.332721,334 C165.47886,333.529345 165.895221,331.825347 166,331.246952 L165.415441,331.11653 C165.065257,331.862206 164.797794,332.355543 164.544118,332.633399 C164.127757,333.104054 163.774816,333.211795 162.487132,333.211795 C161.844669,333.211795 161.533088,333.191948 161.26011,333.143748 C160.661765,333.061525 160.515625,332.613553 160.515625,331.694925 L160.515625,329.23958 L162.029412,329.23958 C163.256434,329.23958 163.300551,329.406861 163.526654,330.557981 L164.149816,330.557981 L164.149816,327.076269 L163.526654,327.076269 C163.339154,328.230224 163.234375,328.442869 162.029412,328.442869 L160.515625,328.442869 L160.515625,325.434647 C160.515625,324.836405 160.551471,324.836405 161.116728,324.836405 L162.735294,324.836405 C163.465993,324.836405 163.736213,324.963992 164.025735,325.389283 C164.213235,325.667139 164.337316,326.095265 164.524816,326.628296 L165.125919,326.563085 C165.023897,325.559399 164.960478,324.405444 164.941176,324 C164.544118,324.022682 163.339154,324.039694 162.550551,324.039694 L157.311581,324.039694 L157.311581,324.640771 C158.640625,324.748511 158.828125,324.859087 158.828125,326.412815 L158.828125,331.607031 C158.828125,333.231642 158.726103,333.294018 157,333.42444 L157,333.42444 Z M152,324.603473 L152,324 L147,324 L147,324.603473 C148.44438,324.711642 148.595807,324.822659 148.595807,326.3655 L148.595807,331.665813 C148.595807,333.188728 148.423995,333.271278 147,333.399374 L147,334 L152,334 L152,333.399374 C150.552708,333.271278 150.377985,333.165955 150.377985,331.665813 L150.377985,326.3655 C150.377985,324.822659 150.529412,324.711642 152,324.603473 L152,324.603473 Z M135,333.422146 L135,334 L143.22399,334 C143.352848,333.573015 143.874006,331.725591 144,331.085112 L143.332803,330.934244 C143.072224,331.554796 142.662743,332.266439 142.339166,332.627953 C141.992682,333.037859 141.629017,333.208654 140.460706,333.208654 C139.727649,333.208654 139.295259,333.188728 138.991728,333.077711 C138.625199,332.926843 138.476297,332.565329 138.476297,331.725591 L138.476297,326.322801 C138.476297,324.799886 138.648107,324.754341 140.13713,324.603473 L140.13713,324 L135.131721,324 L135.131721,324.603473 C136.511931,324.731568 136.729558,324.799886 136.729558,326.322801 L136.729558,331.64304 C136.729558,333.188728 136.55202,333.251352 135,333.422146 L135,333.422146 Z M130,324.603473 L130,324 L125,324 L125,324.603473 C126.446449,324.711642 126.597788,324.822659 126.597788,326.3655 L126.597788,331.665813 C126.597788,333.188728 126.426077,333.271278 125,333.399374 L125,334 L130,334 L130,333.399374 C128.55064,333.271278 128.378929,333.165955 128.378929,331.665813 L128.378929,326.3655 C128.378929,324.822659 128.533178,324.711642 130,324.603473 L130,324.603473 Z M110.494827,333.399374 C109.140596,333.271278 108.821059,333.077711 108.796713,332.306291 C108.754108,331.426701 108.88801,328.679761 108.982349,325.571307 C110.245283,328.318247 112.214242,332.690578 112.740718,334 L113.382836,334 C113.912355,332.758896 116.045648,328.295474 117.421181,325.525761 L117.399878,331.705665 C117.378576,333.188728 117.217285,333.271278 115.701765,333.399374 L115.701765,334 L121,334 L121,333.399374 C119.414486,333.271278 119.280584,333.188728 119.21059,331.705665 L119.140596,326.322801 C119.119294,324.839738 119.256239,324.711642 120.978698,324.603473 L120.978698,324 L117.281193,324 L113.638466,331.235981 L110.105295,324 L106.386488,324 L106.386488,324.603473 C108.014607,324.731568 108.175898,324.97068 108.133293,325.955594 C108.014607,328.745232 107.78941,331.554796 107.652465,332.348989 C107.53378,333.037859 107.168594,333.291204 106,333.399374 L106,334 L110.494827,334 L110.494827,333.399374 Z M99,330 L97.4888683,326 L96,330 L99,330 Z M99.5264638,332.37074 L98.9133214,330.932668 L95.2429046,330.932668 L94.7563283,332.287614 C94.5031961,333.082848 94.6944515,333.249099 95.4594733,333.357163 L95.9629251,333.415351 L95.9629251,334 L92,334 L92,333.415351 C93.0800307,333.290662 93.338788,333.163203 93.9716185,331.661402 L97.2173357,324.080355 L97.8529788,324 L101.219637,331.996675 C101.709026,333.210308 101.94247,333.290662 103,333.415351 L103,334 L98.5504986,334 L98.5504986,333.415351 L99.0173869,333.376559 C99.692406,333.290662 99.8414728,333.124411 99.5264638,332.37074 L99.5264638,332.37074 Z M84.8735672,324.813723 L86.3824245,324.813723 C87.3438694,324.813723 87.6189649,325.046215 87.8051407,325.343918 C88.0580063,325.667139 88.1858284,326.052736 88.3914554,326.693507 L89,326.628296 C88.9166377,325.73235 88.8304967,324.405444 88.8110455,324 C88.5387287,324.022682 87.3438694,324.039694 86.5908301,324.039694 L81,324.039694 L81,324.663453 C82.3421327,324.728665 82.5310872,324.836405 82.5310872,326.353275 L82.5310872,331.694925 C82.5310872,333.169266 82.3421327,333.274171 81,333.401758 L81,334 L85.9211532,334 L85.9211532,333.401758 C84.3511636,333.319535 84.2233414,333.169266 84.2233414,331.694925 L84.2233414,329.511766 L85.9433831,329.511766 C87.304967,329.511766 87.3660993,329.596824 87.5995137,330.881202 L88.2052796,330.881202 L88.2052796,327.422172 L87.5995137,327.422172 C87.3660993,328.641338 87.2855158,328.723561 85.9656131,328.723561 L84.2233414,328.723561 L84.2233414,325.389283 C84.2233414,324.876099 84.3094825,324.813723 84.8735672,324.813723 L84.8735672,324.813723 Z M236.215754,347 L236.215754,348.231931 C239.706223,348.450876 240.711362,349.066841 240.844608,351.049024 C240.974958,352.371452 241.064754,354.263137 241.064754,358.35303 L241.064754,369.133884 L222.552233,347 L216,347 L216,348.231931 C218.140628,348.450876 219.055971,348.716529 219.881517,349.817093 C220.669408,350.78337 220.759204,351.486914 220.759204,352.721764 L220.759204,363.940507 C220.759204,367.945742 220.669408,369.927924 220.541955,371.335011 C220.362362,373.48943 219.319566,374.152104 216.611194,374.36813 L216.611194,375.60006 L227.224537,375.60006 L227.224537,374.36813 C224.075874,374.105396 222.983835,373.445641 222.896935,371.200725 C222.810036,369.927924 222.676789,367.945742 222.676789,363.987216 L222.676789,352.981578 L241.368903,376 L243.02579,376 L243.02579,358.35303 C243.02579,354.263137 243.112689,352.415241 243.159036,351.005235 C243.286489,348.982182 244.204728,348.541373 247,348.231931 L247,347 L236.215754,347 Z M201,348.206083 C204.36618,348.597632 204.695717,348.769113 204.695717,352.470246 L204.695717,369.575482 C204.695717,373.233745 204.36618,373.410942 201,373.793917 L201,375 L212,375 L212,373.793917 C208.592969,373.410942 208.263432,373.282331 208.263432,369.575482 L208.263432,352.470246 C208.263432,348.769113 208.592969,348.597632 212,348.206083 L212,347 L201,347 L201,348.206083 Z M193.345498,371.779972 C192.387886,372.897008 191.955229,373.287401 189.30449,373.287401 L185.260597,373.287401 C183.085779,373.238958 182.125282,372.985345 182.125282,369.976186 L182.125282,361.430287 L186.910459,361.430287 C190.045774,361.430287 190.389014,361.860574 190.957236,364.949522 L192.301354,364.949522 L192.301354,356.101567 L190.957236,356.101567 C190.43228,359.02239 190.215952,359.669245 186.956609,359.669245 L182.125282,359.669245 L182.125282,350.174435 C182.125282,348.929168 182.214698,348.800936 183.564585,348.800936 L187.692124,348.800936 C190.299599,348.800936 191.303361,349.100142 191.995611,350.519235 C192.474417,351.425402 192.912842,352.32587 193.302232,353.784857 L194.608854,353.571138 C194.432907,351.294321 194.259844,348.074293 194.216579,347 C193.691623,347.039894 191.995611,347.082638 187.911337,347.082638 L174.608603,347.082638 L174.608603,348.285162 C177.87083,348.587218 178.346752,348.800936 178.346752,352.622227 L178.346752,369.591492 C178.346752,373.113576 178.041008,373.49827 174,373.797476 L174,375 L195.130926,375 C195.563582,373.714838 196.737522,369.289436 197,368.1724 L195.693378,367.83045 C195.084776,369.118461 194.170429,370.879503 193.345498,371.779972 L193.345498,371.779972 Z M162.824347,348.228345 C166.598568,348.667871 166.958298,349.241293 166.288964,351.782395 C165.312974,355.598414 162.777169,363.40801 160.910699,369.247014 C158.330666,361.786711 155.844987,354.859079 153.356361,347.395865 L151.932182,347.395865 C149.664701,354.591288 146.999158,362.226237 144.55476,369.200442 C142.72957,363.015056 140.957456,357.176051 139.223673,351.252635 C138.601516,349.060825 138.689975,348.577637 141.977675,348.228345 L141.977675,347 L131,347 L131,348.228345 C133.886689,348.536886 134.379107,349.020074 135.534962,352.571213 C137.932182,360.249824 140.467987,368.455285 142.691238,376 L144.153749,376 C146.468408,369.247014 149.092671,361.743049 151.669756,354.195423 C153.981466,360.689351 156.956613,369.15678 159.268324,376 L160.778012,376 C163.222409,368.149654 166.781382,357.004316 168.246841,352.617786 C169.443976,349.020074 169.889217,348.667871 173,348.228345 L173,347 L162.824347,347 L162.824347,348.228345 Z M121.678505,360.732413 C123.327103,359.470614 124,357.722618 124,355.369768 C124,350.701692 120.997196,349 117.742056,349 C116.519626,349 115.804673,349.173642 115.507477,349.436999 C115.126168,349.743767 115,350.180766 115,351.312333 L115,362 L117.027103,362 C119.22243,362 120.621495,361.652716 121.678505,360.732413 L121.678505,360.732413 Z M129.821516,372.739766 C130.997555,374.020468 131.997333,374.505848 133,374.766082 L132.826628,376 C132.26317,376 131.783507,375.959064 131.21427,375.915205 C128.035786,375.692982 126.336741,374.856725 124.420982,372.122807 C122.808624,369.874269 121.239609,367.096491 119.849744,364.850877 C118.977106,363.438596 118.407868,363.175439 116.188709,363.175439 L114.665926,363.175439 L114.665926,370.096491 C114.665926,373.839181 115.142698,374.061404 118.627473,374.412281 L118.627473,375.646199 L107,375.646199 L107,374.412281 C110.611914,374.020468 110.918204,373.839181 110.918204,370.096491 L110.918204,352.508772 C110.918204,348.763158 110.438542,348.634503 107,348.233918 L107,347 L118.101578,347 C121.285841,347 123.418315,347.397661 125.071127,348.5 C126.859747,349.646199 128.035786,351.628655 128.035786,354.315789 C128.035786,358.108187 125.640365,360.488304 122.412758,361.894737 C123.198711,363.266082 125.071127,366.219298 126.380084,368.19883 C127.989553,370.535088 128.818849,371.637427 129.821516,372.739766 L129.821516,372.739766 Z M100.343072,371.779972 C99.3884639,372.897008 98.9529781,373.287401 96.3054545,373.287401 L92.262069,373.287401 C90.0875235,373.238958 89.1300313,372.985345 89.1300313,369.976186 L89.1300313,361.430287 L93.9117241,361.430287 C97.0437618,361.430287 97.3898433,361.860574 97.9551097,364.949522 L99.3019436,364.949522 L99.3019436,356.101567 L97.9551097,356.101567 C97.4331034,359.02239 97.2168025,359.669245 93.9549843,359.669245 L89.1300313,359.669245 L89.1300313,350.174435 C89.1300313,348.929168 89.2165517,348.800936 90.5662696,348.800936 L94.6932915,348.800936 C97.3033229,348.800936 98.3040752,349.100142 98.9991223,350.519235 C99.4778683,351.425402 99.9104702,352.32587 100.30558,353.784857 L101.60627,353.571138 C101.430345,351.294321 101.260188,348.074293 101.216928,347 C100.692038,347.039894 98.9991223,347.082638 94.9153605,347.082638 L81.6085266,347.082638 L81.6085266,348.285162 C84.8703448,348.587218 85.3490909,348.800936 85.3490909,352.622227 L85.3490909,369.591492 C85.3490909,373.113576 85.0462696,373.49827 81,373.797476 L81,375 L102.128276,375 C102.563762,373.714838 103.734671,369.289436 104,368.1724 L102.693542,367.83045 C102.085016,369.118461 101.170784,370.879503 100.343072,371.779972 L100.343072,371.779972 Z M68.5029014,348.2227 C71.737911,348.399441 72.7446809,349.141173 72.8752418,351.105605 C72.9651838,352.284844 73.0957447,353.945049 73.0957447,357.963733 L73.0957447,362.417025 C73.0957447,369.6663 71.1257253,373.51114 64.9168279,373.51114 C59.6682785,373.51114 56.6508704,370.016885 56.6508704,363.639724 L56.6508704,352.72235 C56.6508704,348.793486 57.0019342,348.440004 60.5009671,348.2227 L60.5009671,347 L49,347 L49,348.2227 C52.4961315,348.529823 52.844294,348.793486 52.844294,352.72235 L52.844294,363.859926 C52.844294,368.968029 54.1121857,371.978419 56.7350097,373.992107 C58.6615087,375.475572 61.3742747,376 63.910058,376 C66.9303675,376 69.901354,375.348087 71.9555126,373.204016 C74.4941973,370.541313 75.0193424,367.136877 75.0193424,362.67779 L75.0193424,357.963733 C75.0193424,353.945049 75.1034816,352.111 75.1499033,351.105605 C75.2369439,349.097712 76.2437137,348.399441 79,348.2227 L79,347 L68.5029014,347 L68.5029014,348.2227 Z M38,363 L34.1049645,352 C32.7375887,355.695179 31.2822695,359.60705 30,363 L38,363 Z M49,373.777178 L49,375 L38.1439485,375 L38.1439485,373.777178 C41.0008042,373.429456 41.3564536,372.991906 40.7384399,371.334432 C40.1670688,369.630596 39.289606,367.445743 38.3684158,364.695843 L28.8766586,364.695843 C28.1711902,366.657574 27.5123643,368.361411 26.8943506,370.155076 C25.9323482,372.991906 26.5474467,373.342526 30.1476679,373.777178 L30.1476679,375 L20,375 L20,373.777178 C22.7664857,373.429456 23.4661238,373.1252 25.0082429,369.193046 L34.1035384,346.260791 L35.508645,346 C38.2751307,353.470224 41.3068959,361.722822 44.0792119,369.279976 C45.4843185,373.081735 45.8807801,373.429456 49,373.777178 L49,373.777178 Z M18,368.097606 C18,372.585735 13.9090909,376 8.10119443,376 C5.39880557,376 3.06071666,375.271812 1.21532847,374.591793 C0.854014599,373.393258 0.313536828,370.489008 0,368.185442 L1.39449237,367.842599 C2.29031188,370.704348 4.27305906,374.418955 8.95819509,374.418955 C12.1950896,374.418955 14.1778368,372.285393 14.1778368,369.508647 C14.1778368,366.221886 12.3324486,364.895848 8.36695421,362.847289 C3.64299934,360.413385 0.988387525,358.361993 0.988387525,354.389546 C0.988387525,350.587103 4.3208361,347 10.2601194,347 C12.7833444,347 15.2558062,347.640352 16.1994028,347.816023 C16.3815528,349.351734 16.5637027,351.05745 16.9250166,353.834196 L15.5275382,354.089204 C14.7601194,351.269956 13.5,348.496043 9.27173192,348.496043 C5.76011944,348.496043 4.54180491,350.929946 4.54180491,353.151343 C4.54180491,356.095261 6.52455209,357.594138 10.2601194,359.427357 C15.6648971,362.079433 18,364.040156 18,368.097606 L18,368.097606 Z" id="Fill-1" fill="#000000"></path>
            </g>
        </g>
    </g>
</svg>