<?xml version="1.0" encoding="UTF-8"?>
<svg width="367px" height="367px" viewBox="0 0 367 367" version="1.1" xmlns="http://www.w3.org/2000/svg" xmlns:xlink="http://www.w3.org/1999/xlink">
    <!-- Generator: Sketch 57.1 (83088) - https://sketch.com -->
    <title>Familie Sauerwein  Copy 3</title>
    <desc>Created with Sketch.</desc>
    <g id="New" stroke="none" stroke-width="1" fill="none" fill-rule="evenodd">
        <g id="Artboard" transform="translate(-786.000000, -20.000000)">
            <g id="Familie-Sauerwein--Copy-3" transform="translate(786.000000, 20.000000)">
                <rect id="Rectangle" fill="#FFFFFF" x="0" y="0" width="367" height="367"></rect>
                <g id="Group" transform="translate(59.133562, 19.186301)" fill="#000206">
                    <path d="M15.5306534,305.148361 C14.8070137,302.231519 13.6175448,299.360683 9.62314234,299.360683 C6.30701373,299.360683 5.1584847,301.878415 5.1584847,304.177614 C5.1584847,307.224426 7.0306534,308.771411 10.5570137,310.671499 C15.6578989,313.412364 17.8664384,315.441272 17.8664384,319.640559 C17.8664384,324.280363 14.0003878,327.813699 8.51887262,327.813699 C5.96732354,327.813699 3.75657113,327.061485 2.01607387,326.355277 C1.67306423,325.11884 1.16518868,322.114584 0.866438356,319.730273 L2.18536572,319.373719 C3.03293146,322.334268 4.90510016,326.179301 9.3254985,326.179301 C12.3838166,326.179301 14.2570918,323.970966 14.2570918,321.09668 C14.2570918,317.696764 12.5121686,316.326906 8.77225715,314.207135 C4.30981248,311.689403 1.80141623,309.566181 1.80141623,305.458908 C1.80141623,301.526462 4.94714651,297.813699 10.5570137,297.813699 C12.9381645,297.813699 15.2750559,298.475049 16.1668809,298.654476 C16.3372793,300.245167 16.5065711,302.010685 16.8484743,304.882671 L15.5306534,305.148361 Z" id="Fill-2"></path>
                    <path d="M34.6189331,303.534795 C33.2131429,307.290117 31.7204201,311.266006 30.4004186,314.71549 L38.6178287,314.71549 L34.6189331,303.534795 Z M39.0124566,326.813699 L39.0124566,325.589211 C41.8675033,325.242444 42.2209526,324.804721 41.6055619,323.143647 C41.0324937,321.440507 40.1574493,319.25644 39.2332194,316.507312 L29.7415616,316.507312 C29.0369507,318.470812 28.3792376,320.173953 27.7638469,321.966911 C26.7972947,324.804721 27.4126853,325.152625 31.0158092,325.589211 L31.0158092,326.813699 L20.8664384,326.813699 L20.8664384,325.589211 C23.6345526,325.242444 24.3357319,324.935469 25.8742086,321.006195 L34.9689509,298.076332 L36.3747411,297.813699 C39.1439992,305.281139 42.1740548,313.535344 44.9433129,321.091466 C46.350247,324.893402 46.7471625,325.242444 49.8664384,325.589211 L49.8664384,326.813699 L39.0124566,326.813699 Z" id="Fill-4"></path>
                    <path d="M79.8664384,300.035912 C77.1103954,300.209864 76.1017816,300.911358 76.0164023,302.920336 C75.9708667,303.92312 75.8854874,305.758145 75.8854874,309.776101 L75.8854874,314.49214 C75.8854874,318.947819 75.3618279,322.355236 72.8220791,325.019093 C70.7684229,327.15882 67.7949474,327.813699 64.7759363,327.813699 C62.2407411,327.813699 59.5313721,327.290705 57.6040773,325.804721 C54.981226,323.794606 53.7119208,320.782844 53.7119208,315.672286 L53.7119208,304.534795 C53.7119208,300.60552 53.3647118,300.342887 49.8664384,300.035912 L49.8664384,298.813699 L61.3687341,298.813699 L61.3687341,300.035912 C57.8681839,300.253068 57.5186981,300.60552 57.5186981,304.534795 L57.5186981,315.452857 C57.5186981,321.828832 60.5354324,325.323794 65.7834118,325.323794 C71.9933309,325.323794 73.9616078,321.47979 73.9616078,314.228369 L73.9616078,309.776101 C73.9616078,305.758145 73.8306929,304.097072 73.7418985,302.920336 C73.6098452,300.954562 72.6057849,300.209864 69.3693413,300.035912 L69.3693413,298.813699 L79.8664384,298.813699 L79.8664384,300.035912 Z" id="Fill-6"></path>
                    <path d="M103.866438,319.740867 C103.604998,320.899987 102.427948,325.482042 101.99674,326.813699 L80.8664384,326.813699 L80.8664384,325.567732 C84.9091507,325.257398 85.2135991,324.859059 85.2135991,321.211479 L85.2135991,303.638247 C85.2135991,299.679175 84.7359886,299.458005 81.4753351,299.146513 L81.4753351,297.901704 L94.7793898,297.901704 C98.863978,297.901704 100.559382,297.857701 101.083395,297.813699 C101.125271,298.925342 101.298433,302.261431 101.472727,304.619041 L100.17005,304.840212 C99.7773231,303.33023 99.3415884,302.395754 98.863978,301.461279 C98.1701978,299.990667 97.168574,299.679175 94.5586931,299.679175 L90.4322291,299.679175 C89.0820175,299.679175 88.9937388,299.813499 88.9937388,301.102311 L88.9937388,310.935724 L93.8230371,310.935724 C97.0836906,310.935724 97.2987285,310.265264 97.8227419,307.241825 L99.1684263,307.241825 L99.1684263,316.404778 L97.8227419,316.404778 C97.2568527,313.203013 96.9105285,312.758356 93.7766342,312.758356 L88.9937388,312.758356 L88.9937388,321.609817 C88.9937388,324.724735 89.9534869,324.988751 92.1276331,325.036227 L96.1692137,325.036227 C98.8209704,325.036227 99.2567051,324.634414 100.211926,323.478768 C101.036992,322.544293 101.951469,320.719345 102.560366,319.385372 L103.866438,319.740867 Z" id="Fill-8"></path>
                    <path d="M117.62154,313.490969 C119.883445,313.490969 121.324488,313.138723 122.412924,312.213936 C124.111336,310.935756 124.806348,309.16994 124.806348,306.791424 C124.806348,302.075697 121.713377,300.356923 118.358502,300.356923 C117.096597,300.356923 116.359636,300.532472 116.053513,300.797517 C115.661223,301.106162 115.52857,301.547902 115.52857,302.692986 L115.52857,313.490969 L117.62154,313.490969 Z M133.689568,327.813699 C133.126076,327.813699 132.647617,327.771246 132.07959,327.727645 C128.898184,327.506201 127.203173,326.668615 125.284806,323.937853 C123.674828,321.68899 122.107935,318.911186 120.714511,316.664619 C119.841495,315.253343 119.274602,314.988298 117.054647,314.988298 L115.52857,314.988298 L115.52857,321.910435 C115.52857,325.654332 116.008162,325.876923 119.493422,326.228021 L119.493422,327.462601 L107.866438,327.462601 L107.866438,326.228021 C111.479817,325.833323 111.784806,325.654332 111.784806,321.910435 L111.784806,304.322264 C111.784806,300.574925 111.306348,300.446419 107.866438,300.047131 L107.866438,298.813699 L118.968479,298.813699 C122.149885,298.813699 124.284806,299.211839 125.937867,300.313323 C127.724715,301.458407 128.898184,303.442225 128.898184,306.130533 C128.898184,309.920326 126.50476,312.299989 123.281404,313.710118 C124.065985,315.077794 125.937867,318.031147 127.246257,320.01267 C128.856234,322.348733 129.686166,323.450217 130.685032,324.552848 C131.864171,325.833323 132.863037,326.318664 133.866438,326.579119 L133.689568,327.813699 Z" id="Fill-10"></path>
                    <path d="M171.866438,300.041496 C168.828314,300.481219 168.393489,300.830713 167.224545,304.428444 C165.793577,308.816534 162.320628,319.961507 159.936434,327.813699 L158.46029,327.813699 C156.202591,320.968872 153.298866,312.50221 151.042296,306.008019 C148.525961,313.556403 145.964449,321.057958 143.70675,327.813699 L142.276912,327.813699 C140.108436,320.268742 137.635019,312.062488 135.292613,304.386185 C134.165458,300.830713 133.685457,300.349873 130.866438,300.041496 L130.866438,298.813699 L141.584581,298.813699 L141.584581,300.041496 C138.373656,300.392132 138.285561,300.874114 138.893186,303.067017 C140.585049,308.991281 142.319829,314.827601 144.099786,321.015699 C146.48398,314.038385 149.08728,306.404341 151.303191,299.208878 L152.690112,299.208878 C155.118353,306.669317 157.547723,313.598662 160.064058,321.057958 C161.885804,315.220496 164.359221,307.411706 165.312447,303.595826 C165.966378,301.053429 165.617389,300.481219 161.93211,300.041496 L161.93211,298.813699 L171.866438,298.813699 L171.866438,300.041496 Z" id="Fill-12"></path>
                    <path d="M196.866438,319.740867 C196.604985,320.899987 195.429009,325.482042 194.99778,326.813699 L173.866438,326.813699 L173.866438,325.567732 C177.90935,325.257398 178.213813,324.859059 178.213813,321.211479 L178.213813,303.638247 C178.213813,299.679175 177.736179,299.458005 174.475365,299.146513 L174.475365,297.901704 L187.780074,297.901704 C191.864864,297.901704 193.560351,297.857701 194.08439,297.813699 C194.126268,298.925342 194.299439,302.261431 194.473741,304.619041 L193.171,304.840212 C192.778254,303.33023 192.342498,302.395754 191.864864,301.461279 C191.171049,299.990667 190.169376,299.679175 187.559367,299.679175 L183.431568,299.679175 C182.082422,299.679175 181.994139,299.813499 181.994139,301.102311 L181.994139,310.935724 L186.823675,310.935724 C190.084489,310.935724 190.299537,310.265264 190.823576,307.241825 L192.169327,307.241825 L192.169327,316.404778 L190.823576,316.404778 C190.257659,313.203013 189.910186,312.758356 186.77727,312.758356 L181.994139,312.758356 L181.994139,321.609817 C181.994139,324.724735 182.953934,324.988751 185.128187,325.036227 L189.169967,325.036227 C191.821854,325.036227 192.25761,324.634414 193.212878,323.478768 C194.037985,322.544293 194.952507,320.719345 195.561434,319.385372 L196.866438,319.740867 Z" id="Fill-14"></path>
                    <path d="M199.866438,326.813699 L199.866438,325.563989 C203.537671,325.164454 203.895584,324.983269 203.895584,321.19349 L203.895584,303.480365 C203.895584,299.644128 203.537671,299.466428 199.866438,299.062247 L199.866438,297.813699 L211.866438,297.813699 L211.866438,299.062247 C208.150904,299.466428 207.790659,299.644128 207.790659,303.480365 L207.790659,321.19349 C207.790659,325.030888 208.150904,325.164454 211.866438,325.563989 L211.866438,326.813699 L199.866438,326.813699 Z" id="Fill-16"></path>
                    <path d="M245.866438,300.045133 C243.162765,300.354424 242.275106,300.794304 242.147512,302.818439 C242.106814,304.226284 242.021018,306.076299 242.021018,310.168099 L242.021018,327.813699 L240.417293,327.813699 L222.330837,304.795607 L222.330837,315.799478 C222.330837,319.759543 222.458431,321.740148 222.544227,323.016258 C222.626723,325.259188 223.682674,325.917862 226.728431,326.182477 L226.728431,327.416203 L216.458211,327.416203 L216.458211,326.182477 C219.079388,325.964828 220.090241,325.302717 220.264033,323.149139 C220.387227,321.740148 220.473023,319.759543 220.473023,315.753658 L220.473023,304.535574 C220.473023,303.302994 220.387227,302.597353 219.627163,301.629388 C218.8253,300.529689 217.936542,300.263928 215.866438,300.045133 L215.866438,298.813699 L222.206542,298.813699 L240.121406,320.948594 L240.121406,310.168099 C240.121406,306.076299 240.03561,304.183899 239.908016,302.861968 C239.781522,300.880218 238.810268,300.263928 235.432325,300.045133 L235.432325,298.813699 L245.866438,298.813699 L245.866438,300.045133 Z" id="Fill-18"></path>
                    <path d="M89.2591884,279.50699 C89.0509573,278.86732 88.9244923,278.48018 88.6726526,278.160901 C88.4851355,277.861646 88.2114915,277.62914 87.2499216,277.62914 L85.7421538,277.62914 C85.1774223,277.62914 85.0923855,277.690326 85.0923855,278.202062 L85.0923855,281.535025 L86.8301887,281.535025 C88.1504394,281.535025 88.2332958,281.452702 88.4644215,280.234546 L89.0705812,280.234546 L89.0705812,283.693218 L88.4644215,283.693218 C88.2332958,282.412764 88.1711535,282.324879 86.8105648,282.324879 L85.0923855,282.324879 L85.0923855,284.507547 C85.0923855,285.982683 85.2177602,286.131754 86.7898507,286.215189 L86.7898507,286.813699 L81.8664384,286.813699 L81.8664384,286.215189 C83.2095836,286.087255 83.3971007,285.982683 83.3971007,284.507547 L83.3971007,279.165462 C83.3971007,277.649164 83.2095836,277.541255 81.8664384,277.478956 L81.8664384,276.855973 L87.4592429,276.855973 C88.2114915,276.855973 89.4052773,276.834836 89.6789213,276.813699 C89.6985452,277.220863 89.783582,278.546928 89.8664384,279.440242 L89.2591884,279.50699 Z" id="Fill-20"></path>
                    <path d="M97.9333458,278.360992 L96.4293835,282.520374 L99.4593765,282.520374 L97.9333458,278.360992 Z M99.4185499,286.813699 L99.4185499,286.170298 L99.8841934,286.126049 C100.56059,286.032768 100.708449,285.849793 100.391767,285.022222 L99.7771616,283.436443 L96.1115984,283.436443 L95.6205762,284.928941 C95.3700997,285.804349 95.5598881,285.987323 96.3223517,286.104523 L96.8288217,286.170298 L96.8288217,286.813699 L92.8664384,286.813699 L92.8664384,286.170298 C93.9477905,286.032768 94.2026807,285.894042 94.8371476,284.241292 L98.0823076,275.902196 L98.7167744,275.813699 L102.085518,284.608437 C102.572126,285.943075 102.807155,286.032768 103.866438,286.170298 L103.866438,286.813699 L99.4185499,286.813699 Z" id="Fill-22"></path>
                    <path d="M119.844149,277.413632 C118.238194,277.523117 118.107801,277.651594 118.130091,279.132993 L118.195845,284.517866 C118.258255,286.000382 118.387534,286.084171 119.866438,286.212648 L119.866438,286.813699 L114.919296,286.813699 L114.919296,286.212648 C116.334676,286.084171 116.484015,286.000382 116.50519,284.517866 L116.525251,278.336434 C115.23915,281.108191 113.249817,285.570262 112.758335,286.813699 L112.158748,286.813699 C111.666152,285.503231 109.826158,281.1283 108.648161,278.382238 C108.564576,281.491388 108.435297,284.238567 108.477647,285.118916 C108.497707,285.892014 108.798615,286.084171 110.060197,286.212648 L110.060197,286.813699 L105.866438,286.813699 L105.866438,286.212648 C106.957507,286.104281 107.298535,285.849561 107.407753,285.161369 C107.535918,284.368162 107.747667,281.55842 107.856886,278.766553 C107.898121,277.781188 107.747667,277.543226 106.228642,277.413632 L106.228642,276.813699 L109.697994,276.813699 L112.994603,284.04641 L116.397086,276.813699 L119.844149,276.813699 L119.844149,277.413632 Z" id="Fill-24"></path>
                    <path d="M124.866438,286.813699 L124.866438,286.212648 C126.291421,286.084171 126.466119,285.999264 126.466119,284.475412 L126.466119,279.175446 C126.466119,277.630367 126.313116,277.523117 124.866438,277.413632 L124.866438,276.813699 L129.866438,276.813699 L129.866438,277.413632 C128.399208,277.523117 128.245064,277.630367 128.245064,279.175446 L128.245064,284.475412 C128.245064,285.979155 128.419761,286.084171 129.866438,286.212648 L129.866438,286.813699 L124.866438,286.813699 Z" id="Fill-26"></path>
                    <path d="M143.866438,283.896706 C143.737225,284.539092 143.220371,286.384696 143.091157,286.813699 L134.866438,286.813699 L134.866438,286.234992 C136.420371,286.062945 136.595652,286.000382 136.595652,284.455303 L136.595652,279.132993 C136.595652,277.610258 136.377674,277.543226 134.995652,277.413632 L134.995652,276.813699 L140.003517,276.813699 L140.003517,277.413632 C138.513629,277.564453 138.341719,277.610258 138.341719,279.132993 L138.341719,284.539092 C138.341719,285.378105 138.493405,285.741193 138.858573,285.892014 C139.161944,286.000382 139.593405,286.020491 140.328236,286.020491 C141.494528,286.020491 141.86082,285.849561 142.204641,285.440668 C142.528236,285.07758 142.939472,284.368162 143.199023,283.745885 L143.866438,283.896706 Z" id="Fill-28"></path>
                    <path d="M146.866438,286.813699 L146.866438,286.212648 C148.291421,286.084171 148.466119,285.999264 148.466119,284.475412 L148.466119,279.175446 C148.466119,277.630367 148.313116,277.523117 146.866438,277.413632 L146.866438,276.813699 L151.866438,276.813699 L151.866438,277.413632 C150.399208,277.523117 150.245064,277.630367 150.245064,279.175446 L150.245064,284.475412 C150.245064,285.979155 150.419761,286.084171 151.866438,286.212648 L151.866438,286.813699 L146.866438,286.813699 Z" id="Fill-30"></path>
                    <path d="M165.866438,284.058415 C165.76146,284.635723 165.345876,286.344288 165.199772,286.813699 L156.866438,286.813699 L156.866438,286.236391 C158.591547,286.107358 158.693278,286.043954 158.693278,284.419928 L158.693278,279.228604 C158.693278,277.670206 158.507131,277.562308 157.178127,277.454411 L157.178127,276.855968 L162.417304,276.855968 C163.206265,276.855968 164.410811,276.834833 164.806915,276.813699 C164.827477,277.22193 164.889166,278.373209 164.993062,279.378771 L164.39133,279.441062 C164.205183,278.908248 164.079642,278.479995 163.893495,278.201908 C163.602369,277.778104 163.330724,277.649071 162.603451,277.649071 L160.982239,277.649071 C160.420551,277.649071 160.379425,277.649071 160.379425,278.247514 L160.379425,281.256413 L161.895659,281.256413 C163.101287,281.256413 163.206265,281.045067 163.392412,279.889338 L164.014707,279.889338 L164.014707,283.373209 L163.392412,283.373209 C163.16514,282.220818 163.12185,282.049516 161.895659,282.049516 L160.379425,282.049516 L160.379425,284.506691 C160.379425,285.42549 160.524447,285.873765 161.127261,285.957191 C161.398906,286.002798 161.709512,286.023932 162.353451,286.023932 C163.642412,286.023932 163.995226,285.916035 164.410811,285.445512 C164.661893,285.167425 164.932456,284.677992 165.284187,283.929383 L165.866438,284.058415 Z" id="Fill-32"></path>
                    <path d="M123.676825,234.102666 C86.2329305,234.102666 47.3185397,191.085527 47.3185397,155.671538 C47.3208037,125.741585 60.5609339,168.309008 98.0048281,165.949136 C135.377405,163.593806 200.036242,120.256414 200.036242,155.671538 C200.036242,191.085527 161.122983,234.102666 123.676825,234.102666 M164.526973,97.6139021 C164.326605,97.5287287 164.099069,97.4708107 163.8704,97.4140284 C156.824695,95.1245659 136.090579,88.2584494 129.728615,85.9689869 C123.195715,83.5932152 116.522445,80.7609138 109.734841,77.4993382 C102.118596,73.8652706 96.3283034,69.2295632 92.3345295,63.5922158 C88.3418876,57.9560042 86.3450007,50.8593516 86.3450007,42.3033938 C86.3450007,34.0915367 89.4557973,27.1663667 95.6728626,21.4722371 C101.89106,15.8064986 109.421271,12.9458061 118.234063,12.9458061 C126.591782,12.9458061 133.664655,14.5482027 139.426648,17.7813872 C145.16034,20.9861806 150.035959,25.307314 154.030865,30.685734 C158.108408,36.2946902 161.445609,42.5327943 163.983603,49.4284375 C166.551029,56.3240807 168.833185,63.5354335 170.886673,71.0897515 L182.18199,71.0897515 L181.040911,5.27678786 L169.917662,5.27678786 L164.213403,14.7776033 C158.251043,11.0572266 151.690975,7.79565094 144.502635,4.99060504 C137.287126,2.18669478 129.159208,0.81369863 120.060014,0.81369863 C112.072466,0.81369863 104.400753,2.18669478 97.0709098,4.93382273 C89.7399349,7.68095068 83.3779708,11.4581097 77.9895458,16.2936908 C72.3407556,21.4154548 67.9768105,27.2526758 64.8977105,33.7769627 C61.8446469,40.2717229 60.3050969,47.3115931 60.3050969,54.8647754 C60.3050969,67.9701316 63.385329,78.6145426 69.5740937,86.7696174 C72.7686599,91.0044418 76.6764002,94.8395187 81.2395811,98.2157946 C53.1450573,107.028408 31.8664384,125.484929 31.8664384,154.24176 C31.8664384,170.751783 38.8838432,189.093604 50.1791595,205.317444 C67.7775746,230.641217 95.7860648,250.813699 123.85342,250.813699 C169.944831,250.813699 215.866438,196.50483 215.866438,154.24176 C215.866438,124.826254 193.619941,106.198251 164.526973,97.6139021" id="Fill-34"></path>
                </g>
            </g>
        </g>
    </g>
</svg>