<?xml version="1.0" encoding="UTF-8"?>
<svg width="367px" height="367px" viewBox="0 0 367 367" version="1.1" xmlns="http://www.w3.org/2000/svg" xmlns:xlink="http://www.w3.org/1999/xlink">
    <!-- Generator: Sketch 57.1 (83088) - https://sketch.com -->
    <title>Group 8</title>
    <desc>Created with Sketch.</desc>
    <g id="New" stroke="none" stroke-width="1" fill="none" fill-rule="evenodd">
        <g id="Artboard" transform="translate(-786.000000, -20.000000)">
            <g id="Group-8" transform="translate(786.000000, 20.000000)">
                <g id="Familie-Sauerwein--Copy-3" fill="#FFFFFF">
                    <rect id="Rectangle" x="0" y="0" width="367" height="367"></rect>
                </g>
                <path d="M106,173.968036 C105.997091,209.651989 145.23893,253 182.997091,253 C220.758161,253 260,209.651989 260,173.968036 C260,138.284084 194.796698,181.949973 157.108357,184.323848 C119.353106,186.70064 106,143.807572 106,173.968036 L106,173.968036 Z M109.41037,224.321371 C98.0543596,208.034557 91,189.620722 91,173.043332 C91,144.168743 112.39513,125.638678 140.641575,116.790623 C136.05276,113.399595 132.122391,109.552362 128.911381,105.301227 C122.686605,97.1127807 119.58872,86.4253762 119.58872,73.2680713 C119.58872,65.6840241 121.140564,58.6172031 124.209442,52.0966659 C127.304426,45.5441653 131.693096,39.6832369 137.372552,34.5429382 C142.79095,29.6874045 149.186864,25.8924751 156.554493,23.1349039 C163.925022,20.3773327 171.640728,19 179.669703,19 C188.818326,19 196.995234,20.3773327 204.249737,23.195925 C211.475235,26.0087057 218.068392,29.2835031 224.064018,33.0174114 L229.801486,23.48069 L240.986359,23.48069 L242.129212,89.5577912 L230.776102,89.5577912 C228.707945,81.9708382 226.413537,74.732577 223.834867,67.8110442 C221.282303,60.8866057 217.926261,54.6217759 213.824754,48.9904029 C209.810267,43.5914911 204.908183,39.2531836 199.144609,36.0335957 C193.352028,32.787856 186.239656,31.1809678 177.833597,31.1809678 C168.972138,31.1809678 161.404365,34.0547696 155.150582,39.7413522 C148.899701,45.4598981 145.772809,52.4104885 145.772809,60.6541445 C145.772809,69.2464922 147.780053,76.3685228 151.797441,82.0318592 C155.809028,87.6893841 161.630615,92.34442 169.291209,95.9911554 C176.113517,99.2659528 182.825601,102.113603 189.389752,104.49633 C195.788567,106.79479 216.635476,113.690171 223.718842,115.988632 C223.950893,116.046747 224.180044,116.101956 224.380188,116.186224 C253.630254,124.807629 276,143.509134 276,173.043332 C276,215.473316 229.830493,270 183.484046,270 C155.266608,270 127.104282,249.746816 109.41037,224.321371 L109.41037,224.321371 Z M217,304.42444 L217,305 L225.332721,305 C225.47886,304.529345 225.895221,302.825347 226,302.246952 L225.415441,302.11653 C225.065257,302.862206 224.797794,303.355543 224.544118,303.633399 C224.127757,304.104054 223.774816,304.211795 222.487132,304.211795 C221.844669,304.211795 221.533088,304.191948 221.26011,304.143748 C220.661765,304.061525 220.515625,303.613553 220.515625,302.694925 L220.515625,300.23958 L222.029412,300.23958 C223.256434,300.23958 223.300551,300.406861 223.526654,301.557981 L224.149816,301.557981 L224.149816,298.076269 L223.526654,298.076269 C223.339154,299.230224 223.234375,299.442869 222.029412,299.442869 L220.515625,299.442869 L220.515625,296.434647 C220.515625,295.836405 220.551471,295.836405 221.116728,295.836405 L222.735294,295.836405 C223.465993,295.836405 223.736213,295.963992 224.025735,296.389283 C224.213235,296.667139 224.337316,297.095265 224.524816,297.628296 L225.125919,297.563085 C225.023897,296.559399 224.960478,295.405444 224.941176,295 C224.544118,295.022682 223.339154,295.039694 222.550551,295.039694 L217.311581,295.039694 L217.311581,295.640771 C218.640625,295.748511 218.828125,295.859087 218.828125,297.412815 L218.828125,302.607031 C218.828125,304.231642 218.726103,304.294018 217,304.42444 L217,304.42444 Z M212,295.603473 L212,295 L207,295 L207,295.603473 C208.44438,295.711642 208.595807,295.822659 208.595807,297.3655 L208.595807,302.665813 C208.595807,304.188728 208.423995,304.271278 207,304.399374 L207,305 L212,305 L212,304.399374 C210.552708,304.271278 210.377985,304.165955 210.377985,302.665813 L210.377985,297.3655 C210.377985,295.822659 210.529412,295.711642 212,295.603473 L212,295.603473 Z M195,304.422146 L195,305 L203.22399,305 C203.352848,304.573015 203.874006,302.725591 204,302.085112 L203.332803,301.934244 C203.072224,302.554796 202.662743,303.266439 202.339166,303.627953 C201.992682,304.037859 201.629017,304.208654 200.460706,304.208654 C199.727649,304.208654 199.295259,304.188728 198.991728,304.077711 C198.625199,303.926843 198.476297,303.565329 198.476297,302.725591 L198.476297,297.322801 C198.476297,295.799886 198.648107,295.754341 200.13713,295.603473 L200.13713,295 L195.131721,295 L195.131721,295.603473 C196.511931,295.731568 196.729558,295.799886 196.729558,297.322801 L196.729558,302.64304 C196.729558,304.188728 196.55202,304.251352 195,304.422146 L195,304.422146 Z M190,295.603473 L190,295 L185,295 L185,295.603473 C186.446449,295.711642 186.597788,295.822659 186.597788,297.3655 L186.597788,302.665813 C186.597788,304.188728 186.426077,304.271278 185,304.399374 L185,305 L190,305 L190,304.399374 C188.55064,304.271278 188.378929,304.165955 188.378929,302.665813 L188.378929,297.3655 C188.378929,295.822659 188.533178,295.711642 190,295.603473 L190,295.603473 Z M170.494827,304.399374 C169.140596,304.271278 168.821059,304.077711 168.796713,303.306291 C168.754108,302.426701 168.88801,299.679761 168.982349,296.571307 C170.245283,299.318247 172.214242,303.690578 172.740718,305 L173.382836,305 C173.912355,303.758896 176.045648,299.295474 177.421181,296.525761 L177.399878,302.705665 C177.378576,304.188728 177.217285,304.271278 175.701765,304.399374 L175.701765,305 L181,305 L181,304.399374 C179.414486,304.271278 179.280584,304.188728 179.21059,302.705665 L179.140596,297.322801 C179.119294,295.839738 179.256239,295.711642 180.978698,295.603473 L180.978698,295 L177.281193,295 L173.638466,302.235981 L170.105295,295 L166.386488,295 L166.386488,295.603473 C168.014607,295.731568 168.175898,295.97068 168.133293,296.955594 C168.014607,299.745232 167.78941,302.554796 167.652465,303.348989 C167.53378,304.037859 167.168594,304.291204 166,304.399374 L166,305 L170.494827,305 L170.494827,304.399374 Z M159,301 L157.488868,297 L156,301 L159,301 Z M159.526464,303.37074 L158.913321,301.932668 L155.242905,301.932668 L154.756328,303.287614 C154.503196,304.082848 154.694452,304.249099 155.459473,304.357163 L155.962925,304.415351 L155.962925,305 L152,305 L152,304.415351 C153.080031,304.290662 153.338788,304.163203 153.971619,302.661402 L157.217336,295.080355 L157.852979,295 L161.219637,302.996675 C161.709026,304.210308 161.94247,304.290662 163,304.415351 L163,305 L158.550499,305 L158.550499,304.415351 L159.017387,304.376559 C159.692406,304.290662 159.841473,304.124411 159.526464,303.37074 L159.526464,303.37074 Z M144.873567,295.813723 L146.382424,295.813723 C147.343869,295.813723 147.618965,296.046215 147.805141,296.343918 C148.058006,296.667139 148.185828,297.052736 148.391455,297.693507 L149,297.628296 C148.916638,296.73235 148.830497,295.405444 148.811046,295 C148.538729,295.022682 147.343869,295.039694 146.59083,295.039694 L141,295.039694 L141,295.663453 C142.342133,295.728665 142.531087,295.836405 142.531087,297.353275 L142.531087,302.694925 C142.531087,304.169266 142.342133,304.274171 141,304.401758 L141,305 L145.921153,305 L145.921153,304.401758 C144.351164,304.319535 144.223341,304.169266 144.223341,302.694925 L144.223341,300.511766 L145.943383,300.511766 C147.304967,300.511766 147.366099,300.596824 147.599514,301.881202 L148.20528,301.881202 L148.20528,298.422172 L147.599514,298.422172 C147.366099,299.641338 147.285516,299.723561 145.965613,299.723561 L144.223341,299.723561 L144.223341,296.389283 C144.223341,295.876099 144.309482,295.813723 144.873567,295.813723 L144.873567,295.813723 Z M296.215754,318 L296.215754,319.231931 C299.706223,319.450876 300.711362,320.066841 300.844608,322.049024 C300.974958,323.371452 301.064754,325.263137 301.064754,329.35303 L301.064754,340.133884 L282.552233,318 L276,318 L276,319.231931 C278.140628,319.450876 279.055971,319.716529 279.881517,320.817093 C280.669408,321.78337 280.759204,322.486914 280.759204,323.721764 L280.759204,334.940507 C280.759204,338.945742 280.669408,340.927924 280.541955,342.335011 C280.362362,344.48943 279.319566,345.152104 276.611194,345.36813 L276.611194,346.60006 L287.224537,346.60006 L287.224537,345.36813 C284.075874,345.105396 282.983835,344.445641 282.896935,342.200725 C282.810036,340.927924 282.676789,338.945742 282.676789,334.987216 L282.676789,323.981578 L301.368903,347 L303.02579,347 L303.02579,329.35303 C303.02579,325.263137 303.112689,323.415241 303.159036,322.005235 C303.286489,319.982182 304.204728,319.541373 307,319.231931 L307,318 L296.215754,318 Z M261,319.206083 C264.36618,319.597632 264.695717,319.769113 264.695717,323.470246 L264.695717,340.575482 C264.695717,344.233745 264.36618,344.410942 261,344.793917 L261,346 L272,346 L272,344.793917 C268.592969,344.410942 268.263432,344.282331 268.263432,340.575482 L268.263432,323.470246 C268.263432,319.769113 268.592969,319.597632 272,319.206083 L272,318 L261,318 L261,319.206083 Z M253.345498,342.779972 C252.387886,343.897008 251.955229,344.287401 249.30449,344.287401 L245.260597,344.287401 C243.085779,344.238958 242.125282,343.985345 242.125282,340.976186 L242.125282,332.430287 L246.910459,332.430287 C250.045774,332.430287 250.389014,332.860574 250.957236,335.949522 L252.301354,335.949522 L252.301354,327.101567 L250.957236,327.101567 C250.43228,330.02239 250.215952,330.669245 246.956609,330.669245 L242.125282,330.669245 L242.125282,321.174435 C242.125282,319.929168 242.214698,319.800936 243.564585,319.800936 L247.692124,319.800936 C250.299599,319.800936 251.303361,320.100142 251.995611,321.519235 C252.474417,322.425402 252.912842,323.32587 253.302232,324.784857 L254.608854,324.571138 C254.432907,322.294321 254.259844,319.074293 254.216579,318 C253.691623,318.039894 251.995611,318.082638 247.911337,318.082638 L234.608603,318.082638 L234.608603,319.285162 C237.87083,319.587218 238.346752,319.800936 238.346752,323.622227 L238.346752,340.591492 C238.346752,344.113576 238.041008,344.49827 234,344.797476 L234,346 L255.130926,346 C255.563582,344.714838 256.737522,340.289436 257,339.1724 L255.693378,338.83045 C255.084776,340.118461 254.170429,341.879503 253.345498,342.779972 L253.345498,342.779972 Z M222.824347,319.228345 C226.598568,319.667871 226.958298,320.241293 226.288964,322.782395 C225.312974,326.598414 222.777169,334.40801 220.910699,340.247014 C218.330666,332.786711 215.844987,325.859079 213.356361,318.395865 L211.932182,318.395865 C209.664701,325.591288 206.999158,333.226237 204.55476,340.200442 C202.72957,334.015056 200.957456,328.176051 199.223673,322.252635 C198.601516,320.060825 198.689975,319.577637 201.977675,319.228345 L201.977675,318 L191,318 L191,319.228345 C193.886689,319.536886 194.379107,320.020074 195.534962,323.571213 C197.932182,331.249824 200.467987,339.455285 202.691238,347 L204.153749,347 C206.468408,340.247014 209.092671,332.743049 211.669756,325.195423 C213.981466,331.689351 216.956613,340.15678 219.268324,347 L220.778012,347 C223.222409,339.149654 226.781382,328.004316 228.246841,323.617786 C229.443976,320.020074 229.889217,319.667871 233,319.228345 L233,318 L222.824347,318 L222.824347,319.228345 Z M181.678505,331.732413 C183.327103,330.470614 184,328.722618 184,326.369768 C184,321.701692 180.997196,320 177.742056,320 C176.519626,320 175.804673,320.173642 175.507477,320.436999 C175.126168,320.743767 175,321.180766 175,322.312333 L175,333 L177.027103,333 C179.22243,333 180.621495,332.652716 181.678505,331.732413 L181.678505,331.732413 Z M189.821516,343.739766 C190.997555,345.020468 191.997333,345.505848 193,345.766082 L192.826628,347 C192.26317,347 191.783507,346.959064 191.21427,346.915205 C188.035786,346.692982 186.336741,345.856725 184.420982,343.122807 C182.808624,340.874269 181.239609,338.096491 179.849744,335.850877 C178.977106,334.438596 178.407868,334.175439 176.188709,334.175439 L174.665926,334.175439 L174.665926,341.096491 C174.665926,344.839181 175.142698,345.061404 178.627473,345.412281 L178.627473,346.646199 L167,346.646199 L167,345.412281 C170.611914,345.020468 170.918204,344.839181 170.918204,341.096491 L170.918204,323.508772 C170.918204,319.763158 170.438542,319.634503 167,319.233918 L167,318 L178.101578,318 C181.285841,318 183.418315,318.397661 185.071127,319.5 C186.859747,320.646199 188.035786,322.628655 188.035786,325.315789 C188.035786,329.108187 185.640365,331.488304 182.412758,332.894737 C183.198711,334.266082 185.071127,337.219298 186.380084,339.19883 C187.989553,341.535088 188.818849,342.637427 189.821516,343.739766 L189.821516,343.739766 Z M160.343072,342.779972 C159.388464,343.897008 158.952978,344.287401 156.305455,344.287401 L152.262069,344.287401 C150.087524,344.238958 149.130031,343.985345 149.130031,340.976186 L149.130031,332.430287 L153.911724,332.430287 C157.043762,332.430287 157.389843,332.860574 157.95511,335.949522 L159.301944,335.949522 L159.301944,327.101567 L157.95511,327.101567 C157.433103,330.02239 157.216803,330.669245 153.954984,330.669245 L149.130031,330.669245 L149.130031,321.174435 C149.130031,319.929168 149.216552,319.800936 150.56627,319.800936 L154.693292,319.800936 C157.303323,319.800936 158.304075,320.100142 158.999122,321.519235 C159.477868,322.425402 159.91047,323.32587 160.30558,324.784857 L161.60627,324.571138 C161.430345,322.294321 161.260188,319.074293 161.216928,318 C160.692038,318.039894 158.999122,318.082638 154.915361,318.082638 L141.608527,318.082638 L141.608527,319.285162 C144.870345,319.587218 145.349091,319.800936 145.349091,323.622227 L145.349091,340.591492 C145.349091,344.113576 145.04627,344.49827 141,344.797476 L141,346 L162.128276,346 C162.563762,344.714838 163.734671,340.289436 164,339.1724 L162.693542,338.83045 C162.085016,340.118461 161.170784,341.879503 160.343072,342.779972 L160.343072,342.779972 Z M128.502901,319.2227 C131.737911,319.399441 132.744681,320.141173 132.875242,322.105605 C132.965184,323.284844 133.095745,324.945049 133.095745,328.963733 L133.095745,333.417025 C133.095745,340.6663 131.125725,344.51114 124.916828,344.51114 C119.668279,344.51114 116.65087,341.016885 116.65087,334.639724 L116.65087,323.72235 C116.65087,319.793486 117.001934,319.440004 120.500967,319.2227 L120.500967,318 L109,318 L109,319.2227 C112.496132,319.529823 112.844294,319.793486 112.844294,323.72235 L112.844294,334.859926 C112.844294,339.968029 114.112186,342.978419 116.73501,344.992107 C118.661509,346.475572 121.374275,347 123.910058,347 C126.930368,347 129.901354,346.348087 131.955513,344.204016 C134.494197,341.541313 135.019342,338.136877 135.019342,333.67779 L135.019342,328.963733 C135.019342,324.945049 135.103482,323.111 135.149903,322.105605 C135.236944,320.097712 136.243714,319.399441 139,319.2227 L139,318 L128.502901,318 L128.502901,319.2227 Z M98,334 L94.1049645,323 C92.7375887,326.695179 91.2822695,330.60705 90,334 L98,334 Z M109,344.777178 L109,346 L98.1439485,346 L98.1439485,344.777178 C101.000804,344.429456 101.356454,343.991906 100.73844,342.334432 C100.167069,340.630596 99.289606,338.445743 98.3684158,335.695843 L88.8766586,335.695843 C88.1711902,337.657574 87.5123643,339.361411 86.8943506,341.155076 C85.9323482,343.991906 86.5474467,344.342526 90.1476679,344.777178 L90.1476679,346 L80,346 L80,344.777178 C82.7664857,344.429456 83.4661238,344.1252 85.0082429,340.193046 L94.1035384,317.260791 L95.508645,317 C98.2751307,324.470224 101.306896,332.722822 104.079212,340.279976 C105.484318,344.081735 105.88078,344.429456 109,344.777178 L109,344.777178 Z M78,339.097606 C78,343.585735 73.9090909,347 68.1011944,347 C65.3988056,347 63.0607167,346.271812 61.2153285,345.591793 C60.8540146,344.393258 60.3135368,341.489008 60,339.185442 L61.3944924,338.842599 C62.2903119,341.704348 64.2730591,345.418955 68.9581951,345.418955 C72.1950896,345.418955 74.1778368,343.285393 74.1778368,340.508647 C74.1778368,337.221886 72.3324486,335.895848 68.3669542,333.847289 C63.6429993,331.413385 60.9883875,329.361993 60.9883875,325.389546 C60.9883875,321.587103 64.3208361,318 70.2601194,318 C72.7833444,318 75.2558062,318.640352 76.1994028,318.816023 C76.3815528,320.351734 76.5637027,322.05745 76.9250166,324.834196 L75.5275382,325.089204 C74.7601194,322.269956 73.5,319.496043 69.2717319,319.496043 C65.7601194,319.496043 64.5418049,321.929946 64.5418049,324.151343 C64.5418049,327.095261 66.5245521,328.594138 70.2601194,330.427357 C75.6648971,333.079433 78,335.040156 78,339.097606 L78,339.097606 Z" id="Fill-1" fill="#000000"></path>
            </g>
        </g>
    </g>
</svg>