<?xml version="1.0" encoding="UTF-8"?>
<svg width="367px" height="367px" viewBox="0 0 367 367" version="1.1" xmlns="http://www.w3.org/2000/svg" xmlns:xlink="http://www.w3.org/1999/xlink">
    <!-- Generator: Sketch 57.1 (83088) - https://sketch.com -->
    <title>Swipe Studio Copy 3</title>
    <desc>Created with Sketch.</desc>
    <defs>
        <rect id="path-1" x="0" y="0" width="367" height="367"></rect>
    </defs>
    <g id="New" stroke="none" stroke-width="1" fill="none" fill-rule="evenodd">
        <g id="Artboard" transform="translate(-1173.000000, -20.000000)">
            <g id="Swipe-Studio-Copy-3" transform="translate(1173.000000, 20.000000)">
                <g id="Swipe-Studio-Copy">
                    <g id="Fill-1">
                        <mask id="mask-2" fill="white">
                            <use xlink:href="#path-1"></use>
                        </mask>
                        <use id="Mask" fill="#FFFFFF" xlink:href="#path-1"></use>
                    </g>
                </g>
                <path d="M298.601103,12.2860964 L298.601103,48.0681867 L298.572185,48.0681867 L298.601103,58.2559421 L298.601103,210.930051 L354.61309,210.930051 L354.61309,83.5939559 L334.243196,83.5939559 L334.243196,190.55454 L318.970997,190.55454 L318.970997,68.3866479 L354.642812,68.2870122 L354.585778,47.9115014 L318.970997,48.0111372 L318.970997,32.6616072 L354.614696,32.6616072 L354.614696,12.2860964 L298.601103,12.2860964 Z M227.313084,12.1805106 L227.313084,174.937135 L247.70423,174.937135 L247.70423,139.277782 L283.383711,139.358019 L283.383711,12.1805106 L227.313084,12.1805106 Z M247.94988,119.300635 L247.94988,32.3978222 L263.104104,32.3978222 L263.104104,119.336143 L247.94988,119.300635 Z M191.236146,210.930051 L211.946918,210.930051 L211.946918,12.2860964 L191.236146,12.2860964 L191.236146,210.930051 Z M156.047267,12 L156.047267,83.5485802 L140.72802,83.5485802 L140.72802,12 L120.295644,12 L120.295644,83.5485802 L104.975591,83.5485802 L104.975591,12 L84.5432148,12 L84.5432148,103.992875 L120.295644,103.992875 L140.72802,103.992875 L176.478837,103.992875 L176.478837,12 L156.047267,12 Z M13.3870187,12.0096774 L13,174.897834 L48.4963951,174.897834 L48.706263,207.981843 L33.5981712,207.981843 L33.5981712,190.166265 L13.3630794,190.166265 L13.3630794,228.344569 L69.070627,228.344569 L68.6038106,154.534305 L33.2837684,154.534305 L33.5742319,32.3724034 L48.7708991,32.3724034 L48.7708991,103.63552 L69.0059909,103.63552 L69.0059909,12.0096774 L13.3870187,12.0096774 Z M155.836534,119.257544 L155.836534,333.392985 L140.547981,333.392985 L140.547981,154.94665 L120.156542,154.94665 L120.156542,353.788828 L176.227169,353.788828 L176.227169,119.257544 L155.836534,119.257544 Z M49.1815559,119.078838 L49.1815559,139.475486 L84.9323733,139.475486 L84.9323733,353.610123 L105.36475,353.610123 L105.36475,139.475486 L141.117179,139.475486 L141.117179,119.078838 L49.1815559,119.078838 Z M263.031029,353.537003 L283.741802,353.537003 L283.741802,154.893049 L263.031029,154.893049 L263.031029,353.537003 Z M227.630906,191.243376 L227.630906,226.847541 L191.951425,226.833098 L191.951425,354 L248.022052,354 L248.022052,191.243376 L227.630906,191.243376 Z M212.231033,246.844367 L227.385256,246.850015 L227.385256,333.782688 L212.231033,333.782688 L212.231033,246.844367 Z M298.929373,226.016015 L298.929373,353.896219 L354.998392,353.896219 L355,226.016015 L298.929373,226.016015 Z M318.673198,246.844367 L333.827421,246.844367 L333.825827,333.781075 L318.673198,333.782688 L318.673198,246.844367 Z M13.3571885,244.480917 L13.3571885,300.341418 L49.0371807,300.339816 L49.0371807,333.345344 L33.7478232,333.345344 L33.7478232,315.572459 L13.3571885,315.572459 L13.3571885,353.659273 L69.4278154,353.659273 L69.4278154,280.025086 L33.7478232,280.026688 L33.7478232,264.794846 L69.4278154,264.794846 L69.4278154,244.480917 L13.3571885,244.480917 Z" id="Fill-1" fill="#000000" transform="translate(184.000000, 183.000000) rotate(-360.000000) translate(-184.000000, -183.000000) "></path>
            </g>
        </g>
    </g>
</svg>