<?xml version="1.0" encoding="UTF-8"?>
<svg width="366px" height="366px" viewBox="0 0 366 366" version="1.1" xmlns="http://www.w3.org/2000/svg" xmlns:xlink="http://www.w3.org/1999/xlink">
    <!-- Generator: Sketch 56.3 (81716) - https://sketch.com -->
    <title>Fill 1</title>
    <desc>Created with Sketch.</desc>
    <g id="New" stroke="none" stroke-width="1" fill="none" fill-rule="evenodd">
        <g id="Swipe-Studio-Copy-3" fill="#020303">
            <path d="M306.030945,0 L306.030945,38.3680704 L306,38.3680704 L306.030945,49.2920973 L306.030945,213 L365.968195,213 L365.968195,76.4612955 L344.1708,76.4612955 L344.1708,191.151946 L327.828341,191.151946 L327.828341,60.1549517 L366,60.0481152 L365.938969,38.2000615 L327.828341,38.3068979 L327.828341,21.8480537 L365.969914,21.8480537 L365.969914,0 L306.030945,0 Z M229,0 L229,174 L250.820137,174 L250.820137,135.877267 L289,135.963046 L289,0 L229,0 Z M252,114.962016 L252,22 L268,22 L268,115 L252,114.962016 Z M191,213 L213,213 L213,1.13686838e-13 L191,1.13686838e-13 L191,213 Z M153.220695,1.13686838e-13 L153.220695,76.2206953 L136.890941,76.2206953 L136.890941,1.13686838e-13 L115.110777,1.13686838e-13 L115.110777,76.2206953 L98.7801635,76.2206953 L98.7801635,1.13686838e-13 L77,1.13686838e-13 L77,98 L115.110777,98 L136.890941,98 L175,98 L175,1.13686838e-13 L153.220695,1.13686838e-13 Z M0.414140552,1.13686838e-13 L4.54747351e-13,174.683113 L37.9839467,174.683113 L38.2085219,210.162781 L22.0416702,210.162781 L22.0416702,191.057152 L0.38852361,191.057152 L0.38852361,232 L60,232 L59.5004696,152.845033 L21.7052344,152.845033 L22.0160533,21.8372191 L38.2776876,21.8372191 L38.2776876,98.2605965 L59.9308343,98.2605965 L59.9308343,1.13686838e-13 L0.414140552,1.13686838e-13 Z M153.18041,115 L153.18041,344.171967 L136.82045,344.171967 L136.82045,153.195184 L115,153.195184 L115,366 L175,366 L175,115 L153.18041,115 Z M39,115 L39,136.828894 L77.1090594,136.828894 L77.1090594,366 L98.8892229,366 L98.8892229,136.828894 L137,136.828894 L137,115 L39,115 Z M268,366 L290,366 L290,153 L268,153 L268,366 Z M230.179863,192 L230.179863,230.063733 L192,230.048293 L192,366 L252,366 L252,192 L230.179863,192 Z M213,251 L229,251.006041 L229,344 L213,344 L213,251 Z M306,229 L306,366 L365.998279,366 L366,229 L306,229 Z M327,251 L343,251 L342.998317,343.998274 L327,344 L327,251 Z M4.54747351e-13,249 L4.54747351e-13,308.862402 L38.1804102,308.860685 L38.1804102,344.230761 L21.8195898,344.230761 L21.8195898,325.184609 L4.54747351e-13,325.184609 L4.54747351e-13,366 L60,366 L60,287.090588 L21.8195898,287.092305 L21.8195898,270.769239 L60,270.769239 L60,249 L4.54747351e-13,249 Z" id="Fill-1" transform="translate(183.000000, 183.000000) rotate(-360.000000) translate(-183.000000, -183.000000) "></path>
        </g>
    </g>
</svg>