<?xml version="1.0" encoding="UTF-8"?>
<svg width="700px" height="342px" viewBox="0 0 700 342" version="1.1" xmlns="http://www.w3.org/2000/svg" xmlns:xlink="http://www.w3.org/1999/xlink">
    <!-- Generator: Sketch 58 (84663) - https://sketch.com -->
    <title>Group 18</title>
    <desc>Created with Sketch.</desc>
    <g id="New" stroke="none" stroke-width="1" fill="none" fill-rule="evenodd">
        <g id="Group-18" fill="#000000">
            <path d="M464.601103,0.286096413 L464.601103,36.0681867 L464.572185,36.0681867 L464.601103,46.2559421 L464.601103,198.930051 L520.61309,198.930051 L520.61309,71.5939559 L500.243196,71.5939559 L500.243196,178.55454 L484.970997,178.55454 L484.970997,56.3866479 L520.642812,56.2870122 L520.585778,35.9115014 L484.970997,36.0111372 L484.970997,20.6616072 L520.614696,20.6616072 L520.614696,0.286096413 L464.601103,0.286096413 Z M393.313084,0.180510606 L393.313084,162.937135 L413.70423,162.937135 L413.70423,127.277782 L449.383711,127.358019 L449.383711,0.180510606 L393.313084,0.180510606 Z M413.94988,107.300635 L413.94988,20.3978222 L429.104104,20.3978222 L429.104104,107.336143 L413.94988,107.300635 Z M357.236146,198.930051 L377.946918,198.930051 L377.946918,0.286096413 L357.236146,0.286096413 L357.236146,198.930051 Z M322.047267,0 L322.047267,71.5485802 L306.72802,71.5485802 L306.72802,0 L286.295644,0 L286.295644,71.5485802 L270.975591,71.5485802 L270.975591,0 L250.543215,0 L250.543215,91.9928745 L286.295644,91.9928745 L306.72802,91.9928745 L342.478837,91.9928745 L342.478837,0 L322.047267,0 Z M179.387019,0.0096774322 L179,162.897834 L214.496395,162.897834 L214.706263,195.981843 L199.598171,195.981843 L199.598171,178.166265 L179.363079,178.166265 L179.363079,216.344569 L235.070627,216.344569 L234.603811,142.534305 L199.283768,142.534305 L199.574232,20.3724034 L214.770899,20.3724034 L214.770899,91.6355201 L235.005991,91.6355201 L235.005991,0.0096774322 L179.387019,0.0096774322 Z M321.836534,107.257544 L321.836534,321.392985 L306.547981,321.392985 L306.547981,142.94665 L286.156542,142.94665 L286.156542,341.788828 L342.227169,341.788828 L342.227169,107.257544 L321.836534,107.257544 Z M215.181556,107.078838 L215.181556,127.475486 L250.932373,127.475486 L250.932373,341.610123 L271.36475,341.610123 L271.36475,127.475486 L307.117179,127.475486 L307.117179,107.078838 L215.181556,107.078838 Z M429.031029,341.537003 L449.741802,341.537003 L449.741802,142.893049 L429.031029,142.893049 L429.031029,341.537003 Z M393.630906,179.243376 L393.630906,214.847541 L357.951425,214.833098 L357.951425,342 L414.022052,342 L414.022052,179.243376 L393.630906,179.243376 Z M378.231033,234.844367 L393.385256,234.850015 L393.385256,321.782688 L378.231033,321.782688 L378.231033,234.844367 Z M464.929373,214.016015 L464.929373,341.896219 L520.998392,341.896219 L521,214.016015 L464.929373,214.016015 Z M484.673198,234.844367 L499.827421,234.844367 L499.825827,321.781075 L484.673198,321.782688 L484.673198,234.844367 Z M179.357188,232.480917 L179.357188,288.341418 L215.037181,288.339816 L215.037181,321.345344 L199.747823,321.345344 L199.747823,303.572459 L179.357188,303.572459 L179.357188,341.659273 L235.427815,341.659273 L235.427815,268.025086 L199.747823,268.026688 L199.747823,252.794846 L235.427815,252.794846 L235.427815,232.480917 L179.357188,232.480917 Z" id="Fill-1" transform="translate(350.000000, 171.000000) rotate(-360.000000) translate(-350.000000, -171.000000) "></path>
            <path d="M679.047267,0 L679.047267,71.5485802 L663.72802,71.5485802 L663.72802,0 L643.295644,0 L643.295644,71.5485802 L627.975591,71.5485802 L627.975591,0 L607.543215,0 L607.543215,91.9928745 L643.295644,91.9928745 L663.72802,91.9928745 L699.478837,91.9928745 L699.478837,0 L679.047267,0 Z M536.387019,0.0096774322 L536,162.897834 L571.496395,162.897834 L571.706263,195.981843 L556.598171,195.981843 L556.598171,178.166265 L536.363079,178.166265 L536.363079,216.344569 L592.070627,216.344569 L591.603811,142.534305 L556.283768,142.534305 L556.574232,20.3724034 L571.770899,20.3724034 L571.770899,91.6355201 L592.005991,91.6355201 L592.005991,0.0096774322 L536.387019,0.0096774322 Z M678.836534,107.257544 L678.836534,321.392985 L663.547981,321.392985 L663.547981,142.94665 L643.156542,142.94665 L643.156542,341.788828 L699.227169,341.788828 L699.227169,107.257544 L678.836534,107.257544 Z M572.181556,107.078838 L572.181556,127.475486 L607.932373,127.475486 L607.932373,341.610123 L628.36475,341.610123 L628.36475,127.475486 L664.117179,127.475486 L664.117179,107.078838 L572.181556,107.078838 Z M536.357188,232.480917 L536.357188,288.341418 L572.037181,288.339816 L572.037181,321.345344 L556.747823,321.345344 L556.747823,303.572459 L536.357188,303.572459 L536.357188,341.659273 L592.427815,341.659273 L592.427815,268.025086 L556.747823,268.026688 L556.747823,252.794846 L592.427815,252.794846 L592.427815,232.480917 L536.357188,232.480917 Z" id="Fill-1" transform="translate(617.739419, 170.894414) rotate(-360.000000) translate(-617.739419, -170.894414) "></path>
            <path d="M107.601103,0.286096413 L107.601103,36.0681867 L107.572185,36.0681867 L107.601103,46.2559421 L107.601103,198.930051 L163.61309,198.930051 L163.61309,71.5939559 L143.243196,71.5939559 L143.243196,178.55454 L127.970997,178.55454 L127.970997,56.3866479 L163.642812,56.2870122 L163.585778,35.9115014 L127.970997,36.0111372 L127.970997,20.6616072 L163.614696,20.6616072 L163.614696,0.286096413 L107.601103,0.286096413 Z M36.3130841,0.180510606 L36.3130841,162.937135 L56.7042305,162.937135 L56.7042305,127.277782 L92.3837111,127.358019 L92.3837111,0.180510606 L36.3130841,0.180510606 Z M56.9498801,107.300635 L56.9498801,20.3978222 L72.1041036,20.3978222 L72.1041036,107.336143 L56.9498801,107.300635 Z M0.236146257,198.930051 L20.9469184,198.930051 L20.9469184,0.286096413 L0.236146257,0.286096413 L0.236146257,198.930051 Z M72.0310294,341.537003 L92.7418016,341.537003 L92.7418016,142.893049 L72.0310294,142.893049 L72.0310294,341.537003 Z M36.6309058,179.243376 L36.6309058,214.847541 L0.951425218,214.833098 L0.951425218,342 L57.0220522,342 L57.0220522,179.243376 L36.6309058,179.243376 Z M21.2310327,234.844367 L36.3852562,234.850015 L36.3852562,321.782688 L21.2310327,321.782688 L21.2310327,234.844367 Z M107.929373,214.016015 L107.929373,341.896219 L163.998392,341.896219 L164,214.016015 L107.929373,214.016015 Z M127.673198,234.844367 L142.827421,234.844367 L142.825827,321.781075 L127.673198,321.782688 L127.673198,234.844367 Z" id="Fill-1" transform="translate(82.118073, 171.090255) rotate(-360.000000) translate(-82.118073, -171.090255) "></path>
        </g>
    </g>
</svg>