<?xml version="1.0" encoding="UTF-8"?>
<svg width="342px" height="342px" viewBox="0 0 342 342" version="1.1" xmlns="http://www.w3.org/2000/svg" xmlns:xlink="http://www.w3.org/1999/xlink">
    <!-- Generator: Sketch 58 (84663) - https://sketch.com -->
    <title>Swipe Studio Copy 4</title>
    <desc>Created with Sketch.</desc>
    <g id="New" stroke="none" stroke-width="1" fill="none" fill-rule="evenodd">
        <g id="Swipe-Studio-Copy-4" fill="#000000">
            <path d="M285.601103,0.286096413 L285.601103,36.0681867 L285.572185,36.0681867 L285.601103,46.2559421 L285.601103,198.930051 L341.61309,198.930051 L341.61309,71.5939559 L321.243196,71.5939559 L321.243196,178.55454 L305.970997,178.55454 L305.970997,56.3866479 L341.642812,56.2870122 L341.585778,35.9115014 L305.970997,36.0111372 L305.970997,20.6616072 L341.614696,20.6616072 L341.614696,0.286096413 L285.601103,0.286096413 Z M214.313084,0.180510606 L214.313084,162.937135 L234.70423,162.937135 L234.70423,127.277782 L270.383711,127.358019 L270.383711,0.180510606 L214.313084,0.180510606 Z M234.94988,107.300635 L234.94988,20.3978222 L250.104104,20.3978222 L250.104104,107.336143 L234.94988,107.300635 Z M178.236146,198.930051 L198.946918,198.930051 L198.946918,0.286096413 L178.236146,0.286096413 L178.236146,198.930051 Z M143.047267,0 L143.047267,71.5485802 L127.72802,71.5485802 L127.72802,0 L107.295644,0 L107.295644,71.5485802 L91.9755913,71.5485802 L91.9755913,0 L71.5432148,0 L71.5432148,91.9928745 L107.295644,91.9928745 L127.72802,91.9928745 L163.478837,91.9928745 L163.478837,0 L143.047267,0 Z M0.387018673,0.0096774322 L-2.4158453e-13,162.897834 L35.4963951,162.897834 L35.706263,195.981843 L20.5981712,195.981843 L20.5981712,178.166265 L0.363079374,178.166265 L0.363079374,216.344569 L56.070627,216.344569 L55.6038106,142.534305 L20.2837684,142.534305 L20.5742319,20.3724034 L35.7708991,20.3724034 L35.7708991,91.6355201 L56.0059909,91.6355201 L56.0059909,0.0096774322 L0.387018673,0.0096774322 Z M142.836534,107.257544 L142.836534,321.392985 L127.547981,321.392985 L127.547981,142.94665 L107.156542,142.94665 L107.156542,341.788828 L163.227169,341.788828 L163.227169,107.257544 L142.836534,107.257544 Z M36.1815559,107.078838 L36.1815559,127.475486 L71.9323733,127.475486 L71.9323733,341.610123 L92.3647497,341.610123 L92.3647497,127.475486 L128.117179,127.475486 L128.117179,107.078838 L36.1815559,107.078838 Z M250.031029,341.537003 L270.741802,341.537003 L270.741802,142.893049 L250.031029,142.893049 L250.031029,341.537003 Z M214.630906,179.243376 L214.630906,214.847541 L178.951425,214.833098 L178.951425,342 L235.022052,342 L235.022052,179.243376 L214.630906,179.243376 Z M199.231033,234.844367 L214.385256,234.850015 L214.385256,321.782688 L199.231033,321.782688 L199.231033,234.844367 Z M285.929373,214.016015 L285.929373,341.896219 L341.998392,341.896219 L342,214.016015 L285.929373,214.016015 Z M305.673198,234.844367 L320.827421,234.844367 L320.825827,321.781075 L305.673198,321.782688 L305.673198,234.844367 Z M0.357188473,232.480917 L0.357188473,288.341418 L36.0371807,288.339816 L36.0371807,321.345344 L20.7478232,321.345344 L20.7478232,303.572459 L0.357188473,303.572459 L0.357188473,341.659273 L56.4278154,341.659273 L56.4278154,268.025086 L20.7478232,268.026688 L20.7478232,252.794846 L56.4278154,252.794846 L56.4278154,232.480917 L0.357188473,232.480917 Z" id="Fill-1" transform="translate(171.000000, 171.000000) rotate(-360.000000) translate(-171.000000, -171.000000) "></path>
        </g>
    </g>
</svg>