<?xml version="1.0" encoding="UTF-8"?>
<svg width="367px" height="367px" viewBox="0 0 367 367" version="1.1" xmlns="http://www.w3.org/2000/svg" xmlns:xlink="http://www.w3.org/1999/xlink">
    <!-- Generator: Sketch 57.1 (83088) - https://sketch.com -->
    <title>Group 2</title>
    <desc>Created with Sketch.</desc>
    <defs>
        <polygon id="path-1" points="0 0.5 320 0.5 320 95.5 0 95.5"></polygon>
    </defs>
    <g id="New" stroke="none" stroke-width="1" fill="none" fill-rule="evenodd">
        <g id="Artboard" transform="translate(-1204.000000, -582.000000)">
            <g id="Group-2" transform="translate(1204.000000, 582.000000)">
                <g id="Familie-Sauerwein--Copy-4" fill="#FFFFFF">
                    <rect id="Rectangle" x="0" y="0" width="367" height="367"></rect>
                </g>
                <g id="Group-3-Copy-2" transform="translate(19.000000, 141.000000)">
                    <mask id="mask-2" fill="white">
                        <use xlink:href="#path-1"></use>
                    </mask>
                    <g id="Clip-2"></g>
                    <path d="M137.024668,18.6371125 C137.328716,16.3304705 136.131291,14.3995031 133.957907,13.4227491 C131.296545,12.2281039 128.301105,11.5293491 125.853703,13.8435046 C120.001709,19.3659213 115.365909,25.7260922 113.147481,33.6152588 C112.100203,37.3306806 113.335165,39.5997552 116.679698,39.1451889 C122.527939,38.3525155 128.28609,37.1165461 131.852091,31.5152378 C134.340783,27.6044652 136.923318,23.7763411 137.024668,18.6371125 M109.352152,52.3614213 C109.367521,61.1935312 113.444022,65.5325728 121.994915,64.7098454 C128.973015,64.0373879 134.19439,59.7847514 139.273125,54.9798733 C142.03959,52.3614213 148.109298,45.5429273 148.135573,44.2769039 C148.890064,40.6065631 149.625786,36.9211953 150.654296,33.3222326 C152.343454,27.4203847 153.676011,21.454672 154.464285,15.3687435 C154.588157,14.3807193 154.569388,13.3401007 153.330673,13.0733717 C152.272134,12.8442102 151.288668,12.9343721 150.718108,14.1665848 C149.817224,16.1125792 148.522203,17.8218987 147.339792,19.606353 C142.906691,26.3008744 137.01716,31.5340215 130.984989,36.6694933 C128.774069,38.5553798 126.386726,40.2346453 124.17956,42.0491536 C120.699894,44.9080373 117.250258,47.2109226 112.742083,47.9547583 C109.318723,48.5257837 109.348753,48.7173777 109.352152,52.3614213 M226.553794,61.0695585 C235.288617,53.3532023 240.100841,45.1522258 240.622603,33.1494223 C240.889114,26.9921156 241.114335,20.7784578 238.377899,15.0005824 C235.506331,8.92216739 229.43287,9.59462493 225.881884,13.0921554 C224.19648,14.7563939 222.458524,16.574659 221.155996,18.6784367 C219.290414,21.6875903 217.424833,24.5427172 215.837025,27.9050049 C214.617077,31.2823196 213.524755,34.7610663 212.499999,38.2473266 C211.103629,42.9920968 210.533069,47.8946503 210.743275,52.7821769 C210.893422,56.3135181 211.75677,59.7546974 215.082534,61.847205 C217.143307,63.1470391 219.03141,63.9735232 221.163503,63.6241458 C223.156709,63.3010657 225.701707,61.8209077 226.553794,61.0695585 M3.69004479,86.5139992 C4.87245537,85.1540571 8.86637555,81.9720932 10.8821041,81.2883655 C11.5652746,81.059204 12.5825231,80.9126909 13.26194,81.5250405 C15.9007801,83.9030607 21.0208056,84.4665726 24.4028752,82.8661988 C28.6520459,80.8563397 32.0678987,77.6593488 35.6789431,74.7816814 C39.3500464,71.858933 54.4849018,55.250359 58.7903778,50.295211 C60.3444031,48.5069999 64.0868264,44.3933631 63.6589064,42.2069369 C62.4802495,36.1698461 61.3991884,28.9080561 60.3331421,22.8484248 C60.1304431,21.6838335 59.8001189,20.4854316 59.2558346,19.4448129 C57.5929525,16.2778761 55.4383376,14.9517447 51.9061206,17.3861161 C51.0014827,18.0059792 50.1343816,18.7122475 49.36863,19.4974074 C48.7154889,20.1736216 48.1111457,20.4027832 47.1652173,19.8993792 C47.750792,17.5514129 49.5150237,16.0261741 51.1779059,14.72634 C54.6087734,12.0477801 57.7581146,8.97100509 61.6694537,6.91606503 C65.186656,5.0752595 69.9388204,7.1339563 71.763111,11.4917817 C73.1970184,14.9141773 73.5874016,18.5957883 74.1504542,22.2210482 C74.5183153,24.5915549 74.807349,26.9733319 75.1264122,29.3475954 C75.224008,30.0613771 75.4980269,31.7256156 75.9935133,31.5678322 C76.4852459,31.4138057 80.2089008,26.8718998 82.6037515,24.531447 C88.3281201,18.9338955 94.0337204,12.3858872 100.396215,7.51338765 C104.671662,4.23374839 111.980085,2.85126587 116.529551,9.13630192 C117.01753,9.8125162 117.809557,10.2670825 118.503989,10.8568916 C117.869616,12.5774812 116.214241,12.8404535 114.956757,13.5692622 C112.408005,15.0531769 109.821717,16.4769836 107.227921,17.8782498 C106.090555,18.4905994 105.11835,18.5093832 104.037289,17.3936296 C99.8932217,13.1109392 97.0441753,13.5016408 92.2582277,18.0548169 C87.5436001,22.9010192 83.1705578,27.5518708 78.2644923,33.1569358 C77.1046039,34.4830671 76.3200838,35.6063342 76.5528123,37.3682481 C77.6826712,45.8998182 78.3658418,54.525307 81.860522,62.55723 C82.1495557,63.2184172 82.4948946,63.8570641 82.8514946,64.4806839 C84.7170758,67.7265124 86.2861158,68.3426188 89.780796,67.0240009 C92.4346509,66.0284633 94.5104383,64.4243327 96.1545521,61.9260966 C97.6522721,59.6495086 98.2078174,57.380434 98.5494027,54.746955 C99.8594386,44.5924706 103.234001,35.046579 109.209866,26.7479271 C113.158742,21.2668347 117.847094,16.2628491 123.027179,11.8148618 C126.116461,9.15884239 129.400935,6.82214638 132.858078,4.62820672 C138.788899,0.860190491 147.129586,2.65967182 149.77218,10.0980289 C152.118232,8.42627692 154.576896,6.91982178 156.727757,5.05647577 C158.270521,3.71531745 159.982201,3.3847238 161.791477,3.32085912 C165.871732,3.18185952 167.617195,6.18349956 166.558656,11.2100257 C165.785397,14.872853 165.072197,18.5431939 164.358997,22.2172915 C164.291431,22.5666688 164.404041,22.9498569 164.460347,23.614801 C167.298132,20.9625383 169.84313,18.453032 172.527014,16.1050657 C177.40305,11.841159 182.511815,7.86276502 188.08979,4.54931506 C189.512436,3.70029046 191.186579,3.21942698 192.856969,3.08418412 C195.645957,2.85502261 197.943211,3.74912816 199.114361,6.49155274 C200.506978,9.74865151 201.208917,12.9907233 200.649618,16.6948749 C198.765268,29.1822985 195.597159,41.376696 192.962072,53.6988229 C192.323946,56.685436 191.531918,59.7809947 191.790923,62.955445 C192.001129,65.55887 192.834447,66.1111117 195.064135,64.9277367 C195.912468,64.4769272 196.696988,63.9134153 197.560336,63.4964165 C199.324567,62.6361216 200.049028,61.2273419 199.669906,59.3639959 C198.581338,53.9655519 199.868851,48.8150531 201.389094,43.743446 C203.397315,37.0526814 206.129997,30.6474295 210.281572,24.9860133 C214.977431,18.5882748 219.996107,12.5173733 226.655143,7.91911621 C229.920849,5.66506862 232.859983,3.03534642 236.688741,1.62280993 C239.432685,0.612245256 242.146599,0.510813114 244.954354,0.792569063 C246.703571,0.965379379 247.799647,2.1675381 249.150974,3.17058928 C252.975978,6.01068925 254.364841,9.83505667 254.616338,14.6436915 C257.180105,13.084642 258.906799,10.9958912 260.847454,9.19640985 C264.019317,6.25487774 267.074817,3.17810277 270.974895,1.17575715 C274.364472,-0.567372986 276.988297,1.17575715 277.16472,5.09404323 C277.359912,9.40303088 276.353924,13.4941273 275.317907,17.6077641 C275.021366,18.7911391 274.315674,19.9932978 274.923771,21.3006454 C275.531867,21.3419697 275.757089,20.8498359 276.064891,20.5154855 C281.466442,14.6324213 287.904011,9.98908326 294.300289,5.304421 C295.786748,4.21872141 297.453384,3.40350753 299.19134,2.75734722 C304.033593,0.969136125 307.99373,3.03534642 308.928397,8.23092613 C310.02072,14.3130979 310.050749,20.4253236 308.913383,26.5751168 C307.468214,34.4154457 306.432197,42.3309095 305.080871,50.1937789 C304.491542,53.593634 303.909721,56.9747054 304.134942,60.4346685 C304.371425,64.1425768 305.929204,66.3515434 310.193389,64.108766 C313.353991,62.4520411 318.489031,59.71713 319.374901,59.1686451 C319.919185,58.8568351 320.553558,59.480455 319.145926,60.7502351 C317.501812,62.2416633 314.112235,64.2703061 312.036448,65.4762216 C307.824814,67.9293767 303.590658,70.3599914 299.232631,72.5238771 C295.062287,74.5938441 292.374649,72.5727148 292.224502,67.8166743 C292.093123,63.6241458 292.776293,59.5480764 293.286795,55.4231693 C294.19894,48.0787309 295.644108,40.8206976 296.796489,33.5250969 C297.614793,28.3483009 298.046466,23.2240994 298.099018,18.0247629 C298.106525,17.1381709 298.023944,16.2891463 297.787462,15.4138245 C296.496195,10.6164598 293.035298,9.36170668 288.84994,12.0703205 C284.919832,14.6136376 282.652607,18.4981129 280.306554,22.3036966 C276.913223,27.8110863 273.501124,33.3522866 271.736893,39.6485929 C270.449379,44.2430932 269.691135,48.9690797 268.951659,53.6875527 C268.486202,56.6779225 268.043267,59.6758058 267.611593,62.6774458 C267.254993,65.1456279 265.911174,66.8098664 263.842894,68.2073759 C262.142475,69.3569402 260.310677,70.3562346 258.786681,71.8063386 C258.103511,72.4524989 257.146321,73.2000914 255.731182,72.4938231 C256.560747,67.422216 257.589256,62.305528 258.171077,57.1400022 C258.700347,52.45534 259.706334,47.8758666 260.464578,43.2400421 C261.249098,38.4314072 262.119953,33.6340425 262.979547,28.8366779 C263.887938,23.7538006 264.856389,18.6821935 265.719736,13.5955594 C265.93745,12.314509 265.918682,10.7704864 264.601139,10.1581368 C263.287349,9.54954398 262.416494,10.8756753 261.628221,11.7171864 C260.044166,13.4114789 258.629027,15.2597979 257.044972,16.9503336 C254.436161,19.7340824 254.394871,23.4532609 253.752991,26.7854946 C252.31533,34.2200949 249.394963,40.9258865 245.524915,47.3386519 C243.929599,49.9946713 225.318832,70.3299374 215.311509,73.0986592 C209.68849,75.0333834 204.557203,74.0416025 201.160119,68.1961057 C200.799765,67.5799993 200.465687,66.9451093 200.056536,66.2050303 C197.278809,67.4973509 195.116687,69.5184803 192.699314,71.1564215 C190.462118,72.6741469 188.299996,74.3158449 185.743737,75.3151393 C182.688238,76.5135413 180.481072,75.0484104 180.026876,71.8213656 C179.309922,66.697164 180.604943,61.802124 181.45703,56.8695165 C182.24155,52.3200971 183.183724,47.7857047 184.362381,43.330204 C186.13412,36.6394393 186.813537,29.7758644 187.969672,22.9911811 C188.48768,19.9632439 188.607798,16.7399558 186.622099,13.94118 C185.150655,11.8749697 183.607891,11.4542142 181.505827,12.8404535 C171.284545,19.561272 163.803452,28.5211112 160.305018,40.3248072 C158.064069,47.8796234 156.510043,55.6410606 155.139948,63.4175248 C154.847161,65.0667363 154.483054,66.7159478 153.98006,68.3088081 C153.326919,70.3675049 151.408786,71.0211787 149.663323,71.8251223 C146.881843,73.1061727 144.753504,75.4841929 141.345158,76.9004862 C142.764051,67.3733783 144.952449,57.6358927 147.024483,48.3830273 C146.382603,50.8775067 127.940751,67.5086212 123.654044,70.3186672 C119.292263,72.805633 114.637694,75.0559239 109.326231,75.2324909 C104.878115,75.379004 99.7693501,71.1113406 99.2851248,66.6070021 C99.0674112,64.5445486 98.4518069,64.2026847 96.8489837,65.4348974 C92.3370551,68.8835902 87.5436001,71.9077707 82.7614062,74.9582485 C81.5677346,75.7171112 80.253945,76.3219473 78.9401555,76.8666754 C75.7082333,78.2228607 73.5386037,77.5504032 71.5866878,74.5562767 C68.6025087,69.98056 67.3225024,64.7549264 66.2001507,59.5180224 C65.4381528,55.960384 64.9389128,51.7415582 64.4546875,48.5483241 C62.0185463,50.813642 59.3271546,53.6950662 56.8910135,56.3473288 C54.4173355,59.0334022 32.2105387,82.464227 26.8089869,86.6417285 C23.8510836,88.9295868 21.0283129,91.4315797 17.8902328,93.437682 C15.247639,95.124461 12.0982978,95.5940542 8.90391239,95.4851086 C-6.73393672,95.4700816 2.79666791,87.5433476 3.69004479,86.5139992" id="Fill-1" fill="#000000" mask="url(#mask-2)"></path>
                </g>
            </g>
        </g>
    </g>
</svg>