<?xml version="1.0" encoding="UTF-8"?>
<svg width="860px" height="367px" viewBox="0 0 860 367" version="1.1" xmlns="http://www.w3.org/2000/svg" xmlns:xlink="http://www.w3.org/1999/xlink">
    <!-- Generator: Sketch 57.1 (83088) - https://sketch.com -->
    <title>Group 15</title>
    <desc>Created with Sketch.</desc>
    <defs>
        <rect id="path-1" x="0.5" y="0" width="859" height="367"></rect>
        <polygon id="path-3" points="0 0 858 0 858 255 0 255"></polygon>
    </defs>
    <g id="New" stroke="none" stroke-width="1" fill="none" fill-rule="evenodd">
        <g id="Group-15">
            <g id="Group-2-Copy-3">
                <mask id="mask-2" fill="white">
                    <use xlink:href="#path-1"></use>
                </mask>
                <use id="Rectangle" fill="#FFFFFF" xlink:href="#path-1"></use>
            </g>
            <g id="Group-14" transform="translate(1.000000, 68.000000)">
                <mask id="mask-4" fill="white">
                    <use xlink:href="#path-3"></use>
                </mask>
                <g id="Clip-2"></g>
                <path d="M367.39739,48.6838284 C368.21262,42.4923155 365.002023,37.3091924 359.174639,34.6873792 C352.038862,31.4806999 344.007338,29.605095 337.445241,35.8167756 C321.754582,50.6401044 309.324843,67.7121423 303.376684,88.8883263 C300.56867,98.8613006 303.879912,104.951974 312.847441,103.731823 C328.528035,101.604121 343.96708,98.2865184 353.528418,83.2514278 C360.201225,72.7540909 367.125647,62.4785997 367.39739,48.6838284 M293.200457,139.206973 C293.241666,162.914215 304.171785,174.561116 327.098867,172.352743 C345.808895,170.547725 359.808707,159.132754 373.426065,146.235449 C380.84365,139.206973 397.118054,120.9047 397.188506,117.506426 C399.211484,107.654459 401.184139,97.7621558 403.94183,88.1017823 C408.470885,72.2599799 412.043806,56.2467512 414.157365,39.9108379 C414.489495,37.2587729 414.439173,34.4655334 411.117866,33.7495767 C408.279658,33.134459 405.642742,33.3764725 404.112928,36.6839908 C401.697432,41.9074495 398.225156,46.4956227 395.054818,51.2854738 C383.168565,69.2549786 367.377261,83.3018473 351.203503,97.0865347 C345.275473,102.148651 338.874409,106.656153 332.956444,111.526675 C323.626591,119.200521 314.377255,125.38195 302.289711,127.378562 C293.110827,128.911314 293.191343,129.425593 293.200457,139.206973 M607.447359,162.581447 C630.867605,141.869122 643.770379,119.855974 645.169354,87.637923 C645.883938,71.1104156 646.487812,54.4316498 639.150743,38.922616 C631.45135,22.6068704 615.166882,24.411888 605.645802,33.7999962 C601.126812,38.2671626 596.466918,43.1477689 592.974513,48.7947513 C587.972424,56.8719529 582.970334,64.5357147 578.713023,73.5608026 C575.442039,82.6262262 572.51325,91.9639149 569.765623,101.321771 C566.021605,114.057734 564.491791,127.217219 565.055406,140.33637 C565.457989,149.815233 567.772839,159.052083 576.690045,164.668813 C582.215492,168.157842 587.277969,170.376299 592.994642,169.438497 C598.338927,168.571282 605.162703,164.598226 607.447359,162.581447 M9.8939326,230.879682 C13.064271,227.229311 23.7729694,218.68825 29.1776415,216.852981 C31.0093926,216.237863 33.73689,215.844591 35.5585765,217.488267 C42.6339666,223.871373 56.3620349,225.383958 65.4302091,221.088218 C76.8232981,215.693333 85.9820534,207.111936 95.6641661,199.387671 C105.507312,191.542399 146.087643,146.96149 157.6317,133.66083 C161.798431,128.860895 171.832803,117.819027 170.685443,111.950199 C167.525169,95.7453763 164.626574,76.2532032 161.768237,59.9878771 C161.224751,56.861869 160.339069,53.6451058 158.879707,50.8518663 C154.421104,42.351141 148.644043,38.7915253 139.173286,45.3258906 C136.747725,46.9897337 134.422811,48.8855063 132.369639,50.9930408 C130.618405,52.8081423 128.998009,53.42326 126.461739,52.0720178 C128.031811,45.7695821 132.762157,41.6755199 137.22076,38.1864915 C146.419774,30.9966728 154.863945,22.737961 165.351223,17.2220693 C174.781721,12.2809597 187.523462,17.8069353 192.414841,29.504256 C196.259506,38.6906863 197.306221,48.5729055 198.815905,58.3038663 C199.802233,64.6668054 200.577205,71.0599961 201.432693,77.4330191 C201.694371,79.3489596 202.429085,83.816126 203.757607,83.3926023 C205.076066,82.9791626 215.060115,70.7877309 221.481309,64.505463 C236.829772,49.4804563 252.127913,31.9042235 269.187353,18.8254089 C280.650894,10.0221667 300.246604,6.31129259 312.444858,23.1816525 C313.753252,24.996754 315.876875,26.2169056 317.73882,27.8000774 C316.037908,32.4185023 311.599435,33.1243751 308.227805,35.0806511 C301.393965,39.0637905 294.459478,42.8855875 287.504863,46.6468812 C284.4553,48.2905564 281.848577,48.3409759 278.949982,45.3460584 C267.838701,33.8504157 260.199695,34.899141 247.367373,47.1208243 C234.726278,60.1290516 223.001058,72.6129163 209.84667,87.6580908 C206.736719,91.2177065 204.633225,94.2327918 205.257228,98.9621395 C208.286662,121.86267 210.118413,145.015298 219.488525,166.57467 C220.263496,168.349436 221.189436,170.063698 222.14557,171.737625 C227.147659,180.450112 231.354648,182.103871 240.724759,178.564424 C247.840408,175.892191 253.406113,171.586367 257.814393,164.880575 C261.830155,158.769733 263.31971,152.67906 264.235586,145.610248 C267.74812,118.353474 276.796165,92.7302911 292.818954,70.4549623 C303.406878,55.7425564 315.977521,42.3108054 329.866622,30.3714712 C338.14976,23.2421559 346.956256,16.9699719 356.225721,11.0809759 C372.127736,0.966827108 394.491202,5.79701384 401.576657,25.7631302 C407.867011,21.275796 414.459302,17.2321532 420.226298,12.2305402 C424.362835,8.63058894 428.952277,7.74320599 433.803398,7.57177974 C444.743581,7.19867554 449.423605,15.2557094 446.585397,28.7479637 C444.512096,38.5797634 442.599829,48.431731 440.687561,58.2937824 C440.506399,59.2315848 440.808336,60.2601423 440.959305,62.0449921 C448.568117,54.9257607 455.391893,48.1897174 462.588057,41.8872817 C475.661929,30.4420585 489.359804,19.7632114 504.315749,10.8692141 C508.13022,8.59025335 512.619016,7.29951451 517.097748,6.93649422 C524.575721,6.32137649 530.735235,8.72134401 533.87538,16.0825889 C537.609334,24.8253277 539.491408,33.527731 537.991788,43.4704536 C532.939375,76.9893277 524.444882,109.721658 517.379556,142.79684 C515.66858,150.813539 513.544956,159.12267 514.239411,167.643563 C514.803027,174.631704 517.037361,176.114037 523.015713,172.937609 C525.290305,171.727541 527.393799,170.214957 529.70865,169.095644 C534.438996,166.786432 536.381457,163.00497 535.364936,158.003357 C532.446212,143.512797 535.898358,129.687774 539.974507,116.074513 C545.35905,98.1150922 552.686054,80.9220475 563.817465,65.7256146 C576.408237,48.5527377 589.864562,32.2571599 607.719103,19.9144698 C616.475275,13.8641316 624.355831,6.80540355 634.621688,3.01385823 C641.978886,0.301289897 649.255567,0.0290246741 656.783863,0.78531696 C661.473951,1.24917623 664.412804,4.47602331 668.036048,7.16842385 C678.291841,14.7918501 682.015731,25.0572574 682.690056,37.9646457 C689.564155,33.7798284 694.193856,28.1731816 699.397236,23.3429949 C707.901795,15.4473034 716.094352,7.18859164 726.551436,1.81387447 C735.639739,-2.86505381 742.674871,1.81387447 743.147906,12.3313792 C743.671263,23.8976092 740.97396,34.8789732 738.196139,45.9208406 C737.401039,49.0972682 735.5089,52.3241153 737.13936,55.8333115 C738.76982,55.9442343 739.373694,54.6232438 740.198988,53.725777 C754.681899,37.934394 771.94263,25.4706972 789.092651,12.8960774 C793.078219,9.98183115 797.546886,7.79362547 802.206781,6.05919517 C815.190071,1.25926013 825.808188,6.80540355 828.314265,20.7514333 C831.243054,37.0772628 831.323571,53.4837634 828.274007,69.991103 C824.399149,91.0361964 821.621329,112.282968 817.998085,133.388564 C816.417948,142.514491 814.85794,151.589999 815.461814,160.877268 C816.095882,170.830074 820.272677,176.759406 831.706024,170.739319 C840.180389,166.292321 853.948716,158.951244 856.323953,157.478995 C857.783315,156.642031 859.484227,158.315958 855.710015,161.724315 C851.301735,165.727623 842.213431,171.172927 836.647726,174.409858 C825.355283,180.994643 814.002452,187.518924 802.317491,193.327249 C791.135758,198.883476 783.929528,193.45834 783.526946,180.692126 C783.174686,169.438497 785.006437,158.497468 786.375218,147.425349 C788.820907,127.71133 792.695765,108.229241 795.785587,88.6463128 C797.979663,74.7507025 799.137088,60.9962668 799.277992,47.0401532 C799.298121,44.6603534 799.0767,42.3813927 798.442633,40.0318446 C794.980422,27.154708 785.700892,23.7866863 774.478901,31.0571762 C763.9413,37.8839745 757.862302,48.3107242 751.571948,58.525712 C742.47358,73.3087052 733.324889,88.1824535 728.594543,105.083065 C725.142397,117.415671 723.109355,130.101214 721.126635,142.766589 C719.878629,150.793371 718.69101,158.840321 717.533585,166.897355 C716.577451,173.522475 712.974336,177.989641 707.42876,181.740851 C702.869512,184.826524 697.958003,187.50884 693.87179,191.401225 C692.040039,193.135655 689.473574,195.14235 685.679233,193.246578 C687.903502,179.633317 690.661193,165.899049 692.221201,152.03369 C693.640305,139.45907 696.337608,127.1668 698.370651,114.723271 C700.474145,101.815882 702.809124,88.9387458 705.11391,76.0616091 C707.549535,62.4180963 710.146193,48.8048352 712.461043,35.1512384 C713.044788,31.7126295 712.994465,27.5681478 709.461803,25.9244725 C705.939204,24.2908812 703.604225,27.8504969 701.490666,30.1092898 C697.243419,34.6571275 693.449078,39.6184049 689.201831,44.1561586 C682.206957,51.6283263 682.096247,61.6113845 680.375206,70.5558013 C676.520477,90.5118337 668.690245,108.51159 658.313677,125.724803 C654.036236,132.854118 604.136117,187.438253 577.303983,194.870085 C562.227263,200.063292 548.469001,197.401143 539.360569,181.710599 C538.39437,180.05684 537.498624,178.352662 536.401586,176.366134 C528.953807,179.834995 523.156617,185.260131 516.675036,189.65671 C510.676555,193.730605 504.879365,198.137268 498.025395,200.819585 C489.832838,204.036348 483.914873,200.103628 482.697061,191.44156 C480.774729,177.687125 484.247004,164.547807 486.531661,151.30765 C488.635155,139.09605 491.161361,126.924786 494.321635,114.965284 C499.07211,97.0058635 500.893797,78.5825834 503.993683,60.3710652 C505.382593,52.2434441 505.704659,43.5914603 500.380504,36.078957 C496.435194,30.5328135 492.298657,29.403417 486.6625,33.1243751 C459.256686,51.1644671 439.198005,75.2145618 429.81783,106.898167 C423.809284,127.176884 419.642553,148.010215 415.968987,168.883882 C415.18395,173.310713 414.207688,177.737544 412.859036,182.013116 C411.107801,187.539092 405.964808,189.29369 401.284784,191.451644 C393.826941,194.890253 388.120332,201.27336 378.981706,205.074989 C382.786112,179.502226 388.653754,153.364765 394.209394,128.528126 C392.488354,135.223834 343.04114,179.865246 331.547405,187.408001 C319.852379,194.083541 307.372317,200.123796 293.130956,200.597739 C281.204445,200.991011 267.50657,189.535704 266.208241,177.445111 C265.624496,171.909051 263.973907,170.991417 259.676337,174.298935 C247.578729,183.555953 234.726278,191.67349 221.90402,199.861614 C218.703488,201.898562 215.18089,203.522069 211.658292,204.984234 C202.9927,208.624521 197.175381,206.819503 191.941807,198.782637 C183.940477,186.500451 180.508459,172.47375 177.499154,158.416797 C175.456047,148.867346 174.11746,137.54313 172.819131,128.971817 C166.287227,135.052407 159.070933,142.786757 152.53903,149.905988 C145.906481,157.115974 86.3645069,220.009241 71.8815961,231.222534 C63.9507179,237.363628 56.3821641,244.079503 47.9681867,249.464304 C40.882732,253.991974 32.438561,255.252461 23.8736151,254.960028 C-18.0553678,254.919693 7.49856584,233.64267 9.8939326,230.879682" id="Fill-1" fill="#000000" mask="url(#mask-4)"></path>
            </g>
        </g>
    </g>
</svg>