<?xml version="1.0" encoding="UTF-8"?>
<svg width="225px" height="95px" viewBox="0 0 225 95" version="1.1" xmlns="http://www.w3.org/2000/svg" xmlns:xlink="http://www.w3.org/1999/xlink">
    <!-- Generator: Sketch 57.1 (83088) - https://sketch.com -->
    <title>sauerwein-post-alternative 2</title>
    <desc>Created with Sketch.</desc>
    <g id="New" stroke="none" stroke-width="1" fill="none" fill-rule="evenodd">
        <g id="sauerwein-post-alternative-2">
            <path d="M0.265,0.475 L224.265,0.475 L224.265,94.475 L0.265,94.475 L0.265,0.475 Z" id="Rectangle" fill="#FFFFFF"></path>
            <g id="sauerwein-post-alternative" transform="translate(1.000000, 24.000000)" fill="#010101" fill-rule="nonzero">
                <path d="M29.74,22.31 L29.59,22.31 C28.03,21.8 23.42,20.31 22,19.78 C20.58,19.25 19.07,18.62 17.56,17.9 C16.0291679,17.2235276 14.6994091,16.1624765 13.7,14.82 C12.7691194,13.4267005 12.3035168,11.7743363 12.37,10.1 C12.3476784,8.33352714 13.1049733,6.64699107 14.44,5.49 C15.802948,4.24264079 17.5927364,3.56610078 19.44,3.6 C21.0755759,3.5489844 22.6970015,3.91733373 24.15,4.67 C25.4220636,5.3807127 26.5269081,6.35597669 27.39,7.53 C28.3169837,8.8048738 29.0639999,10.201323 29.61,11.68 C30.18,13.21 30.68,14.81 31.14,16.48 L33.65,16.48 L33.4,1.9 L30.93,1.9 L29.67,4 C28.2805867,3.1421627 26.8142454,2.41568771 25.29,1.83 C23.5522926,1.19083487 21.7112678,0.878911697 19.86,0.91 C18.1156845,0.9022029 16.3843887,1.21051586 14.75,1.82 C13.1923676,2.3846394 11.7542484,3.23597881 10.51,4.33 C9.29269148,5.41792265 8.30355936,6.73676548 7.6,8.21 C6.92039524,9.67188471 6.57861255,11.2680099 6.6,12.88 C6.48022016,15.3972003 7.20530701,17.8822067 8.66,19.94 C9.39785811,20.9057846 10.270017,21.7611065 11.25,22.48 C5.01,24.43 0.25,28.48 0.25,34.89 C0.25,38.54 1.81,42.6 4.32,46.2 C8.23,51.81 14.45,56.27 20.69,56.27 C30.93,56.27 41.1300152,44.27 41.1300152,34.89 C41.14,28.34 36.2,24.22 29.74,22.31 Z M20.66,52.54 C12.34,52.54 3.66,43.02 3.66,35.17 C3.66,28.54 6.6,37.97 14.92,37.45 C23.24,36.93 37.59,27.33 37.59,35.17 C37.59,43.01 29,52.54 20.66,52.54 Z" id="Shape"></path>
                <path d="M68.06,31.15 C67.56,29.22 66.75,27.33 64.06,27.33 C63.2133609,27.2825072 62.3881199,27.6066721 61.8001541,28.2176954 C61.2121882,28.8287187 60.9199913,29.6658128 61,30.51 C61,32.51 62.28,33.51 64.7,34.79 C68.2,36.59 69.7,37.93 69.7,40.7 C69.7,43.76 67.05,46.09 63.29,46.09 C61.7571751,46.0379453 60.2477264,45.6987434 58.84,45.09 C58.475287,43.6643978 58.194802,42.2185642 58,40.76 L58.9,40.52 C59.49,42.47 60.77,45.01 63.8,45.01 C64.7052722,45.0589341 65.5890245,44.7227822 66.2329344,44.0845875 C66.8768443,43.4463928 67.2208615,42.5656725 67.18,41.66 C67.18,39.42 65.98,38.51 63.42,37.12 C60.36,35.46 58.64,34.06 58.64,31.35 C58.64,28.64 60.8,26.35 64.64,26.35 C65.9385411,26.4036422 67.2283807,26.587905 68.49,26.9 C68.6,27.9 68.72,29.12 68.95,31.01 L68.06,31.15 Z" id="Path"></path>
                <path d="M83.47,45.65 L83.47,44.83 C85.37,44.6 85.6,44.31 85.19,43.2 C84.78,42.09 84.19,40.61 83.62,38.78 L77.33,38.78 C76.86,40.09 76.43,41.22 76.02,42.42 C75.38,44.31 75.79,44.54 78.17,44.83 L78.17,45.65 L71.45,45.65 L71.45,44.83 C73.28,44.6 73.75,44.4 74.77,41.83 L80.77,26.54 L81.71,26.36 C83.54,31.36 85.55,36.84 87.39,41.88 C88.32,44.42 88.58,44.65 90.65,44.88 L90.65,45.7 L83.47,45.65 Z M80.56,30.13 C79.63,32.63 78.64,35.28 77.77,37.58 L83.21,37.58 L80.56,30.13 Z" id="Shape"></path>
                <path d="M110.31,27.53 C108.48,27.65 107.81,28.12 107.75,29.46 C107.75,30.13 107.66,31.35 107.66,34.03 L107.66,37.17 C107.66,40.17 107.31,42.42 105.66,44.17 C104.206693,45.5042047 102.267848,46.1806301 100.3,46.04 C98.6043988,46.1157116 96.9291567,45.646083 95.52,44.7 C93.78,43.36 92.93,41.35 92.93,37.94 L92.93,30.53 C92.93,27.91 92.7,27.74 90.37,27.53 L90.37,26.72 L98,26.72 L98,27.53 C95.67,27.68 95.44,27.91 95.44,30.53 L95.44,37.81 C95.44,42.07 97.44,44.4 100.94,44.4 C105.08,44.4 106.39,41.83 106.39,37 L106.39,34 C106.39,31.32 106.3,30.21 106.24,29.43 C106.16,28.12 105.49,27.62 103.33,27.5 L103.33,26.69 L110.33,26.69 L110.31,27.53 Z" id="Path"></path>
                <path d="M127.07,41 C126.9,41.76 126.07,44.76 125.82,45.63 L111.66,45.63 L111.66,44.81 C114.37,44.61 114.58,44.35 114.58,41.96 L114.58,30.47 C114.58,27.88 114.26,27.74 112.07,27.53 L112.07,26.72 L121,26.72 C123.74,26.72 124.88,26.72 125.23,26.66 C125.23,27.39 125.37,29.57 125.49,31.12 L124.62,31.26 C124.415641,30.4909444 124.120218,29.7490301 123.74,29.05 C123.28,28.05 122.61,27.88 120.86,27.88 L118.09,27.88 C117.19,27.88 117.09,27.97 117.09,28.81 L117.09,35.25 L120.32,35.25 C122.51,35.25 122.65,34.81 123,32.83 L123.91,32.83 L123.91,38.83 L123,38.83 C122.62,36.74 122.39,36.45 120.29,36.45 L117.09,36.45 L117.09,42.24 C117.09,44.24 117.73,44.46 119.19,44.49 L121.9,44.49 C123.67,44.49 123.96,44.22 124.6,43.49 C125.235099,42.6651936 125.765791,41.765033 126.18,40.81 L127.07,41 Z" id="Path"></path>
                <path d="M146.39,45.88 C146.01,45.88 145.69,45.88 145.31,45.88 C143.456041,45.9180705 141.723685,44.9603141 140.77,43.37 C139.69,41.88 138.65,40.05 137.71,38.56 C137.13,37.63 136.71,37.46 135.27,37.46 L134.27,37.46 L134.27,42 C134.27,44.48 134.59,44.62 136.92,44.85 L136.92,45.67 L129.14,45.67 L129.14,44.85 C131.56,44.59 131.76,44.48 131.76,42 L131.76,30.36 C131.76,27.88 131.44,27.8 129.14,27.53 L129.14,26.72 L136.57,26.72 C138.187965,26.5864157 139.809298,26.9343412 141.23,27.72 C142.530008,28.5551747 143.290872,30.0160336 143.23,31.56 C143.23,34.07 141.63,35.64 139.47,36.56 C140,37.47 141.25,39.42 142.12,40.73 C142.817178,41.7814077 143.585647,42.7837598 144.42,43.73 C144.979682,44.3800147 145.721764,44.8468645 146.55,45.07 L146.39,45.88 Z M135.65,36.42 C136.784901,36.5398279 137.924157,36.2372129 138.85,35.57 C139.960934,34.7291842 140.564578,33.3785309 140.45,31.99 C140.45,28.87 138.38,27.74 136.14,27.74 C135.609037,27.6753269 135.071073,27.7766318 134.6,28.03 C134.33,28.23 134.25,28.52 134.25,29.28 L134.25,36.42 L135.65,36.42 Z" id="Shape"></path>
                <path d="M173,27.53 C171,27.83 170.67,28.06 169.89,30.45 C168.89,33.36 166.6,40.76 164.99,45.97 L163.99,45.97 C162.48,41.43 160.53,35.81 158.99,31.49 C157.3,36.49 155.58,41.49 154.07,45.97 L153.07,45.97 C151.61,40.97 149.95,35.51 148.38,30.42 C147.62,28.06 147.3,27.74 145.38,27.53 L145.38,26.72 L152.57,26.72 L152.57,27.53 C150.42,27.77 150.36,28.09 150.77,29.53 C151.9,33.46 153.07,37.34 154.26,41.45 C155.86,36.82 157.61,31.75 159.1,26.97 L160.03,26.97 C161.66,31.97 163.29,36.52 164.98,41.48 C166.2,37.6 167.86,32.42 168.5,29.88 C168.94,28.19 168.71,27.82 166.23,27.52 L166.23,26.71 L173,26.71 L173,27.53 Z" id="Path"></path>
                <path d="M189.41,41 C189.23,41.76 188.41,44.76 188.16,45.63 L174,45.63 L174,44.81 C176.71,44.61 176.91,44.35 176.91,41.96 L176.91,30.47 C176.91,27.88 176.59,27.74 174.41,27.53 L174.41,26.72 L183.32,26.72 C186.06,26.72 187.19,26.72 187.54,26.66 C187.54,27.39 187.69,29.57 187.81,31.12 L186.93,31.26 C186.732893,30.4900656 186.440642,29.7476831 186.06,29.05 C185.59,28.05 184.92,27.88 183.17,27.88 L180.41,27.88 C179.5,27.88 179.41,27.97 179.41,28.81 L179.41,35.25 L182.64,35.25 C184.82,35.25 184.97,34.81 185.32,32.83 L186.22,32.83 L186.22,38.83 L185.32,38.83 C184.94,36.74 184.71,36.45 182.61,36.45 L179.41,36.45 L179.41,42.24 C179.41,44.24 180.05,44.46 181.5,44.49 L184.21,44.49 C185.99,44.49 186.28,44.22 186.92,43.49 C187.551774,42.6647783 188.079107,41.7646182 188.49,40.81 L189.41,41 Z" id="Path"></path>
                <path d="M191.46,45.65 L191.46,44.83 C193.85,44.57 194.08,44.46 194.08,41.98 L194.08,30.42 C194.08,27.91 193.85,27.8 191.46,27.53 L191.46,26.72 L199.26,26.72 L199.26,27.53 C196.85,27.8 196.61,27.91 196.61,30.42 L196.61,42 C196.61,44.51 196.85,44.59 199.26,44.85 L199.26,45.67 L191.46,45.65 Z" id="Path"></path>
                <path d="M222.34,27.53 C220.47,27.74 219.86,28.03 219.77,29.37 C219.77,30.3 219.68,31.52 219.68,34.23 L219.68,45.91 L218.58,45.91 L206.11,30.68 L206.11,38 C206.11,40.62 206.2,41.93 206.26,42.78 C206.32,44.26 207.04,44.7 209.14,44.87 L209.14,45.69 L202.06,45.69 L202.06,44.87 C203.87,44.73 204.57,44.29 204.69,42.87 C204.77,41.93 204.83,40.62 204.83,37.97 L204.83,30.51 C204.907483,29.8145332 204.698025,29.1175421 204.25,28.58 C203.69,27.85 203.08,27.68 201.66,27.58 L201.66,26.77 L206,26.77 L218.35,41.42 L218.35,34.23 C218.35,31.52 218.29,30.23 218.2,29.4 C218.11,28.09 217.44,27.68 215.11,27.53 L215.11,26.72 L222.31,26.72 L222.34,27.53 Z" id="Path"></path>
                <path d="M64.84,13.46 C64.7631709,13.1300209 64.6240099,12.8177572 64.43,12.54 C64.3,12.34 64.11,12.18 63.43,12.18 L62.43,12.18 C62.03,12.18 61.97,12.18 61.97,12.57 L61.97,14.84 L63.18,14.84 C64.1,14.84 64.18,14.78 64.32,13.95 L64.74,13.95 L64.74,16.31 L64.32,16.31 C64.16,15.44 64.12,15.38 63.17,15.38 L61.97,15.38 L61.97,16.87 C61.97,17.87 62.06,17.97 63.16,18.03 L63.16,18.44 L59.7,18.44 L59.7,18 C60.64,17.91 60.77,17.84 60.77,16.84 L60.77,13.23 C60.77,12.23 60.64,12.12 59.7,12.08 L59.7,11.65 L63.59,11.65 C64.11,11.65 64.94,11.65 65.13,11.65 C65.13,11.93 65.21,12.83 65.26,13.44 L64.84,13.46 Z" id="Path"></path>
                <path d="M71.5,18.44 L71.5,18 L71.82,18 C72.29,17.94 72.39,17.83 72.17,17.3 L71.75,16.3 L69.23,16.3 L68.9,17.24 C68.72,17.8 68.85,17.91 69.38,17.99 L69.73,17.99 L69.73,18.4 L67,18.4 L67,18 C67.75,17.91 67.92,17.82 68.36,16.78 L70.59,11.49 L71.02,11.43 L73.34,17 C73.67,17.85 73.83,17.9 74.56,18 L74.56,18.41 L71.5,18.44 Z M70.5,13.08 L69.5,15.72 L71.58,15.72 L70.5,13.08 Z" id="Shape"></path>
                <path d="M86.16,12.06 C85.07,12.13 84.98,12.22 84.99,13.23 L85.04,16.88 C85.04,17.88 85.17,17.94 86.18,18.03 L86.18,18.44 L82.81,18.44 L82.81,18 C83.81,17.91 83.87,17.86 83.89,16.85 L83.89,12.65 C83.02,14.54 81.66,17.56 81.33,18.41 L80.92,18.41 C80.59,17.52 79.34,14.55 78.53,12.69 C78.48,14.8 78.39,16.69 78.42,17.26 C78.45,17.83 78.64,17.91 79.49,18 L79.49,18.41 L76.65,18.41 L76.65,18 C77.39,17.93 77.65,17.75 77.65,17.29 C77.65,16.83 77.88,14.84 77.96,12.95 C77.96,12.28 77.88,12.12 76.85,12.03 L76.85,11.62 L79.21,11.62 L81.45,16.53 L83.77,11.62 L86.11,11.62 L86.16,12.06 Z" id="Path"></path>
                <path d="M89,18.44 L89,18 C90,17.91 90.06,17.86 90.06,16.82 L90.06,13.22 C90.06,12.22 89.96,12.1 89,12.03 L89,11.62 L92.32,11.62 L92.32,12.03 C91.32,12.1 91.24,12.18 91.24,13.22 L91.24,16.82 C91.24,17.82 91.36,17.91 92.32,18 L92.32,18.41 L89,18.44 Z" id="Path"></path>
                <path d="M101.36,16.46 C101.27,16.89 100.92,18.15 100.83,18.46 L95.28,18.46 L95.28,18 C96.28,17.89 96.45,17.85 96.45,16.8 L96.45,13.23 C96.45,12.23 96.3,12.15 95.37,12.06 L95.37,11.65 L98.75,11.65 L98.75,12.06 C97.75,12.16 97.63,12.19 97.63,13.23 L97.63,16.89 C97.63,17.46 97.73,17.71 97.98,17.81 C98.3059107,17.8959632 98.6439776,17.9263892 98.98,17.9 C99.77,17.9 99.98,17.78 100.24,17.51 C100.517901,17.159368 100.746676,16.7724685 100.92,16.36 L101.36,16.46 Z" id="Path"></path>
                <path d="M103.92,18.44 L103.92,18 C104.92,17.91 104.98,17.86 104.98,16.82 L104.98,13.22 C104.98,12.22 104.88,12.1 103.92,12.03 L103.92,11.62 L107.24,11.62 L107.24,12.03 C106.24,12.1 106.17,12.18 106.17,13.22 L106.17,16.82 C106.17,17.82 106.28,17.91 107.24,18 L107.24,18.41 L103.92,18.44 Z" id="Path"></path>
                <path d="M116.36,16.56 C116.29,16.95 116,18.12 115.9,18.44 L110.06,18.44 L110.06,18 C111.27,17.92 111.34,17.87 111.34,16.77 L111.34,13.27 C111.34,12.21 111.21,12.13 110.28,12.06 L110.28,11.65 L114,11.65 C114.55,11.65 115.39,11.65 115.67,11.65 C115.67,11.93 115.73,12.71 115.8,13.4 L115.38,13.4 C115.294401,13.1080436 115.177033,12.8263587 115.03,12.56 C114.83,12.27 114.64,12.18 114.13,12.18 L112.99,12.18 C112.6,12.18 112.57,12.18 112.57,12.59 L112.57,14.59 L113.63,14.59 C114.48,14.59 114.55,14.45 114.63,13.66 L115.07,13.66 L115.07,16.03 L114.63,16.03 C114.47,15.25 114.44,15.13 113.63,15.13 L112.57,15.13 L112.57,16.81 C112.57,17.43 112.67,17.74 113.09,17.81 C113.37594,17.8388737 113.66406,17.8388737 113.95,17.81 C114.86,17.81 115.1,17.74 115.39,17.42 C115.638984,17.1148401 115.847386,16.7787093 116.01,16.42 L116.36,16.56 Z" id="Path"></path>
            </g>
        </g>
    </g>
</svg>