<svg xmlns="http://www.w3.org/2000/svg" viewBox="0 0 648.96 770.53"><defs><style>.a{fill:#fff;}</style></defs><title>Asset 2</title><path class="a" d="M0,0V770.53H649V0ZM292.05,396.14h0s-19.93,2.05-26.09,2.62c-11.49,1.06-25.33.39-34.18-1.28-3.14-.88-5.61-2.26-3.94-5.58,0,0,4.41-6.36,24.33-9.62,12.23-2.23,25.59.36,25.59.36a36.91,36.91,0,0,1,17.06,13C293.81,395.86,292.91,396,292.05,396.14Zm197,7.58c-2.29,1.21-13.18,3.53-23.87,2.93-9.68-.54-19.21-3.92-22.07-4.6-6-1.44-9.87-.3-12.35-1.12a4.25,4.25,0,0,1,1.93-4.34c2.29-1.56,4.63-3,7-4.6,13.26-1.71,25.39-2.25,32.34.7C479.24,395.75,493.41,401.42,489,403.72Z"/><path d="M294,212.6l.1,0v.14ZM61.09,233a4,4,0,0,1-.41-3c1.34-5.15-.23-11.25,5.2-14.64-2.76-4.28-2.76-4.28-3.73-10.13l8.6-4.75c-1.4-4.19-2.9-8.14-.16-12.44l6.06-1.53c1.39-4.7,5.77-8.95,1.53-14.24,2.89-5.86,7.54-9.73,12.24-13.35a15.24,15.24,0,0,1,8-2.63,21.57,21.57,0,0,0,12.24-4.48c1.33-1,3-1.62,4.34-2.93-2.85-.46-5.49.31-8.16.72s-5.5.89-8.37,1.36c0-3,2.15-1.84,3.33-2.28,1.41-.52,2.84-1,4.77-1.58-1.2-4.45-2.37-8.68-.46-13.25a86.43,86.43,0,0,1,7.46-5c1.9-1,3.66-1.52,3.34-4.4-.1-.87,2.15-1.91,3.14-3a2.29,2.29,0,0,0,.29-2,1.62,1.62,0,0,0-2.58-.57c-1.21.84-2.35,1.77-3.87,2.93A21.15,21.15,0,0,1,110,104.56a7,7,0,0,1,1.92-3.23c.87-.94,2.16-1.48,3.11-2.35a3,3,0,0,0-1.39-5,6.58,6.58,0,0,0-3.05-.12c-2.27.58-4.45,1.5-6.71,2.1-3,.81-4.14,2.9-4.31,5.76-.24,4.16-.35,8.33-.78,12.47-.31,3.05-1.92,4.82-3.44,4.3-2.16-.74-2.29-2.69-2.35-4.5-.18-5.23.14-10.39,2.33-15.3a18.9,18.9,0,0,1,5.81-7.25c2.37-1.87,5-2.93,8-1.66,3.37,1.42,6.66,1,9.89-.36,3-1.22,5.58-.94,8.13,2a12.05,12.05,0,0,1-2,2.73c-1.2.95-2.86,1.35-4,2.35-1.57,1.38-2.81,3.07-2.21,5.48.48,2,.77,4,1.12,5.85.67.24,1.26.68,1.6.54,7.82-3.41,15.82-1.18,23.75-.79.51,0,1.19,0,1.5.34,3.18,3.1,7.09,5.07,10.8,7.37.8.5,1.11,2.32,1.06,3.51a20,20,0,0,1-1,4.35c7.33-4.1,14-1.29,20.51,2.2,4.13,2.22,4.73,3.33,7.23,8.61a8,8,0,0,0,2.24,0,8,8,0,0,0,1.84-1.16c0-.65.19-1.27,0-1.63-1.73-2.83-3-6.31-5.48-8.19-2.25-1.7-5.83-1.65-8.82-2.36-1.52-.36-3.06-.61-4.56-1.06a6.49,6.49,0,0,1-2.77-1.36c-.63-.64-.74-1.77-1.07-2.69.9-.23,2-.9,2.68-.6a24.57,24.57,0,0,1,4,2.94c2.56-.36,5-.53,7.06-3.41,2.29-3.22,4.28-2.86,8-.48,3.45,2.22,7,4.31,10.58,6.32a22,22,0,0,0,4.08,1.29c-.82-3.16-3.77-3.68-5-5.72a10.75,10.75,0,0,1-1.75-7.79l4.95-3.07c-.08-.58,0-1.32-.23-1.48-4.38-2.69-8.8-5.3-13.33-8-3.12,1.23-3.89,4.49-5.73,7.15-3.05.73-5.14,0-6.77-3.26A67.36,67.36,0,0,0,168.46,89c-3.16-4.11-3.11-5.15,1.4-8.48a12.85,12.85,0,0,0,1.26-1.28c1.43-8.9,5.21-17,9.54-25.16,4-7.52,9.63-12.81,16-17.78A17.44,17.44,0,0,1,198.61,35c2-1.22,4-1,4.82.52s.14,3.38-1.68,4.71a14.25,14.25,0,0,1-2.15.89,15.47,15.47,0,0,0-1.7,1.12c.1,3.23,1,7.19-3.82,9.17l3.9,1.57c0,.49.19,1.22,0,1.39-1.85,1.39-3.78,2.69-5.75,4.06.53,2.75,3.89,2.35,4.93,4.47.42,2.94-2.52,3.55-4.42,5.59L197.89,70c0,1.08.32,2.42-.06,3.51a7.12,7.12,0,0,0,.72,6c1.82,3.51,2.9,3.72,7.84.91-2.54-6.6.58-13.67-1.23-20.39,1.74-3,3.52-5.86,5.11-8.82,5.23-9.7,13.65-15.4,23.7-19.08A19.39,19.39,0,0,1,237,31.4a3.15,3.15,0,0,1,3.74,2.11,8.66,8.66,0,0,1,0,3.66c0,.45-.51.88-.85,1.27-4.17,4.65-8.33,9.32-12.52,14-1.95,2.15-3.74,4.31-3.77,7.47a5.79,5.79,0,0,1-1.1,2.85c-2.51,3.8-1.29,7.46.31,11.1.17.39.81.57,1.72,1.16l3.43-3.9c-.51-2.06-1-4-1.53-6.07a47.83,47.83,0,0,1,3.09-5.39,3,3,0,0,1,4.23-.75,74.39,74.39,0,0,1,6,5.28l-3.93,7c1.06,2.28,3.22,2.51,5.27,2.44,5.74-.19,11.57,0,17.18-1.06,4.73-.84,9.5-2.48,13.07-6.23.88-.93,1.85-2.17,3-2.42,7-1.55,11.16-7.41,17-10.66,2.48-1.38,4.63-3.38,7.15-4.68s3.87-2.73,3.55-6c-.35-3.57,1.47-5,5.06-5.69,5.24-1,9.81.53,13.9,3.74,2.21,1.73,3,3.86,2.09,6.17s-2.75,3-5,2.93a19.84,19.84,0,0,1-3-.52c-.39,1.86,1.12,1.58,1.83,2.12s1.16,1,1.68,1.38c-.31,2.08-2.39.86-3.07,2.16.06.28,0,.9.29,1.2,5.23,5.64,6.77,12.75,8.19,20,.95,4.82,1.53,9.81,4.89,13.82.62.74,1.19,2.14.89,2.87-1.14,2.85,1.48,4.16,2.13,6,3.11.67,6.17,1.15,9.1,2s5.34,3.31,9.07,3.17l1.42-5.38c5-1.25,10.19-.75,15.35-.77,2.55,0,4.6-.62,5.74-3.07l-6.26-5.27,7.35-2.16-20.28-1.28c2.3-3.45,7.15-3.76,8.76-8-3.44,0-6.46.3-9.38-.11-1.67-.24-3.18-1.64-4.63-2.45-.19-5.85-.16-6,4-6.93,1.71-.4,3.75,0,4.86-2.66l-7-2.44c.38-6.21,4.27-8.71,9.85-10-1-4.26-2.81-8.22-.73-12.81,3.77-2.7,7.44-.12,11.49,1.31-.24,1.53-.47,3-.75,4.76,2.06,1.3,4.05,3.43,6.34,3.82,5.47,1,7.54,4.09,7.56,9.15a16.16,16.16,0,0,0,10.82,3.28c4.57-.14,9.21,1.43,13.76,2.48.63.15,1.21,1.57,1.34,2.46a2.36,2.36,0,0,1-1.21,1.78A53.89,53.89,0,0,1,402.69,72c-4.42,1.55-8.8,3.24-13.3,4.48-4.27,1.18-7,4.23-9.79,7.23-.42.44-.24,1.44-.34,2.15,1.88,1.54,3.59.08,5.31,0,2.11-.15,4.12-.48,5.44,1.92a4.18,4.18,0,0,0,2.57,1.39,35.51,35.51,0,0,0,6.1,1,15.83,15.83,0,0,0,4.52-.6c1.73-.42,3.39-1.58,5.49.28A20.52,20.52,0,0,0,407.1,93c-.61,1.92-.45,4.35-1.59,5.76-1.79,2.22-4.85,1.27-7.41,1.48a7.49,7.49,0,0,0-1.51.43c-.75,1.78.87,2.15,1.81,2.75a16.41,16.41,0,0,0,2.93,1c4.86,1.86,9.71,3.76,14.58,5.59a2.56,2.56,0,0,0,3.4-1,3,3,0,0,0-1.74-3.85,44.27,44.27,0,0,0-4.62-.65c-1.61-.22-3.1-.7-3.69-2.41-.41-1.21,1.88-2.58,4.25-2.13a18.81,18.81,0,0,0,10.67-1.19c2.82-1.09,6.1-1,9.26-1.43l1.28-3.86,11.33-1c-1.15-1.4-1.61-2.4-2.38-2.83-1.82-1-3.83-1.66-5.68-2.62-1.51-.77-1.07-2.07-.86-3.26,7.3-1,13.5,1.28,19.67,4.38a98.49,98.49,0,0,1,17.71,11,2.92,2.92,0,0,1,2.93,0c.9.44,2.1,1.07,2.36,1.87a17.66,17.66,0,0,0,3.41,5.67l1.88-3.84a13.12,13.12,0,0,1,7,6,38,38,0,0,0,2.29,3.75,7,7,0,0,1,6.12,3.62c1.76,2.77,4,5.25,6.12,8L504.65,128c1.76.53,3.56.71,4.9,1.58s2.44,2.53,3.84,4.06c1.13-1,2.05-1.93,3-2.76l.61-.5c2.32.08,4.65.18,7,.11,1,0,1.73-.65,1.15-2.27a9.65,9.65,0,0,1,1.33.47c2.42,1.07,4.58.3,6.69-.9l7.44-4.22c-3.45-6.56-3.45-6.56-1-14.3-3.11.48-4.54,3.58-7.86,4-.86-.6-2.06-1.5-3.33-2.29-2.19-1.38-3.7-.67-5,1.59-1.67,2.81,0,5.51.3,8.36-1.2.14-2.06.52-2.64.27-1.65-.74-3.15-1.79-4.77-2.6-4.29-2.17-4.33-2.2-4.95-8.56,4.66-2.73,4.66-2.73,12.77-2.61-4.43-3.82-10-1.83-14.36-4.6-.9-1.08.75-3.54-1.52-4.29-2.68-.88-4-3.18-5.8-5a3.7,3.7,0,0,1-.42-4.39c1.05-2.12,2.17-4.18,4.64-5A11.79,11.79,0,0,0,508.72,83c4.39-2.56,8.87-4.43,14-2.3.4.16,1-.16,1.51-.26a2.3,2.3,0,0,0-.59-3.43c-5.56-4.27-11.7-4.29-17.19,0-2.29,1.77-4.3,3.73-7.17,4.55-4.13,1.18-4.65,1.05-8.5-3-.46-4.2,4.48-4.69,5.61-7.76-1.75-4.12-6.15-.76-8.69-3.9a4.84,4.84,0,0,1,4.27-4.9,34.35,34.35,0,0,1,4.66-.15c1.29-.07,2.75.11,3.83-.43,3.84-1.92,7.54-4.09,12.67-6.93-8.23-.57-14.2,4.16-21.42,2.93a39.12,39.12,0,0,0,1.17-4.41,21.48,21.48,0,0,0,0-3.43c2.84-3.25,7-4.28,9.38-8.33-4,.68-7,1.24-9.43,4.25-1.53,1.87-4.26,3.09-6.69,3.81-4.85,1.43-9.26.75-11.82-4.36.63-2.37,2.65-2.07,3.76-1.36,4.66,3,8.78,1.15,12.94-.49.07-1.88-.9-2-2-2.2-1.23-.2-2.89-.13-3.59-.89-2.65-2.87-5.47-2.4-8.59-1.2-2.43.94-5,1.56-7.4,2.53-3.1,1.24-6.24,2.43-8.1,5.62-.57,1-2,1.46-3.07,2.18-2.66-4.31-2.59-7.89.11-10.62,1.08-1.1,2.83-1.85,3.33-3.13,1.94-4.91,5.73-5.24,10.2-5.14a82.79,82.79,0,0,1,19.26,3.21,26.77,26.77,0,0,0,14.61.16c5.86-1.66,11.87-.89,18.33-.69-.23-1.72-.43-3.32-.67-5.15,1-.14,1.84-.53,2.43-.29,7.42,3,12.17,8.7,15.52,15.72.29.6-.07,1.51-.16,2.61A23.22,23.22,0,0,1,537,47.14c-6.18.79-12.18,3-18.56,2.36a4.19,4.19,0,0,0-2.73,1.21,2.51,2.51,0,0,0-.43,2.14c.18.63.93,1.12,1.49,1.61a1,1,0,0,0,.76,0c6.09-1.34,12.19-2.6,18.24-4.1a24.8,24.8,0,0,1,7.65-1.16c2.8.19,5.64-.49,8.48-.68,3.24-.22,4.59,1.19,4.93,4.55.38,3.87,1,7.72,1.46,11.58.2,1.55.73,3.16.49,4.64a7.41,7.41,0,0,1-2,4c-1.54,1.44-3.37.9-5.1-.61-.27-2.22,1.86-4.34.14-7.16-1.35-2.19-.84-5.51-1.2-8.32a9.92,9.92,0,0,0-.77-3.63,3.51,3.51,0,0,0-2.57-1.18c-.49,0-1.39.89-1.51,1.5-.4,2-1.16,4.27-.65,6.1,1.44,5.13-8,10.21-8.81,15.45-.07.44,10.35,1,10.59,1.56,3.25,1.93,6.46-1.35,10.31-.13,0,1,0,2.16,0,3.33-.16,3.26,1.5,5.72,4.42,6.18,1.54.25,3.15,0,4.69.21a15.61,15.61,0,0,1,8.38,3.75c-6.33,2.8-13.31.55-19.91,2.28,2.68,3.7,2.68,3.79,5,3.76,1.55,0,3.1-.34,4.66-.5a18,18,0,0,1,19.94,15.58c.06.44.1.87.13,1.31-.49-.27-.85-.42-1-.31-1.32,1-3.35,1.33-3.59,3.82,1.8.44,3.13-.23,4.7-1.21.05,2.68-.1,5.39-.12,8.07,0,1-.58,2.12-.38,3.07,1.3,6.43-2.3,11.57-4.63,16.93a21.14,21.14,0,0,0-1.9,5.76c-1.95-1-4.1-1.22-6.39-1.88.34,1.56.58,2.7.83,3.82,3.53.65,4.07.75,6.19-.11,1.55.89,2.71.17,3.27-1.21a51,51,0,0,0,1.77-6.45l7-6c-.37-1.9-.69-3.55-1-5.18.84.25,1.64.47,2.44.68,3.76,1,4.57,2.21,4.64,5.94a21.07,21.07,0,0,1-1.14,7l-2.13,2,.81,1.36c-.74,1.67-1.57,3.31-2.41,5h-9.93c2.32,2.86,4.5,6.47,7.57,9a19.57,19.57,0,0,1,3.26,3.39l0,0h.05a11.93,11.93,0,0,1,2.12,4.79,36.06,36.06,0,0,1,6.15,2c-1.32.4-2.66.77-4,1.06-2.69.58-5.46.83-9.05,1.35,1.18,1,2,2.17,2.54,2.07,3.31-.55,6.58-1.38,9.86-2.16a37.2,37.2,0,0,1,4.28-1.16,16.37,16.37,0,0,0,1.9.38,2.25,2.25,0,0,1,.89.75,3,3,0,0,1-.3,2.77,30.18,30.18,0,0,1-3.06,3.22c-2.23-2.6-4.7-4.39-8.41-4.15-.4,0-.76.5-1.25.85l2.09,3.28c-1.17,3.51-2.23,6.66-3.25,9.7a20.91,20.91,0,0,1-3.57.84l2.68,3.78a7.41,7.41,0,0,1-5.39.15l.42-.23-1.51-1.9c-.29.4-.56.72-.78,1-.18-.16-.36-.29-.54-.47-.82-.8-2.17-1-4-1.87-.06,2.47-.1,4.15-.15,6.07-.72,0-1.57.33-2.09,0-1.48-.84-2.82-1.92-4.81-3.34-.67,2.94-1.17,5.11-1.64,7.18,5.6,3.2,6.35,3.38,14.62,3.59l-4.69,4.52-.65-.5c-1.88,1.23-1.47,2.57-.82,3.64,2,3.3,4.48,6.31,5.59,10.18a2.54,2.54,0,0,0,3.81,1.38,16.45,16.45,0,0,0-3.51-10.33l3-.23a58.72,58.72,0,0,0,4.57,4.52c2.5,2,2.32,4.34,1.33,7.17a21.5,21.5,0,0,1,3.39,1.61,1.91,1.91,0,0,1,.49.58c-2.32,1.24-4.75.9-7.25.83a2.15,2.15,0,0,0-1.61,1.33v0a31.32,31.32,0,0,1-3.35.17c-.46,0-.94.38-1.42.6-1.05,1.78-.65,3.08,1.49,3.23,1.25.08,2.53-.62,3.82-.67a7.67,7.67,0,0,1,3.78.48c1.77.93,4.15,1.82,4.05,4.29s-2.22,3.3-4.41,3.56a9.62,9.62,0,0,0-7.14,3.94c.56,2.2,2.49,1.76,3.8,2.37,1.52.72,2.77,1.78,2.56,3.52a3.4,3.4,0,0,1-3.3,2.86,81.85,81.85,0,0,1-8.58.17,44.7,44.7,0,0,1-4.7-.59c-.32-5.32-4.43-8.79-5.87-13.46-4.7-3.37-7.85-8.14-11.51-12.47-1.16-1.37-3.72-1.51-5.57-2.36-1.36-.63-3.2-1.2-3.8-2.34-3.45-6.5-10.06-9.76-14.86-14.84a4,4,0,0,0-2.84-1c-5.7.43-7.72-3.37-9.23-7.8a12.63,12.63,0,0,1-.5-2.29,2.64,2.64,0,0,1,2.79-3,37.43,37.43,0,0,1,4.58.48c-1-2.42-4.72-3.2-2.87-6.16,1.42-2.27,3.71-1.13,5.73-.84,1.78.26,3.57.41,5.32.6,2.05,2.32.19,6,3.17,7.68l7.17,3.91,1.84,4.69c2.42.72,3.6-.43,4-2,.28-1.08.12-2.89-.59-3.53-3.85-3.42-6.81-8-11.66-10.11-4.69-2.07-8.81-5.54-14.22-6-1-.07-1.87-.94-2.86-1.22-3.25-.94-3.77-3.21-3.07-6.64,1.24-.3,2.67-.63,4.09-1,.75-.19,2-.28,2.14-.7,1.34-4,5.06-3.87,8.12-5,3.22-1.15,3.88-4.13,1.15-5.88a8.85,8.85,0,0,1-4.27-5.07c-.65-2-3.17-2.25-5.71-1.17l2.37,6.78a21.55,21.55,0,0,0-3,2.33c-1.37,1.51-2.24,3.78-3.89,4.68a20.4,20.4,0,0,1-8.71,2.87c-5.11.16-10.48.86-15.22-2.07-1.32-.82-2.53-1.79-3.93-2.8-.26-1.74,1.19-2.38,2.57-3.12,3.48-1.89,3.44-1.95,5.38-5.37-2.47-.4-2.86,2.05-4.29,2.83-1.59.87-3.18,1.77-4.83,2.55s-3.28,1.38-4.64,1.94l-8.32-6.31a20,20,0,0,0-1.71-9c-1.55.56-3.19,1-4.77,1.45-1.82.56-2.87-1-2.94-3.89-2.42,1-5.91.5-6.26,4.44a102.46,102.46,0,0,1-9.25,5.77c-4,2-8.05,1.76-11.56-1.47.78-2.2,5.21-1.81,3.95-5.85a17.74,17.74,0,0,0-10.79,5.41c-2.41,2.66-5,3.45-8.36,2a10.32,10.32,0,0,0-3.8-.68c-1.53-.05-3.14-.09-4.12,1.58-.37.62-1.15,1.51-1.68,1.46-6-.52-9.3,3.91-13.45,6.9a16.08,16.08,0,0,1-5.62,2.55,106,106,0,0,1-10.81,1.64,9.81,9.81,0,0,0-5.51,2.28c-3.48,2.84-7.54,4.35-12.38,2.81-2.66-.84-5.69-.47-8.52-.91-3.29-.51-4.41-2.51-3-5.63,4.1-9.27,8.23-18.55,14-26.88,1.56-2.23,4.18-3.88,6.61-5.28a57.06,57.06,0,0,0,9-6.16,54.56,54.56,0,0,1,9.19-5.83c3.62-2,7.37-3.81,11.42-5.89-.44-2.39-.85-4.58-1.29-7a33,33,0,0,0-17.92.51c-2.14.68-3.84,2.6-5.91,3.63a36.14,36.14,0,0,0-11.9,9.83c-3.21,3.89-6.68,7.79-12.29,10l5.55,4.62c.4,2.53.92,5.28-.65,8-1.42,2.48-2.7,5-4.1,7.56-2.41,4.31-5.09,8.47-6.53,13.27-.74,2.45-2.53,3.61-5,4.44-4.91,1.64-9.66,3.78-14.51,5.63-8.93,3.4-16.45,8.88-23.27,15.45-2.82,2.72-5.81,5.26-8.54,8.06a26.49,26.49,0,0,1-9.66,6.29c0-1.52.07-3,1.41-4.11,2.95-2.52,5.86-5.11,8.7-7.76,3.78-3.56,7.5-7.2,11.2-10.84a32.67,32.67,0,0,0,2.3-2.79c-.62-.71-1-1.44-1.26-1.39-4.86,1-9.3-.25-13.56-2.41-2.62-1.32-5.21-2.39-8.19-1,.13,2.45,2.13,2.7,3.81,3.16,1.95.53,4.27.26,5.25,2.8-2.44,3.89-4.52,8.14-7.48,11.64-2.28,2.7-5.53,4.67-8.61,6.52-1,.6-2.85-.19-4.69-.39.28-2.66.51-4.87.79-7.63a28.8,28.8,0,0,0-4,0c-1.87.28-3.51,1-4,3.13a5.42,5.42,0,0,0,1.83,5.62,36,36,0,0,0,4.06,2.7c-3.05,2-5.66,1.71-8.1,1.16-2.73-.61-5.58-.93-7.89-3a33.24,33.24,0,0,0-6.42-4.28c-1.14-.62-2.75-.56-3.31.93-.29.76.26,1.87.52,2.79a9,9,0,0,0,.83,1.54,31.88,31.88,0,0,0-4.25,1.69,1.56,1.56,0,0,0,1.05,2.9A17.31,17.31,0,0,1,266.93,215c-.4,2.54-.79,5.06-1.21,7.76a9.44,9.44,0,0,1-3,.75c-5.71-.57-11.63-1.13-16.48-4.18a48.73,48.73,0,0,0-13.46-6,12.67,12.67,0,0,1-2.53-1.57c3.79-1.23,7,1.68,9.94.06-2.34-1.37-4.16-4.38-7.91-2.86-.79.33-2.44-.72-3.34-1.53a9.09,9.09,0,0,0-5.35-2.64c1.11,3-.29,5.48-1.91,7.84a3.69,3.69,0,0,1-1.9,1.3c-5.43,1.56-10.19-.12-14.54-3.29a24.57,24.57,0,0,1-3.32-3.29c-2-2.14-1.84-2.84,1.24-5.46a43.36,43.36,0,0,1-5.49-.05,6,6,0,0,1-4.82-5.42,3.36,3.36,0,0,1,1.22-2.64,44.3,44.3,0,0,1,5.73-2.46c.15-2.62-2-3.46-3.44-4.81-6,.71-5.82.8-4.68-4.83-1.64-1.41-3.78-2.57-4.88-4.36-1.94-3.16.18-6.47.34-10.38a16.1,16.1,0,0,1,3.62,1.11c.53.33.74,1.35.9,2.1a12.13,12.13,0,0,0,6.27,8.54,5.21,5.21,0,0,1,1.92,1.32c4.18,6.5,11.67,7.37,17.81,10.5a18.33,18.33,0,0,0,5.25,1.33c5,.84,5,.8,6.18,6.09,2.9-1,3.25-1.42,2.8-3.27a3.18,3.18,0,0,0-.14-.77,13.11,13.11,0,0,1-1.52-2.65,7,7,0,0,1,.05-3,27.61,27.61,0,0,1,1.36-3.61c-2.4,1.25-3.87,2.1-5.41,2.79s-2.91,1.09-4.16,1.54c-4.54-2.33-8.92-4.56-13.27-6.85-1.83-1-4-1.7-5.3-3.18-4.11-4.68-8.24-9.4-11-15.08a4.28,4.28,0,0,1-.53-2.24,2.56,2.56,0,0,1,1-1.82,2.38,2.38,0,0,1,2.17.18,51.64,51.64,0,0,1,3.79,4.44c2.61-2.73,6-3.91,7.85-7.42,1.72-3.27,5.43-4.68,8.48-6.61a48.29,48.29,0,0,1,4.79-2.36c-.25-2.77-2.24-2.45-3.41-1.89A76.08,76.08,0,0,0,205,152.64c-3.63,2.63-6.9,4.1-11.54,2.59-2.16-.7-5,.6-7.59,1-1.66-.35-2.21-3.07-4.47-2.4a4.43,4.43,0,0,0-2,1.14c-2.58,3,1.05,4.54,1.73,7.16-.54,2-1,4.25-1.79,6.46a24.14,24.14,0,0,0,.45,17.48c7,17.34,5.77,14,17.92,22.48.82.58,1.59,1.23,2.26,1.75-.55,3.48-3.48,1.77-5.07,2.87.26.31.47.85.77.9,4.11.69,8.25,1.24,12.36,2,4.95.87,9.77,1.16,14.57-1,3.17-1.41,6.09-1.21,9.61.46,5.81,2.77,11.36,6.2,17.71,7.93a35.19,35.19,0,0,0,9.95,1.64c4.82-.07,9.65,0,14.57,0-1,2.34-3.18,1.67-4.77,2.28-2.67,1-5.42,1.89-8.15,2.77-4.32,1.41-4.61,2.42-1.82,6.54a9.89,9.89,0,0,1,.51,1.23l-6.34,9.25c-1.91,0-3.7.07-5.47,0a7.07,7.07,0,0,0-6.28,2.4,8.1,8.1,0,0,1-3.87,2.25c-3.72,1-5.54,3.39-6.42,7-.94,3.89-4,5.51-6.72,3.1-3.22-2.82-5.62-1.37-9-.21l3.48,2.06c-2.76,2-2.74,2-4.75,7.32-.15.41-.79,1-1.09.91-.65-.14-1.58-.5-1.78-1a22.43,22.43,0,0,1-.83-3.95,48.92,48.92,0,0,1-6.14-1.31c-5.31-1.87-9.13,0-12.15,4.35-.44.63-.81,1.3-1.21,1.95.47,1.5.91,2.92,1.35,4.36-5.08.83-5.08.83-7-2.43s-2.68-3.5-6.08-1.41c-.65.39-1.26.86-1.81,1.23-4-.46-4.86-4.65-7.93-6.38-6,2.58-12.19,4.17-18.69,3.05-4.29-6.12-4.31-7.94-.12-16.1-6.12-.13-11.91,0-17.29,3-.9.5-2,.66-2.93,1.08-8.25,3.63-15.7,2.29-22.58-3.39-3.62-3-7.58-5.56-11.08-8.66a36,36,0,0,1-11.62-19.83c-.94-4.45-1.4-8.78,1-12.92a8.3,8.3,0,0,0,.61-1.44c.63-1.84-.29-4.39,2.44-5.26,2.35-.74,3.88,1.09,5.78,1.8a46.44,46.44,0,0,1,15.08,9.59,44.63,44.63,0,0,0,15.14,9.52,20.07,20.07,0,0,0,3.48.61c1-1.61.31-2.29-.65-2.83-2.29-1.25-4.57-2.52-6.89-3.71a13,13,0,0,1-6.18-5.74,11.54,11.54,0,0,0-6.61-5.51c2.69-2.76,6.52-3.67,9.25-5.95,3.43-2.88,7.2,2.12,10.63-1.49-1-2.43-3.22-3.67-5.52-5.61a32.27,32.27,0,0,0-2.68,2.45c-2.28,2.6-5.2,3.28-8.48,3a20.49,20.49,0,0,0-4.66-.31c-1.48.21-2.88,1-4.75,1.78-1.45-2.36-3-4.45-5.75-5.66s-2.73-3.94-.37-6.34c1-1.06,3-1.25,3.13-3.41-4.69-1.39-6.54,3.52-10.47,4.24,1.32,1.74,2.69,2.94,3.24,4.46s.32,3.41.47,5.93c-1.57-.6-2.45-.86-3.27-1.26-3.56-1.73-6.94-.61-7.74,3.07-.44,2-1,3.35-2.86,4.19-3,1.38-4.08,3.94-3.58,7.08A16.37,16.37,0,0,1,75,226c-.56,1.36-.39,3.08-.39,4.63a5.11,5.11,0,0,0,3,5c2.56,1.26,5.1,2.56,7.53,4a47.05,47.05,0,0,1,4.56,3.65l-4.46,4c2.17,1.19,3.85,2.75,5.73,3,4.87.75,8.65,3.31,12.29,6.26s8.11,4.56,12.47,6.21c7.7,2.91,14.64,8.41,23.42,6.09,1.53,2.36,2.64,4.08,3.6,5.58,7.46,2.22,14.63-.66,21.64-.33,1.26,3.91.28,6.82-2.29,8.93a9.43,9.43,0,0,1-9.57,1.69,24.21,24.21,0,0,0-6.81-1.23c-8.33-.36-16.67-.17-25-1.67-5.81-1.06-7.32-.42-14.16,3.91-2.88-2.5-6.32-2.41-10-1.33a11.89,11.89,0,0,1-8.4-.52c-1.55-.68-3.54-.39-5.34-.46-1.53-.07-3.06,0-5.1,0-.18-1.78-.63-3.29-.43-4.72.42-3.08,2.69-4.31,5.67-3.43,3.73,1.11,7.44,2.3,11.23,3.21a42.42,42.42,0,0,0,19.41.13c4.06-.92,8.2-1.48,12.24-2.46,1-.24,1.68-1.52,2.82-2.62-3.08-2.11-5.59,1-8.07-.38l-2.54-3.26c-2.66.59-1.53,2.67-2.2,3.89a4,4,0,0,1-2.09,1.94c-1.47.34-2.47-.75-2.82-2.1a11,11,0,0,1-.1-3c0-1,.16-2,.23-2.72-2-2.58-4.62-3.1-7.1-3.79a4,4,0,0,0-3,.35c-5.41,3.67-10.62,2-15.38-.94-2.63-1.63-5.27-1.93-8.06-2.33-2.93-3.27-5.87-6.54-8.78-9.83a18.23,18.23,0,0,1-4.64-8.84C63.5,239.25,63.35,235.78,61.09,233Zm89,47.22c2.22-.12,4.68.27,6.34-2.29C152.62,277.09,152.62,277.09,150.08,280.18Zm58.86-87c-.79-.72-1.11-1.19-1.54-1.36a15.09,15.09,0,0,0-2.35-.51c.63.76.88,1.33,1.3,1.5A12.9,12.9,0,0,0,208.94,193.23Zm14.44,11.51c-.32-1.74-.54-3.61-2.57-4.26-2.92-.93-5.88-1.75-8.83-2.55-1.13-.31-2.41,1.08-2.34,2.4.1,2.14,1.06,3.56,3.11,3.77C216.28,204.47,219.84,204.55,223.38,204.74Zm172.67-42c-5.43-.13-10.34-.24-15.15,1.28-4.3,1.36-8.95,1.71-13.43,4.5C373.25,169.58,385.83,167,396.05,162.78Zm11.46-2.55c-2,0-2.74-.19-3.32.05a13.54,13.54,0,0,0-2.32,1.51l.56,1.11a7.93,7.93,0,0,0,2.05-.4A25.47,25.47,0,0,0,407.51,160.23Zm146.75-12.74a11.24,11.24,0,0,0-1.12,2.42c-.07.4.37.88.58,1.33.5-.43,1.3-.8,1.42-1.31S554.73,148.69,554.26,147.49Zm14.62,15.77c.72.08,1.54-.67,2-.92.11-2.77-1.18-4.42-2.88-4.08a2,2,0,0,0-1.21,1.52C566.92,161.22,566.91,163,568.88,163.26Zm.12,50c-1.09,2.84-.2,5.1,2.56,7.55C571.94,217.31,570.6,215.27,569,213.3Zm4.86-50c2.07,2.79,3.42,4.56,4.71,6.37.91,1.27,1.92,2.81,3.59,1.84.81-.47,1.25-2.12,1.3-3.26.16-3.21-1.11-4.86-4.18-5.36C577.86,162.67,576.33,163.1,573.86,163.31ZM569,173.82c1.33,1.59,3.32,2.93,3.72,4.65,1,4.2,2.77,8.31,2.39,12.79,0,.41.49.85,1,1.69l6.3-1.77c-1.17-2.91-2-4.79-2.68-6.7s-3.28-2.29-3.6-4.78l6.12-.94c-3.58-3.17-7.46-4-10.9-5.66C570.43,172.67,569.34,172.57,569,173.82ZM568,103c0,.2.7.7,1.13.77a13.64,13.64,0,0,0,2.32,0,15.87,15.87,0,0,0-2.09-.9C568.93,102.77,568.26,101.55,568,103Zm-13.78-5.82c.18.4.33,1.12.54,1.14a6.17,6.17,0,0,0,1.76-.35c-.27-.7-.43-1.12-.6-1.53Zm-1.1,32.72c.6,6.77,2.67,11.27,9.65,11.92-.41-.74-.69-1.35-1.06-1.88-2.53-3.66-2.09-5,1.82-5.81,1.6-.34,3.74.71,5.21-2.75C563.58,130.58,558.66,130.57,553.12,129.88Zm-9.39,25.19c0,.4.9.88,1.39,1.33a10.19,10.19,0,0,0,1.51-2.27c.1-.28-.78-.92-1.65-1.87A10.33,10.33,0,0,0,543.73,155.07Zm-7.21-12.79c4.28-2.52,4.49-3.79,1.91-7.28C537.84,137.26,537.35,139.1,536.52,142.28Zm-13.67-3.17c4.66-2.13,5.25-2.82,4.44-4.37a2.48,2.48,0,0,0-3.2-1.42c-.66.22-1.55.9-1.62,1.47A20.63,20.63,0,0,0,522.85,139.11Zm.75,8.6a3,3,0,0,0,2.29-1.35c.59-1.39-.93-3-3.08-3a6.21,6.21,0,0,0-1.39,2C521,146.91,522.2,147.75,523.6,147.71ZM478,116.77a1,1,0,0,0,.59-.41,4.93,4.93,0,0,0,.32-1.31Zm-2.59,26.52a1.63,1.63,0,0,0,.94,1.81,7,7,0,0,1,.86-1.47,4,4,0,0,0-1.69-.93A4.34,4.34,0,0,0,475.43,143.29Zm-4.19,6.54,5.59-.67a3.94,3.94,0,0,1-.81-2.4C474,147,472.63,148.44,471.24,149.83Zm-18.2,0-5.78-2.13C449.21,149.83,449.21,149.83,453,149.84Zm3.57-18v6.53c2.16.29,4.13.57,6.1.79.08,0,.21-.39.37-.7A10.3,10.3,0,0,0,456.61,131.85Zm-7.34-26.55c1.68,1.43,3.66,2.65,5,4.38a27.3,27.3,0,0,1,2.5,5,13.41,13.41,0,0,1,2.24-1.46,7.27,7.27,0,0,1-.22-1.36c-.1-3.48-2.38-5.6-4.7-7.56C452.64,103.14,450.8,102.8,449.27,105.3Zm-2,36a8.27,8.27,0,0,0-.58-2.16,6.21,6.21,0,0,0-1.53-1.33,6.1,6.1,0,0,0-.87,1.85C444.09,142.15,445.43,142.16,447.28,141.33Zm-8.83-28c.17.42.26,1.14.53,1.21a15.18,15.18,0,0,0,2.74.26c-.35-1-.49-1.76-.65-1.76A18,18,0,0,0,438.45,113.36Zm-2.31,30a13.2,13.2,0,0,0-2.2-1.18c-.95-.29-2,.95-1.51,2a2.05,2.05,0,0,0,1.58,1.08C434.53,145.22,435,144.44,436.14,143.36ZM424,116.85l.85,1,1.22-.66c-.29-.35-.54-.92-.87-1S424.36,116.63,424,116.85Zm-.3,26.63c2.38.15,3.41-1.74,4.44-3.35,1.95-3.06,4.1-5.83,8.57-6.68-1.35-1.47-2-2.67-3-3.17-1.29-.63-2.32.24-3.11,1.46-2.36,3.63-4.82,7.19-7.21,10.79C423.23,142.64,423.46,143,423.66,143.48Zm-59.79-84c-1.58-.39-3-2.21-5.57-.15,1.48,1.26,2.54,2.3,3.74,3.16,1.6,1.15,3.69,1,3.82-.25A2.39,2.39,0,0,0,363.87,59.45ZM375.14,75.3a8.82,8.82,0,0,0,2.12,1.83c.21.13.81-.37,1.41-.67a6.09,6.09,0,0,0-1.1-1.79,4,4,0,0,0-2-.59C375.46,74.07,375,75.12,375.14,75.3Zm-26.83,43.3c2.36-.51,4-.81,5.6-1.26.22-.06.43-1,.28-1.31s-.93-.78-1.12-.67C351.67,116.21,350.35,117.18,348.31,118.6Zm-5.35,10a2.13,2.13,0,0,0,2.73,1.85c.55-.1,1-.88,1.44-1.35l-2.92-2.44C343.61,127.5,342.89,128.08,343,128.55Zm-4,42.58c6.4-3.76,12-7.14,15.89-13,2-3,4.37-5.73,6.63-8.53,1.34-1.66,1.7-3.6.58-4-1.68-.57-3,.19-4.14,1.33a3.93,3.93,0,0,0-.5.58c-5.08,7.7-10.13,15.4-18.41,20.21C338.57,168,338.91,169.5,338.91,171.13Zm-4.18-44.48c.33.33.61.81,1,.92s.91-.14,1.37-.23L336,125.83Zm-2.43,47.66h6l0-.73-5.92.48A2.11,2.11,0,0,0,332.3,174.31Zm-119.67-10.8c1.78,2.48,4.05,4.63,7.46,4.74,1.87-2.3,1.31-4.54.72-6.84l-6.28-5.6C211.08,158.84,210.5,160.55,212.63,163.51Zm11.15,9c-5.51-.69-11.08-1-17-1.49a20.86,20.86,0,0,0,1.78,3.69c1.63,2.11,5.06,2.88,6.68.8,1.91-2.45,3.41-1.59,5.23-.73s3.48,1.85,5.52,3C226.68,174.82,226.34,172.78,223.78,172.46Zm4.1-19-2.3-2.32-2.17,2.33c.76.57,1.52,1.55,2.3,1.57S227.16,154,227.88,153.46Zm6.31,8.28c-.31-1-.41-1.78-.59-1.8a5.84,5.84,0,0,0-2.2.23c-.16.05-.16,1.23-.12,1.24C232.17,161.57,233.07,161.63,234.19,161.74Zm1.46-22.68c1.26-.17,2.9-.27,3.63-1.07,2.43-2.67,5.56-2.5,8.64-2.69,3.36-.2,6.77,0,10.32-2-.39-.92-.45-1.57-.78-1.76a5.1,5.1,0,0,0-5.84,0,5.89,5.89,0,0,1-6.65.26c-2.68-1.82-5.32-1.39-8.2-1.08a55.84,55.84,0,0,1-15.4,0c1-1.78,1.47-3.21,2.42-4.16.64-.63,1.93-.65,3-.83,3.16-.56,6.33-1.07,9.88-1.66-3.25-2.33-3.56-2.53-5.1-2.23-3.05.61-6.14,1.16-9.12,2A11.07,11.07,0,0,0,216,128c-1.86,2.67-4.46,3.25-7.5,2.49a21.46,21.46,0,0,0-3-.22c1.76,2.58,3.13,4.6,4.46,6.57,3.13-.31,5.68-.73,8,2.2,1.6,2.07,4.66,3,6.84,4.31C229.79,139.81,229.79,139.84,235.65,139.06Zm14.58-21.78-5,.55,1.6,2.3C247.7,119.43,248.56,118.7,250.23,117.28ZM247,120.22a10.14,10.14,0,0,0,2,.8c2.12.42,4.86-.17,4.95,3.31,0,.06,1.12.31,1.35.1.47-.45,1.08-1.32.91-1.72-.34-.83-1.08-2-1.79-2.11C252,120.27,249.49,120.31,247,120.22Zm1.57,32.36c1.95,2.21,3.2,3.85,4.69,5.22a3.79,3.79,0,0,0,2.64.81c.48,0,1.23-1.08,1.25-1.69.16-4.08.3-8.18.09-12.25a4,4,0,0,0-2.34-2.68c-.88-.35-2.18.39-3.42.68C251.81,146.53,254.28,150.53,248.59,152.58Zm-3.37,13.6a11.86,11.86,0,0,0-.49-1.5,27.59,27.59,0,0,0-4.33,1c-.37.13-.46,1-.92,2.17ZM239.87,175l-2.19,1.26c.4.53.74,1.44,1.19,1.49.63.07,1.33-.5,2-.79Zm2.45-24.15a6.24,6.24,0,0,0,1.73-.79l-1.55-1.68a9.28,9.28,0,0,0-1.22,1.68C241.23,150.14,242,150.86,242.32,150.82Zm5.25,29a36.74,36.74,0,0,0-6.19.42c-2.76.34-4.53,2-3.71,4.7s-.79,4.43-1.52,7.35l4.88,6.84c-.12,3.46-1,6.94,2.63,9.07,2.67-3.08,2.59-3.06,1.9-5.41-1.5-5.18-2.91-10.38-4.17-14.92,1.66-4.5,5.7-2.94,8-4.33C250,181.36,249.62,179.87,247.57,179.77Zm9.95,9.92a16.92,16.92,0,0,0-1-2.71c-1.36.43-2.11.59-2.8.89a2.53,2.53,0,0,0-1.41,3.25,3.13,3.13,0,0,0,3.81,1.85C257.56,192.33,257.7,191,257.52,189.69Zm35.52-.05-11.25-.53c-.66-2.56-1.2-4.64-1.71-6.6-2.25,0-2.58,1.33-2.91,2.55-1.06,3.81,1.35,6.34,3.39,9,2.27,2.95,5.37,3.89,8.78,2.23A6.28,6.28,0,0,0,293,189.64Zm-9.63-20.47c.21-3.06-1-4.76-3.57-4.7-.79,0-2.29,1.16-2.22,1.54.85,4.17,1.89,8.3,3,12.4.1.35,1.46.65,2.07.46s1.31-1.37,1.17-1.58C282.13,174.64,283.34,171.88,283.41,169.17Zm-1.56-12.78a35.1,35.1,0,0,0-3.59-1.06c-.28-.06-.93.5-1,.85a1.32,1.32,0,0,0,.76,1c1.25.12,2.51,0,3.76,0C281.8,157,281.83,156.68,281.85,156.39ZM297.58,148c-.37-.44-.77-1.07-.86-1a12.88,12.88,0,0,0-1.77,1.08c.26.34.64,1,.76,1A12.74,12.74,0,0,0,297.58,148Zm28.3,30.61a20.58,20.58,0,0,0-2.72-2.41c-.41-.26-1.24.14-1.87.23.12.45.11,1.14.4,1.3,1.21.68,2.5,1.19,3.76,1.76C325.6,179.2,325.74,178.9,325.88,178.61Zm.6-12.36c-1.49-1.52-2.33-2.37-3.16-3.23l-2.77-2.9c-6.21,1-6.57,7.46-10.8,10.38C315.65,171,320.27,167.59,326.48,166.25Zm-10.11-16.56c.77,2.06.95,3.39,1.7,4.19.34.36,1.91-.15,2.74-.6a16,16,0,0,0,2.95-2.32c.88-.8,1.62-1.75,2.45-2.6.64-.64,2.61.67,2.29-1.54C324.31,146.11,321.16,148.91,316.37,149.69ZM313.48,135h6.66c.14-1,.23-1.75.33-2.47s.25-1.6.48-3.08c-2.24.7-4.05.94-5.48,1.82C314.61,131.79,314.34,133.29,313.48,135Zm-4.82,9.28c-1.54.84-3.2,1.46-6.17,2.77l7.84,3.36c-.36-3.79,2.56-5.71,2.58-8.89C309.81,140.55,310.05,143.51,308.66,144.27ZM297.3,91.89a6.17,6.17,0,0,0,.75,1.93c.62-.29,1.42-.53,1.41-.68a9.77,9.77,0,0,0-.6-2C298.31,91.4,297.29,91.67,297.3,91.89Zm-11.85-17c-.94,2-.6,3.31,1.42,3.7,3.14.62,4.13.07,5-2.73ZM289.75,85a6.82,6.82,0,0,0-.69,1,10.09,10.09,0,0,0,1.8,1.14c.26.1.73-.3,1.48-.64C291.35,85.85,290.57,85.35,289.75,85Zm-8.68-19.62a17.36,17.36,0,0,0,2.87,2.09c.32.15,1.1-.68,1.54-1,.13-1.9-.83-2.74-2.23-2.64C282.49,63.88,281.79,64.81,281.07,65.34Zm-6.23,6.16c4.66,2,4.66,2,6.32,1.06C279.22,71.84,277.54,70,274.84,71.5Zm-7.94,14c.47,1.46,1,3.07,1.54,4.66,0,.08.46,0,1,0,.84-1.11,2-2.25.95-4C269.65,85,268.66,84.2,266.9,85.46Zm-1.12,22.14c.56.05.87.18,1,.07,5.91-4.14,12-7.21,19.56-4.63.84.29,2-.46,3-.56,6.42-.59,8.34,2,5.86,7.76a4.17,4.17,0,0,1-.83,1.31c-.89.88-1.77,2.26-2.79,2.4-1.9.26-2.44-1.47-2.8-3.07a8.9,8.9,0,0,0-.82-2.17,2,2,0,0,0-3.27-.14A16.41,16.41,0,0,0,283,112.8c-1,4.3-1.83,8.66-2.85,13-.19.79-1,1.44-1.72,2.4-2.32-5.13-2.83-9.71-1.08-14.57.63-1.76,1.71-3.88-.06-5.94-1.49,0-2.6.67-2.72,2.12a7.61,7.61,0,0,1-1.76,4.93c-3,3.42-4.39,7.45-2.48,12.36l-4,2.75a29.89,29.89,0,0,1,.21,14.3,22.42,22.42,0,0,0-.08,7c.16,1.59,1,3,3,2.36,3.72-4.51,1.32-10.85,5-15.78,1.93,3.63,2.53,6.95,1.36,10.64-.49,1.52-.17,3.47,1.49,4,3.63,1.26,7.45,2.48,10.65-.94-.92-7.53-3.81-15.21,4.18-20.67q.34-5.91.7-11.66c1.13-1.24,2.6-2.21,3.13-3.55,1.7-4.29,5.28-6.3,9.05-8.15,1.63-.79,3.47-1.21,5-2.12,1.3-.76,1.43-2,.11-3.33-5.71-.55-11.88.59-17.15-3.14a4.84,4.84,0,0,0-2.3-.36,48.08,48.08,0,0,0-17.78,1.77,9.18,9.18,0,0,0-3.68,2.58A45.13,45.13,0,0,0,265.78,107.6ZM259,162.2c-1.5-1.61-4.15-1-4.17,1,0,2.54-1.65,4-2.85,6.15,1.3.19,2.29.38,3.29.46,2.63.22,4.12,1.5,5,4.1,1.7,5.24,1.94,10.64,2.46,16a17.13,17.13,0,0,0,1.26,4.31c.12.31.89.56,1.33.51s1.14-.43,1.22-.78c.26-1.24.76-2.69.35-3.75-1.91-5,.77-10.91-3.39-15.41-.5-.54-.16-2,0-3,.25-1.76.9-3.3-1.08-4.83C260.88,165.88,260.32,163.62,259,162.2ZM224.78,88.89c4.92-1.75,7.07,1.72,9.31,3.67,9.31.69,16.74-3.5,25.15-1.92-1.28-1.48-2.48-2.45-3.11-3.71s.72-3.16-1.42-4.15c-3.74,3.37-8.46,3.42-13.15,3.35-1.22,0-2.88-.4-3.54-1.24-3.24-4.08-7.49-4.21-12.25-3.68C225.48,83.43,225.2,85.64,224.78,88.89Zm-4.4,21a7.27,7.27,0,0,0,5.42-2.56c3.64-4.26,8.67-5.26,14-4.94,1.5.09,3,.42,4.57.65.5-1.73.9-3.13,1.28-4.42,5.93-.63,5.93-.63,11.41,5.31,2.26-4.93,2.23-5.05-1.74-6.94-.92-.44-2.18-.65-2.68-1.38-1.48-2.16-3.66-2.28-5.58-1.68-4.9,1.52-10.47.6-14.84,4.12-.72.58-2.32,1-2.93.6-3.42-2.22-6-1.61-8.66,1.39-.66.74-2.47.47-3.54.63-.2,1.53-.3,3-.57,4.39C215.9,108.44,217.14,110.1,220.38,109.86Zm-11.26,4.23c.22,1.86.45,3.69.72,5.91,5.15-.66,10-.14,14.37-3.28a9.61,9.61,0,0,1,5.95-1.59c2.74.23,2.85-3.11,5.58-3,7.74.24,15.6-1.71,23.22,1.57a10.51,10.51,0,0,0-5.21-2.54c-.95-.14-2.33-.56-2.66-1.26-1.37-2.88-3.52-2.67-5.93-1.94-2.82.87-5.77,2.57-7.72-1.38l-6.66-.3C226.3,111,224.12,114.31,209.12,114.09Zm-5.46-27.83c.49.49,1,1.38,1.46,1.38.72,0,1.43-.64,2.58-1.23-1-.91-1.61-1.8-1.86-1.7A10.35,10.35,0,0,0,203.66,86.26Zm-20.45-4.72a7.15,7.15,0,0,0,2.45.45c.54-.13.94-.82,1.4-1.27-.63-.26-1.3-.79-1.88-.69S184.09,80.83,183.21,81.54Zm27.92,18.82V91.13a17,17,0,0,0-3.27-.41c-3.58.42-7.11,1.44-10.31-1.58-1.09-1-2.89-.42-4.19.88-.83.85-2.18,1.94-3.11,1.79-2.56-.42-5.76.36-6.85-3.67-.36-1.33-3.06-2.56-5.9-1.33l3.89,6c2.06.28,3.94,1,5.66.68,5-.88,9.07.44,13,3.7C203,99.74,206.88,100.48,211.13,100.36Zm-14,39.56c.64.61,1.65,1.36,2.39,1.24a55.13,55.13,0,0,0,6.35-1.76c-.65-1.24-.9-2.55-1.53-2.76a5.69,5.69,0,0,0-6.39,1.39C197.45,138.53,196.91,139.75,197.09,139.92Zm-62.73,52.41a8.24,8.24,0,0,0-7.94-.88C129.38,193.28,131.31,194.51,134.36,192.33Zm-2.72-11.83c-.8,0-2.24,1.23-2.17,1.73.16,1.14.82,2.76,1.72,3.14a6.51,6.51,0,0,0,4.5.11c1.27-.47,2.17-1.95,3.33-3.09C136.86,179.34,134.07,180.38,131.64,180.5Zm1.16-19.14c-5-4.36-6.59-5.05-10.51-4.34-1.2.22-2.53.82-1.94,2.94C124.09,161.55,128.19,160.62,132.8,161.36ZM141.3,191c3.38,1.65,5.7,1.27,7.65-1,.67-.79,1.26-1.65,2-2.42,3.45-3.86,7.32-5.68,12.21-2.46.14.09.48-.14.76-.23,1.65-1.74.54-3.14-1.08-3.27a61.74,61.74,0,0,0-10.79.12,7.5,7.5,0,0,0-4.06,2.08C145.73,185.9,143.8,188.27,141.3,191Zm4.31-16.61a2.38,2.38,0,0,0,2,.3,2.11,2.11,0,0,0,1.25-1.52,24.49,24.49,0,0,0-.92-4.41,28.23,28.23,0,0,0-2.72,3.67A2.09,2.09,0,0,0,145.61,174.42Zm21.15-28.58-7.94,2.8c4.73,1.81,7.08,4.62,11.87,4.52-1.2-1.46-1.95-2.34-2.66-3.25C167.11,148.74,169.29,146.76,166.76,145.84Zm2.61,22.25a2,2,0,0,0,2-2.55c-.16-.71-1.46-1.86-1.73-1.73a15.45,15.45,0,0,0-3,2.53C167.92,167.2,168.66,168.11,169.37,168.09Zm-2.41,3-12.78,1.76c-.09,2.88.08,3.34,1.59,3.62,4.24.81,8.68.78,12.4,3.41C169.74,176.54,168.1,174,167,171.08Zm-11.14-11.33a1.66,1.66,0,0,0,0,1.41c.21.38.89.88,1.17.79,1.65-.58,3.25-1.31,5-2C159.05,157.25,157.36,157.27,155.82,159.75Zm-.82,6.3a14.16,14.16,0,0,0-1.44,1.46c-.06.08.71,1,.76.92a15.64,15.64,0,0,0,1.68-1.29Zm-13.81,33.7c2.06,1.2,2.36,4.37,5.19,5.31.51-3.73-1-5.86-3.38-7.82s-4.95-2-9-1.15C137.17,197.68,139.24,198.61,141.19,199.75ZM130.28,215c.7,1.41,1.14,3,2.13,4,.71.78,2.09.93,3.2,1.33v-6.49C132.26,212.62,132.26,212.62,130.28,215Zm11.18-49.11c-.44-.5-.85-1.38-1.38-1.45a9.1,9.1,0,0,0-2.77.42c.21.6.26,1.5.67,1.74A2.42,2.42,0,0,0,141.46,165.88ZM144,155.59c-1.25-2.58-2.24-4.64-3.27-6.78a30.09,30.09,0,0,0-2.85-1.1,4.33,4.33,0,0,0-1.5.12C135.38,154.51,136.32,155.51,144,155.59Zm-21.54,84c-1.76-3-2.91-5.32-4.33-7.42-2.23-3.28-5-6.32-9.09-6.73a9,9,0,0,1-7.77-5.54,9.72,9.72,0,0,0-5.51-5.19,2.56,2.56,0,0,0-2.15.38,2.28,2.28,0,0,0-.51,2,20.84,20.84,0,0,0,1.68,3.26c-3.53,4.73-3.4,4.65-.8,8.79,2,3.12,4.88,5.37,7,8.22,4,5.27,9.8,6.38,15.5,7.95.37.1.91-.38,2.23-1-1.85-2.25-2.85-4.36-5.57-4.71a9,9,0,0,1-6.77-4.7c-.59-1-1.93-1.55-3-2.12s-2.46-.94-2.11-3l6.39-3c1.94,1.89,3.78,3.65,5.58,5.46,2,2,3.93,4.15,6,6.09C119.88,239,120.91,239.06,122.48,239.63Zm24.71,3.06c-7.56,1.83-14.24-2.31-21.16-.82-.6,4.21-.6,4.21,1.4,9.51h11.34c1.2-1.79,2.1-3.33,3.2-4.72S145.89,245.55,147.19,242.69Zm6.24-7.88a82.38,82.38,0,0,0-7.41-5.24,21,21,0,0,1-7-5.92,21.78,21.78,0,0,0-3.29-3.05,6.87,6.87,0,0,0,.2,2.75c3,6.09,8.53,9.39,14.18,12.48C151,236.33,152.5,236.93,153.43,234.81Zm-1.38-17.58c-2.71-2.3-6.17-3.85-7.57-7.5a1.72,1.72,0,0,0-1.23-.83,21.93,21.93,0,0,0-2.92,0c.08.93-.16,2.07.29,2.74,1.28,1.9,3.65,3.41,4.12,5.42,1,4.22,3.79,6.49,6.79,8.89C155.63,221.35,155.66,220.3,152.05,217.23Zm10.89-11.41c-1.6-4.87.21-8,1.9-11.23,1.17-2.2.25-4-1.1-5.67a2,2,0,0,0-3.23.52,7.79,7.79,0,0,0-.46,2.93,4.77,4.77,0,0,1-2.67,5.06c-2.3,1.32-2.73,3.95-3.47,6.78Zm-4.49,2c-.15-.17-.85.15-1.3.25A9.59,9.59,0,0,0,158,210c.09.14.84-.15,1.55-.29A8.79,8.79,0,0,0,158.45,207.86Zm26.79,46c-.43-5.63-4.13-6.8-9.44-7.73C177.34,251.62,181.6,252,185.24,253.9Zm14.13-.94a33.46,33.46,0,0,1-2.44-5.21,46.89,46.89,0,0,1-.93-6.7c-3.5,1.25-6,2.68-8.24,6.59,4,.9,6.26,2.59,7.59,5.68C196,254.8,197.77,255.1,199.37,253Zm27.15-4.19a13.59,13.59,0,0,0-2.12.2c-1.9.44-2,2.07-2,3.55,0,.25.71.75,1.11.76,1.66.07,1.92-1.29,2.32-2.48C226,250.12,226.28,249.45,226.52,248.77Zm5.11-24.24C237,227,237,227,241.44,225.7,238.31,223.24,234.84,225,231.63,224.53Zm-22.81,4.65,5.65,4.74a23.19,23.19,0,0,0,2.39-1c2.78-1.54,5.12-2.05,7.23,1.33,1,1.71,3.85,1.33,5.11-.69.49-.78.3-1.85,1.63-1.76,1,.07,2.29-.12,3,.41A8.11,8.11,0,0,0,240.3,234c2.18-.36,4.46-.07,7.08-.07-.39-1.14-.42-2-.86-2.4-2.34-2-5.11-2.19-8.06-1.87-6.79.73-13.13-1.44-20.27-3.17-2.14,1.63-5.05,3.2-8.51,1.3C209.65,227.8,209.21,228.55,208.82,229.18Zm-3,17.11,2.71,2.05a9.35,9.35,0,0,0-1.81,2.47,3.34,3.34,0,0,0,.29,2.76,3.1,3.1,0,0,0,2.7.82,20.73,20.73,0,0,0,3.93-2.31c2.43-1.46,4.8-3,7.32-4.33a4.73,4.73,0,0,1,5.63.93v0a6.09,6.09,0,0,0,2.06-1c1.82-2.05,1.3-4.27-1.15-4.69-3-.52-6.21-1.3-9.17-.86-2.51.38-3.47-2-5.51-1.9-2,3.09-2,3.08-6.32,4.93C206.14,245.27,206,245.89,205.78,246.29Zm-18.58-9.65c-3.46,1-6.86,2.28-10.37,3-2.71.55-5.11-.08-6.06-3.39-.41-1.41-2-1.68-3.28-.91a11.18,11.18,0,0,0-2,1.91l-7-5.54c-2.3,3.91-2.19,5.47.45,6.44a34.21,34.21,0,0,0,6.79,1.81,94,94,0,0,0,13.94,1.51c3,0,6-1.29,9-2.24,1.18-.38,2.12-1.48,3.25-2.11,2.71-1.5,5.31-2.15,7.66.81.46.59,1.7.57,2.89.91-1.55-5-1.56-5,.24-9.15.9-2.09,1.81-4.17,2.68-6.18-2.38-2.3-4.57-1.36-6.77-.55-2.87,1-5.75,2.06-8.76,3.14.33.82.78,2,1.3,3.27l-2,1c-1.09.58-2.91,1-3.09,1.76C185.77,233.33,186.65,234.77,187.2,236.64Zm-18.95-18.17a9.62,9.62,0,0,0,.5-1.72c.05-.94.34-2.21-.13-2.73a2.82,2.82,0,0,0-2.65-.15,32.7,32.7,0,0,0-4,3c0,3,1.48,4.26,3.78,4.49,2.81.27,5.57.15,7.47,3,.77,1.15,3,.45,3.89-1a21,21,0,0,1,1.39-2.62c.49-.56,1.41-.74,2.7-1.34Zm3.93-11.32c.23.87.21,1.5.51,1.79a8.67,8.67,0,0,0,2,1.08c-.26-.86-.26-1.44-.56-1.72A10.06,10.06,0,0,0,172.18,207.15Zm3.4-4.38c.25-.42.84-1,.87-1.58.1-2.14-.95-3.51-2.27-3.05a2.46,2.46,0,0,0-1.4,1.56A2.64,2.64,0,0,0,175.58,202.77Zm12.23-63.12A6.86,6.86,0,0,0,189.1,141l1-1.33-1.54-1.11C188.27,139,187.71,139.48,187.81,139.65ZM149.9,126.44c4.82.94,9.31,2.58,13.31,6.18-2.23,4.26-6.76,4.11-9.54,5.49,4.06.53,8.71,1.68,13.34,1.59,5.3-.1,8.24,4.1,12.53,5.74,1.5.58,2.25,3.12,3.49,5,3.14-1.26,6.35-2,8.56-4.54-.33-.65-.38-1-.57-1.09a5.41,5.41,0,0,0-2-1c-7.81-.64-13.62-4.19-17.55-11.12a12,12,0,0,0-10.25-6.16,12,12,0,0,1-2.33-.22c-1.67-.42-1.62-1.66-1.3-3C154.44,123,151.64,123.42,149.9,126.44Zm-7.11-6.93a3,3,0,0,0,2.1,1.72c2.36.49,4-.38,4.47-2.59-.56-.55-1.24-1.69-2.21-2a3.81,3.81,0,0,0-2.87.67C143.55,117.75,142.67,118.85,142.79,119.51ZM130.18,132c-.38-1.18-.74-2.27-1.15-3.52C126.83,131.07,126.86,131.17,130.18,132Zm-5.65-19.24a6.52,6.52,0,0,0,.87,1.7l1.17-1.3-1.21-1.38C125.06,112.13,124.47,112.52,124.53,112.78Zm-5.43,29c1.46.81,2.77,1.88,4.24,2.89,4.66-1.4,8.5-4.75,13.55-5.53,2-.3,3.64-2.74,5.3-4.36a26.18,26.18,0,0,0,2.85-3.66c2.1-3,2.92-3.84,4.58-4.61h-16l5.29,1.92c-1.18,1.43-2.16,2.83-3.34,4-5.05,5.12-9.44,7.44-15.38,3.28-.61-.43-1.18-.91-1.77-1.35C114.7,138.76,114.79,139.37,119.1,141.77ZM116,172.7c.71.91,2,1.38,3.08,2.11,2.14-1.34,2.93-4.22,5.71-3.94,2.22.22,4.43.51,6.65.77-2.45-4.32-5.56-6.61-10.18-5-1.2.41-2.53.46-3.76.8C114.72,168.18,114.06,170.26,116,172.7Zm-7.71-13a7.76,7.76,0,0,0,2.22,1.43c.46.11,1.13-.66,2.29-1.42-1.34-.6-2.14-1.2-3-1.26C109.3,158.4,108.76,159.24,108.25,159.68Zm-10.1,13.88a13.55,13.55,0,0,0,5.31,8.12,9.28,9.28,0,0,1,3.41,4.11c1.14,3.69,3.64,5.48,7.17,6.67,2.68-1.18,5.93-1.28,8-3.74-1.22-2.59-3.42-2.73-5.36-3.39-10.23-3.46-10.23-3.48-11.94-13.67C102.52,172.14,100.89,175.34,98.15,173.56Zm-6.37-.19h6.16a8.77,8.77,0,0,0-.74-1.16c-1.9-2.21-2.06-2.24-4.09-.48A12,12,0,0,0,91.78,173.37Zm-13.87,21c1,.78,2.68.67,4.12,1,2.28-6.22,4.28-12,6.53-17.67.62-1.56,2-2.84,3-4.23-3.64.23-6.05,2.21-7.57,5.45-.76,1.64-1.66,3.23-2.28,4.92-.79,2.18-1.42,4.28-3.54,5.78C76.74,190.63,76.63,193.41,77.91,194.41Zm-9.13,47.2c-.17.49-.35,1-.52,1.45,1.83.6,3.71,1.06,5.47,1.81,2,.88,3.88,2.43,6.42,1C77.35,241,72.62,242.66,68.78,241.61Zm-1.13-15a11.86,11.86,0,0,0,1,1.71,7.62,7.62,0,0,0,1.37-.7,8.87,8.87,0,0,0-1.27-1.58C68.66,226,68,226.45,67.65,226.65Zm111.94,352.8-.1.06v0ZM614.2,476c-5.51,8.34-4.34,18.31-6.25,27.64-.83,4.06-1.39,8-3.52,11.8a43.71,43.71,0,0,0-5,18.72c-.12,2-.42,3.4-2.06,4.69a13.3,13.3,0,0,0-2.62,3.69c-.4.66-.47,1.52-.89,2.15-3.16,4.61-4,10.7-10,13.52-5.11,2.42-9.22,6.67-15.16,7.83-4.32.85-8.44,2.51-12.93,2.91s-6.35,2.37-7.08,7c-2.57,16.27-7.12,32-12.32,47.62a49.57,49.57,0,0,1-3.6,8.63c-3.31,5.85-4.51,12.17-5.08,18.73-.52,6-1.25,11.91-1.86,17.86-.37,3.64-.65,7.28-1.05,10.91s-.9,7.22-1.34,10.83c-.22,1.81-.41,3.63-.57,5.44-.64,6.75-1.25,13.51-1.88,20.26a46.1,46.1,0,0,0-.62,6.15c.07,1.75-.36,14.53-3.87,11.17-1.63-1.55-3.61-17-2-16.9a29.35,29.35,0,0,0,.22-4.24c-1-10.19,0-20.28,1.24-30.37a47.13,47.13,0,0,0,.46-7,66.12,66.12,0,0,1,3.83-24c-1.16-.12-1.5-.26-1.65-.15a6.53,6.53,0,0,0-1.67,1.55c-7.61,12.52-16.8,23.83-26.69,34.59a14,14,0,0,0-3.07,4.44c-1.78,5-4.39,8.82-10.25,9.24a1.44,1.44,0,0,0-.87,1.1l-11.14,9.67c-7.37,8.09-16,15-22.95,23.4a7.1,7.1,0,0,1-2.37,2c-4.1,1.87-5.93,4.78-5.12,9.41.18,1-1,2.23-1.82,3.83l-5.27-3.33a6.73,6.73,0,0,0-1.56.44c-4,2.42-7.72,5.56-12,7.13s-47,11.06-48.35,9.19a20.57,20.57,0,0,1-9.88-.65,25.73,25.73,0,0,0-17,.35,38.89,38.89,0,0,1-11.19-1.32c-5.7-.45-11.42,0-17.11-1.33-4.81-1.09-21.31-6.48-24.2-7.64-4.81-1.93-9.46-5.33-14.78-5.91-29.79-6-64.76-63.1-91-108.76a88,88,0,0,0-1,10.49c-.06,2,0,4,.13,6s.3,4,.37,6c0,1,.07,2,.05,3a16.37,16.37,0,0,1-.22,3c-.16,1-.41,2-.59,2.93s-.25,2-.35,2.95c-.42,4-.76,7.9-1.09,11.85l-.44,6c-.13,2-.08,4-.11,6a51.74,51.74,0,0,1-1.9,11.86,61.83,61.83,0,0,1-4.08,11.67,3.33,3.33,0,0,1-6.31-1.15l0-.26c-.18-2-.16-3.87-.22-5.85s0-3.88,0-5.85.12-3.9.2-5.86a32.53,32.53,0,0,1,.74-5.81c.38-1.93.84-3.86,1.11-5.8s.47-3.9.7-5.85c.43-3.9.75-7.83,1-11.75a29.24,29.24,0,0,0,.13-2.95c0-1-.1-2-.1-3a17.16,17.16,0,0,1,.25-2.94c.14-1,.32-1.95.51-2.92.37-2,.85-3.88,1.27-5.83s.77-3.89,1-5.85a89.8,89.8,0,0,0,.44-11.83,84.44,84.44,0,0,1,.62-11.8h0a.19.19,0,0,1,0-.08c-12.25-21.49-21.91-38.42-27.2-42.78.41-.4-1-2-1.56-1.9-3.57-2.11-7-4.29-10.64-6.24a14.37,14.37,0,0,1-5.39-5.44c-8.73-13.78-13.51-29.35-20.27-44-1.09-2.37-2.1-4.78-3.26-7.12s-2.7-4.49-3.63-6.9a109,109,0,0,1-4.68-14c-1.6-6.86-2.64-13.84-3.84-20.79-.16-.92.21-1.93.44-3.72,1.55,1.17,2.91,1.69,3.41,2.66,1.41,2.76,3.64,2.51,6,2.12,3.48,3.3,3.73,7.07,1.92,11.26a5,5,0,0,0-.29,3c2.11,8.86,4.16,17.74,6.59,26.52.88,3.2,2.66,6.17,4.19,9.17.4.77,1.4,1.23,2.49,2.14,1.68-3.59-.3-6.72.75-10.51l5-4.57c-1.34-4.48-7.23-3.15-8.82-7.34.42-.64.67-1.52,1.24-1.85,2.58-1.47,2.55-3.78,2-6.16-.64-3.06-1.65-6-2.17-9.12-.94-5.61-.28-11.34-1.74-17-.91-3.53.61-7.21,2.49-10.46,1.29-2.24,2.62-4.46,4.08-6.94A49.84,49.84,0,0,1,125,455a14,14,0,0,0,9.14-1.06c2-.94,3.52-2.12,4-4.41a13,13,0,0,1,3.91-7.17c1.08,1,2.4,1.65,2.74,2.64a47.56,47.56,0,0,1,1.77,7.57c.34,2,.38,4.1.58,6.51l7.85,2.34c-1.26,5,.87,10.28-2.16,14.8-2.43,1.32-4.25,0-6.2-.61-5.18-1.69-6.64-.68-7.21,4.5a25.06,25.06,0,0,0,.93,10c.67,2.26,2.42,3.55,4.59,2.85a66.53,66.53,0,0,0,6.41-2.85c2.31-1,4.49-2.72,7.75-1.49-1,5.87-6.95,9.22-6.81,14.51-6.13,3.51-11.92,6.31-15.59,12.56,2,2.37,3.7,4.81,7.22,5.22a7.32,7.32,0,0,1,3.43,1.49c5.31,4,9.45,8.46,9.59,15.94.09,4.62,3.18,8.14,8.19,9.32,2.78.65,5.45,1.79,8.24,2.37s4.57,2.35,6,4.62c.86,1.37,1.64,2.88.41,4.31-1.08,1.26-2.35.08-3.56-.13-1.95-.33-3.16.94-2.51,2.63a38.63,38.63,0,0,0,2,4,5.44,5.44,0,0,0,1.76.37c1.47-.26,3-1.56,4.38-.18s1,3.39.24,5.09c-1.34,2.83-2.84,5.6-2.64,8.87-2.53,1.31-3.17,3.87-4.24,6.71,2.12,3.16,2.65,7.46,5.81,10.51.45.44-.35,2.18-.79,4.42-2.19-2.55-3.64-4.22-5.39-6.25l-4.3,3.54c.61,3.69.2,7.45,2.48,10.54.75,1,1.61,2.49,2.61,2.66,3.07.51,5.06,2.49,7.28,4.27a3.23,3.23,0,0,0,4.53.05c-.61-1.54-1.31-3.15-1.84-4.81-.09-.29.4-1,.77-1.16s1.27-.17,1.45.1c1.13,1.66,2.13,3.42,3.15,5.12l15.72-2.64a10.21,10.21,0,0,1,1.44,1.54l13.67,33.7c2.38,3.89,6.94,5.89,10.94,8.55,3.34,2.22,3.44,2.47,1.11,6.82,2.15,1.74,3.17-.66,4.69-1.26s2.23-.14,3.62,3.24l-5.21,1c-.17.45-.59,1-.48,1.33a65.07,65.07,0,0,0,2.73,8.12,69.14,69.14,0,0,0,4.21,7.11c.26.42.55,1,1,1.15,5.62,1.9,9.19,6.55,13.68,10,1.78,1.36,4.18,1.95,6.34,2.76,2.49.94,4.61,2.94,2.3,6-1.91,2.55-.77,5.1-.5,7.47a8.07,8.07,0,0,0,3.35,5c1.28.87,3.46.42,5.82.61.2,1.27.35,2.74.68,4.16s.87,2.83,1.43,4.62c3-1.09,5.57-2.91,8.5-1.79a4.33,4.33,0,0,1,2.11,1.94c.22.42-.34,1.48-.84,2a13.38,13.38,0,0,1-2.5,1.65c5,5.08,5,5.08,10.75,3.74-.2,1.23-.39,2.4-.58,3.54,3,1.76,5.55,0,8.61-1.11,1.73,1.18,4.17,2.09,5.41,3.85,2.64,3.73,6.21,4.37,10.23,4.38a8.3,8.3,0,0,0,6.64,1,12.25,12.25,0,0,1,9.66,1.84,33.5,33.5,0,0,1,4.16-3.78c1.45-.94,3.06-.33,4.35.7,1.63,1.29,1,2.7-.33,4.5,4.81.64,7.86-2.41,11.31-4.26,2-1.1,3.84-2.7,6-3.52,2.74-1,5.07.34,6.28,3.13.61,1.4-.59,3.53-2.09,3.44s-3-.6-4.57-.8a12.62,12.62,0,0,0-3.07,0c-.44.06-.82.57-1.45,1,.8,2.27,3.58-.22,4.38,1.71-.21.39-.35,1.07-.65,1.15-4.25,1.13-8.44,2.47-13,1.83a5.57,5.57,0,0,0-6.38,3.58c-6.33-.68-12.62-1.42-19.13-.48-3.66.52-7.74-.8-11.43-1.94-3.43-1-7.75-1-9.4-5.38-.11-.28-.92-.38-1.42-.43-5.45-.46-9.67-3.31-13.88-6.57-5.3-4.11-11-7.7-16.71-11.62-.05-.86.37-2.66-.25-3.17a25.81,25.81,0,0,0-6.05-3.4c-3.26-1.4-6.62-2.56-9.94-3.82-.25,3,1,5.38,3,7.6,3.48,3.9,7.64,7,11.57,10.34,6.73,5.77,14.51,8.87,22.41,12.29A120.46,120.46,0,0,0,330,757.32c3.1.19,6.23-.38,9.36-.51q7.43-.33,14.87-.53c2.3-.06,4-.79,4.91-3.09a6.23,6.23,0,0,1,2.39-2.74c2-1.2,4.05-2.64,6.21-2.9,1.84-.22,3.86,1.11,5.82,1.69a23,23,0,0,0,2.78.44c-.31,1.08-.34,2.21-.91,2.85a4.38,4.38,0,0,1-2.66,1.26c-2.58.24-5.21,0-7.77.37-1.47.21-1.89,1.56-1.24,3.22,8.67,2.76,17.44,1.65,26.05-.56,10.95-2.81,21-7.85,30.37-14.12a112.31,112.31,0,0,0,19.11-15.82,6.2,6.2,0,0,1,1.71-1.5c4.94-2.24,8.19-6.31,11.49-10.37,1.28-1.58,2.81-3,4.23-4.45-.31-2-1.84-1.92-2.94-1.33a16.27,16.27,0,0,0-4.22,3.3,11.42,11.42,0,0,1-5.77,3.69c-1.6-2,.76-2.8,1-4.16a15.52,15.52,0,0,1,2-4.24c.76-1.35,1.68-2.62,2.77-4.3a16.94,16.94,0,0,1,3.46,1.19,2.72,2.72,0,0,0,2.88.07,34.23,34.23,0,0,1,4.29-1.28c.17,1.21.35,2.44.59,4.13,4.41-.54,10.58-9.5,10.58-11.74,5.07-1.89,8.2-5.39,10.16-10.29.8-2,2.93-3.51,4.61-5.07,4-3.7,8-7.29,11.84-10.71.26-3.88-.21-6.93-3.63-8.7-.18-.1-.24-.46-.31-.71-.27-1-.53-1.93-.8-2.92,2.25-1.51,3.76-1.59,5.32.75,2,2.94,3.14,2.86,5.34.79,4.69-4.43,8.14-10,13.47-13.89,1.55-1.12,2.39-3.38,3.26-5.26a261.62,261.62,0,0,0,14.63-39.56c2.91-10.35,4.61-20.83,6.39-31.35a16.34,16.34,0,0,0-.7-9.18c-.81-2-.44-4.56-.35-6.87a45.25,45.25,0,0,1,.81-5.39c.46-2.91-.48-5.08-4.11-6.24l2.33-2c0-.17.15-.8-.09-1.15-1.3-1.94-2.73-3.79-4.07-5.71-1.22-1.75-.88-2.88,1.25-4.39.59-.41,1.21-.79,1.86-1.21a9.37,9.37,0,0,0-1.16-1.22,12.6,12.6,0,0,0-1.72-.84c1.13-1.12,2.52-2,3.12-3.2s.43-3,.84-4.49a23.58,23.58,0,0,1,1.62-3.51c1.43-3,4-5.54,3.5-9.33a3.59,3.59,0,0,1,1.36-2.66c2.44-1.93,3.25-4.57,3.93-7.42a15.33,15.33,0,0,1,5.1-8.39,30.8,30.8,0,0,0,9.47-15.58c1.85-7,1.14-13.91,1.61-20.83.28-4,1.13-8.38-1.26-12.24-.53-8.28-1.11-16.55-1.52-24.83-.07-1.49.7-3,.8-4.52.29-4.4.7-8.82.57-13.21-.14-4.87-1.36-9.72.14-14.58a3.15,3.15,0,0,0,.11-1.55,39.14,39.14,0,0,1-.92-14.35c.2-1.38-1.16-2.95-1.1-4.41s1.46-2.76,1.49-4.15c.08-3.59.61-7.38-2.33-10.36a3.42,3.42,0,0,1-1-2.1c-.08-7.08-2.51-13.72-3.59-20.6a12.87,12.87,0,0,1,1.55-8.27c3.14-5,2.89-10.34,3.41-15.69a15.18,15.18,0,0,1,.71-3.81c.2-.55,1.14-.84,1.75-1.26,4.62,7.3,5.37,9.73,4.66,15.34,2.72,1.1,4.87-.15,7.23-1.68-.49-2.59-1.05-5.1-1.41-7.64a16.41,16.41,0,0,1-.29-5.39,10.65,10.65,0,0,0-1.39-8.18c-1.56-2.55-1.88-5.41.61-7.91a3.33,3.33,0,0,0,.74-2.12c.07-4.35,0-8.71,0-13.4,4,.28,8,.52,11.66,3,1.64,1.09,3.92,1.25,5.93,1.77,1.47.39,3,.66,4.73,1.05.29,2.77.55,5.28.83,8.08h4.24v-6.59c2.67-1.48,5.29-4.21,9.55-3.21l2.28,6-3.17,1.86c0,.5-.25,1.07-.07,1.48.88,2,1.86,4,3.25,7l-8.63-1.8c-.31,1.87-.59,3.58-.94,5.67-2.7-.86-4.39-2.18-4.62-4.83-.15-1.74-.61-3.24-2.61-3.12a3.91,3.91,0,0,0-2.45,1.54c-1.06,1.39-1.08,3.34.26,4.26,2.85,1.95,2.25,5,3,7.62.41,1.38.07,3,.07,4.84h5.68c.18-2,.33-3.71.51-5.62,3.42,1.22,2.62,3.81,3.26,6.23l-5.21,1.93a4.09,4.09,0,0,0,0,5.05c1.4,2.15,1.83,4.37-.1,6.43-1.64,1.75.56,3.44-.08,5.18-1.06,2.88-2.38,5.52-1.46,9,.66,2.5-2.07,5.19-1.09,8.23a3.56,3.56,0,0,1-.89,2.81,7,7,0,0,0-1.63,6.52c.21,1.11-.58,2.43-1,3.63-1.27,3.58-2.45,5-3.39,4.14-1.86-1.68-.24-3.33.11-5,1.6-7.68,3.22-15.35.38-23.1a5.64,5.64,0,0,1,0-1.25c1.25-1.48,2.72-3.24,4.22-5a8.28,8.28,0,0,0-1-2.22c-1-1.13-2.48-1.94-3.28-3.19-1.25-2,1.11-5-1.19-6.54a10.61,10.61,0,0,1-3.79-4.75c-.21-.47-.37-1-.62-1.6,1-2.89,5.07-4.72,3.51-9.2-1.26-.25-2.74-.52-4.2-.87-3-.71-3.74-2.38-2.23-5.19a18.29,18.29,0,0,1,2.43-2.72c-2.33-3.38-.35-9.17-6.48-11.49-1.79,7.62-2.15,14.6.66,21.62.85,2.12.92,4.54,1.4,6.82.26,1.22.22,2.93,1,3.52,2.71,2.07,2,5.22,3,7.77-.31,3.29-4.38,5.53-2.5,9.64a19.08,19.08,0,0,1,3.58.55c.58.2,1.43,1.26,1.3,1.61-.31.86-1,2-1.76,2.18-1.19.27-2.55-.3-3.82-.24a6,6,0,0,0-2.88.87,2.23,2.23,0,0,0-.78,1.95,2,2,0,0,0,1.66,1.05,32.31,32.31,0,0,0,4.28-1.75c2.56,1.26,3.89,3.88,3,5.78-1.41,3-.39,5.45,0,8.22a12.89,12.89,0,0,1-.61,6.86c-1.29,2.76-.72,6.34-3.39,8.39-2.36-.17-2.55-1.6-2.54-3.32.05-4.68.1-9.36-.07-14a2.9,2.9,0,0,0-1.84-2.09c-.63-.14-1.85.73-2.24,1.46-1.62,3-3,6.31-2.31,9.74.81,4.21,1.48,8.18-3,11,3.24,2.63,7.52-1,9,3.6l-4.05,6.19h-4.49c1.68,2.22,4.05,1.24,5.93,2.13.43,1.59.89,3.33,1.43,5.32l-6.67-.53a12.86,12.86,0,0,0-.35,2.86,3.63,3.63,0,0,0,1,1.75c2.49,2.87,3.83,5.73.16,8.71.13,2.84-3.07,4.24-3.19,6.74-.12,2.75-.26,5.68,1.32,8.86l5.14-3.45c3.46,1,2.26,4.12,2.51,6.49l7.14,1.56-12,2.31c-2.43,2.07-2.23,5-2.35,7.77,0,.8.93,1.9,1.73,2.41a19.7,19.7,0,0,0,4,1.43,38.61,38.61,0,0,0-3.36,2.33,7.17,7.17,0,0,0-2.41,7.76c1.46,5.51,2.81,11.05,4.61,16.45.71,2.11,2.41,3.94,3.85,5.76,1.6,2,3.84,3.64,3.62,7.06l-7.09,7.68c3,4.77,9,4.08,13.19,7.54.16,2.72.45,5.8.47,8.89,0,1.51-.11,2.58,1.12,4,1.37,1.63,1.95,4.73,0,6.5-3.57,3.26-3.61,7.29-3.57,11.51a10.56,10.56,0,0,1-.52,2c-3.82,1.5-4.75,6.74-9.61,8.84-.71-4-1.58-7.1,1.12-10.55,3.58-4.57,2.77-8.61-1.51-12.23-1.78-1.5-3.91-2.75-5.24-4.57s-1.81-4.18-2.91-6.94c-1.86,1.27-3.61,2-4.61,3.25a30.72,30.72,0,0,0-5.59,10.21c-1.67,5.76-3.64,11.43-5.49,17.14-.48,1.49-.88,3,.5,4.24,8.44-5.82,9.85-5.78,16.73.55-2.11,2.26-5,2.8-7.74,3.27-4,.68-5.8,3.16-6.48,6.81-.28,1.52-.41,3.07-.56,4.3-.68.62-1,1.21-1.45,1.28-4.5.72-6.71,3.55-7.42,7.83s-1.59,8.71-2.1,13.1c-.39,3.28,1.33,5.56,4.49,6.45a15.71,15.71,0,0,0,6.08.91,38.27,38.27,0,0,0,10.59-2.58c7.4-3.37,14.18-7.77,18.82-14.74.86-1.3,2-2.71,2.09-4.15a12.78,12.78,0,0,1,4-8.09,4.07,4.07,0,0,0-.3-5.92c-2.86.11-5.18,1.87-7.12,3.84-.93.95-1.24,2.9-1.15,4.35a6.57,6.57,0,0,1-2.42,5.51,42.12,42.12,0,0,1-6.64,5.34,13.14,13.14,0,0,0-4.64,4,5.77,5.77,0,0,1-3.08,2c-1.25.35-2.78.07-3.22-1.41a3.88,3.88,0,0,1,.35-2.92c.83-1.29,2.18-2.23,3.15-3.45A33.2,33.2,0,0,0,570.2,540l-4-2.67c.24-.33.61-1,.69-.93,3.83,1.6,6.54-1.21,9.42-2.66,2.4-1.21,3.18-4.06,3.63-6.67.39-2.27.49-4.59.69-6.66l11.35-.8c3.82-3,4.25-7.5,6.23-11.08a16,16,0,0,0,2-11.3,8.86,8.86,0,0,1,.57-3.81c1.13-4.27,2.31-8.54,3.54-12.78a20.54,20.54,0,0,1,1.65-4.35C608,472.52,609.88,472.43,614.2,476Zm-40.74-68.27a6.59,6.59,0,0,0,1.25.77,6.14,6.14,0,0,0,1.43.13l.89-2.16a5.92,5.92,0,0,0-2.29-.25C574.2,406.36,573.88,407.15,573.46,407.68Zm3.39-94.08c.25.36.46,1,.77,1s.71-.43,1.07-.68c-.25-.36-.46-1-.76-1S577.22,313.36,576.85,313.6Zm-8.26,1.73a10.06,10.06,0,0,0,1.68-1.9c.12-.25-.5-1.2-.67-1.17-.65.12-1.56.35-1.77.82S568.2,314.29,568.59,315.33ZM132.11,522.85c1.7.29,2.95.67,4.63-1C135,521.57,133.77,521,132.11,522.85Zm-3.18-47.26a11.46,11.46,0,0,0,2.82-1.18c3.28-1.94,6.51-4,9.83-6-.72-2.52-1.16-3.12-3-3-3.56.3-7.09.78-11.16,1.25a49.21,49.21,0,0,0-2.14,5.39A2.85,2.85,0,0,0,128.93,475.59Zm-2.38,2.74c-.18,1-.37,2-.65,3.52,1.86.6,3.37.73,3.52-1C129.55,479.34,129,477.69,126.55,478.33Zm-.39,25.72c3-.5,5.93-1.56,10.09-2.71-3.19-4.68-5.47-8.42-8.22-11.79-.67-.83-2.86-.71-4.3-.55s-2,1.54-2,2.94c0,2.86.12,5.72.27,8.57C122.11,502.9,123.69,504.46,126.16,504.05Zm15.93,49.07c9.81-4.86,9.48-9.21,8.17-17a17.4,17.4,0,0,0-.82-3,13.92,13.92,0,0,0-7.27-7.8,5.57,5.57,0,0,0-7.09,1.23c-.9.92-1.44,2.27-2.46,2.94a7.14,7.14,0,0,1-2.92.62c-1.69-1.52.82-3.69-2.17-4.39-.65.84-1.46,1.78-2.13,2.82a53.54,53.54,0,0,0-4.42,7.34c-.67,1.53-1,3.86-.32,5.22,1.84,3.6,2.24,7.38,2.85,11.22.56,3.51,2.77,6.1,5.81,8,2.61,1.59,5,.18,7.51-.42a15.85,15.85,0,0,0,1.68-.83C137.91,556.06,139.43,554.43,142.09,553.12Zm4.34,10.8-6.24.34C144.54,565.34,144.67,565.36,146.43,563.92Zm10.27,6.82c-2.7-3.43-4.75-3.57-7.59-1.6Zm1.35-10.63c-.62-1.1-.84-2-1.4-2.39-3.42-2.57-5.73-2.2-7.66,1.24-.86,1.55-1.52,3.21-2.26,4.83C150.88,563.79,154.49,562.32,158.05,560.11Zm2.75-6.26a11,11,0,0,0,1.59,2.31c.2.18,1.14-.45,2.53-1a20,20,0,0,0-2.8-1.84C161.81,553.16,161.25,553.65,160.8,553.85Zm7.44,7.39a2.55,2.55,0,0,0-3.25-1.42,5.29,5.29,0,0,0-2.75,2.4c-.48,1.1-.21,2.56-.14,3.85.2,3.91.8,7.83.63,11.72-.2,4.9,2.21,8.79,4.34,13,2.4-4.59,2.51-9.21,1.73-13.84-.62-3.6-1.52-7.09.49-10.59C170.37,564.47,169.11,562.85,168.24,561.24ZM195,621.07c1.25,1.7,2.2,2.82,2.95,4.07.93,1.55,1.55,3.3,2.55,4.8,1.86,2.79,3.85,5.5,5.87,8.18l1.06-13.41c-3.83-.64-5.07-3.6-8.92-4.12A15.56,15.56,0,0,0,195,621.07Zm-7.45,10.79c2.67,2.5,6.11,3.17,10.32,3.39a15.11,15.11,0,0,0-1-3.41c-1-1.49-2.41-2.72-3.31-4.26-3-5.14-7.34-6.44-13-5.22a4.53,4.53,0,0,1,.91,2.61c0,.43,0,.85,0,1.28C182.92,628.6,185.53,630,187.52,631.86Zm39,56.19a6,6,0,0,0-1.15-1.7,21.68,21.68,0,0,0-3.24-1.63c.89,1.82,1,2.66,1.54,3a7.73,7.73,0,0,0,2.49.86C226.2,688.62,226.54,688.15,226.49,688.05Zm6.63-7.9c-2-4.54-3.71-8.8-5.61-13a38.18,38.18,0,0,0-3.35-6.16c-1-1.42-2.32-3.15-3.83-3.58a23.89,23.89,0,0,1-9.42-5.26c-.66-.58-1.8-.63-2.66-.91-1.37,2.29-.36,3.93.82,5.27,3.57,4.05,7,8.31,11.11,11.78,1.72,1.46,2.09,2.77,2.44,5.11-4.6,0-7.7-1-9.39-5.06-.62-1.49-2.55-3.35-3.94-3.4-2.85-.12-1.42-3.46-3.77-3.81-4.19-.62.37-1.73,0-2.63-.89-.53-1.87-1.77-1.79-2.3.11-.69.54-1.53.3-2-.86-1.8-1.95-3.48-2.93-5.16l2.4-2.22c-3.43.21-6,.21-8.47.61-.72.12-1.46,1.3-1.79,2.16-.13.35.7,1.22,1.25,1.65.71.55,2.33.55,1.42,2-1.22,1.88-.59,3.34.38,5,4.22,7.3,10,13.25,16.13,18.93a8.26,8.26,0,0,0,4.92,1.94,20.33,20.33,0,0,1,7.58,1.36A8.87,8.87,0,0,0,233.12,680.15Zm27.19,26.29c-1.12-1.24-1.63-2.19-2.42-2.6a38.6,38.6,0,0,0-6.42-2.84c-3.44-1.07-7-1.61-10.28-3.32-.42-.22-1.33.48-2,.75a15,15,0,0,0,1.23,2.55c.23.33,1,.33,1.45.46Zm199.83-3.08,0,.14.1,0ZM292.62,400.67s-27.15,2.34-32.69,2.67c-6.32.39-25.44-.27-29.17-1.24s-11.7-3.92-15-6.4c-2.25-1.68-5.22-1-7.19.95-2.52,2.52-5.42,2.86-8.84,2.6L192.07,393c1.51-.08,3-.18,4.51-.22,4.24-.12,7.23-1.67,9.21-5.86,3.71-7.84,11.48-11,18.61-14.8a15.85,15.85,0,0,1,3.66-1.38c10.1-2.49,20-5.89,30.69-5.16,2.57.18,5.2-.42,7.8-.67A57.73,57.73,0,0,1,289,366.85c4.47,1.37,9.08,2.26,14,3.46l5.35-6.8c-1.66-2.77-4-4.65-7.39-4.69-4.29-.06-8.49-1.53-12.94.5-2.36,1.06-5.65.3-8.49,0-6-.6-12-1-17.89.61-4.71,1.34-9.23,1.44-13.46-.73-1.73,1.15-3.12,2.78-4.66,2.94-2.22.23-4.55-.61-6.83-1-.78-2.94-4.12-2.93-5.72-5a18.36,18.36,0,0,0-2.69-2.81,29.24,29.24,0,0,0-3.51-2.12,41.51,41.51,0,0,1,3.93-4.06,32.64,32.64,0,0,1,4.45-2.48c-2.75-1.94-5.51-.85-8.26-.18-5.08,1.25-10.18,2.32-16.81.8,2.14-.55,3.08-.9,4.06-1,5.61-.73,10.22-3.52,14.69-6.78A15.15,15.15,0,0,1,232.4,335c3-.65,6.12-.79,9.07-2.16,1.4-.65,3.61-.18,5.22.41a14.54,14.54,0,0,0,7.63.94c1.49-.25,3.09.24,4.64.25a44.59,44.59,0,0,0,7.76-.17c7.79-1.27,15.6-1,23.11-1l6.89,6.69c.37.36.74.74,1.13,1.07a3.73,3.73,0,0,0,5,.27c1.78-1.28.12-2.78.06-4.11a5.36,5.36,0,0,1,5.91,1.48,22.11,22.11,0,0,0,8,4.77c4,1.53,6.69,4.9,9,8.33,2.47,3.61,4.42,7.59,6.82,11.26a16.9,16.9,0,0,0,3.83,3.86c3.55,2.76,5,6.34,5.51,10.76a41.56,41.56,0,0,1-2.11,18.4c-.17.49-.56.9-.72,1.39-2.7,8.45-2.81,9.47.42,18,2.2,5.85,1.68,11.79,1.27,17.75a5.09,5.09,0,0,1-1.42,2.69c-1.57,1.73-3,4-5,4.84-4,1.67-6,5.06-7.75,8.4-2.08,3.9-4.7,6.72-8.88,8.29-1.58.6-2.81,2.11-4.09,3.12.44,2.41.79,4.39,1.18,6.51-1.59.88-2.94,1.6-4.26,2.39a7.33,7.33,0,0,0-2.53,1.78c-2.47,3.92-4.77,7.94-7.06,11.82,1.47,1.7,2.63,1,3.48,0,1.19-1.36,2.12-3,3.24-4.4.85-1.09,2.15-2,3.34-1.13.86.62,1.16,2,1.68,3.13,3.09-.26,6.09-.82,8.09,2.8,1.32,2.38,4.09,3,6.75,3.41a25.08,25.08,0,0,1,6,1.47c5.62,2.43,5.59,2.52,8.08,9.08,4.94.2,7.48,3.57,9.22,8,1.22,3.09,2.66,6.1,4.06,9.28-2.51,2.06-5.29,1.88-6.4-.19-2.11-4-6-5-9.35-6.59-2.7-1.29-4.68-3.25-6.87-5-.62-.5-.65-1.73-1-2.91h-6.43l-1.55,5.67c.79.57,1.17,1.06,1.61,1.13,8.92,1.47,15.74,6.52,21.89,12.72.55.55.93,1.28,1.49,1.81,2.13,2,3.74,2.13,6.28.45a34.14,34.14,0,0,1,4.52-3c1.09-.49,2.51-.28,4.22-.41a14.37,14.37,0,0,1,.28,3.14c-.58,3.73-.63,3.72.74,7.27-2.43,1.92-4.75,4-7.35,5.72s-3.51,3.67-2.29,6.6a11.05,11.05,0,0,1,.37,2.49c-3.16.27-3.47-2.8-5.35-4.1a26.27,26.27,0,0,0-13.73,1c-2.57.84-4.9,1.48-7.56.53s-4.33.94-6,2.49c-.52-.21-1.23-.27-1.39-.59-3.06-6.53-9-7.27-15.14-7.55a34.81,34.81,0,0,0-4.87.38c-1.82-2.45-3.18-4.58-4.85-6.44-2.75-3.05-6-5.59-7.89-9.46-.92-1.84-3.41-2.9-5.6-4.63,4.2-4.31,4.49-10.26,5.68-15.68a162.89,162.89,0,0,1,6.74-22.27,13.6,13.6,0,0,0,1.06-2.91c.8-6.45,1.5-12.92,2.25-19.38.18-1.53,0-3.26.72-4.54a32.82,32.82,0,0,0,3.58-9.46c.26-1.37,1.73-2.5,2.6-3.78,1.71-2.53,3.38-5.09,5.22-7.86,3.39,1.57,5.84-.81,7.77-3.64a14.86,14.86,0,0,0,2.75-6.42c.38-3.83,1.51-6.94,4.43-9.58,1.61-1.45,1-2.75-1.91-4.76a16.73,16.73,0,0,1-6.36,8.47,7.48,7.48,0,0,0-2.85,3.48c-1.45,4.18-5.61,5.2-8.49,7.65-.44.38-1.94-.18-2.71-.67-.3-.19-.24-1.74.16-2.09,2.65-2.31,3.57-5.32,4.66-8.56,1.31-3.85,3.44-7.65,7.1-10.1,1.29-.86,2.53-1.79,3.93-2.78-1.26-1.9-1.87-3-2.67-4-1.29-1.57-2.71-3-4.07-4.56-6.25-7-12.63-13.77-21-18.4a9.68,9.68,0,0,0-6.68-1.25c-1.54.24-3.13.23-4.67.48a14.56,14.56,0,0,1-8.45-.76,12.25,12.25,0,0,0-4.54-1.1c-11.92-.12-24-1.75-35.47,3.19a62.88,62.88,0,0,1-7.47,2.34c-5.2,1.52-9.09,5-12.94,8.56-1,.94-1.63,2.31-.71,3.47a3.69,3.69,0,0,0,2.75.95c5.3-.29,5.3-.34,8.89,1.11.45-.22,1.07-.32,1.33-.68,3.42-4.67,8.3-6.9,13.62-8.54,6.22-1.92,12.4-4,18.61-5.95,1-.31,2.15-.87,3-.62,8.37,2.36,17.17-.19,25.57,2.47,2.86.91,5.37,2,7.35,4.09a18.48,18.48,0,0,0,7,4.89c3.87,1.43,6.18,4.76,8.79,7.61,1.31,1.42,1.85,3.55,3,5.91-1.68.64-2.81,1.43-3.94,1.43-4.56,0-9.14-.07-13.7-.24Zm26.72,117.09c-3.63-.54-5.48,1.88-7.15,4.1a7.15,7.15,0,0,0-1,6.87l8.4-1.48c.49.81.74,1.69,1.31,2.08,2.3,1.56,4.7,3,7.43,4.65,1.25-2.61,2.35-4.89,3.39-7.08a22.94,22.94,0,0,1,2.58-.43c1,0,2.09.18,3.12.07,2.33-.25,3.29-2,2.08-3.87-1.54-2.35-3.21-4.6-4.94-7.07-2.67.73-5.4.34-7.22,2.6.1,1.4.21,2.66.26,3.92,0,.12-.38.26-1,.65ZM309.5,507a4.81,4.81,0,0,0,7.87-1.11,11.94,11.94,0,0,0,1-7.58,61.08,61.08,0,0,0-5.65-17.55c-2.6,2.47-2.94,5.26-1.2,8.4,1,1.83,1.88,3.73.95,6.2L307.55,498C306.54,501.6,307.19,504.52,309.5,507Zm-11.29-9.83a6.64,6.64,0,0,0,2.26,7.66c.24.18.9-.18,1.48-.32,0-2.52-.12-5.09,0-7.63s2.7-4.45,1.81-7.24C298.69,490,299.14,494.26,298.21,497.18Zm14.64-46.83c-2.6-1-5-1.82-7.81.46.37,2.43.53,4.49,1,6.45.35,1.36.43,3.2,2.73,3.32C311.34,457.7,315.18,455.28,312.85,450.35Zm6.49-8.89-2.87-4.87c-2.48,1.4-2.46,3.11-1.21,4.56C315.74,441.72,317.32,441.35,319.34,441.46Zm5.82-9.78a3.23,3.23,0,0,0-2.07-1.88,2.81,2.81,0,0,0-2.11,1.58c-.5,1.31-.52,2.82-.89,5.24,2.19-1,3.65-1.4,4.7-2.27A3,3,0,0,0,325.16,431.68Zm8.62,2.73,2-1.71c-.82-.5-1.45-1-1.53-.92a5.12,5.12,0,0,0-1.18,1.64C333,433.62,333.52,434.07,333.78,434.41ZM321.49,390.8c0,.54.84,1,1.6,1.89,1-.9,2.28-1.51,2.64-2.45.42-1.13-.75-1.69-1.84-1.63C322.54,388.68,321.37,389.24,321.49,390.8Zm-11.92-41.12c3,1.55,5.45,2.95,8,4.05,1.61.69,3,.32,3.07-2C317.64,348.71,314,348.42,309.57,349.68ZM245,342.41c-2.71-3.08-5.7-2.32-10.13-1.93Zm18.9,5.84c-3.25,0-5.61,1.75-7.43-.69-6,.54-6,.56-6,5.67A38.43,38.43,0,0,0,263.9,348.25Zm4.62-3.28,0-.52H252.83l3.62,3Zm5.33-5.51c.38,0,.73-.39,1.1-.6a5.14,5.14,0,0,0-1.37-.42c-1,0-2,.12-3,.2.08.28.15.56.23.85C271.84,339.49,272.85,339.54,273.85,339.46ZM275,350.53l-1-1.22-1.46,1.5c.43.2.89.59,1.3.54S274.62,350.82,275,350.53Zm3.45-14.61c-.09-.27-.18-.54-.28-.81a16.18,16.18,0,0,0-2.31,0,10,10,0,0,0-1.87.62,7.59,7.59,0,0,0,4.46.17Zm26.64,10.89c-.34-.94-.46-1.71-.66-1.73a5.24,5.24,0,0,0-2.12.21c-.15,0-.15,1.21-.1,1.21A28.93,28.93,0,0,0,305.1,346.81Zm-13.05,49.33c.86-.14,1.76-.28,2.77-.46a36.91,36.91,0,0,0-17.06-13s-13.36-2.59-25.59-.36c-19.92,3.26-24.33,9.62-24.33,9.62-1.67,3.32.8,4.7,3.94,5.58,8.85,1.67,22.69,2.34,34.18,1.28,6.16-.57,26.09-2.62,26.09-2.62ZM192,393l-.11.08h.19l-.06,0ZM92.6,403.51c-3.39,3.27-7.28,5.7-11.4,8.79-.88-1.4-1.61-2.39-2.17-3.48A65.8,65.8,0,0,1,76,402.49a13,13,0,0,0-8-7.88c-4.41-1.7-4.82-3.58-3.3-10,1.18.5,2.48.72,3.32,1.46,1.73,1.55,3,3.59,4.84,5,2.9,2.35,6,4.38,9.66.95.28-.27,1.66.08,2,.53a3,3,0,0,1,0,2.17c-.11.44-.63.8-1,1.14-1.19,1-1.57,2.16-.3,3.29s2.67.55,3.81-1.25c1-1.52,1.8-3.12,2.8-4.89l-4.89-7.46c-2.61,0-5.19.08-7.76,0-6.36-.24-8.1-2.35-7.45-8.85a13.79,13.79,0,0,0-.07-1.82l-8.5-3.76c1.86-.85,2.68-1.47,3.57-1.58,5.54-.71,10.28,1.31,14.41,4.78,1.35,1.14,2.22,2.85,3.33,4.33,2.2-1.24,3.67-1.81,4.78-2.8.67-.59,1.33-2.15,1-2.73-1.53-2.82-1.13-5.92-1.17-8.73a51.05,51.05,0,0,1-4.4-2.69c-1.62-1.23-3.31-1.21-5.19-.86-3.83.7-7.68,1.41-11.56,1.78a4.17,4.17,0,0,1-3.24-1.59c-1.12-1.74-1.79-4-.32-5.82a3.75,3.75,0,0,1,3.42-.89c1.24.54,2.09,2,3.6,3.61,2.21-.76,5.11-2,8.2-.47a4.62,4.62,0,0,0,5.21-.45c3-2.67,6.54-2.72,10.21-2.33a24,24,0,0,0,2.4,0c2,1.41,4.15,2.83,6.22,4.31s4.1,3,6.38,4.72c3.31-3.59,4-7.78,5.3-11.6a3.84,3.84,0,0,0-.71-2.92c-2.61-3.58-5.32-7.12-10.22-7.67-1.16,4.33-1.18,4.31-4.75,5.91-1.41.64-2.71,1.56-4.16,2.07a11.15,11.15,0,0,1-6.32.53,32.39,32.39,0,0,0,4.54-3.34,23.87,23.87,0,0,0,2.76-4.34c-.92-.57-1.41-1.13-1.78-1.06-6.14,1.25-11.76-1.44-17.62-2.27-3.63-.52-5.5-3.71-8-5.94-1.11-1-1.67-2.63-2.66-3.82-2.56-3.09-5.85-8.84-6.65-12.15-2.89.64-4.85,2.75-7.05,4.37-3.66,2.71-5.78,2.46-8.32-1.31a26.26,26.26,0,0,1-2.46-4.88c-.83-2.07-.19-3.46,1.66-4.63,2.06-1.31,5.1-1.12,6.54-4.25-2.86,0-5.37.15-7.85-.08a3.07,3.07,0,0,1-2.2-1.8c-.71-3.36,3.93-7.55,6.86-6s5.78,2.5,8.91,1.08c1.12-.51,2.72-1.4,2.84-2.28.17-1.28-.8-2.71-1.31-4.15a47,47,0,0,0,6-2.3c2.64-1.41,3-4,1.16-6.66-.7-1-3-1.41-3.34-.35-1,3-3.74,3.83-6,4.33-2.9.63-5.5,1.33-7.61,3.5a1.85,1.85,0,0,1-1.44.41,3.72,3.72,0,0,1-2.05-.87,2.38,2.38,0,0,1-.43-2.1,11.87,11.87,0,0,1,4.71-5c3.07-1.78,6-3.89,9.55-6.28-3.64-1.3-6.26-.35-9,.36-2.45.65-3.87,3.61-6.89,3.18.9-5.15,1.78-6.06,10.18-10.58-.33-2.1-.66-4.27-1-6.68l7.62-3.48c-1.25-3.44-2.83-6.7-3.56-10.14-.68-3.21-.25-6.68-3-8.91-2.68.38-2,2.36-2.52,3.71a12.42,12.42,0,0,1-10.88,7.45,3.33,3.33,0,0,1-2.09-.86c-2.36-2.32-2.66-6.88-.38-9.2A46.59,46.59,0,0,1,41,237.3a3.13,3.13,0,0,1,2.9-.15c2.55,2.15,4.71,1.32,7-.28.54-.37,1.46-.19,2.54-.3a12,12,0,0,1,.92,2.89,8.5,8.5,0,0,0,3.41,6.76c2.9,2.13,4.21,5.16,5.5,8.35,1.74,4.3,3.78,8.48,5.82,13l5.58,3.14c0,.8.12,1.44-.12,1.74-3.57,4.31-3.19,9.67-4,14.72a4.33,4.33,0,0,0,.11.77c.14,2.59.59,5.21.32,7.75s-1.26,4.87-1.93,7.26c1.38.79,1.88-.51,2.72-.91,1.29-.62,2.55-.82,3.41.62a2.67,2.67,0,0,0,2.43,1.43c4.9.42,5.29,1.19,3.54,6.53,4.34-1.37,8.85.34,12.91-2.33,1.48-1,4,.57,4.15,2.44.24,2.44.71,4.43,2.59,6.28.82.8.4,2.86.56,4.65-1.76.49-3.26.79-4.66,1.33-.93.35-2.39,1-2.47,1.61-.46,3.7-3.58,4.9-5.9,6.88a1.54,1.54,0,0,0-.35,1.4c.33.62.89,1.39,1.5,1.55,3.9,1,7-1.36,10.48-2.53a31.51,31.51,0,0,1,4.55-9c2.25-3,4.65-6.4,4.11-10.69a5.59,5.59,0,0,1,2-4.84c1.63-1.63,3-3.53,4.47-5.31l-9.29-1.53c1.22-5.59,5.51-6.73,9.37-8.67,4.43-2.23,8.56,2,13,.27l-2.1-3.82c1.27-.15,2.35-.62,3.16-.33,4.58,1.59,9.25,1.3,13.95,1.06a12.8,12.8,0,0,1,8,1.62c-4.78,3.88-10,3.52-15.15,3.72.76,1.84,2.26,1.37,3.37,1.64,2.14.53-.15,1.53.37,2.25,7.37,1.46,13.59-.95,19-5.9-.11-.73-.23-1.46-.35-2.19.44-.23.88-.65,1.32-.64,2.7,0,5.4,1.36,7.93-1.29.8-.83,3.31,0,5.08,0,.21,2.3.37,4.06.57,6.14a7.05,7.05,0,0,1-2.28-.41c-1.9-1.22-3.67-1.95-5.33.28,3.24,5.85,5.06,6.53,10.05,3.47,2.17-1.33,4.15-1.35,4.68.15.69,1.95-1.09,2.66-2.25,3.62-1.94,1.61-4.27,1.85-6.66,1.8-2.08,0-4.59-.93-6.16-.07-4.37,2.4-8,1-11.82-1a6.44,6.44,0,0,0-.74-.25c-2.24-.83-4.48-1.62-6.62.25-1.7,1.47-1.9,2.79-1.07,6.79a71.28,71.28,0,0,1-8.36.64,27.38,27.38,0,0,1-7.57-1.3,65.8,65.8,0,0,1-7.47-3.46c-2,1.76-4,3.3-5.78,5.11a11.8,11.8,0,0,0-2.35,3.88c-2,5-3.76,10.12-5.69,15.35l3.19,4.19a11.15,11.15,0,0,0,1.67.63c4.6.88,9,1,13.61-.79,3.07-1.19,6.63-1.11,9.28-1.5,4.52-4.23,8.69-8.13,13.08-12.22-.35-2.22-.71-4.47-1.06-6.66.65-.31,1.3-.83,1.51-.69,4.8,3.24,9.5.78,14.18-.3,1.22-.27,2.34-1.8,3.42-1.71,4.53.39,8-1.78,11.55-4a5.23,5.23,0,0,1,1.48-.47c1.83-.44,3.87,1.65,3,3.36a17.92,17.92,0,0,1-3.54,4.92,24.22,24.22,0,0,1-4.44,2.82c1.92,3.8,1.92,3.82,4.43,3.34,1-.18,2.3-1,2.76-.62,3.24,2.57,7.26,2.51,11.09,3.22.13,2.74,0,4.6-2.49,6.26a13.77,13.77,0,0,1-13.27,1.46c-1.39.93-2.46,1.63-3.51,2.35-4,2.69-4,2.7-9,.54-2.48.87-1.62,3.94-3,5.06-4,3.17-4.66,8-6.83,12a39.77,39.77,0,0,1-6.11,8c-1.56,1.69-3.76,2.77-5.5,4.33a57.57,57.57,0,0,0-4.18,4.62c-2.11-6.28-2.24-7.43-1.64-12.83a3.3,3.3,0,0,0-2.32-3.64,6.85,6.85,0,0,0-6.05.24c-2.75,1.45-5.52,2.88-8.29,4.33-1.44,2.94.33,4.92,2.09,7.12l7.07.67c-1.72,3.92-.22,7.56.05,11.82,1.73-.25,3.38-.08,4.57-.73,3.62-2,7.07-4.32,10.58-6.51a3,3,0,0,1,4.6,1.25c1,2.22,1.06,2.34.3,7.49-1.41.56-1.57-.71-2.22-1.4a9.68,9.68,0,0,0-3-2.28,2.76,2.76,0,1,0-2.41,5c3.22,1.91,6.62,3.16,10.41,1.65a8.9,8.9,0,0,1,7.86.07c1,4.22.68,9.58,7,10.59l-1.6,2,12,3.65a61,61,0,0,0-6.2,2.59c-1.72,1-2.16,3.73-4.94,3.52-1.95-2.19-4.08-4.37-6-6.76a9.5,9.5,0,0,1-1.31-3.56c-.35-1.45-.5-3-.71-4.27-2.83-.82-4.58.55-4,2.47,1.08,3.72-.39,6.24-2.06,9.3-1.82,3.32-2.4,7.29-3.7,10.91-1.52,4.24-.4,8.21,1,11.89a20.56,20.56,0,0,1-8.34,10.35c-1.89,1.18-3.2,3.31-5,5.27-3.43-1.51-7.58-1.09-10.95-3.92-.75-3,.15-6.12.42-9.19.29-3.23.34-6.32-3-8.26a1.17,1.17,0,0,1-.52-.56c-2.49-8.09-9.41-7.68-15.81-8.22-1.76-.14-3.54-.14-5.48-.21,1.8-3.83,1.43-3,4.57-5.07,1.68-1.11,3.33-2.28,5.15-3.53l-3.08-2.19,6.91-2.15c3.31,3.91,6.44,7.64,9.62,11.34a19.18,19.18,0,0,0,2.76,2.72,3.83,3.83,0,0,0,5.58-.43,9.36,9.36,0,0,0,2.26-3.17c1.5-5,6.06-8.28,7.44-13.34.28-1,.37-1.28-1-2.11.32-1.43.64-2.89.93-4.16-.36-.71-.47-1.32-.84-1.6-8.75-6.61-6.16-6.75-19-3.07a9.8,9.8,0,0,1-5.57,6,30.36,30.36,0,0,0-6,3.59,74.1,74.1,0,0,1-9.72,6.3A45.42,45.42,0,0,0,92.6,403.51ZM138.66,432a24.57,24.57,0,0,0-1.91-2.77c-1.2-1.22-2.07-3.26-4.4-2.12a.9.9,0,0,0-.49.58c-.44,2.53,1.77,2.88,3.24,3.74C135.72,431.82,136.6,431.73,138.66,432ZM124.57,296.64c.05,1.3,1,1.7,2.11,1.74a2,2,0,0,0,.72-.24c-.32-.85-.61-1.71-1-2.53-.09-.19-.43-.27-.65-.4-.25,0-.64,0-.71.07A2.88,2.88,0,0,0,124.57,296.64Zm-9.29,5.29a6,6,0,0,0,4.41-2.66c.74-1.22.31-1.84-2.41-2.86Zm-54.45,3.46c-.8-.54-1.37-1.23-1.82-1.16s-1,.83-1.45,1.29c.45.45.92,1.29,1.35,1.27S60,306.05,60.83,305.39Zm8.28,8.67a2.76,2.76,0,0,1,2.68-.12c3.73,3.38,7.29,6.93,11.2,10.72l5.84-4-11.94-6.57c-.55-3.29-1.41-6-5.2-6.93-5.28-1.26-6.45,3.2-9.27,6.29a28.05,28.05,0,0,1,1,4.12c.36,3.73,2.45,6.15,5.59,7.85,1.6.86,3.18,1.74,4.83,2.5s2.38-.06,3.52-3.2c-4.19-1.14-7-4.06-8.77-7.89A3,3,0,0,1,69.11,314.06Zm71.35,24a4.33,4.33,0,0,0,4.89-1.16c3.15-3.09,6.48-6,11.32-6.91-1.15-4.7.87-7.21,5.16-8.16l4.18,4.87c1.48-1.12,3.27-1.78,3.72-3a7.21,7.21,0,0,0-1.6-8c-2.27,2.5-4.36,4.21-7.71,2.61-2.21-1.05-4,.2-5.12,2.32-.84,1.62-1.58,3.3-2.47,4.88a8.84,8.84,0,0,1-1.46,1.62l-6.84,1.43C143.09,332,141.78,335,140.46,338.09Zm-26.28,3.32c3.13-2.19,5.78-1.35,8.7.07a6.09,6.09,0,0,0,3,.53c3.08-.26,6.14-.75,9.22-1.06a7.09,7.09,0,0,0,5.21-2.8c-5-.27-10.17,2.42-14.9-1.19a2.46,2.46,0,0,0-1.52-.13c-4.33.4-8.64.83-13,1.25C111.18,341,112.55,342.55,114.18,341.41Zm-3.94,38.8c2.73,0,4.76,0,6.79,0s4,.09,6,.13c-1.75-4.52-3.28-5.23-7-3.27C114.22,378,112.51,379,110.24,380.21ZM517.56,416c-4.79-2-9.91-3-14.43-5.83-2.06-1.28-5-1.17-7.77-1.75-3.33-.76-12.06,6.44-24.45,5.51-8.79-1.09-17.81-1.72-25.76-5.92-5-2.64-9.73-2.69-15-1.79a88.81,88.81,0,0,1-14.78.77c-2.43,0-3.57-1.53-4.1-4-.44-2-.08-3.87,1.82-4.69,5.43-2.35,9.65-7.2,16.11-7.5,1.68-.08,3.37-1.33,5-2.22,5.39-3.07,11.29-4,17.34-4.08,4.95-.09,10-.48,14.83.35,5.06.88,9.92,3,14.81,4.7a56.78,56.78,0,0,1,7.15,3.14,43.91,43.91,0,0,1,5.88,3.64,48.83,48.83,0,0,0,12.41,7c1.72-1.26,1.16-2.22.7-3.14a15.08,15.08,0,0,0-7.25-6.88c-10.14-4.81-20.39-9.22-31.65-10.94a122.56,122.56,0,0,0-21.8-1.79,20.57,20.57,0,0,0-9.78,2.31c-1.58.89-3.38,2-5.07,1.94-6.47-.08-11.05,3.54-15.62,7.3a7.45,7.45,0,0,1-5.81,1.66,66.23,66.23,0,0,0-8.57-.14c-2.72.11-4.41-1.39-5.78-3.36-.87-1.24-1.22-2.89-2.21-4a18,18,0,0,0-3.62-2.56c1.05-5.56,1.42-6,5.41-6.18,1.24-.06,2.49,0,4.62,0-.83-1.44-1.11-2.44-1.76-2.92a32.7,32.7,0,0,0-4.1-2.32c.71-2.73,3-2.79,4.81-3.49,2.15-.83,2.5-2.44,1.69-4.9h-6.05l-2.95-8.59a70.54,70.54,0,0,1,12.52-9.48,8.47,8.47,0,0,1,4.42-1.31c5.62.39,11.37-.86,16.84,1.65a10.11,10.11,0,0,0,5.34.44c7-1,14-1.21,21,.41,2.2.51,4.63.08,6.84.08.82,1,1.47,1.77,2.11,2.56,3.6-.37,7.18-.83,10.78-1.09,3.36-.23,6.8-2.72,11,.32L474.39,354c4.21,2.41,4.23,2.79,8,2.61,4.92-.23,7.22,2.08,8.14,6.55a29.28,29.28,0,0,0,1.51,4.08c-2.85,1.12-5.47.34-8.11-.74s-5.28-2.07-7.35-2.88c-2.58.47-2.17,3.46-4.57,3.34-1.27-.06-2.57.55-3.86.57-9.12.11-18.26.24-27.38.15a12.33,12.33,0,0,1-5.12-1.59,8.22,8.22,0,0,0-7.52-.41,9.47,9.47,0,0,1-6,1c-3.74-.7-7.23.21-11,2l7.8,3.07-11.1,6.3a9.61,9.61,0,0,0,8.86.52c7.13-3.21,14.68-3.41,22.27-3.41,10.17,0,20.33-.26,30.43,1.64,12.7,2.39,24.57,7.09,36,12.83,8,4,13,11,17.11,18.75a6,6,0,0,1,.74,2.22c.15,2,1.66,4.24,0,6C521.37,418.61,519.36,416.71,517.56,416ZM406.26,350.3a1,1,0,0,0-.71.1A10.26,10.26,0,0,0,404,352c-.06.08.5.62.88,1.06a10.28,10.28,0,0,0,1.65-1.49C406.7,351.33,406.41,350.72,406.26,350.3ZM472,392.69c-7-2.95-19.08-2.41-32.34-.7-2.39,1.56-4.73,3-7,4.6a4.25,4.25,0,0,0-1.93,4.34c2.48.82,6.35-.32,12.35,1.12,2.86.68,12.39,4.06,22.07,4.6,10.69.6,21.58-1.72,23.87-2.93C493.41,401.42,479.24,395.75,472,392.69Zm-53.8,223.52c.17.21,1-.11,1.47-.2,2.27-.42,4.56-.78,6.81-1.3a10,10,0,0,1,7.57.86A14.67,14.67,0,0,0,437.7,617a4.84,4.84,0,0,0,5.61-4.13c.24-3.93-1.64-7-4.35-9.65a6.74,6.74,0,0,0-7.81-1.52c-2.28,2.11-1.94,6.84-6.84,6.48.95-2.05,1.78-3.86,2.54-5.52-1.71-3.11-5.38-3.24-7-5.21-3.43-4.29-9-1.56-12.5-4.76l-6.13,1.83c-3.41-4.11-8.19-2.56-12.69-3.07.07,1.49.49,2.69.06,3.38s-1.66,1.09-2.6,1.46a3.21,3.21,0,0,1-1.54,0c-6.18-.82-12.35-1.7-18.54-2.46-1-.12-2.18,0-1.86,2.21l8.75,1.24c-4.48,2.42-8.33,4.31-13.27,3.92-5.69-.46-11.45-.05-17.18-.08-3.11,0-5.83-1.17-9.07-2.95,1.38-.7,2-1.33,2.64-1.29a45.84,45.84,0,0,1,8.47.9,10.65,10.65,0,0,0,9.79-2c-.5-1-.7-2.37-1.38-2.72-3.24-1.61-6.44-3.24-10.39-2.47-4.32.85-8.69,1.83-13.19.8a6.53,6.53,0,0,0-3.06.48c-4.25,1.23-8.55,2.35-12.7,3.85-3,1.07-5.8,2.37-9.61,1.83-2.92-3.18-6.53-6.08-11.69-5L289.62,597c-3.9-1.81-7.6-3.6-12-2.32-2.44.7-3.77-1.43-2.82-4,.35-1,1.22-1.8,1.38-2.77s-.1-2.43-.66-2.71a5.33,5.33,0,0,0-3.57-.28,4.15,4.15,0,0,0-2.2,2.11,114.09,114.09,0,0,0-4.51,10.78,4.62,4.62,0,0,0,.89,3.59,16.14,16.14,0,0,0,10.21,6.64c4.89.89,9.6,1.81,14.66.48a76.65,76.65,0,0,0,9-2.55c2.88-1.15,5.95-2.37,9-2.5,7.54-.32,15.18-.86,22.57,1.3a92.59,92.59,0,0,0,16,3,34.09,34.09,0,0,0,11.63-.34,140.26,140.26,0,0,1,20.11-2.94,24.54,24.54,0,0,1,11.46,1.37c5.56,2.23,11.25,4.16,16.65,6.72C410.87,614.24,415.36,612.79,418.24,616.21Zm-66.78,37.23c2.34-.1,4.7.06,7,.18a36,36,0,0,0,13.09-2c1.65-.54,2.56-1.71,2.13-4.07-1.31-.18-2.84-.77-4.21-.52a38.5,38.5,0,0,1-13.2.05,23.67,23.67,0,0,0-7,0c-7.69,1.12-15-.37-22.32-2.57-4.45-1.36-8.87-3.1-13.43-3.79-6.75-1-12.3-4.42-17.18-8.57-2.79-2.38-5.22-4.67-9.11-4.8-.29-2.59-.52-4.74-.8-7.3L277.57,623c.2,1.33.09,2.45.54,3.27,2.54,4.76,7.73,7.56,9.56,12.87,4.34,1.65,6.67,5.72,10.16,8.38a16,16,0,0,0,5.52,2.8c6,1.54,11.89,4.1,18.37,3.11a6.65,6.65,0,0,1,3.83.51c3.81,2,7.55,1.48,11.39.31.43-.13,1,.17,1.75.33l2.57,5.21h5.28C347.41,654.3,347.92,653.6,351.46,653.44Zm-255.41-211c.68,2.23.94,4.71,2.12,6.63,1.79,2.92,1.83,5.88,1.42,9-.38,2.82-1,5.61-1.38,7.93,1.22,2.52,2.19,4.63,3.27,6.68.52,1,1.37,1.47,2.44.75.59-3.6.78-7.29,1.84-10.7,2-6.36,4.52-12.55,4-19.7,2.92,0,5.26.06,7.59,0a7.07,7.07,0,0,0,2.1-.82c.16-2.19.3-4.23.46-6.47-5.28-1.9-6,4.6-10,4.89a3.08,3.08,0,0,1-1.31-.27c-4-3-3.8-5.79.43-8.17.83-.47,1.6-1.06,2.29-1.53-.7-3-1.24-5.48-1.9-8a9.52,9.52,0,0,0-1.2-2.8c-1.84-2.81-3.8-5.55-5.68-8.33-1.09-1.61-2.56-2.13-4-1.32s-2.4,2.21-1.77,3.88a52.47,52.47,0,0,0,2.71,5.34c-5.37,3.07-5.68,3-11.32-1.07-.39,6.23.08,7.06,5.27,9.27a10.71,10.71,0,0,1,1.43.59c1.49.92,2.19,3.8.93,5.66s-2.48.5-3.82-.49a2,2,0,0,0-3.41,1.44,17.39,17.39,0,0,0,.14,4.55c0,.34.73.62,1.24,1l4.52-3.22C95.16,439.57,95.61,441,96.05,442.47Zm294.19,87.18a4.5,4.5,0,0,0-2.44,2.58c-.21.53.88,1.64,1.51,2.38a3,3,0,0,0,1.39.68c5.89,1.83,13.78-1.27,16.95-6.76.33-.57.05-1.51.05-2.54-1.89-1.82-5.16-1.86-6.54-4.9-2.88-6.39-8.55-9.56-14.91-11.72C379.3,507,373,509,368.39,515.21c-.23.31,0,1,.06,1.84,2.69,1,6.14.16,8.57,2.66a11.88,11.88,0,0,0,8.48,3.46,5.54,5.54,0,0,1,3.95,2c1.79,2.75,4.05,2.9,6.82,2.33.92-.19,2.15-.4,2.24,1.66a31.44,31.44,0,0,1-3.65.52C393.31,529.73,391.66,529.24,390.24,529.65ZM506.71,415.84c-.57-1.26-2.94-1.37-4.91.08-2.17,1.61-4.63,3.13-4,6.67a3.93,3.93,0,0,1-1.59,3.15,16,16,0,0,1-5.61,2.45c-11.32,2.14-22.62,3.07-33.74-1.18a10.84,10.84,0,0,0-3.8-.78c-5.29,0-10.15-1.56-15.1-3.24-3.76-1.28-6.52-3.08-7.55-7.07a13.94,13.94,0,0,0-1.23-2.36l-5.91,6.09c3.65,0,5.6,1.37,7.61,3.27,2.8,2.64,5.9,5.34,9.38,6.8,7.43,3.13,15.5,4.51,23.43,5.56,6.64.88,13.52.08,20.29-.2a22.62,22.62,0,0,0,7.65-1.38,24.11,24.11,0,0,0,7.8-4.83c2.52-2.52,4.21-5.85,6.37-8.74C506.86,418.78,507.42,417.43,506.71,415.84ZM192.23,383.38c-4-1.95-7.6-3.43-10.92-5.37-2.13-1.24-1.78-4.85.46-5.83,2.6-1.14,5.35-1.94,8-2.87.87-.3,2.14-.12,1.76-1.86-.69-.1-1.42-.22-2.15-.29a28.05,28.05,0,0,1-3.06-.26c-5.68-1.23-5.66-1.24-8.79,3.31a26.5,26.5,0,0,1-2.15,2.43c-1.33-.74-2.47-1.28-3.5-2-1.5-1-2.78-2.49-4.39-3.22-6-2.68-11.22-.8-12.26,7.63,2.94-1.23,5.34-3.93,9.32-2.37a46.57,46.57,0,0,1,3.42,5.44,6.77,6.77,0,0,0,5.32,4c1.27.24,2.54.88,3.79.83,5.33-.25,8.58,3,11.73,6.57,1,1.15,2.1,2.26,3.14,3.39l3-2.25C194,388,193,385.4,192.23,383.38Zm418.61,39.87c-2.14-2.23-4.07-4.66-6.25-7.21l-5.38,1a21.26,21.26,0,0,0-.28,4.11c.68,4.87-1.43,8.89-4.67,11.87a21,21,0,0,0-5.63,8.79c-1.39-1-2.67-1.41-3.15-2.29a11.17,11.17,0,0,1-1.18-4.42c-.15-2,.37-4.14.07-6.13-.25-1.68-1.28-3.24-2.09-5.15a30.37,30.37,0,0,1,3.79-1.58,10,10,0,0,0,7-5.48c2.79-5.4,11.11-7.5,16.23-4.61a12.79,12.79,0,0,1,3.92,3.66,64.09,64.09,0,0,1,3.59,6.47c-1.18.76-2.12,1.73-3.21,1.94A3.53,3.53,0,0,1,610.84,423.25Zm-19.92,6c0-.48-.9-.95-1.39-1.43a9.51,9.51,0,0,0-1.41,2.48c-.1.39.8,1,1.75,2.1A11.5,11.5,0,0,0,590.92,429.28ZM219.24,412.72c-.09-5.8-.1-5.79-4.77-9.45-.61-.48-1-1.31-1.71-1.56a10,10,0,0,0-3.75-.77c-3.24.13-4.73,3.37-2.91,6.09,1.29,2,2.6,3.89,3.9,5.83a18,18,0,0,0,12,8c2.76.55,5.4,1.72,8.12,2.55a13.44,13.44,0,0,0,3.75.83c1.91,0,2.69-1.3,2.48-4-3.94-2.26-8.16-4-11.41-6.8C222.73,411.58,221.09,413,219.24,412.72Zm388,26.45a2.33,2.33,0,0,0-3.21-2.26,54.07,54.07,0,0,0-6.1,3.38A5.61,5.61,0,0,0,595.4,447a34.37,34.37,0,0,1,1.23,3.67c1.29,7.4,1.73,14.74-2.07,22l3.55,2.12c.84-.57,1.44-.76,1.64-1.16,2.65-5.34,5.16-10.75,4.83-16.93a37.6,37.6,0,0,1,1.9-13A18.74,18.74,0,0,0,607.23,439.17Zm-435-100.76a50,50,0,0,0-5.92-.67c-1.64,3.8-2.57,6.93-1.57,10.2,5.74,2.87,5.74,2.87,8.17,8a19.84,19.84,0,0,0,1.79,3.42,2.08,2.08,0,0,0,1.92.63,2.2,2.2,0,0,0,.94-1.87c-.47-2.81-1.15-5.59-1.76-8.38-.49-2.24-1.39-4.28-.74-6.82C175.77,340.15,174.84,339,172.23,338.41Zm-79.7-34c2-5.8,2-5.76,6.69-9.29a45.48,45.48,0,0,0,4.07-3.95c-4.18-2.6-8-.46-11.61-1.28-1.12,1.81-1.78,3.64-3.07,4.73-1.46,1.25-3.47,1.84-5.37,2.77C87,301.7,87,301.7,92.53,304.43ZM395.86,59c1-2.92,1.91-5.84,2.91-8.89a37.44,37.44,0,0,1-5.19-4.31c-1.6-1.86-.61-5.27-4.09-6.77a5.84,5.84,0,0,0-1.1,1.72c-1.43,6.15.52,11.82,2.87,17.31C392.08,60,394,60.31,395.86,59ZM268.52,57.45a6.28,6.28,0,0,0,1.2-2.74c.27-1-1.13-2.19-2-1.66-1.47,1-2.79,2.13-4.42,3.42-5.73-1.77-11.43-2-16.42,4.23,4.34.33,7.68.62,11,.82A13.46,13.46,0,0,0,268.52,57.45ZM462,422.3c2.87.92,6.07.81,10-1-1.33-1.12-1.8-1.83-2.43-2q-9-2.34-18-4.47c-.64-.15-1.43.39-2.53.72.27,1,.24,2.26.83,2.79,1.1,1,2.54,2.16,3.88,2.21A29.75,29.75,0,0,1,462,422.3ZM171.08,484.43a5,5,0,0,0-3.58.9c-4.12,3.61-4.7,7.9-2,14.21l8.94-13.17C173.09,485.55,172.13,484.55,171.08,484.43ZM390.36,27.24c0,.68,1,1.38,2.49,3.33,1.38-7.39,1.44-13.46,3-20.57-6,3.28-7.32,4.92-6.3,8.88A30.83,30.83,0,0,1,390.36,27.24ZM492.59,668.47c-3,1.42-4.78,2.57-6.67,3a52.5,52.5,0,0,1-6.91.67,2.6,2.6,0,0,0-1.43.5c-.54.48-1.26,1.14-1.28,1.75a2.17,2.17,0,0,0,1.22,1.69C483.92,677.18,488.53,677.86,492.59,668.47Zm-63.9-592c1.27-.46,3-1,2.76-3.45-4.14-1.72-8.35-1.14-12.45.43-1.42.54-2.43,1.92-1.24,4.09C421.39,78.78,425.09,77.74,428.69,76.44ZM225.28,330.86c1.08-1.93,2.42-3.68,2.37-6-6.74-.25-6.87-.2-14.38,5.35l2.51,1.53h0l-.14.06,0,0s0,0,0,0ZM349.16,191.69c1.83-3.88,4.13-7.18,8.79-9.23a12,12,0,0,0-2.53-1.56c-2.72-.89-3.91-.42-5.11,1.94-1.3,2.53-2.51,5.11-3.66,7.71a1.41,1.41,0,0,0,.51,1.28C347.81,192,349,192,349.16,191.69ZM162,109.26c1.15,1.08,3.28,1.32,5,1.48.68.06,1.68-1,2.13-1.8.22-.38-.32-1.61-.83-1.91-3.3-1.94-6.68-3.73-10-5.57-.29.61-.81,1.26-.67,1.48C159,105.12,160.21,107.54,162,109.26ZM475.19,667.84c2,2.94,4.75,2,7.78,1.61.64-2.28.88-4.59,2.55-6.49C481,662.6,477.23,663.08,475.19,667.84Zm-248-306.47c-4.07-3.93-8.08-3.59-11.72-4.28a10.49,10.49,0,0,1-1.5,2.6c-.75.68-2.75.19-2.16,1.86,3.54.43,6.79,1,10.07,1.15C223.25,362.77,224.67,362,227.17,361.37ZM572.26,496.23a2.83,2.83,0,0,0-2.36,1.23,47,47,0,0,0-3,6.22c-.25.61-.22,1.85.15,2.1a3.77,3.77,0,0,0,2.73.68c3.21-.92,4.32-2.93,4.35-7.24,0-.26,0-.57-.11-.76C573.45,497.66,573,496.46,572.26,496.23Zm-484-223.92c4.26,2.95,8.77,4.74,15,2.31-5.21-2.57-9.84-3.55-14.75-4.74C88.39,271,88,272.12,88.29,272.31ZM377.2,130.84c6,0,8.56-4.71,12.85-8C382.54,122.89,379.84,124.61,377.2,130.84ZM204.65,339.51c3.85.43,6.58,1,8.85-1.48,1.19-1.33,2.71-1.22,4.31-1.06,1,.1,2.33,1.31,3.18-.67l-5.32-4.49a57.1,57.1,0,0,1-4.59,4C209.35,337,207.42,337.93,204.65,339.51ZM79.21,287.19c-1.16.35-1.94,2.73-1.48,4.06a2.52,2.52,0,0,0,3.34,1c2-1.15,4.15-2.17,4.79-4.95C83.62,286.05,81.4,286.51,79.21,287.19ZM616.47,427.61a2.39,2.39,0,0,0-1.93-.93,2.26,2.26,0,0,0-1.6,1.36c-.62,3.21-.07,6.11,3.27,8.87a59.92,59.92,0,0,0,1.19-6.44A5,5,0,0,0,616.47,427.61Zm-24.09-64.33c2.33-.52,2.92-2.8,3.59-4.5.44-1.1-.61-2.89-1.27-4.24-.18-.37-1.36-.25-2.43-.4l-1.5,8.21C591.54,362.82,592,363.36,592.38,363.28ZM604.5,260.22c.1,1.85,1.66,3,3.84,2.93,1.83-.09,3.17-1.21,3.23-2.7.1-2.44-1.43-4.38-3.41-4.35A3.68,3.68,0,0,0,604.5,260.22ZM585.36,446.86c-.32,1.69-1.19,3.59.45,5a2.13,2.13,0,0,0,2.06-.07,4.46,4.46,0,0,0,1.6-2.46,42.58,42.58,0,0,0,.07-5.71C586.3,443.25,585.7,445.06,585.36,446.86ZM470.14,669.52c-3.38-.77-5.49.29-6.88,2.65a2.65,2.65,0,0,0,.78,2.45c1.74,1.1,3.63.27,4.82-.94C469.7,672.82,469.69,671.13,470.14,669.52ZM611.52,462.25a8.75,8.75,0,0,0-.33,3.78c0,.56,1,1.49,1.47,1.44.91-.1,2.34-.6,2.52-1.23a24.17,24.17,0,0,0,.47-4.95C613.62,460.18,612.17,460.42,611.52,462.25ZM129.61,439.46a3,3,0,0,0-.45,2.53c1.93,1.16,1.9,4.42,5.59,4.62-.63-2.6.27-5.26-2.35-6.93A3.22,3.22,0,0,0,129.61,439.46ZM321,738.43c-.64-1.4-2.07-1.35-3.35-1s-2.23.8-4.39,1.61l5.76,3.52C321.21,741.88,322,740.44,321,738.43Zm-2,4.11h0l.14.08h0Zm-17.13-200,8.21-.57.48-1.41a61.93,61.93,0,0,0-6.24-2.24C302.59,537.85,301.42,539.79,301.93,542.51ZM191,313.4c2.29,1.56,4.81,1.37,8.49,1-2.6-3.24-5.24-3.31-7.73-3.54-.46,0-1.12.78-1.46,1.35C190.15,312.39,190.6,313.15,191,313.4ZM406.36,741.94a21.43,21.43,0,0,1-2.76,2.63,41.9,41.9,0,0,1-3.89,2.25c4.64.14,4.64.14,10.33-5.47C408,739.91,407.24,741,406.36,741.94ZM304.48,413.68a10,10,0,0,0,1.23-2.82c-.43-.68-.77-1.73-1.21-1.78a3.55,3.55,0,0,0-2.6.69,4.14,4.14,0,0,0-1.07,2.77c0,.83.63,2.16,1.25,2.34S303.91,414.34,304.48,413.68Zm-10.41-201-.1-.1a.36.36,0,0,0,0,.11ZM287.89,216c1.24,1.86,4,2,5,.22a15.42,15.42,0,0,0,1-3.5c-1.72,0-3.46,0-5.16.18C287.62,213,287.15,214.9,287.89,216ZM462.32,693.05c3.07-.31,3.07-.31,5.34-2.46C463.05,689.18,463,689.15,462.32,693.05Zm-67.56,54.76c-2.84.37-5.65.62-8.41,1.15-1.24.24-1.32,1.35-.38,2.92C394.16,749.46,394.16,749.46,394.76,747.81ZM179.59,579.45l-.1.09.09,0A.49.49,0,0,0,179.59,579.45Zm4.6,6.11c0-3.42-1.56-5.27-4.61-6C179.16,582.92,180.24,585.15,184.19,585.56Zm98.54,64.06a44.81,44.81,0,0,0-1.26,4.8c1.53.2,2.8.6,3.53-.87a9.77,9.77,0,0,0,.62-3c.14-1.06.05-2.21-1.28-2.26A2.31,2.31,0,0,0,282.73,649.62ZM190.07,355c-.33,1.14,1.11,2,2.66,1.84,1.37-.17,2.68-.86,2.36-2.28-.2-.9-1.54-1.53-2.81-2.68C191.3,353.14,190.35,354,190.07,355ZM311.15,630.07a6.16,6.16,0,0,0-6.28-1.6,1.59,1.59,0,0,0-.94,1,1.47,1.47,0,0,0,.49,1.28C306.53,631.83,308.63,631.92,311.15,630.07ZM197.83,401.44c-.88-.63-2.6.7-2.46,2.06.1,1,.93,2,1.78,3.6,1.29-1.3,2.73-2.12,2.69-2.86A4.54,4.54,0,0,0,197.83,401.44ZM152.79,513a2.18,2.18,0,0,0-1.3,1.52c-.28,1.85.88,3.34,2.29,3,.6-.13,1.06-.86,1.43-1.18C155.34,514.32,154.12,512.68,152.79,513ZM393.7,744.78c-3.21-.57-5.63-1.54-8.84,1.6C388.45,748,390.82,747.39,393.7,744.78Zm101-97.3c-2.62,1-3.54,1.24-4.38,1.65s-1.52.92-3,1.82C492,651.13,492,651.13,494.66,647.48ZM198.32,318.75c3.88,1.3,6.54,1.21,8.73-2.27C203.78,315.87,201.3,316.64,198.32,318.75ZM186,288.05c-1.33-2.12-3.21-2-6.67-.64,2.58,1.32,4,2.13,5.56,2.78.25.11,1-.38,1.15-.76A1.59,1.59,0,0,0,186,288.05Zm160.24-251c.8-.25,1.41-1.07,2.71-2.13-1.64-.81-2.62-1.62-3.65-1.68a2.69,2.69,0,0,0-2,1.62C342.87,36.26,344.6,37.55,346.23,37.05Zm-77.7,194.87a1.31,1.31,0,0,0,0-.72,11.51,11.51,0,0,0-2.72-.34,17.13,17.13,0,0,0-3.23,1.19,25.49,25.49,0,0,0,2.94,1.32C266.86,233.73,268,233.45,268.53,231.92ZM191.19,596.08c-1.41.6-.73,1.66-.14,2.51s1.29,1.59,1.94,2.38l1.24-.41a20.2,20.2,0,0,0-1.23-3.48C192.7,596.55,191.6,595.91,191.19,596.08ZM337.53,77.78a1.5,1.5,0,0,0,1.39-.26,5.21,5.21,0,0,0,.68-5c-2,.73-3.12,2-2.94,4.11A1.62,1.62,0,0,0,337.53,77.78ZM468.75,685.61a5.06,5.06,0,0,0,2.77-.05,13.76,13.76,0,0,0,2.67-2.52,10.91,10.91,0,0,0-3.51-.52c-.81.12-1.55,1.11-2.18,1.84C468.32,684.57,468.61,685.6,468.75,685.61Zm5.49-2.63-.05.06.14,0ZM492,721.1c3,1.27,5.58-.54,8.21-.41l-.81-1.67C494.37,719.26,494.37,719.26,492,721.1Zm-328.52-185a1.94,1.94,0,0,0,2.08,2.39c.61-.06,1.16-.65,2.32-1.36a20.63,20.63,0,0,0-3-2.21C164.7,534.8,163.65,535.59,163.51,536.1ZM299.19,726.68c1.1,2.1,2.77,1.74,4.58.52C302.34,726.4,301,724.7,299.19,726.68ZM227.82,407.53a.87.87,0,0,0,0-.68c-1-1.24-2.16-.87-3.28-.33-.32.16-.41.79-.63,1.25.17.15.38.48.53.45C225.58,408,226.7,407.8,227.82,407.53Zm-152.39-143c.74,1.55,2.25,2,3.71,0l-1.59-3.21C76,261.79,74.57,262.73,75.43,264.51Zm2.12-3.22.08,0,0,0,0,0-.08-.09h-.06Zm25.65,9a1.58,1.58,0,0,0,.65-1.2,1.54,1.54,0,0,0-.62-1.2,14,14,0,0,0-2.63-.61L98.94,269a8.2,8.2,0,0,0,2.12,1.62A3.28,3.28,0,0,0,103.2,270.25ZM141.13,263l-5.5-1.72C137,264.27,137,264.27,141.13,263Zm32.94,20.5c-.14.16.3.83.48,1.26a14.26,14.26,0,0,0,2.42-1.08c.29-.18.26-.85.38-1.3-.42-.21-1-.7-1.24-.57A7.37,7.37,0,0,0,174.07,283.5ZM565,554.75c.14-.24-.32-.82-.51-1.25a10.54,10.54,0,0,0-2.39,1.22c-.18.16.37,1.17.83,2.52A19,19,0,0,0,565,554.75ZM260,418.72c-.22,1.65-.33,3.28,2,3,.43,0,1.16-1.27,1-1.76C262.72,418.37,261.48,418.18,260,418.72Zm349.77-98.06c-.2-.12-1.14.44-1.11.62a2.77,2.77,0,0,0,.7,1.81c.28.21,1.13-.36,2.1-.72A9.69,9.69,0,0,0,609.81,320.66ZM188.92,295.88l.14,0-.11-.08ZM187.58,301c.49-1.87.92-3.51,1.34-5.14C184.88,297,184.77,297.43,187.58,301Zm82.83,404.2c-.33.89-.27,2,1,2.15.49,0,1-.68,1.72-1.17-.46-.76-.69-1.6-1.19-1.81A1.81,1.81,0,0,0,270.41,705.22ZM614.16,307.41a3.94,3.94,0,0,0,.61-1.25c-.37-.26-.76-.77-1.1-.74a31.45,31.45,0,0,0-3.31.59c.17.68.14,1.59.57,2C612.11,309,613.22,308.24,614.16,307.41Zm-559,23a26.58,26.58,0,0,0,2.75.74,8.8,8.8,0,0,0,.7-1.65,12.85,12.85,0,0,0-2.7-.71C55.67,328.81,55.39,329.87,55.14,330.44Zm48-26.66c-1.72.89-1.48,2.29-1,3.77C104,306.26,104,306.26,103.09,303.78ZM287,537.37a7,7,0,0,0,.71,1.83l2.09-1a9.11,9.11,0,0,0-1.74-1.58C287.84,536.53,287,537.15,287,537.37ZM171.18,411.54c.08-.2-.56-.65-1.07-1.21a7.53,7.53,0,0,0-.9,1.9c-.05.28.56.67.87,1A7.83,7.83,0,0,0,171.18,411.54Zm22.2-119a28.07,28.07,0,0,0-4.22,1.16c-.27.12-.1,1.24-.1,2a25.53,25.53,0,0,0,2.56-1.29C192.24,294,193.57,294.39,193.38,292.57Zm-4.32,3.27v-.13l-.11.05ZM460.14,703.36l.12.11c0-.09.05-.17.08-.25Zm2.54-3.42c-.3-.21-1.21-.14-1.29,0a32,32,0,0,0-1.05,3.23c.93-.67,1.89-1.3,2.75-2.05C463.23,701,463,700.15,462.68,699.94Zm-166-1.31a8.3,8.3,0,0,0,1.07-.44c-.2-.35-.41-.7-.62-1.05a6.58,6.58,0,0,0-.75.94C296.36,698.19,296.66,698.64,296.72,698.63ZM474.24,683l.09.09a1,1,0,0,0,.07-.15Zm2.63-3.1c-2.1,0-1.95,1.8-2.47,3C475.73,682.35,477.26,682,476.87,679.88ZM490.39,30c-.07-.21-.12-.59-.22-.6-.9-.13-1.8-.2-2.71-.24-.06,0-.14.41-.21.62.85.21,1.7.44,2.55.6C490,30.4,490.19,30.12,490.39,30ZM344,661.91h3.4l0-.52-3.37-.21Zm137.51-3c-.42-.13-.89-.45-1.25-.34a9.63,9.63,0,0,0-1.85,1c.09.28.18.56.28.85a10.8,10.8,0,0,0,2.06-.46C481.08,659.79,481.25,659.26,481.5,658.91Zm19.82-10.36c.26.34.59,1,.78,1a9.61,9.61,0,0,0,1.85-.83c-.42-.53-.81-1.18-.93-1.13A10.15,10.15,0,0,0,501.32,648.55Zm3.6,43.26-6.76,4.39c.72,4.51.72,4.51,5.23,5.29.46-2.44,4-3.37,3.22-6.45A15.14,15.14,0,0,0,504.92,691.81ZM502.86,704c.09.38.19.76.28,1.14l2.71-.81-.21-.74ZM143.26,544.31a28.11,28.11,0,0,0,0-8.49,4.42,4.42,0,0,0-2.43-2.74c-6.55-2.8-12.85,1.49-13,8.59-.08,3.72,1.49,6.46,4.65,8.81a46.6,46.6,0,0,0,5.12-.47A6.93,6.93,0,0,0,143.26,544.31Zm468.09-380.2c-2.37,1-.94,3-.59,4.55.12.54.86,1,1.74,1.88l3.47-5.87C613.94,164.38,612.42,163.68,611.35,164.11ZM590.66,110.4c.36.57,1.83.71,2.72.59a2.07,2.07,0,0,0,1.15-1.7c-.16-.91-.72-2.28-1.39-2.48a11,11,0,0,1-8.07-7.49c-.38-1.11-1.81-1.79-3.64-.6q.44,2.28,1,5.09A15.86,15.86,0,0,1,590.66,110.4Zm18.1,22.13c1.5-.52,2.25-.55,2.4-.87a23,23,0,0,0,2.5-12.7,12.72,12.72,0,0,0-4-8.15c-1-1-2.32-1.54-3.46-.62a4.27,4.27,0,0,0-1.06,2.7c-.37,3.45,2.6,5.47,3.67,7.91ZM583.89,69.86l-1.13-1.66c-.25.37-.71.74-.71,1.11s.4.89.62,1.34ZM589,85.44c-2.31-.47-3.67.63-4.62,2.55C588,90.1,588.2,90,589,85.44ZM592.3,123c2.88.39,4.31-.81,4.86-3.06a2.25,2.25,0,0,0-.71-1.94,2.47,2.47,0,0,0-2.11-.14C592.48,118.71,592,120.35,592.3,123ZM578.85,63.91c.12-.34-.21-1.21-.44-1.24-1.33-.21-2.69-.25-5.73-.46,2.74,1.32,3.84,1.93,5,2.35C578,64.67,578.72,64.24,578.85,63.91Zm13.5,96.87a38.66,38.66,0,0,1,3.68,1.46,2.75,2.75,0,0,0,0-.4c-.13-1.7,1.46-3.54,2.32-5.43-.42-.69-.85-1.41-1.27-2.12A16,16,0,0,1,592.35,160.78Zm-76.52-30.46,1.2,0a10.24,10.24,0,0,1,5.46-2.41C520.29,128,518,128,515.83,130.32Zm76.51,36,0,0c2.51-.13,4.78,1.21,7.2,1.23.46-2.64-1.15-4.14-3.53-5.3C596,164.82,593.86,165,592.34,166.29ZM604.06,172l.56-.17c-.07-3.9-1-5.7-2.28-5a5.64,5.64,0,0,1-2.78.68,7.68,7.68,0,0,1-.41,1.43A13.93,13.93,0,0,0,604.06,172Zm.18,2.19a1.2,1.2,0,0,1,.2,0,3.43,3.43,0,0,1,1.7.41,17,17,0,0,0,2.19.19,12.48,12.48,0,0,0-4.27-2.76l-3.43,1A32.43,32.43,0,0,0,604.24,174.22Zm-11.1-48.45A3.6,3.6,0,0,0,591,127a10.15,10.15,0,0,0,1.57-.93A4.53,4.53,0,0,1,593.14,125.77Zm-15,25,1.32-.56a8.68,8.68,0,0,0-2-1.27,9.79,9.79,0,0,0-.08,1.33A5.49,5.49,0,0,0,578.16,150.76Zm25.4,33.75A7.9,7.9,0,0,0,605,183c-.44-.58-.88-1.14-1.33-1.66-.38.36-.76.73-1.11,1.09A2,2,0,0,0,603.56,184.51Zm-14.13,63.1c3.62,1.26,5.86,1.28,8.3,0C594.81,245,594.81,245,589.43,247.61ZM591,127c-1.73.85-3.68,1.59-4.76,4l3,.85c-.15-.76-.3-1.51-.45-2.29C589.56,128.88,590.24,127.85,591,127Zm3.87-.91c2.27,1.16,1.38,4.13,1,6.45a3.07,3.07,0,0,0,.3,2.22c2.94,3.13-1.54,6.4.28,9.49l-1.3,1.23a32.38,32.38,0,0,1-1.32,3.38l3.21,5.39a22.27,22.27,0,0,0,1.42-6.76,19,19,0,0,1,3.75-10.71c-1.36-2.33-3.77-4-3-6.94a2.8,2.8,0,0,0-.32-1.5,4.29,4.29,0,0,0-5.77-2.61A3.05,3.05,0,0,1,594.89,126.13Zm-8.43-12.22c-.78-.38-1.48-.81-2-1.11.06.77.09,1.53.11,2.3C585.15,114.74,585.76,114.33,586.46,113.91Zm6,78.25c1.18,1.26,2.13,2.15,2.94,3.15,2.74,3.44,6.3,3.45,9.93,2.14a52.25,52.25,0,0,0,6.58-3.46c-.52-2.11-2-2.24-3.66-2.12-2.84.21-5.79.9-7.75-1.92a3.87,3.87,0,0,1,0-2c-2.54.93-5,2.2-7.71,3.09C592.72,191.4,592.59,191.78,592.47,192.16ZM574.81,90.31l-.14.06.06,0Zm25.75,97.62a17.76,17.76,0,0,1,4.65-1.12c.35,0,.65-.63,1.14-1.14-.71-.63-1.92-.67-2.79-1.16C602.35,185.55,601,186.47,600.56,187.93Zm-77.07-60a8.34,8.34,0,0,1,1.65.27c0-.13-.09-.24-.15-.38A12.31,12.31,0,0,1,523.49,127.92Zm68.62,67.67-.15,0,.06.08Zm6.78,34.14c-.17.56-1.28,1.36-1.7,1.22-2.49-.84-5-.57-7.48-.36-.05.48.81,1.6,1.19,1.57,4.14-.32,7.41,1.83,11.28,4.29,1.06-1.64,1.66-2.47,2.16-3.35a3.67,3.67,0,0,0-.61-4.34c-1.09-1.34-2.89-1.94-4.2-1a8.4,8.4,0,0,1-1,.6A2,2,0,0,1,598.89,229.73Zm-15.5-14.81c.81,0,1.62-.1,2.43-.17a25.43,25.43,0,0,0-4.42-4.37l-1,1C580.21,213.63,580.94,215.05,583.39,214.92Zm.84-19.43c-.06.21.68,1,1,.92a4,4,0,0,0,1.38-.62,6.92,6.92,0,0,1-1.87-1.12A2.87,2.87,0,0,0,584.23,195.49Z"/></svg>