<svg width="676" height="135" viewBox="0 0 676 135" fill="none" xmlns="http://www.w3.org/2000/svg">
<g clip-path="url(#clip0_920_44731)">
<path d="M625.991 102.568V103.799H627.222H647.231H648.462V102.568V65.3737C648.462 59.692 649.879 55.2473 652.598 51.9205C655.316 48.6921 659.614 46.9645 665.767 46.9645H672.886H674.118V45.7331V28.0566V26.8252H672.886H666.626C661.101 26.8252 656.093 28.1453 651.633 30.8043C647.337 33.3654 644.163 37.1767 642.099 42.1694H639.01V28.9159V27.6845H637.779H617.156H615.925V28.9159V49.0475V50.2789H617.156H625.991V102.568Z" fill="white" stroke="#002474" stroke-width="2.46283"/>
<path d="M551.795 100.46L551.795 100.46L551.807 100.466C557.907 103.686 565.027 105.273 573.127 105.273C583.051 105.273 591.336 103.02 597.894 98.4211L597.903 98.4149C604.466 93.727 608.602 87.2752 610.299 79.1282L610.608 77.6456H609.094H588.717H587.844L587.555 78.4689C586.579 81.2481 584.956 83.252 582.697 84.5636C580.417 85.8875 577.221 86.6066 573.004 86.6066C567.741 86.6066 563.629 85.2362 560.547 82.6051C557.753 80.22 555.863 76.8056 554.951 72.2523H609.339H610.571V71.0208V64.1466C610.571 56.3773 609.067 49.6211 606.005 43.9232C602.942 38.2235 598.51 33.8348 592.733 30.7759C587.034 27.7146 580.238 26.2119 572.391 26.2119C564.372 26.2119 557.332 27.7996 551.313 31.0207C545.371 34.1622 540.777 38.7138 537.553 44.6518C534.325 50.5155 532.737 57.4795 532.737 65.4969C532.737 73.522 534.368 80.5667 537.677 86.5896L537.68 86.5961C540.988 92.5336 545.702 97.1592 551.795 100.46ZM583.648 48.0429L583.656 48.0495L583.664 48.0559C586.01 49.8799 587.602 52.5815 588.361 56.2865H555.579C556.668 52.688 558.482 49.9753 560.979 48.0675C563.908 45.8916 567.721 44.7555 572.513 44.7555C577.315 44.7555 580.982 45.8953 583.648 48.0429Z" fill="white" stroke="#002474" stroke-width="2.46283"/>
<path d="M484.373 102.568V103.799H485.605H505.614H506.845V102.568V65.3737C506.845 59.692 508.262 55.2473 510.981 51.9205C513.699 48.6921 517.997 46.9645 524.149 46.9645H531.269H532.501V45.7331V28.0566V26.8252H531.269H525.009C519.484 26.8252 514.476 28.1453 510.016 30.8043C505.72 33.3654 502.546 37.1767 500.481 42.1694H497.393V28.9159V27.6845H496.162H475.539H474.308V28.9159V49.0475V50.2789H475.539H484.373V102.568Z" fill="white" stroke="#002474" stroke-width="2.46283"/>
<path d="M409.15 100.46L409.159 100.464L409.168 100.469C415.348 103.686 422.547 105.273 430.727 105.273C438.906 105.273 446.066 103.687 452.167 100.467C458.347 97.2498 463.108 92.6626 466.42 86.7188L466.423 86.7124C469.731 80.6913 471.363 73.6881 471.363 65.7424C471.363 57.7179 469.732 50.7109 466.42 44.766C463.11 38.8257 458.393 34.2381 452.293 31.0189C446.191 27.7984 439.03 26.2119 430.85 26.2119C422.59 26.2119 415.35 27.7978 409.168 31.0157C402.989 34.2321 398.19 38.8163 394.796 44.7544L394.796 44.7544L394.79 44.766C391.479 50.7091 389.847 57.6745 389.847 65.6197C389.847 73.6492 391.521 80.6605 394.919 86.6077C398.308 92.5386 403.06 97.1606 409.15 100.46ZM443.924 51.4619L443.924 51.4619L443.933 51.4721C446.943 54.783 448.523 59.445 448.523 65.6197C448.523 71.7881 446.945 76.545 443.919 80.028C440.935 83.3821 436.604 85.1336 430.727 85.1336C424.768 85.1336 420.351 83.3808 417.285 80.0223C414.262 76.5398 412.687 71.7847 412.687 65.6197C412.687 59.4456 414.266 54.7839 417.276 51.4731C420.342 48.1077 424.762 46.3513 430.727 46.3513C436.607 46.3513 440.939 48.1046 443.924 51.4619Z" fill="white" stroke="#002474" stroke-width="2.46283"/>
<path d="M360.081 102.568V103.799H361.312H381.69H382.921V102.568V2.45508V1.22366H381.69H361.312H360.081V2.45508V102.568Z" fill="white" stroke="#002474" stroke-width="2.46283"/>
<path d="M273.272 132.029V133.261H274.503H294.88H296.112V132.029V95.7437C298.2 98.3935 300.792 100.542 303.877 102.183L303.886 102.187L303.895 102.192C307.953 104.264 312.778 105.273 318.326 105.273C325.627 105.273 331.92 103.677 337.145 100.422L337.151 100.418L337.157 100.414C342.361 97.087 346.319 92.4384 349.03 86.5087L349.033 86.5027C351.736 80.5039 353.069 73.574 353.069 65.7424C353.069 57.9066 351.694 51.0099 348.901 45.0858C346.101 39.1468 341.971 34.5004 336.521 31.1792C331.049 27.8446 324.39 26.2119 316.608 26.2119C310.233 26.2119 304.703 27.4285 300.067 29.9183L300.067 29.9183L300.059 29.9229C295.733 32.2899 292.222 35.5589 289.537 39.7148H286.292V28.9164V27.685H285.06H264.438H263.206V28.9164V49.048V50.2794H264.438H273.272V132.029ZM300.515 50.6778L300.516 50.6773C303.513 47.8297 307.563 46.3513 312.802 46.3513C318.772 46.3513 323.044 48.1089 325.855 51.4382C328.724 54.8353 330.229 59.5548 330.229 65.7424C330.229 71.9301 328.724 76.6496 325.855 80.0466C323.044 83.376 318.772 85.1336 312.802 85.1336C307.562 85.1336 303.511 83.6945 300.516 80.93C297.619 78.1007 296.112 74.1945 296.112 69.0568V62.4281C296.112 57.2823 297.623 53.422 300.515 50.6778Z" fill="white" stroke="#002474" stroke-width="2.46283"/>
<path d="M199.359 98.2814L199.366 98.2868L199.373 98.2921C205.952 102.991 214.784 105.273 225.745 105.273C236.36 105.273 244.687 103.121 250.549 98.639C256.528 94.1312 259.506 87.8205 259.506 79.8591C259.506 73.6973 257.612 68.6864 253.723 64.9744C249.884 61.3091 243.977 58.7469 236.177 57.1702L236.17 57.1688L236.163 57.1674L219.35 53.9767C219.349 53.9765 219.349 53.9764 219.348 53.9763C216.911 53.5044 215.271 52.7849 214.276 51.9228C213.304 51.0809 212.859 50.1051 212.859 48.9252C212.859 48.0079 213.061 47.2726 213.421 46.6741C213.78 46.0749 214.339 45.5428 215.161 45.0978L215.178 45.0886L215.195 45.0787C216.885 44.0929 219.493 43.5279 223.167 43.5279C227.387 43.5279 230.417 44.2894 232.418 45.6478C234.4 46.9923 235.859 49.1963 236.706 52.4288L236.947 53.3482H237.897H257.538H258.863L258.766 52.0263C258.169 43.9263 254.819 37.5307 248.7 32.9625C242.611 28.4174 234.466 26.2119 224.394 26.2119C214.253 26.2119 206.144 28.3712 200.212 32.8396C194.253 37.2458 191.247 43.2182 191.247 50.6438C191.247 56.4344 193.206 61.2407 197.16 64.9523C201.075 68.6282 206.85 71.1416 214.339 72.5979L214.34 72.598L230.788 75.7895C233.662 76.3483 235.471 77.1515 236.443 78.0587L236.474 78.0876L236.507 78.1142C237.493 78.9152 238.016 80.0176 238.016 81.5776C238.016 82.5523 237.798 83.3466 237.403 84.0034C237.006 84.6622 236.389 85.2505 235.49 85.7479C233.656 86.7632 230.745 87.3432 226.604 87.3432C221.561 87.3432 217.857 86.4986 215.351 84.9534C212.978 83.4407 211.474 81.1392 210.875 77.9153L210.687 76.9091H209.664H190.023H188.716L188.794 78.2143C189.306 86.737 192.825 93.4672 199.359 98.2814Z" fill="white" stroke="#002474" stroke-width="2.46283"/>
<path d="M3.98325 102.089L3.25846 103.8H5.11719H25.7398H26.5512L26.8713 103.055L36.9853 79.4952H77.8275L87.6994 103.045L88.016 103.8H88.835H110.194H112.044L111.33 102.094L69.7167 2.66326L69.4003 1.90726H68.5807H47.2216H46.4058L46.0877 2.6585L3.98325 102.089ZM71.1566 59.6014H44.523L57.8398 27.4649L71.1566 59.6014Z" fill="white" stroke="#002474" stroke-width="2.46283"/>
<path d="M125.878 100.453L125.888 100.458L125.897 100.463C131.914 103.683 138.871 105.273 146.732 105.273C157.088 105.273 165.607 102.681 172.178 97.3899C178.064 92.6503 181.911 86.2695 183.734 78.3162L184.08 76.8096H182.534H161.645H160.837L160.515 77.5502C159.41 80.0939 157.742 81.9615 155.507 83.2088C153.255 84.4659 150.352 85.1336 146.732 85.1336C141.636 85.1336 137.597 83.4493 134.498 80.1244C131.418 76.8184 129.796 72.083 129.796 65.7424C129.796 59.3981 131.379 54.6602 134.381 51.3549C137.475 48.0377 141.551 46.3513 146.732 46.3513C150.569 46.3513 153.631 47.1728 155.999 48.7272C158.369 50.2822 160.048 52.5026 161.031 55.4523L161.311 56.2943H162.199H182.699H184.187L183.909 54.8325C182.222 45.9761 178.109 38.9492 171.549 33.8372C164.987 28.7241 156.683 26.2119 146.732 26.2119C138.868 26.2119 131.909 27.844 125.891 31.1482C119.876 34.3686 115.205 38.955 111.899 44.8888C108.588 50.8318 106.956 57.7973 106.956 65.7424C106.956 73.6876 108.588 80.653 111.899 86.5961L111.899 86.5961L111.906 86.6077C115.29 92.5298 119.953 97.1511 125.878 100.453Z" fill="white" stroke="#002474" stroke-width="2.46283"/>
</g>
<defs>
<clipPath id="clip0_920_44731">
<rect width="676" height="135" fill="white"/>
</clipPath>
</defs>
</svg>
