<svg width="194" height="39" viewBox="0 0 194 39" fill="none" xmlns="http://www.w3.org/2000/svg">
<path d="M0.214142 30L12.4559 1.09085H18.666L30.765 30H24.5549L21.5926 22.9333H9.24379L6.21011 30H0.214142ZM11.1354 17.8653H19.9509L15.6324 7.44372H15.4539L11.1354 17.8653ZM42.2863 30.4283C40.0497 30.4283 38.0868 29.9762 36.3974 29.0721C34.7319 28.1441 33.4232 26.8474 32.4715 25.1818C31.5435 23.5163 31.0796 21.5533 31.0796 19.2929C31.0796 17.0325 31.5435 15.0696 32.4715 13.404C33.3994 11.7385 34.7081 10.4536 36.3974 9.54945C38.0868 8.62151 40.0497 8.15753 42.2863 8.15753C45.1178 8.15753 47.4495 8.87134 49.2816 10.2989C51.1137 11.7266 52.2677 13.6895 52.7436 16.1879H46.7833C46.474 15.2599 45.9386 14.5461 45.1772 14.0464C44.4158 13.5468 43.4522 13.2969 42.2863 13.2969C40.6922 13.2969 39.4073 13.8204 38.4318 14.8673C37.48 15.9142 37.0042 17.3894 37.0042 19.2929C37.0042 21.1964 37.4919 22.6716 38.4675 23.7185C39.443 24.7654 40.7159 25.2889 42.2863 25.2889C44.8084 25.2889 46.3431 24.2182 46.8904 22.0768H52.8507C52.4224 24.694 51.2922 26.7403 49.4601 28.2155C47.628 29.6907 45.2367 30.4283 42.2863 30.4283ZM64.1427 30.4283C61.002 30.4283 58.5156 29.774 56.6835 28.4653C54.8751 27.1329 53.8996 25.277 53.7569 22.8976H59.4673C59.6576 23.9208 60.1454 24.6821 60.9306 25.1818C61.7396 25.6815 62.8936 25.9313 64.3926 25.9313C66.8433 25.9313 68.0687 25.2532 68.0687 23.897C68.0687 23.3497 67.8783 22.9214 67.4976 22.6121C67.1407 22.279 66.534 22.0292 65.6774 21.8626L60.8949 20.9347C56.6121 20.1019 54.4707 18.0913 54.4707 14.903C54.4707 12.8568 55.2915 11.2269 56.9333 10.0134C58.575 8.77616 60.8473 8.15753 63.7501 8.15753C66.6292 8.15753 68.9133 8.78806 70.6027 10.0491C72.292 11.3102 73.22 13.0709 73.3865 15.3313H67.6761C67.4143 14.332 66.9504 13.6063 66.2841 13.1542C65.6179 12.7021 64.6543 12.4761 63.3932 12.4761C62.2987 12.4761 61.466 12.6426 60.8949 12.9757C60.3239 13.285 60.0383 13.7609 60.0383 14.4033C60.0383 14.8554 60.2168 15.2361 60.5737 15.5454C60.9306 15.8547 61.4779 16.0808 62.2155 16.2235L67.105 17.1515C69.3416 17.6036 70.9834 18.3293 72.0303 19.3286C73.0772 20.3279 73.6007 21.6842 73.6007 23.3973C73.6007 25.6101 72.7798 27.3351 71.138 28.5724C69.5201 29.8097 67.1883 30.4283 64.1427 30.4283ZM77.7859 38.5657V14.439H74.8593V8.58582H80.8553V12.0835H82.3543C83.1157 10.8462 84.1269 9.88256 85.3879 9.19255C86.6728 8.50254 88.2194 8.15753 90.0277 8.15753C92.2405 8.15753 94.1083 8.62151 95.6311 9.54945C97.1539 10.4774 98.3078 11.7741 99.093 13.4397C99.8782 15.1052 100.271 17.0563 100.271 19.2929C100.271 21.5295 99.8901 23.4925 99.1287 25.1818C98.3673 26.8474 97.2609 28.1441 95.8095 29.0721C94.3581 29.9762 92.5974 30.4283 90.5274 30.4283C88.957 30.4283 87.6126 30.1428 86.4943 29.5717C85.3761 28.9769 84.4957 28.1441 83.8533 27.0734H83.7105V38.5657H77.7859ZM88.9213 25.2889C90.7296 25.2889 92.0858 24.7535 92.99 23.6828C93.8941 22.6121 94.3462 21.1488 94.3462 19.2929C94.3462 17.437 93.8941 15.9737 92.99 14.903C92.0858 13.8323 90.7296 13.2969 88.9213 13.2969C87.3271 13.2969 86.0542 13.749 85.1024 14.6532C84.1745 15.5335 83.7105 16.7589 83.7105 18.3293V20.2565C83.7105 21.8269 84.1745 23.0642 85.1024 23.9683C86.0542 24.8487 87.3271 25.2889 88.9213 25.2889ZM103.207 30V0.0201421H109.131V30H103.207ZM123.569 30.4283C121.237 30.4283 119.203 29.9762 117.466 29.0721C115.753 28.1441 114.42 26.8474 113.468 25.1818C112.517 23.5163 112.041 21.5414 112.041 19.2572C112.041 16.9968 112.505 15.0339 113.433 13.3683C114.384 11.7028 115.729 10.4179 117.466 9.51376C119.203 8.60961 121.249 8.15753 123.604 8.15753C125.936 8.15753 127.959 8.60961 129.672 9.51376C131.385 10.4179 132.705 11.7028 133.633 13.3683C134.561 15.0339 135.025 17.0087 135.025 19.2929C135.025 21.5533 134.561 23.5282 133.633 25.2175C132.705 26.883 131.373 28.1679 129.636 29.0721C127.923 29.9762 125.901 30.4283 123.569 30.4283ZM123.569 25.2889C125.353 25.2889 126.721 24.7535 127.673 23.6828C128.625 22.5883 129.101 21.1131 129.101 19.2572C129.101 17.4013 128.625 15.9499 127.673 14.903C126.721 13.8323 125.353 13.2969 123.569 13.2969C121.76 13.2969 120.369 13.8323 119.393 14.903C118.441 15.9499 117.965 17.4013 117.965 19.2572C117.965 21.1131 118.441 22.5883 119.393 23.6828C120.369 24.7535 121.76 25.2889 123.569 25.2889ZM139.706 30V14.439H136.78V8.58582H142.776V12.7973H144.275C144.846 11.2983 145.75 10.18 146.987 9.44238C148.224 8.70478 149.616 8.33598 151.163 8.33598H152.983V13.4754H150.913C149.057 13.4754 147.689 13.9988 146.809 15.0458C145.952 16.0927 145.524 17.4727 145.524 19.1858V30H139.706ZM164.618 30.4283C162.31 30.4283 160.299 29.9762 158.586 29.0721C156.873 28.1441 155.552 26.8474 154.624 25.1818C153.696 23.4925 153.232 21.5057 153.232 19.2215C153.232 16.9373 153.685 14.9744 154.589 13.3326C155.493 11.6671 156.778 10.3941 158.443 9.51376C160.133 8.60961 162.119 8.15753 164.404 8.15753C166.64 8.15753 168.555 8.58582 170.15 9.44238C171.768 10.2989 173.005 11.5243 173.861 13.1185C174.718 14.7127 175.146 16.6161 175.146 18.8289V20.8276H158.907C159.145 22.4218 159.752 23.6352 160.727 24.468C161.703 25.3008 162.988 25.7172 164.582 25.7172C165.843 25.7172 166.842 25.503 167.58 25.0747C168.318 24.6465 168.841 23.9921 169.15 23.1118H175.075C174.599 25.396 173.445 27.1924 171.613 28.501C169.781 29.7859 167.449 30.4283 164.618 30.4283ZM159.05 16.9017H169.472C169.281 15.5454 168.758 14.5342 167.901 13.868C167.045 13.178 165.891 12.833 164.439 12.833C162.988 12.833 161.798 13.178 160.87 13.868C159.966 14.558 159.359 15.5692 159.05 16.9017ZM179.811 30V14.439H176.884V8.58582H182.88V12.7973H184.379C184.95 11.2983 185.854 10.18 187.091 9.44238C188.329 8.70478 189.721 8.33598 191.267 8.33598H193.087V13.4754H191.017C189.161 13.4754 187.793 13.9988 186.913 15.0458C186.056 16.0927 185.628 17.4727 185.628 19.1858V30H179.811Z" fill="white"/>
</svg>
