<svg width="294" height="90" viewBox="0 0 294 90" fill="none" xmlns="http://www.w3.org/2000/svg">
<path d="M11.5938 75H279.397" stroke="#FF7318" stroke-width="13" stroke-linecap="round"/>
<path d="M26.0341 17.7273C26.0341 19.2614 25.7571 20.5871 25.2031 21.7045C24.6491 22.822 23.8892 23.6837 22.9233 24.2898C21.9574 24.8958 20.8542 25.1989 19.6136 25.1989C18.3731 25.1989 17.2699 24.8958 16.304 24.2898C15.3381 23.6837 14.5781 22.822 14.0241 21.7045C13.4702 20.5871 13.1932 19.2614 13.1932 17.7273C13.1932 16.1932 13.4702 14.8674 14.0241 13.75C14.5781 12.6326 15.3381 11.7708 16.304 11.1648C17.2699 10.5587 18.3731 10.2557 19.6136 10.2557C20.8542 10.2557 21.9574 10.5587 22.9233 11.1648C23.8892 11.7708 24.6491 12.6326 25.2031 13.75C25.7571 14.8674 26.0341 16.1932 26.0341 17.7273ZM24.3295 17.7273C24.3295 16.4678 24.1188 15.4048 23.6974 14.5384C23.2808 13.6719 22.715 13.0161 22 12.571C21.2898 12.1259 20.4943 11.9034 19.6136 11.9034C18.733 11.9034 17.9351 12.1259 17.2202 12.571C16.5099 13.0161 15.9441 13.6719 15.5227 14.5384C15.1061 15.4048 14.8977 16.4678 14.8977 17.7273C14.8977 18.9867 15.1061 20.0497 15.5227 20.9162C15.9441 21.7827 16.5099 22.4384 17.2202 22.8835C17.9351 23.3286 18.733 23.5511 19.6136 23.5511C20.4943 23.5511 21.2898 23.3286 22 22.8835C22.715 22.4384 23.2808 21.7827 23.6974 20.9162C24.1188 20.0497 24.3295 18.9867 24.3295 17.7273ZM28.7685 29.0909V14.0909H30.3878V15.8239H30.5866C30.7098 15.6345 30.8802 15.393 31.098 15.0994C31.3205 14.8011 31.6378 14.536 32.0497 14.304C32.4664 14.0672 33.0298 13.9489 33.7401 13.9489C34.6586 13.9489 35.4683 14.1785 36.169 14.6378C36.8698 15.0971 37.4167 15.7481 37.8097 16.5909C38.2027 17.4337 38.3991 18.428 38.3991 19.5739C38.3991 20.7292 38.2027 21.7306 37.8097 22.5781C37.4167 23.4209 36.8722 24.0743 36.1761 24.5384C35.4801 24.9976 34.6776 25.2273 33.7685 25.2273C33.0677 25.2273 32.5066 25.1113 32.0852 24.8793C31.6638 24.6425 31.3395 24.375 31.1122 24.0767C30.8849 23.7737 30.7098 23.5227 30.5866 23.3239H30.4446V29.0909H28.7685ZM30.4162 19.5455C30.4162 20.3693 30.5369 21.0961 30.7784 21.7259C31.0199 22.3509 31.3726 22.8409 31.8366 23.196C32.3007 23.5464 32.8688 23.7216 33.5412 23.7216C34.242 23.7216 34.8267 23.5369 35.2955 23.1676C35.7689 22.7936 36.1241 22.2917 36.3608 21.6619C36.6023 21.0275 36.723 20.322 36.723 19.5455C36.723 18.7784 36.6046 18.0871 36.3679 17.4716C36.1359 16.8513 35.7831 16.3613 35.3097 16.0014C34.8409 15.6368 34.2514 15.4545 33.5412 15.4545C32.8594 15.4545 32.2865 15.6274 31.8224 15.973C31.3584 16.3139 31.008 16.7921 30.7713 17.4077C30.5346 18.0185 30.4162 18.7311 30.4162 19.5455ZM45.5298 25.2273C44.4787 25.2273 43.572 24.9953 42.8097 24.5312C42.0521 24.0625 41.4673 23.4091 41.0554 22.571C40.6482 21.7282 40.4446 20.7481 40.4446 19.6307C40.4446 18.5133 40.6482 17.5284 41.0554 16.6761C41.4673 15.8191 42.0402 15.1515 42.7741 14.6733C43.5128 14.1903 44.3745 13.9489 45.3594 13.9489C45.9276 13.9489 46.4886 14.0436 47.0426 14.233C47.5966 14.4223 48.1009 14.7301 48.5554 15.1562C49.0099 15.5777 49.3722 16.1364 49.642 16.8324C49.9119 17.5284 50.0469 18.3854 50.0469 19.4034V20.1136H41.6378V18.6648H48.3423C48.3423 18.0492 48.2192 17.5 47.973 17.017C47.7315 16.5341 47.3859 16.1529 46.9361 15.8736C46.491 15.5942 45.9654 15.4545 45.3594 15.4545C44.6918 15.4545 44.1141 15.6203 43.6264 15.9517C43.1435 16.2784 42.7718 16.7045 42.5114 17.2301C42.2509 17.7557 42.1207 18.3191 42.1207 18.9205V19.8864C42.1207 20.7102 42.2628 21.4086 42.5469 21.9815C42.8357 22.5497 43.2358 22.983 43.7472 23.2812C44.2585 23.5748 44.8527 23.7216 45.5298 23.7216C45.9702 23.7216 46.3679 23.66 46.723 23.5369C47.0829 23.4091 47.393 23.2197 47.6534 22.9688C47.9138 22.7131 48.1151 22.3958 48.2571 22.017L49.8764 22.4716C49.706 23.0208 49.4195 23.5038 49.017 23.9205C48.6146 24.3324 48.1174 24.6544 47.5256 24.8864C46.9337 25.1136 46.2685 25.2273 45.5298 25.2273ZM54.2727 18.4375V25H52.5966V14.0909H54.2159V15.7955H54.358C54.6136 15.2415 55.0019 14.7964 55.5227 14.4602C56.0436 14.1193 56.7159 13.9489 57.5398 13.9489C58.2784 13.9489 58.9247 14.1004 59.4787 14.4034C60.0327 14.7017 60.4635 15.1562 60.7713 15.767C61.0791 16.3731 61.233 17.1402 61.233 18.0682V25H59.5568V18.1818C59.5568 17.3248 59.3343 16.6572 58.8892 16.179C58.4441 15.696 57.8333 15.4545 57.0568 15.4545C56.5218 15.4545 56.0436 15.5705 55.6222 15.8026C55.2055 16.0346 54.8764 16.3731 54.6349 16.8182C54.3935 17.2633 54.2727 17.803 54.2727 18.4375ZM74.6651 14.0909V15.5114H69.0117V14.0909H74.6651ZM70.6594 11.4773H72.3356V21.875C72.3356 22.3485 72.4042 22.7036 72.5415 22.9403C72.6836 23.1723 72.8635 23.3286 73.0813 23.4091C73.3039 23.4848 73.5382 23.5227 73.7844 23.5227C73.9691 23.5227 74.1206 23.5133 74.239 23.4943C74.3574 23.4706 74.4521 23.4517 74.5231 23.4375L74.864 24.9432C74.7504 24.9858 74.5917 25.0284 74.3881 25.071C74.1845 25.1184 73.9265 25.142 73.614 25.142C73.1405 25.142 72.6765 25.0402 72.2219 24.8366C71.7721 24.633 71.3981 24.3229 71.0998 23.9062C70.8062 23.4896 70.6594 22.964 70.6594 22.3295V11.4773ZM79.0969 18.4375V25H77.4208V10.4545H79.0969V15.7955H79.239C79.4947 15.232 79.8782 14.7846 80.3896 14.4531C80.9057 14.117 81.5922 13.9489 82.4492 13.9489C83.1926 13.9489 83.8436 14.098 84.4023 14.3963C84.9611 14.6899 85.3943 15.142 85.7021 15.7528C86.0146 16.3589 86.1708 17.1307 86.1708 18.0682V25H84.4947V18.1818C84.4947 17.3153 84.2698 16.6454 83.82 16.1719C83.3749 15.6937 82.757 15.4545 81.9663 15.4545C81.417 15.4545 80.9246 15.5705 80.489 15.8026C80.0581 16.0346 79.7172 16.3731 79.4663 16.8182C79.2201 17.2633 79.0969 17.803 79.0969 18.4375ZM93.8111 25.2273C92.7599 25.2273 91.8532 24.9953 91.0909 24.5312C90.3333 24.0625 89.7486 23.4091 89.3366 22.571C88.9295 21.7282 88.7259 20.7481 88.7259 19.6307C88.7259 18.5133 88.9295 17.5284 89.3366 16.6761C89.7486 15.8191 90.3215 15.1515 91.0554 14.6733C91.794 14.1903 92.6558 13.9489 93.6406 13.9489C94.2088 13.9489 94.7699 14.0436 95.3239 14.233C95.8778 14.4223 96.3821 14.7301 96.8366 15.1562C97.2912 15.5777 97.6534 16.1364 97.9233 16.8324C98.1932 17.5284 98.3281 18.3854 98.3281 19.4034V20.1136H89.919V18.6648H96.6236C96.6236 18.0492 96.5005 17.5 96.2543 17.017C96.0128 16.5341 95.6671 16.1529 95.2173 15.8736C94.7723 15.5942 94.2467 15.4545 93.6406 15.4545C92.973 15.4545 92.3954 15.6203 91.9077 15.9517C91.4247 16.2784 91.053 16.7045 90.7926 17.2301C90.5322 17.7557 90.402 18.3191 90.402 18.9205V19.8864C90.402 20.7102 90.544 21.4086 90.8281 21.9815C91.117 22.5497 91.517 22.983 92.0284 23.2812C92.5398 23.5748 93.134 23.7216 93.8111 23.7216C94.2514 23.7216 94.6491 23.66 95.0043 23.5369C95.3641 23.4091 95.6742 23.2197 95.9347 22.9688C96.1951 22.7131 96.3963 22.3958 96.5384 22.017L98.1577 22.4716C97.9872 23.0208 97.7008 23.5038 97.2983 23.9205C96.8958 24.3324 96.3987 24.6544 95.8068 24.8864C95.215 25.1136 94.5497 25.2273 93.8111 25.2273Z" fill="#001D54"/>
<path d="M266.5 11.5V13.5H275.09L265.5 23.09L266.91 24.5L276.5 14.91V23.5H278.5V11.5H266.5Z" fill="#001D54"/>
<mask id="path-4-outside-1_916_35952" maskUnits="userSpaceOnUse" x="10" y="31" width="274" height="56" fill="black">
<rect fill="white" x="10" y="31" width="274" height="56"/>
<path d="M12.3 74L29.45 33.5H38.15L55.1 74H46.4L42.25 64.1H24.95L20.7 74H12.3ZM27.6 57H39.95L33.9 42.4H33.65L27.6 57ZM71.2406 74.6C68.1073 74.6 65.3573 73.9667 62.9906 72.7C60.6573 71.4 58.824 69.5833 57.4906 67.25C56.1906 64.9167 55.5406 62.1667 55.5406 59C55.5406 55.8333 56.1906 53.0833 57.4906 50.75C58.7906 48.4167 60.624 46.6167 62.9906 45.35C65.3573 44.05 68.1073 43.4 71.2406 43.4C75.2073 43.4 78.474 44.4 81.0406 46.4C83.6073 48.4 85.224 51.15 85.8906 54.65H77.5406C77.1073 53.35 76.3573 52.35 75.2906 51.65C74.224 50.95 72.874 50.6 71.2406 50.6C69.0073 50.6 67.2073 51.3333 65.8406 52.8C64.5073 54.2667 63.8406 56.3333 63.8406 59C63.8406 61.6667 64.524 63.7333 65.8906 65.2C67.2573 66.6667 69.0406 67.4 71.2406 67.4C74.774 67.4 76.924 65.9 77.6906 62.9H86.0406C85.4406 66.5667 83.8573 69.4333 81.2906 71.5C78.724 73.5667 75.374 74.6 71.2406 74.6ZM101.86 74.6C97.4602 74.6 93.9768 73.6833 91.4102 71.85C88.8768 69.9833 87.5102 67.3833 87.3102 64.05H95.3102C95.5768 65.4833 96.2602 66.55 97.3602 67.25C98.4935 67.95 100.11 68.3 102.21 68.3C105.643 68.3 107.36 67.35 107.36 65.45C107.36 64.6833 107.093 64.0833 106.56 63.65C106.06 63.1833 105.21 62.8333 104.01 62.6L97.3102 61.3C91.3102 60.1333 88.3102 57.3167 88.3102 52.85C88.3102 49.9833 89.4602 47.7 91.7602 46C94.0602 44.2667 97.2435 43.4 101.31 43.4C105.343 43.4 108.543 44.2833 110.91 46.05C113.277 47.8167 114.577 50.2833 114.81 53.45H106.81C106.443 52.05 105.793 51.0333 104.86 50.4C103.927 49.7667 102.577 49.45 100.81 49.45C99.2768 49.45 98.1102 49.6833 97.3102 50.15C96.5102 50.5833 96.1102 51.25 96.1102 52.15C96.1102 52.7833 96.3602 53.3167 96.8602 53.75C97.3602 54.1833 98.1268 54.5 99.1602 54.7L106.01 56C109.143 56.6333 111.443 57.65 112.91 59.05C114.377 60.45 115.11 62.35 115.11 64.75C115.11 67.85 113.96 70.2667 111.66 72C109.393 73.7333 106.127 74.6 101.86 74.6ZM120.973 86V52.2H116.873V44H125.273V48.9H127.373C128.44 47.1667 129.857 45.8167 131.623 44.85C133.423 43.8833 135.59 43.4 138.123 43.4C141.223 43.4 143.84 44.05 145.973 45.35C148.107 46.65 149.723 48.4667 150.823 50.8C151.923 53.1333 152.473 55.8667 152.473 59C152.473 62.1333 151.94 64.8833 150.873 67.25C149.807 69.5833 148.257 71.4 146.223 72.7C144.19 73.9667 141.723 74.6 138.823 74.6C136.623 74.6 134.74 74.2 133.173 73.4C131.607 72.5667 130.373 71.4 129.473 69.9H129.273V86H120.973ZM136.573 67.4C139.107 67.4 141.007 66.65 142.273 65.15C143.54 63.65 144.173 61.6 144.173 59C144.173 56.4 143.54 54.35 142.273 52.85C141.007 51.35 139.107 50.6 136.573 50.6C134.34 50.6 132.557 51.2333 131.223 52.5C129.923 53.7333 129.273 55.45 129.273 57.65V60.35C129.273 62.55 129.923 64.2833 131.223 65.55C132.557 66.7833 134.34 67.4 136.573 67.4ZM156.587 74V32H164.887V74H156.587ZM185.113 74.6C181.846 74.6 178.996 73.9667 176.563 72.7C174.163 71.4 172.296 69.5833 170.963 67.25C169.629 64.9167 168.962 62.15 168.962 58.95C168.962 55.7833 169.613 53.0333 170.913 50.7C172.246 48.3667 174.129 46.5667 176.563 45.3C178.996 44.0333 181.863 43.4 185.163 43.4C188.429 43.4 191.262 44.0333 193.662 45.3C196.062 46.5667 197.913 48.3667 199.213 50.7C200.513 53.0333 201.162 55.8 201.162 59C201.162 62.1667 200.513 64.9333 199.213 67.3C197.913 69.6333 196.046 71.4333 193.612 72.7C191.212 73.9667 188.379 74.6 185.113 74.6ZM185.113 67.4C187.613 67.4 189.529 66.65 190.863 65.15C192.196 63.6167 192.863 61.55 192.863 58.95C192.863 56.35 192.196 54.3167 190.863 52.85C189.529 51.35 187.613 50.6 185.113 50.6C182.579 50.6 180.629 51.35 179.263 52.85C177.929 54.3167 177.263 56.35 177.263 58.95C177.263 61.55 177.929 63.6167 179.263 65.15C180.629 66.65 182.579 67.4 185.113 67.4ZM207.72 74V52.2H203.62V44H212.02V49.9H214.12C214.92 47.8 216.187 46.2333 217.92 45.2C219.654 44.1667 221.604 43.65 223.77 43.65H226.32V50.85H223.42C220.82 50.85 218.904 51.5833 217.67 53.05C216.47 54.5167 215.87 56.45 215.87 58.85V74H207.72ZM242.62 74.6C239.386 74.6 236.57 73.9667 234.17 72.7C231.77 71.4 229.92 69.5833 228.62 67.25C227.32 64.8833 226.67 62.1 226.67 58.9C226.67 55.7 227.303 52.95 228.57 50.65C229.836 48.3167 231.636 46.5333 233.97 45.3C236.336 44.0333 239.12 43.4 242.32 43.4C245.453 43.4 248.136 44 250.37 45.2C252.636 46.4 254.37 48.1167 255.57 50.35C256.77 52.5833 257.37 55.25 257.37 58.35V61.15H234.62C234.953 63.3833 235.803 65.0833 237.17 66.25C238.536 67.4167 240.336 68 242.57 68C244.336 68 245.736 67.7 246.77 67.1C247.803 66.5 248.536 65.5833 248.97 64.35H257.27C256.603 67.55 254.986 70.0667 252.42 71.9C249.853 73.7 246.586 74.6 242.62 74.6ZM234.82 55.65H249.42C249.153 53.75 248.42 52.3333 247.22 51.4C246.02 50.4333 244.403 49.95 242.37 49.95C240.336 49.95 238.67 50.4333 237.37 51.4C236.103 52.3667 235.253 53.7833 234.82 55.65ZM263.904 74V52.2H259.804V44H268.204V49.9H270.304C271.104 47.8 272.371 46.2333 274.104 45.2C275.837 44.1667 277.787 43.65 279.954 43.65H282.504V50.85H279.604C277.004 50.85 275.087 51.5833 273.854 53.05C272.654 54.5167 272.054 56.45 272.054 58.85V74H263.904Z"/>
</mask>
<path d="M12.3 74L29.45 33.5H38.15L55.1 74H46.4L42.25 64.1H24.95L20.7 74H12.3ZM27.6 57H39.95L33.9 42.4H33.65L27.6 57ZM71.2406 74.6C68.1073 74.6 65.3573 73.9667 62.9906 72.7C60.6573 71.4 58.824 69.5833 57.4906 67.25C56.1906 64.9167 55.5406 62.1667 55.5406 59C55.5406 55.8333 56.1906 53.0833 57.4906 50.75C58.7906 48.4167 60.624 46.6167 62.9906 45.35C65.3573 44.05 68.1073 43.4 71.2406 43.4C75.2073 43.4 78.474 44.4 81.0406 46.4C83.6073 48.4 85.224 51.15 85.8906 54.65H77.5406C77.1073 53.35 76.3573 52.35 75.2906 51.65C74.224 50.95 72.874 50.6 71.2406 50.6C69.0073 50.6 67.2073 51.3333 65.8406 52.8C64.5073 54.2667 63.8406 56.3333 63.8406 59C63.8406 61.6667 64.524 63.7333 65.8906 65.2C67.2573 66.6667 69.0406 67.4 71.2406 67.4C74.774 67.4 76.924 65.9 77.6906 62.9H86.0406C85.4406 66.5667 83.8573 69.4333 81.2906 71.5C78.724 73.5667 75.374 74.6 71.2406 74.6ZM101.86 74.6C97.4602 74.6 93.9768 73.6833 91.4102 71.85C88.8768 69.9833 87.5102 67.3833 87.3102 64.05H95.3102C95.5768 65.4833 96.2602 66.55 97.3602 67.25C98.4935 67.95 100.11 68.3 102.21 68.3C105.643 68.3 107.36 67.35 107.36 65.45C107.36 64.6833 107.093 64.0833 106.56 63.65C106.06 63.1833 105.21 62.8333 104.01 62.6L97.3102 61.3C91.3102 60.1333 88.3102 57.3167 88.3102 52.85C88.3102 49.9833 89.4602 47.7 91.7602 46C94.0602 44.2667 97.2435 43.4 101.31 43.4C105.343 43.4 108.543 44.2833 110.91 46.05C113.277 47.8167 114.577 50.2833 114.81 53.45H106.81C106.443 52.05 105.793 51.0333 104.86 50.4C103.927 49.7667 102.577 49.45 100.81 49.45C99.2768 49.45 98.1102 49.6833 97.3102 50.15C96.5102 50.5833 96.1102 51.25 96.1102 52.15C96.1102 52.7833 96.3602 53.3167 96.8602 53.75C97.3602 54.1833 98.1268 54.5 99.1602 54.7L106.01 56C109.143 56.6333 111.443 57.65 112.91 59.05C114.377 60.45 115.11 62.35 115.11 64.75C115.11 67.85 113.96 70.2667 111.66 72C109.393 73.7333 106.127 74.6 101.86 74.6ZM120.973 86V52.2H116.873V44H125.273V48.9H127.373C128.44 47.1667 129.857 45.8167 131.623 44.85C133.423 43.8833 135.59 43.4 138.123 43.4C141.223 43.4 143.84 44.05 145.973 45.35C148.107 46.65 149.723 48.4667 150.823 50.8C151.923 53.1333 152.473 55.8667 152.473 59C152.473 62.1333 151.94 64.8833 150.873 67.25C149.807 69.5833 148.257 71.4 146.223 72.7C144.19 73.9667 141.723 74.6 138.823 74.6C136.623 74.6 134.74 74.2 133.173 73.4C131.607 72.5667 130.373 71.4 129.473 69.9H129.273V86H120.973ZM136.573 67.4C139.107 67.4 141.007 66.65 142.273 65.15C143.54 63.65 144.173 61.6 144.173 59C144.173 56.4 143.54 54.35 142.273 52.85C141.007 51.35 139.107 50.6 136.573 50.6C134.34 50.6 132.557 51.2333 131.223 52.5C129.923 53.7333 129.273 55.45 129.273 57.65V60.35C129.273 62.55 129.923 64.2833 131.223 65.55C132.557 66.7833 134.34 67.4 136.573 67.4ZM156.587 74V32H164.887V74H156.587ZM185.113 74.6C181.846 74.6 178.996 73.9667 176.563 72.7C174.163 71.4 172.296 69.5833 170.963 67.25C169.629 64.9167 168.962 62.15 168.962 58.95C168.962 55.7833 169.613 53.0333 170.913 50.7C172.246 48.3667 174.129 46.5667 176.563 45.3C178.996 44.0333 181.863 43.4 185.163 43.4C188.429 43.4 191.262 44.0333 193.662 45.3C196.062 46.5667 197.913 48.3667 199.213 50.7C200.513 53.0333 201.162 55.8 201.162 59C201.162 62.1667 200.513 64.9333 199.213 67.3C197.913 69.6333 196.046 71.4333 193.612 72.7C191.212 73.9667 188.379 74.6 185.113 74.6ZM185.113 67.4C187.613 67.4 189.529 66.65 190.863 65.15C192.196 63.6167 192.863 61.55 192.863 58.95C192.863 56.35 192.196 54.3167 190.863 52.85C189.529 51.35 187.613 50.6 185.113 50.6C182.579 50.6 180.629 51.35 179.263 52.85C177.929 54.3167 177.263 56.35 177.263 58.95C177.263 61.55 177.929 63.6167 179.263 65.15C180.629 66.65 182.579 67.4 185.113 67.4ZM207.72 74V52.2H203.62V44H212.02V49.9H214.12C214.92 47.8 216.187 46.2333 217.92 45.2C219.654 44.1667 221.604 43.65 223.77 43.65H226.32V50.85H223.42C220.82 50.85 218.904 51.5833 217.67 53.05C216.47 54.5167 215.87 56.45 215.87 58.85V74H207.72ZM242.62 74.6C239.386 74.6 236.57 73.9667 234.17 72.7C231.77 71.4 229.92 69.5833 228.62 67.25C227.32 64.8833 226.67 62.1 226.67 58.9C226.67 55.7 227.303 52.95 228.57 50.65C229.836 48.3167 231.636 46.5333 233.97 45.3C236.336 44.0333 239.12 43.4 242.32 43.4C245.453 43.4 248.136 44 250.37 45.2C252.636 46.4 254.37 48.1167 255.57 50.35C256.77 52.5833 257.37 55.25 257.37 58.35V61.15H234.62C234.953 63.3833 235.803 65.0833 237.17 66.25C238.536 67.4167 240.336 68 242.57 68C244.336 68 245.736 67.7 246.77 67.1C247.803 66.5 248.536 65.5833 248.97 64.35H257.27C256.603 67.55 254.986 70.0667 252.42 71.9C249.853 73.7 246.586 74.6 242.62 74.6ZM234.82 55.65H249.42C249.153 53.75 248.42 52.3333 247.22 51.4C246.02 50.4333 244.403 49.95 242.37 49.95C240.336 49.95 238.67 50.4333 237.37 51.4C236.103 52.3667 235.253 53.7833 234.82 55.65ZM263.904 74V52.2H259.804V44H268.204V49.9H270.304C271.104 47.8 272.371 46.2333 274.104 45.2C275.837 44.1667 277.787 43.65 279.954 43.65H282.504V50.85H279.604C277.004 50.85 275.087 51.5833 273.854 53.05C272.654 54.5167 272.054 56.45 272.054 58.85V74H263.904Z" fill="#001D54"/>
<path d="M12.3 74L11.3792 73.6101L10.7906 75H12.3V74ZM29.45 33.5V32.5H28.7875L28.5292 33.1101L29.45 33.5ZM38.15 33.5L39.0725 33.1139L38.8155 32.5H38.15V33.5ZM55.1 74V75H56.6026L56.0225 73.6139L55.1 74ZM46.4 74L45.4778 74.3866L45.7349 75H46.4V74ZM42.25 64.1L43.1722 63.7134L42.9151 63.1H42.25V64.1ZM24.95 64.1V63.1H24.291L24.0311 63.7055L24.95 64.1ZM20.7 74V75H21.359L21.6189 74.3945L20.7 74ZM27.6 57L26.6762 56.6172L26.1032 58H27.6V57ZM39.95 57V58H41.4468L40.8738 56.6172L39.95 57ZM33.9 42.4L34.8238 42.0172L34.5681 41.4H33.9V42.4ZM33.65 42.4V41.4H32.9819L32.7262 42.0172L33.65 42.4ZM13.2208 74.3899L30.3708 33.8899L28.5292 33.1101L11.3792 73.6101L13.2208 74.3899ZM29.45 34.5H38.15V32.5H29.45V34.5ZM37.2275 33.8861L54.1775 74.3861L56.0225 73.6139L39.0725 33.1139L37.2275 33.8861ZM55.1 73H46.4V75H55.1V73ZM47.3222 73.6134L43.1722 63.7134L41.3278 64.4866L45.4778 74.3866L47.3222 73.6134ZM42.25 63.1H24.95V65.1H42.25V63.1ZM24.0311 63.7055L19.7811 73.6055L21.6189 74.3945L25.8689 64.4945L24.0311 63.7055ZM20.7 73H12.3V75H20.7V73ZM27.6 58H39.95V56H27.6V58ZM40.8738 56.6172L34.8238 42.0172L32.9762 42.7828L39.0262 57.3828L40.8738 56.6172ZM33.9 41.4H33.65V43.4H33.9V41.4ZM32.7262 42.0172L26.6762 56.6172L28.5238 57.3828L34.5738 42.7828L32.7262 42.0172ZM62.9906 72.7L62.5039 73.5736L62.5113 73.5777L62.5187 73.5817L62.9906 72.7ZM57.4906 67.25L56.617 67.7367L56.6224 67.7461L57.4906 67.25ZM57.4906 50.75L58.3642 51.2367L58.3642 51.2367L57.4906 50.75ZM62.9906 45.35L63.4625 46.2317L63.4721 46.2265L62.9906 45.35ZM81.0406 46.4L81.6553 45.6112L81.6553 45.6112L81.0406 46.4ZM85.8906 54.65V55.65H87.0991L86.873 54.4629L85.8906 54.65ZM77.5406 54.65L76.5919 54.9662L76.8199 55.65H77.5406V54.65ZM75.2906 51.65L74.742 52.486L74.742 52.486L75.2906 51.65ZM65.8406 52.8L65.109 52.1182L65.1007 52.1273L65.8406 52.8ZM65.8906 65.2L66.6222 64.5183L66.6222 64.5183L65.8906 65.2ZM77.6906 62.9V61.9H76.914L76.7218 62.6524L77.6906 62.9ZM86.0406 62.9L87.0275 63.0615L87.2176 61.9H86.0406V62.9ZM81.2906 71.5L80.6635 70.7211L80.6635 70.7211L81.2906 71.5ZM71.2406 73.6C68.2443 73.6 65.6615 72.9952 63.4625 71.8183L62.5187 73.5817C65.0531 74.9381 67.9703 75.6 71.2406 75.6V73.6ZM63.4773 71.8264C61.3042 70.6157 59.6024 68.93 58.3589 66.7539L56.6224 67.7461C58.0455 70.2367 60.0104 72.1843 62.5039 73.5736L63.4773 71.8264ZM58.3642 66.7633C57.1613 64.6042 56.5406 62.028 56.5406 59H54.5406C54.5406 62.3054 55.22 65.2291 56.6171 67.7367L58.3642 66.7633ZM56.5406 59C56.5406 55.972 57.1613 53.3958 58.3642 51.2367L56.6171 50.2633C55.22 52.7709 54.5406 55.6946 54.5406 59H56.5406ZM58.3642 51.2367C59.5704 49.0717 61.2639 47.4084 63.4625 46.2317L62.5187 44.4683C59.984 45.825 58.0108 47.7617 56.6171 50.2633L58.3642 51.2367ZM63.4721 46.2265C65.6691 45.0197 68.2484 44.4 71.2406 44.4V42.4C67.9662 42.4 65.0455 43.0803 62.5092 44.4735L63.4721 46.2265ZM71.2406 44.4C75.0348 44.4 78.0708 45.3536 80.426 47.1888L81.6553 45.6112C78.8771 43.4464 75.3798 42.4 71.2406 42.4V44.4ZM80.426 47.1888C82.7823 49.0249 84.2824 51.5512 84.9083 54.8371L86.873 54.4629C86.1655 50.7488 84.4323 47.7751 81.6553 45.6112L80.426 47.1888ZM85.8906 53.65H77.5406V55.65H85.8906V53.65ZM78.4893 54.3338C77.9905 52.8373 77.1083 51.6467 75.8393 50.814L74.742 52.486C75.6063 53.0533 76.2241 53.8627 76.5919 54.9662L78.4893 54.3338ZM75.8393 50.814C74.5696 49.9807 73.0147 49.6 71.2406 49.6V51.6C72.7332 51.6 73.8784 51.9193 74.742 52.486L75.8393 50.814ZM71.2406 49.6C68.7649 49.6 66.6875 50.4243 65.109 52.1183L66.5722 53.4817C67.7271 52.2423 69.2497 51.6 71.2406 51.6V49.6ZM65.1007 52.1273C63.5494 53.8338 62.8406 56.1718 62.8406 59H64.8406C64.8406 56.4949 65.4652 54.6996 66.5806 53.4727L65.1007 52.1273ZM62.8406 59C62.8406 61.8342 63.5693 64.1757 65.159 65.8817L66.6222 64.5183C65.4786 63.291 64.8406 61.4991 64.8406 59H62.8406ZM65.159 65.8817C66.7344 67.5724 68.7932 68.4 71.2406 68.4V66.4C69.288 66.4 67.7802 65.761 66.6222 64.5183L65.159 65.8817ZM71.2406 68.4C73.1421 68.4 74.7831 67.9967 76.0753 67.0951C77.3814 66.1839 78.2281 64.8355 78.6595 63.1476L76.7218 62.6524C76.3865 63.9645 75.7749 64.8661 74.9309 65.4549C74.0731 66.0533 72.8725 66.4 71.2406 66.4V68.4ZM77.6906 63.9H86.0406V61.9H77.6906V63.9ZM85.0538 62.7385C84.4881 66.1954 83.0136 68.8288 80.6635 70.7211L81.9178 72.2789C84.701 70.0378 86.3932 66.938 87.0275 63.0615L85.0538 62.7385ZM80.6635 70.7211C78.3158 72.6114 75.2052 73.6 71.2406 73.6V75.6C75.5428 75.6 79.1321 74.5219 81.9178 72.2789L80.6635 70.7211ZM91.4102 71.85L90.817 72.6551L90.8229 72.6594L90.8289 72.6637L91.4102 71.85ZM87.3102 64.05V63.05H86.2484L86.312 64.1099L87.3102 64.05ZM95.3102 64.05L96.2933 63.8671L96.1413 63.05H95.3102V64.05ZM97.3602 67.25L96.8232 68.0937L96.8347 68.1008L97.3602 67.25ZM106.56 63.65L105.878 64.3811L105.903 64.4045L105.93 64.4261L106.56 63.65ZM104.01 62.6L104.201 61.6184L104.201 61.6183L104.01 62.6ZM97.3102 61.3L97.1193 62.2816L97.1197 62.2817L97.3102 61.3ZM91.7602 46L92.3546 46.8042L92.362 46.7986L91.7602 46ZM114.81 53.45V54.45H115.887L115.807 53.3765L114.81 53.45ZM106.81 53.45L105.843 53.7034L106.038 54.45H106.81V53.45ZM104.86 50.4L105.422 49.5725L105.422 49.5725L104.86 50.4ZM97.3102 50.15L97.7864 51.0293L97.8004 51.0218L97.814 51.0138L97.3102 50.15ZM96.8602 53.75L97.5151 52.9943L97.5151 52.9943L96.8602 53.75ZM99.1602 54.7L98.9701 55.6818L98.9737 55.6825L99.1602 54.7ZM106.01 56L106.208 55.0198L106.197 55.0175L106.01 56ZM111.66 72L111.058 71.2014L111.053 71.2056L111.66 72ZM101.86 73.6C97.5886 73.6 94.3333 72.709 91.9914 71.0363L90.8289 72.6637C93.6204 74.6576 97.3317 75.6 101.86 75.6V73.6ZM92.0034 71.0449C89.7251 69.3662 88.4918 67.048 88.3084 63.9901L86.312 64.1099C86.5285 67.7187 88.0285 70.6004 90.817 72.6551L92.0034 71.0449ZM87.3102 65.05H95.3102V63.05H87.3102V65.05ZM94.327 64.2329C94.6378 65.9032 95.4604 67.2264 96.8233 68.0937L97.897 66.4063C97.0599 65.8736 96.5159 65.0635 96.2933 63.8671L94.327 64.2329ZM96.8347 68.1008C98.1923 68.9394 100.022 69.3 102.21 69.3V67.3C100.198 67.3 98.7947 66.9606 97.8856 66.3992L96.8347 68.1008ZM102.21 69.3C103.986 69.3 105.477 69.0599 106.557 68.4625C107.112 68.1554 107.575 67.7443 107.895 67.2128C108.216 66.6797 108.36 66.0805 108.36 65.45H106.36C106.36 65.7695 106.29 66.0015 106.182 66.1809C106.073 66.3619 105.892 66.5446 105.588 66.7125C104.951 67.0651 103.867 67.3 102.21 67.3V69.3ZM108.36 65.45C108.36 64.4217 107.987 63.5207 107.191 62.8739L105.93 64.4261C106.2 64.646 106.36 64.945 106.36 65.45H108.36ZM107.242 62.9189C106.535 62.2586 105.46 61.8631 104.201 61.6184L103.819 63.5816C104.961 63.8036 105.585 64.108 105.878 64.3811L107.242 62.9189ZM104.201 61.6183L97.5006 60.3183L97.1197 62.2817L103.82 63.5817L104.201 61.6183ZM97.501 60.3184C94.602 59.7547 92.5558 58.8145 91.2446 57.5835C89.9644 56.3814 89.3102 54.8335 89.3102 52.85H87.3102C87.3102 55.3332 88.156 57.4269 89.8757 59.0415C91.5645 60.6271 94.0184 61.6787 97.1193 62.2816L97.501 60.3184ZM89.3102 52.85C89.3102 50.2997 90.3103 48.3151 92.3545 46.8042L91.1658 45.1958C88.61 47.0849 87.3102 49.667 87.3102 52.85H89.3102ZM92.362 46.7986C94.43 45.2401 97.3736 44.4 101.31 44.4V42.4C97.1134 42.4 93.6903 43.2932 91.1583 45.2014L92.362 46.7986ZM101.31 44.4C105.205 44.4 108.171 45.2534 110.312 46.8514L111.508 45.2486C108.916 43.3133 105.482 42.4 101.31 42.4V44.4ZM110.312 46.8514C112.427 48.4305 113.599 50.6212 113.813 53.5235L115.807 53.3765C115.555 49.9454 114.126 47.2029 111.508 45.2486L110.312 46.8514ZM114.81 52.45H106.81V54.45H114.81V52.45ZM107.778 53.1966C107.367 51.6305 106.607 50.3767 105.422 49.5725L104.299 51.2275C104.98 51.69 105.52 52.4695 105.843 53.7034L107.778 53.1966ZM105.422 49.5725C104.253 48.7796 102.672 48.45 100.81 48.45V50.45C102.481 50.45 103.6 50.7537 104.299 51.2275L105.422 49.5725ZM100.81 48.45C99.2031 48.45 97.8289 48.6897 96.8063 49.2862L97.814 51.0138C98.3914 50.677 99.3506 50.45 100.81 50.45V48.45ZM96.8339 49.2707C96.3035 49.558 95.8594 49.9492 95.5527 50.4605C95.2455 50.9724 95.1102 51.5478 95.1102 52.15H97.1102C97.1102 51.8522 97.1748 51.6443 97.2676 51.4895C97.3609 51.3341 97.5168 51.1754 97.7864 51.0293L96.8339 49.2707ZM95.1102 52.15C95.1102 53.0878 95.4972 53.8921 96.2052 54.5057L97.5151 52.9943C97.2231 52.7412 97.1102 52.4788 97.1102 52.15H95.1102ZM96.2052 54.5057C96.894 55.1026 97.8566 55.4663 98.9701 55.6818L99.3502 53.7182C98.397 53.5337 97.8263 53.2641 97.5151 52.9943L96.2052 54.5057ZM98.9737 55.6825L105.824 56.9825L106.197 55.0175L99.3466 53.7175L98.9737 55.6825ZM105.812 56.9802C108.858 57.5958 110.947 58.5587 112.22 59.7734L113.601 58.3266C111.94 56.7413 109.429 55.6708 106.208 55.0198L105.812 56.9802ZM112.22 59.7734C113.453 60.9502 114.11 62.5689 114.11 64.75H116.11C116.11 62.1311 115.301 59.9498 113.601 58.3266L112.22 59.7734ZM114.11 64.75C114.11 67.5639 113.086 69.6731 111.058 71.2014L112.262 72.7986C114.834 70.8602 116.11 68.1361 116.11 64.75H114.11ZM111.053 71.2056C109.028 72.754 106.011 73.6 101.86 73.6V75.6C106.243 75.6 109.759 74.7127 112.268 72.7944L111.053 71.2056ZM120.973 86H119.973V87H120.973V86ZM120.973 52.2H121.973V51.2H120.973V52.2ZM116.873 52.2H115.873V53.2H116.873V52.2ZM116.873 44V43H115.873V44H116.873ZM125.273 44H126.273V43H125.273V44ZM125.273 48.9H124.273V49.9H125.273V48.9ZM127.373 48.9V49.9H127.932L128.225 49.4241L127.373 48.9ZM131.623 44.85L131.15 43.969L131.143 43.9727L131.623 44.85ZM145.973 45.35L146.494 44.4961L146.494 44.4961L145.973 45.35ZM150.823 50.8L151.728 50.3736L151.728 50.3736L150.823 50.8ZM150.873 67.25L151.783 67.6658L151.785 67.6609L150.873 67.25ZM146.223 72.7L146.752 73.5488L146.762 73.5425L146.223 72.7ZM133.173 73.4L132.704 74.2829L132.711 74.2868L132.719 74.2906L133.173 73.4ZM129.473 69.9L130.331 69.3855L130.04 68.9H129.473V69.9ZM129.273 69.9V68.9H128.273V69.9H129.273ZM129.273 86V87H130.273V86H129.273ZM142.273 65.15L141.509 64.5048L141.509 64.5048L142.273 65.15ZM142.273 52.85L143.037 52.2048L143.037 52.2048L142.273 52.85ZM131.223 52.5L131.912 53.2255L131.912 53.225L131.223 52.5ZM131.223 65.55L130.526 66.2662L130.535 66.2753L130.544 66.2841L131.223 65.55ZM121.973 86V52.2H119.973V86H121.973ZM120.973 51.2H116.873V53.2H120.973V51.2ZM117.873 52.2V44H115.873V52.2H117.873ZM116.873 45H125.273V43H116.873V45ZM124.273 44V48.9H126.273V44H124.273ZM125.273 49.9H127.373V47.9H125.273V49.9ZM128.225 49.4241C129.202 47.8371 130.491 46.6096 132.103 45.7273L131.143 43.9727C129.223 45.0238 127.679 46.4962 126.522 48.3759L128.225 49.4241ZM132.097 45.731C133.72 44.859 135.716 44.4 138.123 44.4V42.4C135.464 42.4 133.127 42.9076 131.15 43.969L132.097 45.731ZM138.123 44.4C141.084 44.4 143.51 45.02 145.453 46.2039L146.494 44.4961C144.17 43.08 141.363 42.4 138.123 42.4V44.4ZM145.453 46.2039C147.414 47.3986 148.899 49.064 149.919 51.2264L151.728 50.3736C150.547 47.8693 148.8 45.9014 146.494 44.4961L145.453 46.2039ZM149.919 51.2264C150.944 53.4009 151.473 55.983 151.473 59H153.473C153.473 55.7503 152.903 52.8658 151.728 50.3736L149.919 51.2264ZM151.473 59C151.473 62.0204 150.959 64.6255 149.962 66.8391L151.785 67.6609C152.921 65.1412 153.473 62.2462 153.473 59H151.473ZM149.964 66.8342C148.972 69.0042 147.546 70.6677 145.685 71.8575L146.762 73.5425C148.968 72.1323 150.642 70.1625 151.783 67.6658L149.964 66.8342ZM145.695 71.8512C143.851 73 141.576 73.6 138.823 73.6V75.6C141.871 75.6 144.53 74.9333 146.752 73.5488L145.695 71.8512ZM138.823 73.6C136.743 73.6 135.023 73.2217 133.628 72.5094L132.719 74.2906C134.457 75.1783 136.504 75.6 138.823 75.6V73.6ZM133.643 72.5171C132.234 71.7678 131.136 70.7274 130.331 69.3855L128.616 70.4145C129.611 72.0726 130.979 73.3655 132.704 74.2829L133.643 72.5171ZM129.473 68.9H129.273V70.9H129.473V68.9ZM128.273 69.9V86H130.273V69.9H128.273ZM129.273 85H120.973V87H129.273V85ZM136.573 68.4C139.309 68.4 141.529 67.582 143.037 65.7952L141.509 64.5048C140.485 65.718 138.904 66.4 136.573 66.4V68.4ZM143.037 65.7952C144.5 64.0633 145.173 61.7588 145.173 59H143.173C143.173 61.4412 142.58 63.2367 141.509 64.5048L143.037 65.7952ZM145.173 59C145.173 56.2412 144.5 53.9367 143.037 52.2048L141.509 53.4952C142.58 54.7633 143.173 56.5588 143.173 59H145.173ZM143.037 52.2048C141.529 50.418 139.309 49.6 136.573 49.6V51.6C138.904 51.6 140.485 52.282 141.509 53.4952L143.037 52.2048ZM136.573 49.6C134.142 49.6 132.092 50.2954 130.535 51.775L131.912 53.225C133.021 52.1712 134.538 51.6 136.573 51.6V49.6ZM130.535 51.7745C128.992 53.2383 128.273 55.2426 128.273 57.65H130.273C130.273 55.6574 130.855 54.2284 131.912 53.2255L130.535 51.7745ZM128.273 57.65V60.35H130.273V57.65H128.273ZM128.273 60.35C128.273 62.7584 128.993 64.7725 130.526 66.2662L131.921 64.8338C130.854 63.7942 130.273 62.3416 130.273 60.35H128.273ZM130.544 66.2841C132.103 67.7255 134.149 68.4 136.573 68.4V66.4C134.531 66.4 133.011 65.8411 131.902 64.8159L130.544 66.2841ZM156.587 74H155.587V75H156.587V74ZM156.587 32V31H155.587V32H156.587ZM164.887 32H165.887V31H164.887V32ZM164.887 74V75H165.887V74H164.887ZM157.587 74V32H155.587V74H157.587ZM156.587 33H164.887V31H156.587V33ZM163.887 32V74H165.887V32H163.887ZM164.887 73H156.587V75H164.887V73ZM176.563 72.7L176.086 73.5793L176.093 73.5832L176.101 73.587L176.563 72.7ZM170.963 67.25L171.831 66.7539L171.831 66.7539L170.963 67.25ZM170.913 50.7L170.044 50.2038L170.039 50.2133L170.913 50.7ZM176.563 45.3L176.101 44.413L176.101 44.413L176.563 45.3ZM193.662 45.3L194.129 44.4156L194.129 44.4156L193.662 45.3ZM199.213 50.7L200.086 50.2133L200.086 50.2133L199.213 50.7ZM199.213 67.3L200.086 67.7867L200.089 67.7814L199.213 67.3ZM193.612 72.7L193.151 71.813L193.146 71.8156L193.612 72.7ZM190.863 65.15L191.61 65.8144L191.617 65.8062L190.863 65.15ZM190.863 52.85L190.115 53.5144L190.123 53.5227L190.863 52.85ZM179.263 52.85L178.523 52.1765L178.523 52.1773L179.263 52.85ZM179.263 65.15L178.508 65.8062L178.515 65.8149L178.523 65.8235L179.263 65.15ZM185.113 73.6C181.976 73.6 179.29 72.9925 177.024 71.813L176.101 73.587C178.702 74.9408 181.716 75.6 185.113 75.6V73.6ZM177.039 71.8207C174.8 70.608 173.07 68.9228 171.831 66.7539L170.094 67.7461C171.522 70.2439 173.525 72.192 176.086 73.5793L177.039 71.8207ZM171.831 66.7539C170.599 64.5981 169.962 62.0092 169.962 58.95H167.962C167.962 62.2908 168.659 65.2352 170.094 67.7461L171.831 66.7539ZM169.962 58.95C169.962 55.922 170.583 53.3458 171.786 51.1867L170.039 50.2133C168.642 52.7209 167.962 55.6446 167.962 58.95H169.962ZM171.781 51.1961C173.017 49.033 174.757 47.367 177.024 46.187L176.101 44.413C173.501 45.7663 171.475 47.7003 170.044 50.2039L171.781 51.1961ZM177.024 46.187C179.289 45.0082 181.991 44.4 185.163 44.4V42.4C181.734 42.4 178.703 43.0585 176.101 44.413L177.024 46.187ZM185.163 44.4C188.299 44.4 190.966 45.0076 193.196 46.1844L194.129 44.4156C191.559 43.059 188.559 42.4 185.163 42.4V44.4ZM193.196 46.1844C195.427 47.3622 197.135 49.0254 198.339 51.1867L200.086 50.2133C198.69 47.708 196.698 45.7711 194.129 44.4156L193.196 46.1844ZM198.339 51.1867C199.541 53.3443 200.162 55.9367 200.162 59H202.162C202.162 55.6633 201.484 52.7223 200.086 50.2133L198.339 51.1867ZM200.162 59C200.162 62.0275 199.542 64.623 198.336 66.8186L200.089 67.7814C201.483 65.2436 202.162 62.3058 202.162 59H200.162ZM198.339 66.8133C197.137 68.971 195.416 70.634 193.151 71.813L194.074 73.587C196.676 72.2326 198.688 70.2957 200.086 67.7867L198.339 66.8133ZM193.146 71.8156C190.916 72.9924 188.249 73.6 185.113 73.6V75.6C188.509 75.6 191.509 74.941 194.079 73.5844L193.146 71.8156ZM185.113 68.4C187.822 68.4 190.042 67.5785 191.61 65.8144L190.115 64.4856C189.017 65.7215 187.403 66.4 185.113 66.4V68.4ZM191.617 65.8062C193.149 64.0447 193.863 61.7219 193.863 58.95H191.863C191.863 61.3781 191.243 63.1887 190.108 64.4938L191.617 65.8062ZM193.863 58.95C193.863 56.1807 193.15 53.8794 191.602 52.1773L190.123 53.5227C191.242 54.7539 191.863 56.5193 191.863 58.95H193.863ZM191.61 52.1856C190.042 50.4215 187.822 49.6 185.113 49.6V51.6C187.403 51.6 189.017 52.2785 190.115 53.5144L191.61 52.1856ZM185.113 49.6C182.373 49.6 180.125 50.4189 178.523 52.1765L180.002 53.5235C181.134 52.2811 182.786 51.6 185.113 51.6V49.6ZM178.523 52.1773C176.975 53.8794 176.263 56.1807 176.263 58.95H178.263C178.263 56.5193 178.883 54.7539 180.002 53.5227L178.523 52.1773ZM176.263 58.95C176.263 61.7219 176.976 64.0447 178.508 65.8062L180.017 64.4938C178.882 63.1887 178.263 61.3781 178.263 58.95H176.263ZM178.523 65.8235C180.125 67.5811 182.373 68.4 185.113 68.4V66.4C182.786 66.4 181.134 65.7189 180.002 64.4765L178.523 65.8235ZM207.72 74H206.72V75H207.72V74ZM207.72 52.2H208.72V51.2H207.72V52.2ZM203.62 52.2H202.62V53.2H203.62V52.2ZM203.62 44V43H202.62V44H203.62ZM212.02 44H213.02V43H212.02V44ZM212.02 49.9H211.02V50.9H212.02V49.9ZM214.12 49.9V50.9H214.809L215.055 50.256L214.12 49.9ZM217.92 45.2L217.408 44.3411L217.408 44.3411L217.92 45.2ZM226.32 43.65H227.32V42.65H226.32V43.65ZM226.32 50.85V51.85H227.32V50.85H226.32ZM217.67 53.05L216.905 52.4063L216.896 52.4168L217.67 53.05ZM215.87 74V75H216.87V74H215.87ZM208.72 74V52.2H206.72V74H208.72ZM207.72 51.2H203.62V53.2H207.72V51.2ZM204.62 52.2V44H202.62V52.2H204.62ZM203.62 45H212.02V43H203.62V45ZM211.02 44V49.9H213.02V44H211.02ZM212.02 50.9H214.12V48.9H212.02V50.9ZM215.055 50.256C215.784 48.3411 216.915 46.9638 218.432 46.0589L217.408 44.3411C215.459 45.5028 214.056 47.2589 213.186 49.544L215.055 50.256ZM218.432 46.0589C219.999 45.1247 221.77 44.65 223.77 44.65V42.65C221.437 42.65 219.308 43.2086 217.408 44.3411L218.432 46.0589ZM223.77 44.65H226.32V42.65H223.77V44.65ZM225.32 43.65V50.85H227.32V43.65H225.32ZM226.32 49.85H223.42V51.85H226.32V49.85ZM223.42 49.85C220.636 49.85 218.39 50.6406 216.905 52.4064L218.436 53.6936C219.417 52.5261 221.004 51.85 223.42 51.85V49.85ZM216.896 52.4168C215.515 54.1053 214.87 56.282 214.87 58.85H216.87C216.87 56.618 217.426 54.928 218.444 53.6832L216.896 52.4168ZM214.87 58.85V74H216.87V58.85H214.87ZM215.87 73H207.72V75H215.87V73ZM234.17 72.7L233.693 73.5793L233.703 73.5844L234.17 72.7ZM228.62 67.25L227.743 67.7315L227.746 67.7367L228.62 67.25ZM228.57 50.65L229.445 51.1324L229.448 51.1271L228.57 50.65ZM233.97 45.3L234.437 46.1841L234.441 46.1817L233.97 45.3ZM250.37 45.2L249.896 46.0809L249.902 46.0838L250.37 45.2ZM255.57 50.35L254.689 50.8233L254.689 50.8233L255.57 50.35ZM257.37 61.15V62.15H258.37V61.15H257.37ZM234.62 61.15V60.15H233.459L233.63 61.2976L234.62 61.15ZM237.17 66.25L236.52 67.0106L236.52 67.0106L237.17 66.25ZM246.77 67.1L247.272 67.9648L247.272 67.9648L246.77 67.1ZM248.97 64.35V63.35H248.261L248.026 64.0185L248.97 64.35ZM257.27 64.35L258.249 64.554L258.499 63.35H257.27V64.35ZM252.42 71.9L252.994 72.7188L253.001 72.7137L252.42 71.9ZM234.82 55.65L233.845 55.4239L233.561 56.65H234.82V55.65ZM249.42 55.65V56.65H250.57L250.41 55.511L249.42 55.65ZM247.22 51.4L246.592 52.1788L246.599 52.1841L246.606 52.1894L247.22 51.4ZM237.37 51.4L236.773 50.5975L236.763 50.605L237.37 51.4ZM242.62 73.6C239.518 73.6 236.867 72.9931 234.636 71.8156L233.703 73.5844C236.272 74.9402 239.255 75.6 242.62 75.6V73.6ZM234.646 71.8207C232.409 70.6091 230.699 68.9269 229.493 66.7633L227.746 67.7367C229.141 70.2398 231.13 72.1909 233.693 73.5793L234.646 71.8207ZM229.496 66.7686C228.291 64.5745 227.67 61.9629 227.67 58.9H225.67C225.67 62.2371 226.348 65.1921 227.743 67.7314L229.496 66.7686ZM227.67 58.9C227.67 55.8321 228.276 53.2556 229.445 51.1324L227.694 50.1676C226.33 52.6444 225.67 55.5679 225.67 58.9H227.67ZM229.448 51.1271C230.622 48.9659 232.279 47.3247 234.437 46.1841L233.502 44.4159C230.993 45.742 229.051 47.6674 227.691 50.1729L229.448 51.1271ZM234.441 46.1817C236.637 45.0063 239.253 44.4 242.32 44.4V42.4C238.986 42.4 236.035 43.0604 233.498 44.4183L234.441 46.1817ZM242.32 44.4C245.326 44.4 247.839 44.9754 249.896 46.0809L250.843 44.3191C248.434 43.0246 245.58 42.4 242.32 42.4V44.4ZM249.902 46.0838C251.995 47.1921 253.584 48.7669 254.689 50.8233L256.45 49.8767C255.155 47.4664 253.277 45.6079 250.837 44.3162L249.902 46.0838ZM254.689 50.8233C255.795 52.8821 256.37 55.3788 256.37 58.35H258.37C258.37 55.1212 257.744 52.2845 256.45 49.8767L254.689 50.8233ZM256.37 58.35V61.15H258.37V58.35H256.37ZM257.37 60.15H234.62V62.15H257.37V60.15ZM233.63 61.2976C233.99 63.7063 234.927 65.6502 236.52 67.0106L237.819 65.4894C236.679 64.5165 235.916 63.0604 235.609 61.0024L233.63 61.2976ZM236.52 67.0106C238.109 68.3666 240.158 69 242.57 69V67C240.514 67 238.964 66.4667 237.819 65.4894L236.52 67.0106ZM242.57 69C244.434 69 246.03 68.6859 247.272 67.9648L246.267 66.2352C245.443 66.7141 244.238 67 242.57 67V69ZM247.272 67.9648C248.531 67.2337 249.409 66.1168 249.913 64.6815L248.026 64.0185C247.664 65.0499 247.075 65.7663 246.267 66.2352L247.272 67.9648ZM248.97 65.35H257.27V63.35H248.97V65.35ZM256.291 64.146C255.673 67.1099 254.192 69.4047 251.838 71.0863L253.001 72.7137C255.78 70.7286 257.533 67.9901 258.249 64.554L256.291 64.146ZM251.845 71.0813C249.487 72.7354 246.435 73.6 242.62 73.6V75.6C246.737 75.6 250.219 74.6646 252.994 72.7187L251.845 71.0813ZM234.82 56.65H249.42V54.65H234.82V56.65ZM250.41 55.511C250.117 53.4243 249.289 51.7426 247.833 50.6106L246.606 52.1894C247.55 52.924 248.189 54.0757 248.429 55.789L250.41 55.511ZM247.847 50.6212C246.419 49.4713 244.558 48.95 242.37 48.95V50.95C244.248 50.95 245.62 51.3953 246.592 52.1788L247.847 50.6212ZM242.37 48.95C240.177 48.95 238.285 49.473 236.773 50.5975L237.966 52.2025C239.054 51.3937 240.496 50.95 242.37 50.95V48.95ZM236.763 50.605C235.276 51.74 234.32 53.3784 233.845 55.4239L235.794 55.8761C236.185 54.1883 236.93 52.9934 237.976 52.195L236.763 50.605ZM263.904 74H262.904V75H263.904V74ZM263.904 52.2H264.904V51.2H263.904V52.2ZM259.804 52.2H258.804V53.2H259.804V52.2ZM259.804 44V43H258.804V44H259.804ZM268.204 44H269.204V43H268.204V44ZM268.204 49.9H267.204V50.9H268.204V49.9ZM270.304 49.9V50.9H270.993L271.238 50.256L270.304 49.9ZM274.104 45.2L273.592 44.3411L273.592 44.3411L274.104 45.2ZM282.504 43.65H283.504V42.65H282.504V43.65ZM282.504 50.85V51.85H283.504V50.85H282.504ZM273.854 53.05L273.088 52.4063L273.08 52.4168L273.854 53.05ZM272.054 74V75H273.054V74H272.054ZM264.904 74V52.2H262.904V74H264.904ZM263.904 51.2H259.804V53.2H263.904V51.2ZM260.804 52.2V44H258.804V52.2H260.804ZM259.804 45H268.204V43H259.804V45ZM267.204 44V49.9H269.204V44H267.204ZM268.204 50.9H270.304V48.9H268.204V50.9ZM271.238 50.256C271.968 48.3411 273.098 46.9638 274.616 46.0589L273.592 44.3411C271.643 45.5028 270.24 47.2589 269.369 49.544L271.238 50.256ZM274.616 46.0589C276.183 45.1247 277.954 44.65 279.954 44.65V42.65C277.621 42.65 275.491 43.2086 273.592 44.3411L274.616 46.0589ZM279.954 44.65H282.504V42.65H279.954V44.65ZM281.504 43.65V50.85H283.504V43.65H281.504ZM282.504 49.85H279.604V51.85H282.504V49.85ZM279.604 49.85C276.82 49.85 274.573 50.6406 273.089 52.4064L274.619 53.6936C275.601 52.5261 277.188 51.85 279.604 51.85V49.85ZM273.08 52.4168C271.698 54.1053 271.054 56.282 271.054 58.85H273.054C273.054 56.618 273.609 54.928 274.628 53.6832L273.08 52.4168ZM271.054 58.85V74H273.054V58.85H271.054ZM272.054 73H263.904V75H272.054V73Z" fill="#E5F0FB" mask="url(#path-4-outside-1_916_35952)"/>
</svg>
