<svg width="51" height="51" viewBox="0 0 51 51" fill="none" xmlns="http://www.w3.org/2000/svg">
<g style="mix-blend-mode:multiply">
<path d="M2.83594 25.959L1.86051 26.3245L1.49499 25.3491L2.47042 24.9836L2.83594 25.959ZM14.3953 31.2166L14.7609 32.192L14.3953 31.2166ZM28.9954 16.1564L28.6299 15.1809L29.6053 14.8154L29.9708 15.7908L28.9954 16.1564ZM28.9955 16.1566L29.361 17.132L28.3856 17.4975L28.02 16.5221L28.9955 16.1566ZM44.5187 10.3396L44.1532 9.36417L45.1286 8.99865L45.4941 9.97408L44.5187 10.3396ZM46.047 14.4181L47.0224 14.0526L47.388 15.028L46.4125 15.3935L46.047 14.4181ZM30.5238 20.2351L29.5484 20.6006L29.1828 19.6252L30.1583 19.2596L30.5238 20.2351ZM32.1463 24.5649L33.1217 24.1993L33.4872 25.1748L32.5118 25.5403L32.1463 24.5649ZM3.81137 25.5935C5.34969 29.6986 9.92465 31.7795 14.0298 30.2412L14.7609 32.192C9.57825 34.1341 3.80257 31.5071 1.86051 26.3245L3.81137 25.5935ZM29.3609 17.1318L3.20146 26.9344L2.47042 24.9836L28.6299 15.1809L29.3609 17.1318ZM28.02 16.5221L28.02 16.5219L29.9708 15.7908L29.9709 15.791L28.02 16.5221ZM44.8842 11.315L29.361 17.132L28.6299 15.1811L44.1532 9.36417L44.8842 11.315ZM45.0716 14.7836L43.5432 10.7051L45.4941 9.97408L47.0224 14.0526L45.0716 14.7836ZM30.1583 19.2596L45.6815 13.4427L46.4125 15.3935L30.8893 21.2105L30.1583 19.2596ZM31.1708 24.9304L29.5484 20.6006L31.4992 19.8696L33.1217 24.1993L31.1708 24.9304ZM14.0298 30.2412L31.7808 23.5894L32.5118 25.5403L14.7609 32.192L14.0298 30.2412Z" fill="#481D00"/>
<circle cx="22.6699" cy="33.2959" r="7.88086" fill="white" stroke="#481D00" stroke-width="2.08333"/>
</g>
</svg>
