<svg width="25" height="25" viewBox="0 0 25 25" fill="none" xmlns="http://www.w3.org/2000/svg">
<path d="M12.9414 2.39844C7.42141 2.39844 2.94141 6.87844 2.94141 12.3984C2.94141 17.9184 7.42141 22.3984 12.9414 22.3984C18.4614 22.3984 22.9414 17.9184 22.9414 12.3984C22.9414 6.87844 18.4614 2.39844 12.9414 2.39844ZM12.9414 20.3984C8.52141 20.3984 4.94141 16.8184 4.94141 12.3984C4.94141 7.97844 8.52141 4.39844 12.9414 4.39844C17.3614 4.39844 20.9414 7.97844 20.9414 12.3984C20.9414 16.8184 17.3614 20.3984 12.9414 20.3984Z" fill="black"/>
<path d="M12.9414 17.3984C15.7028 17.3984 17.9414 15.1599 17.9414 12.3984C17.9414 9.63701 15.7028 7.39844 12.9414 7.39844C10.18 7.39844 7.94141 9.63701 7.94141 12.3984C7.94141 15.1599 10.18 17.3984 12.9414 17.3984Z" fill="black"/>
</svg>
